<svg width="531" height="293" viewBox="0 0 531 293" fill="none" xmlns="http://www.w3.org/2000/svg">
<path d="M227.092 53.1264C227.027 51.041 226.822 48.9623 226.479 46.9042C226.339 45.8746 226.084 44.8633 225.881 43.8484L225.494 42.339L225.298 41.6009L225.073 40.8628L224.615 39.3866L224.099 37.9361L223.837 37.198C223.744 36.9581 223.645 36.7258 223.549 36.4859L222.966 35.0688C222.148 33.1984 221.231 31.3726 220.22 29.5993C219.231 27.8204 218.113 26.1266 216.957 24.4585C215.802 22.7903 214.544 21.2033 213.215 19.6828C207.425 12.8734 200.385 7.23603 192.474 3.07533C190.301 1.94972 187.566 0.613905 185.647 0.469974C185.038 0.421997 184.433 0.36661 183.846 0.348158C183.292 0.329736 182.737 0.345716 182.185 0.396091C181.392 0.473593 180.587 0.658134 180.709 1.24124C180.794 1.61029 181.237 2.06411 181.816 2.50698C182.104 2.7321 182.425 2.94994 182.754 3.16399C183.082 3.37805 183.407 3.60307 183.717 3.79867C186.606 5.6181 189.806 7.44495 192.729 9.37141C200.785 14.6636 207.834 21.4579 213.027 29.3852C214.302 31.3517 215.462 33.3898 216.503 35.4893C217.516 37.5835 218.379 39.7467 219.087 41.9626C219.212 42.3796 219.349 42.7929 219.456 43.2099L219.784 44.4722L219.95 45.1033L220.087 45.738L220.356 47.0113C220.674 48.7186 220.884 50.4443 220.984 52.178C221.196 55.6418 220.935 59.1182 220.209 62.5115C218.762 69.339 215.43 75.7754 210.831 81.2706C206.299 86.7289 200.671 91.3493 194.56 95.2465C187.452 99.7563 179.65 103.251 171.63 106.119C167.608 107.532 163.511 108.772 159.392 109.905C157.318 110.433 155.255 111.013 153.163 111.466C151.07 111.92 148.989 112.426 146.889 112.85C141.476 113.953 136.015 114.84 130.507 115.511C125.011 116.198 119.487 116.655 113.951 116.94C102.875 117.501 91.7725 117.236 80.736 116.146C75.712 115.654 70.7174 114.955 65.7524 114.05C64.4829 113.828 63.2244 113.57 61.9622 113.338C60.7001 113.105 59.4416 112.836 58.1905 112.551C55.6772 112.016 53.1898 111.4 50.7098 110.706C45.0746 109.173 39.5717 107.189 34.2537 104.776C28.9552 102.387 23.9619 99.3729 19.3808 95.7965C17.0699 93.9685 14.9359 91.9273 13.0073 89.6997C11.0901 87.4731 9.45058 85.0219 8.1247 82.3999C6.79886 79.7688 5.86629 76.9573 5.3568 74.0555L5.16858 72.9669L5.04676 71.8597C4.94712 71.1216 4.925 70.3835 4.8881 69.6454L4.86224 69.0918V66.287C4.86224 65.9179 4.8955 65.5488 4.91026 65.1798C5.01642 62.2193 5.36818 59.2727 5.96201 56.3704C6.54168 53.4763 7.36648 50.6366 8.42735 47.8822C10.5992 42.3863 13.7084 37.3089 17.6168 32.8764C21.5413 28.4673 26.044 24.6091 31.0023 21.4064C33.4825 19.7856 36.0529 18.307 38.7008 16.9777C40.0147 16.295 41.3691 15.686 42.7161 15.066C44.0631 14.446 45.4434 13.8923 46.831 13.3683C49.6395 12.287 52.485 11.3015 55.3784 10.4564C58.2717 9.61128 61.1799 8.8327 64.1249 8.18316C64.863 8.00971 65.6011 7.8473 66.3392 7.69968L68.5536 7.24575C70.0298 6.97265 71.506 6.68104 73.0044 6.44854C75.9789 5.93924 78.9683 5.52961 81.965 5.17162C87.9265 4.46796 93.9125 4.00171 99.9231 3.7729C105.924 3.52194 111.936 3.48497 117.944 3.61414C123.952 3.74331 129.96 4.05346 135.95 4.5074C141.94 4.96134 147.919 5.53332 153.89 6.20869C155.318 6.37107 156.75 6.52972 158.175 6.71794C159.599 6.90616 161.027 7.08709 162.452 7.28269C163.245 7.39341 164.039 7.50401 164.829 7.6258C165.534 7.77055 166.246 7.8789 166.962 7.95052C167.104 7.95062 167.246 7.92199 167.377 7.86618C167.508 7.81038 167.627 7.72858 167.726 7.6258C168.095 7.25674 167.261 6.67746 166.058 6.4671C155.274 4.5923 144.416 3.22183 133.485 2.35579C122.568 1.4922 111.615 1.07884 100.639 1.22646C95.0331 1.30396 89.4457 1.52172 83.836 2.07161C78.2264 2.6215 72.591 3.40383 67.0146 4.49623C64.2246 5.03136 61.453 5.66613 58.6888 6.3415C55.9245 7.01686 53.1825 7.81769 50.4699 8.71818C47.7574 9.61867 45.0559 10.5636 42.4098 11.6892C39.7636 12.8148 37.1397 13.9883 34.5932 15.3464C29.395 18.0477 24.5382 21.3608 20.1263 25.215C17.916 27.18 15.8535 29.3053 13.9558 31.5737C12.0407 33.8478 10.3198 36.2785 8.81118 38.8404C5.76719 44.0173 3.58587 49.6551 2.35274 55.5327C1.61545 58.9246 1.15264 62.3704 0.968792 65.8366C0.920815 66.7962 0.902355 67.7742 0.869141 68.7633C0.869141 69.0069 0.869141 69.2651 0.869141 69.5272L0.887521 70.3096C0.887521 70.83 0.887586 71.354 0.954016 71.8781L1.08682 73.4539L1.30829 75.0188C1.37472 75.5429 1.48914 76.0558 1.59617 76.5687C1.70319 77.0817 1.79174 77.5984 1.94305 78.0967C2.70063 81.0333 3.82791 83.862 5.29779 86.5148C6.6947 89.0303 8.35089 91.3929 10.2394 93.5638C13.8334 97.641 17.9945 101.181 22.5953 104.074C27.0718 106.924 31.792 109.372 36.7005 111.389C39.1781 112.415 41.7197 113.376 44.3252 114.271C46.9381 115.153 49.6211 115.984 52.3927 116.759C63.4643 119.822 74.8238 121.597 86.1943 122.501C97.5666 123.381 108.989 123.408 120.365 122.582C138.017 121.305 155.521 117.98 172.331 112.179C176.118 110.85 179.871 109.404 183.543 107.75C187.239 106.111 190.847 104.282 194.353 102.27C201.365 98.2101 207.986 93.287 213.544 87.1902L214.071 86.6218L214.573 86.0313L215.581 84.8467C216.245 84.0532 216.862 83.2117 217.5 82.3961C218.138 81.5805 218.71 80.7058 219.271 79.8127C219.832 78.9196 220.404 78.0635 220.895 77.1409L221.663 75.7753L222.36 74.3692C222.848 73.4466 223.231 72.4687 223.656 71.5128C224.451 69.5726 225.112 67.5798 225.634 65.5488C226.701 61.4972 227.192 57.3152 227.092 53.1264Z" fill="#DC0C23"/>
<path d="M479.242 254.072C477.753 254.404 413.997 268.101 358.032 259.298L355.471 258.812L352.921 258.237C351.235 257.846 349.522 257.5 347.839 257.068L342.794 255.742C341.116 255.302 339.46 254.756 337.793 254.273L335.518 253.589L333.274 252.824C331.782 252.309 330.264 251.84 328.782 251.281C327.3 250.723 325.755 250.18 324.225 249.652C322.694 249.125 321.205 248.522 319.699 247.969C312.817 245.156 306.212 241.937 299.939 238.34C293.297 234.681 287.044 230.598 281.242 226.132C275.497 221.492 270.281 216.461 265.653 211.096C260.896 205.775 256.076 200.441 251.911 194.752C247.681 188.945 243.868 182.955 240.49 176.808C238.768 173.758 237.179 170.652 235.606 167.543C234.033 164.434 232.593 161.268 231.186 158.101C228.382 151.745 226.014 145.299 223.675 138.792C223.12 137.233 222.566 135.674 222.119 134.084L221.74 132.754C221.69 132.346 221.583 131.943 221.423 131.553C221.299 131.372 220.984 131.274 220.61 131.202C219.87 131.058 219.285 131.706 219.428 132.395C220.766 138.526 222.523 144.595 224.694 150.575C226.812 156.532 229.154 162.425 231.581 168.319C232.829 171.326 234.09 174.324 235.609 177.257L236.76 179.464L237.963 181.652C238.748 183.12 239.608 184.557 240.446 186.006C243.845 191.772 247.615 197.396 251.741 202.855C255.883 208.335 260.388 213.639 265.236 218.743L267.058 220.665L268.948 222.539L270.841 224.42L272.801 226.25L274.914 228.25L277.408 230.481L278.738 231.665L280.13 232.829L282.947 235.136C288.196 239.231 293.824 243.01 299.784 246.44L301.92 247.666L302.99 248.283L304.087 248.859L308.535 251.233L313.186 253.508C313.965 253.906 314.775 254.271 315.592 254.634L318.076 255.763C324.727 258.74 331.65 261.318 338.787 263.476C404.971 284.979 473.519 263.818 476.163 263.222C477.478 262.928 478.801 262.633 480.071 262.262C481.342 261.891 482.627 261.49 483.889 261.047C485.288 260.56 487.047 260.033 487.777 258.833C488.28 258.086 488.693 257.301 489.009 256.491C489.327 255.825 489.3 255.086 488.933 254.435C488.344 253.617 487.044 253.449 486.016 253.403C483.728 253.352 481.443 253.578 479.242 254.072Z" fill="#DC0C23"/>
<path d="M471.119 291.107C473.32 289.768 475.571 288.471 477.634 286.961C478.665 286.226 479.633 285.411 480.6 284.616L485.021 281.058L489.476 277.499L493.911 274.006C497.338 271.309 500.977 268.848 504.538 266.29L511.425 261.347L516.743 257.515L519.467 255.615L524.217 252.24C525.81 251.103 527.057 249.997 528.339 248.964L530.14 247.552C526.088 246.793 522.383 246.031 518.704 245.391C516.373 245.002 514.145 244.664 512.089 244.356L509.513 243.994C508.688 243.875 507.862 243.75 507.044 243.603C503.789 242.951 500.585 242.15 497.446 241.206C494.265 240.34 490.983 239.955 487.76 239.327C484.536 238.7 481.243 237.947 477.986 237.273C474.729 236.599 471.478 235.992 468.199 235.471C464.943 234.882 461.647 234.446 458.326 234.166C457.526 234.115 456.732 234.057 455.933 233.986L455.274 233.924C455.108 233.914 454.839 233.779 454.676 233.869C454.513 234.046 454.4 234.248 454.343 234.462C454.126 235.049 454.236 235.691 454.566 235.759C460.422 237.024 466.391 237.941 472.075 239.797C473.536 240.272 474.976 240.786 476.463 241.167L480.939 242.303L489.893 244.587C492.893 245.372 495.888 246.172 498.876 247.02C500.382 247.447 501.881 247.885 503.372 248.333C504.839 248.78 506.99 249.545 508.97 250.093L509.91 250.348L510.137 250.412L510.148 250.443L510.262 250.525C510.314 250.566 510.374 250.598 510.441 250.62C510.552 250.67 510.708 250.702 510.716 250.748C510.619 250.778 510.518 250.8 510.416 250.815C510.078 250.89 510.017 250.863 509.997 250.854L509.908 250.914L509.021 251.503L507.253 252.698L503.727 255.094C500.08 257.577 496.554 260.188 493.067 262.857L483.648 270.074C480.51 272.498 477.391 274.946 474.293 277.419L469.654 281.106C467.954 282.468 466.1 283.71 464.766 285.455C464.473 285.741 464.27 286.077 464.174 286.437C464.077 286.797 464.089 287.17 464.21 287.525C464.418 288.224 464.677 288.912 464.986 289.587C465.257 290.223 465.672 290.815 466.21 291.334C466.444 291.568 466.742 291.757 467.083 291.885C467.423 292.014 467.796 292.078 468.173 292.074C469.264 292.02 470.3 291.68 471.119 291.107Z" fill="#DC0C23"/>
</svg>
