<svg width="312" height="162" fill="none" xmlns="http://www.w3.org/2000/svg"><path d="M260.242 123.072c-1.489.332-65.245 14.029-121.21 5.226l-2.561-.486-2.55-.575c-1.686-.391-3.399-.737-5.082-1.169l-5.045-1.326c-1.678-.44-3.334-.986-5.001-1.469l-2.275-.684-2.244-.765c-1.492-.515-3.01-.984-4.492-1.543a175.802 175.802 0 0 0-4.557-1.629c-1.531-.527-3.02-1.13-4.526-1.683a165.968 165.968 0 0 1-19.76-9.629c-6.642-3.659-12.895-7.742-18.697-12.208-5.745-4.64-10.961-9.671-15.59-15.036-4.756-5.322-9.576-10.655-13.74-16.344A167.413 167.413 0 0 1 21.49 45.808c-1.722-3.05-3.31-6.156-4.884-9.265-1.573-3.11-3.013-6.276-4.42-9.442-2.804-6.356-5.172-12.802-7.511-19.309-.555-1.559-1.11-3.118-1.556-4.708l-.379-1.33A4.67 4.67 0 0 0 2.423.553C2.3.372 1.984.273 1.61.203A1.002 1.002 0 0 0 .428 1.394a141.977 141.977 0 0 0 5.266 18.18c2.118 5.957 4.46 11.85 6.887 17.744 1.248 3.007 2.51 6.005 4.028 8.938l1.15 2.207 1.204 2.189c.785 1.467 1.645 2.904 2.483 4.353a177.241 177.241 0 0 0 11.295 16.85 185.402 185.402 0 0 0 13.495 15.887l1.822 1.922 1.89 1.874 1.893 1.88 1.96 1.832 2.113 1.999 2.494 2.231 1.33 1.184 1.392 1.164 2.817 2.307a144.594 144.594 0 0 0 16.837 11.304l2.136 1.226 1.07.617 1.097.576 4.448 2.374 4.65 2.275c.78.398 1.59.763 2.407 1.126l2.484 1.129a173.891 173.891 0 0 0 20.711 7.713c66.184 21.503 134.732.342 137.376-.254 1.315-.294 2.638-.589 3.908-.96a75.023 75.023 0 0 0 3.818-1.215c1.399-.487 3.158-1.014 3.888-2.214.503-.747.916-1.532 1.232-2.342a2.188 2.188 0 0 0-.076-2.056c-.589-.818-1.889-.986-2.917-1.032a28.138 28.138 0 0 0-6.774.669Z" fill="#DC0C23"/><path d="M252.119 160.107c2.201-1.339 4.452-2.636 6.515-4.146 1.031-.735 1.999-1.55 2.966-2.345l4.421-3.558 4.455-3.559 4.435-3.493c3.427-2.697 7.066-5.158 10.627-7.716l6.887-4.943 5.318-3.832 2.724-1.9 4.75-3.375c1.593-1.137 2.84-2.243 4.122-3.276l1.801-1.412c-4.052-.759-7.757-1.521-11.436-2.161a397.914 397.914 0 0 0-6.615-1.035l-2.576-.362a72.455 72.455 0 0 1-2.469-.391 104.816 104.816 0 0 1-9.598-2.397c-3.181-.866-6.463-1.251-9.686-1.879-3.224-.627-6.517-1.38-9.774-2.054a213.754 213.754 0 0 0-9.787-1.802 105.06 105.06 0 0 0-9.873-1.305c-.8-.051-1.594-.109-2.393-.18l-.659-.062c-.166-.01-.435-.145-.598-.055a1.415 1.415 0 0 0-.333.593c-.217.587-.107 1.229.223 1.297 5.856 1.265 11.825 2.182 17.509 4.038 1.461.475 2.901.989 4.388 1.37l4.476 1.136 8.954 2.284c3 .785 5.995 1.585 8.983 2.433 1.506.427 3.005.865 4.496 1.313 1.467.447 3.618 1.212 5.598 1.76l.94.255.227.064.011.031.114.082a.58.58 0 0 0 .179.095c.111.05.267.082.275.128-.097.03-.198.052-.3.067-.338.075-.399.048-.419.039l-.089.06-.887.589-1.768 1.195-3.526 2.396c-3.647 2.483-7.173 5.094-10.66 7.763l-9.419 7.217a745.64 745.64 0 0 0-9.355 7.345l-4.639 3.687c-1.7 1.362-3.554 2.604-4.888 4.349a2.156 2.156 0 0 0-.592.982c-.097.36-.085.733.036 1.088.208.699.467 1.387.776 2.062a5.358 5.358 0 0 0 1.224 1.747c.234.234.532.423.873.551.34.129.713.193 1.09.189 1.091-.054 2.127-.394 2.946-.967Z" fill="#DC0C23"/></svg>