<svg width="278" height="200" fill="none" xmlns="http://www.w3.org/2000/svg"><path fill-rule="evenodd" clip-rule="evenodd" d="M228.55 161.624a154.26 154.26 0 0 1-16.897-2.483l-8.658-1.943-4.344-.927-4.34-1.06c-5.78-1.487-11.562-3.118-17.28-5.185a152.966 152.966 0 0 1-17.058-7.14c-.704-.338-1.408-.67-2.113-1.043l-2.076-1.114c-1.395-.758-2.751-1.455-4.155-2.27l-4.894-2.859a316.123 316.123 0 0 0-5.588-3.336l-4.046-2.408a258.812 258.812 0 0 1-3.881-2.318l-3.772-2.254-5.545-3.402-1.837-1.162-3.721-2.367c-2.473-1.647-5.044-3.301-7.673-5.171a539.422 539.422 0 0 1-15.643-11.296 362.92 362.92 0 0 1-15.147-11.961c-7.661-6.388-15.126-12.995-22.262-19.93A266.98 266.98 0 0 1 39.37 50.36a237.066 237.066 0 0 1-15.956-21.301c-.624-.908-1.248-1.815-1.803-2.738l-1.726-2.793c-1.18-1.841-2.24-3.718-3.33-5.593l-.899-1.556c-.292-.527-.562-1.055-.843-1.582-.563-1.055-1.125-2.11-1.704-3.164C11.966 9.517 10.876 7.4 9.546 5.33c-.695-1.163-1.457-2.623-2.88-3.39A24.762 24.762 0 0 0 3.854.562C3.096.274 2.17 0 1.492.253.61.589.567 1.652.622 2.474a18.26 18.26 0 0 0 1.712 5.885l1.706 3.976 1.86 3.94.945 1.98 1.024 1.96a277.7 277.7 0 0 0 2.113 3.926c.726 1.317 1.534 2.544 2.32 3.812.396.63.78 1.262 1.188 1.887l1.25 1.873 1.875 2.785c.626.936 1.29 1.847 1.933 2.783l1.95 2.782c.652.917 1.345 1.81 2.014 2.715l2.045 2.724c.687.899 1.408 1.79 2.111 2.681l2.117 2.67 4.342 5.217 2.226 2.548 2.23 2.537 2.287 2.487c7.081 7.665 14.378 15.145 22.128 22.122a347.204 347.204 0 0 0 31.367 25.148c2.478 1.751 4.956 3.502 7.477 5.181 2.52 1.68 5.204 3.281 7.814 4.893 5.954 3.611 11.91 7.269 17.971 10.598 6.195 3.362 12.444 6.445 18.692 9.615 6.248 3.169 12.286 6.505 18.585 9.314a138.86 138.86 0 0 0 4.715 1.958c1.586.569 3.183 1.115 4.774 1.655 1.59.54 3.188.987 4.776 1.481l2.39.712 2.387.66c1.608.435 3.219.928 4.826 1.329l4.826 1.214c3.215.726 6.42 1.488 9.627 2.059a188.796 188.796 0 0 0 18.941 2.642c6.145.628 12.32.909 18.496.843l4.349-.099 1.209-.017c.3-.015.86.117 1.09-.01.14-.077.188-.362.182-.713a1.546 1.546 0 0 0-1.269-1.445c-5.489-.331-11.082-.658-16.673-1.157Z" fill="#F06400"/><path fill-rule="evenodd" clip-rule="evenodd" d="m277.227 169.149-.451-.357-1.202-.941-2.298-1.835-1.118-.876-1.075-.826a156.746 156.746 0 0 0-3.963-2.908 82.248 82.248 0 0 1-3.328-2.468 76.77 76.77 0 0 1-5.995-5.61c-1.95-1.917-4.218-3.5-6.276-5.267-2.059-1.767-4.179-3.629-6.292-5.439a129.005 129.005 0 0 0-6.428-5.184 78.457 78.457 0 0 0-6.724-4.788 27.91 27.91 0 0 1-1.687-1.066l-.466-.298c-.113-.075-.256-.281-.412-.273a1.262 1.262 0 0 0-.484.342c-.395.373-.569.924-.358 1.103 3.794 3.205 7.778 6.186 11.208 9.831.873.929 1.724 1.883 2.646 2.746l2.794 2.622 5.573 5.275a382.578 382.578 0 0 1 5.558 5.408c.925.926 1.826 1.848 2.757 2.786.931.937 2.168 2.332 3.401 3.542l2.624 2.545c.042.041.082.085.117.132l-.041.002-.23.012a.46.46 0 0 1-.181-.048l-.446.185-.891.38-1.777.768a478.746 478.746 0 0 0-7.078 3.158c-3.65 1.661-7.236 3.45-10.808 5.279l-9.641 4.993a1211.033 1211.033 0 0 0-9.625 5.079l-4.78 2.555c-1.762.934-3.611 1.745-5.21 3.056a2.234 2.234 0 0 0-1.064 1.705c-.056.631-.07 1.266-.04 1.899a4.04 4.04 0 0 0 .412 1.709 1.735 1.735 0 0 0 1.328.917 4.844 4.844 0 0 0 2.554-.439c2.165-.845 4.349-1.645 6.454-2.642 1.047-.498 2.06-1.064 3.081-1.619l9.222-4.966 4.573-2.429c3.529-1.884 7.156-3.538 10.739-5.269l15.488-7.443 2.308-1.077c1.649-.772 3.123-1.604 4.554-2.353.82-.427 1.631-.84 2.433-1.239l.601-.297c.098-.005-.003-.069-.04-.107" fill="#F06400"/></svg>