<svg width="343" height="142" viewBox="0 0 343 142" fill="none" xmlns="http://www.w3.org/2000/svg">
<path fill-rule="evenodd" clip-rule="evenodd" d="M289.073 98.1179C282.984 99.3538 276.831 100.251 270.642 100.806L260.989 101.483L256.16 101.872L251.295 102.121C244.791 102.374 238.24 102.478 231.62 102.106C224.898 101.802 218.201 101.092 211.565 99.9789C210.724 99.8456 209.885 99.7182 209.031 99.5494L206.514 99.034C204.82 98.6781 203.185 98.3747 201.464 97.9618L195.456 96.5046C193.247 95.9192 190.845 95.3159 188.575 94.7655L183.595 93.515C181.974 93.1199 180.381 92.7171 178.816 92.3062L174.169 91.1302L167.312 89.3092L165.03 88.6697L160.403 87.3603C157.304 86.4122 154.1 85.488 150.769 84.356C144.095 82.1678 137.469 79.864 130.894 77.4446C124.301 75.0361 117.771 72.4316 111.329 69.6823C101.328 65.4025 91.4629 60.834 81.8393 55.8193C73.1943 51.3076 64.7814 46.3644 56.6324 41.0085C48.5386 35.694 40.7497 29.9291 33.3026 23.7409C32.3672 22.9878 31.4318 22.2347 30.5631 21.4444L27.8872 19.0653C26.0789 17.5101 24.3844 15.8809 22.6602 14.2624L21.2337 12.9177C20.7632 12.4587 20.3163 11.9914 19.8576 11.5283C18.9404 10.602 18.0232 9.67566 17.0883 8.75569C15.234 6.90351 13.4327 5.03241 11.3958 3.28535C10.3063 2.28718 9.05409 1.00032 7.32644 0.643191C6.21713 0.385999 5.09267 0.199232 3.95978 0.0840078C3.07648 0.0190752 2.02358 0.0213192 1.39398 0.499308C0.576768 1.12424 0.864515 2.24844 1.1781 3.09005C2.06302 5.15214 3.29035 7.04975 4.80775 8.70288L7.83307 12.3243L11.0078 15.8591L12.6142 17.633L14.2968 19.3597C15.4252 20.5041 16.5619 21.6521 17.7321 22.8016C18.9023 23.951 20.1293 24.9801 21.3477 26.059C21.9588 26.5945 22.5578 27.1342 23.1787 27.6595L25.0707 29.2249L27.9002 31.5492C28.8462 32.3319 29.8255 33.076 30.7893 33.8524L33.6957 36.1494C34.6649 36.9037 35.6671 37.6197 36.6499 38.3559L39.6378 40.5638C40.6362 41.2878 41.6679 41.9932 42.6819 42.7049L45.7282 44.832L51.8959 48.9259L55.0179 50.8926L58.1413 52.8454L61.3075 54.7296C71.1023 60.5233 81.0644 66.0573 91.3424 70.9252C104.558 77.1951 118.125 82.6938 131.976 87.3934C135.113 88.4481 138.25 89.5027 141.408 90.4695C144.567 91.4362 147.872 92.2707 151.102 93.1387C158.452 95.0506 165.819 97.0098 173.191 98.5935C180.715 100.17 188.208 101.437 195.727 102.796C203.246 104.154 210.598 105.752 218.057 106.718C219.915 106.944 221.761 107.134 223.595 107.289C225.43 107.388 227.269 107.459 229.1 107.525C230.931 107.592 232.739 107.561 234.553 107.58L237.272 107.577L239.973 107.52C241.789 107.472 243.627 107.484 245.431 107.4L250.852 107.16C254.438 106.914 258.026 106.707 261.555 106.302C268.476 105.597 275.356 104.542 282.17 103.141C288.786 101.875 295.326 100.239 301.758 98.2396L306.271 96.7764L307.53 96.3807C307.837 96.2709 308.464 96.234 308.664 96.0292C308.787 95.9055 308.749 95.5925 308.632 95.2274C308.505 94.8682 308.26 94.5626 307.937 94.3604C307.615 94.1583 307.233 94.0714 306.855 94.1144C301.016 95.4841 295.07 96.8919 289.073 98.1179Z" fill="#00AEEF"/>
<path fill-rule="evenodd" clip-rule="evenodd" d="M342.284 90.7629L341.701 90.5308L340.151 89.9237L337.176 88.7247L335.734 88.1588L334.352 87.6316C332.523 86.9509 330.581 86.2566 329.303 85.8325C327.876 85.3479 326.452 84.8493 325.054 84.2946C322.312 83.1094 319.636 81.7782 317.037 80.3069C314.4 78.9141 311.535 77.969 308.833 76.7663C306.13 75.5635 303.332 74.2813 300.559 73.0502C297.786 71.8191 295.049 70.6887 292.222 69.6435C289.434 68.5279 286.59 67.5596 283.7 66.743C282.971 66.5695 282.302 66.375 281.604 66.1572L281.024 65.9906C280.882 65.9479 280.669 65.7775 280.509 65.8344C280.337 65.9697 280.2 66.1442 280.11 66.3434C279.813 66.8561 279.804 67.4861 280.081 67.6074C285.046 69.7699 290.141 71.6395 294.864 74.3751C296.067 75.073 297.254 75.803 298.486 76.4168L302.226 78.2832L309.698 82.0517C312.208 83.33 314.707 84.6343 317.195 85.9647C318.451 86.6436 319.68 87.3251 320.946 88.0137C322.212 88.7023 323.941 89.7725 325.608 90.6513L329.144 92.49C329.202 92.5193 329.256 92.5533 329.308 92.5918C329.308 92.5918 329.308 92.5919 329.266 92.6066L329.029 92.6911C328.962 92.7069 328.893 92.7089 328.825 92.6973L328.417 93.0296L327.605 93.7061L325.988 95.063C323.835 96.8779 321.707 98.724 319.581 100.576C316.286 103.452 313.099 106.442 309.939 109.47L301.427 117.701C298.592 120.459 295.769 123.231 292.958 126.017L288.762 130.18C287.213 131.707 285.535 133.132 284.275 135.002C284.02 135.284 283.835 135.623 283.734 135.99C283.633 136.357 283.62 136.742 283.695 137.116C283.834 137.793 284.019 138.46 284.248 139.112C284.443 139.729 284.773 140.294 285.212 140.768C285.426 140.988 285.69 141.153 285.982 141.247C286.273 141.342 286.584 141.364 286.886 141.311C287.829 141.131 288.704 140.696 289.418 140.055C291.415 138.495 293.448 136.977 295.335 135.277C296.273 134.429 297.155 133.521 298.048 132.622L306.131 124.551L310.149 120.584C313.247 117.511 316.52 114.65 319.723 111.721L333.578 99.1031L335.652 97.2561C337.134 95.9339 338.413 94.604 339.675 93.3739C340.398 92.6715 341.116 91.9864 341.829 91.3186L342.364 90.8209C342.465 90.785 342.339 90.7498 342.289 90.721" fill="#00AEEF"/>
</svg>
