<svg width="506" height="281" fill="none" xmlns="http://www.w3.org/2000/svg"><path d="M505.08 9.348a9.54 9.54 0 0 0-.312-1.033 12.46 12.46 0 0 0-3.998-5.561l-.682-.522-.709-.437c-.451-.269-.92-.506-1.405-.709a3.997 3.997 0 0 0-.675-.258l-.863.094-1.727.18-15.665 1.712-1.104.211-6.427 1.415-8.559 1.867c-8.864 1.933-17.668 3.997-26.561 6.148-8.017 1.939-16.106 3.963-24.099 6.214-7.993 2.252-16.001 4.604-23.912 7.096a1440.716 1440.716 0 0 0-11.768 3.75c-4.333 1.392-8.805 2.565-12.893 4.73-1.144.607-2.593 1.236-3.083 3.004a21.905 21.905 0 0 0-.786 3.534 6.057 6.057 0 0 0 .301 3.23 3.465 3.465 0 0 0 2.631 1.963 13.18 13.18 0 0 0 5.869-.365c5.141-1.178 10.316-2.22 15.382-3.648 2.506-.718 4.993-1.537 7.488-2.314 3.732-1.216 7.475-2.373 11.227-3.532 3.753-1.158 7.53-2.322 11.319-3.381 3.789-1.06 7.525-2.118 11.242-3.138 8.698-2.343 17.606-4.091 26.491-6.1 5.738-1.291 11.47-2.617 17.196-3.977l8.582-2.074 4.282-1.057 2.514-.675 2.327-.639 1.19-.325c.399-.076.835-.239 1.134-.287a2.6 2.6 0 0 1 1.985.563 1.739 1.739 0 0 1 .612 1.768 32.578 32.578 0 0 1-.429 2.047l-.606 2.31-.326 1.2-.491 1.715a270.708 270.708 0 0 0-1.977 7.03c-1.599 6.148-2.983 12.36-4.687 18.466-1.704 6.106-4.03 11.865-6.111 17.796-2.081 5.932-3.343 12.094-4.992 18.12l-5.047 18.34a427.589 427.589 0 0 0-4.484 18.375c-1.357 6.172-2.774 12.302-3.606 18.594-.206 1.502-.412 3.004-.632 4.527l-.202 1.245c-.047.309-.303.807-.182 1.119.121.312.459.423.924.643.961.415 2.017.222 2.177-.417 2.924-11.009 5.319-22.164 9.232-32.887.999-2.747 2.069-5.445 2.939-8.219l2.602-8.367c1.736-5.571 3.512-11.13 5.329-16.677 1.851-5.57 3.757-11.124 5.777-16.639 1.03-2.77 2.051-5.538 3.145-8.294 1.094-2.756 2.768-6.627 4.2-10.284a415.602 415.602 0 0 0 4.684-12.818c1.921-5.434 3.833-10.822 5.873-16.605.111-1.351.218-2.817.34-4.347.055-.768.125-1.557.184-2.352a2.498 2.498 0 0 0-.178-1.068Z" fill="#F06400"/><path d="M443.581 60.933c.655-1.183 1.138-2.57.321-3.48a3.697 3.697 0 0 0-2.556-.921 19.028 19.028 0 0 0-3.469.285c-5.123.856-10.39 3.036-15.116 5.368-13.078 6.432-24.95 14.29-36.286 22.186-5.618 3.93-11.152 7.976-16.699 12.006l-50.173 36.183-24.917 17.87c-19.245 13.806-38.773 27.243-58.187 40.809l-47.002 32.862-4.658 3.288-2.207 1.541a4.27 4.27 0 0 1-1.052.625 3.316 3.316 0 0 1-2.404-.175 4.413 4.413 0 0 1-1.013-.687 6.563 6.563 0 0 1-1.095-1.121 5.873 5.873 0 0 1-.682-1.262l-.161-.841-.179-.935a14.757 14.757 0 0 1 .149-4.284 59.019 59.019 0 0 1 2.71-9.277l3.402-9.85c2.336-6.72 4.468-13.49 6.647-20.242 4.993-15.353 10.388-30.624 15.44-45.988l6.864-21.094c.22-.678.401-1.369.539-2.068.038-.351.049-.706.079-1.055s-.038-.706-.052-1.056a9.355 9.355 0 0 0-1.438-3.928 12.117 12.117 0 0 0-2.825-3.063 13.362 13.362 0 0 0-1.774-1.123 6.178 6.178 0 0 0-.911-.434 6.752 6.752 0 0 0-.951-.364 12.324 12.324 0 0 0-1.982-.502l-1.024-.104c-.329-.016-.653-.007-.972-.016-1.28.033-2.553.209-3.795.523a26.677 26.677 0 0 0-6.714 2.853c-1.835 1.047-3.574 2.182-5.281 3.301l-5.149 3.347-5.165 3.305c-1.728 1.098-3.421 2.241-5.138 3.354-3.412 2.247-6.882 4.418-10.266 6.722l-10.139 6.874c-13.442 9.321-26.119 19.695-38.743 30.066-12.783 10.509-25.367 21.278-37.495 32.542-12.127 11.263-23.756 22.784-34.964 34.806a2599.75 2599.75 0 0 0-8.332 9.084c-2.747 3.054-5.442 6.143-8.148 9.224a172.517 172.517 0 0 0-4.003 4.678l-3.925 4.725a99.784 99.784 0 0 0-7.413 9.657 26.93 26.93 0 0 0-4.236 10.097 9.975 9.975 0 0 0-.14 1.428l-.032.711c.042.221.035.46.045.696-.004.426.02.851.076 1.272l.125.655c.05.178.127.347.229.502a1.41 1.41 0 0 0 1.197.458 1.572 1.572 0 0 0 1.257-.707c.142-.192.24-.412.29-.646.073-.235.098-.483.073-.727a13.408 13.408 0 0 1 1.857-7.652 47.003 47.003 0 0 1 5.746-8.148c2.35-2.731 4.843-5.543 7.223-8.298 2.38-2.756 4.916-5.532 7.41-8.247 4.949-5.493 10.092-10.804 15.24-16.132 5.148-5.329 10.484-10.412 15.964-15.391 5.537-5.138 11.248-10.011 16.809-15.12l8.51-7.558c2.82-2.531 5.74-4.957 8.604-7.435 11.537-9.838 23.288-19.435 35.401-28.563 12.113-9.129 24.589-18.115 37.316-26.524 3.186-2.135 6.442-4.185 9.667-6.256a517.562 517.562 0 0 1 9.758-6.105l5.334-3.25a61.011 61.011 0 0 1 5.677-3.165c1.435-.74 2.997-1.2 4.603-1.357.278-.015.557-.007.834.026.17-.033.149.041.193.042.044 0 .086.036.132.045.046.009.117.057.183.08.07.025.136.06.196.103a.578.578 0 0 1 .19.122.683.683 0 0 1 .163.85c-1.042 2.843-2.082 5.606-3.099 8.347a3525.229 3525.229 0 0 1-3.218 8.784c-2.099 5.794-4.167 11.476-6.246 17.187-4.133 11.417-8.312 22.913-13.018 35.48l-8.012 21.587c-1.317 3.662-2.672 6.943-3.985 11.406a37.105 37.105 0 0 0-1.374 7.373c-.246 2.975.05 5.969.872 8.838a19 19 0 0 0 2.293 4.937c.475.724.993 1.419 1.552 2.082a23.172 23.172 0 0 0 1.784 1.817c1.413 1.277 3 2.347 4.714 3.178a18.602 18.602 0 0 0 5.418 1.606c1.869.247 3.768.155 5.605-.27a17.528 17.528 0 0 0 5.151-2.272l5.284-3.655 18.933-13.041a4334.314 4334.314 0 0 0 58.423-40.96l52.451-37.351 52.505-37.633 26.008-18.704c9.602-6.78 19.529-13.06 29.41-18.844 2.767-1.657 6.336-3.31 8.012-5.648a37.193 37.193 0 0 0 2.947-4.264Z" fill="#F06400"/></svg>