<svg width="134" height="236" fill="none" xmlns="http://www.w3.org/2000/svg"><path d="M39.851 210.368c4.645-2.701 9.26-5.423 13.757-8.265 4.48-2.831 8.72-5.893 12.696-9.17l5.915-5.109 2.99-2.542 2.888-2.617a122.831 122.831 0 0 0 10.634-10.994 85.56 85.56 0 0 0 8.72-12.082c.31-.527.639-1.051.937-1.585l.842-1.617c.554-1.097 1.131-2.138 1.651-3.272l1.764-3.97c.619-1.476 1.284-3.066 1.953-4.565l1.417-3.302c.476-1.073.923-2.131 1.355-3.175l1.314-3.087 1.236-3.063.62-1.524.584-1.545 1.168-3.128c.711-2.131 1.502-4.3 2.148-6.637a233.219 233.219 0 0 0 3.696-13.997 175.999 175.999 0 0 0 2.679-14.162 173.383 173.383 0 0 0 1.82-22.257 123.502 123.502 0 0 0-1.447-20.264 121.475 121.475 0 0 0-4.985-20.222c-.284-.83-.538-1.675-.857-2.489l-.953-2.473c-.602-1.686-1.351-3.286-2.062-4.921l-.605-1.36c-.208-.452-.444-.898-.666-1.348a140.86 140.86 0 0 1-1.332-2.702c-.881-1.807-1.811-3.596-2.489-5.458-.429-1.028-1.062-2.265-.491-3.38A12.51 12.51 0 0 1 108 1.973c.374-.6 1.019-1.052 1.814-1.271 1.078-.2 2.068.428 2.755.957 1.559 1.277 2.831 2.758 3.753 4.367l2.058 3.201 1.902 3.258.936 1.637.846 1.66c.554 1.112 1.109 2.22 1.628 3.343.519 1.123.94 2.27 1.359 3.397.216.565.47 1.136.641 1.693l1.43 4.264c.294.847.511 1.712.771 2.563l.743 2.57c.246.854.431 1.714.656 2.575l.67 2.568c.191.866.367 1.734.526 2.595l.527 2.59.832 5.154.313 2.559.299 2.561.226 2.56c.688 7.87.771 15.728.249 23.53a153.17 153.17 0 0 1-5.2 29.568c-.628 2.192-1.244 4.386-1.967 6.551-.724 2.165-1.665 4.362-2.529 6.529-2.047 4.924-4.017 9.86-6.399 14.605-2.467 4.852-5.247 9.586-7.91 14.341-2.664 4.754-5.034 9.544-8.084 14.111a89.196 89.196 0 0 1-2.44 3.342 173.954 173.954 0 0 1-2.738 3.17c-.925 1.049-1.934 2.047-2.906 3.067l-1.464 1.517-1.524 1.484c-1.035.994-2.017 2.028-3.081 3.001l-3.161 2.929c-2.189 1.903-4.352 3.821-6.662 5.619a155.178 155.178 0 0 1-14.38 10.194 158.689 158.689 0 0 1-15.62 8.927l-3.923 1.907-1.09.536c-.262.134-.657.462-.968.493a1.549 1.549 0 0 1-.804-.354 1.203 1.203 0 0 1-.37-.317.898.898 0 0 1-.178-.403.756.756 0 0 1 .05-.412.855.855 0 0 1 .265-.342Z" fill="#F06400"/><path d="m1.01 232.852.114-.197.226-.389.874-1.527 1.713-2.977.852-1.436.817-1.358a151.206 151.206 0 0 1 3.123-4.876c.898-1.36 1.797-2.725 2.608-4.121 1.618-2.766 2.688-5.715 3.925-8.621 1.235-2.905 3.02-5.595 4.517-8.397 1.498-2.803 2.93-5.722 4.434-8.566a147.762 147.762 0 0 1 4.76-8.382 78.99 78.99 0 0 1 5.383-8.128c.493-.623.978-1.246 1.45-1.862l.395-.523c.096-.131.138-.414.34-.469.28-.008.565.04.827.142.744.196 1.32.674 1.165.959-2.716 5.099-5.816 10.079-7.786 15.438-.501 1.375-.951 2.759-1.552 4.096l-1.828 4.028-3.624 8.07a408.81 408.81 0 0 0-3.508 8.213c-.57 1.384-1.14 2.774-1.68 4.174-.539 1.4-1.218 3.425-1.99 5.255l-1.667 3.865a.826.826 0 0 0-.034.2l.058.01.103-.019c.068-.021.134-.044.198-.072a.746.746 0 0 0 .203-.134l.67-.027 1.375-.034 2.742-.057a914.96 914.96 0 0 1 10.996-.109c5.697-.031 11.392.106 17.098.293l15.434.535c5.153.198 10.31.414 15.474.648l7.688.342c2.833.116 5.692.073 8.57.661.802.169 1.79.307 2.487 1.244.477.623.904 1.266 1.278 1.928.366.613.562 1.274.573 1.934a1.643 1.643 0 0 1-.294.908 2.066 2.066 0 0 1-.787.668c-1.044.503-2.256.765-3.514.759-3.287.164-6.568.377-9.874.349-1.647-.013-3.305-.113-4.946-.199l-14.883-.726-7.364-.328c-5.68-.257-11.337-.235-17.001-.314l-21.897-.261-2.496-.027-3.614-.018c-2.592-.006-4.999-.161-7.271-.249-1.32-.053-2.605-.088-3.88-.138l-.952-.026c-.114.002-.056-.104-.028-.152Z" fill="#F06400"/></svg>