<svg width="253" height="254" fill="none" xmlns="http://www.w3.org/2000/svg"><path d="M229.978 46.352h-22.98V23.37h22.98v22.98Zm0 183.846h-22.98v-22.98h22.98v22.98Zm-206.827-22.98h22.98v22.98h-22.98v-22.98Zm0-183.847h22.98v22.98h-22.98v-22.98ZM229.978.39h-45.961v68.942h22.981v114.905h-22.981v22.981H69.113v-22.981H46.131V69.332h22.98v-22.98h91.924l22.981-22.981H69.112V.39H.17v68.942h22.98v114.905H.17v68.942h68.942v-22.981h114.905v22.981h68.942v-68.942h-22.981V69.332h22.981V.39h-22.981Z" fill="#282828"/><path d="M115.073 94.804c0-6.895 4.596-11.49 11.49-11.49 6.895 0 11.491 4.596 11.491 11.49s-4.596 11.49-11.491 11.49c-6.894 0-11.49-4.596-11.49-11.49Zm-22.98 57.452h45.961l22.981-22.981h-34.472c19.534 0 34.472-14.938 34.472-34.471 0-19.534-14.938-34.471-34.472-34.471-19.533 0-34.47 14.937-34.47 34.47 0 19.534 14.937 34.472 34.47 34.472H69.111v45.962h22.981v-22.981Zm91.925-22.982h-22.981v45.962h22.981v-45.962Z" fill="#282828"/></svg>