<svg width="304" height="249" viewBox="0 0 304 249" fill="none" xmlns="http://www.w3.org/2000/svg">
<path d="M185.415 170.646L220.463 83.1901H264.008L265.07 84.2566L185.415 170.646ZM151.429 181.312L112.132 83.1901H137.622L165.235 55.4601H120.629L130.187 27.73H172.67L182.228 55.4601H165.235V83.1901H190.725L151.429 181.312ZM38.8496 83.1901L83.4564 82.1235L118.505 169.58L38.8496 83.1901ZM94.077 27.73H101.511L91.9529 55.4601H67.5254L94.077 27.73ZM208.78 27.73L236.394 55.4601H210.904L202.408 27.73H208.78ZM275.69 55.4601L220.463 0H192.849H110.008H83.4564L28.2289 55.4601L0.615234 83.1901L151.429 248.504L303.304 83.1901L275.69 55.4601Z" fill="#282828"/>
</svg>
