<svg width="304" height="249" fill="none" xmlns="http://www.w3.org/2000/svg"><path d="m185.415 170.646 35.048-87.456h43.545l1.062 1.067-79.655 86.389Zm-33.986 10.666L112.132 83.19h25.49l27.613-27.73h-44.606l9.558-27.73h42.483l9.558 27.73h-16.993v27.73h25.49l-39.296 98.122ZM38.849 83.19l44.607-1.066 35.049 87.456L38.85 83.19Zm55.228-55.46h7.434l-9.558 27.73H67.525l26.552-27.73Zm114.703 0 27.614 27.73h-25.49l-8.496-27.73h6.372Zm66.91 27.73L220.463 0H83.456L28.23 55.46.615 83.19 151.43 248.504 303.304 83.19 275.69 55.46Z" fill="#282828"/></svg>