<svg width="297" height="312" fill="none" xmlns="http://www.w3.org/2000/svg"><path d="M67.74 176.544a9.999 9.999 0 0 1 4.69-8.126c.32-.244.712-.37 1.048-.585.335-.214.74-.317 1.127-.435s.631-.207 1.418-.391l9.896-2.495c5.24-1.362 10.438-2.836 15.649-4.287l47.051-12.988 23.341-6.383c18.021-4.933 36.151-9.517 54.24-14.234l17.52-4.567 1.091-.275 1.023-.258c.548-.14 1.107-.235 1.67-.284a11.531 11.531 0 0 1 3.369.108 12.91 12.91 0 0 1 3.234 1.009 14.013 14.013 0 0 1 2.854 1.857 12.577 12.577 0 0 1 3.724 5.642l.106.417.116.463.83 3.29 1.151 4.377 8.779 33.467c1.436 5.426 3.047 10.788 4.572 16.185 3.479 12.285 6.705 24.648 10.164 36.931l.668 2.353.338 1.173.267 1.06c.159.695.272 1.399.34 2.108.042.712.037 1.425-.016 2.136a14.9 14.9 0 0 1-.291 2.124c-.167.703-.38 1.394-.64 2.068a14.137 14.137 0 0 1-2.124 3.802 14.82 14.82 0 0 1-7.134 5.045c-.675.252-1.518.457-2.289.679l-2.35.654-4.718 1.292c-12.46 3.38-25.008 6.195-37.558 9.195-12.549 2.999-24.894 6.596-37.346 9.872l-37.846 9.814a2856.955 2856.955 0 0 0-37.592 10.064l-9.374 2.582a27.316 27.316 0 0 1-4.762 1.064 16.1 16.1 0 0 1-4.903-.2 16.545 16.545 0 0 1-4.686-1.593 16.955 16.955 0 0 1-4.075-2.881 18.556 18.556 0 0 1-5.086-8.627l-2.814-8.858-.765-2.466c-.167-.758-.398-1.5-.69-2.218a1.282 1.282 0 0 0-.976-.512c-.842-.116-1.329 1.018-.985 2.298l2.302 8.482 1.157 4.239.135.533.194.634.4 1.266c.148.421.349.835.518 1.237.168.418.36.826.574 1.222a21.297 21.297 0 0 0 3.117 4.449 20.92 20.92 0 0 0 4.164 3.447c.376.249.767.477 1.17.682.4.207.79.429 1.2.62.825.366 1.672.683 2.536.946 1.723.537 3.51.843 5.314.909.904.033 1.809.001 2.709-.095a18.219 18.219 0 0 0 2.627-.423l1.15-.29 11.739-2.96a834.837 834.837 0 0 1 17.128-4.03c5.824-1.298 11.659-2.55 17.518-3.979l52.7-12.889a5288.253 5288.253 0 0 1 35.443-8.504l17.853-4.159 16.357-3.673c1.041-.262 1.864-.388 3.361-.847a15.891 15.891 0 0 0 1.978-.697l.965-.4c.316-.155.603-.316.931-.481a22.72 22.72 0 0 0 12.208-19.342c.041-.967.014-1.935-.081-2.898-.05-.472-.077-.958-.162-1.428l-.271-1.402-.55-2.184-.504-1.998-1.999-7.93c-2.658-10.544-5.318-21.094-8.11-32.876-2.793-11.782-5.706-23.499-8.636-35.232l-4.86-19.277-.226-.763a16.123 16.123 0 0 0-.485-1.518l-.619-1.477a12.715 12.715 0 0 0-.703-1.436c-.262-.467-.506-.945-.796-1.392a23.7 23.7 0 0 0-12.289-9.742 23.238 23.238 0 0 0-9.789-1.147l-1.237.133-1.212.238-1.181.249-4.266 1.076-13.612 3.555-27.207 7.234-49.048 13.226-49.173 13.434-24.403 6.726-1.696.428-.894.225-1.03.335a15.79 15.79 0 0 0-2.007.793c-.658.292-1.298.627-1.913 1.002a19.67 19.67 0 0 0-6.246 5.831 19.285 19.285 0 0 0-3.138 7.83c-.452 2.746-.27 5.56.53 8.225l.14.559.161.479c.115.319.227.626.343.979.233.625.49 1.319.766 1.954a9.8 9.8 0 0 0 2.031 3.205 23.633 23.633 0 0 0 3.243 2.723c.872.559 1.92 1.053 2.667.469.973-.751.983-2.907.9-4.567a45.88 45.88 0 0 0-.798-5.874l-.293-1.485-.128-.507-.068-.462a10.334 10.334 0 0 1-.08-1.804l.225.128Zm-1.962 86.042-1.036 1.013-1.06.95c-.81.744-1.636 1.479-2.433 2.247-1.6 1.517-3.175 3.076-4.655 4.713-1.48 1.637-2.843 3.334-4.2 5.029l-5.989 7.524-3.365 4.135-.178.216-.029.049-.115.22c-.084.163-.177.32-.277.473-.18.291-.39.597-.626.937l-.386.528-.21.278-.107.143-.095.086-.135-.239c-.222-.419-.42-.851-.593-1.293l-.297-.8-.157-.432-.065-.257-.2-.633-3.179-10.549a269.287 269.287 0 0 1-3.726-13.563 472.417 472.417 0 0 0-3.625-13.889l-1.756-6.288c-.607-2.136-1.416-4.208-2.12-6.299-1.641-4.774-3.041-9.622-4.693-14.385-1.683-4.859-3.53-9.668-5.042-14.577-1.51-4.909-2.48-9.844-3.526-14.829-.162-.643-.27-1.237-.426-1.854l-.446-1.767c-.25-.99-.549-1.987-.85-3.019l-.932-3.181-.462-1.647-.373-1.478.045-.011.093.018c2.056.404 4.215.885 6.397 1.408 1.101.276 2.176.503 3.33.827l3.719.977c4.93 1.313 9.844 2.698 14.775 4.066 4.93 1.367 9.816 2.856 14.857 3.874l3.606.752.998.22c.246.054.64.289.892.205.253-.084.355-.328.515-.669.37-.702.24-1.544-.246-1.708-8.742-2.853-17.622-5.522-26.343-8.968-2.23-.874-4.442-1.785-6.74-2.497-1.156-.358-2.305-.718-3.47-1.053l-1.846-.546-2.865-.767c-3.86-1.077-7.66-1.951-11.592-2.934l-2.919-.734-.73-.185-.077.019.155.617.302 1.441 1.206 5.785a6872.81 6872.81 0 0 1 3.98 18.501l1.493 7.141c.47 2.328 1.069 5.786 1.766 8.904 2.075 9.345 4.35 16.609 6.465 25.863l6.503 27.664c1.753 7.444 4.088 14.592 6.38 21.627l.257.769.098.392.2.633.896 2.925 5.157 17.042c1.527-1.506 3.09-3.137 4.597-4.671l4.452-4.594 3.088-3.259 2.995-3.298a210.38 210.38 0 0 0 3.297-3.947l6.307-7.836a276.795 276.795 0 0 1 6.3-7.541c1.193-1.366 2.45-2.668 3.666-4.054l.9-1.034.495-.589c.168-.199.318-.394.467-.589a22.905 22.905 0 0 0 1.586-2.409c.532-.927 1.248-2.016.826-3.393-.255-.907-.59-1.79-1-2.638a4.52 4.52 0 0 0-1.606-1.926 2.743 2.743 0 0 0-2.54-.043 11.27 11.27 0 0 0-3.64 2.743l-.084-.082Zm63.653-194.529a54.204 54.204 0 0 0-11.547-17.502 52.664 52.664 0 0 0-8.118-6.585 60.215 60.215 0 0 0-29.076-9.993 59.066 59.066 0 0 0-15.151.894 66.403 66.403 0 0 0-8.462 2.215 64.193 64.193 0 0 0-8.04 3.352 57.493 57.493 0 0 0-31.646 49.939 55.134 55.134 0 0 0 .675 10.08 50.175 50.175 0 0 0 2.789 9.842 56.196 56.196 0 0 0 12.143 19.436 57.35 57.35 0 0 0 19.159 12.672c6.961 2.892 14.336 4.874 21.953 5.106 7.617.233 15.13-1.763 21.958-4.851a54.914 54.914 0 0 0 18.327-13.259 50.723 50.723 0 0 0 10.967-19.446 46.94 46.94 0 0 0 1.498-21.898 65.668 65.668 0 0 0-1.172-5.083c-.117-.462-.235-.931-.403-1.381a4.183 4.183 0 0 0-.388-1.269c-.137-.163-.483-.206-.885-.2a1.233 1.233 0 0 0-1.254 1.395 49.704 49.704 0 0 1 .995 18.556 42.764 42.764 0 0 1-6.473 17.425 62.248 62.248 0 0 1-5.878 7.428 49.85 49.85 0 0 1-6.995 6.383 48.042 48.042 0 0 1-16.93 8.122 46.765 46.765 0 0 1-18.76.97 45.453 45.453 0 0 1-9.112-2.39 50.03 50.03 0 0 1-10.27-5.502 51.75 51.75 0 0 1-12.365-11.72 44.464 44.464 0 0 1-7.378-15.225 49.283 49.283 0 0 1-1.36-18.027 47.441 47.441 0 0 1 5.366-17.207 49.125 49.125 0 0 1 19.6-19.84 47.871 47.871 0 0 1 18.439-5.666c1.078-.142 2.165-.142 3.25-.224 1.087-.083 2.175-.05 3.262.032 4.4.172 8.758.935 12.955 2.27a50.493 50.493 0 0 1 11.999 5.715 49.24 49.24 0 0 1 10.101 8.73 49.889 49.889 0 0 1 4.486 6.003c1.396 2.094 2.662 4.27 3.965 6.456.758 1.217 1.454 2.811 2.927 3.479.94.473 1.912.88 2.91 1.214a3.368 3.368 0 0 0 2.571.035c1.013-.562 1.178-1.97 1.21-3.038a15.338 15.338 0 0 0-.537-3.78 27.41 27.41 0 0 0-1.293-3.638l-.012-.025Zm132.707-33.454a54.333 54.333 0 0 0-11.547-17.502 52.711 52.711 0 0 0-8.118-6.585A60.215 60.215 0 0 0 213.397.522a59.07 59.07 0 0 0-15.151.895 66.325 66.325 0 0 0-8.456 2.213 64.2 64.2 0 0 0-8.039 3.352 57.498 57.498 0 0 0-31.647 49.938 55.229 55.229 0 0 0 .676 10.081 49.695 49.695 0 0 0 2.788 9.842 56.198 56.198 0 0 0 12.144 19.436 57.342 57.342 0 0 0 19.159 12.672c6.961 2.892 14.336 4.874 21.953 5.107 7.617.232 15.13-1.764 21.957-4.852a54.918 54.918 0 0 0 18.328-13.26 50.727 50.727 0 0 0 10.966-19.445 47.048 47.048 0 0 0 1.499-21.898 65.212 65.212 0 0 0-1.173-5.083c-.116-.462-.266-.923-.402-1.381a4.157 4.157 0 0 0-.389-1.269c-.137-.163-.482-.206-.884-.2a1.231 1.231 0 0 0-1.254 1.395 49.537 49.537 0 0 1 .994 18.556 42.769 42.769 0 0 1-6.473 17.426 62.39 62.39 0 0 1-5.877 7.427 49.838 49.838 0 0 1-6.995 6.383 48.038 48.038 0 0 1-16.93 8.122 46.735 46.735 0 0 1-18.755.969 45.235 45.235 0 0 1-9.117-2.389 50.031 50.031 0 0 1-10.303-5.494 51.746 51.746 0 0 1-12.365-11.72 44.479 44.479 0 0 1-7.378-15.224 49.287 49.287 0 0 1-1.36-18.028 47.553 47.553 0 0 1 5.367-17.207 49.124 49.124 0 0 1 19.6-19.84 47.875 47.875 0 0 1 18.439-5.665c1.078-.142 2.164-.143 3.25-.225 1.087-.083 2.175-.05 3.261.032 4.401.17 8.759.934 12.956 2.27a50.49 50.49 0 0 1 11.999 5.715 49.262 49.262 0 0 1 10.1 8.73 50.637 50.637 0 0 1 4.493 6.001c1.39 2.097 2.656 4.272 3.959 6.458.757 1.217 1.453 2.812 2.959 3.47.94.474 1.912.88 2.909 1.215a3.375 3.375 0 0 0 2.572.036c1.013-.563 1.178-1.972 1.209-3.039a15.338 15.338 0 0 0-.536-3.78 27.413 27.413 0 0 0-1.293-3.638l-.019-.023Z" fill="#6E3CBE"/></svg>