<svg width="261" height="216" viewBox="0 0 261 216" fill="none" xmlns="http://www.w3.org/2000/svg">
<path d="M189.996 167.918C176.758 167.918 166.328 157.029 166.328 144.125C166.328 130.817 177.159 120.332 189.996 120.332C203.234 120.332 213.664 131.22 213.664 144.125C213.664 157.029 203.234 167.918 189.996 167.918ZM237.332 24.7559V144.125C237.332 117.912 216.071 96.5385 189.996 96.5385C163.921 96.5385 142.66 117.912 142.66 144.125H23.9181V24.7559H237.332L213.664 0.96283H23.9181H0.25V24.7559V144.125V167.918H23.9181H148.677C155.095 178.806 165.525 186.872 177.961 190.098V215.504H201.629V190.098C214.065 186.872 224.495 178.806 230.913 167.918H237.332H261V144.125V48.549L237.332 24.7559Z" fill="#292929"/>
<path d="M142.26 48.5492H47.5879V72.3423H142.26V48.5492Z" fill="#292929"/>
<path d="M189.994 48.5492H166.326V72.3423H189.994V48.5492Z" fill="#292929"/>
</svg>
