<svg width="261" height="216" fill="none" xmlns="http://www.w3.org/2000/svg"><path d="M189.996 167.918c-13.238 0-23.668-10.889-23.668-23.793 0-13.308 10.831-23.793 23.668-23.793 13.238 0 23.668 10.888 23.668 23.793 0 12.904-10.43 23.793-23.668 23.793Zm47.336-143.162v119.369c0-26.213-21.261-47.587-47.336-47.587s-47.336 21.374-47.336 47.587H23.918V24.755h213.414L213.664.964H.25v166.955h148.427c6.418 10.888 16.848 18.954 29.284 22.18v25.406h23.668v-25.406c12.436-3.226 22.866-11.292 29.284-22.18H261V48.549l-23.668-23.793Z" fill="#292929"/><path d="M142.26 48.55H47.588v23.792h94.672V48.55Zm47.734 0h-23.668v23.792h23.668V48.55Z" fill="#292929"/></svg>