<svg width="510" height="618" fill="none" xmlns="http://www.w3.org/2000/svg"><path d="M11.948 60.518c-.03-10.37-.432-20.558-1.452-30.87-.294-2.952-.192-5.927-.527-8.859-.165-1.476-.338-2.162-.503-3.634-.235-1.507-.299-2.421.376-2.55 1.657-.29 2.89-.308 4.572-.437 3.364-.257 15.725-1.012 19.023-1.141 5.288-.208 53.416-3.859 47.22-5.785a18.814 18.814 0 0 0-4.714-.621c-4.332-.176-26.71.226-31.077.157-2.166-.033-8.895.074-11.136.157-3.365.106-16.428.512-18.973.737-2.546.226-9.114.58-13.47 1.008l-.063.001c-.022 0 0 .036 0 .051l.003.123.082.714.31 2.443.418 3.694.543 4.187c.796 6.472.864 12.579 1.38 19.074.68 8.385.65 5.652 1.13 14.052.104 7.406.638 14.844 1.162 22.234 1.736 24.448 5.76 7.475 5.696-14.735Zm444.737-49.583c10.369.116 20.563-.143 30.887-1.017 2.957-.253 5.929-.109 8.866-.403 1.479-.144 2.166-.307 3.641-.451 1.51-.215 2.425-.265 2.545.41.267 1.662.267 2.894.372 4.58.21 3.366.791 15.737.874 19.036.133 5.29 3.105 53.465 5.118 47.297.426-1.522.658-3.107.688-4.705.237-4.33.15-26.71.281-31.076.063-2.165.051-8.895 0-11.137-.059-3.367-.281-16.433-.47-18.982-.19-2.549-.452-9.12-.819-13.482V.942c0-.023-.035 0-.051 0h-.123l-.715.072-2.447.276-3.7.366-4.194.484c-6.482.705-12.589.687-19.092 1.111-8.393.56-5.659.57-14.066.931-7.407 0-14.851.43-22.248.85-24.469 1.392-7.556 5.654 14.653 5.903Zm42.637 547.674c-.192 10.367-.007 20.563.792 30.893.231 2.959.065 5.93.337 8.869.134 1.48.292 2.168.425 3.644.203 1.511.247 2.427-.43 2.542-1.663.255-2.895.246-4.58.338-3.369.185-15.743.676-19.043.735-5.291.094-53.486 2.715-47.334 4.773 1.52.437 3.102.68 4.7.722 4.328.269 26.709.346 31.074.508 2.164.079 8.894.116 11.136.081 3.367-.034 16.435-.16 18.985-.331 2.55-.172 9.124-.385 13.488-.72h.063c.023.001 0-.035.001-.051l.001-.123-.068-.715-.257-2.449-.339-3.703-.454-4.197c-.657-6.488-.595-12.594-.972-19.1-.499-8.397-.528-5.663-.828-14.072.054-7.407-.321-14.854-.687-22.254-1.213-24.479-5.599-7.597-6.01 14.61ZM54.263 607.356c-10.368-.181-20.564.015-30.893.825-2.958.235-5.93.072-8.869.347-1.479.135-2.167.294-3.643.429-1.511.205-2.427.25-2.543-.427-.256-1.663-.249-2.895-.343-4.58-.188-3.369-.693-15.742-.755-19.042-.1-5.291-2.773-53.483-4.825-47.329a18.817 18.817 0 0 0-.717 4.701c-.264 4.328-.316 26.709-.474 31.074-.076 2.165-.106 8.895-.069 11.137.039 3.367.179 16.434.352 18.984.174 2.55.395 9.124.735 13.487v.064c0 .022.035 0 .05 0l.123.001.716-.068 2.449-.261 3.702-.343 4.197-.457c6.486-.665 12.593-.609 19.098-.993 8.396-.509 5.663-.535 14.072-.844 7.407.046 14.853-.337 22.253-.711 24.477-1.24 7.59-5.607-14.616-5.994Z" fill="#6E3CBE"/></svg>