<svg width="81" height="82" fill="none" xmlns="http://www.w3.org/2000/svg"><path d="M10.948 54.518c-.03-10.37-.432-20.558-1.452-30.87-.294-2.952-.192-5.927-.527-8.859-.165-1.476-.338-2.162-.503-3.634-.235-1.507-.299-2.421.376-2.55 1.657-.29 2.89-.308 4.572-.437 3.364-.257 15.725-1.012 19.023-1.141 5.288-.208 53.416-3.859 47.22-5.785a18.814 18.814 0 0 0-4.714-.621c-4.332-.176-26.71.226-31.077.157C41.7.745 34.97.852 32.73.935c-3.365.106-16.428.512-18.973.737-2.546.226-9.114.58-13.47 1.008l-.063.001c-.022 0 0 .036 0 .051l.003.123.082.714.31 2.443.418 3.694.543 4.187c.796 6.472.864 12.579 1.38 19.074.68 8.385.65 5.652 1.13 14.052.104 7.406.638 14.844 1.162 22.234 1.736 24.448 5.76 7.475 5.696-14.735Z" fill="#6E3CBE"/></svg>