<svg width="550" height="874" viewBox="0 0 550 874" fill="none" xmlns="http://www.w3.org/2000/svg">
<g clip-path="url(#clip0_60_402)">
<path d="M-199.626 1276.31V1287.65M-199.626 1354.42V1365.7V1354.43M-126.912 -51.6274V-40.278M-126.912 26.4811V37.8441M-126.912 104.59V115.926M-126.912 182.712V194.142M-126.912 260.915V272.251M-126.912 338.996V350.359M-126.912 417.118V428.468M-126.912 495.227V506.563M-126.912 573.349V584.671M-126.912 651.43V662.793M-126.912 729.553V740.902V729.539M-126.912 807.661V819.01M-126.912 885.77V897.106M-126.912 963.878V975.228M-126.912 1041.99V1053.35M-126.912 1120.1V1131.46M-126.912 1198.2V1209.54M-126.912 1276.33V1287.66M-126.912 1354.43V1365.7M-54.2361 -51.5329V-40.1834M-54.2361 26.5757V37.9386M-54.2361 104.684V116.02M-54.2361 182.806V194.142M-54.2361 260.915V272.251M-54.2361 338.996V350.359M-54.2361 417.118V428.468M-54.2361 495.227V506.563M-54.2361 573.349V584.671M-54.2361 651.43V662.793M-54.2361 729.553V740.902V729.539M-54.2361 807.688V819.038M-54.2361 885.797V897.133M-54.2361 963.905V975.228M-54.2361 1041.99V1053.35M-54.2361 1120.1V1131.46M-54.2361 1198.2V1209.54M-54.2361 1276.33V1287.66M-54.2361 1354.43V1365.7M18.4779 -51.6274V-40.278M18.4779 26.4811V37.8441M18.4779 104.59V115.926M18.4779 182.712V194.142M18.4779 260.915V272.251M18.4779 338.996V350.359M18.4779 417.118V428.468M18.4779 495.227V506.563M18.4779 573.349V584.671M18.4779 651.43V662.793M18.4779 729.553V740.902V729.539M18.4779 807.661V819.01M18.4779 885.77V897.106M18.4779 963.878V975.228M18.4779 1041.99V1053.35M18.4779 1120.1V1131.46M18.4779 1198.2V1209.54M18.4779 1276.33V1287.66M18.4779 1354.43V1365.7M91.192 -51.6274V-40.278M91.192 26.4811V37.8441M91.192 104.59V115.926M91.192 182.712V194.142M91.192 260.915V272.251M91.192 338.996V350.359M91.192 417.118V428.468M91.192 495.227V506.563M91.192 573.349V584.671M91.192 651.43V662.793M91.192 729.553V740.902V729.539M91.192 807.661V819.01M91.192 885.77V897.106M91.192 963.878V975.228M91.192 1041.99V1053.35M91.192 1120.1V1131.46M91.192 1198.2V1209.54M91.192 1276.33V1287.66M91.192 1354.43V1365.7M163.919 -51.6274V-40.278M163.919 26.4811V37.8441M163.919 104.59V115.926M163.919 182.712V194.142M163.919 260.915V272.251M163.919 338.996V350.359M163.919 417.118V428.468M163.919 495.227V506.563M163.919 573.349V584.671M163.919 651.43V662.793M163.919 729.553V740.902V729.539M163.919 807.661V819.01M163.919 885.77V897.106M163.919 963.878V975.228M163.919 1041.99V1053.35M163.919 1120.1V1131.46M163.919 1198.2V1209.54M163.919 1276.33V1287.66M163.919 1354.43V1365.7M236.633 -51.6274V-40.278M236.633 26.4811V37.8441M236.633 104.59V115.926M236.633 182.712V194.142M236.633 260.915V272.251M236.633 338.996V350.359M236.633 417.118V428.468M236.633 495.227V506.563M236.633 573.349V584.671M236.633 651.43V662.793M236.633 729.553V740.902M236.633 807.661V819.01M236.633 885.77V897.106M236.633 963.878V975.228M236.633 1041.99V1053.35M236.633 1120.1V1131.46M236.633 1198.2V1209.54M236.633 1276.33V1287.66M236.633 1354.43V1365.7M309.346 -51.6274V-40.278M309.346 26.4811V37.8441M309.346 104.59V115.926M309.346 182.712V194.142M309.346 260.915V272.251M309.346 338.996V350.359M309.346 417.118V428.468M309.346 495.227V506.563M309.346 573.349V584.671M309.346 651.43V662.793M309.346 729.553V740.902M309.346 807.661V819.01M309.346 885.77V897.106M309.346 963.878V975.228M309.346 1041.99V1053.35M309.346 1120.1V1131.46M309.346 1198.2V1209.54M309.346 1276.33V1287.66M309.346 1354.43V1365.7M382.149 -51.5329V-40.1834M382.149 26.5757V37.9386M382.149 104.684V116.02M382.149 182.806V194.142V182.793M382.149 260.915V272.251M382.149 338.996V350.359V339.01M382.149 417.118V428.468M382.149 495.227V506.563M382.149 573.349V584.671M382.149 651.43V662.793M382.149 729.553V740.902V729.539M382.149 807.688V819.038M382.149 885.797V897.133M382.149 963.905V975.228M382.149 1041.99V1053.35M382.149 1120.1V1131.46M382.149 1198.2V1209.54M382.149 1276.33V1287.66M382.149 1354.43V1365.7V1354.38M454.863 -51.6274V-40.278M454.863 26.4811V37.8441M454.863 104.59V115.926M454.863 182.712V194.142M454.863 260.915V272.251M454.863 338.996V350.359M454.863 417.118V428.468M454.863 495.227V506.563M454.863 573.349V584.671M454.863 651.43V662.793M454.863 729.553V740.902M454.863 807.661V819.01M454.863 885.77V897.106M454.863 963.878V975.228V963.784M454.863 1041.99V1053.35M454.863 1120.1V1131.46M454.863 1198.2V1209.54V1198.22M454.863 1276.33V1287.66M454.863 1354.43V1365.7M527.577 -51.6274V-40.278M527.577 26.4811V37.8441M527.577 104.59V115.926M527.577 182.712V194.142M527.577 260.915V272.251M527.577 338.996V350.359M527.577 417.118V428.468M527.577 495.227V506.563M527.577 573.349V584.671M527.577 651.43V662.793M527.577 729.553V740.902M527.577 807.661V819.01M527.577 885.77V897.106M527.577 963.878V975.228V963.784M527.577 1041.99V1053.35M527.577 1120.1V1131.46M527.577 1198.2V1209.54V1198.22M527.577 1276.33V1287.66M527.577 1354.43V1365.7M-199.626 -51.5329V-40.1834M-199.626 26.5757V37.9386M-199.626 104.684V116.02M-199.626 182.806V194.142M-199.626 260.915V272.251M-199.626 338.996V350.359M-199.626 417.118V428.468M-199.626 495.227V506.563M-199.626 573.349V584.671M-199.626 651.43V662.793M-199.626 729.539V740.902M-199.626 807.661V819.01M-199.626 885.77V897.106M-199.626 963.878V975.228M-199.626 1041.99V1053.35M-199.626 1120.1V1131.46M-199.626 1198.2V1209.54M-199.626 1276.33V1287.66M163.969 1354.42V1365.7M236.683 -51.6274V-40.278M236.683 26.4811V37.8441M236.683 104.59V115.926M236.683 182.698V194.048M236.683 260.82V272.156M236.683 338.915V350.265M236.683 417.024V428.373M236.683 495.132V506.468M236.683 573.254V584.577M236.683 651.336V662.699M236.683 729.444V740.807M236.683 807.566V818.916M236.683 885.675V897.011M236.683 963.784V975.228M236.683 1041.99V1053.35M236.683 1120.1V1131.46M236.683 1198.22V1209.54M236.683 1276.33V1287.66M236.683 1354.43V1365.7M309.397 -51.6274V-40.278M309.397 26.4811V37.8441M309.397 104.59V115.926M309.397 182.698V194.048M309.397 260.82V272.156M309.397 338.915V350.265M309.397 417.024V428.373M309.397 495.132V506.468M309.397 573.254V584.577M309.397 651.336V662.699M309.397 729.444V740.807M309.397 807.566V818.916M309.397 885.675V897.011M309.397 963.784V975.228M309.397 1041.99V1053.35M309.397 1120.1V1131.46M309.397 1198.22V1209.54M309.397 1276.33V1287.66M309.397 1354.43V1365.7M382.149 1198.16V1209.49M382.149 1276.27V1287.61M454.863 182.698V194.048M454.863 260.82V272.156M454.863 338.915V350.265M454.863 417.024V428.373M454.863 495.132V506.468M454.863 573.254V584.577M454.863 651.336V662.699M454.863 729.444V740.807M454.863 807.566V818.916M454.863 885.675V897.011M527.577 182.698V194.048M527.577 260.82V272.156M527.577 338.915V350.265M527.577 417.024V428.373M527.577 495.132V506.468M527.577 573.254V584.577M527.577 651.336V662.699M527.577 729.444V740.807M527.577 807.566V818.916M527.577 885.675V897.011M-194.344 -45.8446H-204.908M-194.344 32.2369H-204.908M-194.344 110.359H-204.908M-194.344 188.467H-204.908M-194.344 266.576H-204.908M-194.344 344.698H-204.908M-194.344 422.78H-204.908M-194.344 500.888H-204.908M-194.344 579.01H-204.908M-194.344 657.119H-204.908M-194.344 735.214H-204.908M-194.344 813.322H-204.908M-194.344 891.458H-204.908M-194.344 969.58H-204.908M-194.344 1047.69H-204.908M-194.344 1125.78H-204.908M-194.344 1203.89H-204.908M-194.344 1281.93H-204.908M-194.344 1360.04H-204.908M-121.63 -45.8446H-132.207M-121.656 32.2369H-132.207M-121.656 110.359H-132.207M-121.63 188.468H-132.207M-121.656 266.576H-132.207M-121.656 344.698H-132.207M-121.656 422.78H-132.207M-121.656 500.888H-132.207M-121.656 579.01H-132.207M-121.656 657.119H-132.207M-121.656 735.214H-132.207M-121.656 813.322H-132.207M-121.63 891.458H-132.207M-121.656 969.58H-132.207M-121.656 1047.69H-132.207M-121.656 1125.78H-132.207M-121.656 1203.89H-132.207M-121.63 1281.93H-132.207M-121.656 1360.04H-132.207M-48.9164 -45.8446H-59.4676M-48.9164 32.2369H-59.4676M-48.9164 110.359H-59.4676M-48.9164 188.468H-59.4676M-48.9164 266.576H-59.4676M-48.9164 344.698H-59.4676M-48.9164 422.78H-59.4676M-48.9164 500.888H-59.4676M-48.9164 579.01H-59.4676M-48.9164 657.119H-59.4676M-48.9164 735.214H-59.4676M-48.9164 813.322H-59.4676M-48.9164 891.458H-59.4676M-48.9164 969.58H-59.4676M-48.9164 1047.69H-59.4676M-48.9164 1125.78H-59.4676M-48.9164 1203.89H-59.4676M-48.9164 1281.93H-59.4676M-48.9164 1360.04H-59.4676M23.8101 -45.8446H13.2464M23.8101 32.2369H13.2464M23.8101 110.359H13.2464M23.8101 188.468H13.2464M23.8101 266.576H13.2464M23.8101 344.698H13.2464M23.8101 422.78H13.2464M23.8101 500.888H13.2464M23.8101 579.01H13.2464M23.8101 657.119H13.2464M23.8101 735.214H13.2464M23.8101 813.322H13.2464M23.8101 891.431H13.2464M23.8101 969.553H13.2464M23.8101 1047.66H13.2464M23.8101 1125.76H13.2464M23.8101 1203.86H13.2464M23.8101 1281.97H13.2464M23.8101 1360.08H13.2464M96.5241 -45.8446H85.9604M96.5241 32.2369H85.9604M96.5241 110.359H85.9604M96.5241 188.468H85.9604M96.5241 266.576H85.9604M96.5241 344.698H85.9604M96.5241 422.78H85.9604M96.5241 500.888H85.9604M96.5241 579.01H85.9604M96.5241 657.119H85.9604M96.5241 735.214H85.9604M96.5241 813.322H85.9604M96.5241 891.431H85.9604M96.5241 969.553H85.9604M96.5241 1047.66H85.9604M96.5241 1125.76H85.9604M96.5241 1203.86H85.9604M96.5241 1281.97H85.9604M96.5241 1360.08H85.9604M169.251 -45.8446H158.687M169.251 32.2369H158.687M169.251 110.359H158.687M169.251 188.468H158.687M169.251 266.576H158.687M169.251 344.698H158.687M169.251 422.78H158.687M169.251 500.888H158.687M169.251 579.01H158.687M169.251 657.119H158.687M169.251 735.214H158.687M169.251 813.322H158.687M169.251 891.431H158.687M169.251 969.553H158.687M169.251 1047.66H158.687M169.251 1125.76H158.687M169.251 1203.86H158.687M169.251 1281.97H158.687M169.251 1360.08H158.687M241.965 -45.8446H231.401M241.965 32.2369H231.401M241.965 110.359H231.401M241.965 188.468H231.401M241.965 266.576H231.401M241.965 344.698H231.401M241.965 422.78H231.401M241.965 500.888H231.401M241.965 579.01H231.401M241.965 657.119H231.401M241.965 735.214H231.401M241.965 813.322H231.401M241.965 891.431H231.401M241.965 969.553H231.401M241.965 1047.66H231.401M241.965 1125.76H231.401M241.965 1203.86H231.401M241.965 1281.97H231.401M241.965 1360.08H231.401M314.679 -45.8446H304.178M314.742 32.2369H304.178M314.742 110.359H304.178M314.742 188.468H304.178M314.742 266.576H304.178M314.742 344.698H304.178M314.742 422.78H304.178M314.742 500.888H304.178M314.742 579.01H304.178M314.742 657.119H304.178M314.742 735.214H304.178M314.742 813.322H304.178M314.742 891.431H304.178M314.742 969.553H304.178M314.742 1047.66H304.178M314.742 1125.76H304.178M314.742 1203.86H304.178M314.742 1281.97H304.178M314.742 1360.08H304.178M387.405 -45.8446H376.841M387.405 32.2369H376.841M387.405 110.359H376.841M387.405 188.468H376.841M387.405 266.576H376.841M387.405 344.698H376.841M387.405 422.78H376.841M387.405 500.888H376.841M387.405 579.01H376.841M387.405 657.119H376.841M387.405 735.214H376.841M387.405 813.322H376.841M387.405 891.431H376.841M387.405 969.553H376.841M387.405 1047.66H376.841M387.405 1125.76H376.841M387.405 1203.86H376.841M387.405 1281.97H376.841M387.405 1360.08H376.841M460.119 -45.8446H449.555M460.119 32.2369H449.555M460.119 110.359H449.555M460.119 188.468H449.555M460.119 266.576H449.555M460.119 344.698H449.555M460.119 422.78H449.555M460.119 500.888H449.555M460.119 579.01H449.555M460.119 657.119H449.555M460.119 735.214H449.555M460.119 813.322H449.555M460.119 891.458H449.555M460.119 969.553H449.555M460.119 1047.66H449.555M460.119 1125.76H449.555M460.119 1203.86H449.555M460.119 1281.93H449.555M460.119 1360.04H449.555M532.833 -45.8446H522.269M532.833 32.2369H522.269M532.833 110.359H522.269M532.833 188.468H522.269M532.833 266.576H522.269M532.833 344.698H522.269M532.833 422.78H522.269M532.833 500.888H522.269M532.833 579.01H522.269M532.833 657.119H522.269M532.833 735.214H522.269M532.833 813.322H522.269M532.833 891.431H522.269M532.833 969.553H522.269M532.833 1047.66H522.269M532.833 1125.76H522.269M532.833 1203.86H522.269M532.833 1281.97H522.269M532.833 1360.08H522.269M599.976 -51.6274V-40.278M599.976 26.4811V37.8441M599.976 104.59V115.926M599.976 182.712V194.142M599.976 260.915V272.251M599.976 338.996V350.359M599.976 417.118V428.468M599.976 495.227V506.563M599.976 573.349V584.671M599.976 651.43V662.793M599.976 729.553V740.902V729.539M599.976 807.661V819.01M599.976 885.77V897.106M599.976 963.878V975.228M599.976 1041.99V1053.35M599.976 1120.1V1131.46M599.976 1198.2V1209.54M599.976 1276.33V1287.66M599.976 1354.43V1365.7M672.652 -51.5329V-40.1834M672.652 26.5757V37.9386M672.652 104.684V116.02M672.652 182.806V194.142M672.652 260.915V272.251M672.652 338.996V350.359M672.652 417.118V428.468M672.652 495.227V506.563M672.652 573.349V584.671M672.652 651.43V662.793M672.652 729.553V740.902V729.539M672.652 807.688V819.038M672.652 885.797V897.133M672.652 963.905V975.228M672.652 1041.99V1053.35M672.652 1120.1V1131.46M672.652 1198.2V1209.54M672.652 1276.33V1287.66M672.652 1354.43V1365.7M745.366 -51.6274V-40.278M745.366 26.4811V37.8441M745.366 104.59V115.926M745.366 182.712V194.142M745.366 260.915V272.251M745.366 338.996V350.359M745.366 417.118V428.468M745.366 495.227V506.563M745.366 573.349V584.671M745.366 651.43V662.793M745.366 729.553V740.902V729.539M745.366 807.661V819.01M745.366 885.77V897.106M745.366 963.878V975.228M745.366 1041.99V1053.35M745.366 1120.1V1131.46M745.366 1198.2V1209.54M745.366 1276.33V1287.66M745.366 1354.43V1365.7M818.08 -51.6274V-40.278M818.08 26.4811V37.8441M818.08 104.59V115.926M818.08 182.712V194.142M818.08 260.915V272.251M818.08 338.996V350.359M818.08 417.118V428.468M818.08 495.227V506.563M818.08 573.349V584.671M818.08 651.43V662.793M818.08 729.553V740.902V729.539M818.08 807.661V819.01M818.08 885.77V897.106M818.08 963.878V975.228M818.08 1041.99V1053.35M818.08 1120.1V1131.46M818.08 1198.2V1209.54M818.08 1276.33V1287.66M818.08 1354.43V1365.7M890.807 -51.6274V-40.278M890.807 26.4811V37.8441M890.807 104.59V115.926M890.807 182.712V194.142M890.807 260.915V272.251M890.807 338.996V350.359M890.807 417.118V428.468M890.807 495.227V506.563M890.807 573.349V584.671M890.807 651.43V662.793M890.807 729.553V740.902V729.539M890.807 807.661V819.01M890.807 885.77V897.106M890.807 963.878V975.228M890.807 1041.99V1053.35M890.807 1120.1V1131.46M890.807 1198.2V1209.54M890.807 1276.33V1287.66M890.807 1354.43V1365.7M963.521 -51.6274V-40.278M963.521 26.4811V37.8441M963.521 104.59V115.926M963.521 182.712V194.142M963.521 260.915V272.251M963.521 338.996V350.359M963.521 417.118V428.468M963.521 495.227V506.563M963.521 573.349V584.671M963.521 651.43V662.793M963.521 729.553V740.902M963.521 807.661V819.01M963.521 885.77V897.106M963.521 963.878V975.228M963.521 1041.99V1053.35M963.521 1120.1V1131.46M963.521 1198.2V1209.54M963.521 1276.33V1287.66M963.521 1354.43V1365.7M1036.23 -51.6274V-40.278M1036.23 26.4811V37.8441M1036.23 104.59V115.926M1036.23 182.712V194.142M1036.23 260.915V272.251M1036.23 338.996V350.359M1036.23 417.118V428.468M1036.23 495.227V506.563M1036.23 573.349V584.671M1036.23 651.43V662.793M1036.23 729.553V740.902M1036.23 807.661V819.01M1036.23 885.77V897.106M1036.23 963.878V975.228M1036.23 1041.99V1053.35M1036.23 1120.1V1131.46M1036.23 1198.2V1209.54M1036.23 1276.33V1287.66M1036.23 1354.43V1365.7M1109.04 -51.5329V-40.1834M1109.04 26.5757V37.9386M1109.04 104.684V116.02M1109.04 182.806V194.142V182.793M1109.04 260.915V272.251M1109.04 338.996V350.359V339.01M1109.04 417.118V428.468M1109.04 495.227V506.563M1109.04 573.349V584.671M1109.04 651.43V662.793M1109.04 729.553V740.902V729.539M1109.04 807.688V819.038M1109.04 885.797V897.133M1109.04 963.905V975.228M1109.04 1041.99V1053.35M1109.04 1120.1V1131.46M1109.04 1198.2V1209.54M1109.04 1276.33V1287.66M1109.04 1354.43V1365.7V1354.38M1181.75 -51.6274V-40.278M1181.75 26.4811V37.8441M1181.75 104.59V115.926M1181.75 182.712V194.142M1181.75 260.915V272.251M1181.75 338.996V350.359M1181.75 417.118V428.468M1181.75 495.227V506.563M1181.75 573.349V584.671M1181.75 651.43V662.793M1181.75 729.553V740.902M1181.75 807.661V819.01M1181.75 885.77V897.106M1181.75 963.878V975.228V963.784M1181.75 1041.99V1053.35M1181.75 1120.1V1131.46M1181.75 1198.2V1209.54V1198.22M1181.75 1276.33V1287.66M1181.75 1354.43V1365.7M1254.47 -51.6274V-40.278M1254.47 26.4811V37.8441M1254.47 104.59V115.926M1254.47 182.712V194.142M1254.47 260.915V272.251M1254.47 338.996V350.359M1254.47 417.118V428.468M1254.47 495.227V506.563M1254.47 573.349V584.671M1254.47 651.43V662.793M1254.47 729.553V740.902M1254.47 807.661V819.01M1254.47 885.77V897.106M1254.47 963.878V975.228V963.784M1254.47 1041.99V1053.35M1254.47 1120.1V1131.46M1254.47 1198.2V1209.54V1198.22M1254.47 1276.33V1287.66M1254.47 1354.43V1365.7M890.857 1354.42V1365.7M963.571 -51.6274V-40.278M963.571 26.4811V37.8441M963.571 104.59V115.926M963.571 182.698V194.048M963.571 260.82V272.156M963.571 338.915V350.265M963.571 417.024V428.373M963.571 495.132V506.468M963.571 573.254V584.577M963.571 651.336V662.699M963.571 729.444V740.807M963.571 807.566V818.916M963.571 885.675V897.011M963.571 963.784V975.228M963.571 1041.99V1053.35M963.571 1120.1V1131.46M963.571 1198.22V1209.54M963.571 1276.33V1287.66M963.571 1354.43V1365.7M1036.29 -51.6274V-40.278M1036.29 26.4811V37.8441M1036.29 104.59V115.926M1036.29 182.698V194.048M1036.29 260.82V272.156M1036.29 338.915V350.265M1036.29 417.024V428.373M1036.29 495.132V506.468M1036.29 573.254V584.577M1036.29 651.336V662.699M1036.29 729.444V740.807M1036.29 807.566V818.916M1036.29 885.675V897.011M1036.29 963.784V975.228M1036.29 1041.99V1053.35M1036.29 1120.1V1131.46M1036.29 1198.22V1209.54M1036.29 1276.33V1287.66M1036.29 1354.43V1365.7M1109.04 1198.16V1209.49M1109.04 1276.27V1287.61M1181.75 182.698V194.048M1181.75 260.82V272.156M1181.75 338.915V350.265M1181.75 417.024V428.373M1181.75 495.132V506.468M1181.75 573.254V584.577M1181.75 651.336V662.699M1181.75 729.444V740.807M1181.75 807.566V818.916M1181.75 885.675V897.011M1254.47 182.698V194.048M1254.47 260.82V272.156M1254.47 338.915V350.265M1254.47 417.024V428.373M1254.47 495.132V506.468M1254.47 573.254V584.577M1254.47 651.336V662.699M1254.47 729.444V740.807M1254.47 807.566V818.916M1254.47 885.675V897.011M605.258 -45.8446H594.682M605.233 32.2369H594.682M605.233 110.359H594.682M605.258 188.468H594.682M605.233 266.576H594.682M605.233 344.698H594.682M605.233 422.78H594.682M605.233 500.888H594.682M605.233 579.01H594.682M605.233 657.119H594.682M605.233 735.214H594.682M605.233 813.322H594.682M605.258 891.458H594.682M605.233 969.58H594.682M605.233 1047.69H594.682M605.233 1125.78H594.682M605.233 1203.89H594.682M605.258 1281.93H594.682M605.233 1360.04H594.682M677.972 -45.8446H667.421M677.972 32.2369H667.421M677.972 110.359H667.421M677.972 188.468H667.421M677.972 266.576H667.421M677.972 344.698H667.421M677.972 422.78H667.421M677.972 500.888H667.421M677.972 579.01H667.421M677.972 657.119H667.421M677.972 735.214H667.421M677.972 813.322H667.421M677.972 891.458H667.421M677.972 969.58H667.421M677.972 1047.69H667.421M677.972 1125.78H667.421M677.972 1203.89H667.421M677.972 1281.93H667.421M677.972 1360.04H667.421M750.699 -45.8446H740.135M750.699 32.2369H740.135M750.699 110.359H740.135M750.699 188.468H740.135M750.699 266.576H740.135M750.699 344.698H740.135M750.699 422.78H740.135M750.699 500.888H740.135M750.699 579.01H740.135M750.699 657.119H740.135M750.699 735.214H740.135M750.699 813.322H740.135M750.699 891.431H740.135M750.699 969.553H740.135M750.699 1047.66H740.135M750.699 1125.76H740.135M750.699 1203.86H740.135M750.699 1281.97H740.135M750.699 1360.08H740.135M823.413 -45.8446H812.849M823.413 32.2369H812.849M823.413 110.359H812.849M823.413 188.468H812.849M823.413 266.576H812.849M823.413 344.698H812.849M823.413 422.78H812.849M823.413 500.888H812.849M823.413 579.01H812.849M823.413 657.119H812.849M823.413 735.214H812.849M823.413 813.322H812.849M823.413 891.431H812.849M823.413 969.553H812.849M823.413 1047.66H812.849M823.413 1125.76H812.849M823.413 1203.86H812.849M823.413 1281.97H812.849M823.413 1360.08H812.849M896.139 -45.8446H885.575M896.139 32.2369H885.575M896.139 110.359H885.575M896.139 188.468H885.575M896.139 266.576H885.575M896.139 344.698H885.575M896.139 422.78H885.575M896.139 500.888H885.575M896.139 579.01H885.575M896.139 657.119H885.575M896.139 735.214H885.575M896.139 813.322H885.575M896.139 891.431H885.575M896.139 969.553H885.575M896.139 1047.66H885.575M896.139 1125.76H885.575M896.139 1203.86H885.575M896.139 1281.97H885.575M896.139 1360.08H885.575M968.853 -45.8446H958.289M968.853 32.2369H958.289M968.853 110.359H958.289M968.853 188.468H958.289M968.853 266.576H958.289M968.853 344.698H958.289M968.853 422.78H958.289M968.853 500.888H958.289M968.853 579.01H958.289M968.853 657.119H958.289M968.853 735.214H958.289M968.853 813.322H958.289M968.853 891.431H958.289M968.853 969.553H958.289M968.853 1047.66H958.289M968.853 1125.76H958.289M968.853 1203.86H958.289M968.853 1281.97H958.289M968.853 1360.08H958.289M1041.57 -45.8446H1031.07M1041.63 32.2369H1031.07M1041.63 110.359H1031.07M1041.63 188.468H1031.07M1041.63 266.576H1031.07M1041.63 344.698H1031.07M1041.63 422.78H1031.07M1041.63 500.888H1031.07M1041.63 579.01H1031.07M1041.63 657.119H1031.07M1041.63 735.214H1031.07M1041.63 813.322H1031.07M1041.63 891.431H1031.07M1041.63 969.553H1031.07M1041.63 1047.66H1031.07M1041.63 1125.76H1031.07M1041.63 1203.86H1031.07M1041.63 1281.97H1031.07M1041.63 1360.08H1031.07M1114.29 -45.8446H1103.73M1114.29 32.2369H1103.73M1114.29 110.359H1103.73M1114.29 188.468H1103.73M1114.29 266.576H1103.73M1114.29 344.698H1103.73M1114.29 422.78H1103.73M1114.29 500.888H1103.73M1114.29 579.01H1103.73M1114.29 657.119H1103.73M1114.29 735.214H1103.73M1114.29 813.322H1103.73M1114.29 891.431H1103.73M1114.29 969.553H1103.73M1114.29 1047.66H1103.73M1114.29 1125.76H1103.73M1114.29 1203.86H1103.73M1114.29 1281.97H1103.73M1114.29 1360.08H1103.73M1187.01 -45.8446H1176.44M1187.01 32.2369H1176.44M1187.01 110.359H1176.44M1187.01 188.468H1176.44M1187.01 266.576H1176.44M1187.01 344.698H1176.44M1187.01 422.78H1176.44M1187.01 500.888H1176.44M1187.01 579.01H1176.44M1187.01 657.119H1176.44M1187.01 735.214H1176.44M1187.01 813.322H1176.44M1187.01 891.458H1176.44M1187.01 969.553H1176.44M1187.01 1047.66H1176.44M1187.01 1125.76H1176.44M1187.01 1203.86H1176.44M1187.01 1281.93H1176.44M1187.01 1360.04H1176.44M1259.72 -45.8446H1249.16M1259.72 32.2369H1249.16M1259.72 110.359H1249.16M1259.72 188.468H1249.16M1259.72 266.576H1249.16M1259.72 344.698H1249.16M1259.72 422.78H1249.16M1259.72 500.888H1249.16M1259.72 579.01H1249.16M1259.72 657.119H1249.16M1259.72 735.214H1249.16M1259.72 813.322H1249.16M1259.72 891.431H1249.16M1259.72 969.553H1249.16M1259.72 1047.66H1249.16M1259.72 1125.76H1249.16M1259.72 1203.86H1249.16M1259.72 1281.97H1249.16M1259.72 1360.08H1249.16" stroke="#939598" stroke-width="0.83"/>
</g>
<defs>
<clipPath id="clip0_60_402">
<rect width="755" height="874" fill="white"/>
</clipPath>
</defs>
</svg>
