<svg width="357" height="545" fill="none" xmlns="http://www.w3.org/2000/svg"><g clip-path="url(#a)"><path d="M-60.367 1366.45v11.34m0 66.77v11.28-11.26M12.347 38.514v11.35m0 66.759v11.363m0 66.745v11.336m0 66.787v11.43m0 66.773v11.336m0 66.745v11.363m0 66.759v11.35m0 66.759v11.336m0 66.786v11.322m0 66.759v11.363m0 66.759v11.35-11.363m0 78.122v11.349m0 66.759v11.336m0 66.773v11.35m0 66.76v11.36m0 66.75v11.36m0 66.75v11.33m0 66.79v11.33m0 66.78v11.26M85.024 38.609v11.35m0 66.759v11.362m0 66.746v11.336m0 66.786v11.336m0 66.773v11.336m0 66.745v11.363m0 66.759v11.35m0 66.759v11.336m0 66.786v11.322m0 66.759v11.363m0 66.759v11.35-11.363m0 78.149v11.349m0 66.759v11.336m0 66.776v11.32m0 66.76v11.36m0 66.75v11.36m0 66.75v11.33m0 66.79v11.33m0 66.78v11.26M157.738 38.514v11.35m0 66.759v11.363m0 66.745v11.336m0 66.787v11.43m0 66.773v11.336m0 66.745v11.363m0 66.759v11.35m0 66.759v11.336m0 66.786v11.322m0 66.759v11.363m0 66.759v11.35-11.363m0 78.122v11.349m0 66.759v11.336m0 66.773v11.35m0 66.76v11.36m0 66.75v11.36m0 66.75v11.33m0 66.79v11.33m0 66.78v11.26M230.452 38.514v11.35m0 66.759v11.363m0 66.745v11.336m0 66.787v11.43m0 66.773v11.336m0 66.745v11.363m0 66.759v11.35m0 66.759v11.336m0 66.786v11.322m0 66.759v11.363m0 66.759v11.35-11.363m0 78.122v11.349m0 66.759v11.336m0 66.773v11.35m0 66.76v11.36m0 66.75v11.36m0 66.75v11.33m0 66.79v11.33m0 66.78v11.26M303.178 38.514v11.35m0 66.759v11.363m0 66.745v11.336m0 66.787v11.43m0 66.773v11.336m0 66.745v11.363m0 66.759v11.35m0 66.759v11.336m0 66.786v11.322m0 66.759v11.363m0 66.759v11.35-11.363m0 78.122v11.349m0 66.759v11.336m0 66.773v11.35m0 66.76v11.36m0 66.75v11.36m0 66.75v11.33m0 66.79v11.33m0 66.78v11.26M375.892 38.514v11.35m0 66.759v11.363m0 66.745v11.336m0 66.787v11.43m0 66.773v11.336m0 66.745v11.363m0 66.759v11.35m0 66.759v11.336m0 66.786v11.322m0 66.759v11.363m0 66.759v11.35m0 66.759v11.349m0 66.759v11.336m0 66.773v11.35m0 66.76v11.36m0 66.75v11.36m0 66.75v11.33m0 66.79v11.33m0 66.78v11.26M448.606 38.514v11.35m0 66.759v11.363m0 66.745v11.336m0 66.787v11.43m0 66.773v11.336m0 66.745v11.363m0 66.759v11.35m0 66.759v11.336m0 66.786v11.322m0 66.759v11.363m0 66.759v11.35m0 66.759v11.349m0 66.759v11.336m0 66.773v11.35m0 66.76v11.36m0 66.75v11.36m0 66.75v11.33m0 66.79v11.33m0 66.78v11.26M521.408 38.609v11.35m0 66.759v11.362m0 66.746v11.336m0 66.786v11.336-11.349m0 78.122v11.336m0 66.745v11.363-11.349m0 78.108v11.35m0 66.759v11.336m0 66.786v11.322m0 66.759v11.363m0 66.759v11.35-11.363m0 78.149v11.349m0 66.759v11.336m0 66.776v11.32m0 66.76v11.36m0 66.75v11.36m0 66.75v11.33m0 66.79v11.33m0 66.78v11.26-11.32M594.122 38.514v11.35m0 66.759v11.363m0 66.745v11.336m0 66.787v11.43m0 66.773v11.336m0 66.745v11.363m0 66.759v11.35m0 66.759v11.336m0 66.786v11.322m0 66.759v11.363m0 66.759v11.35m0 66.759v11.349m0 66.759v11.336m0 66.773v11.35-11.44m0 78.2v11.36m0 66.75v11.36m0 66.75v11.33-11.32m0 78.11v11.33m0 66.78v11.26M666.836 38.514v11.35m0 66.759v11.363m0 66.745v11.336m0 66.787v11.43m0 66.773v11.336m0 66.745v11.363m0 66.759v11.35m0 66.759v11.336m0 66.786v11.322m0 66.759v11.363m0 66.759v11.35m0 66.759v11.349m0 66.759v11.336m0 66.773v11.35-11.44m0 78.2v11.36m0 66.75v11.36m0 66.75v11.33-11.32m0 78.11v11.33m0 66.78v11.26M-60.367 38.609v11.35m0 66.759v11.362m0 66.746v11.336m0 66.786v11.336m0 66.773v11.336m0 66.745v11.363m0 66.759v11.35m0 66.759v11.336m0 66.786v11.322m0 66.759v11.363m0 66.746v11.363m0 66.759v11.349m0 66.759v11.336m0 66.773v11.35m0 66.76v11.36m0 66.75v11.36m0 66.75v11.33m0 66.79v11.33m363.596 66.76v11.28M375.943 38.514v11.35m0 66.759v11.363m0 66.745v11.336m0 66.773v11.349m0 66.773v11.336m0 66.759v11.35m0 66.759v11.349m0 66.759v11.336m0 66.786v11.323m0 66.759v11.363m0 66.745v11.363m0 66.759v11.35m0 66.759v11.336m0 66.777v11.44m0 66.76v11.36m0 66.75v11.36m0 66.76v11.32m0 66.79v11.33m0 66.78v11.26M448.657 38.514v11.35m0 66.759v11.363m0 66.745v11.336m0 66.773v11.349m0 66.773v11.336m0 66.759v11.35m0 66.759v11.349m0 66.759v11.336m0 66.786v11.323m0 66.759v11.363m0 66.745v11.363m0 66.759v11.35m0 66.759v11.336m0 66.777v11.44m0 66.76v11.36m0 66.75v11.36m0 66.76v11.32m0 66.79v11.33m0 66.78v11.26m72.751-167.53v11.32m0 66.78v11.34m72.714-1104.91v11.349m0 66.773v11.336m0 66.759v11.35m0 66.759v11.349m0 66.759v11.336m0 66.786v11.323m0 66.759v11.363m0 66.745v11.363m0 66.759v11.35m0 66.759v11.336m72.714-714.313v11.349m0 66.773v11.336m0 66.759v11.35m0 66.759v11.349m0 66.759v11.336m0 66.786v11.323m0 66.759v11.363m0 66.745v11.363m0 66.759v11.35m0 66.759v11.336M-55.084 44.297h-10.564m10.563 78.082h-10.563m10.563 78.122h-10.563m10.563 78.108h-10.563m10.563 78.109h-10.563m10.563 78.122h-10.563m10.563 78.081h-10.563m10.563 78.109h-10.563m10.563 78.122h-10.563m10.563 78.109h-10.563m10.563 78.095h-10.563m10.563 78.108h-10.563m10.563 78.136h-10.563m10.563 78.12h-10.563m10.563 78.11h-10.563m10.563 78.1h-10.563m10.563 78.1h-10.563m10.563 78.04h-10.563m10.563 78.11h-10.563M17.629 44.297H7.053m10.551 78.082H7.053m10.551 78.122H7.053m10.576 78.108H7.053m10.551 78.109H7.053m10.551 78.122H7.053m10.551 78.081H7.053m10.551 78.109H7.053m10.551 78.122H7.053m10.551 78.109H7.053m10.551 78.095H7.053m10.551 78.108H7.053M17.629 981.6H7.053m10.551 78.12H7.053m10.551 78.11H7.053m10.551 78.1H7.053m10.551 78.1H7.053m10.576 78.04H7.053m10.551 78.11H7.053M90.343 44.297h-10.55m10.55 78.082h-10.55m10.55 78.122h-10.55m10.55 78.108h-10.55m10.55 78.109h-10.55m10.55 78.122h-10.55m10.55 78.081h-10.55m10.55 78.109h-10.55m10.55 78.122h-10.55m10.55 78.109h-10.55m10.55 78.095h-10.55m10.55 78.108h-10.55m10.55 78.136h-10.55m10.55 78.12h-10.55m10.55 78.11h-10.55m10.55 78.1h-10.55m10.55 78.1h-10.55m10.55 78.04h-10.55m10.55 78.11h-10.55M163.07 44.297h-10.564m10.564 78.082h-10.564m10.564 78.122h-10.564m10.564 78.108h-10.564m10.564 78.109h-10.564m10.564 78.122h-10.564m10.564 78.081h-10.564m10.564 78.109h-10.564m10.564 78.122h-10.564m10.564 78.109h-10.564m10.564 78.095h-10.564m10.564 78.108h-10.564m10.564 78.109h-10.564m10.564 78.117h-10.564m10.564 78.11h-10.564m10.564 78.1h-10.564m10.564 78.11h-10.564m10.564 78.11h-10.564m10.564 78.1h-10.564M235.784 44.297H225.22m10.564 78.082H225.22m10.564 78.122H225.22m10.564 78.108H225.22m10.564 78.109H225.22m10.564 78.122H225.22m10.564 78.081H225.22m10.564 78.109H225.22m10.564 78.122H225.22m10.564 78.109H225.22m10.564 78.095H225.22m10.564 78.108H225.22m10.564 78.109H225.22m10.564 78.117H225.22m10.564 78.11H225.22m10.564 78.1H225.22m10.564 78.11H225.22m10.564 78.11H225.22m10.564 78.1H225.22M308.51 44.297h-10.563m10.563 78.082h-10.563m10.563 78.122h-10.563m10.563 78.108h-10.563m10.563 78.109h-10.563m10.563 78.122h-10.563m10.563 78.081h-10.563m10.563 78.109h-10.563m10.563 78.122h-10.563m10.563 78.109h-10.563m10.563 78.095h-10.563m10.563 78.108h-10.563m10.563 78.109h-10.563m10.563 78.117h-10.563m10.563 78.11h-10.563m10.563 78.1h-10.563m10.563 78.11h-10.563m10.563 78.11h-10.563m10.563 78.1h-10.563M381.224 44.297h-10.563m10.563 78.082h-10.563m10.563 78.122h-10.563m10.563 78.108h-10.563m10.563 78.109h-10.563m10.563 78.122h-10.563m10.563 78.081h-10.563m10.563 78.109h-10.563m10.563 78.122h-10.563m10.563 78.109h-10.563m10.563 78.095h-10.563m10.563 78.108h-10.563m10.563 78.109h-10.563m10.563 78.117h-10.563m10.563 78.11h-10.563m10.563 78.1h-10.563m10.563 78.11h-10.563m10.563 78.11h-10.563m10.563 78.1h-10.563M453.938 44.297h-10.5m10.563 78.082h-10.563m10.563 78.122h-10.563m10.563 78.108h-10.563m10.563 78.109h-10.563m10.563 78.122h-10.563m10.563 78.081h-10.563m10.563 78.109h-10.563m10.563 78.122h-10.563m10.563 78.109h-10.563m10.563 78.095h-10.563m10.563 78.108h-10.563m10.563 78.109h-10.563m10.563 78.117h-10.563m10.563 78.11h-10.563m10.563 78.1h-10.563m10.563 78.11h-10.563m10.563 78.11h-10.563m10.563 78.1h-10.563M526.665 44.297h-10.564m10.564 78.082h-10.564m10.564 78.122h-10.564m10.564 78.108h-10.564m10.564 78.109h-10.564m10.564 78.122h-10.564m10.564 78.081h-10.564m10.564 78.109h-10.564m10.564 78.122h-10.564m10.564 78.109h-10.564m10.564 78.095h-10.564m10.564 78.108h-10.564m10.564 78.109h-10.564m10.564 78.117h-10.564m10.564 78.11h-10.564m10.564 78.1h-10.564m10.564 78.11h-10.564m10.564 78.11h-10.564m10.564 78.1h-10.564M599.379 44.297h-10.564m10.564 78.082h-10.564m10.564 78.122h-10.564m10.564 78.108h-10.564m10.564 78.109h-10.564m10.564 78.122h-10.564m10.564 78.081h-10.564m10.564 78.109h-10.564m10.564 78.122h-10.564m10.564 78.109h-10.564m10.564 78.095h-10.564m10.564 78.108h-10.564m10.564 78.136h-10.564m10.564 78.09h-10.564m10.564 78.11h-10.564m10.564 78.1h-10.564m10.564 78.11h-10.564m10.564 78.06h-10.564m10.564 78.11h-10.564M672.093 44.297h-10.564m10.564 78.082h-10.564m10.564 78.122h-10.564m10.564 78.108h-10.564m10.564 78.109h-10.564m10.564 78.122h-10.564m10.564 78.081h-10.564m10.564 78.109h-10.564m10.564 78.122h-10.564m10.564 78.109h-10.564m10.564 78.095h-10.564m10.564 78.108h-10.564m10.564 78.109h-10.564m10.564 78.117h-10.564m10.564 78.11h-10.564m10.564 78.1h-10.564m10.564 78.11h-10.564m10.564 78.11h-10.564m10.564 78.1h-10.564M739.236 38.514v11.35m0 66.759v11.363m0 66.745v11.336m0 66.787v11.43m0 66.773v11.336m0 66.745v11.363m0 66.759v11.35m0 66.759v11.336m0 66.786v11.322m0 66.759v11.363m0 66.759v11.35-11.363m0 78.122v11.349m0 66.759v11.336m0 66.773v11.35m0 66.76v11.36m0 66.75v11.36m0 66.75v11.33m0 66.79v11.33m0 66.78v11.26M811.912 38.609v11.35m0 66.759v11.362m0 66.746v11.336m0 66.786v11.336m0 66.773v11.336m0 66.745v11.363m0 66.759v11.35m0 66.759v11.336m0 66.786v11.322m0 66.759v11.363m0 66.759v11.35-11.363m0 78.149v11.349m0 66.759v11.336m0 66.776v11.32m0 66.76v11.36m0 66.75v11.36m0 66.75v11.33m0 66.79v11.33m0 66.78v11.26M884.626 38.514v11.35m0 66.759v11.363m0 66.745v11.336m0 66.787v11.43m0 66.773v11.336m0 66.745v11.363m0 66.759v11.35m0 66.759v11.336m0 66.786v11.322m0 66.759v11.363m0 66.759v11.35-11.363m0 78.122v11.349m0 66.759v11.336m0 66.773v11.35m0 66.76v11.36m0 66.75v11.36m0 66.75v11.33m0 66.79v11.33m0 66.78v11.26M957.34 38.514v11.35m0 66.759v11.363m0 66.745v11.336m0 66.787v11.43m0 66.773v11.336m0 66.745v11.363m0 66.759v11.35m0 66.759v11.336m0 66.786v11.322m0 66.759v11.363m0 66.759v11.35-11.363m0 78.122v11.349m0 66.759v11.336m0 66.773v11.35m0 66.76v11.36m0 66.75v11.36m0 66.75v11.33m0 66.79v11.33m0 66.78v11.26m72.73-1417.326v11.35m0 66.759v11.363m0 66.745v11.336m0 66.787v11.43m0 66.773v11.336m0 66.745v11.363m0 66.759v11.35m0 66.759v11.336m0 66.786v11.322m0 66.759v11.363m0 66.759v11.35-11.363m0 78.122v11.349m0 66.759v11.336m0 66.773v11.35m0 66.76v11.36m0 66.75v11.36m0 66.75v11.33m0 66.79v11.33m0 66.78v11.26m72.71-1417.326v11.35m0 66.759v11.363m0 66.745v11.336m0 66.787v11.43m0 66.773v11.336m0 66.745v11.363m0 66.759v11.35m0 66.759v11.336m0 66.786v11.322m0 66.759v11.363m0 66.759v11.35m0 66.759v11.349m0 66.759v11.336m0 66.773v11.35m0 66.76v11.36m0 66.75v11.36m0 66.75v11.33m0 66.79v11.33m0 66.78v11.26m72.71-1417.326v11.35m0 66.759v11.363m0 66.745v11.336m0 66.787v11.43m0 66.773v11.336m0 66.745v11.363m0 66.759v11.35m0 66.759v11.336m0 66.786v11.322m0 66.759v11.363m0 66.759v11.35m0 66.759v11.349m0 66.759v11.336m0 66.773v11.35m0 66.76v11.36m0 66.75v11.36m0 66.75v11.33m0 66.79v11.33m0 66.78v11.26M1248.3 38.609v11.35m0 66.759v11.362m0 66.746v11.336m0 66.786v11.336-11.349m0 78.122v11.336m0 66.745v11.363-11.349m0 78.108v11.35m0 66.759v11.336m0 66.786v11.322m0 66.759v11.363m0 66.759v11.35-11.363m0 78.149v11.349m0 66.759v11.336m0 66.776v11.32m0 66.76v11.36m0 66.75v11.36m0 66.75v11.33m0 66.79v11.33m0 66.78v11.26-11.32m72.71-1406.006v11.35m0 66.759v11.363m0 66.745v11.336m0 66.787v11.43m0 66.773v11.336m0 66.745v11.363m0 66.759v11.35m0 66.759v11.336m0 66.786v11.322m0 66.759v11.363m0 66.759v11.35m0 66.759v11.349m0 66.759v11.336m0 66.773v11.35-11.44m0 78.2v11.36m0 66.75v11.36m0 66.75v11.33-11.32m0 78.11v11.33m0 66.78v11.26m72.71-1417.326v11.35m0 66.759v11.363m0 66.745v11.336m0 66.787v11.43m0 66.773v11.336m0 66.745v11.363m0 66.759v11.35m0 66.759v11.336m0 66.786v11.322m0 66.759v11.363m0 66.759v11.35m0 66.759v11.349m0 66.759v11.336m0 66.773v11.35-11.44m0 78.2v11.36m0 66.75v11.36m0 66.75v11.33-11.32m0 78.11v11.33m0 66.78v11.26m-363.6-11.28v11.28m72.71-1417.326v11.35m0 66.759v11.363m0 66.745v11.336m0 66.773v11.349m0 66.773v11.336m0 66.759v11.35m0 66.759v11.349m0 66.759v11.336m0 66.786v11.323m0 66.759v11.363m0 66.745v11.363m0 66.759v11.35m0 66.759v11.336m0 66.777v11.44m0 66.76v11.36m0 66.75v11.36m0 66.76v11.32m0 66.79v11.33m0 66.78v11.26m72.72-1417.326v11.35m0 66.759v11.363m0 66.745v11.336m0 66.773v11.349m0 66.773v11.336m0 66.759v11.35m0 66.759v11.349m0 66.759v11.336m0 66.786v11.323m0 66.759v11.363m0 66.745v11.363m0 66.759v11.35m0 66.759v11.336m0 66.777v11.44m0 66.76v11.36m0 66.75v11.36m0 66.76v11.32m0 66.79v11.33m0 66.78v11.26m72.75-167.53v11.32m0 66.78v11.34m72.71-1104.91v11.349m0 66.773v11.336m0 66.759v11.35m0 66.759v11.349m0 66.759v11.336m0 66.786v11.323m0 66.759v11.363m0 66.745v11.363m0 66.759v11.35m0 66.759v11.336m72.71-714.313v11.349m0 66.773v11.336m0 66.759v11.35m0 66.759v11.349m0 66.759v11.336m0 66.786v11.323m0 66.759v11.363m0 66.745v11.363m0 66.759v11.35m0 66.759v11.336M744.518 44.297h-10.577m10.552 78.082h-10.552m10.552 78.122h-10.552m10.577 78.108h-10.577m10.552 78.109h-10.552m10.552 78.122h-10.552m10.552 78.081h-10.552m10.552 78.109h-10.552m10.552 78.122h-10.552m10.552 78.109h-10.552m10.552 78.095h-10.552m10.552 78.108h-10.552m10.577 78.136h-10.577m10.552 78.12h-10.552m10.552 78.11h-10.552m10.552 78.1h-10.552m10.552 78.1h-10.552m10.577 78.04h-10.577m10.552 78.11h-10.552M817.232 44.297h-10.551m10.551 78.082h-10.551m10.551 78.122h-10.551m10.551 78.108h-10.551m10.551 78.109h-10.551m10.551 78.122h-10.551m10.551 78.081h-10.551m10.551 78.109h-10.551m10.551 78.122h-10.551m10.551 78.109h-10.551m10.551 78.095h-10.551m10.551 78.108h-10.551m10.551 78.136h-10.551m10.551 78.12h-10.551m10.551 78.11h-10.551m10.551 78.1h-10.551m10.551 78.1h-10.551m10.551 78.04h-10.551m10.551 78.11h-10.551M889.958 44.297h-10.563m10.563 78.082h-10.563m10.563 78.122h-10.563m10.563 78.108h-10.563m10.563 78.109h-10.563m10.563 78.122h-10.563m10.563 78.081h-10.563m10.563 78.109h-10.563m10.563 78.122h-10.563m10.563 78.109h-10.563m10.563 78.095h-10.563m10.563 78.108h-10.563m10.563 78.109h-10.563m10.563 78.117h-10.563m10.563 78.11h-10.563m10.563 78.1h-10.563m10.563 78.11h-10.563m10.563 78.11h-10.563m10.563 78.1h-10.563M962.672 44.297h-10.563m10.563 78.082h-10.563m10.563 78.122h-10.563m10.563 78.108h-10.563m10.563 78.109h-10.563m10.563 78.122h-10.563m10.563 78.081h-10.563m10.563 78.109h-10.563m10.563 78.122h-10.563m10.563 78.109h-10.563m10.563 78.095h-10.563m10.563 78.108h-10.563m10.563 78.109h-10.563m10.563 78.117h-10.563m10.563 78.11h-10.563m10.563 78.1h-10.563m10.563 78.11h-10.563m10.563 78.11h-10.563m10.563 78.1h-10.563M1035.4 44.297h-10.56m10.56 78.082h-10.56m10.56 78.122h-10.56m10.56 78.108h-10.56m10.56 78.109h-10.56m10.56 78.122h-10.56m10.56 78.081h-10.56m10.56 78.109h-10.56m10.56 78.122h-10.56m10.56 78.109h-10.56m10.56 78.095h-10.56m10.56 78.108h-10.56m10.56 78.109h-10.56m10.56 78.117h-10.56m10.56 78.11h-10.56m10.56 78.1h-10.56m10.56 78.11h-10.56m10.56 78.11h-10.56m10.56 78.1h-10.56m83.27-1405.923h-10.56m10.56 78.082h-10.56m10.56 78.122h-10.56m10.56 78.108h-10.56m10.56 78.109h-10.56m10.56 78.122h-10.56m10.56 78.081h-10.56m10.56 78.109h-10.56m10.56 78.122h-10.56m10.56 78.109h-10.56m10.56 78.095h-10.56m10.56 78.108h-10.56m10.56 78.109h-10.56m10.56 78.117h-10.56m10.56 78.11h-10.56m10.56 78.1h-10.56m10.56 78.11h-10.56m10.56 78.11h-10.56m10.56 78.1h-10.56m83.28-1405.923h-10.5m10.56 78.082h-10.56m10.56 78.122h-10.56m10.56 78.108h-10.56m10.56 78.109h-10.56m10.56 78.122h-10.56m10.56 78.081h-10.56m10.56 78.109h-10.56m10.56 78.122h-10.56m10.56 78.109h-10.56m10.56 78.095h-10.56m10.56 78.108h-10.56m10.56 78.109h-10.56m10.56 78.117h-10.56m10.56 78.11h-10.56m10.56 78.1h-10.56m10.56 78.11h-10.56m10.56 78.11h-10.56m10.56 78.1h-10.56m83.22-1405.923h-10.56m10.56 78.082h-10.56m10.56 78.122h-10.56m10.56 78.108h-10.56m10.56 78.109h-10.56m10.56 78.122h-10.56m10.56 78.081h-10.56m10.56 78.109h-10.56m10.56 78.122h-10.56m10.56 78.109h-10.56m10.56 78.095h-10.56m10.56 78.108h-10.56m10.56 78.109h-10.56m10.56 78.117h-10.56m10.56 78.11h-10.56m10.56 78.1h-10.56m10.56 78.11h-10.56m10.56 78.11h-10.56m10.56 78.1h-10.56m83.28-1405.923h-10.57m10.57 78.082h-10.57m10.57 78.122h-10.57m10.57 78.108h-10.57m10.57 78.109h-10.57m10.57 78.122h-10.57m10.57 78.081h-10.57m10.57 78.109h-10.57m10.57 78.122h-10.57m10.57 78.109h-10.57m10.57 78.095h-10.57m10.57 78.108h-10.57m10.57 78.136h-10.57m10.57 78.09h-10.57m10.57 78.11h-10.57m10.57 78.1h-10.57m10.57 78.11h-10.57m10.57 78.06h-10.57m10.57 78.11h-10.57m83.28-1405.883h-10.56m10.56 78.082h-10.56m10.56 78.122h-10.56m10.56 78.108h-10.56m10.56 78.109h-10.56m10.56 78.122h-10.56m10.56 78.081h-10.56m10.56 78.109h-10.56m10.56 78.122h-10.56m10.56 78.109h-10.56m10.56 78.095h-10.56m10.56 78.108h-10.56m10.56 78.109h-10.56m10.56 78.117h-10.56m10.56 78.11h-10.56m10.56 78.1h-10.56m10.56 78.11h-10.56m10.56 78.11h-10.56m10.56 78.1h-10.56" stroke="#939598" stroke-width=".83"/></g><defs><clipPath id="a"><path fill="#fff" d="M0 0h357v545H0z"/></clipPath></defs></svg>