<svg width="357" height="728" fill="none" xmlns="http://www.w3.org/2000/svg"><g clip-path="url(#a)"><path d="M-60.718 1367.46v11.33m0 66.78v11.28-11.27M11.996 39.517v11.35m0 66.759v11.363m0 66.745v11.336m0 66.786v11.431m0 66.773v11.335m0 66.746v11.363m0 66.759v11.35m0 66.759v11.336m0 66.786v11.322m0 66.759v11.363m0 66.759v11.35-11.363m0 78.122v11.349m0 66.759v11.336m0 66.77v11.35m0 66.76v11.36m0 66.75v11.36m0 66.75v11.33m0 66.79v11.34m0 66.77v11.27M84.672 39.612v11.35m0 66.758v11.363m0 66.746v11.336m0 66.786v11.336m0 66.773v11.335m0 66.746v11.363m0 66.759v11.35m0 66.759v11.336m0 66.786v11.322m0 66.759v11.363m0 66.759v11.35-11.363m0 78.149v11.349m0 66.759v11.336m0 66.773v11.32m0 66.76v11.36m0 66.75v11.36m0 66.75v11.33m0 66.79v11.34m0 66.77v11.27M157.386 39.517v11.35m0 66.759v11.363m0 66.745v11.336m0 66.786v11.431m0 66.773v11.335m0 66.746v11.363m0 66.759v11.35m0 66.759v11.336m0 66.786v11.322m0 66.759v11.363m0 66.759v11.35-11.363m0 78.122v11.349m0 66.759v11.336m0 66.77v11.35m0 66.76v11.36m0 66.75v11.36m0 66.75v11.33m0 66.79v11.34m0 66.77v11.27M230.1 39.517v11.35m0 66.759v11.363m0 66.745v11.336m0 66.786v11.431m0 66.773v11.335m0 66.746v11.363m0 66.759v11.35m0 66.759v11.336m0 66.786v11.322m0 66.759v11.363m0 66.759v11.35-11.363m0 78.122v11.349m0 66.759v11.336m0 66.77v11.35m0 66.76v11.36m0 66.75v11.36m0 66.75v11.33m0 66.79v11.34m0 66.77v11.27M302.827 39.517v11.35m0 66.759v11.363m0 66.745v11.336m0 66.786v11.431m0 66.773v11.335m0 66.746v11.363m0 66.759v11.35m0 66.759v11.336m0 66.786v11.322m0 66.759v11.363m0 66.759v11.35-11.363m0 78.122v11.349m0 66.759v11.336m0 66.77v11.35m0 66.76v11.36m0 66.75v11.36m0 66.75v11.33m0 66.79v11.34m0 66.77v11.27M375.541 39.517v11.35m0 66.759v11.363m0 66.745v11.336m0 66.786v11.431m0 66.773v11.335m0 66.746v11.363m0 66.759v11.35m0 66.759v11.336m0 66.786v11.322m0 66.759v11.363m0 66.759v11.35m0 66.759v11.349m0 66.759v11.336m0 66.77v11.35m0 66.76v11.36m0 66.75v11.36m0 66.75v11.33m0 66.79v11.34m0 66.77v11.27M448.255 39.517v11.35m0 66.759v11.363m0 66.745v11.336m0 66.786v11.431m0 66.773v11.335m0 66.746v11.363m0 66.759v11.35m0 66.759v11.336m0 66.786v11.322m0 66.759v11.363m0 66.759v11.35m0 66.759v11.349m0 66.759v11.336m0 66.77v11.35m0 66.76v11.36m0 66.75v11.36m0 66.75v11.33m0 66.79v11.34m0 66.77v11.27M521.057 39.612v11.35m0 66.758v11.363m0 66.746v11.336m0 66.786v11.336-11.349m0 78.122v11.335m0 66.746v11.363-11.349m0 78.108v11.35m0 66.759v11.336m0 66.786v11.322m0 66.759v11.363m0 66.759v11.35-11.363m0 78.149v11.349m0 66.759v11.336m0 66.773v11.32m0 66.76v11.36m0 66.75v11.36m0 66.75v11.33m0 66.79v11.34m0 66.77v11.27-11.33M593.771 39.517v11.35m0 66.759v11.363m0 66.745v11.336m0 66.786v11.431m0 66.773v11.335m0 66.746v11.363m0 66.759v11.35m0 66.759v11.336m0 66.786v11.322m0 66.759v11.363m0 66.759v11.35m0 66.759v11.349m0 66.759v11.336m0 66.77v11.35-11.44m0 78.2v11.36m0 66.75v11.36m0 66.75v11.33-11.32m0 78.11v11.34m0 66.77v11.27M666.485 39.517v11.35m0 66.759v11.363m0 66.745v11.336m0 66.786v11.431m0 66.773v11.335m0 66.746v11.363m0 66.759v11.35m0 66.759v11.336m0 66.786v11.322m0 66.759v11.363m0 66.759v11.35m0 66.759v11.349m0 66.759v11.336m0 66.77v11.35-11.44m0 78.2v11.36m0 66.75v11.36m0 66.75v11.33-11.32m0 78.11v11.34m0 66.77v11.27M-60.718 39.612v11.35m0 66.758v11.363m0 66.746v11.336m0 66.786v11.336m0 66.773v11.335m0 66.746v11.363m0 66.759v11.35m0 66.759v11.336m0 66.786v11.322m0 66.759v11.363m0 66.746v11.363m0 66.759v11.349m0 66.759v11.336m0 66.77v11.35m0 66.76v11.36m0 66.75v11.36m0 66.75v11.33m0 66.79v11.34m363.595 66.76v11.28M375.591 39.517v11.35m0 66.759v11.363m0 66.745v11.336m0 66.773v11.349m0 66.773v11.336m0 66.759v11.35m0 66.759v11.349m0 66.759v11.336m0 66.786v11.323m0 66.759v11.363m0 66.745v11.363m0 66.759v11.35m0 66.759v11.336m0 66.774v11.44m0 66.76v11.36m0 66.75v11.36m0 66.76v11.32m0 66.79v11.34m0 66.77v11.27M448.305 39.517v11.35m0 66.759v11.363m0 66.745v11.336m0 66.773v11.349m0 66.773v11.336m0 66.759v11.35m0 66.759v11.349m0 66.759v11.336m0 66.786v11.323m0 66.759v11.363m0 66.745v11.363m0 66.759v11.35m0 66.759v11.336m0 66.774v11.44m0 66.76v11.36m0 66.75v11.36m0 66.76v11.32m0 66.79v11.34m0 66.77v11.27m72.752-167.54v11.32m0 66.79v11.33m72.714-1104.907v11.349m0 66.773v11.336m0 66.759v11.35m0 66.759v11.349m0 66.759v11.336m0 66.786v11.323m0 66.759v11.363m0 66.745v11.363m0 66.759v11.35m0 66.759v11.336m72.714-714.313v11.349m0 66.773v11.336m0 66.759v11.35m0 66.759v11.349m0 66.759v11.336m0 66.786v11.323m0 66.759v11.363m0 66.745v11.363m0 66.759v11.35m0 66.759v11.336M-55.436 45.3H-66m10.564 78.082H-66m10.564 78.122H-66m10.564 78.108H-66m10.564 78.109H-66m10.564 78.122H-66m10.564 78.081H-66m10.564 78.109H-66m10.564 78.122H-66m10.564 78.109H-66m10.564 78.095H-66m10.564 78.108H-66m10.564 78.136H-66m10.564 78.117H-66m10.564 78.11H-66m10.564 78.1H-66m10.564 78.11H-66m10.564 78.04H-66m10.564 78.11H-66M17.278 45.3H6.7m10.552 78.082H6.7m10.552 78.122H6.7m10.577 78.108H6.7m10.552 78.109H6.7m10.552 78.122H6.7m10.552 78.081H6.7m10.552 78.109H6.7m10.552 78.122H6.7m10.552 78.109H6.7m10.552 78.095H6.7m10.552 78.108H6.7m10.577 78.136H6.7m10.552 78.117H6.7m10.552 78.11H6.7m10.552 78.1H6.7m10.552 78.11H6.7m10.577 78.04H6.7m10.552 78.11H6.7M89.991 45.3h-10.55m10.55 78.082h-10.55m10.55 78.122h-10.55m10.55 78.108h-10.55m10.55 78.109h-10.55m10.55 78.122h-10.55m10.55 78.081h-10.55m10.55 78.109h-10.55m10.55 78.122h-10.55m10.55 78.109h-10.55m10.55 78.095h-10.55m10.55 78.108h-10.55m10.55 78.136h-10.55m10.55 78.117h-10.55m10.55 78.11h-10.55m10.55 78.1h-10.55m10.55 78.11h-10.55m10.55 78.04h-10.55m10.55 78.11h-10.55M162.718 45.3h-10.563m10.563 78.082h-10.563m10.563 78.122h-10.563m10.563 78.108h-10.563m10.563 78.109h-10.563m10.563 78.122h-10.563m10.563 78.081h-10.563m10.563 78.109h-10.563m10.563 78.122h-10.563m10.563 78.109h-10.563m10.563 78.095h-10.563m10.563 78.108h-10.563m10.563 78.109h-10.563m10.563 78.124h-10.563m10.563 78.11h-10.563m10.563 78.09h-10.563m10.563 78.11h-10.563m10.563 78.11h-10.563m10.563 78.11h-10.563M235.432 45.3h-10.563m10.563 78.082h-10.563m10.563 78.122h-10.563m10.563 78.108h-10.563m10.563 78.109h-10.563m10.563 78.122h-10.563m10.563 78.081h-10.563m10.563 78.109h-10.563m10.563 78.122h-10.563m10.563 78.109h-10.563m10.563 78.095h-10.563m10.563 78.108h-10.563m10.563 78.109h-10.563m10.563 78.124h-10.563m10.563 78.11h-10.563m10.563 78.09h-10.563m10.563 78.11h-10.563m10.563 78.11h-10.563m10.563 78.11h-10.563M308.159 45.3h-10.564m10.564 78.082h-10.564m10.564 78.122h-10.564m10.564 78.108h-10.564m10.564 78.109h-10.564m10.564 78.122h-10.564m10.564 78.081h-10.564m10.564 78.109h-10.564m10.564 78.122h-10.564m10.564 78.109h-10.564m10.564 78.095h-10.564m10.564 78.108h-10.564m10.564 78.109h-10.564m10.564 78.124h-10.564m10.564 78.11h-10.564m10.564 78.09h-10.564m10.564 78.11h-10.564m10.564 78.11h-10.564m10.564 78.11h-10.564M380.873 45.3h-10.564m10.564 78.082h-10.564m10.564 78.122h-10.564m10.564 78.108h-10.564m10.564 78.109h-10.564m10.564 78.122h-10.564m10.564 78.081h-10.564m10.564 78.109h-10.564m10.564 78.122h-10.564m10.564 78.109h-10.564m10.564 78.095h-10.564m10.564 78.108h-10.564m10.564 78.109h-10.564m10.564 78.124h-10.564m10.564 78.11h-10.564m10.564 78.09h-10.564m10.564 78.11h-10.564m10.564 78.11h-10.564m10.564 78.11h-10.564M453.587 45.3h-10.501m10.564 78.082h-10.564m10.564 78.122h-10.564m10.564 78.108h-10.564m10.564 78.109h-10.564m10.564 78.122h-10.564m10.564 78.081h-10.564m10.564 78.109h-10.564m10.564 78.122h-10.564m10.564 78.109h-10.564m10.564 78.095h-10.564m10.564 78.108h-10.564m10.564 78.109h-10.564m10.564 78.124h-10.564m10.564 78.11h-10.564m10.564 78.09h-10.564m10.564 78.11h-10.564m10.564 78.11h-10.564m10.564 78.11h-10.564M526.313 45.3H515.75m10.563 78.082H515.75m10.563 78.122H515.75m10.563 78.108H515.75m10.563 78.109H515.75m10.563 78.122H515.75m10.563 78.081H515.75m10.563 78.109H515.75m10.563 78.122H515.75m10.563 78.109H515.75m10.563 78.095H515.75m10.563 78.108H515.75m10.563 78.109H515.75m10.563 78.124H515.75m10.563 78.11H515.75m10.563 78.09H515.75m10.563 78.11H515.75m10.563 78.11H515.75m10.563 78.11H515.75M599.027 45.3h-10.563m10.563 78.082h-10.563m10.563 78.122h-10.563m10.563 78.108h-10.563m10.563 78.109h-10.563m10.563 78.122h-10.563m10.563 78.081h-10.563m10.563 78.109h-10.563m10.563 78.122h-10.563m10.563 78.109h-10.563m10.563 78.095h-10.563m10.563 78.108h-10.563m10.563 78.136h-10.563m10.563 78.097h-10.563m10.563 78.11h-10.563m10.563 78.09h-10.563m10.563 78.11h-10.563m10.563 78.07h-10.563m10.563 78.11h-10.563M671.741 45.3h-10.563m10.563 78.082h-10.563m10.563 78.122h-10.563m10.563 78.108h-10.563m10.563 78.109h-10.563m10.563 78.122h-10.563m10.563 78.081h-10.563m10.563 78.109h-10.563m10.563 78.122h-10.563m10.563 78.109h-10.563m10.563 78.095h-10.563m10.563 78.108h-10.563m10.563 78.109h-10.563m10.563 78.124h-10.563m10.563 78.11h-10.563m10.563 78.09h-10.563m10.563 78.11h-10.563m10.563 78.11h-10.563m10.563 78.11h-10.563M738.884 39.517v11.35m0 66.759v11.363m0 66.745v11.336m0 66.786v11.431m0 66.773v11.335m0 66.746v11.363m0 66.759v11.35m0 66.759v11.336m0 66.786v11.322m0 66.759v11.363m0 66.759v11.35-11.363m0 78.122v11.349m0 66.759v11.336m0 66.77v11.35m0 66.76v11.36m0 66.75v11.36m0 66.75v11.33m0 66.79v11.34m0 66.77v11.27M811.561 39.612v11.35m0 66.758v11.363m0 66.746v11.336m0 66.786v11.336m0 66.773v11.335m0 66.746v11.363m0 66.759v11.35m0 66.759v11.336m0 66.786v11.322m0 66.759v11.363m0 66.759v11.35-11.363m0 78.149v11.349m0 66.759v11.336m0 66.773v11.32m0 66.76v11.36m0 66.75v11.36m0 66.75v11.33m0 66.79v11.34m0 66.77v11.27M884.275 39.517v11.35m0 66.759v11.363m0 66.745v11.336m0 66.786v11.431m0 66.773v11.335m0 66.746v11.363m0 66.759v11.35m0 66.759v11.336m0 66.786v11.322m0 66.759v11.363m0 66.759v11.35-11.363m0 78.122v11.349m0 66.759v11.336m0 66.77v11.35m0 66.76v11.36m0 66.75v11.36m0 66.75v11.33m0 66.79v11.34m0 66.77v11.27M956.989 39.517v11.35m0 66.759v11.363m0 66.745v11.336m0 66.786v11.431m0 66.773v11.335m0 66.746v11.363m0 66.759v11.35m0 66.759v11.336m0 66.786v11.322m0 66.759v11.363m0 66.759v11.35-11.363m0 78.122v11.349m0 66.759v11.336m0 66.77v11.35m0 66.76v11.36m0 66.75v11.36m0 66.75v11.33m0 66.79v11.34m0 66.77v11.27M1029.72 39.517v11.35m0 66.759v11.363m0 66.745v11.336m0 66.786v11.431m0 66.773v11.335m0 66.746v11.363m0 66.759v11.35m0 66.759v11.336m0 66.786v11.322m0 66.759v11.363m0 66.759v11.35-11.363m0 78.122v11.349m0 66.759v11.336m0 66.77v11.35m0 66.76v11.36m0 66.75v11.36m0 66.75v11.33m0 66.79v11.34m0 66.77v11.27m72.71-1417.333v11.35m0 66.759v11.363m0 66.745v11.336m0 66.786v11.431m0 66.773v11.335m0 66.746v11.363m0 66.759v11.35m0 66.759v11.336m0 66.786v11.322m0 66.759v11.363m0 66.759v11.35m0 66.759v11.349m0 66.759v11.336m0 66.77v11.35m0 66.76v11.36m0 66.75v11.36m0 66.75v11.33m0 66.79v11.34m0 66.77v11.27m72.71-1417.333v11.35m0 66.759v11.363m0 66.745v11.336m0 66.786v11.431m0 66.773v11.335m0 66.746v11.363m0 66.759v11.35m0 66.759v11.336m0 66.786v11.322m0 66.759v11.363m0 66.759v11.35m0 66.759v11.349m0 66.759v11.336m0 66.77v11.35m0 66.76v11.36m0 66.75v11.36m0 66.75v11.33m0 66.79v11.34m0 66.77v11.27m72.81-1417.238v11.35m0 66.758v11.363m0 66.746v11.336m0 66.786v11.336-11.349m0 78.122v11.335m0 66.746v11.363-11.349m0 78.108v11.35m0 66.759v11.336m0 66.786v11.322m0 66.759v11.363m0 66.759v11.35-11.363m0 78.149v11.349m0 66.759v11.336m0 66.773v11.32m0 66.76v11.36m0 66.75v11.36m0 66.75v11.33m0 66.79v11.34m0 66.77v11.27-11.33m72.71-1406.003v11.35m0 66.759v11.363m0 66.745v11.336m0 66.786v11.431m0 66.773v11.335m0 66.746v11.363m0 66.759v11.35m0 66.759v11.336m0 66.786v11.322m0 66.759v11.363m0 66.759v11.35m0 66.759v11.349m0 66.759v11.336m0 66.77v11.35-11.44m0 78.2v11.36m0 66.75v11.36m0 66.75v11.33-11.32m0 78.11v11.34m0 66.77v11.27m72.71-1417.333v11.35m0 66.759v11.363m0 66.745v11.336m0 66.786v11.431m0 66.773v11.335m0 66.746v11.363m0 66.759v11.35m0 66.759v11.336m0 66.786v11.322m0 66.759v11.363m0 66.759v11.35m0 66.759v11.349m0 66.759v11.336m0 66.77v11.35-11.44m0 78.2v11.36m0 66.75v11.36m0 66.75v11.33-11.32m0 78.11v11.34m0 66.77v11.27m-363.6-11.28v11.28m72.71-1417.333v11.35m0 66.759v11.363m0 66.745v11.336m0 66.773v11.349m0 66.773v11.336m0 66.759v11.35m0 66.759v11.349m0 66.759v11.336m0 66.786v11.323m0 66.759v11.363m0 66.745v11.363m0 66.759v11.35m0 66.759v11.336m0 66.774v11.44m0 66.76v11.36m0 66.75v11.36m0 66.76v11.32m0 66.79v11.34m0 66.77v11.27m72.71-1417.333v11.35m0 66.759v11.363m0 66.745v11.336m0 66.773v11.349m0 66.773v11.336m0 66.759v11.35m0 66.759v11.349m0 66.759v11.336m0 66.786v11.323m0 66.759v11.363m0 66.745v11.363m0 66.759v11.35m0 66.759v11.336m0 66.774v11.44m0 66.76v11.36m0 66.75v11.36m0 66.76v11.32m0 66.79v11.34m0 66.77v11.27m72.76-167.54v11.32m0 66.79v11.33m72.71-1104.907v11.349m0 66.773v11.336m0 66.759v11.35m0 66.759v11.349m0 66.759v11.336m0 66.786v11.323m0 66.759v11.363m0 66.745v11.363m0 66.759v11.35m0 66.759v11.336m72.71-714.313v11.349m0 66.773v11.336m0 66.759v11.35m0 66.759v11.349m0 66.759v11.336m0 66.786v11.323m0 66.759v11.363m0 66.745v11.363m0 66.759v11.35m0 66.759v11.336M744.166 45.3H733.59m10.551 78.082H733.59m10.551 78.122H733.59m10.576 78.108H733.59m10.551 78.109H733.59m10.551 78.122H733.59m10.551 78.081H733.59m10.551 78.109H733.59m10.551 78.122H733.59m10.551 78.109H733.59m10.551 78.095H733.59m10.551 78.108H733.59m10.576 78.136H733.59m10.551 78.117H733.59m10.551 78.11H733.59m10.551 78.1H733.59m10.551 78.11H733.59m10.576 78.04H733.59m10.551 78.11H733.59M816.88 45.3h-10.551m10.551 78.082h-10.551m10.551 78.122h-10.551m10.551 78.108h-10.551m10.551 78.109h-10.551m10.551 78.122h-10.551m10.551 78.081h-10.551m10.551 78.109h-10.551m10.551 78.122h-10.551m10.551 78.109h-10.551m10.551 78.095h-10.551m10.551 78.108h-10.551m10.551 78.136h-10.551m10.551 78.117h-10.551m10.551 78.11h-10.551m10.551 78.1h-10.551m10.551 78.11h-10.551m10.551 78.04h-10.551m10.551 78.11h-10.551M889.607 45.3h-10.564m10.564 78.082h-10.564m10.564 78.122h-10.564m10.564 78.108h-10.564m10.564 78.109h-10.564m10.564 78.122h-10.564m10.564 78.081h-10.564m10.564 78.109h-10.564m10.564 78.122h-10.564m10.564 78.109h-10.564m10.564 78.095h-10.564m10.564 78.108h-10.564m10.564 78.109h-10.564m10.564 78.124h-10.564m10.564 78.11h-10.564m10.564 78.09h-10.564m10.564 78.11h-10.564m10.564 78.11h-10.564m10.564 78.11h-10.564M962.321 45.3h-10.564m10.564 78.082h-10.564m10.564 78.122h-10.564m10.564 78.108h-10.564m10.564 78.109h-10.564m10.564 78.122h-10.564m10.564 78.081h-10.564m10.564 78.109h-10.564m10.564 78.122h-10.564m10.564 78.109h-10.564m10.564 78.095h-10.564m10.564 78.108h-10.564m10.564 78.109h-10.564m10.564 78.124h-10.564m10.564 78.11h-10.564m10.564 78.09h-10.564m10.564 78.11h-10.564m10.564 78.11h-10.564m10.564 78.11h-10.564M1035.05 45.3h-10.57m10.57 78.082h-10.57m10.57 78.122h-10.57m10.57 78.108h-10.57m10.57 78.109h-10.57m10.57 78.122h-10.57m10.57 78.081h-10.57m10.57 78.109h-10.57m10.57 78.122h-10.57m10.57 78.109h-10.57m10.57 78.095h-10.57m10.57 78.108h-10.57m10.57 78.109h-10.57m10.57 78.124h-10.57m10.57 78.11h-10.57m10.57 78.09h-10.57m10.57 78.11h-10.57m10.57 78.11h-10.57m10.57 78.11h-10.57M1107.76 45.3h-10.56m10.56 78.082h-10.56m10.56 78.122h-10.56m10.56 78.108h-10.56m10.56 78.109h-10.56m10.56 78.122h-10.56m10.56 78.081h-10.56m10.56 78.109h-10.56m10.56 78.122h-10.56m10.56 78.109h-10.56m10.56 78.095h-10.56m10.56 78.108h-10.56m10.56 78.109h-10.56m10.56 78.124h-10.56m10.56 78.11h-10.56m10.56 78.09h-10.56m10.56 78.11h-10.56m10.56 78.11h-10.56m10.56 78.11h-10.56M1180.48 45.3h-10.51m10.57 78.082h-10.57m10.57 78.122h-10.57m10.57 78.108h-10.57m10.57 78.109h-10.57m10.57 78.122h-10.57m10.57 78.081h-10.57m10.57 78.109h-10.57m10.57 78.122h-10.57m10.57 78.109h-10.57m10.57 78.095h-10.57m10.57 78.108h-10.57m10.57 78.109h-10.57m10.57 78.124h-10.57m10.57 78.11h-10.57m10.57 78.09h-10.57m10.57 78.11h-10.57m10.57 78.11h-10.57m10.57 78.11h-10.57M1253.2 45.3h-10.56m10.56 78.082h-10.56m10.56 78.122h-10.56m10.56 78.108h-10.56m10.56 78.109h-10.56m10.56 78.122h-10.56m10.56 78.081h-10.56m10.56 78.109h-10.56m10.56 78.122h-10.56m10.56 78.109h-10.56m10.56 78.095h-10.56m10.56 78.108h-10.56m10.56 78.109h-10.56m10.56 78.124h-10.56m10.56 78.11h-10.56m10.56 78.09h-10.56m10.56 78.11h-10.56m10.56 78.11h-10.56m10.56 78.11h-10.56M1325.92 45.3h-10.57m10.57 78.082h-10.57m10.57 78.122h-10.57m10.57 78.108h-10.57m10.57 78.109h-10.57m10.57 78.122h-10.57m10.57 78.081h-10.57m10.57 78.109h-10.57m10.57 78.122h-10.57m10.57 78.109h-10.57m10.57 78.095h-10.57m10.57 78.108h-10.57m10.57 78.136h-10.57m10.57 78.097h-10.57m10.57 78.11h-10.57m10.57 78.09h-10.57m10.57 78.11h-10.57m10.57 78.07h-10.57m10.57 78.11h-10.57M1398.63 45.3h-10.56m10.56 78.082h-10.56m10.56 78.122h-10.56m10.56 78.108h-10.56m10.56 78.109h-10.56m10.56 78.122h-10.56m10.56 78.081h-10.56m10.56 78.109h-10.56m10.56 78.122h-10.56m10.56 78.109h-10.56m10.56 78.095h-10.56m10.56 78.108h-10.56m10.56 78.109h-10.56m10.56 78.124h-10.56m10.56 78.11h-10.56m10.56 78.09h-10.56m10.56 78.11h-10.56m10.56 78.11h-10.56m10.56 78.11h-10.56" stroke="#939598" stroke-width=".83"/></g><defs><clipPath id="a"><path fill="#fff" transform="translate(0 .538)" d="M0 0h960v727H0z"/></clipPath></defs></svg>