<svg width="106" height="291" viewBox="0 0 106 291" fill="none" xmlns="http://www.w3.org/2000/svg">
<g clip-path="url(#clip0_81_74)">
<path d="M-234.373 641.678V647.87M-234.373 684.342V690.504V684.349M-194.655 -83.6602V-77.4609M-194.655 -40.9963V-34.7897M-194.655 1.66764V7.85948M-194.655 44.3389V50.5824M-194.655 87.0545V93.2463M-194.655 129.704V135.91M-194.655 172.375V178.574M-194.655 215.039V221.231M-194.655 257.71V263.895M-194.655 300.359V306.566M-194.655 343.031V349.23V343.023M-194.655 385.694V391.894M-194.655 428.358V434.55M-194.655 471.022V477.221M-194.655 513.686V519.893M-194.655 556.35V562.557M-194.655 599.014V605.206M-194.655 641.685V647.877M-194.655 684.349V690.504M-154.959 -83.6085V-77.4093M-154.959 -40.9446V-34.738M-154.959 1.71931V7.91115M-154.959 44.3906V50.5824M-154.959 87.0545V93.2463M-154.959 129.704V135.91M-154.959 172.375V178.574M-154.959 215.039V221.231M-154.959 257.71V263.895M-154.959 300.359V306.566M-154.959 343.031V349.23V343.023M-154.959 385.709V391.908M-154.959 428.373V434.565M-154.959 471.037V477.221M-154.959 513.686V519.893M-154.959 556.35V562.557M-154.959 599.014V605.206M-154.959 641.685V647.877M-154.959 684.349V690.504M-115.241 -83.6602V-77.4609M-115.241 -40.9963V-34.7897M-115.241 1.66764V7.85948M-115.241 44.3389V50.5824M-115.241 87.0545V93.2463M-115.241 129.704V135.91M-115.241 172.375V178.574M-115.241 215.039V221.231M-115.241 257.71V263.895M-115.241 300.359V306.566M-115.241 343.031V349.23V343.023M-115.241 385.694V391.894M-115.241 428.358V434.55M-115.241 471.022V477.221M-115.241 513.686V519.893M-115.241 556.35V562.557M-115.241 599.014V605.206M-115.241 641.685V647.877M-115.241 684.349V690.504M-75.5241 -83.6602V-77.4609M-75.5241 -40.9963V-34.7897M-75.5241 1.66764V7.85948M-75.5241 44.3389V50.5824M-75.5241 87.0545V93.2463M-75.5241 129.704V135.91M-75.5241 172.375V178.574M-75.5241 215.039V221.231M-75.5241 257.71V263.895M-75.5241 300.359V306.566M-75.5241 343.031V349.23V343.023M-75.5241 385.694V391.894M-75.5241 428.358V434.55M-75.5241 471.022V477.221M-75.5241 513.686V519.893M-75.5241 556.35V562.557M-75.5241 599.014V605.206M-75.5241 641.685V647.877M-75.5241 684.349V690.504M-35.7998 -83.6602V-77.4609M-35.7998 -40.9963V-34.7897M-35.7998 1.66764V7.85948M-35.7998 44.3389V50.5824M-35.7998 87.0545V93.2463M-35.7998 129.704V135.91M-35.7998 172.375V178.574M-35.7998 215.039V221.231M-35.7998 257.71V263.895M-35.7998 300.359V306.566M-35.7998 343.031V349.23V343.023M-35.7998 385.694V391.894M-35.7998 428.358V434.55M-35.7998 471.022V477.221M-35.7998 513.686V519.893M-35.7998 556.35V562.557M-35.7998 599.014V605.206M-35.7998 641.685V647.877M-35.7998 684.349V690.504M3.9175 -83.6602V-77.4609M3.9175 -40.9963V-34.7897M3.9175 1.66764V7.85948M3.9175 44.3389V50.5824M3.9175 87.0545V93.2463M3.9175 129.704V135.91M3.9175 172.375V178.574M3.9175 215.039V221.231M3.9175 257.71V263.895M3.9175 300.359V306.566M3.9175 343.031V349.23M3.9175 385.694V391.894M3.9175 428.358V434.55M3.9175 471.022V477.221M3.9175 513.686V519.893M3.9175 556.35V562.557M3.9175 599.014V605.206M3.9175 641.685V647.877M3.9175 684.349V690.504M43.6348 -83.6602V-77.4609M43.6348 -40.9963V-34.7897M43.6348 1.66764V7.85948M43.6348 44.3389V50.5824M43.6348 87.0545V93.2463M43.6348 129.704V135.91M43.6348 172.375V178.574M43.6348 215.039V221.231M43.6348 257.71V263.895M43.6348 300.359V306.566M43.6348 343.031V349.23M43.6348 385.694V391.894M43.6348 428.358V434.55M43.6348 471.022V477.221M43.6348 513.686V519.893M43.6348 556.35V562.557M43.6348 599.014V605.206M43.6348 641.685V647.877M43.6348 684.349V690.504M83.4002 -83.6085V-77.4093M83.4002 -40.9446V-34.738M83.4002 1.71931V7.91115M83.4002 44.3906V50.5824V44.3832M83.4002 87.0545V93.2463M83.4002 129.704V135.91V129.711M83.4002 172.375V178.574M83.4002 215.039V221.231M83.4002 257.71V263.895M83.4002 300.359V306.566M83.4002 343.031V349.23V343.023M83.4002 385.709V391.908M83.4002 428.373V434.565M83.4002 471.037V477.221M83.4002 513.686V519.893M83.4002 556.35V562.557M83.4002 599.014V605.206M83.4002 641.685V647.877M83.4002 684.349V690.504V684.32M123.118 -83.6602V-77.4609M123.118 -40.9963V-34.7897M123.118 1.66764V7.85948M123.118 44.3389V50.5824M123.118 87.0545V93.2463M123.118 129.704V135.91M123.118 172.375V178.574M123.118 215.039V221.231M123.118 257.71V263.895M123.118 300.359V306.566M123.118 343.031V349.23M123.118 385.694V391.894M123.118 428.358V434.55M123.118 471.022V477.221V470.971M123.118 513.686V519.893M123.118 556.35V562.557M123.118 599.014V605.206V599.021M123.118 641.685V647.877M123.118 684.349V690.504M162.835 -83.6602V-77.4609M162.835 -40.9963V-34.7897M162.835 1.66764V7.85948M162.835 44.3389V50.5824M162.835 87.0545V93.2463M162.835 129.704V135.91M162.835 172.375V178.574M162.835 215.039V221.231M162.835 257.71V263.895M162.835 300.359V306.566M162.835 343.031V349.23M162.835 385.694V391.894M162.835 428.358V434.55M162.835 471.022V477.221V470.971M162.835 513.686V519.893M162.835 556.35V562.557M162.835 599.014V605.206V599.021M162.835 641.685V647.877M162.835 684.349V690.504M-234.373 -83.6085V-77.4093M-234.373 -40.9446V-34.738M-234.373 1.71931V7.91115M-234.373 44.3906V50.5824M-234.373 87.0545V93.2463M-234.373 129.704V135.91M-234.373 172.375V178.574M-234.373 215.039V221.231M-234.373 257.71V263.895M-234.373 300.359V306.566M-234.373 343.023V349.23M-234.373 385.694V391.894M-234.373 428.358V434.55M-234.373 471.022V477.221M-234.373 513.686V519.893M-234.373 556.35V562.557M-234.373 599.014V605.206M-234.373 641.685V647.877M-35.7724 684.342V690.504M3.94494 -83.6602V-77.4609M3.94494 -40.9963V-34.7897M3.94494 1.66764V7.85948M3.94494 44.3315V50.5308M3.94494 87.0028V93.1947M3.94494 129.659V135.859M3.94494 172.323V178.522M3.94494 214.987V221.179M3.94494 257.658V263.843M3.94494 300.308V306.514M3.94494 342.971V349.178M3.94494 385.643V391.842M3.94494 428.307V434.498M3.94494 470.971V477.221M3.94494 513.686V519.893M3.94494 556.35V562.557M3.94494 599.021V605.206M3.94494 641.685V647.877M3.94494 684.349V690.504M43.6623 -83.6602V-77.4609M43.6623 -40.9963V-34.7897M43.6623 1.66764V7.85948M43.6623 44.3315V50.5308M43.6623 87.0028V93.1947M43.6623 129.659V135.859M43.6623 172.323V178.522M43.6623 214.987V221.179M43.6623 257.658V263.843M43.6623 300.308V306.514M43.6623 342.971V349.178M43.6623 385.643V391.842M43.6623 428.307V434.498M43.6623 470.971V477.221M43.6623 513.686V519.893M43.6623 556.35V562.557M43.6623 599.021V605.206M43.6623 641.685V647.877M43.6623 684.349V690.504M83.4002 598.992V605.176M83.4002 641.656V647.848M123.118 44.3315V50.5308M123.118 87.0028V93.1947M123.118 129.659V135.859M123.118 172.323V178.522M123.118 214.987V221.179M123.118 257.658V263.843M123.118 300.308V306.514M123.118 342.971V349.178M123.118 385.643V391.842M123.118 428.307V434.498M162.835 44.3315V50.5308M162.835 87.0028V93.1947M162.835 129.659V135.859M162.835 172.323V178.522M162.835 214.987V221.179M162.835 257.658V263.843M162.835 300.308V306.514M162.835 342.971V349.178M162.835 385.643V391.842M162.835 428.307V434.498M-231.488 -80.5015H-237.258M-231.488 -37.8524H-237.258M-231.488 4.81892H-237.258M-231.488 47.4828H-237.258M-231.488 90.1467H-237.258M-231.488 132.818H-237.258M-231.488 175.467H-237.258M-231.488 218.131H-237.258M-231.488 260.802H-237.258M-231.488 303.466H-237.258M-231.488 346.123H-237.258M-231.488 388.787H-237.258M-231.488 431.465H-237.258M-231.488 474.137H-237.258M-231.488 516.8H-237.258M-231.488 559.457H-237.258M-231.488 602.121H-237.258M-231.488 644.748H-237.258M-231.488 687.412H-237.258M-191.77 -80.5015H-197.547M-191.784 -37.8523H-197.547M-191.784 4.81894H-197.547M-191.77 47.4828H-197.547M-191.784 90.1467H-197.547M-191.784 132.818H-197.547M-191.784 175.467H-197.547M-191.784 218.131H-197.547M-191.784 260.802H-197.547M-191.784 303.466H-197.547M-191.784 346.123H-197.547M-191.784 388.787H-197.547M-191.77 431.465H-197.547M-191.784 474.137H-197.547M-191.784 516.8H-197.547M-191.784 559.457H-197.547M-191.784 602.121H-197.547M-191.77 644.748H-197.547M-191.784 687.412H-197.547M-152.053 -80.5015H-157.816M-152.053 -37.8523H-157.816M-152.053 4.81894H-157.816M-152.053 47.4828H-157.816M-152.053 90.1467H-157.816M-152.053 132.818H-157.816M-152.053 175.467H-157.816M-152.053 218.131H-157.816M-152.053 260.802H-157.816M-152.053 303.466H-157.816M-152.053 346.123H-157.816M-152.053 388.787H-157.816M-152.053 431.465H-157.816M-152.053 474.137H-157.816M-152.053 516.8H-157.816M-152.053 559.457H-157.816M-152.053 602.121H-157.816M-152.053 644.748H-157.816M-152.053 687.412H-157.816M-112.329 -80.5015H-118.099M-112.329 -37.8523H-118.099M-112.329 4.81894H-118.099M-112.329 47.4828H-118.099M-112.329 90.1467H-118.099M-112.329 132.818H-118.099M-112.329 175.467H-118.099M-112.329 218.131H-118.099M-112.329 260.802H-118.099M-112.329 303.466H-118.099M-112.329 346.123H-118.099M-112.329 388.787H-118.099M-112.329 431.451H-118.099M-112.329 474.122H-118.099M-112.329 516.786H-118.099M-112.329 559.442H-118.099M-112.329 602.106H-118.099M-112.329 644.77H-118.099M-112.329 687.434H-118.099M-72.6115 -80.5015H-78.3816M-72.6115 -37.8523H-78.3816M-72.6115 4.81894H-78.3816M-72.6115 47.4828H-78.3816M-72.6115 90.1467H-78.3816M-72.6115 132.818H-78.3816M-72.6115 175.467H-78.3816M-72.6115 218.131H-78.3816M-72.6115 260.802H-78.3816M-72.6115 303.466H-78.3816M-72.6115 346.123H-78.3816M-72.6115 388.787H-78.3816M-72.6115 431.451H-78.3816M-72.6115 474.122H-78.3816M-72.6115 516.786H-78.3816M-72.6115 559.442H-78.3816M-72.6115 602.106H-78.3816M-72.6115 644.77H-78.3816M-72.6115 687.434H-78.3816M-32.8874 -80.5015H-38.6574M-32.8874 -37.8523H-38.6574M-32.8874 4.81894H-38.6574M-32.8874 47.4828H-38.6574M-32.8874 90.1467H-38.6574M-32.8874 132.818H-38.6574M-32.8874 175.467H-38.6574M-32.8874 218.131H-38.6574M-32.8874 260.802H-38.6574M-32.8874 303.466H-38.6574M-32.8874 346.123H-38.6574M-32.8874 388.787H-38.6574M-32.8874 431.451H-38.6574M-32.8874 474.122H-38.6574M-32.8874 516.786H-38.6574M-32.8874 559.442H-38.6574M-32.8874 602.106H-38.6574M-32.8874 644.77H-38.6574M-32.8874 687.434H-38.6574M6.82998 -80.5015H1.05991M6.82998 -37.8523H1.05991M6.82998 4.81894H1.05991M6.82998 47.4828H1.05991M6.82998 90.1467H1.05991M6.82998 132.818H1.05991M6.82998 175.467H1.05991M6.82998 218.131H1.05991M6.82998 260.802H1.05991M6.82998 303.466H1.05991M6.82998 346.123H1.05991M6.82998 388.787H1.05991M6.82998 431.451H1.05991M6.82998 474.122H1.05991M6.82998 516.786H1.05991M6.82998 559.442H1.05991M6.82998 602.106H1.05991M6.82998 644.77H1.05991M6.82998 687.434H1.05991M46.5473 -80.5015H40.8116M46.5817 -37.8523H40.8116M46.5817 4.81894H40.8116M46.5817 47.4828H40.8116M46.5817 90.1467H40.8116M46.5817 132.818H40.8116M46.5817 175.467H40.8116M46.5817 218.131H40.8116M46.5817 260.802H40.8116M46.5817 303.466H40.8116M46.5817 346.123H40.8116M46.5817 388.787H40.8116M46.5817 431.451H40.8116M46.5817 474.122H40.8116M46.5817 516.786H40.8116M46.5817 559.442H40.8116M46.5817 602.106H40.8116M46.5817 644.77H40.8116M46.5817 687.434H40.8116M86.2715 -80.5015H80.5014M86.2715 -37.8523H80.5014M86.2715 4.81894H80.5014M86.2715 47.4828H80.5014M86.2715 90.1467H80.5014M86.2715 132.818H80.5014M86.2715 175.467H80.5014M86.2715 218.131H80.5014M86.2715 260.802H80.5014M86.2715 303.466H80.5014M86.2715 346.123H80.5014M86.2715 388.787H80.5014M86.2715 431.451H80.5014M86.2715 474.122H80.5014M86.2715 516.786H80.5014M86.2715 559.442H80.5014M86.2715 602.106H80.5014M86.2715 644.77H80.5014M86.2715 687.434H80.5014M125.989 -80.5015H120.219M125.989 -37.8523H120.219M125.989 4.81894H120.219M125.989 47.4828H120.219M125.989 90.1467H120.219M125.989 132.818H120.219M125.989 175.467H120.219M125.989 218.131H120.219M125.989 260.802H120.219M125.989 303.466H120.219M125.989 346.123H120.219M125.989 388.787H120.219M125.989 431.465H120.219M125.989 474.122H120.219M125.989 516.786H120.219M125.989 559.442H120.219M125.989 602.106H120.219M125.989 644.748H120.219M125.989 687.412H120.219M165.706 -80.5015H159.936M165.706 -37.8523H159.936M165.706 4.81894H159.936M165.706 47.4828H159.936M165.706 90.1467H159.936M165.706 132.818H159.936M165.706 175.467H159.936M165.706 218.131H159.936M165.706 260.802H159.936M165.706 303.466H159.936M165.706 346.123H159.936M165.706 388.787H159.936M165.706 431.451H159.936M165.706 474.122H159.936M165.706 516.786H159.936M165.706 559.442H159.936M165.706 602.106H159.936M165.706 644.77H159.936M165.706 687.434H159.936M202.381 -83.6602V-77.4609M202.381 -40.9963V-34.7897M202.381 1.66764V7.85948M202.381 44.3389V50.5824M202.381 87.0545V93.2463M202.381 129.704V135.91M202.381 172.375V178.574M202.381 215.039V221.231M202.381 257.71V263.895M202.381 300.359V306.566M202.381 343.031V349.23V343.023M202.381 385.694V391.894M202.381 428.358V434.55M202.381 471.022V477.221M202.381 513.686V519.893M202.381 556.35V562.557M202.381 599.014V605.206M202.381 641.685V647.877M202.381 684.349V690.504M242.077 -83.6085V-77.4093M242.077 -40.9446V-34.738M242.077 1.71931V7.91115M242.077 44.3906V50.5824M242.077 87.0545V93.2463M242.077 129.704V135.91M242.077 172.375V178.574M242.077 215.039V221.231M242.077 257.71V263.895M242.077 300.359V306.566M242.077 343.031V349.23V343.023M242.077 385.709V391.908M242.077 428.373V434.565M242.077 471.037V477.221M242.077 513.686V519.893M242.077 556.35V562.557M242.077 599.014V605.206M242.077 641.685V647.877M242.077 684.349V690.504M281.795 -83.6602V-77.4609M281.795 -40.9963V-34.7897M281.795 1.66764V7.85948M281.795 44.3389V50.5824M281.795 87.0545V93.2463M281.795 129.704V135.91M281.795 172.375V178.574M281.795 215.039V221.231M281.795 257.71V263.895M281.795 300.359V306.566M281.795 343.031V349.23V343.023M281.795 385.694V391.894M281.795 428.358V434.55M281.795 471.022V477.221M281.795 513.686V519.893M281.795 556.35V562.557M281.795 599.014V605.206M281.795 641.685V647.877M281.795 684.349V690.504M321.512 -83.6602V-77.4609M321.512 -40.9963V-34.7897M321.512 1.66764V7.85948M321.512 44.3389V50.5824M321.512 87.0545V93.2463M321.512 129.704V135.91M321.512 172.375V178.574M321.512 215.039V221.231M321.512 257.71V263.895M321.512 300.359V306.566M321.512 343.031V349.23V343.023M321.512 385.694V391.894M321.512 428.358V434.55M321.512 471.022V477.221M321.512 513.686V519.893M321.512 556.35V562.557M321.512 599.014V605.206M321.512 641.685V647.877M321.512 684.349V690.504M361.236 -83.6602V-77.4609M361.236 -40.9963V-34.7897M361.236 1.66764V7.85948M361.236 44.3389V50.5824M361.236 87.0545V93.2463M361.236 129.704V135.91M361.236 172.375V178.574M361.236 215.039V221.231M361.236 257.71V263.895M361.236 300.359V306.566M361.236 343.031V349.23V343.023M361.236 385.694V391.894M361.236 428.358V434.55M361.236 471.022V477.221M361.236 513.686V519.893M361.236 556.35V562.557M361.236 599.014V605.206M361.236 641.685V647.877M361.236 684.349V690.504M400.953 -83.6602V-77.4609M400.953 -40.9963V-34.7897M400.953 1.66764V7.85948M400.953 44.3389V50.5824M400.953 87.0545V93.2463M400.953 129.704V135.91M400.953 172.375V178.574M400.953 215.039V221.231M400.953 257.71V263.895M400.953 300.359V306.566M400.953 343.031V349.23M400.953 385.694V391.894M400.953 428.358V434.55M400.953 471.022V477.221M400.953 513.686V519.893M400.953 556.35V562.557M400.953 599.014V605.206M400.953 641.685V647.877M400.953 684.349V690.504M440.671 -83.6602V-77.4609M440.671 -40.9963V-34.7897M440.671 1.66764V7.85948M440.671 44.3389V50.5824M440.671 87.0545V93.2463M440.671 129.704V135.91M440.671 172.375V178.574M440.671 215.039V221.231M440.671 257.71V263.895M440.671 300.359V306.566M440.671 343.031V349.23M440.671 385.694V391.894M440.671 428.358V434.55M440.671 471.022V477.221M440.671 513.686V519.893M440.671 556.35V562.557M440.671 599.014V605.206M440.671 641.685V647.877M440.671 684.349V690.504M480.436 -83.6085V-77.4093M480.436 -40.9446V-34.738M480.436 1.71931V7.91115M480.436 44.3906V50.5824V44.3832M480.436 87.0545V93.2463M480.436 129.704V135.91V129.711M480.436 172.375V178.574M480.436 215.039V221.231M480.436 257.71V263.895M480.436 300.359V306.566M480.436 343.031V349.23V343.023M480.436 385.709V391.908M480.436 428.373V434.565M480.436 471.037V477.221M480.436 513.686V519.893M480.436 556.35V562.557M480.436 599.014V605.206M480.436 641.685V647.877M480.436 684.349V690.504V684.32M520.154 -83.6602V-77.4609M520.154 -40.9963V-34.7897M520.154 1.66764V7.85948M520.154 44.3389V50.5824M520.154 87.0545V93.2463M520.154 129.704V135.91M520.154 172.375V178.574M520.154 215.039V221.231M520.154 257.71V263.895M520.154 300.359V306.566M520.154 343.031V349.23M520.154 385.694V391.894M520.154 428.358V434.55M520.154 471.022V477.221V470.971M520.154 513.686V519.893M520.154 556.35V562.557M520.154 599.014V605.206V599.021M520.154 641.685V647.877M520.154 684.349V690.504M559.871 -83.6602V-77.4609M559.871 -40.9963V-34.7897M559.871 1.66764V7.85948M559.871 44.3389V50.5824M559.871 87.0545V93.2463M559.871 129.704V135.91M559.871 172.375V178.574M559.871 215.039V221.231M559.871 257.71V263.895M559.871 300.359V306.566M559.871 343.031V349.23M559.871 385.694V391.894M559.871 428.358V434.55M559.871 471.022V477.221V470.971M559.871 513.686V519.893M559.871 556.35V562.557M559.871 599.014V605.206V599.021M559.871 641.685V647.877M559.871 684.349V690.504M361.264 684.342V690.504M400.981 -83.6602V-77.4609M400.981 -40.9963V-34.7897M400.981 1.66764V7.85948M400.981 44.3315V50.5308M400.981 87.0028V93.1947M400.981 129.659V135.859M400.981 172.323V178.522M400.981 214.987V221.179M400.981 257.658V263.843M400.981 300.308V306.514M400.981 342.971V349.178M400.981 385.643V391.842M400.981 428.307V434.498M400.981 470.971V477.221M400.981 513.686V519.893M400.981 556.35V562.557M400.981 599.021V605.206M400.981 641.685V647.877M400.981 684.349V690.504M440.698 -83.6602V-77.4609M440.698 -40.9963V-34.7897M440.698 1.66764V7.85948M440.698 44.3315V50.5308M440.698 87.0028V93.1947M440.698 129.659V135.859M440.698 172.323V178.522M440.698 214.987V221.179M440.698 257.658V263.843M440.698 300.308V306.514M440.698 342.971V349.178M440.698 385.643V391.842M440.698 428.307V434.498M440.698 470.971V477.221M440.698 513.686V519.893M440.698 556.35V562.557M440.698 599.021V605.206M440.698 641.685V647.877M440.698 684.349V690.504M480.436 598.992V605.176M480.436 641.656V647.848M520.154 44.3315V50.5308M520.154 87.0028V93.1947M520.154 129.659V135.859M520.154 172.323V178.522M520.154 214.987V221.179M520.154 257.658V263.843M520.154 300.308V306.514M520.154 342.971V349.178M520.154 385.643V391.842M520.154 428.307V434.498M559.871 44.3315V50.5308M559.871 87.0028V93.1947M559.871 129.659V135.859M559.871 172.323V178.522M559.871 214.987V221.179M559.871 257.658V263.843M559.871 300.308V306.514M559.871 342.971V349.178M559.871 385.643V391.842M559.871 428.307V434.498M205.266 -80.5015H199.489M205.252 -37.8523H199.489M205.252 4.81894H199.489M205.266 47.4828H199.489M205.252 90.1467H199.489M205.252 132.818H199.489M205.252 175.467H199.489M205.252 218.131H199.489M205.252 260.802H199.489M205.252 303.466H199.489M205.252 346.123H199.489M205.252 388.787H199.489M205.266 431.465H199.489M205.252 474.137H199.489M205.252 516.8H199.489M205.252 559.457H199.489M205.252 602.121H199.489M205.266 644.748H199.489M205.252 687.412H199.489M244.983 -80.5015H239.22M244.983 -37.8523H239.22M244.983 4.81894H239.22M244.983 47.4828H239.22M244.983 90.1467H239.22M244.983 132.818H239.22M244.983 175.467H239.22M244.983 218.131H239.22M244.983 260.802H239.22M244.983 303.466H239.22M244.983 346.123H239.22M244.983 388.787H239.22M244.983 431.465H239.22M244.983 474.137H239.22M244.983 516.8H239.22M244.983 559.457H239.22M244.983 602.121H239.22M244.983 644.748H239.22M244.983 687.412H239.22M284.707 -80.5015H278.937M284.707 -37.8523H278.937M284.707 4.81894H278.937M284.707 47.4828H278.937M284.707 90.1467H278.937M284.707 132.818H278.937M284.707 175.467H278.937M284.707 218.131H278.937M284.707 260.802H278.937M284.707 303.466H278.937M284.707 346.123H278.937M284.707 388.787H278.937M284.707 431.451H278.937M284.707 474.122H278.937M284.707 516.786H278.937M284.707 559.442H278.937M284.707 602.106H278.937M284.707 644.77H278.937M284.707 687.434H278.937M324.424 -80.5015H318.654M324.424 -37.8523H318.654M324.424 4.81894H318.654M324.424 47.4828H318.654M324.424 90.1467H318.654M324.424 132.818H318.654M324.424 175.467H318.654M324.424 218.131H318.654M324.424 260.802H318.654M324.424 303.466H318.654M324.424 346.123H318.654M324.424 388.787H318.654M324.424 431.451H318.654M324.424 474.122H318.654M324.424 516.786H318.654M324.424 559.442H318.654M324.424 602.106H318.654M324.424 644.77H318.654M324.424 687.434H318.654M364.149 -80.5015H358.379M364.149 -37.8523H358.379M364.149 4.81894H358.379M364.149 47.4828H358.379M364.149 90.1467H358.379M364.149 132.818H358.379M364.149 175.467H358.379M364.149 218.131H358.379M364.149 260.802H358.379M364.149 303.466H358.379M364.149 346.123H358.379M364.149 388.787H358.379M364.149 431.451H358.379M364.149 474.122H358.379M364.149 516.786H358.379M364.149 559.442H358.379M364.149 602.106H358.379M364.149 644.77H358.379M364.149 687.434H358.379M403.866 -80.5015H398.096M403.866 -37.8523H398.096M403.866 4.81894H398.096M403.866 47.4828H398.096M403.866 90.1467H398.096M403.866 132.818H398.096M403.866 175.467H398.096M403.866 218.131H398.096M403.866 260.802H398.096M403.866 303.466H398.096M403.866 346.123H398.096M403.866 388.787H398.096M403.866 431.451H398.096M403.866 474.122H398.096M403.866 516.786H398.096M403.866 559.442H398.096M403.866 602.106H398.096M403.866 644.77H398.096M403.866 687.434H398.096M443.583 -80.5015H437.848M443.618 -37.8523H437.848M443.618 4.81894H437.848M443.618 47.4828H437.848M443.618 90.1467H437.848M443.618 132.818H437.848M443.618 175.467H437.848M443.618 218.131H437.848M443.618 260.802H437.848M443.618 303.466H437.848M443.618 346.123H437.848M443.618 388.787H437.848M443.618 431.451H437.848M443.618 474.122H437.848M443.618 516.786H437.848M443.618 559.442H437.848M443.618 602.106H437.848M443.618 644.77H437.848M443.618 687.434H437.848M483.307 -80.5015H477.537M483.307 -37.8523H477.537M483.307 4.81894H477.537M483.307 47.4828H477.537M483.307 90.1467H477.537M483.307 132.818H477.537M483.307 175.467H477.537M483.307 218.131H477.537M483.307 260.802H477.537M483.307 303.466H477.537M483.307 346.123H477.537M483.307 388.787H477.537M483.307 431.451H477.537M483.307 474.122H477.537M483.307 516.786H477.537M483.307 559.442H477.537M483.307 602.106H477.537M483.307 644.77H477.537M483.307 687.434H477.537M523.025 -80.5015H517.255M523.025 -37.8523H517.255M523.025 4.81894H517.255M523.025 47.4828H517.255M523.025 90.1467H517.255M523.025 132.818H517.255M523.025 175.467H517.255M523.025 218.131H517.255M523.025 260.802H517.255M523.025 303.466H517.255M523.025 346.123H517.255M523.025 388.787H517.255M523.025 431.465H517.255M523.025 474.122H517.255M523.025 516.786H517.255M523.025 559.442H517.255M523.025 602.106H517.255M523.025 644.748H517.255M523.025 687.412H517.255M562.742 -80.5015H556.972M562.742 -37.8523H556.972M562.742 4.81894H556.972M562.742 47.4828H556.972M562.742 90.1467H556.972M562.742 132.818H556.972M562.742 175.467H556.972M562.742 218.131H556.972M562.742 260.802H556.972M562.742 303.466H556.972M562.742 346.123H556.972M562.742 388.787H556.972M562.742 431.451H556.972M562.742 474.122H556.972M562.742 516.786H556.972M562.742 559.442H556.972M562.742 602.106H556.972M562.742 644.77H556.972M562.742 687.434H556.972" stroke="#939598" stroke-width="0.83"/>
</g>
<defs>
<clipPath id="clip0_81_74">
<rect width="108" height="291" fill="white" transform="translate(0.25)"/>
</clipPath>
</defs>
</svg>
