<svg width="357" height="569" viewBox="0 0 357 569" fill="none" xmlns="http://www.w3.org/2000/svg">
<g clip-path="url(#clip0_60_261)">
<path d="M-673.367 1366.44V1377.78M-673.367 1444.55V1455.84V1444.57M-600.653 38.505V49.8544M-600.653 116.614V127.977M-600.653 194.722V206.058M-600.653 272.844V284.275M-600.653 351.047V362.383M-600.653 429.129V440.492M-600.653 507.251V518.6M-600.653 585.359V596.695M-600.653 663.481V674.804M-600.653 741.563V752.926M-600.653 819.685V831.034V819.672M-600.653 897.793V909.143M-600.653 975.902V987.238M-600.653 1054.01V1065.36M-600.653 1132.12V1143.48M-600.653 1210.23V1221.59M-600.653 1288.34V1299.67M-600.653 1366.46V1377.79M-600.653 1444.57V1455.84M-527.976 38.5996V49.949M-527.976 116.708V128.071M-527.976 194.817V206.153M-527.976 272.939V284.275M-527.976 351.047V362.383M-527.976 429.129V440.492M-527.976 507.251V518.6M-527.976 585.359V596.695M-527.976 663.481V674.804M-527.976 741.563V752.926M-527.976 819.685V831.034V819.672M-527.976 897.821V909.17M-527.976 975.929V987.265M-527.976 1054.04V1065.36M-527.976 1132.12V1143.48M-527.976 1210.23V1221.59M-527.976 1288.34V1299.67M-527.976 1366.46V1377.79M-527.976 1444.57V1455.84M-455.262 38.505V49.8544M-455.262 116.614V127.977M-455.262 194.722V206.058M-455.262 272.844V284.275M-455.262 351.047V362.383M-455.262 429.129V440.492M-455.262 507.251V518.6M-455.262 585.359V596.695M-455.262 663.481V674.804M-455.262 741.563V752.926M-455.262 819.685V831.034V819.672M-455.262 897.793V909.143M-455.262 975.902V987.238M-455.262 1054.01V1065.36M-455.262 1132.12V1143.48M-455.262 1210.23V1221.59M-455.262 1288.34V1299.67M-455.262 1366.46V1377.79M-455.262 1444.57V1455.84M-382.548 38.505V49.8544M-382.548 116.614V127.977M-382.548 194.722V206.058M-382.548 272.844V284.275M-382.548 351.047V362.383M-382.548 429.129V440.492M-382.548 507.251V518.6M-382.548 585.359V596.695M-382.548 663.481V674.804M-382.548 741.563V752.926M-382.548 819.685V831.034V819.672M-382.548 897.793V909.143M-382.548 975.902V987.238M-382.548 1054.01V1065.36M-382.548 1132.12V1143.48M-382.548 1210.23V1221.59M-382.548 1288.34V1299.67M-382.548 1366.46V1377.79M-382.548 1444.57V1455.84M-309.822 38.505V49.8544M-309.822 116.614V127.977M-309.822 194.722V206.058M-309.822 272.844V284.275M-309.822 351.047V362.383M-309.822 429.129V440.492M-309.822 507.251V518.6M-309.822 585.359V596.695M-309.822 663.481V674.804M-309.822 741.563V752.926M-309.822 819.685V831.034V819.672M-309.822 897.793V909.143M-309.822 975.902V987.238M-309.822 1054.01V1065.36M-309.822 1132.12V1143.48M-309.822 1210.23V1221.59M-309.822 1288.34V1299.67M-309.822 1366.46V1377.79M-309.822 1444.57V1455.84M-237.108 38.505V49.8544M-237.108 116.614V127.977M-237.108 194.722V206.058M-237.108 272.844V284.275M-237.108 351.047V362.383M-237.108 429.129V440.492M-237.108 507.251V518.6M-237.108 585.359V596.695M-237.108 663.481V674.804M-237.108 741.563V752.926M-237.108 819.685V831.034M-237.108 897.793V909.143M-237.108 975.902V987.238M-237.108 1054.01V1065.36M-237.108 1132.12V1143.48M-237.108 1210.23V1221.59M-237.108 1288.34V1299.67M-237.108 1366.46V1377.79M-237.108 1444.57V1455.84M-164.394 38.505V49.8544M-164.394 116.614V127.977M-164.394 194.722V206.058M-164.394 272.844V284.275M-164.394 351.047V362.383M-164.394 429.129V440.492M-164.394 507.251V518.6M-164.394 585.359V596.695M-164.394 663.481V674.804M-164.394 741.563V752.926M-164.394 819.685V831.034M-164.394 897.793V909.143M-164.394 975.902V987.238M-164.394 1054.01V1065.36M-164.394 1132.12V1143.48M-164.394 1210.23V1221.59M-164.394 1288.34V1299.67M-164.394 1366.46V1377.79M-164.394 1444.57V1455.84M-91.5917 38.5996V49.949M-91.5917 116.708V128.071M-91.5917 194.817V206.153M-91.5917 272.939V284.275V272.925M-91.5917 351.047V362.383M-91.5917 429.129V440.492V429.142M-91.5917 507.251V518.6M-91.5917 585.359V596.695M-91.5917 663.481V674.804M-91.5917 741.563V752.926M-91.5917 819.685V831.034V819.672M-91.5917 897.821V909.17M-91.5917 975.929V987.265M-91.5917 1054.04V1065.36M-91.5917 1132.12V1143.48M-91.5917 1210.23V1221.59M-91.5917 1288.34V1299.67M-91.5917 1366.46V1377.79M-91.5917 1444.57V1455.84V1444.51M-18.8777 38.505V49.8544M-18.8777 116.614V127.977M-18.8777 194.722V206.058M-18.8777 272.844V284.275M-18.8777 351.047V362.383M-18.8777 429.129V440.492M-18.8777 507.251V518.6M-18.8777 585.359V596.695M-18.8777 663.481V674.804M-18.8777 741.563V752.926M-18.8777 819.685V831.034M-18.8777 897.793V909.143M-18.8777 975.902V987.238M-18.8777 1054.01V1065.36V1053.92M-18.8777 1132.12V1143.48M-18.8777 1210.23V1221.59M-18.8777 1288.34V1299.67V1288.35M-18.8777 1366.46V1377.79M-18.8777 1444.57V1455.84M53.8363 38.505V49.8544M53.8363 116.614V127.977M53.8363 194.722V206.058M53.8363 272.844V284.275M53.8363 351.047V362.383M53.8363 429.129V440.492M53.8363 507.251V518.6M53.8363 585.359V596.695M53.8363 663.481V674.804M53.8363 741.563V752.926M53.8363 819.685V831.034M53.8363 897.793V909.143M53.8363 975.902V987.238M53.8363 1054.01V1065.36V1053.92M53.8363 1132.12V1143.48M53.8363 1210.23V1221.59M53.8363 1288.34V1299.67V1288.35M53.8363 1366.46V1377.79M53.8363 1444.57V1455.84M-673.367 38.5996V49.949M-673.367 116.708V128.071M-673.367 194.817V206.153M-673.367 272.939V284.275M-673.367 351.047V362.383M-673.367 429.129V440.492M-673.367 507.251V518.6M-673.367 585.359V596.695M-673.367 663.481V674.804M-673.367 741.563V752.926M-673.367 819.672V831.034M-673.367 897.793V909.143M-673.367 975.902V987.238M-673.367 1054.01V1065.36M-673.367 1132.12V1143.48M-673.367 1210.23V1221.59M-673.367 1288.34V1299.67M-673.367 1366.46V1377.79M-309.771 1444.55V1455.84M-237.057 38.505V49.8544M-237.057 116.614V127.977M-237.057 194.722V206.058M-237.057 272.831V284.18M-237.057 350.953V362.289M-237.057 429.048V440.397M-237.057 507.156V518.506M-237.057 585.265V596.601M-237.057 663.387V674.709M-237.057 741.468V752.831M-237.057 819.577V830.94M-237.057 897.699V909.048M-237.057 975.807V987.143M-237.057 1053.92V1065.36M-237.057 1132.12V1143.48M-237.057 1210.23V1221.59M-237.057 1288.35V1299.67M-237.057 1366.46V1377.79M-237.057 1444.57V1455.84M-164.343 38.505V49.8544M-164.343 116.614V127.977M-164.343 194.722V206.058M-164.343 272.831V284.18M-164.343 350.953V362.289M-164.343 429.048V440.397M-164.343 507.156V518.506M-164.343 585.265V596.601M-164.343 663.387V674.709M-164.343 741.468V752.831M-164.343 819.577V830.94M-164.343 897.699V909.048M-164.343 975.807V987.143M-164.343 1053.92V1065.36M-164.343 1132.12V1143.48M-164.343 1210.23V1221.59M-164.343 1288.35V1299.67M-164.343 1366.46V1377.79M-164.343 1444.57V1455.84M-91.5917 1288.3V1299.62M-91.5917 1366.4V1377.74M-18.8777 272.831V284.18M-18.8777 350.953V362.289M-18.8777 429.048V440.397M-18.8777 507.156V518.506M-18.8777 585.265V596.601M-18.8777 663.387V674.709M-18.8777 741.468V752.831M-18.8777 819.577V830.94M-18.8777 897.699V909.048M-18.8777 975.807V987.143M53.8363 272.831V284.18M53.8363 350.953V362.289M53.8363 429.048V440.397M53.8363 507.156V518.506M53.8363 585.265V596.601M53.8363 663.387V674.709M53.8363 741.468V752.831M53.8363 819.577V830.94M53.8363 897.699V909.048M53.8363 975.807V987.143M-668.085 44.2878H-678.648M-668.085 122.369H-678.648M-668.085 200.491H-678.648M-668.085 278.6H-678.648M-668.085 356.708H-678.648M-668.085 434.831H-678.648M-668.085 512.912H-678.648M-668.085 591.021H-678.648M-668.085 669.143H-678.648M-668.085 747.251H-678.648M-668.085 825.346H-678.648M-668.085 903.455H-678.648M-668.085 981.59H-678.648M-668.085 1059.71H-678.648M-668.085 1137.82H-678.648M-668.085 1215.92H-678.648M-668.085 1294.02H-678.648M-668.085 1372.07H-678.648M-668.085 1450.17H-678.648M-595.371 44.2879H-605.947M-595.396 122.369H-605.947M-595.396 200.491H-605.947M-595.371 278.6H-605.947M-595.396 356.709H-605.947M-595.396 434.831H-605.947M-595.396 512.912H-605.947M-595.396 591.021H-605.947M-595.396 669.143H-605.947M-595.396 747.251H-605.947M-595.396 825.346H-605.947M-595.396 903.455H-605.947M-595.371 981.59H-605.947M-595.396 1059.71H-605.947M-595.396 1137.82H-605.947M-595.396 1215.92H-605.947M-595.396 1294.02H-605.947M-595.371 1372.07H-605.947M-595.396 1450.17H-605.947M-522.657 44.2879H-533.208M-522.657 122.369H-533.208M-522.657 200.491H-533.208M-522.657 278.6H-533.208M-522.657 356.709H-533.208M-522.657 434.831H-533.208M-522.657 512.912H-533.208M-522.657 591.021H-533.208M-522.657 669.143H-533.208M-522.657 747.251H-533.208M-522.657 825.346H-533.208M-522.657 903.455H-533.208M-522.657 981.59H-533.208M-522.657 1059.71H-533.208M-522.657 1137.82H-533.208M-522.657 1215.92H-533.208M-522.657 1294.02H-533.208M-522.657 1372.07H-533.208M-522.657 1450.17H-533.208M-449.93 44.2879H-460.494M-449.93 122.369H-460.494M-449.93 200.491H-460.494M-449.93 278.6H-460.494M-449.93 356.709H-460.494M-449.93 434.831H-460.494M-449.93 512.912H-460.494M-449.93 591.021H-460.494M-449.93 669.143H-460.494M-449.93 747.251H-460.494M-449.93 825.346H-460.494M-449.93 903.455H-460.494M-449.93 981.563H-460.494M-449.93 1059.69H-460.494M-449.93 1137.79H-460.494M-449.93 1215.89H-460.494M-449.93 1294H-460.494M-449.93 1372.11H-460.494M-449.93 1450.21H-460.494M-377.216 44.2879H-387.78M-377.216 122.369H-387.78M-377.216 200.491H-387.78M-377.216 278.6H-387.78M-377.216 356.709H-387.78M-377.216 434.831H-387.78M-377.216 512.912H-387.78M-377.216 591.021H-387.78M-377.216 669.143H-387.78M-377.216 747.251H-387.78M-377.216 825.346H-387.78M-377.216 903.455H-387.78M-377.216 981.563H-387.78M-377.216 1059.69H-387.78M-377.216 1137.79H-387.78M-377.216 1215.89H-387.78M-377.216 1294H-387.78M-377.216 1372.11H-387.78M-377.216 1450.21H-387.78M-304.49 44.2879H-315.053M-304.49 122.369H-315.053M-304.49 200.491H-315.053M-304.49 278.6H-315.053M-304.49 356.709H-315.053M-304.49 434.831H-315.053M-304.49 512.912H-315.053M-304.49 591.021H-315.053M-304.49 669.143H-315.053M-304.49 747.251H-315.053M-304.49 825.346H-315.053M-304.49 903.455H-315.053M-304.49 981.563H-315.053M-304.49 1059.69H-315.053M-304.49 1137.79H-315.053M-304.49 1215.89H-315.053M-304.49 1294H-315.053M-304.49 1372.11H-315.053M-304.49 1450.21H-315.053M-231.776 44.2879H-242.339M-231.776 122.369H-242.339M-231.776 200.491H-242.339M-231.776 278.6H-242.339M-231.776 356.709H-242.339M-231.776 434.831H-242.339M-231.776 512.912H-242.339M-231.776 591.021H-242.339M-231.776 669.143H-242.339M-231.776 747.251H-242.339M-231.776 825.346H-242.339M-231.776 903.455H-242.339M-231.776 981.563H-242.339M-231.776 1059.69H-242.339M-231.776 1137.79H-242.339M-231.776 1215.89H-242.339M-231.776 1294H-242.339M-231.776 1372.11H-242.339M-231.776 1450.21H-242.339M-159.062 44.2879H-169.562M-158.999 122.369H-169.562M-158.999 200.491H-169.562M-158.999 278.6H-169.562M-158.999 356.709H-169.562M-158.999 434.831H-169.562M-158.999 512.912H-169.562M-158.999 591.021H-169.562M-158.999 669.143H-169.562M-158.999 747.251H-169.562M-158.999 825.346H-169.562M-158.999 903.455H-169.562M-158.999 981.563H-169.562M-158.999 1059.69H-169.562M-158.999 1137.79H-169.562M-158.999 1215.89H-169.562M-158.999 1294H-169.562M-158.999 1372.11H-169.562M-158.999 1450.21H-169.562M-86.335 44.2879H-96.8988M-86.335 122.369H-96.8988M-86.335 200.491H-96.8988M-86.335 278.6H-96.8988M-86.335 356.709H-96.8988M-86.335 434.831H-96.8988M-86.335 512.912H-96.8988M-86.335 591.021H-96.8988M-86.335 669.143H-96.8988M-86.335 747.251H-96.8988M-86.335 825.346H-96.8988M-86.335 903.455H-96.8988M-86.335 981.563H-96.8988M-86.335 1059.69H-96.8988M-86.335 1137.79H-96.8988M-86.335 1215.89H-96.8988M-86.335 1294H-96.8988M-86.335 1372.11H-96.8988M-86.335 1450.21H-96.8988M-13.621 44.2879H-24.1848M-13.621 122.369H-24.1848M-13.621 200.491H-24.1848M-13.621 278.6H-24.1848M-13.621 356.709H-24.1848M-13.621 434.831H-24.1848M-13.621 512.912H-24.1848M-13.621 591.021H-24.1848M-13.621 669.143H-24.1848M-13.621 747.251H-24.1848M-13.621 825.346H-24.1848M-13.621 903.455H-24.1848M-13.621 981.59H-24.1848M-13.621 1059.69H-24.1848M-13.621 1137.79H-24.1848M-13.621 1215.89H-24.1848M-13.621 1294H-24.1848M-13.621 1372.07H-24.1848M-13.621 1450.17H-24.1848M59.093 44.2879H48.5292M59.093 122.369H48.5292M59.093 200.491H48.5292M59.093 278.6H48.5292M59.093 356.709H48.5292M59.093 434.831H48.5292M59.093 512.912H48.5292M59.093 591.021H48.5292M59.093 669.143H48.5292M59.093 747.251H48.5292M59.093 825.346H48.5292M59.093 903.455H48.5292M59.093 981.563H48.5292M59.093 1059.69H48.5292M59.093 1137.79H48.5292M59.093 1215.89H48.5292M59.093 1294H48.5292M59.093 1372.11H48.5292M59.093 1450.21H48.5292M126.236 38.505V49.8544M126.236 116.614V127.977M126.236 194.722V206.058M126.236 272.844V284.275M126.236 351.047V362.383M126.236 429.129V440.492M126.236 507.251V518.6M126.236 585.359V596.695M126.236 663.481V674.804M126.236 741.563V752.926M126.236 819.685V831.034V819.672M126.236 897.793V909.143M126.236 975.902V987.238M126.236 1054.01V1065.36M126.236 1132.12V1143.48M126.236 1210.23V1221.59M126.236 1288.34V1299.67M126.236 1366.46V1377.79M126.236 1444.57V1455.84M198.912 38.5996V49.949M198.912 116.708V128.071M198.912 194.817V206.153M198.912 272.939V284.275M198.912 351.047V362.383M198.912 429.129V440.492M198.912 507.251V518.6M198.912 585.359V596.695M198.912 663.481V674.804M198.912 741.563V752.926M198.912 819.685V831.034V819.672M198.912 897.821V909.17M198.912 975.929V987.265M198.912 1054.04V1065.36M198.912 1132.12V1143.48M198.912 1210.23V1221.59M198.912 1288.34V1299.67M198.912 1366.46V1377.79M198.912 1444.57V1455.84M271.626 38.505V49.8544M271.626 116.614V127.977M271.626 194.722V206.058M271.626 272.844V284.275M271.626 351.047V362.383M271.626 429.129V440.492M271.626 507.251V518.6M271.626 585.359V596.695M271.626 663.481V674.804M271.626 741.563V752.926M271.626 819.685V831.034V819.672M271.626 897.793V909.143M271.626 975.902V987.238M271.626 1054.01V1065.36M271.626 1132.12V1143.48M271.626 1210.23V1221.59M271.626 1288.34V1299.67M271.626 1366.46V1377.79M271.626 1444.57V1455.84M344.34 38.505V49.8544M344.34 116.614V127.977M344.34 194.722V206.058M344.34 272.844V284.275M344.34 351.047V362.383M344.34 429.129V440.492M344.34 507.251V518.6M344.34 585.359V596.695M344.34 663.481V674.804M344.34 741.563V752.926M344.34 819.685V831.034V819.672M344.34 897.793V909.143M344.34 975.902V987.238M344.34 1054.01V1065.36M344.34 1132.12V1143.48M344.34 1210.23V1221.59M344.34 1288.34V1299.67M344.34 1366.46V1377.79M344.34 1444.57V1455.84M417.067 38.505V49.8544M417.067 116.614V127.977M417.067 194.722V206.058M417.067 272.844V284.275M417.067 351.047V362.383M417.067 429.129V440.492M417.067 507.251V518.6M417.067 585.359V596.695M417.067 663.481V674.804M417.067 741.563V752.926M417.067 819.685V831.034V819.672M417.067 897.793V909.143M417.067 975.902V987.238M417.067 1054.01V1065.36M417.067 1132.12V1143.48M417.067 1210.23V1221.59M417.067 1288.34V1299.67M417.067 1366.46V1377.79M417.067 1444.57V1455.84M489.781 38.505V49.8544M489.781 116.614V127.977M489.781 194.722V206.058M489.781 272.844V284.275M489.781 351.047V362.383M489.781 429.129V440.492M489.781 507.251V518.6M489.781 585.359V596.695M489.781 663.481V674.804M489.781 741.563V752.926M489.781 819.685V831.034M489.781 897.793V909.143M489.781 975.902V987.238M489.781 1054.01V1065.36M489.781 1132.12V1143.48M489.781 1210.23V1221.59M489.781 1288.34V1299.67M489.781 1366.46V1377.79M489.781 1444.57V1455.84M562.495 38.505V49.8544M562.495 116.614V127.977M562.495 194.722V206.058M562.495 272.844V284.275M562.495 351.047V362.383M562.495 429.129V440.492M562.495 507.251V518.6M562.495 585.359V596.695M562.495 663.481V674.804M562.495 741.563V752.926M562.495 819.685V831.034M562.495 897.793V909.143M562.495 975.902V987.238M562.495 1054.01V1065.36M562.495 1132.12V1143.48M562.495 1210.23V1221.59M562.495 1288.34V1299.67M562.495 1366.46V1377.79M562.495 1444.57V1455.84M635.297 38.5996V49.949M635.297 116.708V128.071M635.297 194.817V206.153M635.297 272.939V284.275V272.925M635.297 351.047V362.383M635.297 429.129V440.492V429.142M635.297 507.251V518.6M635.297 585.359V596.695M635.297 663.481V674.804M635.297 741.563V752.926M635.297 819.685V831.034V819.672M635.297 897.821V909.17M635.297 975.929V987.265M635.297 1054.04V1065.36M635.297 1132.12V1143.48M635.297 1210.23V1221.59M635.297 1288.34V1299.67M635.297 1366.46V1377.79M635.297 1444.57V1455.84V1444.51M708.011 38.505V49.8544M708.011 116.614V127.977M708.011 194.722V206.058M708.011 272.844V284.275M708.011 351.047V362.383M708.011 429.129V440.492M708.011 507.251V518.6M708.011 585.359V596.695M708.011 663.481V674.804M708.011 741.563V752.926M708.011 819.685V831.034M708.011 897.793V909.143M708.011 975.902V987.238M708.011 1054.01V1065.36V1053.92M708.011 1132.12V1143.48M708.011 1210.23V1221.59M708.011 1288.34V1299.67V1288.35M708.011 1366.46V1377.79M708.011 1444.57V1455.84M780.725 38.505V49.8544M780.725 116.614V127.977M780.725 194.722V206.058M780.725 272.844V284.275M780.725 351.047V362.383M780.725 429.129V440.492M780.725 507.251V518.6M780.725 585.359V596.695M780.725 663.481V674.804M780.725 741.563V752.926M780.725 819.685V831.034M780.725 897.793V909.143M780.725 975.902V987.238M780.725 1054.01V1065.36V1053.92M780.725 1132.12V1143.48M780.725 1210.23V1221.59M780.725 1288.34V1299.67V1288.35M780.725 1366.46V1377.79M780.725 1444.57V1455.84M417.117 1444.55V1455.84M489.831 38.505V49.8544M489.831 116.614V127.977M489.831 194.722V206.058M489.831 272.831V284.18M489.831 350.953V362.289M489.831 429.048V440.397M489.831 507.156V518.506M489.831 585.265V596.601M489.831 663.387V674.709M489.831 741.468V752.831M489.831 819.577V830.94M489.831 897.699V909.048M489.831 975.807V987.143M489.831 1053.92V1065.36M489.831 1132.12V1143.48M489.831 1210.23V1221.59M489.831 1288.35V1299.67M489.831 1366.46V1377.79M489.831 1444.57V1455.84M562.545 38.505V49.8544M562.545 116.614V127.977M562.545 194.722V206.058M562.545 272.831V284.18M562.545 350.953V362.289M562.545 429.048V440.397M562.545 507.156V518.506M562.545 585.265V596.601M562.545 663.387V674.709M562.545 741.468V752.831M562.545 819.577V830.94M562.545 897.699V909.048M562.545 975.807V987.143M562.545 1053.92V1065.36M562.545 1132.12V1143.48M562.545 1210.23V1221.59M562.545 1288.35V1299.67M562.545 1366.46V1377.79M562.545 1444.57V1455.84M635.297 1288.3V1299.62M635.297 1366.4V1377.74M708.011 272.831V284.18M708.011 350.953V362.289M708.011 429.048V440.397M708.011 507.156V518.506M708.011 585.265V596.601M708.011 663.387V674.709M708.011 741.468V752.831M708.011 819.577V830.94M708.011 897.699V909.048M708.011 975.807V987.143M780.725 272.831V284.18M780.725 350.953V362.289M780.725 429.048V440.397M780.725 507.156V518.506M780.725 585.265V596.601M780.725 663.387V674.709M780.725 741.468V752.831M780.725 819.577V830.94M780.725 897.699V909.048M780.725 975.807V987.143M131.518 44.2879H120.941M131.493 122.369H120.941M131.493 200.491H120.941M131.518 278.6H120.941M131.493 356.709H120.941M131.493 434.831H120.941M131.493 512.912H120.941M131.493 591.021H120.941M131.493 669.143H120.941M131.493 747.251H120.941M131.493 825.346H120.941M131.493 903.455H120.941M131.518 981.59H120.941M131.493 1059.71H120.941M131.493 1137.82H120.941M131.493 1215.92H120.941M131.493 1294.02H120.941M131.518 1372.07H120.941M131.493 1450.17H120.941M204.232 44.2879H193.681M204.232 122.369H193.681M204.232 200.491H193.681M204.232 278.6H193.681M204.232 356.709H193.681M204.232 434.831H193.681M204.232 512.912H193.681M204.232 591.021H193.681M204.232 669.143H193.681M204.232 747.251H193.681M204.232 825.346H193.681M204.232 903.455H193.681M204.232 981.59H193.681M204.232 1059.71H193.681M204.232 1137.82H193.681M204.232 1215.92H193.681M204.232 1294.02H193.681M204.232 1372.07H193.681M204.232 1450.17H193.681M276.958 44.2879H266.395M276.958 122.369H266.395M276.958 200.491H266.395M276.958 278.6H266.395M276.958 356.709H266.395M276.958 434.831H266.395M276.958 512.912H266.395M276.958 591.021H266.395M276.958 669.143H266.395M276.958 747.251H266.395M276.958 825.346H266.395M276.958 903.455H266.395M276.958 981.563H266.395M276.958 1059.69H266.395M276.958 1137.79H266.395M276.958 1215.89H266.395M276.958 1294H266.395M276.958 1372.11H266.395M276.958 1450.21H266.395M349.672 44.2879H339.109M349.672 122.369H339.109M349.672 200.491H339.109M349.672 278.6H339.109M349.672 356.709H339.109M349.672 434.831H339.109M349.672 512.912H339.109M349.672 591.021H339.109M349.672 669.143H339.109M349.672 747.251H339.109M349.672 825.346H339.109M349.672 903.455H339.109M349.672 981.563H339.109M349.672 1059.69H339.109M349.672 1137.79H339.109M349.672 1215.89H339.109M349.672 1294H339.109M349.672 1372.11H339.109M349.672 1450.21H339.109M422.399 44.2879H411.835M422.399 122.369H411.835M422.399 200.491H411.835M422.399 278.6H411.835M422.399 356.709H411.835M422.399 434.831H411.835M422.399 512.912H411.835M422.399 591.021H411.835M422.399 669.143H411.835M422.399 747.251H411.835M422.399 825.346H411.835M422.399 903.455H411.835M422.399 981.563H411.835M422.399 1059.69H411.835M422.399 1137.79H411.835M422.399 1215.89H411.835M422.399 1294H411.835M422.399 1372.11H411.835M422.399 1450.21H411.835M495.113 44.2879H484.549M495.113 122.369H484.549M495.113 200.491H484.549M495.113 278.6H484.549M495.113 356.709H484.549M495.113 434.831H484.549M495.113 512.912H484.549M495.113 591.021H484.549M495.113 669.143H484.549M495.113 747.251H484.549M495.113 825.346H484.549M495.113 903.455H484.549M495.113 981.563H484.549M495.113 1059.69H484.549M495.113 1137.79H484.549M495.113 1215.89H484.549M495.113 1294H484.549M495.113 1372.11H484.549M495.113 1450.21H484.549M567.827 44.2879H557.326M567.89 122.369H557.326M567.89 200.491H557.326M567.89 278.6H557.326M567.89 356.709H557.326M567.89 434.831H557.326M567.89 512.912H557.326M567.89 591.021H557.326M567.89 669.143H557.326M567.89 747.251H557.326M567.89 825.346H557.326M567.89 903.455H557.326M567.89 981.563H557.326M567.89 1059.69H557.326M567.89 1137.79H557.326M567.89 1215.89H557.326M567.89 1294H557.326M567.89 1372.11H557.326M567.89 1450.21H557.326M640.553 44.2879H629.99M640.553 122.369H629.99M640.553 200.491H629.99M640.553 278.6H629.99M640.553 356.709H629.99M640.553 434.831H629.99M640.553 512.912H629.99M640.553 591.021H629.99M640.553 669.143H629.99M640.553 747.251H629.99M640.553 825.346H629.99M640.553 903.455H629.99M640.553 981.563H629.99M640.553 1059.69H629.99M640.553 1137.79H629.99M640.553 1215.89H629.99M640.553 1294H629.99M640.553 1372.11H629.99M640.553 1450.21H629.99M713.268 44.2879H702.704M713.268 122.369H702.704M713.268 200.491H702.704M713.268 278.6H702.704M713.268 356.709H702.704M713.268 434.831H702.704M713.268 512.912H702.704M713.268 591.021H702.704M713.268 669.143H702.704M713.268 747.251H702.704M713.268 825.346H702.704M713.268 903.455H702.704M713.268 981.59H702.704M713.268 1059.69H702.704M713.268 1137.79H702.704M713.268 1215.89H702.704M713.268 1294H702.704M713.268 1372.07H702.704M713.268 1450.17H702.704M785.982 44.2879H775.418M785.982 122.369H775.418M785.982 200.491H775.418M785.982 278.6H775.418M785.982 356.709H775.418M785.982 434.831H775.418M785.982 512.912H775.418M785.982 591.021H775.418M785.982 669.143H775.418M785.982 747.251H775.418M785.982 825.346H775.418M785.982 903.455H775.418M785.982 981.563H775.418M785.982 1059.69H775.418M785.982 1137.79H775.418M785.982 1215.89H775.418M785.982 1294H775.418M785.982 1372.11H775.418M785.982 1450.21H775.418" stroke="#939598" stroke-width="0.83"/>
</g>
<defs>
<clipPath id="clip0_60_261">
<rect width="358" height="569" fill="white" transform="translate(-1)"/>
</clipPath>
</defs>
</svg>
