<svg width="357" height="545" viewBox="0 0 357 545" fill="none" xmlns="http://www.w3.org/2000/svg">
<g clip-path="url(#clip0_60_317)">
<path d="M-60.5365 1366.92V1378.26M-60.5365 1445.03V1456.31V1445.04M12.1775 38.9797V50.3292M12.1775 117.088V128.451M12.1775 195.197V206.533M12.1775 273.319V284.749M12.1775 351.522V362.858M12.1775 429.603V440.966M12.1775 507.726V519.075M12.1775 585.834V597.17M12.1775 663.956V675.279M12.1775 742.038V753.401M12.1775 820.16V831.509V820.146M12.1775 898.268V909.618M12.1775 976.377V987.713M12.1775 1054.49V1065.83M12.1775 1132.59V1143.96M12.1775 1210.7V1222.07M12.1775 1288.81V1300.15M12.1775 1366.93V1378.27M12.1775 1445.04V1456.31M84.8538 39.0743V50.4238M84.8538 117.183V128.546M84.8538 195.291V206.627M84.8538 273.413V284.749M84.8538 351.522V362.858M84.8538 429.603V440.966M84.8538 507.726V519.075M84.8538 585.834V597.17M84.8538 663.956V675.279M84.8538 742.038V753.401M84.8538 820.16V831.509V820.146M84.8538 898.295V909.645M84.8538 976.404V987.74M84.8538 1054.51V1065.83M84.8538 1132.59V1143.96M84.8538 1210.7V1222.07M84.8538 1288.81V1300.15M84.8538 1366.93V1378.27M84.8538 1445.04V1456.31M157.568 38.9797V50.3292M157.568 117.088V128.451M157.568 195.197V206.533M157.568 273.319V284.749M157.568 351.522V362.858M157.568 429.603V440.966M157.568 507.726V519.075M157.568 585.834V597.17M157.568 663.956V675.279M157.568 742.038V753.401M157.568 820.16V831.509V820.146M157.568 898.268V909.618M157.568 976.377V987.713M157.568 1054.49V1065.83M157.568 1132.59V1143.96M157.568 1210.7V1222.07M157.568 1288.81V1300.15M157.568 1366.93V1378.27M157.568 1445.04V1456.31M230.282 38.9797V50.3292M230.282 117.088V128.451M230.282 195.197V206.533M230.282 273.319V284.749M230.282 351.522V362.858M230.282 429.603V440.966M230.282 507.726V519.075M230.282 585.834V597.17M230.282 663.956V675.279M230.282 742.038V753.401M230.282 820.16V831.509V820.146M230.282 898.268V909.618M230.282 976.377V987.713M230.282 1054.49V1065.83M230.282 1132.59V1143.96M230.282 1210.7V1222.07M230.282 1288.81V1300.15M230.282 1366.93V1378.27M230.282 1445.04V1456.31M303.008 38.9797V50.3292M303.008 117.088V128.451M303.008 195.197V206.533M303.008 273.319V284.749M303.008 351.522V362.858M303.008 429.603V440.966M303.008 507.726V519.075M303.008 585.834V597.17M303.008 663.956V675.279M303.008 742.038V753.401M303.008 820.16V831.509V820.146M303.008 898.268V909.618M303.008 976.377V987.713M303.008 1054.49V1065.83M303.008 1132.59V1143.96M303.008 1210.7V1222.07M303.008 1288.81V1300.15M303.008 1366.93V1378.27M303.008 1445.04V1456.31M375.722 38.9797V50.3292M375.722 117.088V128.451M375.722 195.197V206.533M375.722 273.319V284.749M375.722 351.522V362.858M375.722 429.603V440.966M375.722 507.726V519.075M375.722 585.834V597.17M375.722 663.956V675.279M375.722 742.038V753.401M375.722 820.16V831.509M375.722 898.268V909.618M375.722 976.377V987.713M375.722 1054.49V1065.83M375.722 1132.59V1143.96M375.722 1210.7V1222.07M375.722 1288.81V1300.15M375.722 1366.93V1378.27M375.722 1445.04V1456.31M448.436 38.9797V50.3292M448.436 117.088V128.451M448.436 195.197V206.533M448.436 273.319V284.749M448.436 351.522V362.858M448.436 429.603V440.966M448.436 507.726V519.075M448.436 585.834V597.17M448.436 663.956V675.279M448.436 742.038V753.401M448.436 820.16V831.509M448.436 898.268V909.618M448.436 976.377V987.713M448.436 1054.49V1065.83M448.436 1132.59V1143.96M448.436 1210.7V1222.07M448.436 1288.81V1300.15M448.436 1366.93V1378.27M448.436 1445.04V1456.31M521.238 39.0743V50.4238M521.238 117.183V128.546M521.238 195.291V206.627M521.238 273.413V284.749V273.4M521.238 351.522V362.858M521.238 429.603V440.966V429.617M521.238 507.726V519.075M521.238 585.834V597.17M521.238 663.956V675.279M521.238 742.038V753.401M521.238 820.16V831.509V820.146M521.238 898.295V909.645M521.238 976.404V987.74M521.238 1054.51V1065.83M521.238 1132.59V1143.96M521.238 1210.7V1222.07M521.238 1288.81V1300.15M521.238 1366.93V1378.27M521.238 1445.04V1456.31V1444.99M593.952 38.9797V50.3292M593.952 117.088V128.451M593.952 195.197V206.533M593.952 273.319V284.749M593.952 351.522V362.858M593.952 429.603V440.966M593.952 507.726V519.075M593.952 585.834V597.17M593.952 663.956V675.279M593.952 742.038V753.401M593.952 820.16V831.509M593.952 898.268V909.618M593.952 976.377V987.713M593.952 1054.49V1065.83V1054.39M593.952 1132.59V1143.96M593.952 1210.7V1222.07M593.952 1288.81V1300.15V1288.82M593.952 1366.93V1378.27M593.952 1445.04V1456.31M666.666 38.9797V50.3292M666.666 117.088V128.451M666.666 195.197V206.533M666.666 273.319V284.749M666.666 351.522V362.858M666.666 429.603V440.966M666.666 507.726V519.075M666.666 585.834V597.17M666.666 663.956V675.279M666.666 742.038V753.401M666.666 820.16V831.509M666.666 898.268V909.618M666.666 976.377V987.713M666.666 1054.49V1065.83V1054.39M666.666 1132.59V1143.96M666.666 1210.7V1222.07M666.666 1288.81V1300.15V1288.82M666.666 1366.93V1378.27M666.666 1445.04V1456.31M-60.5365 39.0743V50.4238M-60.5365 117.183V128.546M-60.5365 195.291V206.627M-60.5365 273.413V284.749M-60.5365 351.522V362.858M-60.5365 429.603V440.966M-60.5365 507.726V519.075M-60.5365 585.834V597.17M-60.5365 663.956V675.279M-60.5365 742.038V753.401M-60.5365 820.146V831.509M-60.5365 898.268V909.618M-60.5365 976.377V987.713M-60.5365 1054.49V1065.83M-60.5365 1132.59V1143.96M-60.5365 1210.7V1222.07M-60.5365 1288.81V1300.15M-60.5365 1366.93V1378.27M303.059 1445.03V1456.31M375.773 38.9797V50.3292M375.773 117.088V128.451M375.773 195.197V206.533M375.773 273.305V284.655M375.773 351.427V362.763M375.773 429.522V440.872M375.773 507.631V518.98M375.773 585.739V597.075M375.773 663.862V675.184M375.773 741.943V753.306M375.773 820.052V831.415M375.773 898.174V909.523M375.773 976.282V987.618M375.773 1054.39V1065.83M375.773 1132.59V1143.96M375.773 1210.7V1222.07M375.773 1288.82V1300.15M375.773 1366.93V1378.27M375.773 1445.04V1456.31M448.487 38.9797V50.3292M448.487 117.088V128.451M448.487 195.197V206.533M448.487 273.305V284.655M448.487 351.427V362.763M448.487 429.522V440.872M448.487 507.631V518.98M448.487 585.739V597.075M448.487 663.862V675.184M448.487 741.943V753.306M448.487 820.052V831.415M448.487 898.174V909.523M448.487 976.282V987.618M448.487 1054.39V1065.83M448.487 1132.59V1143.96M448.487 1210.7V1222.07M448.487 1288.82V1300.15M448.487 1366.93V1378.27M448.487 1445.04V1456.31M521.238 1288.77V1300.09M521.238 1366.88V1378.21M593.952 273.305V284.655M593.952 351.427V362.763M593.952 429.522V440.872M593.952 507.631V518.98M593.952 585.739V597.075M593.952 663.862V675.184M593.952 741.943V753.306M593.952 820.052V831.415M593.952 898.174V909.523M593.952 976.282V987.618M666.666 273.305V284.655M666.666 351.427V362.763M666.666 429.522V440.872M666.666 507.631V518.98M666.666 585.739V597.075M666.666 663.862V675.184M666.666 741.943V753.306M666.666 820.052V831.415M666.666 898.174V909.523M666.666 976.282V987.618M-55.2546 44.7625H-65.8184M-55.2546 122.844H-65.8184M-55.2546 200.966H-65.8184M-55.2546 279.075H-65.8184M-55.2546 357.183H-65.8184M-55.2546 435.305H-65.8184M-55.2546 513.387H-65.8184M-55.2546 591.495H-65.8184M-55.2546 669.617H-65.8184M-55.2546 747.726H-65.8184M-55.2546 825.821H-65.8184M-55.2546 903.929H-65.8184M-55.2546 982.065H-65.8184M-55.2546 1060.19H-65.8184M-55.2546 1138.3H-65.8184M-55.2546 1216.39H-65.8184M-55.2546 1294.5H-65.8184M-55.2546 1372.54H-65.8184M-55.2546 1450.65H-65.8184M17.4594 44.7626H6.88306M17.4343 122.844H6.88306M17.4343 200.966H6.88306M17.4594 279.075H6.88306M17.4343 357.183H6.88306M17.4343 435.305H6.88306M17.4343 513.387H6.88306M17.4343 591.495H6.88306M17.4343 669.617H6.88306M17.4343 747.726H6.88306M17.4343 825.821H6.88306M17.4343 903.929H6.88306M17.4594 982.065H6.88306M17.4343 1060.19H6.88306M17.4343 1138.3H6.88306M17.4343 1216.39H6.88306M17.4343 1294.5H6.88306M17.4594 1372.54H6.88306M17.4343 1450.65H6.88306M90.1734 44.7626H79.6222M90.1734 122.844H79.6222M90.1734 200.966H79.6222M90.1734 279.075H79.6222M90.1734 357.183H79.6222M90.1734 435.305H79.6222M90.1734 513.387H79.6222M90.1734 591.495H79.6222M90.1734 669.617H79.6222M90.1734 747.726H79.6222M90.1734 825.821H79.6222M90.1734 903.929H79.6222M90.1734 982.065H79.6222M90.1734 1060.19H79.6222M90.1734 1138.3H79.6222M90.1734 1216.39H79.6222M90.1734 1294.5H79.6222M90.1734 1372.54H79.6222M90.1734 1450.65H79.6222M162.9 44.7626H152.336M162.9 122.844H152.336M162.9 200.966H152.336M162.9 279.075H152.336M162.9 357.183H152.336M162.9 435.305H152.336M162.9 513.387H152.336M162.9 591.495H152.336M162.9 669.617H152.336M162.9 747.726H152.336M162.9 825.821H152.336M162.9 903.929H152.336M162.9 982.038H152.336M162.9 1060.16H152.336M162.9 1138.27H152.336M162.9 1216.36H152.336M162.9 1294.47H152.336M162.9 1372.58H152.336M162.9 1450.69H152.336M235.614 44.7626H225.05M235.614 122.844H225.05M235.614 200.966H225.05M235.614 279.075H225.05M235.614 357.183H225.05M235.614 435.305H225.05M235.614 513.387H225.05M235.614 591.495H225.05M235.614 669.617H225.05M235.614 747.726H225.05M235.614 825.821H225.05M235.614 903.929H225.05M235.614 982.038H225.05M235.614 1060.16H225.05M235.614 1138.27H225.05M235.614 1216.36H225.05M235.614 1294.47H225.05M235.614 1372.58H225.05M235.614 1450.69H225.05M308.341 44.7626H297.777M308.341 122.844H297.777M308.341 200.966H297.777M308.341 279.075H297.777M308.341 357.183H297.777M308.341 435.305H297.777M308.341 513.387H297.777M308.341 591.495H297.777M308.341 669.617H297.777M308.341 747.726H297.777M308.341 825.821H297.777M308.341 903.929H297.777M308.341 982.038H297.777M308.341 1060.16H297.777M308.341 1138.27H297.777M308.341 1216.36H297.777M308.341 1294.47H297.777M308.341 1372.58H297.777M308.341 1450.69H297.777M381.055 44.7626H370.491M381.055 122.844H370.491M381.055 200.966H370.491M381.055 279.075H370.491M381.055 357.183H370.491M381.055 435.305H370.491M381.055 513.387H370.491M381.055 591.495H370.491M381.055 669.617H370.491M381.055 747.726H370.491M381.055 825.821H370.491M381.055 903.929H370.491M381.055 982.038H370.491M381.055 1060.16H370.491M381.055 1138.27H370.491M381.055 1216.36H370.491M381.055 1294.47H370.491M381.055 1372.58H370.491M381.055 1450.69H370.491M453.769 44.7626H443.268M453.831 122.844H443.268M453.831 200.966H443.268M453.831 279.075H443.268M453.831 357.183H443.268M453.831 435.305H443.268M453.831 513.387H443.268M453.831 591.495H443.268M453.831 669.617H443.268M453.831 747.726H443.268M453.831 825.821H443.268M453.831 903.929H443.268M453.831 982.038H443.268M453.831 1060.16H443.268M453.831 1138.27H443.268M453.831 1216.36H443.268M453.831 1294.47H443.268M453.831 1372.58H443.268M453.831 1450.69H443.268M526.495 44.7626H515.931M526.495 122.844H515.931M526.495 200.966H515.931M526.495 279.075H515.931M526.495 357.183H515.931M526.495 435.305H515.931M526.495 513.387H515.931M526.495 591.495H515.931M526.495 669.617H515.931M526.495 747.726H515.931M526.495 825.821H515.931M526.495 903.929H515.931M526.495 982.038H515.931M526.495 1060.16H515.931M526.495 1138.27H515.931M526.495 1216.36H515.931M526.495 1294.47H515.931M526.495 1372.58H515.931M526.495 1450.69H515.931M599.209 44.7626H588.645M599.209 122.844H588.645M599.209 200.966H588.645M599.209 279.075H588.645M599.209 357.183H588.645M599.209 435.305H588.645M599.209 513.387H588.645M599.209 591.495H588.645M599.209 669.617H588.645M599.209 747.726H588.645M599.209 825.821H588.645M599.209 903.929H588.645M599.209 982.065H588.645M599.209 1060.16H588.645M599.209 1138.27H588.645M599.209 1216.36H588.645M599.209 1294.47H588.645M599.209 1372.54H588.645M599.209 1450.65H588.645M671.923 44.7626H661.359M671.923 122.844H661.359M671.923 200.966H661.359M671.923 279.075H661.359M671.923 357.183H661.359M671.923 435.305H661.359M671.923 513.387H661.359M671.923 591.495H661.359M671.923 669.617H661.359M671.923 747.726H661.359M671.923 825.821H661.359M671.923 903.929H661.359M671.923 982.038H661.359M671.923 1060.16H661.359M671.923 1138.27H661.359M671.923 1216.36H661.359M671.923 1294.47H661.359M671.923 1372.58H661.359M671.923 1450.69H661.359M739.066 38.9797V50.3292M739.066 117.088V128.451M739.066 195.197V206.533M739.066 273.319V284.749M739.066 351.522V362.858M739.066 429.603V440.966M739.066 507.726V519.075M739.066 585.834V597.17M739.066 663.956V675.279M739.066 742.038V753.401M739.066 820.16V831.509V820.146M739.066 898.268V909.618M739.066 976.377V987.713M739.066 1054.49V1065.83M739.066 1132.59V1143.96M739.066 1210.7V1222.07M739.066 1288.81V1300.15M739.066 1366.93V1378.27M739.066 1445.04V1456.31M811.742 39.0743V50.4238M811.742 117.183V128.546M811.742 195.291V206.627M811.742 273.413V284.749M811.742 351.522V362.858M811.742 429.603V440.966M811.742 507.726V519.075M811.742 585.834V597.17M811.742 663.956V675.279M811.742 742.038V753.401M811.742 820.16V831.509V820.146M811.742 898.295V909.645M811.742 976.404V987.74M811.742 1054.51V1065.83M811.742 1132.59V1143.96M811.742 1210.7V1222.07M811.742 1288.81V1300.15M811.742 1366.93V1378.27M811.742 1445.04V1456.31M884.456 38.9797V50.3292M884.456 117.088V128.451M884.456 195.197V206.533M884.456 273.319V284.749M884.456 351.522V362.858M884.456 429.603V440.966M884.456 507.726V519.075M884.456 585.834V597.17M884.456 663.956V675.279M884.456 742.038V753.401M884.456 820.16V831.509V820.146M884.456 898.268V909.618M884.456 976.377V987.713M884.456 1054.49V1065.83M884.456 1132.59V1143.96M884.456 1210.7V1222.07M884.456 1288.81V1300.15M884.456 1366.93V1378.27M884.456 1445.04V1456.31M957.17 38.9797V50.3292M957.17 117.088V128.451M957.17 195.197V206.533M957.17 273.319V284.749M957.17 351.522V362.858M957.17 429.603V440.966M957.17 507.726V519.075M957.17 585.834V597.17M957.17 663.956V675.279M957.17 742.038V753.401M957.17 820.16V831.509V820.146M957.17 898.268V909.618M957.17 976.377V987.713M957.17 1054.49V1065.83M957.17 1132.59V1143.96M957.17 1210.7V1222.07M957.17 1288.81V1300.15M957.17 1366.93V1378.27M957.17 1445.04V1456.31M1029.9 38.9797V50.3292M1029.9 117.088V128.451M1029.9 195.197V206.533M1029.9 273.319V284.749M1029.9 351.522V362.858M1029.9 429.603V440.966M1029.9 507.726V519.075M1029.9 585.834V597.17M1029.9 663.956V675.279M1029.9 742.038V753.401M1029.9 820.16V831.509V820.146M1029.9 898.268V909.618M1029.9 976.377V987.713M1029.9 1054.49V1065.83M1029.9 1132.59V1143.96M1029.9 1210.7V1222.07M1029.9 1288.81V1300.15M1029.9 1366.93V1378.27M1029.9 1445.04V1456.31M1102.61 38.9797V50.3292M1102.61 117.088V128.451M1102.61 195.197V206.533M1102.61 273.319V284.749M1102.61 351.522V362.858M1102.61 429.603V440.966M1102.61 507.726V519.075M1102.61 585.834V597.17M1102.61 663.956V675.279M1102.61 742.038V753.401M1102.61 820.16V831.509M1102.61 898.268V909.618M1102.61 976.377V987.713M1102.61 1054.49V1065.83M1102.61 1132.59V1143.96M1102.61 1210.7V1222.07M1102.61 1288.81V1300.15M1102.61 1366.93V1378.27M1102.61 1445.04V1456.31M1175.32 38.9797V50.3292M1175.32 117.088V128.451M1175.32 195.197V206.533M1175.32 273.319V284.749M1175.32 351.522V362.858M1175.32 429.603V440.966M1175.32 507.726V519.075M1175.32 585.834V597.17M1175.32 663.956V675.279M1175.32 742.038V753.401M1175.32 820.16V831.509M1175.32 898.268V909.618M1175.32 976.377V987.713M1175.32 1054.49V1065.83M1175.32 1132.59V1143.96M1175.32 1210.7V1222.07M1175.32 1288.81V1300.15M1175.32 1366.93V1378.27M1175.32 1445.04V1456.31M1248.13 39.0743V50.4238M1248.13 117.183V128.546M1248.13 195.291V206.627M1248.13 273.413V284.749V273.4M1248.13 351.522V362.858M1248.13 429.603V440.966V429.617M1248.13 507.726V519.075M1248.13 585.834V597.17M1248.13 663.956V675.279M1248.13 742.038V753.401M1248.13 820.16V831.509V820.146M1248.13 898.295V909.645M1248.13 976.404V987.74M1248.13 1054.51V1065.83M1248.13 1132.59V1143.96M1248.13 1210.7V1222.07M1248.13 1288.81V1300.15M1248.13 1366.93V1378.27M1248.13 1445.04V1456.31V1444.99M1320.84 38.9797V50.3292M1320.84 117.088V128.451M1320.84 195.197V206.533M1320.84 273.319V284.749M1320.84 351.522V362.858M1320.84 429.603V440.966M1320.84 507.726V519.075M1320.84 585.834V597.17M1320.84 663.956V675.279M1320.84 742.038V753.401M1320.84 820.16V831.509M1320.84 898.268V909.618M1320.84 976.377V987.713M1320.84 1054.49V1065.83V1054.39M1320.84 1132.59V1143.96M1320.84 1210.7V1222.07M1320.84 1288.81V1300.15V1288.82M1320.84 1366.93V1378.27M1320.84 1445.04V1456.31M1393.55 38.9797V50.3292M1393.55 117.088V128.451M1393.55 195.197V206.533M1393.55 273.319V284.749M1393.55 351.522V362.858M1393.55 429.603V440.966M1393.55 507.726V519.075M1393.55 585.834V597.17M1393.55 663.956V675.279M1393.55 742.038V753.401M1393.55 820.16V831.509M1393.55 898.268V909.618M1393.55 976.377V987.713M1393.55 1054.49V1065.83V1054.39M1393.55 1132.59V1143.96M1393.55 1210.7V1222.07M1393.55 1288.81V1300.15V1288.82M1393.55 1366.93V1378.27M1393.55 1445.04V1456.31M1029.95 1445.03V1456.31M1102.66 38.9797V50.3292M1102.66 117.088V128.451M1102.66 195.197V206.533M1102.66 273.305V284.655M1102.66 351.427V362.763M1102.66 429.522V440.872M1102.66 507.631V518.98M1102.66 585.739V597.075M1102.66 663.862V675.184M1102.66 741.943V753.306M1102.66 820.052V831.415M1102.66 898.174V909.523M1102.66 976.282V987.618M1102.66 1054.39V1065.83M1102.66 1132.59V1143.96M1102.66 1210.7V1222.07M1102.66 1288.82V1300.15M1102.66 1366.93V1378.27M1102.66 1445.04V1456.31M1175.38 38.9797V50.3292M1175.38 117.088V128.451M1175.38 195.197V206.533M1175.38 273.305V284.655M1175.38 351.427V362.763M1175.38 429.522V440.872M1175.38 507.631V518.98M1175.38 585.739V597.075M1175.38 663.862V675.184M1175.38 741.943V753.306M1175.38 820.052V831.415M1175.38 898.174V909.523M1175.38 976.282V987.618M1175.38 1054.39V1065.83M1175.38 1132.59V1143.96M1175.38 1210.7V1222.07M1175.38 1288.82V1300.15M1175.38 1366.93V1378.27M1175.38 1445.04V1456.31M1248.13 1288.77V1300.09M1248.13 1366.88V1378.21M1320.84 273.305V284.655M1320.84 351.427V362.763M1320.84 429.522V440.872M1320.84 507.631V518.98M1320.84 585.739V597.075M1320.84 663.862V675.184M1320.84 741.943V753.306M1320.84 820.052V831.415M1320.84 898.174V909.523M1320.84 976.282V987.618M1393.55 273.305V284.655M1393.55 351.427V362.763M1393.55 429.522V440.872M1393.55 507.631V518.98M1393.55 585.739V597.075M1393.55 663.862V675.184M1393.55 741.943V753.306M1393.55 820.052V831.415M1393.55 898.174V909.523M1393.55 976.282V987.618M744.348 44.7626H733.772M744.323 122.844H733.772M744.323 200.966H733.772M744.348 279.075H733.772M744.323 357.183H733.772M744.323 435.305H733.772M744.323 513.387H733.772M744.323 591.495H733.772M744.323 669.617H733.772M744.323 747.726H733.772M744.323 825.821H733.772M744.323 903.929H733.772M744.348 982.065H733.772M744.323 1060.19H733.772M744.323 1138.3H733.772M744.323 1216.39H733.772M744.323 1294.5H733.772M744.348 1372.54H733.772M744.323 1450.65H733.772M817.062 44.7626H806.511M817.062 122.844H806.511M817.062 200.966H806.511M817.062 279.075H806.511M817.062 357.183H806.511M817.062 435.305H806.511M817.062 513.387H806.511M817.062 591.495H806.511M817.062 669.617H806.511M817.062 747.726H806.511M817.062 825.821H806.511M817.062 903.929H806.511M817.062 982.065H806.511M817.062 1060.19H806.511M817.062 1138.3H806.511M817.062 1216.39H806.511M817.062 1294.5H806.511M817.062 1372.54H806.511M817.062 1450.65H806.511M889.788 44.7626H879.225M889.788 122.844H879.225M889.788 200.966H879.225M889.788 279.075H879.225M889.788 357.183H879.225M889.788 435.305H879.225M889.788 513.387H879.225M889.788 591.495H879.225M889.788 669.617H879.225M889.788 747.726H879.225M889.788 825.821H879.225M889.788 903.929H879.225M889.788 982.038H879.225M889.788 1060.16H879.225M889.788 1138.27H879.225M889.788 1216.36H879.225M889.788 1294.47H879.225M889.788 1372.58H879.225M889.788 1450.69H879.225M962.502 44.7626H951.939M962.502 122.844H951.939M962.502 200.966H951.939M962.502 279.075H951.939M962.502 357.183H951.939M962.502 435.305H951.939M962.502 513.387H951.939M962.502 591.495H951.939M962.502 669.617H951.939M962.502 747.726H951.939M962.502 825.821H951.939M962.502 903.929H951.939M962.502 982.038H951.939M962.502 1060.16H951.939M962.502 1138.27H951.939M962.502 1216.36H951.939M962.502 1294.47H951.939M962.502 1372.58H951.939M962.502 1450.69H951.939M1035.23 44.7626H1024.67M1035.23 122.844H1024.67M1035.23 200.966H1024.67M1035.23 279.075H1024.67M1035.23 357.183H1024.67M1035.23 435.305H1024.67M1035.23 513.387H1024.67M1035.23 591.495H1024.67M1035.23 669.617H1024.67M1035.23 747.726H1024.67M1035.23 825.821H1024.67M1035.23 903.929H1024.67M1035.23 982.038H1024.67M1035.23 1060.16H1024.67M1035.23 1138.27H1024.67M1035.23 1216.36H1024.67M1035.23 1294.47H1024.67M1035.23 1372.58H1024.67M1035.23 1450.69H1024.67M1107.94 44.7626H1097.38M1107.94 122.844H1097.38M1107.94 200.966H1097.38M1107.94 279.075H1097.38M1107.94 357.183H1097.38M1107.94 435.305H1097.38M1107.94 513.387H1097.38M1107.94 591.495H1097.38M1107.94 669.617H1097.38M1107.94 747.726H1097.38M1107.94 825.821H1097.38M1107.94 903.929H1097.38M1107.94 982.038H1097.38M1107.94 1060.16H1097.38M1107.94 1138.27H1097.38M1107.94 1216.36H1097.38M1107.94 1294.47H1097.38M1107.94 1372.58H1097.38M1107.94 1450.69H1097.38M1180.66 44.7626H1170.16M1180.72 122.844H1170.16M1180.72 200.966H1170.16M1180.72 279.075H1170.16M1180.72 357.183H1170.16M1180.72 435.305H1170.16M1180.72 513.387H1170.16M1180.72 591.495H1170.16M1180.72 669.617H1170.16M1180.72 747.726H1170.16M1180.72 825.821H1170.16M1180.72 903.929H1170.16M1180.72 982.038H1170.16M1180.72 1060.16H1170.16M1180.72 1138.27H1170.16M1180.72 1216.36H1170.16M1180.72 1294.47H1170.16M1180.72 1372.58H1170.16M1180.72 1450.69H1170.16M1253.38 44.7626H1242.82M1253.38 122.844H1242.82M1253.38 200.966H1242.82M1253.38 279.075H1242.82M1253.38 357.183H1242.82M1253.38 435.305H1242.82M1253.38 513.387H1242.82M1253.38 591.495H1242.82M1253.38 669.617H1242.82M1253.38 747.726H1242.82M1253.38 825.821H1242.82M1253.38 903.929H1242.82M1253.38 982.038H1242.82M1253.38 1060.16H1242.82M1253.38 1138.27H1242.82M1253.38 1216.36H1242.82M1253.38 1294.47H1242.82M1253.38 1372.58H1242.82M1253.38 1450.69H1242.82M1326.1 44.7626H1315.53M1326.1 122.844H1315.53M1326.1 200.966H1315.53M1326.1 279.075H1315.53M1326.1 357.183H1315.53M1326.1 435.305H1315.53M1326.1 513.387H1315.53M1326.1 591.495H1315.53M1326.1 669.617H1315.53M1326.1 747.726H1315.53M1326.1 825.821H1315.53M1326.1 903.929H1315.53M1326.1 982.065H1315.53M1326.1 1060.16H1315.53M1326.1 1138.27H1315.53M1326.1 1216.36H1315.53M1326.1 1294.47H1315.53M1326.1 1372.54H1315.53M1326.1 1450.65H1315.53M1398.81 44.7626H1388.25M1398.81 122.844H1388.25M1398.81 200.966H1388.25M1398.81 279.075H1388.25M1398.81 357.183H1388.25M1398.81 435.305H1388.25M1398.81 513.387H1388.25M1398.81 591.495H1388.25M1398.81 669.617H1388.25M1398.81 747.726H1388.25M1398.81 825.821H1388.25M1398.81 903.929H1388.25M1398.81 982.038H1388.25M1398.81 1060.16H1388.25M1398.81 1138.27H1388.25M1398.81 1216.36H1388.25M1398.81 1294.47H1388.25M1398.81 1372.58H1388.25M1398.81 1450.69H1388.25" stroke="#939598" stroke-width="0.83"/>
</g>
<defs>
<clipPath id="clip0_60_317">
<rect width="960" height="545" fill="white" transform="translate(0.181641)"/>
</clipPath>
</defs>
</svg>
