<svg width="146" height="287" fill="none" xmlns="http://www.w3.org/2000/svg"><g clip-path="url(#a)"><path d="M-235.023 642.436v6.192m0 36.472v6.162-6.155m39.717-768.009v6.2m0 36.464v6.207m0 36.457v6.192m0 36.48v6.243m0 36.472v6.192m0 36.457v6.207m0 36.464v6.199m0 36.465v6.192m0 36.479v6.185m0 36.465v6.206m0 36.465v6.199-6.207m0 42.672v6.199m0 36.465v6.191m0 36.472v6.2m0 36.464v6.207m0 36.457v6.207m0 36.457v6.192m0 36.479v6.192m0 36.472v6.155m39.697-774.112v6.199m0 36.465v6.206m0 36.458v6.191m0 36.48v6.192m0 36.472v6.192m0 36.457v6.207m0 36.464v6.199m0 36.465v6.192m0 36.479v6.185m0 36.465v6.206m0 36.465v6.199-6.207m0 42.686v6.2m0 36.464v6.192m0 36.472v6.185m0 36.464v6.207m0 36.457v6.207m0 36.457v6.192m0 36.479v6.192m0 36.472v6.155m39.717-774.164v6.2m0 36.464v6.207m0 36.457v6.192m0 36.48v6.243m0 36.472v6.192m0 36.457v6.207m0 36.464v6.199m0 36.465v6.192m0 36.479v6.185m0 36.465v6.206m0 36.465v6.199-6.207m0 42.672v6.199m0 36.465v6.191m0 36.472v6.2m0 36.464v6.207m0 36.457v6.207m0 36.457v6.192m0 36.479v6.192m0 36.472v6.155m39.718-774.164v6.2m0 36.464v6.207m0 36.457v6.192m0 36.48v6.243m0 36.472v6.192m0 36.457v6.207m0 36.464v6.199m0 36.465v6.192m0 36.479v6.185m0 36.465v6.206m0 36.465v6.199-6.207m0 42.672v6.199m0 36.465v6.191m0 36.472v6.2m0 36.464v6.207m0 36.457v6.207m0 36.457v6.192m0 36.479v6.192m0 36.472v6.155M-36.45-82.902v6.2m0 36.464v6.207m0 36.457v6.192m0 36.48v6.243m0 36.472v6.192m0 36.457v6.207m0 36.464v6.199m0 36.465v6.192m0 36.479v6.185m0 36.465v6.206m0 36.465v6.199-6.207m0 42.672v6.199m0 36.465v6.191m0 36.472v6.2m0 36.464v6.207m0 36.457v6.207m0 36.457v6.192m0 36.479v6.192m0 36.472v6.155M3.267-82.902v6.2m0 36.464v6.207m0 36.457v6.192m0 36.48v6.243m0 36.472v6.192m0 36.457v6.207m0 36.464v6.199m0 36.465v6.192m0 36.479v6.185m0 36.465v6.206m0 36.465v6.199m0 36.465v6.199m0 36.465v6.191m0 36.472v6.2m0 36.464v6.207m0 36.457v6.207m0 36.457v6.192m0 36.479v6.192m0 36.472v6.155M42.984-82.902v6.2m0 36.464v6.207m0 36.457v6.192m0 36.48v6.243m0 36.472v6.192m0 36.457v6.207m0 36.464v6.199m0 36.465v6.192m0 36.479v6.185m0 36.465v6.206m0 36.465v6.199m0 36.465v6.199m0 36.465v6.191m0 36.472v6.2m0 36.464v6.207m0 36.457v6.207m0 36.457v6.192m0 36.479v6.192m0 36.472v6.155M82.75-82.85v6.199m0 36.465v6.206m0 36.458v6.191m0 36.48v6.192-6.2m0 42.672v6.192m0 36.457v6.207-6.2m0 42.664v6.199m0 36.465v6.192m0 36.479v6.185m0 36.465v6.206m0 36.465v6.199-6.207m0 42.686v6.2m0 36.464v6.192m0 36.472v6.185m0 36.464v6.207m0 36.457v6.207m0 36.457v6.192m0 36.479v6.192m0 36.472v6.155-6.184m39.717-767.98v6.2m0 36.464v6.207m0 36.457v6.192m0 36.48v6.243m0 36.472v6.192m0 36.457v6.207m0 36.464v6.199m0 36.465v6.192m0 36.479v6.185m0 36.465v6.206m0 36.465v6.199m0 36.465v6.199m0 36.465v6.191m0 36.472v6.2-6.251m0 42.715v6.207m0 36.457v6.207m0 36.457v6.192-6.184m0 42.663v6.192m0 36.472v6.155m39.717-774.164v6.2m0 36.464v6.207m0 36.457v6.192m0 36.48v6.243m0 36.472v6.192m0 36.457v6.207m0 36.464v6.199m0 36.465v6.192m0 36.479v6.185m0 36.465v6.206m0 36.465v6.199m0 36.465v6.199m0 36.465v6.191m0 36.472v6.2-6.251m0 42.715v6.207m0 36.457v6.207m0 36.457v6.192-6.184m0 42.663v6.192m0 36.472v6.155M-235.023-82.85v6.199m0 36.465v6.206m0 36.458v6.191m0 36.48v6.192m0 36.472v6.192m0 36.457v6.207m0 36.464v6.199m0 36.465v6.192m0 36.479v6.185m0 36.465v6.206m0 36.457v6.207m0 36.465v6.199m0 36.465v6.191m0 36.472v6.2m0 36.464v6.207m0 36.457v6.207m0 36.457v6.192m0 36.479v6.192m198.6 36.465v6.162M3.295-82.902v6.2m0 36.464v6.207m0 36.457v6.192m0 36.472v6.2m0 36.471v6.192m0 36.465v6.199m0 36.465v6.199m0 36.464v6.192m0 36.48v6.184m0 36.465v6.206m0 36.458v6.206m0 36.465v6.199m0 36.465v6.192m0 36.472v6.251m0 36.464v6.207m0 36.457v6.207m0 36.465v6.184m0 36.479v6.192m0 36.472v6.155M43.012-82.902v6.2m0 36.464v6.207m0 36.457v6.192m0 36.472v6.2m0 36.471v6.192m0 36.465v6.199m0 36.465v6.199m0 36.464v6.192m0 36.48v6.184m0 36.465v6.206m0 36.458v6.206m0 36.465v6.199m0 36.465v6.192m0 36.472v6.251m0 36.464v6.207m0 36.457v6.207m0 36.465v6.184m0 36.479v6.192m0 36.472v6.155M82.75 599.75v6.185m0 36.479v6.192M122.467 45.09v6.2m0 36.471v6.192m0 36.465v6.199m0 36.465v6.199m0 36.464v6.192m0 36.48v6.184m0 36.465v6.206m0 36.458v6.206m0 36.465v6.199m0 36.465v6.192M162.184 45.09v6.2m0 36.471v6.192m0 36.465v6.199m0 36.465v6.199m0 36.464v6.192m0 36.48v6.184m0 36.465v6.206m0 36.458v6.206m0 36.465v6.199m0 36.465v6.192m-394.322-515h-5.77m5.77 42.649h-5.77m5.77 42.671h-5.77m5.77 42.664h-5.77m5.77 42.664h-5.77m5.77 42.671h-5.77m5.77 42.649h-5.77m5.77 42.664h-5.77m5.77 42.672h-5.77m5.77 42.664h-5.77m5.77 42.656h-5.77m5.77 42.664h-5.77m5.77 42.679h-5.77m5.77 42.671h-5.77m5.77 42.664h-5.77m5.77 42.656h-5.77m5.77 42.664h-5.77m5.77 42.627h-5.77m5.77 42.664h-5.77m45.487-767.913h-5.777m5.763 42.649h-5.763m5.763 42.671h-5.763m5.777 42.664h-5.777m5.763 42.664h-5.763m5.763 42.671h-5.763m5.763 42.649h-5.763m5.763 42.664h-5.763m5.763 42.672h-5.763m5.763 42.664h-5.763m5.763 42.656h-5.763m5.763 42.664h-5.763m5.777 42.679h-5.777m5.763 42.671h-5.763m5.763 42.664h-5.763m5.763 42.656h-5.763m5.763 42.664h-5.763m5.777 42.627h-5.777m5.763 42.664h-5.763m45.495-767.913h-5.764m5.764 42.649h-5.764m5.764 42.671h-5.764m5.764 42.664h-5.764m5.764 42.664h-5.764m5.764 42.671h-5.764m5.764 42.649h-5.764m5.764 42.664h-5.764m5.764 42.672h-5.764m5.764 42.664h-5.764m5.764 42.656h-5.764m5.764 42.664h-5.764m5.764 42.679h-5.764m5.764 42.671h-5.764m5.764 42.664h-5.764m5.764 42.656h-5.764m5.764 42.664h-5.764m5.764 42.627h-5.764m5.764 42.664h-5.764m45.488-767.913h-5.77m5.77 42.649h-5.77m5.77 42.671h-5.77m5.77 42.664h-5.77m5.77 42.664h-5.77m5.77 42.671h-5.77m5.77 42.649h-5.77m5.77 42.664h-5.77m5.77 42.672h-5.77m5.77 42.664h-5.77m5.77 42.656h-5.77m5.77 42.664h-5.77m5.77 42.664h-5.77m5.77 42.671h-5.77m5.77 42.664h-5.77m5.77 42.657h-5.77m5.77 42.663h-5.77m5.77 42.664h-5.77m5.77 42.664h-5.77m45.487-767.935h-5.77m5.77 42.649h-5.77m5.77 42.671h-5.77m5.77 42.664h-5.77m5.77 42.664h-5.77m5.77 42.671h-5.77m5.77 42.649h-5.77m5.77 42.664h-5.77m5.77 42.672h-5.77m5.77 42.664h-5.77m5.77 42.656h-5.77m5.77 42.664h-5.77m5.77 42.664h-5.77m5.77 42.671h-5.77m5.77 42.664h-5.77m5.77 42.657h-5.77m5.77 42.663h-5.77m5.77 42.664h-5.77m5.77 42.664h-5.77m45.494-767.935h-5.77m5.77 42.649h-5.77m5.77 42.671h-5.77m5.77 42.664h-5.77m5.77 42.664h-5.77m5.77 42.671h-5.77m5.77 42.649h-5.77m5.77 42.664h-5.77m5.77 42.672h-5.77m5.77 42.664h-5.77m5.77 42.656h-5.77m5.77 42.664h-5.77m5.77 42.664h-5.77m5.77 42.671h-5.77m5.77 42.664h-5.77m5.77 42.657h-5.77m5.77 42.663h-5.77m5.77 42.664h-5.77m5.77 42.664h-5.77M6.18-79.743H.41m5.77 42.649H.41M6.18 5.577H.41m5.77 42.664H.41m5.77 42.664H.41m5.77 42.671H.41m5.77 42.649H.41m5.77 42.664H.41m5.77 42.672H.41m5.77 42.664H.41m5.77 42.656H.41m5.77 42.664H.41m5.77 42.664H.41m5.77 42.671H.41m5.77 42.664H.41m5.77 42.657H.41m5.77 42.663H.41m5.77 42.664H.41m5.77 42.664H.41M45.897-79.743H40.16m5.77 42.649h-5.77m5.77 42.671h-5.77m5.77 42.664h-5.77m5.77 42.664h-5.77m5.77 42.671h-5.77m5.77 42.649h-5.77m5.77 42.664h-5.77m5.77 42.672h-5.77m5.77 42.664h-5.77m5.77 42.656h-5.77m5.77 42.664h-5.77m5.77 42.664h-5.77m5.77 42.671h-5.77m5.77 42.664h-5.77m5.77 42.657h-5.77m5.77 42.663h-5.77m5.77 42.664h-5.77m5.77 42.664h-5.77M85.62-79.743h-5.77m5.77 42.649h-5.77m5.77 42.671h-5.77m5.77 42.664h-5.77m5.77 42.664h-5.77m5.77 42.671h-5.77m5.77 42.649h-5.77m5.77 42.664h-5.77m5.77 42.672h-5.77m5.77 42.664h-5.77m5.77 42.656h-5.77m5.77 42.664h-5.77m5.77 42.664h-5.77m5.77 42.671h-5.77m5.77 42.664h-5.77m5.77 42.657h-5.77m5.77 42.663h-5.77m5.77 42.664h-5.77m5.77 42.664h-5.77m45.487-767.935h-5.77m5.77 42.649h-5.77m5.77 42.671h-5.77m5.77 42.664h-5.77m5.77 42.664h-5.77m5.77 42.671h-5.77m5.77 42.649h-5.77m5.77 42.664h-5.77m5.77 42.672h-5.77m5.77 42.664h-5.77m5.77 42.656h-5.77m5.77 42.664h-5.77m5.77 42.679h-5.77m5.77 42.656h-5.77m5.77 42.664h-5.77m5.77 42.657h-5.77m5.77 42.663h-5.77m5.77 42.642h-5.77m5.77 42.664h-5.77m45.488-767.913h-5.77m5.77 42.649h-5.77m5.77 42.671h-5.77m5.77 42.664h-5.77m5.77 42.664h-5.77m5.77 42.671h-5.77m5.77 42.649h-5.77m5.77 42.664h-5.77m5.77 42.672h-5.77m5.77 42.664h-5.77m5.77 42.656h-5.77m5.77 42.664h-5.77m5.77 42.664h-5.77m5.77 42.671h-5.77m5.77 42.664h-5.77m5.77 42.657h-5.77m5.77 42.663h-5.77m5.77 42.664h-5.77m5.77 42.664h-5.77M201.73-82.902v6.2m0 36.464v6.207m0 36.457v6.192m0 36.48v6.243m0 36.472v6.192m0 36.457v6.207m0 36.464v6.199m0 36.465v6.192m0 36.479v6.185m0 36.465v6.206m0 36.465v6.199-6.207m0 42.672v6.199m0 36.465v6.191m0 36.472v6.2m0 36.464v6.207m0 36.457v6.207m0 36.457v6.192m0 36.479v6.192m0 36.472v6.155M241.427-82.85v6.199m0 36.465v6.206m0 36.458v6.191m0 36.48v6.192m0 36.472v6.192m0 36.457v6.207m0 36.464v6.199m0 36.465v6.192m0 36.479v6.185m0 36.465v6.206m0 36.465v6.199-6.207m0 42.686v6.2m0 36.464v6.192m0 36.472v6.185m0 36.464v6.207m0 36.457v6.207m0 36.457v6.192m0 36.479v6.192m0 36.472v6.155m39.717-774.164v6.2m0 36.464v6.207m0 36.457v6.192m0 36.48v6.243m0 36.472v6.192m0 36.457v6.207m0 36.464v6.199m0 36.465v6.192m0 36.479v6.185m0 36.465v6.206m0 36.465v6.199-6.207m0 42.672v6.199m0 36.465v6.191m0 36.472v6.2m0 36.464v6.207m0 36.457v6.207m0 36.457v6.192m0 36.479v6.192m0 36.472v6.155m39.718-774.164v6.2m0 36.464v6.207m0 36.457v6.192m0 36.48v6.243m0 36.472v6.192m0 36.457v6.207m0 36.464v6.199m0 36.465v6.192m0 36.479v6.185m0 36.465v6.206m0 36.465v6.199-6.207m0 42.672v6.199m0 36.465v6.191m0 36.472v6.2m0 36.464v6.207m0 36.457v6.207m0 36.457v6.192m0 36.479v6.192m0 36.472v6.155m39.724-774.164v6.2m0 36.464v6.207m0 36.457v6.192m0 36.48v6.243m0 36.472v6.192m0 36.457v6.207m0 36.464v6.199m0 36.465v6.192m0 36.479v6.185m0 36.465v6.206m0 36.465v6.199-6.207m0 42.672v6.199m0 36.465v6.191m0 36.472v6.2m0 36.464v6.207m0 36.457v6.207m0 36.457v6.192m0 36.479v6.192m0 36.472v6.155m39.717-774.164v6.2m0 36.464v6.207m0 36.457v6.192m0 36.48v6.243m0 36.472v6.192m0 36.457v6.207m0 36.464v6.199m0 36.465v6.192m0 36.479v6.185m0 36.465v6.206m0 36.465v6.199m0 36.465v6.199m0 36.465v6.191m0 36.472v6.2m0 36.464v6.207m0 36.457v6.207m0 36.457v6.192m0 36.479v6.192m0 36.472v6.155M440.02-82.902v6.2m0 36.464v6.207m0 36.457v6.192m0 36.48v6.243m0 36.472v6.192m0 36.457v6.207m0 36.464v6.199m0 36.465v6.192m0 36.479v6.185m0 36.465v6.206m0 36.465v6.199m0 36.465v6.199m0 36.465v6.191m0 36.472v6.2m0 36.464v6.207m0 36.457v6.207m0 36.457v6.192m0 36.479v6.192m0 36.472v6.155M479.786-82.85v6.199m0 36.465v6.206m0 36.458v6.191m0 36.48v6.192-6.2m0 42.672v6.192m0 36.457v6.207-6.2m0 42.664v6.199m0 36.465v6.192m0 36.479v6.185m0 36.465v6.206m0 36.465v6.199-6.207m0 42.686v6.2m0 36.464v6.192m0 36.472v6.185m0 36.464v6.207m0 36.457v6.207m0 36.457v6.192m0 36.479v6.192m0 36.472v6.155-6.184m39.717-767.98v6.2m0 36.464v6.207m0 36.457v6.192m0 36.48v6.243m0 36.472v6.192m0 36.457v6.207m0 36.464v6.199m0 36.465v6.192m0 36.479v6.185m0 36.465v6.206m0 36.465v6.199m0 36.465v6.199m0 36.465v6.191m0 36.472v6.2-6.251m0 42.715v6.207m0 36.457v6.207m0 36.457v6.192-6.184m0 42.663v6.192m0 36.472v6.155M559.22-82.902v6.2m0 36.464v6.207m0 36.457v6.192m0 36.48v6.243m0 36.472v6.192m0 36.457v6.207m0 36.464v6.199m0 36.465v6.192m0 36.479v6.185m0 36.465v6.206m0 36.465v6.199m0 36.465v6.199m0 36.465v6.191m0 36.472v6.2-6.251m0 42.715v6.207m0 36.457v6.207m0 36.457v6.192-6.184m0 42.663v6.192m0 36.472v6.155M360.613 685.1v6.162M400.33-82.902v6.2m0 36.464v6.207m0 36.457v6.192m0 36.472v6.2m0 36.471v6.192m0 36.465v6.199m0 36.465v6.199m0 36.464v6.192m0 36.48v6.184m0 36.465v6.206m0 36.458v6.206m0 36.465v6.199m0 36.465v6.192m0 36.472v6.251m0 36.464v6.207m0 36.457v6.207m0 36.465v6.184m0 36.479v6.192m0 36.472v6.155m39.718-774.164v6.2m0 36.464v6.207m0 36.457v6.192m0 36.472v6.2m0 36.471v6.192m0 36.465v6.199m0 36.465v6.199m0 36.464v6.192m0 36.48v6.184m0 36.465v6.206m0 36.458v6.206m0 36.465v6.199m0 36.465v6.192m0 36.472v6.251m0 36.464v6.207m0 36.457v6.207m0 36.465v6.184m0 36.479v6.192m0 36.472v6.155m39.738-91.512v6.185m0 36.479v6.192M519.503 45.09v6.2m0 36.471v6.192m0 36.465v6.199m0 36.465v6.199m0 36.464v6.192m0 36.48v6.184m0 36.465v6.206m0 36.458v6.206m0 36.465v6.199m0 36.465v6.192M559.22 45.09v6.2m0 36.471v6.192m0 36.465v6.199m0 36.465v6.199m0 36.464v6.192m0 36.48v6.184m0 36.465v6.206m0 36.458v6.206m0 36.465v6.199m0 36.465v6.192m-354.605-515h-5.777m5.763 42.649h-5.763m5.763 42.671h-5.763m5.777 42.664h-5.777m5.763 42.664h-5.763m5.763 42.671h-5.763m5.763 42.649h-5.763m5.763 42.664h-5.763m5.763 42.672h-5.763m5.763 42.664h-5.763m5.763 42.656h-5.763m5.763 42.664h-5.763m5.777 42.679h-5.777m5.763 42.671h-5.763m5.763 42.664h-5.763m5.763 42.656h-5.763m5.763 42.664h-5.763m5.777 42.627h-5.777m5.763 42.664h-5.763m45.494-767.913h-5.763m5.763 42.649h-5.763m5.763 42.671h-5.763m5.763 42.664h-5.763m5.763 42.664h-5.763m5.763 42.671h-5.763m5.763 42.649h-5.763m5.763 42.664h-5.763m5.763 42.672h-5.763m5.763 42.664h-5.763m5.763 42.656h-5.763m5.763 42.664h-5.763m5.763 42.679h-5.763m5.763 42.671h-5.763m5.763 42.664h-5.763m5.763 42.656h-5.763m5.763 42.664h-5.763m5.763 42.627h-5.763m5.763 42.664h-5.763m45.488-767.913h-5.77m5.77 42.649h-5.77m5.77 42.671h-5.77m5.77 42.664h-5.77m5.77 42.664h-5.77m5.77 42.671h-5.77m5.77 42.649h-5.77m5.77 42.664h-5.77m5.77 42.672h-5.77m5.77 42.664h-5.77m5.77 42.656h-5.77m5.77 42.664h-5.77m5.77 42.664h-5.77m5.77 42.671h-5.77m5.77 42.664h-5.77m5.77 42.657h-5.77m5.77 42.663h-5.77m5.77 42.664h-5.77m5.77 42.664h-5.77m45.487-767.935h-5.77m5.77 42.649h-5.77m5.77 42.671h-5.77m5.77 42.664h-5.77m5.77 42.664h-5.77m5.77 42.671h-5.77m5.77 42.649h-5.77m5.77 42.664h-5.77m5.77 42.672h-5.77m5.77 42.664h-5.77m5.77 42.656h-5.77m5.77 42.664h-5.77m5.77 42.664h-5.77m5.77 42.671h-5.77m5.77 42.664h-5.77m5.77 42.657h-5.77m5.77 42.663h-5.77m5.77 42.664h-5.77m5.77 42.664h-5.77m45.494-767.935h-5.77m5.77 42.649h-5.77m5.77 42.671h-5.77m5.77 42.664h-5.77m5.77 42.664h-5.77m5.77 42.671h-5.77m5.77 42.649h-5.77m5.77 42.664h-5.77m5.77 42.672h-5.77m5.77 42.664h-5.77m5.77 42.656h-5.77m5.77 42.664h-5.77m5.77 42.664h-5.77m5.77 42.671h-5.77m5.77 42.664h-5.77m5.77 42.657h-5.77m5.77 42.663h-5.77m5.77 42.664h-5.77m5.77 42.664h-5.77m45.488-767.935h-5.771m5.771 42.649h-5.771m5.771 42.671h-5.771m5.771 42.664h-5.771m5.771 42.664h-5.771m5.771 42.671h-5.771m5.771 42.649h-5.771m5.771 42.664h-5.771m5.771 42.672h-5.771m5.771 42.664h-5.771m5.771 42.656h-5.771m5.771 42.664h-5.771m5.771 42.664h-5.771m5.771 42.671h-5.771m5.771 42.664h-5.771m5.771 42.657h-5.771m5.771 42.663h-5.771m5.771 42.664h-5.771m5.771 42.664h-5.771m45.488-767.935h-5.736m5.77 42.649h-5.77m5.77 42.671h-5.77m5.77 42.664h-5.77m5.77 42.664h-5.77m5.77 42.671h-5.77m5.77 42.649h-5.77m5.77 42.664h-5.77m5.77 42.672h-5.77m5.77 42.664h-5.77m5.77 42.656h-5.77m5.77 42.664h-5.77m5.77 42.664h-5.77m5.77 42.671h-5.77m5.77 42.664h-5.77m5.77 42.657h-5.77m5.77 42.663h-5.77m5.77 42.664h-5.77m5.77 42.664h-5.77m45.46-767.935h-5.77m5.77 42.649h-5.77m5.77 42.671h-5.77m5.77 42.664h-5.77m5.77 42.664h-5.77m5.77 42.671h-5.77m5.77 42.649h-5.77m5.77 42.664h-5.77m5.77 42.672h-5.77m5.77 42.664h-5.77m5.77 42.656h-5.77m5.77 42.664h-5.77m5.77 42.664h-5.77m5.77 42.671h-5.77m5.77 42.664h-5.77m5.77 42.657h-5.77m5.77 42.663h-5.77m5.77 42.664h-5.77m5.77 42.664h-5.77m45.487-767.935h-5.77m5.77 42.649h-5.77m5.77 42.671h-5.77m5.77 42.664h-5.77m5.77 42.664h-5.77m5.77 42.671h-5.77m5.77 42.649h-5.77m5.77 42.664h-5.77m5.77 42.672h-5.77m5.77 42.664h-5.77m5.77 42.656h-5.77m5.77 42.664h-5.77m5.77 42.679h-5.77m5.77 42.656h-5.77m5.77 42.664h-5.77m5.77 42.657h-5.77m5.77 42.663h-5.77m5.77 42.642h-5.77m5.77 42.664h-5.77m45.488-767.913h-5.77m5.77 42.649h-5.77m5.77 42.671h-5.77m5.77 42.664h-5.77m5.77 42.664h-5.77m5.77 42.671h-5.77m5.77 42.649h-5.77m5.77 42.664h-5.77m5.77 42.672h-5.77m5.77 42.664h-5.77m5.77 42.656h-5.77m5.77 42.664h-5.77m5.77 42.664h-5.77m5.77 42.671h-5.77m5.77 42.664h-5.77m5.77 42.657h-5.77m5.77 42.663h-5.77m5.77 42.664h-5.77m5.77 42.664h-5.77" stroke="#939598" stroke-width=".83"/></g><defs><clipPath id="a"><path fill="#fff" transform="translate(0 .726)" d="M0 0h170v286H0z"/></clipPath></defs></svg>