<svg width="357" height="545" viewBox="0 0 357 545" fill="none" xmlns="http://www.w3.org/2000/svg">
<g clip-path="url(#clip0_60_259)">
<path d="M-60.3666 1366.45V1377.79M-60.3666 1444.56V1455.84V1444.58M12.3474 38.5144V49.8638M12.3474 116.623V127.986M12.3474 194.731V206.067M12.3474 272.854V284.284M12.3474 351.057V362.393M12.3474 429.138V440.501M12.3474 507.26V518.61M12.3474 585.369V596.705M12.3474 663.491V674.813M12.3474 741.572V752.935M12.3474 819.694V831.044V819.681M12.3474 897.803V909.152M12.3474 975.911V987.247M12.3474 1054.02V1065.37M12.3474 1132.13V1143.49M12.3474 1210.24V1221.6M12.3474 1288.35V1299.68M12.3474 1366.47V1377.8M12.3474 1444.58V1455.84M85.0237 38.609V49.9584M85.0237 116.718V128.08M85.0237 194.826V206.162M85.0237 272.948V284.284M85.0237 351.057V362.393M85.0237 429.138V440.501M85.0237 507.26V518.61M85.0237 585.369V596.705M85.0237 663.491V674.813M85.0237 741.572V752.935M85.0237 819.694V831.044V819.681M85.0237 897.83V909.179M85.0237 975.938V987.274M85.0237 1054.05V1065.37M85.0237 1132.13V1143.49M85.0237 1210.24V1221.6M85.0237 1288.35V1299.68M85.0237 1366.47V1377.8M85.0237 1444.58V1455.84M157.738 38.5144V49.8638M157.738 116.623V127.986M157.738 194.731V206.067M157.738 272.854V284.284M157.738 351.057V362.393M157.738 429.138V440.501M157.738 507.26V518.61M157.738 585.369V596.705M157.738 663.491V674.813M157.738 741.572V752.935M157.738 819.694V831.044V819.681M157.738 897.803V909.152M157.738 975.911V987.247M157.738 1054.02V1065.37M157.738 1132.13V1143.49M157.738 1210.24V1221.6M157.738 1288.35V1299.68M157.738 1366.47V1377.8M157.738 1444.58V1455.84M230.452 38.5144V49.8638M230.452 116.623V127.986M230.452 194.731V206.067M230.452 272.854V284.284M230.452 351.057V362.393M230.452 429.138V440.501M230.452 507.26V518.61M230.452 585.369V596.705M230.452 663.491V674.813M230.452 741.572V752.935M230.452 819.694V831.044V819.681M230.452 897.803V909.152M230.452 975.911V987.247M230.452 1054.02V1065.37M230.452 1132.13V1143.49M230.452 1210.24V1221.6M230.452 1288.35V1299.68M230.452 1366.47V1377.8M230.452 1444.58V1455.84M303.178 38.5144V49.8638M303.178 116.623V127.986M303.178 194.731V206.067M303.178 272.854V284.284M303.178 351.057V362.393M303.178 429.138V440.501M303.178 507.26V518.61M303.178 585.369V596.705M303.178 663.491V674.813M303.178 741.572V752.935M303.178 819.694V831.044V819.681M303.178 897.803V909.152M303.178 975.911V987.247M303.178 1054.02V1065.37M303.178 1132.13V1143.49M303.178 1210.24V1221.6M303.178 1288.35V1299.68M303.178 1366.47V1377.8M303.178 1444.58V1455.84M375.892 38.5144V49.8638M375.892 116.623V127.986M375.892 194.731V206.067M375.892 272.854V284.284M375.892 351.057V362.393M375.892 429.138V440.501M375.892 507.26V518.61M375.892 585.369V596.705M375.892 663.491V674.813M375.892 741.572V752.935M375.892 819.694V831.044M375.892 897.803V909.152M375.892 975.911V987.247M375.892 1054.02V1065.37M375.892 1132.13V1143.49M375.892 1210.24V1221.6M375.892 1288.35V1299.68M375.892 1366.47V1377.8M375.892 1444.58V1455.84M448.606 38.5144V49.8638M448.606 116.623V127.986M448.606 194.731V206.067M448.606 272.854V284.284M448.606 351.057V362.393M448.606 429.138V440.501M448.606 507.26V518.61M448.606 585.369V596.705M448.606 663.491V674.813M448.606 741.572V752.935M448.606 819.694V831.044M448.606 897.803V909.152M448.606 975.911V987.247M448.606 1054.02V1065.37M448.606 1132.13V1143.49M448.606 1210.24V1221.6M448.606 1288.35V1299.68M448.606 1366.47V1377.8M448.606 1444.58V1455.84M521.408 38.609V49.9584M521.408 116.718V128.08M521.408 194.826V206.162M521.408 272.948V284.284V272.935M521.408 351.057V362.393M521.408 429.138V440.501V429.152M521.408 507.26V518.61M521.408 585.369V596.705M521.408 663.491V674.813M521.408 741.572V752.935M521.408 819.694V831.044V819.681M521.408 897.83V909.179M521.408 975.938V987.274M521.408 1054.05V1065.37M521.408 1132.13V1143.49M521.408 1210.24V1221.6M521.408 1288.35V1299.68M521.408 1366.47V1377.8M521.408 1444.58V1455.84V1444.52M594.122 38.5144V49.8638M594.122 116.623V127.986M594.122 194.731V206.067M594.122 272.854V284.284M594.122 351.057V362.393M594.122 429.138V440.501M594.122 507.26V518.61M594.122 585.369V596.705M594.122 663.491V674.813M594.122 741.572V752.935M594.122 819.694V831.044M594.122 897.803V909.152M594.122 975.911V987.247M594.122 1054.02V1065.37V1053.93M594.122 1132.13V1143.49M594.122 1210.24V1221.6M594.122 1288.35V1299.68V1288.36M594.122 1366.47V1377.8M594.122 1444.58V1455.84M666.836 38.5144V49.8638M666.836 116.623V127.986M666.836 194.731V206.067M666.836 272.854V284.284M666.836 351.057V362.393M666.836 429.138V440.501M666.836 507.26V518.61M666.836 585.369V596.705M666.836 663.491V674.813M666.836 741.572V752.935M666.836 819.694V831.044M666.836 897.803V909.152M666.836 975.911V987.247M666.836 1054.02V1065.37V1053.93M666.836 1132.13V1143.49M666.836 1210.24V1221.6M666.836 1288.35V1299.68V1288.36M666.836 1366.47V1377.8M666.836 1444.58V1455.84M-60.3666 38.609V49.9584M-60.3666 116.718V128.08M-60.3666 194.826V206.162M-60.3666 272.948V284.284M-60.3666 351.057V362.393M-60.3666 429.138V440.501M-60.3666 507.26V518.61M-60.3666 585.369V596.705M-60.3666 663.491V674.813M-60.3666 741.572V752.935M-60.3666 819.681V831.044M-60.3666 897.803V909.152M-60.3666 975.911V987.247M-60.3666 1054.02V1065.37M-60.3666 1132.13V1143.49M-60.3666 1210.24V1221.6M-60.3666 1288.35V1299.68M-60.3666 1366.47V1377.8M303.229 1444.56V1455.84M375.943 38.5144V49.8638M375.943 116.623V127.986M375.943 194.731V206.067M375.943 272.84V284.189M375.943 350.962V362.298M375.943 429.057V440.407M375.943 507.166V518.515M375.943 585.274V596.61M375.943 663.396V674.719M375.943 741.478V752.841M375.943 819.586V830.949M375.943 897.708V909.058M375.943 975.817V987.153M375.943 1053.93V1065.37M375.943 1132.13V1143.49M375.943 1210.24V1221.6M375.943 1288.36V1299.68M375.943 1366.47V1377.8M375.943 1444.58V1455.84M448.657 38.5144V49.8638M448.657 116.623V127.986M448.657 194.731V206.067M448.657 272.84V284.189M448.657 350.962V362.298M448.657 429.057V440.407M448.657 507.166V518.515M448.657 585.274V596.61M448.657 663.396V674.719M448.657 741.478V752.841M448.657 819.586V830.949M448.657 897.708V909.058M448.657 975.817V987.153M448.657 1053.93V1065.37M448.657 1132.13V1143.49M448.657 1210.24V1221.6M448.657 1288.36V1299.68M448.657 1366.47V1377.8M448.657 1444.58V1455.84M521.408 1288.31V1299.63M521.408 1366.41V1377.75M594.122 272.84V284.189M594.122 350.962V362.298M594.122 429.057V440.407M594.122 507.166V518.515M594.122 585.274V596.61M594.122 663.396V674.719M594.122 741.478V752.841M594.122 819.586V830.949M594.122 897.708V909.058M594.122 975.817V987.153M666.836 272.84V284.189M666.836 350.962V362.298M666.836 429.057V440.407M666.836 507.166V518.515M666.836 585.274V596.61M666.836 663.396V674.719M666.836 741.478V752.841M666.836 819.586V830.949M666.836 897.708V909.058M666.836 975.817V987.153M-55.0847 44.2972H-65.6484M-55.0847 122.379H-65.6484M-55.0847 200.501H-65.6484M-55.0847 278.609H-65.6484M-55.0847 356.718H-65.6484M-55.0847 434.84H-65.6484M-55.0847 512.921H-65.6484M-55.0847 591.03H-65.6484M-55.0847 669.152H-65.6484M-55.0847 747.261H-65.6484M-55.0847 825.356H-65.6484M-55.0847 903.464H-65.6484M-55.0847 981.6H-65.6484M-55.0847 1059.72H-65.6484M-55.0847 1137.83H-65.6484M-55.0847 1215.93H-65.6484M-55.0847 1294.03H-65.6484M-55.0847 1372.07H-65.6484M-55.0847 1450.18H-65.6484M17.6293 44.2973H7.05298M17.6042 122.379H7.05298M17.6042 200.501H7.05298M17.6293 278.609H7.05298M17.6042 356.718H7.05298M17.6042 434.84H7.05298M17.6042 512.921H7.05298M17.6042 591.03H7.05298M17.6042 669.152H7.05298M17.6042 747.261H7.05298M17.6042 825.356H7.05298M17.6042 903.464H7.05298M17.6293 981.6H7.05298M17.6042 1059.72H7.05298M17.6042 1137.83H7.05298M17.6042 1215.93H7.05298M17.6042 1294.03H7.05298M17.6293 1372.07H7.05298M17.6042 1450.18H7.05298M90.3433 44.2973H79.7921M90.3433 122.379H79.7921M90.3433 200.501H79.7921M90.3433 278.609H79.7921M90.3433 356.718H79.7921M90.3433 434.84H79.7921M90.3433 512.921H79.7921M90.3433 591.03H79.7921M90.3433 669.152H79.7921M90.3433 747.261H79.7921M90.3433 825.356H79.7921M90.3433 903.464H79.7921M90.3433 981.6H79.7921M90.3433 1059.72H79.7921M90.3433 1137.83H79.7921M90.3433 1215.93H79.7921M90.3433 1294.03H79.7921M90.3433 1372.07H79.7921M90.3433 1450.18H79.7921M163.07 44.2973H152.506M163.07 122.379H152.506M163.07 200.501H152.506M163.07 278.609H152.506M163.07 356.718H152.506M163.07 434.84H152.506M163.07 512.921H152.506M163.07 591.03H152.506M163.07 669.152H152.506M163.07 747.261H152.506M163.07 825.356H152.506M163.07 903.464H152.506M163.07 981.573H152.506M163.07 1059.69H152.506M163.07 1137.8H152.506M163.07 1215.9H152.506M163.07 1294.01H152.506M163.07 1372.12H152.506M163.07 1450.22H152.506M235.784 44.2973H225.22M235.784 122.379H225.22M235.784 200.501H225.22M235.784 278.609H225.22M235.784 356.718H225.22M235.784 434.84H225.22M235.784 512.921H225.22M235.784 591.03H225.22M235.784 669.152H225.22M235.784 747.261H225.22M235.784 825.356H225.22M235.784 903.464H225.22M235.784 981.573H225.22M235.784 1059.69H225.22M235.784 1137.8H225.22M235.784 1215.9H225.22M235.784 1294.01H225.22M235.784 1372.12H225.22M235.784 1450.22H225.22M308.51 44.2973H297.947M308.51 122.379H297.947M308.51 200.501H297.947M308.51 278.609H297.947M308.51 356.718H297.947M308.51 434.84H297.947M308.51 512.921H297.947M308.51 591.03H297.947M308.51 669.152H297.947M308.51 747.261H297.947M308.51 825.356H297.947M308.51 903.464H297.947M308.51 981.573H297.947M308.51 1059.69H297.947M308.51 1137.8H297.947M308.51 1215.9H297.947M308.51 1294.01H297.947M308.51 1372.12H297.947M308.51 1450.22H297.947M381.224 44.2973H370.661M381.224 122.379H370.661M381.224 200.501H370.661M381.224 278.609H370.661M381.224 356.718H370.661M381.224 434.84H370.661M381.224 512.921H370.661M381.224 591.03H370.661M381.224 669.152H370.661M381.224 747.261H370.661M381.224 825.356H370.661M381.224 903.464H370.661M381.224 981.573H370.661M381.224 1059.69H370.661M381.224 1137.8H370.661M381.224 1215.9H370.661M381.224 1294.01H370.661M381.224 1372.12H370.661M381.224 1450.22H370.661M453.938 44.2973H443.438M454.001 122.379H443.438M454.001 200.501H443.438M454.001 278.609H443.438M454.001 356.718H443.438M454.001 434.84H443.438M454.001 512.921H443.438M454.001 591.03H443.438M454.001 669.152H443.438M454.001 747.261H443.438M454.001 825.356H443.438M454.001 903.464H443.438M454.001 981.573H443.438M454.001 1059.69H443.438M454.001 1137.8H443.438M454.001 1215.9H443.438M454.001 1294.01H443.438M454.001 1372.12H443.438M454.001 1450.22H443.438M526.665 44.2973H516.101M526.665 122.379H516.101M526.665 200.501H516.101M526.665 278.609H516.101M526.665 356.718H516.101M526.665 434.84H516.101M526.665 512.921H516.101M526.665 591.03H516.101M526.665 669.152H516.101M526.665 747.261H516.101M526.665 825.356H516.101M526.665 903.464H516.101M526.665 981.573H516.101M526.665 1059.69H516.101M526.665 1137.8H516.101M526.665 1215.9H516.101M526.665 1294.01H516.101M526.665 1372.12H516.101M526.665 1450.22H516.101M599.379 44.2973H588.815M599.379 122.379H588.815M599.379 200.501H588.815M599.379 278.609H588.815M599.379 356.718H588.815M599.379 434.84H588.815M599.379 512.921H588.815M599.379 591.03H588.815M599.379 669.152H588.815M599.379 747.261H588.815M599.379 825.356H588.815M599.379 903.464H588.815M599.379 981.6H588.815M599.379 1059.69H588.815M599.379 1137.8H588.815M599.379 1215.9H588.815M599.379 1294.01H588.815M599.379 1372.07H588.815M599.379 1450.18H588.815M672.093 44.2973H661.529M672.093 122.379H661.529M672.093 200.501H661.529M672.093 278.609H661.529M672.093 356.718H661.529M672.093 434.84H661.529M672.093 512.921H661.529M672.093 591.03H661.529M672.093 669.152H661.529M672.093 747.261H661.529M672.093 825.356H661.529M672.093 903.464H661.529M672.093 981.573H661.529M672.093 1059.69H661.529M672.093 1137.8H661.529M672.093 1215.9H661.529M672.093 1294.01H661.529M672.093 1372.12H661.529M672.093 1450.22H661.529M739.236 38.5144V49.8638M739.236 116.623V127.986M739.236 194.731V206.067M739.236 272.854V284.284M739.236 351.057V362.393M739.236 429.138V440.501M739.236 507.26V518.61M739.236 585.369V596.705M739.236 663.491V674.813M739.236 741.572V752.935M739.236 819.694V831.044V819.681M739.236 897.803V909.152M739.236 975.911V987.247M739.236 1054.02V1065.37M739.236 1132.13V1143.49M739.236 1210.24V1221.6M739.236 1288.35V1299.68M739.236 1366.47V1377.8M739.236 1444.58V1455.84M811.912 38.609V49.9584M811.912 116.718V128.08M811.912 194.826V206.162M811.912 272.948V284.284M811.912 351.057V362.393M811.912 429.138V440.501M811.912 507.26V518.61M811.912 585.369V596.705M811.912 663.491V674.813M811.912 741.572V752.935M811.912 819.694V831.044V819.681M811.912 897.83V909.179M811.912 975.938V987.274M811.912 1054.05V1065.37M811.912 1132.13V1143.49M811.912 1210.24V1221.6M811.912 1288.35V1299.68M811.912 1366.47V1377.8M811.912 1444.58V1455.84M884.626 38.5144V49.8638M884.626 116.623V127.986M884.626 194.731V206.067M884.626 272.854V284.284M884.626 351.057V362.393M884.626 429.138V440.501M884.626 507.26V518.61M884.626 585.369V596.705M884.626 663.491V674.813M884.626 741.572V752.935M884.626 819.694V831.044V819.681M884.626 897.803V909.152M884.626 975.911V987.247M884.626 1054.02V1065.37M884.626 1132.13V1143.49M884.626 1210.24V1221.6M884.626 1288.35V1299.68M884.626 1366.47V1377.8M884.626 1444.58V1455.84M957.34 38.5144V49.8638M957.34 116.623V127.986M957.34 194.731V206.067M957.34 272.854V284.284M957.34 351.057V362.393M957.34 429.138V440.501M957.34 507.26V518.61M957.34 585.369V596.705M957.34 663.491V674.813M957.34 741.572V752.935M957.34 819.694V831.044V819.681M957.34 897.803V909.152M957.34 975.911V987.247M957.34 1054.02V1065.37M957.34 1132.13V1143.49M957.34 1210.24V1221.6M957.34 1288.35V1299.68M957.34 1366.47V1377.8M957.34 1444.58V1455.84M1030.07 38.5144V49.8638M1030.07 116.623V127.986M1030.07 194.731V206.067M1030.07 272.854V284.284M1030.07 351.057V362.393M1030.07 429.138V440.501M1030.07 507.26V518.61M1030.07 585.369V596.705M1030.07 663.491V674.813M1030.07 741.572V752.935M1030.07 819.694V831.044V819.681M1030.07 897.803V909.152M1030.07 975.911V987.247M1030.07 1054.02V1065.37M1030.07 1132.13V1143.49M1030.07 1210.24V1221.6M1030.07 1288.35V1299.68M1030.07 1366.47V1377.8M1030.07 1444.58V1455.84M1102.78 38.5144V49.8638M1102.78 116.623V127.986M1102.78 194.731V206.067M1102.78 272.854V284.284M1102.78 351.057V362.393M1102.78 429.138V440.501M1102.78 507.26V518.61M1102.78 585.369V596.705M1102.78 663.491V674.813M1102.78 741.572V752.935M1102.78 819.694V831.044M1102.78 897.803V909.152M1102.78 975.911V987.247M1102.78 1054.02V1065.37M1102.78 1132.13V1143.49M1102.78 1210.24V1221.6M1102.78 1288.35V1299.68M1102.78 1366.47V1377.8M1102.78 1444.58V1455.84M1175.49 38.5144V49.8638M1175.49 116.623V127.986M1175.49 194.731V206.067M1175.49 272.854V284.284M1175.49 351.057V362.393M1175.49 429.138V440.501M1175.49 507.26V518.61M1175.49 585.369V596.705M1175.49 663.491V674.813M1175.49 741.572V752.935M1175.49 819.694V831.044M1175.49 897.803V909.152M1175.49 975.911V987.247M1175.49 1054.02V1065.37M1175.49 1132.13V1143.49M1175.49 1210.24V1221.6M1175.49 1288.35V1299.68M1175.49 1366.47V1377.8M1175.49 1444.58V1455.84M1248.3 38.609V49.9584M1248.3 116.718V128.08M1248.3 194.826V206.162M1248.3 272.948V284.284V272.935M1248.3 351.057V362.393M1248.3 429.138V440.501V429.152M1248.3 507.26V518.61M1248.3 585.369V596.705M1248.3 663.491V674.813M1248.3 741.572V752.935M1248.3 819.694V831.044V819.681M1248.3 897.83V909.179M1248.3 975.938V987.274M1248.3 1054.05V1065.37M1248.3 1132.13V1143.49M1248.3 1210.24V1221.6M1248.3 1288.35V1299.68M1248.3 1366.47V1377.8M1248.3 1444.58V1455.84V1444.52M1321.01 38.5144V49.8638M1321.01 116.623V127.986M1321.01 194.731V206.067M1321.01 272.854V284.284M1321.01 351.057V362.393M1321.01 429.138V440.501M1321.01 507.26V518.61M1321.01 585.369V596.705M1321.01 663.491V674.813M1321.01 741.572V752.935M1321.01 819.694V831.044M1321.01 897.803V909.152M1321.01 975.911V987.247M1321.01 1054.02V1065.37V1053.93M1321.01 1132.13V1143.49M1321.01 1210.24V1221.6M1321.01 1288.35V1299.68V1288.36M1321.01 1366.47V1377.8M1321.01 1444.58V1455.84M1393.72 38.5144V49.8638M1393.72 116.623V127.986M1393.72 194.731V206.067M1393.72 272.854V284.284M1393.72 351.057V362.393M1393.72 429.138V440.501M1393.72 507.26V518.61M1393.72 585.369V596.705M1393.72 663.491V674.813M1393.72 741.572V752.935M1393.72 819.694V831.044M1393.72 897.803V909.152M1393.72 975.911V987.247M1393.72 1054.02V1065.37V1053.93M1393.72 1132.13V1143.49M1393.72 1210.24V1221.6M1393.72 1288.35V1299.68V1288.36M1393.72 1366.47V1377.8M1393.72 1444.58V1455.84M1030.12 1444.56V1455.84M1102.83 38.5144V49.8638M1102.83 116.623V127.986M1102.83 194.731V206.067M1102.83 272.84V284.189M1102.83 350.962V362.298M1102.83 429.057V440.407M1102.83 507.166V518.515M1102.83 585.274V596.61M1102.83 663.396V674.719M1102.83 741.478V752.841M1102.83 819.586V830.949M1102.83 897.708V909.058M1102.83 975.817V987.153M1102.83 1053.93V1065.37M1102.83 1132.13V1143.49M1102.83 1210.24V1221.6M1102.83 1288.36V1299.68M1102.83 1366.47V1377.8M1102.83 1444.58V1455.84M1175.55 38.5144V49.8638M1175.55 116.623V127.986M1175.55 194.731V206.067M1175.55 272.84V284.189M1175.55 350.962V362.298M1175.55 429.057V440.407M1175.55 507.166V518.515M1175.55 585.274V596.61M1175.55 663.396V674.719M1175.55 741.478V752.841M1175.55 819.586V830.949M1175.55 897.708V909.058M1175.55 975.817V987.153M1175.55 1053.93V1065.37M1175.55 1132.13V1143.49M1175.55 1210.24V1221.6M1175.55 1288.36V1299.68M1175.55 1366.47V1377.8M1175.55 1444.58V1455.84M1248.3 1288.31V1299.63M1248.3 1366.41V1377.75M1321.01 272.84V284.189M1321.01 350.962V362.298M1321.01 429.057V440.407M1321.01 507.166V518.515M1321.01 585.274V596.61M1321.01 663.396V674.719M1321.01 741.478V752.841M1321.01 819.586V830.949M1321.01 897.708V909.058M1321.01 975.817V987.153M1393.72 272.84V284.189M1393.72 350.962V362.298M1393.72 429.057V440.407M1393.72 507.166V518.515M1393.72 585.274V596.61M1393.72 663.396V674.719M1393.72 741.478V752.841M1393.72 819.586V830.949M1393.72 897.708V909.058M1393.72 975.817V987.153M744.518 44.2973H733.941M744.493 122.379H733.941M744.493 200.501H733.941M744.518 278.609H733.941M744.493 356.718H733.941M744.493 434.84H733.941M744.493 512.921H733.941M744.493 591.03H733.941M744.493 669.152H733.941M744.493 747.261H733.941M744.493 825.356H733.941M744.493 903.464H733.941M744.518 981.6H733.941M744.493 1059.72H733.941M744.493 1137.83H733.941M744.493 1215.93H733.941M744.493 1294.03H733.941M744.518 1372.07H733.941M744.493 1450.18H733.941M817.232 44.2973H806.681M817.232 122.379H806.681M817.232 200.501H806.681M817.232 278.609H806.681M817.232 356.718H806.681M817.232 434.84H806.681M817.232 512.921H806.681M817.232 591.03H806.681M817.232 669.152H806.681M817.232 747.261H806.681M817.232 825.356H806.681M817.232 903.464H806.681M817.232 981.6H806.681M817.232 1059.72H806.681M817.232 1137.83H806.681M817.232 1215.93H806.681M817.232 1294.03H806.681M817.232 1372.07H806.681M817.232 1450.18H806.681M889.958 44.2973H879.395M889.958 122.379H879.395M889.958 200.501H879.395M889.958 278.609H879.395M889.958 356.718H879.395M889.958 434.84H879.395M889.958 512.921H879.395M889.958 591.03H879.395M889.958 669.152H879.395M889.958 747.261H879.395M889.958 825.356H879.395M889.958 903.464H879.395M889.958 981.573H879.395M889.958 1059.69H879.395M889.958 1137.8H879.395M889.958 1215.9H879.395M889.958 1294.01H879.395M889.958 1372.12H879.395M889.958 1450.22H879.395M962.672 44.2973H952.109M962.672 122.379H952.109M962.672 200.501H952.109M962.672 278.609H952.109M962.672 356.718H952.109M962.672 434.84H952.109M962.672 512.921H952.109M962.672 591.03H952.109M962.672 669.152H952.109M962.672 747.261H952.109M962.672 825.356H952.109M962.672 903.464H952.109M962.672 981.573H952.109M962.672 1059.69H952.109M962.672 1137.8H952.109M962.672 1215.9H952.109M962.672 1294.01H952.109M962.672 1372.12H952.109M962.672 1450.22H952.109M1035.4 44.2973H1024.84M1035.4 122.379H1024.84M1035.4 200.501H1024.84M1035.4 278.609H1024.84M1035.4 356.718H1024.84M1035.4 434.84H1024.84M1035.4 512.921H1024.84M1035.4 591.03H1024.84M1035.4 669.152H1024.84M1035.4 747.261H1024.84M1035.4 825.356H1024.84M1035.4 903.464H1024.84M1035.4 981.573H1024.84M1035.4 1059.69H1024.84M1035.4 1137.8H1024.84M1035.4 1215.9H1024.84M1035.4 1294.01H1024.84M1035.4 1372.12H1024.84M1035.4 1450.22H1024.84M1108.11 44.2973H1097.55M1108.11 122.379H1097.55M1108.11 200.501H1097.55M1108.11 278.609H1097.55M1108.11 356.718H1097.55M1108.11 434.84H1097.55M1108.11 512.921H1097.55M1108.11 591.03H1097.55M1108.11 669.152H1097.55M1108.11 747.261H1097.55M1108.11 825.356H1097.55M1108.11 903.464H1097.55M1108.11 981.573H1097.55M1108.11 1059.69H1097.55M1108.11 1137.8H1097.55M1108.11 1215.9H1097.55M1108.11 1294.01H1097.55M1108.11 1372.12H1097.55M1108.11 1450.22H1097.55M1180.83 44.2973H1170.33M1180.89 122.379H1170.33M1180.89 200.501H1170.33M1180.89 278.609H1170.33M1180.89 356.718H1170.33M1180.89 434.84H1170.33M1180.89 512.921H1170.33M1180.89 591.03H1170.33M1180.89 669.152H1170.33M1180.89 747.261H1170.33M1180.89 825.356H1170.33M1180.89 903.464H1170.33M1180.89 981.573H1170.33M1180.89 1059.69H1170.33M1180.89 1137.8H1170.33M1180.89 1215.9H1170.33M1180.89 1294.01H1170.33M1180.89 1372.12H1170.33M1180.89 1450.22H1170.33M1253.55 44.2973H1242.99M1253.55 122.379H1242.99M1253.55 200.501H1242.99M1253.55 278.609H1242.99M1253.55 356.718H1242.99M1253.55 434.84H1242.99M1253.55 512.921H1242.99M1253.55 591.03H1242.99M1253.55 669.152H1242.99M1253.55 747.261H1242.99M1253.55 825.356H1242.99M1253.55 903.464H1242.99M1253.55 981.573H1242.99M1253.55 1059.69H1242.99M1253.55 1137.8H1242.99M1253.55 1215.9H1242.99M1253.55 1294.01H1242.99M1253.55 1372.12H1242.99M1253.55 1450.22H1242.99M1326.27 44.2973H1315.7M1326.27 122.379H1315.7M1326.27 200.501H1315.7M1326.27 278.609H1315.7M1326.27 356.718H1315.7M1326.27 434.84H1315.7M1326.27 512.921H1315.7M1326.27 591.03H1315.7M1326.27 669.152H1315.7M1326.27 747.261H1315.7M1326.27 825.356H1315.7M1326.27 903.464H1315.7M1326.27 981.6H1315.7M1326.27 1059.69H1315.7M1326.27 1137.8H1315.7M1326.27 1215.9H1315.7M1326.27 1294.01H1315.7M1326.27 1372.07H1315.7M1326.27 1450.18H1315.7M1398.98 44.2973H1388.42M1398.98 122.379H1388.42M1398.98 200.501H1388.42M1398.98 278.609H1388.42M1398.98 356.718H1388.42M1398.98 434.84H1388.42M1398.98 512.921H1388.42M1398.98 591.03H1388.42M1398.98 669.152H1388.42M1398.98 747.261H1388.42M1398.98 825.356H1388.42M1398.98 903.464H1388.42M1398.98 981.573H1388.42M1398.98 1059.69H1388.42M1398.98 1137.8H1388.42M1398.98 1215.9H1388.42M1398.98 1294.01H1388.42M1398.98 1372.12H1388.42M1398.98 1450.22H1388.42" stroke="#939598" stroke-width="0.83"/>
</g>
<defs>
<clipPath id="clip0_60_259">
<rect width="357" height="545" fill="white"/>
</clipPath>
</defs>
</svg>
