<svg width="454" height="611" viewBox="0 0 454 611" fill="none" xmlns="http://www.w3.org/2000/svg">
<g clip-path="url(#clip0_65_455)">
<path d="M-873.313 63.3858L-884.649 63.3858M-951.421 63.3858L-962.703 63.3858L-951.435 63.3858M454.627 136.1L443.278 136.1M376.518 136.1L365.155 136.1M298.41 136.1L287.074 136.1M220.288 136.1L208.857 136.1M142.085 136.1L130.749 136.1M64.0032 136.1L52.6402 136.1M-14.1188 136.1L-25.4683 136.1M-92.2274 136.1L-103.563 136.1M-170.349 136.1L-181.672 136.1M-248.431 136.1L-259.794 136.1M-326.553 136.1L-337.902 136.1L-326.54 136.1M-404.661 136.1L-416.011 136.1M-482.77 136.1L-494.106 136.1M-560.879 136.1L-572.228 136.1M-638.987 136.1L-650.35 136.1M-717.096 136.1L-728.459 136.1M-795.204 136.1L-806.54 136.1M-873.326 136.1L-884.662 136.1M-951.435 136.1L-962.703 136.1M454.532 208.776L443.183 208.776M376.424 208.776L365.061 208.776M298.315 208.776L286.979 208.776M220.193 208.776L208.857 208.776M142.085 208.776L130.749 208.776M64.0032 208.776L52.6402 208.776M-14.1188 208.776L-25.4683 208.776M-92.2274 208.776L-103.563 208.776M-170.349 208.776L-181.672 208.776M-248.431 208.776L-259.794 208.776M-326.553 208.776L-337.902 208.776L-326.54 208.776M-404.689 208.776L-416.038 208.776M-482.797 208.776L-494.133 208.776M-560.906 208.776L-572.228 208.776M-638.987 208.776L-650.35 208.776M-717.096 208.776L-728.459 208.776M-795.204 208.776L-806.54 208.776M-873.326 208.776L-884.662 208.776M-951.435 208.776L-962.703 208.776M454.627 281.49L443.278 281.49M376.518 281.49L365.155 281.49M298.41 281.49L287.074 281.49M220.288 281.49L208.857 281.49M142.085 281.49L130.749 281.49M64.0032 281.49L52.6402 281.49M-14.1188 281.49L-25.4683 281.49M-92.2274 281.49L-103.563 281.49M-170.349 281.49L-181.672 281.49M-248.431 281.49L-259.794 281.49M-326.553 281.49L-337.902 281.49L-326.54 281.49M-404.661 281.49L-416.011 281.49M-482.77 281.49L-494.106 281.49M-560.879 281.49L-572.228 281.49M-638.987 281.49L-650.35 281.49M-717.096 281.49L-728.459 281.49M-795.204 281.49L-806.54 281.49M-873.326 281.49L-884.662 281.49M-951.435 281.49L-962.703 281.49M454.627 354.204L443.277 354.204M376.518 354.204L365.155 354.204M298.41 354.204L287.074 354.204M220.288 354.204L208.857 354.204M142.085 354.204L130.749 354.204M64.0032 354.204L52.6402 354.204M-14.1188 354.204L-25.4683 354.204M-92.2274 354.204L-103.563 354.204M-170.349 354.204L-181.672 354.204M-248.431 354.204L-259.794 354.204M-326.553 354.204L-337.902 354.204L-326.54 354.204M-404.661 354.204L-416.011 354.204M-482.77 354.204L-494.106 354.204M-560.879 354.204L-572.228 354.204M-638.987 354.204L-650.35 354.204M-717.096 354.204L-728.459 354.204M-795.204 354.204L-806.54 354.204M-873.326 354.204L-884.662 354.204M-951.435 354.204L-962.703 354.204M454.627 426.931L443.277 426.931M376.518 426.931L365.155 426.931M298.41 426.931L287.074 426.931M220.288 426.931L208.857 426.931M142.085 426.931L130.749 426.931M64.0032 426.931L52.6402 426.931M-14.1188 426.931L-25.4683 426.931M-92.2274 426.931L-103.563 426.931M-170.349 426.931L-181.672 426.931M-248.431 426.931L-259.794 426.931M-326.553 426.931L-337.902 426.931L-326.54 426.931M-404.661 426.931L-416.011 426.931M-482.77 426.931L-494.106 426.931M-560.879 426.931L-572.228 426.931M-638.987 426.931L-650.35 426.931M-717.096 426.931L-728.459 426.931M-795.204 426.931L-806.54 426.931M-873.326 426.931L-884.662 426.931M-951.435 426.931L-962.703 426.931M454.627 499.645L443.277 499.645M376.518 499.645L365.155 499.645M298.41 499.645L287.074 499.645M220.288 499.645L208.857 499.645M142.085 499.645L130.749 499.645M64.0032 499.645L52.6402 499.645M-14.1188 499.645L-25.4683 499.645M-92.2274 499.645L-103.563 499.645M-170.349 499.645L-181.672 499.645M-248.431 499.645L-259.794 499.645M-326.553 499.645L-337.902 499.645M-404.661 499.645L-416.011 499.645M-482.77 499.645L-494.106 499.645M-560.879 499.645L-572.228 499.645M-638.987 499.645L-650.35 499.645M-717.096 499.645L-728.459 499.645M-795.204 499.645L-806.54 499.645M-873.326 499.645L-884.662 499.645M-951.435 499.645L-962.703 499.645M454.627 572.359L443.277 572.359M376.518 572.359L365.155 572.359M298.41 572.359L287.074 572.359M220.288 572.359L208.857 572.359M142.085 572.359L130.749 572.359M64.0032 572.359L52.6402 572.359M-14.1189 572.359L-25.4683 572.359M-92.2274 572.359L-103.563 572.359M-170.349 572.359L-181.672 572.359M-248.431 572.359L-259.794 572.359M-326.553 572.359L-337.902 572.359M-404.661 572.359L-416.011 572.359M-482.77 572.359L-494.106 572.359M-560.879 572.359L-572.228 572.359M-638.987 572.359L-650.35 572.359M-717.096 572.359L-728.459 572.359M-795.204 572.359L-806.54 572.359M-873.326 572.359L-884.662 572.359M-951.435 572.359L-962.703 572.359M454.532 645.161L443.183 645.161M376.424 645.161L365.061 645.161M298.315 645.161L286.979 645.161M220.193 645.161L208.857 645.161L220.207 645.161M142.085 645.161L130.749 645.161M64.0032 645.161L52.6402 645.161L63.9897 645.161M-14.1189 645.161L-25.4683 645.161M-92.2274 645.161L-103.563 645.161M-170.349 645.161L-181.672 645.161M-248.431 645.161L-259.794 645.161M-326.553 645.161L-337.902 645.161L-326.54 645.161M-404.689 645.161L-416.038 645.161M-482.797 645.161L-494.133 645.161M-560.906 645.161L-572.228 645.161M-638.987 645.161L-650.35 645.161M-717.096 645.161L-728.459 645.161M-795.204 645.161L-806.54 645.161M-873.326 645.161L-884.662 645.161M-951.435 645.161L-962.703 645.161L-951.381 645.161M454.627 717.875L443.277 717.875M376.518 717.875L365.155 717.875M298.41 717.875L287.074 717.875M220.288 717.875L208.857 717.875M142.085 717.875L130.749 717.875M64.0032 717.875L52.6402 717.875M-14.1189 717.875L-25.4683 717.875M-92.2274 717.875L-103.563 717.875M-170.349 717.875L-181.672 717.875M-248.431 717.875L-259.794 717.875M-326.553 717.875L-337.902 717.875M-404.662 717.875L-416.011 717.875M-482.77 717.875L-494.106 717.875M-560.879 717.875L-572.228 717.875L-560.784 717.875M-638.987 717.875L-650.35 717.875M-717.096 717.875L-728.459 717.875M-795.204 717.875L-806.54 717.875L-795.218 717.875M-873.326 717.875L-884.662 717.875M-951.435 717.875L-962.703 717.875M454.627 790.589L443.277 790.589M376.518 790.589L365.155 790.589M298.41 790.589L287.074 790.589M220.288 790.589L208.857 790.589M142.085 790.589L130.749 790.589M64.0032 790.589L52.6402 790.589M-14.1189 790.589L-25.4683 790.589M-92.2274 790.589L-103.563 790.589M-170.349 790.589L-181.672 790.589M-248.431 790.589L-259.794 790.589M-326.553 790.589L-337.902 790.589M-404.662 790.589L-416.011 790.589M-482.77 790.589L-494.106 790.589M-560.879 790.589L-572.228 790.589L-560.784 790.589M-638.987 790.589L-650.35 790.589M-717.096 790.589L-728.459 790.589M-795.204 790.589L-806.54 790.589L-795.218 790.589M-873.326 790.589L-884.662 790.589M-951.435 790.589L-962.703 790.589M454.532 63.3859L443.183 63.3859M376.424 63.3859L365.061 63.3859M298.315 63.3859L286.979 63.3859M220.193 63.3859L208.857 63.3859M142.085 63.3859L130.749 63.3859M64.0032 63.3859L52.6402 63.3859M-14.1188 63.3859L-25.4683 63.3859M-92.2274 63.3859L-103.563 63.3859M-170.349 63.3859L-181.672 63.3859M-248.431 63.3859L-259.794 63.3859M-326.54 63.3859L-337.902 63.3859M-404.661 63.3859L-416.011 63.3859M-482.77 63.3858L-494.106 63.3858M-560.879 63.3858L-572.228 63.3858M-638.987 63.3858L-650.35 63.3858M-717.096 63.3858L-728.459 63.3858M-795.204 63.3858L-806.54 63.3858M-873.326 63.3858L-884.662 63.3858M-951.421 426.981L-962.703 426.981M454.627 499.695L443.277 499.695M376.518 499.695L365.155 499.695M298.41 499.695L287.074 499.695M220.301 499.695L208.952 499.695M142.179 499.695L130.843 499.695M64.0843 499.695L52.7348 499.695M-14.0243 499.695L-25.3738 499.695M-92.1328 499.695L-103.469 499.695M-170.255 499.695L-181.577 499.695M-248.336 499.695L-259.699 499.695M-326.445 499.695L-337.808 499.695M-404.567 499.695L-415.916 499.695M-482.675 499.695L-494.011 499.695M-560.784 499.695L-572.228 499.695M-638.987 499.695L-650.35 499.695M-717.096 499.695L-728.459 499.695M-795.218 499.695L-806.54 499.695M-873.326 499.695L-884.662 499.695M-951.435 499.695L-962.703 499.695M454.627 572.409L443.277 572.409M376.518 572.409L365.155 572.409M298.41 572.409L287.074 572.409M220.301 572.409L208.952 572.409M142.179 572.409L130.843 572.409M64.0843 572.409L52.7348 572.409M-14.0243 572.409L-25.3738 572.409M-92.1328 572.409L-103.469 572.409M-170.255 572.409L-181.577 572.409M-248.336 572.409L-259.699 572.409M-326.445 572.409L-337.808 572.409M-404.567 572.409L-415.916 572.409M-482.676 572.409L-494.011 572.409M-560.784 572.409L-572.228 572.409M-638.987 572.409L-650.35 572.409M-717.096 572.409L-728.459 572.409M-795.218 572.409L-806.54 572.409M-873.326 572.409L-884.662 572.409M-951.435 572.409L-962.703 572.409M-795.164 645.161L-806.486 645.161M-873.272 645.161L-884.608 645.161M220.301 717.875L208.952 717.875M142.179 717.875L130.843 717.875M64.0843 717.875L52.7348 717.875M-14.0243 717.875L-25.3738 717.875M-92.1328 717.875L-103.469 717.875M-170.255 717.875L-181.577 717.875M-248.336 717.875L-259.699 717.875M-326.445 717.875L-337.808 717.875M-404.567 717.875L-415.916 717.875M-482.676 717.875L-494.011 717.875M220.301 790.589L208.952 790.589M142.179 790.589L130.843 790.589M64.0843 790.589L52.7348 790.589M-14.0243 790.589L-25.3738 790.589M-92.1328 790.589L-103.469 790.589M-170.255 790.589L-181.577 790.589M-248.336 790.589L-259.699 790.589M-326.445 790.589L-337.808 790.589M-404.567 790.589L-415.916 790.589M-482.676 790.589L-494.011 790.589M448.844 68.6678L448.844 58.104M370.763 68.6678L370.763 58.104M292.641 68.6678L292.641 58.104M214.532 68.6678L214.532 58.104M136.423 68.6678L136.423 58.104M58.3014 68.6678L58.3014 58.104M-19.7801 68.6678L-19.7801 58.104M-97.8886 68.6678L-97.8886 58.104M-176.011 68.6678L-176.011 58.104M-254.119 68.6677L-254.119 58.104M-332.214 68.6677L-332.214 58.104M-410.323 68.6677L-410.323 58.104M-488.458 68.6677L-488.458 58.104M-566.58 68.6677L-566.58 58.104M-644.689 68.6677L-644.689 58.104M-722.784 68.6677L-722.784 58.104M-800.892 68.6677L-800.892 58.1039M-878.933 68.6677L-878.933 58.1039M-957.042 68.6677L-957.042 58.1039M448.844 141.382L448.844 130.805M370.763 141.357L370.763 130.805M292.641 141.357L292.641 130.805M214.532 141.382L214.532 130.805M136.423 141.357L136.423 130.805M58.3014 141.357L58.3014 130.805M-19.7801 141.357L-19.7801 130.805M-97.8886 141.357L-97.8886 130.805M-176.011 141.357L-176.011 130.805M-254.119 141.357L-254.119 130.805M-332.214 141.357L-332.214 130.805M-410.323 141.357L-410.323 130.805M-488.458 141.382L-488.458 130.805M-566.58 141.357L-566.58 130.805M-644.689 141.357L-644.689 130.805M-722.784 141.357L-722.784 130.805M-800.892 141.357L-800.892 130.805M-878.933 141.382L-878.933 130.805M-957.042 141.357L-957.042 130.805M448.844 214.096L448.844 203.545M370.763 214.096L370.763 203.545M292.641 214.096L292.641 203.545M214.532 214.096L214.532 203.545M136.423 214.096L136.423 203.545M58.3014 214.096L58.3014 203.545M-19.7801 214.096L-19.7801 203.545M-97.8886 214.096L-97.8886 203.545M-176.011 214.096L-176.011 203.545M-254.119 214.096L-254.119 203.545M-332.214 214.096L-332.214 203.545M-410.323 214.096L-410.323 203.545M-488.458 214.096L-488.458 203.545M-566.58 214.096L-566.58 203.545M-644.689 214.096L-644.689 203.545M-722.784 214.096L-722.784 203.545M-800.892 214.096L-800.892 203.545M-878.933 214.096L-878.933 203.545M-957.042 214.096L-957.042 203.545M448.844 286.822L448.844 276.259M370.763 286.822L370.763 276.259M292.641 286.822L292.641 276.259M214.532 286.822L214.532 276.259M136.423 286.822L136.423 276.259M58.3014 286.822L58.3014 276.259M-19.7801 286.822L-19.7801 276.259M-97.8886 286.822L-97.8886 276.259M-176.011 286.822L-176.011 276.259M-254.119 286.822L-254.119 276.259M-332.214 286.822L-332.214 276.259M-410.323 286.822L-410.323 276.259M-488.431 286.822L-488.431 276.259M-566.553 286.822L-566.553 276.259M-644.662 286.822L-644.662 276.259M-722.757 286.822L-722.757 276.259M-800.865 286.822L-800.865 276.259M-878.974 286.822L-878.974 276.259M-957.083 286.822L-957.083 276.259M448.844 359.536L448.844 348.973M370.763 359.536L370.763 348.973M292.641 359.536L292.641 348.973M214.532 359.536L214.532 348.973M136.423 359.536L136.423 348.973M58.3014 359.536L58.3014 348.973M-19.7801 359.536L-19.7801 348.973M-97.8886 359.536L-97.8886 348.973M-176.011 359.536L-176.011 348.973M-254.119 359.536L-254.119 348.973M-332.214 359.536L-332.214 348.973M-410.323 359.536L-410.323 348.973M-488.431 359.536L-488.431 348.973M-566.553 359.536L-566.553 348.973M-644.662 359.536L-644.662 348.973M-722.757 359.536L-722.757 348.973M-800.865 359.536L-800.865 348.973M-878.974 359.536L-878.974 348.973M-957.083 359.536L-957.083 348.973M448.844 432.263L448.844 421.699M370.763 432.263L370.763 421.699M292.641 432.263L292.641 421.699M214.532 432.263L214.532 421.699M136.423 432.263L136.423 421.699M58.3014 432.263L58.3014 421.699M-19.7801 432.263L-19.7801 421.699M-97.8886 432.263L-97.8886 421.699M-176.011 432.263L-176.011 421.699M-254.119 432.263L-254.119 421.699M-332.214 432.263L-332.214 421.699M-410.323 432.263L-410.323 421.699M-488.431 432.263L-488.431 421.699M-566.553 432.263L-566.553 421.699M-644.662 432.263L-644.662 421.699M-722.757 432.263L-722.757 421.699M-800.865 432.263L-800.865 421.699M-878.974 432.263L-878.974 421.699M-957.083 432.263L-957.083 421.699M448.844 504.977L448.844 494.413M370.763 504.977L370.763 494.413M292.641 504.977L292.641 494.413M214.532 504.977L214.532 494.413M136.423 504.977L136.423 494.413M58.3014 504.977L58.3014 494.413M-19.7801 504.977L-19.7801 494.413M-97.8886 504.977L-97.8886 494.413M-176.011 504.977L-176.011 494.413M-254.119 504.977L-254.119 494.413M-332.214 504.977L-332.214 494.413M-410.323 504.977L-410.323 494.413M-488.431 504.977L-488.431 494.413M-566.553 504.977L-566.553 494.413M-644.662 504.977L-644.662 494.413M-722.757 504.977L-722.757 494.413M-800.865 504.977L-800.865 494.413M-878.974 504.977L-878.974 494.413M-957.083 504.977L-957.083 494.413M448.844 577.691L448.844 567.19M370.763 577.754L370.763 567.19M292.641 577.754L292.641 567.19M214.532 577.754L214.532 567.19M136.423 577.754L136.423 567.19M58.3014 577.754L58.3014 567.19M-19.7801 577.754L-19.7801 567.19M-97.8886 577.754L-97.8886 567.19M-176.011 577.754L-176.011 567.19M-254.119 577.754L-254.119 567.19M-332.214 577.754L-332.214 567.19M-410.323 577.754L-410.323 567.19M-488.431 577.754L-488.431 567.19M-566.553 577.754L-566.553 567.19M-644.662 577.754L-644.662 567.19M-722.757 577.754L-722.757 567.19M-800.865 577.754L-800.865 567.19M-878.974 577.754L-878.974 567.19M-957.083 577.754L-957.083 567.19M448.844 650.417L448.844 639.854M370.763 650.417L370.763 639.854M292.641 650.417L292.641 639.854M214.532 650.417L214.532 639.854M136.423 650.417L136.423 639.854M58.3014 650.417L58.3014 639.854M-19.7801 650.417L-19.7801 639.854M-97.8887 650.417L-97.8887 639.854M-176.011 650.417L-176.011 639.854M-254.119 650.417L-254.119 639.854M-332.214 650.417L-332.214 639.854M-410.323 650.417L-410.323 639.854M-488.431 650.417L-488.431 639.854M-566.553 650.417L-566.553 639.854M-644.662 650.417L-644.662 639.854M-722.757 650.417L-722.757 639.854M-800.865 650.417L-800.865 639.854M-878.974 650.417L-878.974 639.854M-957.083 650.417L-957.083 639.854M448.844 723.131L448.844 712.568M370.763 723.131L370.763 712.568M292.641 723.131L292.641 712.568M214.532 723.131L214.532 712.568M136.423 723.131L136.423 712.568M58.3014 723.131L58.3014 712.568M-19.7801 723.131L-19.7801 712.568M-97.8887 723.131L-97.8887 712.568M-176.011 723.131L-176.011 712.568M-254.119 723.131L-254.119 712.568M-332.214 723.131L-332.214 712.568M-410.323 723.131L-410.323 712.568M-488.458 723.131L-488.458 712.568M-566.553 723.131L-566.553 712.568M-644.662 723.131L-644.662 712.568M-722.757 723.131L-722.757 712.568M-800.865 723.131L-800.865 712.568M-878.933 723.131L-878.933 712.568M-957.042 723.131L-957.042 712.568M448.844 795.845L448.844 785.282M370.763 795.845L370.763 785.282M292.64 795.845L292.64 785.282M214.532 795.845L214.532 785.282M136.423 795.845L136.423 785.282M58.3014 795.845L58.3014 785.282M-19.7801 795.845L-19.7801 785.282M-97.8887 795.845L-97.8887 785.282M-176.011 795.845L-176.011 785.282M-254.119 795.845L-254.119 785.282M-332.214 795.845L-332.214 785.282M-410.323 795.845L-410.323 785.282M-488.431 795.845L-488.431 785.282M-566.553 795.845L-566.553 785.282M-644.662 795.845L-644.662 785.282M-722.757 795.845L-722.757 785.282M-800.865 795.845L-800.865 785.282M-878.974 795.845L-878.974 785.282M-957.083 795.845L-957.083 785.282M454.627 862.988L443.277 862.988M376.518 862.988L365.155 862.988M298.41 862.988L287.074 862.988M220.288 862.988L208.857 862.988M142.085 862.988L130.749 862.988M64.0032 862.988L52.6402 862.988M-14.1189 862.988L-25.4683 862.988M-92.2274 862.988L-103.563 862.988M-170.349 862.988L-181.672 862.988M-248.431 862.988L-259.794 862.988M-326.553 862.988L-337.903 862.988L-326.54 862.988M-404.662 862.988L-416.011 862.988M-482.77 862.988L-494.106 862.988M-560.879 862.988L-572.228 862.988M-638.987 862.988L-650.35 862.988M-717.096 862.988L-728.459 862.988M-795.204 862.988L-806.54 862.988M-873.326 862.988L-884.662 862.988M-951.435 862.988L-962.703 862.988M454.532 935.665L443.183 935.665M376.424 935.665L365.061 935.665M298.315 935.665L286.979 935.665M220.193 935.665L208.857 935.665M142.085 935.665L130.749 935.665M64.0032 935.665L52.6402 935.665M-14.1189 935.665L-25.4683 935.665M-92.2274 935.665L-103.563 935.665M-170.349 935.665L-181.672 935.665M-248.431 935.665L-259.794 935.665M-326.553 935.665L-337.903 935.665L-326.54 935.665M-404.689 935.665L-416.038 935.665M-482.797 935.665L-494.133 935.665M-560.906 935.665L-572.228 935.665M-638.987 935.665L-650.35 935.665M-717.096 935.665L-728.459 935.665M-795.204 935.665L-806.54 935.665M-873.326 935.665L-884.662 935.665M-951.435 935.665L-962.703 935.665M454.627 1008.38L443.277 1008.38M376.518 1008.38L365.155 1008.38M298.41 1008.38L287.074 1008.38M220.288 1008.38L208.857 1008.38M142.085 1008.38L130.749 1008.38M64.0032 1008.38L52.6402 1008.38M-14.1189 1008.38L-25.4684 1008.38M-92.2274 1008.38L-103.563 1008.38M-170.349 1008.38L-181.672 1008.38M-248.431 1008.38L-259.794 1008.38M-326.553 1008.38L-337.903 1008.38L-326.54 1008.38M-404.662 1008.38L-416.011 1008.38M-482.77 1008.38L-494.106 1008.38M-560.879 1008.38L-572.228 1008.38M-638.987 1008.38L-650.35 1008.38M-717.096 1008.38L-728.459 1008.38M-795.204 1008.38L-806.54 1008.38M-873.326 1008.38L-884.662 1008.38M-951.435 1008.38L-962.703 1008.38M454.627 1081.09L443.277 1081.09M376.518 1081.09L365.155 1081.09M298.41 1081.09L287.074 1081.09M220.288 1081.09L208.857 1081.09M142.085 1081.09L130.749 1081.09M64.0032 1081.09L52.6402 1081.09M-14.1189 1081.09L-25.4684 1081.09M-92.2274 1081.09L-103.563 1081.09M-170.349 1081.09L-181.672 1081.09M-248.431 1081.09L-259.794 1081.09M-326.553 1081.09L-337.903 1081.09L-326.54 1081.09M-404.662 1081.09L-416.011 1081.09M-482.77 1081.09L-494.106 1081.09M-560.879 1081.09L-572.228 1081.09M-638.987 1081.09L-650.35 1081.09M-717.096 1081.09L-728.459 1081.09M-795.204 1081.09L-806.54 1081.09M-873.326 1081.09L-884.662 1081.09M-951.435 1081.09L-962.703 1081.09M454.627 1153.82L443.277 1153.82M376.518 1153.82L365.155 1153.82M298.41 1153.82L287.074 1153.82M220.288 1153.82L208.857 1153.82M142.085 1153.82L130.749 1153.82M64.0032 1153.82L52.6402 1153.82M-14.1189 1153.82L-25.4684 1153.82M-92.2274 1153.82L-103.563 1153.82M-170.349 1153.82L-181.672 1153.82M-248.431 1153.82L-259.794 1153.82M-326.553 1153.82L-337.903 1153.82L-326.54 1153.82M-404.662 1153.82L-416.011 1153.82M-482.77 1153.82L-494.106 1153.82M-560.879 1153.82L-572.228 1153.82M-638.987 1153.82L-650.35 1153.82M-717.096 1153.82L-728.459 1153.82M-795.204 1153.82L-806.54 1153.82M-873.326 1153.82L-884.662 1153.82M-951.435 1153.82L-962.703 1153.82M454.627 1226.53L443.277 1226.53M376.518 1226.53L365.155 1226.53M298.41 1226.53L287.074 1226.53M220.288 1226.53L208.857 1226.53M142.085 1226.53L130.749 1226.53M64.0032 1226.53L52.6402 1226.53M-14.1189 1226.53L-25.4684 1226.53M-92.2274 1226.53L-103.563 1226.53M-170.349 1226.53L-181.672 1226.53M-248.431 1226.53L-259.794 1226.53M-326.553 1226.53L-337.903 1226.53M-404.662 1226.53L-416.011 1226.53M-482.77 1226.53L-494.106 1226.53M-560.879 1226.53L-572.228 1226.53M-638.987 1226.53L-650.35 1226.53M-717.096 1226.53L-728.459 1226.53M-795.204 1226.53L-806.54 1226.53M-873.326 1226.53L-884.662 1226.53M-951.435 1226.53L-962.703 1226.53M454.627 1299.25L443.277 1299.25M376.518 1299.25L365.155 1299.25M298.41 1299.25L287.074 1299.25M220.288 1299.25L208.857 1299.25M142.085 1299.25L130.749 1299.25M64.0032 1299.25L52.6402 1299.25M-14.1189 1299.25L-25.4684 1299.25M-92.2274 1299.25L-103.563 1299.25M-170.349 1299.25L-181.672 1299.25M-248.431 1299.25L-259.794 1299.25M-326.553 1299.25L-337.903 1299.25M-404.662 1299.25L-416.011 1299.25M-482.77 1299.25L-494.106 1299.25M-560.879 1299.25L-572.228 1299.25M-638.987 1299.25L-650.35 1299.25M-717.096 1299.25L-728.459 1299.25M-795.204 1299.25L-806.54 1299.25M-873.326 1299.25L-884.662 1299.25M-951.435 1299.25L-962.703 1299.25M454.532 1372.05L443.183 1372.05M376.424 1372.05L365.061 1372.05M298.315 1372.05L286.979 1372.05M220.193 1372.05L208.857 1372.05L220.207 1372.05M142.085 1372.05L130.749 1372.05M64.0032 1372.05L52.6402 1372.05L63.9896 1372.05M-14.1189 1372.05L-25.4684 1372.05M-92.2274 1372.05L-103.563 1372.05M-170.349 1372.05L-181.672 1372.05M-248.431 1372.05L-259.794 1372.05M-326.553 1372.05L-337.903 1372.05L-326.54 1372.05M-404.689 1372.05L-416.038 1372.05M-482.797 1372.05L-494.133 1372.05M-560.906 1372.05L-572.228 1372.05M-638.987 1372.05L-650.35 1372.05M-717.096 1372.05L-728.459 1372.05M-795.204 1372.05L-806.54 1372.05M-873.326 1372.05L-884.662 1372.05M-951.435 1372.05L-962.703 1372.05L-951.381 1372.05M454.627 1444.76L443.277 1444.76M376.518 1444.76L365.155 1444.76M298.41 1444.76L287.074 1444.76M220.288 1444.76L208.857 1444.76M142.085 1444.76L130.749 1444.76M64.0032 1444.76L52.6402 1444.76M-14.1189 1444.76L-25.4684 1444.76M-92.2274 1444.76L-103.563 1444.76M-170.349 1444.76L-181.672 1444.76M-248.431 1444.76L-259.794 1444.76M-326.553 1444.76L-337.903 1444.76M-404.662 1444.76L-416.011 1444.76M-482.77 1444.76L-494.106 1444.76M-560.879 1444.76L-572.228 1444.76L-560.784 1444.76M-638.987 1444.76L-650.35 1444.76M-717.096 1444.76L-728.459 1444.76M-795.204 1444.76L-806.54 1444.76L-795.218 1444.76M-873.326 1444.76L-884.662 1444.76M-951.435 1444.76L-962.703 1444.76M454.627 1517.48L443.277 1517.48M376.518 1517.48L365.155 1517.48M298.41 1517.48L287.074 1517.48M220.288 1517.48L208.857 1517.48M142.085 1517.48L130.749 1517.48M64.0031 1517.48L52.6402 1517.48M-14.1189 1517.48L-25.4684 1517.48M-92.2274 1517.48L-103.563 1517.48M-170.349 1517.48L-181.672 1517.48M-248.431 1517.48L-259.794 1517.48M-326.553 1517.48L-337.903 1517.48M-404.662 1517.48L-416.011 1517.48M-482.77 1517.48L-494.106 1517.48M-560.879 1517.48L-572.228 1517.48L-560.784 1517.48M-638.987 1517.48L-650.35 1517.48M-717.096 1517.48L-728.459 1517.48M-795.204 1517.48L-806.54 1517.48L-795.218 1517.48M-873.326 1517.48L-884.662 1517.48M-951.435 1517.48L-962.703 1517.48M-951.421 1153.87L-962.703 1153.87M454.627 1226.58L443.277 1226.58M376.518 1226.58L365.155 1226.58M298.41 1226.58L287.074 1226.58M220.301 1226.58L208.952 1226.58M142.179 1226.58L130.843 1226.58M64.0843 1226.58L52.7347 1226.58M-14.0243 1226.58L-25.3738 1226.58M-92.1328 1226.58L-103.469 1226.58M-170.255 1226.58L-181.577 1226.58M-248.336 1226.58L-259.699 1226.58M-326.445 1226.58L-337.808 1226.58M-404.567 1226.58L-415.916 1226.58M-482.676 1226.58L-494.011 1226.58M-560.784 1226.58L-572.228 1226.58M-638.987 1226.58L-650.35 1226.58M-717.096 1226.58L-728.459 1226.58M-795.218 1226.58L-806.54 1226.58M-873.326 1226.58L-884.662 1226.58M-951.435 1226.58L-962.703 1226.58M454.627 1299.3L443.277 1299.3M376.518 1299.3L365.155 1299.3M298.41 1299.3L287.074 1299.3M220.301 1299.3L208.952 1299.3M142.179 1299.3L130.843 1299.3M64.0843 1299.3L52.7347 1299.3M-14.0243 1299.3L-25.3738 1299.3M-92.1328 1299.3L-103.469 1299.3M-170.255 1299.3L-181.577 1299.3M-248.336 1299.3L-259.699 1299.3M-326.445 1299.3L-337.808 1299.3M-404.567 1299.3L-415.916 1299.3M-482.676 1299.3L-494.011 1299.3M-560.784 1299.3L-572.228 1299.3M-638.987 1299.3L-650.35 1299.3M-717.096 1299.3L-728.459 1299.3M-795.218 1299.3L-806.54 1299.3M-873.326 1299.3L-884.662 1299.3M-951.435 1299.3L-962.703 1299.3M-795.164 1372.05L-806.486 1372.05M-873.272 1372.05L-884.608 1372.05M220.301 1444.76L208.952 1444.76M142.179 1444.76L130.843 1444.76M64.0842 1444.76L52.7347 1444.76M-14.0243 1444.76L-25.3738 1444.76M-92.1329 1444.76L-103.469 1444.76M-170.255 1444.76L-181.577 1444.76M-248.336 1444.76L-259.699 1444.76M-326.445 1444.76L-337.808 1444.76M-404.567 1444.76L-415.916 1444.76M-482.676 1444.76L-494.011 1444.76M220.301 1517.48L208.952 1517.48M142.179 1517.48L130.843 1517.48M64.0842 1517.48L52.7347 1517.48M-14.0243 1517.48L-25.3738 1517.48M-92.1329 1517.48L-103.469 1517.48M-170.255 1517.48L-181.577 1517.48M-248.336 1517.48L-259.699 1517.48M-326.445 1517.48L-337.808 1517.48M-404.567 1517.48L-415.916 1517.48M-482.676 1517.48L-494.011 1517.48M448.844 868.27L448.844 857.694M370.763 868.245L370.763 857.694M292.64 868.245L292.64 857.694M214.532 868.27L214.532 857.694M136.423 868.245L136.423 857.694M58.3014 868.245L58.3014 857.694M-19.7801 868.245L-19.7801 857.694M-97.8887 868.245L-97.8887 857.694M-176.011 868.245L-176.011 857.694M-254.119 868.245L-254.119 857.694M-332.214 868.245L-332.214 857.694M-410.323 868.245L-410.323 857.694M-488.458 868.27L-488.458 857.694M-566.58 868.245L-566.58 857.694M-644.689 868.245L-644.689 857.694M-722.784 868.245L-722.784 857.694M-800.892 868.245L-800.892 857.694M-878.933 868.27L-878.933 857.694M-957.042 868.245L-957.042 857.694M448.844 940.984L448.844 930.433M370.763 940.984L370.763 930.433M292.64 940.984L292.64 930.433M214.532 940.984L214.532 930.433M136.423 940.984L136.423 930.433M58.3014 940.984L58.3014 930.433M-19.7801 940.984L-19.7801 930.433M-97.8887 940.984L-97.8887 930.433M-176.011 940.984L-176.011 930.433M-254.119 940.984L-254.119 930.433M-332.214 940.984L-332.214 930.433M-410.323 940.984L-410.323 930.433M-488.458 940.984L-488.458 930.433M-566.58 940.984L-566.58 930.433M-644.689 940.984L-644.689 930.433M-722.784 940.984L-722.784 930.433M-800.892 940.984L-800.892 930.433M-878.933 940.984L-878.933 930.433M-957.042 940.984L-957.042 930.433M448.844 1013.71L448.844 1003.15M370.763 1013.71L370.763 1003.15M292.64 1013.71L292.64 1003.15M214.532 1013.71L214.532 1003.15M136.423 1013.71L136.423 1003.15M58.3014 1013.71L58.3014 1003.15M-19.7801 1013.71L-19.7801 1003.15M-97.8887 1013.71L-97.8887 1003.15M-176.011 1013.71L-176.011 1003.15M-254.119 1013.71L-254.119 1003.15M-332.214 1013.71L-332.214 1003.15M-410.323 1013.71L-410.323 1003.15M-488.431 1013.71L-488.431 1003.15M-566.553 1013.71L-566.553 1003.15M-644.662 1013.71L-644.662 1003.15M-722.757 1013.71L-722.757 1003.15M-800.865 1013.71L-800.865 1003.15M-878.974 1013.71L-878.974 1003.15M-957.083 1013.71L-957.083 1003.15M448.844 1086.42L448.844 1075.86M370.763 1086.42L370.763 1075.86M292.64 1086.42L292.64 1075.86M214.532 1086.42L214.532 1075.86M136.423 1086.42L136.423 1075.86M58.3014 1086.42L58.3014 1075.86M-19.7801 1086.42L-19.7801 1075.86M-97.8887 1086.42L-97.8887 1075.86M-176.011 1086.42L-176.011 1075.86M-254.119 1086.42L-254.119 1075.86M-332.214 1086.42L-332.214 1075.86M-410.323 1086.42L-410.323 1075.86M-488.431 1086.42L-488.431 1075.86M-566.553 1086.42L-566.553 1075.86M-644.662 1086.42L-644.662 1075.86M-722.757 1086.42L-722.757 1075.86M-800.865 1086.42L-800.865 1075.86M-878.974 1086.42L-878.974 1075.86M-957.083 1086.42L-957.083 1075.86M448.844 1159.15L448.844 1148.59M370.763 1159.15L370.763 1148.59M292.64 1159.15L292.64 1148.59M214.532 1159.15L214.532 1148.59M136.423 1159.15L136.423 1148.59M58.3014 1159.15L58.3014 1148.59M-19.7801 1159.15L-19.7801 1148.59M-97.8887 1159.15L-97.8887 1148.59M-176.011 1159.15L-176.011 1148.59M-254.119 1159.15L-254.119 1148.59M-332.214 1159.15L-332.214 1148.59M-410.323 1159.15L-410.323 1148.59M-488.431 1159.15L-488.431 1148.59M-566.553 1159.15L-566.553 1148.59M-644.662 1159.15L-644.662 1148.59M-722.757 1159.15L-722.757 1148.59M-800.865 1159.15L-800.865 1148.59M-878.974 1159.15L-878.974 1148.59M-957.083 1159.15L-957.083 1148.59M448.844 1231.87L448.844 1221.3M370.763 1231.87L370.763 1221.3M292.64 1231.87L292.64 1221.3M214.532 1231.87L214.532 1221.3M136.423 1231.87L136.423 1221.3M58.3014 1231.87L58.3014 1221.3M-19.7801 1231.87L-19.7801 1221.3M-97.8887 1231.87L-97.8887 1221.3M-176.011 1231.87L-176.011 1221.3M-254.119 1231.87L-254.119 1221.3M-332.214 1231.87L-332.214 1221.3M-410.323 1231.87L-410.323 1221.3M-488.431 1231.87L-488.431 1221.3M-566.553 1231.87L-566.553 1221.3M-644.662 1231.87L-644.662 1221.3M-722.757 1231.87L-722.757 1221.3M-800.865 1231.87L-800.865 1221.3M-878.974 1231.87L-878.974 1221.3M-957.083 1231.87L-957.083 1221.3M448.844 1304.58L448.844 1294.08M370.763 1304.64L370.763 1294.08M292.64 1304.64L292.64 1294.08M214.532 1304.64L214.532 1294.08M136.423 1304.64L136.423 1294.08M58.3014 1304.64L58.3014 1294.08M-19.7802 1304.64L-19.7802 1294.08M-97.8887 1304.64L-97.8887 1294.08M-176.011 1304.64L-176.011 1294.08M-254.119 1304.64L-254.119 1294.08M-332.214 1304.64L-332.214 1294.08M-410.323 1304.64L-410.323 1294.08M-488.431 1304.64L-488.431 1294.08M-566.553 1304.64L-566.553 1294.08M-644.662 1304.64L-644.662 1294.08M-722.757 1304.64L-722.757 1294.08M-800.865 1304.64L-800.865 1294.08M-878.974 1304.64L-878.974 1294.08M-957.083 1304.64L-957.083 1294.08M448.844 1377.31L448.844 1366.74M370.763 1377.31L370.763 1366.74M292.64 1377.31L292.64 1366.74M214.532 1377.31L214.532 1366.74M136.423 1377.31L136.423 1366.74M58.3014 1377.31L58.3014 1366.74M-19.7802 1377.31L-19.7802 1366.74M-97.8887 1377.31L-97.8887 1366.74M-176.011 1377.31L-176.011 1366.74M-254.119 1377.31L-254.119 1366.74M-332.214 1377.31L-332.214 1366.74M-410.323 1377.31L-410.323 1366.74M-488.431 1377.31L-488.431 1366.74M-566.553 1377.31L-566.553 1366.74M-644.662 1377.31L-644.662 1366.74M-722.757 1377.31L-722.757 1366.74M-800.865 1377.31L-800.865 1366.74M-878.974 1377.31L-878.974 1366.74M-957.083 1377.31L-957.083 1366.74M448.844 1450.02L448.844 1439.46M370.763 1450.02L370.763 1439.46M292.64 1450.02L292.64 1439.46M214.532 1450.02L214.532 1439.46M136.423 1450.02L136.423 1439.46M58.3014 1450.02L58.3014 1439.46M-19.7802 1450.02L-19.7802 1439.46M-97.8887 1450.02L-97.8887 1439.46M-176.011 1450.02L-176.011 1439.46M-254.119 1450.02L-254.119 1439.46M-332.214 1450.02L-332.214 1439.46M-410.323 1450.02L-410.323 1439.46M-488.458 1450.02L-488.458 1439.46M-566.553 1450.02L-566.553 1439.46M-644.662 1450.02L-644.662 1439.46M-722.757 1450.02L-722.757 1439.46M-800.865 1450.02L-800.865 1439.46M-878.933 1450.02L-878.933 1439.46M-957.042 1450.02L-957.042 1439.46M448.844 1522.73L448.844 1512.17M370.763 1522.73L370.763 1512.17M292.64 1522.73L292.64 1512.17M214.532 1522.73L214.532 1512.17M136.423 1522.73L136.423 1512.17M58.3013 1522.73L58.3013 1512.17M-19.7802 1522.73L-19.7802 1512.17M-97.8887 1522.73L-97.8887 1512.17M-176.011 1522.73L-176.011 1512.17M-254.119 1522.73L-254.119 1512.17M-332.214 1522.73L-332.214 1512.17M-410.323 1522.73L-410.323 1512.17M-488.431 1522.73L-488.431 1512.17M-566.553 1522.73L-566.553 1512.17M-644.662 1522.73L-644.662 1512.17M-722.757 1522.73L-722.757 1512.17M-800.865 1522.73L-800.865 1512.17M-878.974 1522.73L-878.974 1512.17M-957.083 1522.73L-957.083 1512.17" stroke="#939598" stroke-width="0.83"/>
</g>
<defs>
<clipPath id="clip0_65_455">
<rect width="610" height="925" fill="white" transform="translate(454 0.256348) rotate(90)"/>
</clipPath>
</defs>
</svg>
