<svg width="454" height="611" fill="none" xmlns="http://www.w3.org/2000/svg"><g clip-path="url(#a)"><path d="M-873.313 63.386h-11.336m-66.772 0h-11.282 11.268M454.627 136.1h-11.349m-66.76 0h-11.363m-66.745 0h-11.336m-66.786 0h-11.431m-66.772 0h-11.336m-66.746 0H52.64m-66.759 0h-11.35m-66.758 0h-11.336m-66.786 0h-11.323m-66.759 0h-11.363m-66.759 0h-11.349 11.362m-78.121 0h-11.35m-66.759 0h-11.336m-66.773 0h-11.349m-66.759 0h-11.363m-66.746 0h-11.363m-66.745 0h-11.336m-66.786 0h-11.336m-66.773 0h-11.268m1417.235 72.676h-11.349m-66.759 0h-11.363m-66.746 0h-11.336m-66.786 0h-11.336m-66.772 0h-11.336m-66.746 0H52.64m-66.759 0h-11.35m-66.758 0h-11.336m-66.786 0h-11.323m-66.759 0h-11.363m-66.759 0h-11.349 11.362m-78.149 0h-11.349m-66.759 0h-11.336m-66.773 0h-11.322m-66.759 0h-11.363m-66.746 0h-11.363m-66.745 0h-11.336m-66.786 0h-11.336m-66.773 0h-11.268m1417.33 72.714h-11.349m-66.76 0h-11.363m-66.745 0h-11.336m-66.786 0h-11.431m-66.772 0h-11.336m-66.746 0H52.64m-66.759 0h-11.35m-66.758 0h-11.336m-66.786 0h-11.323m-66.759 0h-11.363m-66.759 0h-11.349 11.362m-78.121 0h-11.35m-66.759 0h-11.336m-66.773 0h-11.349m-66.759 0h-11.363m-66.746 0h-11.363m-66.745 0h-11.336m-66.786 0h-11.336m-66.773 0h-11.268m1417.33 72.714h-11.35m-66.759 0h-11.363m-66.745 0h-11.336m-66.786 0h-11.431m-66.772 0h-11.336m-66.746 0H52.64m-66.759 0h-11.35m-66.758 0h-11.336m-66.786 0h-11.323m-66.759 0h-11.363m-66.759 0h-11.349 11.362m-78.121 0h-11.35m-66.759 0h-11.336m-66.773 0h-11.349m-66.759 0h-11.363m-66.746 0h-11.363m-66.745 0h-11.336m-66.786 0h-11.336m-66.773 0h-11.268m1417.33 72.727h-11.35m-66.759 0h-11.363m-66.745 0h-11.336m-66.786 0h-11.431m-66.772 0h-11.336m-66.746 0H52.64m-66.759 0h-11.35m-66.758 0h-11.336m-66.786 0h-11.323m-66.759 0h-11.363m-66.759 0h-11.349 11.362m-78.121 0h-11.35m-66.759 0h-11.336m-66.773 0h-11.349m-66.759 0h-11.363m-66.746 0h-11.363m-66.745 0h-11.336m-66.786 0h-11.336m-66.773 0h-11.268m1417.33 72.714h-11.35m-66.759 0h-11.363m-66.745 0h-11.336m-66.786 0h-11.431m-66.772 0h-11.336m-66.746 0H52.64m-66.759 0h-11.35m-66.758 0h-11.336m-66.786 0h-11.323m-66.759 0h-11.363m-66.759 0h-11.349m-66.759 0h-11.35m-66.759 0h-11.336m-66.773 0h-11.349m-66.759 0h-11.363m-66.746 0h-11.363m-66.745 0h-11.336m-66.786 0h-11.336m-66.773 0h-11.268m1417.33 72.714h-11.35m-66.759 0h-11.363m-66.745 0h-11.336m-66.786 0h-11.431m-66.772 0h-11.336m-66.746 0H52.64m-66.759 0h-11.35m-66.758 0h-11.336m-66.786 0h-11.323m-66.759 0h-11.363m-66.759 0h-11.349m-66.759 0h-11.35m-66.759 0h-11.336m-66.773 0h-11.349m-66.759 0h-11.363m-66.746 0h-11.363m-66.745 0h-11.336m-66.786 0h-11.336m-66.773 0h-11.268m1417.235 72.802h-11.349m-66.759 0h-11.363m-66.746 0h-11.336m-66.786 0h-11.336 11.35m-78.122 0h-11.336m-66.746 0H52.64h11.35m-78.109 0h-11.35m-66.758 0h-11.336m-66.786 0h-11.323m-66.759 0h-11.363m-66.759 0h-11.349 11.362m-78.149 0h-11.349m-66.759 0h-11.336m-66.773 0h-11.322m-66.759 0h-11.363m-66.746 0h-11.363m-66.745 0h-11.336m-66.786 0h-11.336m-66.773 0h-11.268 11.322m1406.008 72.714h-11.35m-66.759 0h-11.363m-66.745 0h-11.336m-66.786 0h-11.431m-66.772 0h-11.336m-66.746 0H52.64m-66.759 0h-11.35m-66.758 0h-11.336m-66.786 0h-11.323m-66.759 0h-11.363m-66.759 0h-11.349m-66.76 0h-11.349m-66.759 0h-11.336m-66.773 0h-11.349 11.444m-78.203 0h-11.363m-66.746 0h-11.363m-66.745 0h-11.336 11.322m-78.108 0h-11.336m-66.773 0h-11.268m1417.33 72.714h-11.35m-66.759 0h-11.363m-66.745 0h-11.336m-66.786 0h-11.431m-66.772 0h-11.336m-66.746 0H52.64m-66.759 0h-11.35m-66.758 0h-11.336m-66.786 0h-11.323m-66.759 0h-11.363m-66.759 0h-11.349m-66.76 0h-11.349m-66.759 0h-11.336m-66.773 0h-11.349 11.444m-78.203 0h-11.363m-66.746 0h-11.363m-66.745 0h-11.336 11.322m-78.108 0h-11.336m-66.773 0h-11.268M454.532 63.386h-11.349m-66.759 0h-11.363m-66.746 0h-11.336m-66.786 0h-11.336m-66.772 0h-11.336m-66.746 0H52.64m-66.759 0h-11.35m-66.758 0h-11.336m-66.786 0h-11.323m-66.759 0h-11.363m-66.746 0h-11.362m-66.759 0h-11.35m-66.759 0h-11.336m-66.773 0h-11.349m-66.759 0h-11.363m-66.746 0h-11.363m-66.745 0h-11.336m-66.786 0h-11.336m-66.759 363.595h-11.282m1417.33 72.714h-11.35m-66.759 0h-11.363m-66.745 0h-11.336m-66.773 0h-11.349m-66.773 0h-11.336m-66.759 0h-11.35m-66.758 0h-11.35m-66.759 0h-11.336m-66.786 0h-11.322m-66.759 0h-11.363m-66.746 0h-11.363m-66.759 0h-11.349m-66.759 0h-11.336m-66.773 0h-11.444m-66.759 0h-11.363m-66.746 0h-11.363m-66.759 0h-11.322m-66.786 0h-11.336m-66.773 0h-11.268m1417.33 72.714h-11.35m-66.759 0h-11.363m-66.745 0h-11.336m-66.773 0h-11.349m-66.773 0h-11.336m-66.759 0h-11.35m-66.758 0h-11.35m-66.759 0h-11.336m-66.786 0h-11.322m-66.759 0h-11.363m-66.746 0h-11.363m-66.759 0h-11.349m-66.76 0h-11.335m-66.773 0h-11.444m-66.759 0h-11.363m-66.746 0h-11.363m-66.759 0h-11.322m-66.786 0h-11.336m-66.773 0h-11.268m167.539 72.752h-11.322m-66.786 0h-11.336m1104.909 72.714h-11.349m-66.773 0h-11.336m-66.759 0h-11.35m-66.758 0h-11.35m-66.759 0h-11.336m-66.786 0h-11.322m-66.759 0h-11.363m-66.746 0h-11.363m-66.759 0h-11.349m-66.76 0h-11.335m714.312 72.714h-11.349m-66.773 0h-11.336m-66.759 0h-11.35m-66.758 0h-11.35m-66.759 0h-11.336m-66.786 0h-11.322m-66.759 0h-11.363m-66.746 0h-11.363m-66.759 0h-11.349m-66.76 0h-11.335M448.844 68.668V58.104m-78.081 10.564V58.104m-78.122 10.564V58.104m-78.109 10.564V58.104m-78.109 10.564V58.104M58.301 68.668V58.104M-19.78 68.668V58.104m-78.11 10.564V58.104m-78.122 10.564V58.104m-78.108 10.564V58.104m-78.095 10.564V58.104m-78.109 10.564V58.104m-78.135 10.564V58.104m-78.122 10.564V58.104m-78.109 10.564V58.104m-78.095 10.564V58.104m-78.108 10.564V58.104m-78.041 10.564V58.104m-78.109 10.564V58.104m1405.886 83.278v-10.577m-78.081 10.552v-10.552m-78.122 10.552v-10.552m-78.109 10.577v-10.577m-78.109 10.552v-10.552M58.3 141.357v-10.552m-78.081 10.552v-10.552m-78.109 10.552v-10.552m-78.122 10.552v-10.552m-78.108 10.552v-10.552m-78.095 10.552v-10.552m-78.109 10.552v-10.552m-78.135 10.577v-10.577m-78.122 10.552v-10.552m-78.109 10.552v-10.552m-78.095 10.552v-10.552m-78.108 10.552v-10.552m-78.041 10.577v-10.577m-78.109 10.552v-10.552m1405.886 83.291v-10.551m-78.081 10.551v-10.551m-78.122 10.551v-10.551m-78.109 10.551v-10.551m-78.109 10.551v-10.551M58.3 214.096v-10.551m-78.081 10.551v-10.551m-78.109 10.551v-10.551m-78.122 10.551v-10.551m-78.108 10.551v-10.551m-78.095 10.551v-10.551m-78.109 10.551v-10.551m-78.135 10.551v-10.551m-78.122 10.551v-10.551m-78.109 10.551v-10.551m-78.095 10.551v-10.551m-78.108 10.551v-10.551m-78.041 10.551v-10.551m-78.109 10.551v-10.551m1405.886 83.277v-10.563m-78.081 10.563v-10.563m-78.122 10.563v-10.563m-78.109 10.563v-10.563m-78.109 10.563v-10.563M58.3 286.822v-10.563m-78.081 10.563v-10.563m-78.109 10.563v-10.563m-78.122 10.563v-10.563m-78.108 10.563v-10.563m-78.095 10.563v-10.563m-78.109 10.563v-10.563m-78.108 10.563v-10.563m-78.122 10.563v-10.563m-78.109 10.563v-10.563m-78.095 10.563v-10.563m-78.108 10.563v-10.563m-78.109 10.563v-10.563m-78.109 10.563v-10.563m1405.927 83.277v-10.563m-78.081 10.563v-10.563m-78.122 10.563v-10.563m-78.109 10.563v-10.563m-78.109 10.563v-10.563M58.3 359.536v-10.563m-78.081 10.563v-10.563m-78.109 10.563v-10.563m-78.122 10.563v-10.563m-78.108 10.563v-10.563m-78.095 10.563v-10.563m-78.109 10.563v-10.563m-78.108 10.563v-10.563m-78.122 10.563v-10.563m-78.109 10.563v-10.563m-78.095 10.563v-10.563m-78.108 10.563v-10.563m-78.109 10.563v-10.563m-78.109 10.563v-10.563m1405.927 83.29v-10.564m-78.081 10.564v-10.564m-78.122 10.564v-10.564m-78.109 10.564v-10.564m-78.109 10.564v-10.564M58.3 432.263v-10.564m-78.081 10.564v-10.564m-78.109 10.564v-10.564m-78.122 10.564v-10.564m-78.108 10.564v-10.564m-78.095 10.564v-10.564m-78.109 10.564v-10.564m-78.108 10.564v-10.564m-78.122 10.564v-10.564m-78.109 10.564v-10.564m-78.095 10.564v-10.564m-78.108 10.564v-10.564m-78.109 10.564v-10.564m-78.109 10.564v-10.564m1405.927 83.278v-10.564m-78.081 10.564v-10.564m-78.122 10.564v-10.564m-78.109 10.564v-10.564m-78.109 10.564v-10.564M58.3 504.977v-10.564m-78.081 10.564v-10.564m-78.109 10.564v-10.564m-78.122 10.564v-10.564m-78.108 10.564v-10.564m-78.095 10.564v-10.564m-78.109 10.564v-10.564m-78.108 10.564v-10.564m-78.122 10.564v-10.564m-78.109 10.564v-10.564m-78.095 10.564v-10.564m-78.108 10.564v-10.564m-78.109 10.564v-10.564m-78.109 10.564v-10.564m1405.927 83.278V567.19m-78.081 10.564V567.19m-78.122 10.564V567.19m-78.109 10.564V567.19m-78.109 10.564V567.19M58.3 577.754V567.19m-78.081 10.564V567.19m-78.109 10.564V567.19m-78.122 10.564V567.19m-78.108 10.564V567.19m-78.095 10.564V567.19m-78.109 10.564V567.19m-78.108 10.564V567.19m-78.122 10.564V567.19m-78.109 10.564V567.19m-78.095 10.564V567.19m-78.108 10.564V567.19m-78.109 10.564V567.19m-78.109 10.564V567.19m1405.927 83.227v-10.563m-78.081 10.563v-10.563m-78.122 10.563v-10.563m-78.109 10.563v-10.563m-78.109 10.563v-10.563M58.3 650.417v-10.563m-78.081 10.563v-10.563m-78.109 10.563v-10.563m-78.122 10.563v-10.563m-78.108 10.563v-10.563m-78.095 10.563v-10.563m-78.109 10.563v-10.563m-78.108 10.563v-10.563m-78.122 10.563v-10.563m-78.109 10.563v-10.563m-78.095 10.563v-10.563m-78.108 10.563v-10.563m-78.109 10.563v-10.563m-78.109 10.563v-10.563m1405.927 83.277v-10.563m-78.081 10.563v-10.563m-78.122 10.563v-10.563m-78.109 10.563v-10.563m-78.109 10.563v-10.563M58.3 723.131v-10.563m-78.081 10.563v-10.563m-78.109 10.563v-10.563m-78.122 10.563v-10.563m-78.108 10.563v-10.563m-78.095 10.563v-10.563m-78.109 10.563v-10.563m-78.135 10.563v-10.563m-78.095 10.563v-10.563m-78.109 10.563v-10.563m-78.095 10.563v-10.563m-78.108 10.563v-10.563m-78.068 10.563v-10.563m-78.109 10.563v-10.563m1405.886 83.277v-10.563m-78.081 10.563v-10.563m-78.123 10.563v-10.563m-78.108 10.563v-10.563m-78.109 10.563v-10.563M58.3 795.845v-10.563m-78.081 10.563v-10.563m-78.109 10.563v-10.563m-78.122 10.563v-10.563m-78.108 10.563v-10.563m-78.095 10.563v-10.563m-78.109 10.563v-10.563m-78.108 10.563v-10.563m-78.122 10.563v-10.563m-78.109 10.563v-10.563m-78.095 10.563v-10.563m-78.108 10.563v-10.563m-78.109 10.563v-10.563m-78.109 10.563v-10.563m1411.71 77.706h-11.35m-66.759 0h-11.363m-66.745 0h-11.336m-66.786 0h-11.431m-66.772 0h-11.336m-66.746 0H52.64m-66.759 0h-11.35m-66.758 0h-11.336m-66.786 0h-11.323m-66.759 0h-11.363m-66.759 0h-11.35 11.363m-78.122 0h-11.349m-66.759 0h-11.336m-66.773 0h-11.349m-66.759 0h-11.363m-66.746 0h-11.363m-66.745 0h-11.336m-66.786 0h-11.336m-66.773 0h-11.268m1417.235 72.677h-11.349m-66.759 0h-11.363m-66.746 0h-11.336m-66.786 0h-11.336m-66.772 0h-11.336m-66.746 0H52.64m-66.759 0h-11.35m-66.758 0h-11.336m-66.786 0h-11.323m-66.759 0h-11.363m-66.759 0h-11.35 11.363m-78.149 0h-11.349m-66.759 0h-11.336m-66.773 0h-11.322m-66.759 0h-11.363m-66.746 0h-11.363m-66.745 0h-11.336m-66.786 0h-11.336m-66.773 0h-11.268m1417.33 72.715h-11.35m-66.759 0h-11.363m-66.745 0h-11.336m-66.786 0h-11.431m-66.772 0h-11.336m-66.746 0H52.64m-66.759 0h-11.35m-66.758 0h-11.336m-66.786 0h-11.323m-66.759 0h-11.363m-66.759 0h-11.35 11.363m-78.122 0h-11.349m-66.759 0h-11.336m-66.773 0h-11.349m-66.759 0h-11.363m-66.746 0h-11.363m-66.745 0h-11.336m-66.786 0h-11.336m-66.773 0h-11.268m1417.33 72.71h-11.35m-66.759 0h-11.363m-66.745 0h-11.336m-66.786 0h-11.431m-66.772 0h-11.336m-66.746 0H52.64m-66.759 0h-11.35m-66.758 0h-11.336m-66.786 0h-11.323m-66.759 0h-11.363m-66.759 0h-11.35 11.363m-78.122 0h-11.349m-66.759 0h-11.336m-66.773 0h-11.349m-66.759 0h-11.363m-66.746 0h-11.363m-66.745 0h-11.336m-66.786 0h-11.336m-66.773 0h-11.268m1417.33 72.73h-11.35m-66.759 0h-11.363m-66.745 0h-11.336m-66.786 0h-11.431m-66.772 0h-11.336m-66.746 0H52.64m-66.759 0h-11.35m-66.758 0h-11.336m-66.786 0h-11.323m-66.759 0h-11.363m-66.759 0h-11.35 11.363m-78.122 0h-11.349m-66.759 0h-11.336m-66.773 0h-11.349m-66.759 0h-11.363m-66.746 0h-11.363m-66.745 0h-11.336m-66.786 0h-11.336m-66.773 0h-11.268m1417.33 72.71h-11.35m-66.759 0h-11.363m-66.745 0h-11.336m-66.786 0h-11.431m-66.772 0h-11.336m-66.746 0H52.64m-66.759 0h-11.35m-66.758 0h-11.336m-66.786 0h-11.323m-66.759 0h-11.363m-66.759 0h-11.35m-66.759 0h-11.349m-66.759 0h-11.336m-66.773 0h-11.349m-66.759 0h-11.363m-66.746 0h-11.363m-66.745 0h-11.336m-66.786 0h-11.336m-66.773 0h-11.268m1417.33 72.72h-11.35m-66.759 0h-11.363m-66.745 0h-11.336m-66.786 0h-11.431m-66.772 0h-11.336m-66.746 0H52.64m-66.759 0h-11.35m-66.758 0h-11.336m-66.786 0h-11.323m-66.759 0h-11.363m-66.759 0h-11.35m-66.759 0h-11.349m-66.759 0h-11.336m-66.773 0h-11.349m-66.759 0h-11.363m-66.746 0h-11.363m-66.745 0h-11.336m-66.786 0h-11.336m-66.773 0h-11.268m1417.235 72.8h-11.349m-66.759 0h-11.363m-66.746 0h-11.336m-66.786 0h-11.336 11.35m-78.122 0h-11.336m-66.746 0H52.64h11.35m-78.109 0h-11.35m-66.758 0h-11.336m-66.786 0h-11.323m-66.759 0h-11.363m-66.759 0h-11.35 11.363m-78.149 0h-11.349m-66.759 0h-11.336m-66.773 0h-11.322m-66.759 0h-11.363m-66.746 0h-11.363m-66.745 0h-11.336m-66.786 0h-11.336m-66.773 0h-11.268 11.322m1406.008 72.71h-11.35m-66.759 0h-11.363m-66.745 0h-11.336m-66.786 0h-11.431m-66.772 0h-11.336m-66.746 0H52.64m-66.759 0h-11.35m-66.758 0h-11.336m-66.786 0h-11.323m-66.759 0h-11.363m-66.759 0h-11.35m-66.759 0h-11.349m-66.759 0h-11.336m-66.773 0h-11.349 11.444m-78.203 0h-11.363m-66.746 0h-11.363m-66.745 0h-11.336 11.322m-78.108 0h-11.336m-66.773 0h-11.268m1417.33 72.72h-11.35m-66.759 0h-11.363m-66.745 0h-11.336m-66.786 0h-11.431m-66.772 0h-11.336m-66.746 0H52.64m-66.759 0h-11.35m-66.758 0h-11.336m-66.786 0h-11.323m-66.759 0h-11.363m-66.759 0h-11.35m-66.759 0h-11.349m-66.759 0h-11.336m-66.773 0h-11.349 11.444m-78.203 0h-11.363m-66.746 0h-11.363m-66.745 0h-11.336 11.322m-78.108 0h-11.336m-66.773 0h-11.268m11.282-363.61h-11.282m1417.33 72.71h-11.35m-66.759 0h-11.363m-66.745 0h-11.336m-66.773 0h-11.349m-66.773 0h-11.336m-66.759 0h-11.35m-66.758 0h-11.35m-66.759 0h-11.336m-66.786 0h-11.322m-66.759 0h-11.363m-66.746 0h-11.363m-66.759 0h-11.349m-66.76 0h-11.335m-66.773 0h-11.444m-66.759 0h-11.363m-66.746 0h-11.363m-66.759 0h-11.322m-66.786 0h-11.336m-66.773 0h-11.268m1417.33 72.72h-11.35m-66.759 0h-11.363m-66.745 0h-11.336m-66.773 0h-11.349m-66.773 0h-11.336m-66.759 0h-11.35m-66.758 0h-11.35m-66.759 0h-11.336m-66.786 0h-11.322m-66.759 0h-11.363m-66.746 0h-11.363m-66.759 0h-11.349m-66.76 0h-11.335m-66.773 0h-11.444m-66.759 0h-11.363m-66.746 0h-11.363m-66.759 0h-11.322m-66.786 0h-11.336m-66.773 0h-11.268m167.539 72.75h-11.322m-66.786 0h-11.336m1104.909 72.71h-11.349m-66.773 0h-11.336m-66.759 0h-11.35m-66.758 0h-11.35m-66.759 0h-11.336m-66.786 0h-11.322m-66.759 0h-11.363m-66.746 0h-11.363m-66.759 0h-11.349m-66.76 0h-11.335m714.312 72.72h-11.349m-66.773 0h-11.336m-66.759 0h-11.35m-66.758 0h-11.35m-66.759 0h-11.336m-66.786 0h-11.322m-66.759 0h-11.363m-66.746 0h-11.363m-66.759 0h-11.349m-66.76 0h-11.335m942.855-649.21v-10.576m-78.081 10.551v-10.551m-78.123 10.551v-10.551m-78.108 10.576v-10.576m-78.109 10.551v-10.551m-78.122 10.551v-10.551m-78.081 10.551v-10.551m-78.109 10.551v-10.551m-78.122 10.551v-10.551m-78.108 10.551v-10.551m-78.095 10.551v-10.551m-78.109 10.551v-10.551m-78.135 10.576v-10.576m-78.122 10.551v-10.551m-78.109 10.551v-10.551m-78.095 10.551v-10.551m-78.108 10.551v-10.551m-78.041 10.576v-10.576m-78.109 10.551v-10.551m1405.886 83.29v-10.551m-78.081 10.551v-10.551m-78.123 10.551v-10.551m-78.108 10.551v-10.551m-78.109 10.551v-10.551m-78.122 10.551v-10.551m-78.081 10.551v-10.551m-78.109 10.551v-10.551m-78.122 10.551v-10.551m-78.108 10.551v-10.551m-78.095 10.551v-10.551m-78.109 10.551v-10.551m-78.135 10.551v-10.551m-78.122 10.551v-10.551m-78.109 10.551v-10.551m-78.095 10.551v-10.551m-78.108 10.551v-10.551m-78.041 10.551v-10.551m-78.109 10.551v-10.551m1405.886 83.277v-10.56m-78.081 10.56v-10.56m-78.123 10.56v-10.56m-78.108 10.56v-10.56m-78.109 10.56v-10.56m-78.122 10.56v-10.56m-78.081 10.56v-10.56m-78.109 10.56v-10.56m-78.122 10.56v-10.56m-78.108 10.56v-10.56m-78.095 10.56v-10.56m-78.109 10.56v-10.56m-78.108 10.56v-10.56m-78.122 10.56v-10.56m-78.109 10.56v-10.56m-78.095 10.56v-10.56m-78.108 10.56v-10.56m-78.109 10.56v-10.56m-78.109 10.56v-10.56m1405.927 83.27v-10.56m-78.081 10.56v-10.56m-78.123 10.56v-10.56m-78.108 10.56v-10.56m-78.109 10.56v-10.56m-78.122 10.56v-10.56m-78.081 10.56v-10.56m-78.109 10.56v-10.56m-78.122 10.56v-10.56m-78.108 10.56v-10.56m-78.095 10.56v-10.56m-78.109 10.56v-10.56m-78.108 10.56v-10.56m-78.122 10.56v-10.56m-78.109 10.56v-10.56m-78.095 10.56v-10.56m-78.108 10.56v-10.56m-78.109 10.56v-10.56m-78.109 10.56v-10.56m1405.927 83.29v-10.56m-78.081 10.56v-10.56m-78.123 10.56v-10.56m-78.108 10.56v-10.56m-78.109 10.56v-10.56m-78.122 10.56v-10.56m-78.081 10.56v-10.56m-78.109 10.56v-10.56m-78.122 10.56v-10.56m-78.108 10.56v-10.56m-78.095 10.56v-10.56m-78.109 10.56v-10.56m-78.108 10.56v-10.56m-78.122 10.56v-10.56m-78.109 10.56v-10.56m-78.095 10.56v-10.56m-78.108 10.56v-10.56m-78.109 10.56v-10.56m-78.109 10.56v-10.56m1405.927 83.28v-10.57m-78.081 10.57v-10.57m-78.123 10.57v-10.57m-78.108 10.57v-10.57m-78.109 10.57v-10.57m-78.122 10.57v-10.57m-78.081 10.57v-10.57m-78.109 10.57v-10.57m-78.122 10.57v-10.57m-78.108 10.57v-10.57m-78.095 10.57v-10.57m-78.109 10.57v-10.57m-78.108 10.57v-10.57m-78.122 10.57v-10.57m-78.109 10.57v-10.57m-78.095 10.57v-10.57m-78.108 10.57v-10.57m-78.109 10.57v-10.57m-78.109 10.57v-10.57m1405.927 83.28v-10.5m-78.081 10.56v-10.56m-78.123 10.56v-10.56m-78.108 10.56v-10.56m-78.109 10.56v-10.56m-78.122 10.56v-10.56m-78.081 10.56v-10.56m-78.109 10.56v-10.56m-78.122 10.56v-10.56m-78.108 10.56v-10.56m-78.095 10.56v-10.56m-78.109 10.56v-10.56m-78.108 10.56v-10.56m-78.122 10.56v-10.56m-78.109 10.56v-10.56m-78.095 10.56v-10.56m-78.108 10.56v-10.56m-78.109 10.56v-10.56m-78.109 10.56v-10.56m1405.927 83.23v-10.57m-78.081 10.57v-10.57m-78.123 10.57v-10.57m-78.108 10.57v-10.57m-78.109 10.57v-10.57m-78.122 10.57v-10.57m-78.081 10.57v-10.57m-78.109 10.57v-10.57m-78.122 10.57v-10.57m-78.108 10.57v-10.57m-78.095 10.57v-10.57m-78.109 10.57v-10.57m-78.108 10.57v-10.57m-78.122 10.57v-10.57m-78.109 10.57v-10.57m-78.095 10.57v-10.57m-78.108 10.57v-10.57m-78.109 10.57v-10.57m-78.109 10.57v-10.57m1405.927 83.28v-10.56m-78.081 10.56v-10.56m-78.123 10.56v-10.56m-78.108 10.56v-10.56m-78.109 10.56v-10.56m-78.122 10.56v-10.56m-78.081 10.56v-10.56m-78.109 10.56v-10.56m-78.122 10.56v-10.56m-78.108 10.56v-10.56m-78.095 10.56v-10.56m-78.109 10.56v-10.56m-78.135 10.56v-10.56m-78.095 10.56v-10.56m-78.109 10.56v-10.56m-78.095 10.56v-10.56m-78.108 10.56v-10.56m-78.068 10.56v-10.56m-78.109 10.56v-10.56m1405.886 83.27v-10.56m-78.081 10.56v-10.56m-78.123 10.56v-10.56m-78.108 10.56v-10.56m-78.109 10.56v-10.56m-78.122 10.56v-10.56m-78.081 10.56v-10.56m-78.109 10.56v-10.56m-78.122 10.56v-10.56m-78.108 10.56v-10.56m-78.095 10.56v-10.56m-78.109 10.56v-10.56m-78.108 10.56v-10.56m-78.122 10.56v-10.56m-78.109 10.56v-10.56m-78.095 10.56v-10.56m-78.108 10.56v-10.56m-78.109 10.56v-10.56m-78.109 10.56v-10.56" stroke="#939598" stroke-width=".83"/></g><defs><clipPath id="a"><path fill="#fff" transform="matrix(0 1 -1 0 454 .256)" d="M0 0h610v925H0z"/></clipPath></defs></svg>