<svg width="405" height="925" viewBox="0 0 405 925" fill="none" xmlns="http://www.w3.org/2000/svg">
<g clip-path="url(#clip0_60_365)">
<path d="M63.1295 1327.31V1338.65M63.1295 1405.42V1416.7V1405.43M135.844 -0.627441V10.722M135.844 77.4811V88.8441M135.844 155.59V166.926M135.844 233.712V245.142M135.844 311.915V323.251M135.844 389.996V401.359M135.844 468.118V479.468M135.844 546.227V557.563M135.844 624.349V635.671M135.844 702.43V713.793M135.844 780.553V791.902V780.539M135.844 858.661V870.01M135.844 936.77V948.106M135.844 1014.88V1026.23M135.844 1092.99V1104.35M135.844 1171.1V1182.46M135.844 1249.2V1260.54M135.844 1327.33V1338.66M135.844 1405.43V1416.7M208.52 -0.532853V10.8166M208.52 77.5757V88.9386M208.52 155.684V167.02M208.52 233.806V245.142M208.52 311.915V323.251M208.52 389.996V401.359M208.52 468.118V479.468M208.52 546.227V557.563M208.52 624.349V635.671M208.52 702.43V713.793M208.52 780.553V791.902V780.539M208.52 858.688V870.038M208.52 936.797V948.133M208.52 1014.91V1026.23M208.52 1092.99V1104.35M208.52 1171.1V1182.46M208.52 1249.2V1260.54M208.52 1327.33V1338.66M208.52 1405.43V1416.7M281.234 -0.627441V10.722M281.234 77.4811V88.8441M281.234 155.59V166.926M281.234 233.712V245.142M281.234 311.915V323.251M281.234 389.996V401.359M281.234 468.118V479.468M281.234 546.227V557.563M281.234 624.349V635.671M281.234 702.43V713.793M281.234 780.553V791.902V780.539M281.234 858.661V870.01M281.234 936.77V948.106M281.234 1014.88V1026.23M281.234 1092.99V1104.35M281.234 1171.1V1182.46M281.234 1249.2V1260.54M281.234 1327.33V1338.66M281.234 1405.43V1416.7M353.948 -0.627441V10.722M353.948 77.4811V88.8441M353.948 155.59V166.926M353.948 233.712V245.142M353.948 311.915V323.251M353.948 389.996V401.359M353.948 468.118V479.468M353.948 546.227V557.563M353.948 624.349V635.671M353.948 702.43V713.793M353.948 780.553V791.902V780.539M353.948 858.661V870.01M353.948 936.77V948.106M353.948 1014.88V1026.23M353.948 1092.99V1104.35M353.948 1171.1V1182.46M353.948 1249.2V1260.54M353.948 1327.33V1338.66M353.948 1405.43V1416.7M426.674 -0.627441V10.722M426.674 77.4811V88.8441M426.674 155.59V166.926M426.674 233.712V245.142M426.674 311.915V323.251M426.674 389.996V401.359M426.674 468.118V479.468M426.674 546.227V557.563M426.674 624.349V635.671M426.674 702.43V713.793M426.674 780.553V791.902V780.539M426.674 858.661V870.01M426.674 936.77V948.106M426.674 1014.88V1026.23M426.674 1092.99V1104.35M426.674 1171.1V1182.46M426.674 1249.2V1260.54M426.674 1327.33V1338.66M426.674 1405.43V1416.7M499.388 -0.627441V10.722M499.388 77.4811V88.8441M499.388 155.59V166.926M499.388 233.712V245.142M499.388 311.915V323.251M499.388 389.996V401.359M499.388 468.118V479.468M499.388 546.227V557.563M499.388 624.349V635.671M499.388 702.43V713.793M499.388 780.553V791.902M499.388 858.661V870.01M499.388 936.77V948.106M499.388 1014.88V1026.23M499.388 1092.99V1104.35M499.388 1171.1V1182.46M499.388 1249.2V1260.54M499.388 1327.33V1338.66M499.388 1405.43V1416.7M572.102 -0.627441V10.722M572.102 77.4811V88.8441M572.102 155.59V166.926M572.102 233.712V245.142M572.102 311.915V323.251M572.102 389.996V401.359M572.102 468.118V479.468M572.102 546.227V557.563M572.102 624.349V635.671M572.102 702.43V713.793M572.102 780.553V791.902M572.102 858.661V870.01M572.102 936.77V948.106M572.102 1014.88V1026.23M572.102 1092.99V1104.35M572.102 1171.1V1182.46M572.102 1249.2V1260.54M572.102 1327.33V1338.66M572.102 1405.43V1416.7M644.904 -0.532853V10.8166M644.904 77.5757V88.9386M644.904 155.684V167.02M644.904 233.806V245.142V233.793M644.904 311.915V323.251M644.904 389.996V401.359V390.01M644.904 468.118V479.468M644.904 546.227V557.563M644.904 624.349V635.671M644.904 702.43V713.793M644.904 780.553V791.902V780.539M644.904 858.688V870.038M644.904 936.797V948.133M644.904 1014.91V1026.23M644.904 1092.99V1104.35M644.904 1171.1V1182.46M644.904 1249.2V1260.54M644.904 1327.33V1338.66M644.904 1405.43V1416.7V1405.38M717.618 -0.627441V10.722M717.618 77.4811V88.8441M717.618 155.59V166.926M717.618 233.712V245.142M717.618 311.915V323.251M717.618 389.996V401.359M717.618 468.118V479.468M717.618 546.227V557.563M717.618 624.349V635.671M717.618 702.43V713.793M717.618 780.553V791.902M717.618 858.661V870.01M717.618 936.77V948.106M717.618 1014.88V1026.23V1014.78M717.618 1092.99V1104.35M717.618 1171.1V1182.46M717.618 1249.2V1260.54V1249.22M717.618 1327.33V1338.66M717.618 1405.43V1416.7M790.332 -0.627441V10.722M790.332 77.4811V88.8441M790.332 155.59V166.926M790.332 233.712V245.142M790.332 311.915V323.251M790.332 389.996V401.359M790.332 468.118V479.468M790.332 546.227V557.563M790.332 624.349V635.671M790.332 702.43V713.793M790.332 780.553V791.902M790.332 858.661V870.01M790.332 936.77V948.106M790.332 1014.88V1026.23V1014.78M790.332 1092.99V1104.35M790.332 1171.1V1182.46M790.332 1249.2V1260.54V1249.22M790.332 1327.33V1338.66M790.332 1405.43V1416.7M63.1295 -0.532853V10.8166M63.1295 77.5757V88.9386M63.1295 155.684V167.02M63.1295 233.806V245.142M63.1295 311.915V323.251M63.1295 389.996V401.359M63.1295 468.118V479.468M63.1295 546.227V557.563M63.1295 624.349V635.671M63.1295 702.43V713.793M63.1295 780.539V791.902M63.1295 858.661V870.01M63.1295 936.77V948.106M63.1295 1014.88V1026.23M63.1295 1092.99V1104.35M63.1295 1171.1V1182.46M63.1295 1249.2V1260.54M63.1295 1327.33V1338.66M426.725 1405.42V1416.7M499.439 -0.627441V10.722M499.439 77.4811V88.8441M499.439 155.59V166.926M499.439 233.698V245.048M499.439 311.82V323.156M499.439 389.915V401.265M499.439 468.024V479.373M499.439 546.132V557.468M499.439 624.254V635.577M499.439 702.336V713.699M499.439 780.444V791.807M499.439 858.566V869.916M499.439 936.675V948.011M499.439 1014.78V1026.23M499.439 1092.99V1104.35M499.439 1171.1V1182.46M499.439 1249.22V1260.54M499.439 1327.33V1338.66M499.439 1405.43V1416.7M572.153 -0.627441V10.722M572.153 77.4811V88.8441M572.153 155.59V166.926M572.153 233.698V245.048M572.153 311.82V323.156M572.153 389.915V401.265M572.153 468.024V479.373M572.153 546.132V557.468M572.153 624.254V635.577M572.153 702.336V713.699M572.153 780.444V791.807M572.153 858.566V869.916M572.153 936.675V948.011M572.153 1014.78V1026.23M572.153 1092.99V1104.35M572.153 1171.1V1182.46M572.153 1249.22V1260.54M572.153 1327.33V1338.66M572.153 1405.43V1416.7M644.904 1249.16V1260.49M644.904 1327.27V1338.61M717.618 233.698V245.048M717.618 311.82V323.156M717.618 389.915V401.265M717.618 468.024V479.373M717.618 546.132V557.468M717.618 624.254V635.577M717.618 702.336V713.699M717.618 780.444V791.807M717.618 858.566V869.916M717.618 936.675V948.011M790.332 233.698V245.048M790.332 311.82V323.156M790.332 389.915V401.265M790.332 468.024V479.373M790.332 546.132V557.468M790.332 624.254V635.577M790.332 702.336V713.699M790.332 780.444V791.807M790.332 858.566V869.916M790.332 936.675V948.011M68.4114 5.15537H57.8477M68.4114 83.2369H57.8477M68.4114 161.359H57.8477M68.4114 239.467H57.8477M68.4114 317.576H57.8477M68.4114 395.698H57.8477M68.4114 473.78H57.8477M68.4114 551.888H57.8477M68.4114 630.01H57.8477M68.4114 708.119H57.8477M68.4114 786.214H57.8477M68.4114 864.322H57.8477M68.4114 942.458H57.8477M68.4114 1020.58H57.8477M68.4114 1098.69H57.8477M68.4114 1176.78H57.8477M68.4114 1254.89H57.8477M68.4114 1332.93H57.8477M68.4114 1411.04H57.8477M141.125 5.15541H130.549M141.1 83.2369H130.549M141.1 161.359H130.549M141.125 239.468H130.549M141.1 317.576H130.549M141.1 395.698H130.549M141.1 473.78H130.549M141.1 551.888H130.549M141.1 630.01H130.549M141.1 708.119H130.549M141.1 786.214H130.549M141.1 864.322H130.549M141.125 942.458H130.549M141.1 1020.58H130.549M141.1 1098.69H130.549M141.1 1176.78H130.549M141.1 1254.89H130.549M141.125 1332.93H130.549M141.1 1411.04H130.549M213.839 5.15541H203.288M213.839 83.2369H203.288M213.839 161.359H203.288M213.839 239.468H203.288M213.839 317.576H203.288M213.839 395.698H203.288M213.839 473.78H203.288M213.839 551.888H203.288M213.839 630.01H203.288M213.839 708.119H203.288M213.839 786.214H203.288M213.839 864.322H203.288M213.839 942.458H203.288M213.839 1020.58H203.288M213.839 1098.69H203.288M213.839 1176.78H203.288M213.839 1254.89H203.288M213.839 1332.93H203.288M213.839 1411.04H203.288M286.566 5.15541H276.002M286.566 83.2369H276.002M286.566 161.359H276.002M286.566 239.468H276.002M286.566 317.576H276.002M286.566 395.698H276.002M286.566 473.78H276.002M286.566 551.888H276.002M286.566 630.01H276.002M286.566 708.119H276.002M286.566 786.214H276.002M286.566 864.322H276.002M286.566 942.431H276.002M286.566 1020.55H276.002M286.566 1098.66H276.002M286.566 1176.76H276.002M286.566 1254.86H276.002M286.566 1332.97H276.002M286.566 1411.08H276.002M359.28 5.15541H348.716M359.28 83.2369H348.716M359.28 161.359H348.716M359.28 239.468H348.716M359.28 317.576H348.716M359.28 395.698H348.716M359.28 473.78H348.716M359.28 551.888H348.716M359.28 630.01H348.716M359.28 708.119H348.716M359.28 786.214H348.716M359.28 864.322H348.716M359.28 942.431H348.716M359.28 1020.55H348.716M359.28 1098.66H348.716M359.28 1176.76H348.716M359.28 1254.86H348.716M359.28 1332.97H348.716M359.28 1411.08H348.716M432.007 5.15541H421.443M432.007 83.2369H421.443M432.007 161.359H421.443M432.007 239.468H421.443M432.007 317.576H421.443M432.007 395.698H421.443M432.007 473.78H421.443M432.007 551.888H421.443M432.007 630.01H421.443M432.007 708.119H421.443M432.007 786.214H421.443M432.007 864.322H421.443M432.007 942.431H421.443M432.007 1020.55H421.443M432.007 1098.66H421.443M432.007 1176.76H421.443M432.007 1254.86H421.443M432.007 1332.97H421.443M432.007 1411.08H421.443M504.721 5.15541H494.157M504.721 83.2369H494.157M504.721 161.359H494.157M504.721 239.468H494.157M504.721 317.576H494.157M504.721 395.698H494.157M504.721 473.78H494.157M504.721 551.888H494.157M504.721 630.01H494.157M504.721 708.119H494.157M504.721 786.214H494.157M504.721 864.322H494.157M504.721 942.431H494.157M504.721 1020.55H494.157M504.721 1098.66H494.157M504.721 1176.76H494.157M504.721 1254.86H494.157M504.721 1332.97H494.157M504.721 1411.08H494.157M577.435 5.15541H566.934M577.497 83.2369H566.934M577.497 161.359H566.934M577.497 239.468H566.934M577.497 317.576H566.934M577.497 395.698H566.934M577.497 473.78H566.934M577.497 551.888H566.934M577.497 630.01H566.934M577.497 708.119H566.934M577.497 786.214H566.934M577.497 864.322H566.934M577.497 942.431H566.934M577.497 1020.55H566.934M577.497 1098.66H566.934M577.497 1176.76H566.934M577.497 1254.86H566.934M577.497 1332.97H566.934M577.497 1411.08H566.934M650.161 5.15541H639.597M650.161 83.2369H639.597M650.161 161.359H639.597M650.161 239.468H639.597M650.161 317.576H639.597M650.161 395.698H639.597M650.161 473.78H639.597M650.161 551.888H639.597M650.161 630.01H639.597M650.161 708.119H639.597M650.161 786.214H639.597M650.161 864.322H639.597M650.161 942.431H639.597M650.161 1020.55H639.597M650.161 1098.66H639.597M650.161 1176.76H639.597M650.161 1254.86H639.597M650.161 1332.97H639.597M650.161 1411.08H639.597M722.875 5.15541H712.311M722.875 83.2369H712.311M722.875 161.359H712.311M722.875 239.468H712.311M722.875 317.576H712.311M722.875 395.698H712.311M722.875 473.78H712.311M722.875 551.888H712.311M722.875 630.01H712.311M722.875 708.119H712.311M722.875 786.214H712.311M722.875 864.322H712.311M722.875 942.458H712.311M722.875 1020.55H712.311M722.875 1098.66H712.311M722.875 1176.76H712.311M722.875 1254.86H712.311M722.875 1332.93H712.311M722.875 1411.04H712.311M795.589 5.15541H785.025M795.589 83.2369H785.025M795.589 161.359H785.025M795.589 239.468H785.025M795.589 317.576H785.025M795.589 395.698H785.025M795.589 473.78H785.025M795.589 551.888H785.025M795.589 630.01H785.025M795.589 708.119H785.025M795.589 786.214H785.025M795.589 864.322H785.025M795.589 942.431H785.025M795.589 1020.55H785.025M795.589 1098.66H785.025M795.589 1176.76H785.025M795.589 1254.86H785.025M795.589 1332.97H785.025M795.589 1411.08H785.025M862.732 -0.627441V10.722M862.732 77.4811V88.8441M862.732 155.59V166.926M862.732 233.712V245.142M862.732 311.915V323.251M862.732 389.996V401.359M862.732 468.118V479.468M862.732 546.227V557.563M862.732 624.349V635.671M862.732 702.43V713.793M862.732 780.553V791.902V780.539M862.732 858.661V870.01M862.732 936.77V948.106M862.732 1014.88V1026.23M862.732 1092.99V1104.35M862.732 1171.1V1182.46M862.732 1249.2V1260.54M862.732 1327.33V1338.66M862.732 1405.43V1416.7M935.408 -0.532853V10.8166M935.408 77.5757V88.9386M935.408 155.684V167.02M935.408 233.806V245.142M935.408 311.915V323.251M935.408 389.996V401.359M935.408 468.118V479.468M935.408 546.227V557.563M935.408 624.349V635.671M935.408 702.43V713.793M935.408 780.553V791.902V780.539M935.408 858.688V870.038M935.408 936.797V948.133M935.408 1014.91V1026.23M935.408 1092.99V1104.35M935.408 1171.1V1182.46M935.408 1249.2V1260.54M935.408 1327.33V1338.66M935.408 1405.43V1416.7M1008.12 -0.627441V10.722M1008.12 77.4811V88.8441M1008.12 155.59V166.926M1008.12 233.712V245.142M1008.12 311.915V323.251M1008.12 389.996V401.359M1008.12 468.118V479.468M1008.12 546.227V557.563M1008.12 624.349V635.671M1008.12 702.43V713.793M1008.12 780.553V791.902V780.539M1008.12 858.661V870.01M1008.12 936.77V948.106M1008.12 1014.88V1026.23M1008.12 1092.99V1104.35M1008.12 1171.1V1182.46M1008.12 1249.2V1260.54M1008.12 1327.33V1338.66M1008.12 1405.43V1416.7M1080.84 -0.627441V10.722M1080.84 77.4811V88.8441M1080.84 155.59V166.926M1080.84 233.712V245.142M1080.84 311.915V323.251M1080.84 389.996V401.359M1080.84 468.118V479.468M1080.84 546.227V557.563M1080.84 624.349V635.671M1080.84 702.43V713.793M1080.84 780.553V791.902V780.539M1080.84 858.661V870.01M1080.84 936.77V948.106M1080.84 1014.88V1026.23M1080.84 1092.99V1104.35M1080.84 1171.1V1182.46M1080.84 1249.2V1260.54M1080.84 1327.33V1338.66M1080.84 1405.43V1416.7M1153.56 -0.627441V10.722M1153.56 77.4811V88.8441M1153.56 155.59V166.926M1153.56 233.712V245.142M1153.56 311.915V323.251M1153.56 389.996V401.359M1153.56 468.118V479.468M1153.56 546.227V557.563M1153.56 624.349V635.671M1153.56 702.43V713.793M1153.56 780.553V791.902V780.539M1153.56 858.661V870.01M1153.56 936.77V948.106M1153.56 1014.88V1026.23M1153.56 1092.99V1104.35M1153.56 1171.1V1182.46M1153.56 1249.2V1260.54M1153.56 1327.33V1338.66M1153.56 1405.43V1416.7M1226.28 -0.627441V10.722M1226.28 77.4811V88.8441M1226.28 155.59V166.926M1226.28 233.712V245.142M1226.28 311.915V323.251M1226.28 389.996V401.359M1226.28 468.118V479.468M1226.28 546.227V557.563M1226.28 624.349V635.671M1226.28 702.43V713.793M1226.28 780.553V791.902M1226.28 858.661V870.01M1226.28 936.77V948.106M1226.28 1014.88V1026.23M1226.28 1092.99V1104.35M1226.28 1171.1V1182.46M1226.28 1249.2V1260.54M1226.28 1327.33V1338.66M1226.28 1405.43V1416.7M1298.99 -0.627441V10.722M1298.99 77.4811V88.8441M1298.99 155.59V166.926M1298.99 233.712V245.142M1298.99 311.915V323.251M1298.99 389.996V401.359M1298.99 468.118V479.468M1298.99 546.227V557.563M1298.99 624.349V635.671M1298.99 702.43V713.793M1298.99 780.553V791.902M1298.99 858.661V870.01M1298.99 936.77V948.106M1298.99 1014.88V1026.23M1298.99 1092.99V1104.35M1298.99 1171.1V1182.46M1298.99 1249.2V1260.54M1298.99 1327.33V1338.66M1298.99 1405.43V1416.7M1371.79 -0.532853V10.8166M1371.79 77.5757V88.9386M1371.79 155.684V167.02M1371.79 233.806V245.142V233.793M1371.79 311.915V323.251M1371.79 389.996V401.359V390.01M1371.79 468.118V479.468M1371.79 546.227V557.563M1371.79 624.349V635.671M1371.79 702.43V713.793M1371.79 780.553V791.902V780.539M1371.79 858.688V870.038M1371.79 936.797V948.133M1371.79 1014.91V1026.23M1371.79 1092.99V1104.35M1371.79 1171.1V1182.46M1371.79 1249.2V1260.54M1371.79 1327.33V1338.66M1371.79 1405.43V1416.7V1405.38M1444.51 -0.627441V10.722M1444.51 77.4811V88.8441M1444.51 155.59V166.926M1444.51 233.712V245.142M1444.51 311.915V323.251M1444.51 389.996V401.359M1444.51 468.118V479.468M1444.51 546.227V557.563M1444.51 624.349V635.671M1444.51 702.43V713.793M1444.51 780.553V791.902M1444.51 858.661V870.01M1444.51 936.77V948.106M1444.51 1014.88V1026.23V1014.78M1444.51 1092.99V1104.35M1444.51 1171.1V1182.46M1444.51 1249.2V1260.54V1249.22M1444.51 1327.33V1338.66M1444.51 1405.43V1416.7M1517.22 -0.627441V10.722M1517.22 77.4811V88.8441M1517.22 155.59V166.926M1517.22 233.712V245.142M1517.22 311.915V323.251M1517.22 389.996V401.359M1517.22 468.118V479.468M1517.22 546.227V557.563M1517.22 624.349V635.671M1517.22 702.43V713.793M1517.22 780.553V791.902M1517.22 858.661V870.01M1517.22 936.77V948.106M1517.22 1014.88V1026.23V1014.78M1517.22 1092.99V1104.35M1517.22 1171.1V1182.46M1517.22 1249.2V1260.54V1249.22M1517.22 1327.33V1338.66M1517.22 1405.43V1416.7M1153.61 1405.42V1416.7M1226.33 -0.627441V10.722M1226.33 77.4811V88.8441M1226.33 155.59V166.926M1226.33 233.698V245.048M1226.33 311.82V323.156M1226.33 389.915V401.265M1226.33 468.024V479.373M1226.33 546.132V557.468M1226.33 624.254V635.577M1226.33 702.336V713.699M1226.33 780.444V791.807M1226.33 858.566V869.916M1226.33 936.675V948.011M1226.33 1014.78V1026.23M1226.33 1092.99V1104.35M1226.33 1171.1V1182.46M1226.33 1249.22V1260.54M1226.33 1327.33V1338.66M1226.33 1405.43V1416.7M1299.04 -0.627441V10.722M1299.04 77.4811V88.8441M1299.04 155.59V166.926M1299.04 233.698V245.048M1299.04 311.82V323.156M1299.04 389.915V401.265M1299.04 468.024V479.373M1299.04 546.132V557.468M1299.04 624.254V635.577M1299.04 702.336V713.699M1299.04 780.444V791.807M1299.04 858.566V869.916M1299.04 936.675V948.011M1299.04 1014.78V1026.23M1299.04 1092.99V1104.35M1299.04 1171.1V1182.46M1299.04 1249.22V1260.54M1299.04 1327.33V1338.66M1299.04 1405.43V1416.7M1371.79 1249.16V1260.49M1371.79 1327.27V1338.61M1444.51 233.698V245.048M1444.51 311.82V323.156M1444.51 389.915V401.265M1444.51 468.024V479.373M1444.51 546.132V557.468M1444.51 624.254V635.577M1444.51 702.336V713.699M1444.51 780.444V791.807M1444.51 858.566V869.916M1444.51 936.675V948.011M1517.22 233.698V245.048M1517.22 311.82V323.156M1517.22 389.915V401.265M1517.22 468.024V479.373M1517.22 546.132V557.468M1517.22 624.254V635.577M1517.22 702.336V713.699M1517.22 780.444V791.807M1517.22 858.566V869.916M1517.22 936.675V948.011M868.014 5.15541H857.438M867.989 83.2369H857.438M867.989 161.359H857.438M868.014 239.468H857.438M867.989 317.576H857.438M867.989 395.698H857.438M867.989 473.78H857.438M867.989 551.888H857.438M867.989 630.01H857.438M867.989 708.119H857.438M867.989 786.214H857.438M867.989 864.322H857.438M868.014 942.458H857.438M867.989 1020.58H857.438M867.989 1098.69H857.438M867.989 1176.78H857.438M867.989 1254.89H857.438M868.014 1332.93H857.438M867.989 1411.04H857.438M940.728 5.15541H930.177M940.728 83.2369H930.177M940.728 161.359H930.177M940.728 239.468H930.177M940.728 317.576H930.177M940.728 395.698H930.177M940.728 473.78H930.177M940.728 551.888H930.177M940.728 630.01H930.177M940.728 708.119H930.177M940.728 786.214H930.177M940.728 864.322H930.177M940.728 942.458H930.177M940.728 1020.58H930.177M940.728 1098.69H930.177M940.728 1176.78H930.177M940.728 1254.89H930.177M940.728 1332.93H930.177M940.728 1411.04H930.177M1013.45 5.15541H1002.89M1013.45 83.2369H1002.89M1013.45 161.359H1002.89M1013.45 239.468H1002.89M1013.45 317.576H1002.89M1013.45 395.698H1002.89M1013.45 473.78H1002.89M1013.45 551.888H1002.89M1013.45 630.01H1002.89M1013.45 708.119H1002.89M1013.45 786.214H1002.89M1013.45 864.322H1002.89M1013.45 942.431H1002.89M1013.45 1020.55H1002.89M1013.45 1098.66H1002.89M1013.45 1176.76H1002.89M1013.45 1254.86H1002.89M1013.45 1332.97H1002.89M1013.45 1411.08H1002.89M1086.17 5.15541H1075.6M1086.17 83.2369H1075.6M1086.17 161.359H1075.6M1086.17 239.468H1075.6M1086.17 317.576H1075.6M1086.17 395.698H1075.6M1086.17 473.78H1075.6M1086.17 551.888H1075.6M1086.17 630.01H1075.6M1086.17 708.119H1075.6M1086.17 786.214H1075.6M1086.17 864.322H1075.6M1086.17 942.431H1075.6M1086.17 1020.55H1075.6M1086.17 1098.66H1075.6M1086.17 1176.76H1075.6M1086.17 1254.86H1075.6M1086.17 1332.97H1075.6M1086.17 1411.08H1075.6M1158.9 5.15541H1148.33M1158.9 83.2369H1148.33M1158.9 161.359H1148.33M1158.9 239.468H1148.33M1158.9 317.576H1148.33M1158.9 395.698H1148.33M1158.9 473.78H1148.33M1158.9 551.888H1148.33M1158.9 630.01H1148.33M1158.9 708.119H1148.33M1158.9 786.214H1148.33M1158.9 864.322H1148.33M1158.9 942.431H1148.33M1158.9 1020.55H1148.33M1158.9 1098.66H1148.33M1158.9 1176.76H1148.33M1158.9 1254.86H1148.33M1158.9 1332.97H1148.33M1158.9 1411.08H1148.33M1231.61 5.15541H1221.05M1231.61 83.2369H1221.05M1231.61 161.359H1221.05M1231.61 239.468H1221.05M1231.61 317.576H1221.05M1231.61 395.698H1221.05M1231.61 473.78H1221.05M1231.61 551.888H1221.05M1231.61 630.01H1221.05M1231.61 708.119H1221.05M1231.61 786.214H1221.05M1231.61 864.322H1221.05M1231.61 942.431H1221.05M1231.61 1020.55H1221.05M1231.61 1098.66H1221.05M1231.61 1176.76H1221.05M1231.61 1254.86H1221.05M1231.61 1332.97H1221.05M1231.61 1411.08H1221.05M1304.32 5.15541H1293.82M1304.39 83.2369H1293.82M1304.39 161.359H1293.82M1304.39 239.468H1293.82M1304.39 317.576H1293.82M1304.39 395.698H1293.82M1304.39 473.78H1293.82M1304.39 551.888H1293.82M1304.39 630.01H1293.82M1304.39 708.119H1293.82M1304.39 786.214H1293.82M1304.39 864.322H1293.82M1304.39 942.431H1293.82M1304.39 1020.55H1293.82M1304.39 1098.66H1293.82M1304.39 1176.76H1293.82M1304.39 1254.86H1293.82M1304.39 1332.97H1293.82M1304.39 1411.08H1293.82M1377.05 5.15541H1366.49M1377.05 83.2369H1366.49M1377.05 161.359H1366.49M1377.05 239.468H1366.49M1377.05 317.576H1366.49M1377.05 395.698H1366.49M1377.05 473.78H1366.49M1377.05 551.888H1366.49M1377.05 630.01H1366.49M1377.05 708.119H1366.49M1377.05 786.214H1366.49M1377.05 864.322H1366.49M1377.05 942.431H1366.49M1377.05 1020.55H1366.49M1377.05 1098.66H1366.49M1377.05 1176.76H1366.49M1377.05 1254.86H1366.49M1377.05 1332.97H1366.49M1377.05 1411.08H1366.49M1449.76 5.15541H1439.2M1449.76 83.2369H1439.2M1449.76 161.359H1439.2M1449.76 239.468H1439.2M1449.76 317.576H1439.2M1449.76 395.698H1439.2M1449.76 473.78H1439.2M1449.76 551.888H1439.2M1449.76 630.01H1439.2M1449.76 708.119H1439.2M1449.76 786.214H1439.2M1449.76 864.322H1439.2M1449.76 942.458H1439.2M1449.76 1020.55H1439.2M1449.76 1098.66H1439.2M1449.76 1176.76H1439.2M1449.76 1254.86H1439.2M1449.76 1332.93H1439.2M1449.76 1411.04H1439.2M1522.48 5.15541H1511.91M1522.48 83.2369H1511.91M1522.48 161.359H1511.91M1522.48 239.468H1511.91M1522.48 317.576H1511.91M1522.48 395.698H1511.91M1522.48 473.78H1511.91M1522.48 551.888H1511.91M1522.48 630.01H1511.91M1522.48 708.119H1511.91M1522.48 786.214H1511.91M1522.48 864.322H1511.91M1522.48 942.431H1511.91M1522.48 1020.55H1511.91M1522.48 1098.66H1511.91M1522.48 1176.76H1511.91M1522.48 1254.86H1511.91M1522.48 1332.97H1511.91M1522.48 1411.08H1511.91" stroke="#939598" stroke-width="0.83"/>
</g>
<defs>
<clipPath id="clip0_60_365">
<rect width="405" height="925" fill="white"/>
</clipPath>
</defs>
</svg>
