<svg width="320" height="570" fill="none" xmlns="http://www.w3.org/2000/svg"><g clip-path="url(#a)"><path d="M-710.718 1367.91v11.34m0 66.77v11.28-11.27m72.714-1406.06v11.35m0 66.759v11.363m0 66.745v11.336m0 66.786v11.431m0 66.773v11.336m0 66.745v11.363m0 66.759v11.35m0 66.759v11.336m0 66.786v11.322m0 66.759v11.363m0 66.759v11.35-11.363m0 78.122v11.349m0 66.759v11.336m0 66.777v11.35m0 66.75v11.37m0 66.74v11.37m0 66.74v11.34m0 66.78v11.34m0 66.77v11.27m72.676-1417.235v11.35m0 66.758v11.363m0 66.746v11.336m0 66.786v11.336m0 66.773v11.336m0 66.745v11.363m0 66.759v11.35m0 66.759v11.336m0 66.786v11.322m0 66.759v11.363m0 66.759v11.35-11.363m0 78.149v11.349m0 66.759v11.336m0 66.77v11.33m0 66.75v11.37m0 66.74v11.37m0 66.74v11.34m0 66.78v11.34m0 66.77v11.27m72.714-1417.33v11.35m0 66.759v11.363m0 66.745v11.336m0 66.786v11.431m0 66.773v11.336m0 66.745v11.363m0 66.759v11.35m0 66.759v11.336m0 66.786v11.322m0 66.759v11.363m0 66.759v11.35-11.363m0 78.122v11.349m0 66.759v11.336m0 66.777v11.35m0 66.75v11.37m0 66.74v11.37m0 66.74v11.34m0 66.78v11.34m0 66.77v11.27M-419.9 39.97v11.35m0 66.759v11.363m0 66.745v11.336m0 66.786v11.431m0 66.773v11.336m0 66.745v11.363m0 66.759v11.35m0 66.759v11.336m0 66.786v11.322m0 66.759v11.363m0 66.759v11.35-11.363m0 78.122v11.349m0 66.759v11.336m0 66.777v11.35m0 66.75v11.37m0 66.74v11.37m0 66.74v11.34m0 66.78v11.34m0 66.77v11.27m72.727-1417.33v11.35m0 66.759v11.363m0 66.745v11.336m0 66.786v11.431m0 66.773v11.336m0 66.745v11.363m0 66.759v11.35m0 66.759v11.336m0 66.786v11.322m0 66.759v11.363m0 66.759v11.35-11.363m0 78.122v11.349m0 66.759v11.336m0 66.777v11.35m0 66.75v11.37m0 66.74v11.37m0 66.74v11.34m0 66.78v11.34m0 66.77v11.27m72.714-1417.33v11.35m0 66.759v11.363m0 66.745v11.336m0 66.786v11.431m0 66.773v11.336m0 66.745v11.363m0 66.759v11.35m0 66.759v11.336m0 66.786v11.322m0 66.759v11.363m0 66.759v11.35m0 66.759v11.349m0 66.759v11.336m0 66.777v11.35m0 66.75v11.37m0 66.74v11.37m0 66.74v11.34m0 66.78v11.34m0 66.77v11.27m72.714-1417.33v11.35m0 66.759v11.363m0 66.745v11.336m0 66.786v11.431m0 66.773v11.336m0 66.745v11.363m0 66.759v11.35m0 66.759v11.336m0 66.786v11.322m0 66.759v11.363m0 66.759v11.35m0 66.759v11.349m0 66.759v11.336m0 66.777v11.35m0 66.75v11.37m0 66.74v11.37m0 66.74v11.34m0 66.78v11.34m0 66.77v11.27m72.802-1417.235v11.35m0 66.758v11.363m0 66.746v11.336m0 66.786v11.336-11.349m0 78.122v11.336m0 66.745v11.363-11.349m0 78.108v11.35m0 66.759v11.336m0 66.786v11.322m0 66.759v11.363m0 66.759v11.35-11.363m0 78.149v11.349m0 66.759v11.336m0 66.77v11.33m0 66.75v11.37m0 66.74v11.37m0 66.74v11.34m0 66.78v11.34m0 66.77v11.27-11.32M-56.229 39.97v11.35m0 66.759v11.363m0 66.745v11.336m0 66.786v11.431m0 66.773v11.336m0 66.745v11.363m0 66.759v11.35m0 66.759v11.336m0 66.786v11.322m0 66.759v11.363m0 66.759v11.35m0 66.759v11.349m0 66.759v11.336m0 66.777v11.35-11.45m0 78.2v11.37m0 66.74v11.37m0 66.74v11.34-11.33m0 78.11v11.34m0 66.77v11.27M16.485 39.97v11.35m0 66.759v11.363m0 66.745v11.336m0 66.786v11.431m0 66.773v11.336m0 66.745v11.363m0 66.759v11.35m0 66.759v11.336m0 66.786v11.322m0 66.759v11.363m0 66.759v11.35m0 66.759v11.349m0 66.759v11.336m0 66.777v11.35-11.45m0 78.2v11.37m0 66.74v11.37m0 66.74v11.34-11.33m0 78.11v11.34m0 66.77v11.27M-710.718 40.065v11.35m0 66.758v11.363m0 66.746v11.336m0 66.786v11.336m0 66.773v11.336m0 66.745v11.363m0 66.759v11.35m0 66.759v11.336m0 66.786v11.322m0 66.759v11.363m0 66.746V832.5m0 66.759v11.349m0 66.759v11.336m0 66.777v11.35m0 66.75v11.37m0 66.74v11.37m0 66.74v11.34m0 66.78v11.34m363.595 66.76v11.28m72.714-1417.33v11.35m0 66.759v11.363m0 66.745v11.336m0 66.773v11.349m0 66.773v11.336m0 66.759v11.35m0 66.759v11.349m0 66.759v11.336m0 66.786v11.323m0 66.759v11.363m0 66.745v11.363m0 66.759v11.35m0 66.759v11.336m0 66.771v11.45m0 66.75v11.37m0 66.74v11.37m0 66.75v11.33m0 66.78v11.34m0 66.77v11.27m72.714-1417.33v11.35m0 66.759v11.363m0 66.745v11.336m0 66.773v11.349m0 66.773v11.336m0 66.759v11.35m0 66.759v11.349m0 66.759v11.336m0 66.786v11.323m0 66.759v11.363m0 66.745v11.363m0 66.759v11.35m0 66.759v11.336m0 66.771v11.45m0 66.75v11.37m0 66.74v11.37m0 66.75v11.33m0 66.78v11.34m0 66.77v11.27m72.752-167.54v11.32m0 66.79v11.34m72.714-1104.914v11.349m0 66.773v11.336m0 66.759v11.35m0 66.759v11.349m0 66.759v11.336m0 66.786v11.323m0 66.759v11.363m0 66.745v11.363m0 66.759v11.35m0 66.759v11.336m72.714-714.313v11.349m0 66.773v11.336m0 66.759v11.35m0 66.759v11.349m0 66.759v11.336m0 66.786v11.323m0 66.759v11.363m0 66.745v11.363m0 66.759v11.35m0 66.759v11.336M-705.436 45.753H-716m10.564 78.082H-716m10.564 78.122H-716m10.564 78.108H-716m10.564 78.109H-716m10.564 78.122H-716m10.564 78.081H-716m10.564 78.109H-716m10.564 78.122H-716m10.564 78.109H-716m10.564 78.095H-716m10.564 78.108H-716m10.564 78.136H-716m10.564 78.124H-716m10.564 78.11H-716m10.564 78.09H-716m10.564 78.11H-716m10.564 78.04H-716m10.564 78.11H-716m83.278-1405.887h-10.577m10.552 78.082h-10.552m10.552 78.122h-10.552m10.577 78.108h-10.577m10.552 78.109h-10.552m10.552 78.122h-10.552m10.552 78.081h-10.552m10.552 78.109h-10.552m10.552 78.122h-10.552m10.552 78.109h-10.552m10.552 78.095h-10.552m10.552 78.108h-10.552m10.577 78.136h-10.577m10.552 78.124h-10.552m10.552 78.11h-10.552m10.552 78.09h-10.552m10.552 78.11h-10.552m10.577 78.04h-10.577m10.552 78.11h-10.552m83.291-1405.887h-10.551m10.551 78.082h-10.551m10.551 78.122h-10.551m10.551 78.108h-10.551m10.551 78.109h-10.551m10.551 78.122h-10.551m10.551 78.081h-10.551m10.551 78.109h-10.551m10.551 78.122h-10.551m10.551 78.109h-10.551m10.551 78.095h-10.551m10.551 78.108h-10.551m10.551 78.136h-10.551m10.551 78.124h-10.551m10.551 78.11h-10.551m10.551 78.09h-10.551m10.551 78.11h-10.551m10.551 78.04h-10.551m10.551 78.11h-10.551m83.277-1405.887h-10.563m10.563 78.082h-10.563m10.563 78.122h-10.563m10.563 78.108h-10.563m10.563 78.109h-10.563m10.563 78.122h-10.563m10.563 78.081h-10.563m10.563 78.109h-10.563m10.563 78.122h-10.563m10.563 78.109h-10.563m10.563 78.095h-10.563m10.563 78.108h-10.563m10.563 78.109h-10.563m10.563 78.121h-10.563m10.563 78.11h-10.563m10.563 78.09h-10.563m10.563 78.11h-10.563m10.563 78.11h-10.563m10.563 78.11h-10.563m83.277-1405.927h-10.563m10.563 78.082h-10.563m10.563 78.122h-10.563m10.563 78.108h-10.563m10.563 78.109h-10.563m10.563 78.122h-10.563m10.563 78.081h-10.563m10.563 78.109h-10.563m10.563 78.122h-10.563m10.563 78.109h-10.563m10.563 78.095h-10.563m10.563 78.108h-10.563m10.563 78.109h-10.563m10.563 78.121h-10.563m10.563 78.11h-10.563m10.563 78.09h-10.563m10.563 78.11h-10.563m10.563 78.11h-10.563m10.563 78.11h-10.563m83.29-1405.927h-10.564m10.564 78.082h-10.564m10.564 78.122h-10.564m10.564 78.108h-10.564m10.564 78.109h-10.564m10.564 78.122h-10.564m10.564 78.081h-10.564m10.564 78.109h-10.564m10.564 78.122h-10.564m10.564 78.109h-10.564m10.564 78.095h-10.564m10.564 78.108h-10.564m10.564 78.109h-10.564m10.564 78.121h-10.564m10.564 78.11h-10.564m10.564 78.09h-10.564m10.564 78.11h-10.564m10.564 78.11h-10.564m10.564 78.11h-10.564m83.278-1405.927h-10.564m10.564 78.082h-10.564m10.564 78.122h-10.564m10.564 78.108h-10.564m10.564 78.109h-10.564m10.564 78.122h-10.564m10.564 78.081h-10.564m10.564 78.109h-10.564m10.564 78.122h-10.564m10.564 78.109h-10.564m10.564 78.095h-10.564m10.564 78.108h-10.564m10.564 78.109h-10.564m10.564 78.121h-10.564m10.564 78.11h-10.564m10.564 78.09h-10.564m10.564 78.11h-10.564m10.564 78.11h-10.564m10.564 78.11h-10.564m83.278-1405.927h-10.501m10.564 78.082h-10.564m10.564 78.122h-10.564m10.564 78.108h-10.564m10.564 78.109h-10.564m10.564 78.122h-10.564m10.564 78.081h-10.564m10.564 78.109h-10.564m10.564 78.122h-10.564m10.564 78.109h-10.564m10.564 78.095h-10.564m10.564 78.108h-10.564m10.564 78.109h-10.564m10.564 78.121h-10.564m10.564 78.11h-10.564m10.564 78.09h-10.564m10.564 78.11h-10.564m10.564 78.11h-10.564m10.564 78.11h-10.564m83.227-1405.927h-10.563m10.563 78.082h-10.563m10.563 78.122h-10.563m10.563 78.108h-10.563m10.563 78.109h-10.563m10.563 78.122h-10.563m10.563 78.081h-10.563m10.563 78.109h-10.563m10.563 78.122h-10.563m10.563 78.109h-10.563m10.563 78.095h-10.563m10.563 78.108h-10.563m10.563 78.109h-10.563m10.563 78.121h-10.563m10.563 78.11h-10.563m10.563 78.09h-10.563m10.563 78.11h-10.563m10.563 78.11h-10.563m10.563 78.11h-10.563M-50.972 45.753h-10.564m10.564 78.082h-10.564m10.564 78.122h-10.564m10.564 78.108h-10.564m10.564 78.109h-10.564m10.564 78.122h-10.564m10.564 78.081h-10.564m10.564 78.109h-10.564m10.564 78.122h-10.564m10.564 78.109h-10.564m10.564 78.095h-10.564m10.564 78.108h-10.564m10.564 78.136h-10.564m10.564 78.094h-10.564m10.564 78.11h-10.564m10.564 78.09h-10.564m10.564 78.11h-10.564m10.564 78.07h-10.564m10.564 78.11h-10.564M21.742 45.753H11.178m10.563 78.082H11.178m10.563 78.122H11.178m10.563 78.108H11.178m10.563 78.109H11.178m10.563 78.122H11.178m10.563 78.081H11.178m10.563 78.109H11.178m10.563 78.122H11.178m10.563 78.109H11.178m10.563 78.095H11.178M21.74 904.92H11.178m10.563 78.109H11.178m10.563 78.121H11.178m10.563 78.11H11.178m10.563 78.09H11.178m10.563 78.11H11.178m10.563 78.11H11.178m10.563 78.11H11.178M88.884 39.97v11.35m0 66.759v11.363m0 66.745v11.336m0 66.786v11.431m0 66.773v11.336m0 66.745v11.363m0 66.759v11.35m0 66.759v11.336m0 66.786v11.322m0 66.759v11.363m0 66.759v11.35-11.363m0 78.122v11.349m0 66.759v11.336m0 66.777v11.35m0 66.75v11.37m0 66.74v11.37m0 66.74v11.34m0 66.78v11.34m0 66.77v11.27M161.561 40.065v11.35m0 66.758v11.363m0 66.746v11.336m0 66.786v11.336m0 66.773v11.336m0 66.745v11.363m0 66.759v11.35m0 66.759v11.336m0 66.786v11.322m0 66.759v11.363m0 66.759v11.35-11.363m0 78.149v11.349m0 66.759v11.336m0 66.77v11.33m0 66.75v11.37m0 66.74v11.37m0 66.74v11.34m0 66.78v11.34m0 66.77v11.27M234.275 39.97v11.35m0 66.759v11.363m0 66.745v11.336m0 66.786v11.431m0 66.773v11.336m0 66.745v11.363m0 66.759v11.35m0 66.759v11.336m0 66.786v11.322m0 66.759v11.363m0 66.759v11.35-11.363m0 78.122v11.349m0 66.759v11.336m0 66.777v11.35m0 66.75v11.37m0 66.74v11.37m0 66.74v11.34m0 66.78v11.34m0 66.77v11.27M306.989 39.97v11.35m0 66.759v11.363m0 66.745v11.336m0 66.786v11.431m0 66.773v11.336m0 66.745v11.363m0 66.759v11.35m0 66.759v11.336m0 66.786v11.322m0 66.759v11.363m0 66.759v11.35-11.363m0 78.122v11.349m0 66.759v11.336m0 66.777v11.35m0 66.75v11.37m0 66.74v11.37m0 66.74v11.34m0 66.78v11.34m0 66.77v11.27M379.715 39.97v11.35m0 66.759v11.363m0 66.745v11.336m0 66.786v11.431m0 66.773v11.336m0 66.745v11.363m0 66.759v11.35m0 66.759v11.336m0 66.786v11.322m0 66.759v11.363m0 66.759v11.35-11.363m0 78.122v11.349m0 66.759v11.336m0 66.777v11.35m0 66.75v11.37m0 66.74v11.37m0 66.74v11.34m0 66.78v11.34m0 66.77v11.27M452.429 39.97v11.35m0 66.759v11.363m0 66.745v11.336m0 66.786v11.431m0 66.773v11.336m0 66.745v11.363m0 66.759v11.35m0 66.759v11.336m0 66.786v11.322m0 66.759v11.363m0 66.759v11.35m0 66.759v11.349m0 66.759v11.336m0 66.777v11.35m0 66.75v11.37m0 66.74v11.37m0 66.74v11.34m0 66.78v11.34m0 66.77v11.27M525.143 39.97v11.35m0 66.759v11.363m0 66.745v11.336m0 66.786v11.431m0 66.773v11.336m0 66.745v11.363m0 66.759v11.35m0 66.759v11.336m0 66.786v11.322m0 66.759v11.363m0 66.759v11.35m0 66.759v11.349m0 66.759v11.336m0 66.777v11.35m0 66.75v11.37m0 66.74v11.37m0 66.74v11.34m0 66.78v11.34m0 66.77v11.27M597.945 40.065v11.35m0 66.758v11.363m0 66.746v11.336m0 66.786v11.336-11.349m0 78.122v11.336m0 66.745v11.363-11.349m0 78.108v11.35m0 66.759v11.336m0 66.786v11.322m0 66.759v11.363m0 66.759v11.35-11.363m0 78.149v11.349m0 66.759v11.336m0 66.77v11.33m0 66.75v11.37m0 66.74v11.37m0 66.74v11.34m0 66.78v11.34m0 66.77v11.27-11.32M670.659 39.97v11.35m0 66.759v11.363m0 66.745v11.336m0 66.786v11.431m0 66.773v11.336m0 66.745v11.363m0 66.759v11.35m0 66.759v11.336m0 66.786v11.322m0 66.759v11.363m0 66.759v11.35m0 66.759v11.349m0 66.759v11.336m0 66.777v11.35-11.45m0 78.2v11.37m0 66.74v11.37m0 66.74v11.34-11.33m0 78.11v11.34m0 66.77v11.27M743.373 39.97v11.35m0 66.759v11.363m0 66.745v11.336m0 66.786v11.431m0 66.773v11.336m0 66.745v11.363m0 66.759v11.35m0 66.759v11.336m0 66.786v11.322m0 66.759v11.363m0 66.759v11.35m0 66.759v11.349m0 66.759v11.336m0 66.777v11.35-11.45m0 78.2v11.37m0 66.74v11.37m0 66.74v11.34-11.33m0 78.11v11.34m0 66.77v11.27m-363.607-11.28v11.28M452.479 39.97v11.35m0 66.759v11.363m0 66.745v11.336m0 66.773v11.349m0 66.773v11.336m0 66.759v11.35m0 66.759v11.349m0 66.759v11.336m0 66.786v11.323m0 66.759v11.363m0 66.745v11.363m0 66.759v11.35m0 66.759v11.336m0 66.771v11.45m0 66.75v11.37m0 66.74v11.37m0 66.75v11.33m0 66.78v11.34m0 66.77v11.27M525.194 39.97v11.35m0 66.759v11.363m0 66.745v11.336m0 66.773v11.349m0 66.773v11.336m0 66.759v11.35m0 66.759v11.349m0 66.759v11.336m0 66.786v11.323m0 66.759v11.363m0 66.745v11.363m0 66.759v11.35m0 66.759v11.336m0 66.771v11.45m0 66.75v11.37m0 66.74v11.37m0 66.75v11.33m0 66.78v11.34m0 66.77v11.27m72.751-167.54v11.32m0 66.79v11.34m72.714-1104.914v11.349m0 66.773v11.336m0 66.759v11.35m0 66.759v11.349m0 66.759v11.336m0 66.786v11.323m0 66.759v11.363m0 66.745v11.363m0 66.759v11.35m0 66.759v11.336m72.714-714.313v11.349m0 66.773v11.336m0 66.759v11.35m0 66.759v11.349m0 66.759v11.336m0 66.786v11.323m0 66.759v11.363m0 66.745v11.363m0 66.759v11.35m0 66.759v11.336M94.166 45.753H83.59m10.551 78.082H83.59m10.551 78.122H83.59m10.576 78.108H83.59m10.551 78.109H83.59m10.551 78.122H83.59m10.551 78.081H83.59m10.551 78.109H83.59m10.551 78.122H83.59m10.551 78.109H83.59m10.551 78.095H83.59m10.55 78.108H83.59m10.576 78.136H83.59m10.551 78.124H83.59m10.551 78.11H83.59m10.551 78.09H83.59m10.551 78.11H83.59m10.576 78.04H83.59m10.551 78.11H83.59M166.88 45.753h-10.551m10.551 78.082h-10.551m10.551 78.122h-10.551m10.551 78.108h-10.551m10.551 78.109h-10.551m10.551 78.122h-10.551m10.551 78.081h-10.551m10.551 78.109h-10.551m10.551 78.122h-10.551m10.551 78.109h-10.551m10.551 78.095h-10.551m10.551 78.108h-10.551m10.551 78.136h-10.551m10.551 78.124h-10.551m10.551 78.11h-10.551m10.551 78.09h-10.551m10.551 78.11h-10.551m10.551 78.04h-10.551m10.551 78.11h-10.551M239.607 45.753h-10.564m10.564 78.082h-10.564m10.564 78.122h-10.564m10.564 78.108h-10.564m10.564 78.109h-10.564m10.564 78.122h-10.564m10.564 78.081h-10.564m10.564 78.109h-10.564m10.564 78.122h-10.564m10.564 78.109h-10.564m10.564 78.095h-10.564m10.564 78.108h-10.564m10.564 78.109h-10.564m10.564 78.121h-10.564m10.564 78.11h-10.564m10.564 78.09h-10.564m10.564 78.11h-10.564m10.564 78.11h-10.564m10.564 78.11h-10.564M312.321 45.753h-10.564m10.564 78.082h-10.564m10.564 78.122h-10.564m10.564 78.108h-10.564m10.564 78.109h-10.564m10.564 78.122h-10.564m10.564 78.081h-10.564m10.564 78.109h-10.564m10.564 78.122h-10.564m10.564 78.109h-10.564m10.564 78.095h-10.564m10.564 78.108h-10.564m10.564 78.109h-10.564m10.564 78.121h-10.564m10.564 78.11h-10.564m10.564 78.09h-10.564m10.564 78.11h-10.564m10.564 78.11h-10.564m10.564 78.11h-10.564m83.29-1405.927h-10.563m10.563 78.082h-10.563m10.563 78.122h-10.563m10.563 78.108h-10.563m10.563 78.109h-10.563m10.563 78.122h-10.563m10.563 78.081h-10.563m10.563 78.109h-10.563m10.563 78.122h-10.563m10.563 78.109h-10.563m10.563 78.095h-10.563m10.563 78.108h-10.563m10.563 78.109h-10.563m10.563 78.121h-10.563m10.563 78.11h-10.563m10.563 78.09h-10.563m10.563 78.11h-10.563m10.563 78.11h-10.563m10.563 78.11h-10.563M457.761 45.753h-10.563m10.563 78.082h-10.563m10.563 78.122h-10.563m10.563 78.108h-10.563m10.563 78.109h-10.563m10.563 78.122h-10.563m10.563 78.081h-10.563m10.563 78.109h-10.563m10.563 78.122h-10.563m10.563 78.109h-10.563m10.563 78.095h-10.563m10.563 78.108h-10.563m10.563 78.109h-10.563m10.563 78.121h-10.563m10.563 78.11h-10.563m10.563 78.09h-10.563m10.563 78.11h-10.563m10.563 78.11h-10.563m10.563 78.11h-10.563M530.475 45.753h-10.501m10.564 78.082h-10.564m10.564 78.122h-10.564m10.564 78.108h-10.564m10.564 78.109h-10.564m10.564 78.122h-10.564m10.564 78.081h-10.564m10.564 78.109h-10.564m10.564 78.122h-10.564m10.564 78.109h-10.564m10.564 78.095h-10.564m10.564 78.108h-10.564m10.564 78.109h-10.564m10.564 78.121h-10.564m10.564 78.11h-10.564m10.564 78.09h-10.564m10.564 78.11h-10.564m10.564 78.11h-10.564m10.564 78.11h-10.564M603.202 45.753h-10.564m10.564 78.082h-10.564m10.564 78.122h-10.564m10.564 78.108h-10.564m10.564 78.109h-10.564m10.564 78.122h-10.564m10.564 78.081h-10.564m10.564 78.109h-10.564m10.564 78.122h-10.564m10.564 78.109h-10.564m10.564 78.095h-10.564m10.564 78.108h-10.564m10.564 78.109h-10.564m10.564 78.121h-10.564m10.564 78.11h-10.564m10.564 78.09h-10.564m10.564 78.11h-10.564m10.564 78.11h-10.564m10.564 78.11h-10.564M675.916 45.753h-10.564m10.564 78.082h-10.564m10.564 78.122h-10.564m10.564 78.108h-10.564m10.564 78.109h-10.564m10.564 78.122h-10.564m10.564 78.081h-10.564m10.564 78.109h-10.564m10.564 78.122h-10.564m10.564 78.109h-10.564m10.564 78.095h-10.564m10.564 78.108h-10.564m10.564 78.136h-10.564m10.564 78.094h-10.564m10.564 78.11h-10.564m10.564 78.09h-10.564m10.564 78.11h-10.564m10.564 78.07h-10.564m10.564 78.11h-10.564M748.63 45.753h-10.564m10.564 78.082h-10.564m10.564 78.122h-10.564m10.564 78.108h-10.564m10.564 78.109h-10.564m10.564 78.122h-10.564m10.564 78.081h-10.564m10.564 78.109h-10.564m10.564 78.122h-10.564m10.564 78.109h-10.564m10.564 78.095h-10.564m10.564 78.108h-10.564m10.564 78.109h-10.564m10.564 78.121h-10.564m10.564 78.11h-10.564m10.564 78.09h-10.564m10.564 78.11h-10.564m10.564 78.11h-10.564m10.564 78.11h-10.564" stroke="#939598" stroke-width=".83"/></g><defs><clipPath id="a"><path fill="#fff" transform="translate(-640 .99)" d="M0 0h960v569H0z"/></clipPath></defs></svg>