<svg width="358" height="728" viewBox="0 0 358 728" fill="none" xmlns="http://www.w3.org/2000/svg">
<g clip-path="url(#clip0_60_283)">
<path d="M-672.718 1367.14V1378.48M-672.718 1445.25V1456.53V1445.26M-600.004 39.2029V50.5523M-600.004 117.311V128.674M-600.004 195.42V206.756M-600.004 273.542V284.973M-600.004 351.745V363.081M-600.004 429.827V441.19M-600.004 507.949V519.298M-600.004 586.057V597.393M-600.004 664.179V675.502M-600.004 742.261V753.624M-600.004 820.383V831.732V820.369M-600.004 898.491V909.841M-600.004 976.6V987.936M-600.004 1054.71V1066.06M-600.004 1132.82V1144.18M-600.004 1210.93V1222.29M-600.004 1289.03V1300.37M-600.004 1367.16V1378.49M-600.004 1445.26V1456.53M-527.328 39.2975V50.6469M-527.328 117.406V128.769M-527.328 195.515V206.85M-527.328 273.637V284.973M-527.328 351.745V363.081M-527.328 429.827V441.19M-527.328 507.949V519.298M-527.328 586.057V597.393M-527.328 664.179V675.502M-527.328 742.261V753.624M-527.328 820.383V831.732V820.369M-527.328 898.518V909.868M-527.328 976.627V987.963M-527.328 1054.74V1066.06M-527.328 1132.82V1144.18M-527.328 1210.93V1222.29M-527.328 1289.03V1300.37M-527.328 1367.16V1378.49M-527.328 1445.26V1456.53M-454.614 39.2029V50.5523M-454.614 117.311V128.674M-454.614 195.42V206.756M-454.614 273.542V284.973M-454.614 351.745V363.081M-454.614 429.827V441.19M-454.614 507.949V519.298M-454.614 586.057V597.393M-454.614 664.179V675.502M-454.614 742.261V753.624M-454.614 820.383V831.732V820.369M-454.614 898.491V909.841M-454.614 976.6V987.936M-454.614 1054.71V1066.06M-454.614 1132.82V1144.18M-454.614 1210.93V1222.29M-454.614 1289.03V1300.37M-454.614 1367.16V1378.49M-454.614 1445.26V1456.53M-381.9 39.2029V50.5523M-381.9 117.311V128.674M-381.9 195.42V206.756M-381.9 273.542V284.973M-381.9 351.745V363.081M-381.9 429.827V441.19M-381.9 507.949V519.298M-381.9 586.057V597.393M-381.9 664.179V675.502M-381.9 742.261V753.624M-381.9 820.383V831.732V820.369M-381.9 898.491V909.841M-381.9 976.6V987.936M-381.9 1054.71V1066.06M-381.9 1132.82V1144.18M-381.9 1210.93V1222.29M-381.9 1289.03V1300.37M-381.9 1367.16V1378.49M-381.9 1445.26V1456.53M-309.173 39.2029V50.5523M-309.173 117.311V128.674M-309.173 195.42V206.756M-309.173 273.542V284.973M-309.173 351.745V363.081M-309.173 429.827V441.19M-309.173 507.949V519.298M-309.173 586.057V597.393M-309.173 664.179V675.502M-309.173 742.261V753.624M-309.173 820.383V831.732V820.369M-309.173 898.491V909.841M-309.173 976.6V987.936M-309.173 1054.71V1066.06M-309.173 1132.82V1144.18M-309.173 1210.93V1222.29M-309.173 1289.03V1300.37M-309.173 1367.16V1378.49M-309.173 1445.26V1456.53M-236.459 39.2029V50.5523M-236.459 117.311V128.674M-236.459 195.42V206.756M-236.459 273.542V284.973M-236.459 351.745V363.081M-236.459 429.827V441.19M-236.459 507.949V519.298M-236.459 586.057V597.393M-236.459 664.179V675.502M-236.459 742.261V753.624M-236.459 820.383V831.732M-236.459 898.491V909.841M-236.459 976.6V987.936M-236.459 1054.71V1066.06M-236.459 1132.82V1144.18M-236.459 1210.93V1222.29M-236.459 1289.03V1300.37M-236.459 1367.16V1378.49M-236.459 1445.26V1456.53M-163.745 39.2029V50.5523M-163.745 117.311V128.674M-163.745 195.42V206.756M-163.745 273.542V284.973M-163.745 351.745V363.081M-163.745 429.827V441.19M-163.745 507.949V519.298M-163.745 586.057V597.393M-163.745 664.179V675.502M-163.745 742.261V753.624M-163.745 820.383V831.732M-163.745 898.491V909.841M-163.745 976.6V987.936M-163.745 1054.71V1066.06M-163.745 1132.82V1144.18M-163.745 1210.93V1222.29M-163.745 1289.03V1300.37M-163.745 1367.16V1378.49M-163.745 1445.26V1456.53M-90.9433 39.2975V50.6469M-90.9433 117.406V128.769M-90.9433 195.515V206.85M-90.9433 273.637V284.973V273.623M-90.9433 351.745V363.081M-90.9433 429.827V441.19V429.84M-90.9433 507.949V519.298M-90.9433 586.057V597.393M-90.9433 664.179V675.502M-90.9433 742.261V753.624M-90.9433 820.383V831.732V820.369M-90.9433 898.518V909.868M-90.9433 976.627V987.963M-90.9433 1054.74V1066.06M-90.9433 1132.82V1144.18M-90.9433 1210.93V1222.29M-90.9433 1289.03V1300.37M-90.9433 1367.16V1378.49M-90.9433 1445.26V1456.53V1445.21M-18.2293 39.2029V50.5523M-18.2293 117.311V128.674M-18.2293 195.42V206.756M-18.2293 273.542V284.973M-18.2293 351.745V363.081M-18.2293 429.827V441.19M-18.2293 507.949V519.298M-18.2293 586.057V597.393M-18.2293 664.179V675.502M-18.2293 742.261V753.624M-18.2293 820.383V831.732M-18.2293 898.491V909.841M-18.2293 976.6V987.936M-18.2293 1054.71V1066.06V1054.61M-18.2293 1132.82V1144.18M-18.2293 1210.93V1222.29M-18.2293 1289.03V1300.37V1289.05M-18.2293 1367.16V1378.49M-18.2293 1445.26V1456.53M54.4847 39.2029V50.5523M54.4847 117.311V128.674M54.4847 195.42V206.756M54.4847 273.542V284.973M54.4847 351.745V363.081M54.4847 429.827V441.19M54.4847 507.949V519.298M54.4847 586.057V597.393M54.4847 664.179V675.502M54.4847 742.261V753.624M54.4847 820.383V831.732M54.4847 898.491V909.841M54.4847 976.6V987.936M54.4847 1054.71V1066.06V1054.61M54.4847 1132.82V1144.18M54.4847 1210.93V1222.29M54.4847 1289.03V1300.37V1289.05M54.4847 1367.16V1378.49M54.4847 1445.26V1456.53M-672.718 39.2975V50.6469M-672.718 117.406V128.769M-672.718 195.515V206.85M-672.718 273.637V284.973M-672.718 351.745V363.081M-672.718 429.827V441.19M-672.718 507.949V519.298M-672.718 586.057V597.393M-672.718 664.179V675.502M-672.718 742.261V753.624M-672.718 820.369V831.732M-672.718 898.491V909.841M-672.718 976.6V987.936M-672.718 1054.71V1066.06M-672.718 1132.82V1144.18M-672.718 1210.93V1222.29M-672.718 1289.03V1300.37M-672.718 1367.16V1378.49M-309.123 1445.25V1456.53M-236.409 39.2029V50.5523M-236.409 117.311V128.674M-236.409 195.42V206.756M-236.409 273.528V284.878M-236.409 351.651V362.986M-236.409 429.746V441.095M-236.409 507.854V519.204M-236.409 585.963V597.299M-236.409 664.085V675.407M-236.409 742.166V753.529M-236.409 820.275V831.638M-236.409 898.397V909.746M-236.409 976.505V987.841M-236.409 1054.61V1066.06M-236.409 1132.82V1144.18M-236.409 1210.93V1222.29M-236.409 1289.05V1300.37M-236.409 1367.16V1378.49M-236.409 1445.26V1456.53M-163.695 39.2029V50.5523M-163.695 117.311V128.674M-163.695 195.42V206.756M-163.695 273.528V284.878M-163.695 351.651V362.986M-163.695 429.746V441.095M-163.695 507.854V519.204M-163.695 585.963V597.299M-163.695 664.085V675.407M-163.695 742.166V753.529M-163.695 820.275V831.638M-163.695 898.397V909.746M-163.695 976.505V987.841M-163.695 1054.61V1066.06M-163.695 1132.82V1144.18M-163.695 1210.93V1222.29M-163.695 1289.05V1300.37M-163.695 1367.16V1378.49M-163.695 1445.26V1456.53M-90.9433 1288.99V1300.32M-90.9433 1367.1V1378.44M-18.2293 273.528V284.878M-18.2293 351.651V362.986M-18.2293 429.746V441.095M-18.2293 507.854V519.204M-18.2293 585.963V597.299M-18.2293 664.085V675.407M-18.2293 742.166V753.529M-18.2293 820.275V831.638M-18.2293 898.397V909.746M-18.2293 976.505V987.841M54.4847 273.528V284.878M54.4847 351.651V362.986M54.4847 429.746V441.095M54.4847 507.854V519.204M54.4847 585.963V597.299M54.4847 664.085V675.407M54.4847 742.166V753.529M54.4847 820.275V831.638M54.4847 898.397V909.746M54.4847 976.505V987.841M-667.436 44.9857H-678M-667.436 123.067H-678M-667.436 201.189H-678M-667.436 279.298H-678M-667.436 357.406H-678M-667.436 435.528H-678M-667.436 513.61H-678M-667.436 591.718H-678M-667.436 669.84H-678M-667.436 747.949H-678M-667.436 826.044H-678M-667.436 904.153H-678M-667.436 982.288H-678M-667.436 1060.41H-678M-667.436 1138.52H-678M-667.436 1216.61H-678M-667.436 1294.72H-678M-667.436 1372.76H-678M-667.436 1450.87H-678M-594.722 44.9857H-605.299M-594.747 123.067H-605.299M-594.747 201.189H-605.299M-594.722 279.298H-605.299M-594.747 357.406H-605.299M-594.747 435.528H-605.299M-594.747 513.61H-605.299M-594.747 591.718H-605.299M-594.747 669.84H-605.299M-594.747 747.949H-605.299M-594.747 826.044H-605.299M-594.747 904.153H-605.299M-594.722 982.288H-605.299M-594.747 1060.41H-605.299M-594.747 1138.52H-605.299M-594.747 1216.61H-605.299M-594.747 1294.72H-605.299M-594.722 1372.76H-605.299M-594.747 1450.87H-605.299M-522.008 44.9857H-532.559M-522.008 123.067H-532.559M-522.008 201.189H-532.559M-522.008 279.298H-532.559M-522.008 357.406H-532.559M-522.008 435.528H-532.559M-522.008 513.61H-532.559M-522.008 591.718H-532.559M-522.008 669.84H-532.559M-522.008 747.949H-532.559M-522.008 826.044H-532.559M-522.008 904.153H-532.559M-522.008 982.288H-532.559M-522.008 1060.41H-532.559M-522.008 1138.52H-532.559M-522.008 1216.61H-532.559M-522.008 1294.72H-532.559M-522.008 1372.76H-532.559M-522.008 1450.87H-532.559M-449.282 44.9857H-459.845M-449.282 123.067H-459.845M-449.282 201.189H-459.845M-449.282 279.298H-459.845M-449.282 357.406H-459.845M-449.282 435.528H-459.845M-449.282 513.61H-459.845M-449.282 591.718H-459.845M-449.282 669.84H-459.845M-449.282 747.949H-459.845M-449.282 826.044H-459.845M-449.282 904.153H-459.845M-449.282 982.261H-459.845M-449.282 1060.38H-459.845M-449.282 1138.49H-459.845M-449.282 1216.59H-459.845M-449.282 1294.7H-459.845M-449.282 1372.8H-459.845M-449.282 1450.91H-459.845M-376.568 44.9857H-387.131M-376.568 123.067H-387.131M-376.568 201.189H-387.131M-376.568 279.298H-387.131M-376.568 357.406H-387.131M-376.568 435.528H-387.131M-376.568 513.61H-387.131M-376.568 591.718H-387.131M-376.568 669.84H-387.131M-376.568 747.949H-387.131M-376.568 826.044H-387.131M-376.568 904.153H-387.131M-376.568 982.261H-387.131M-376.568 1060.38H-387.131M-376.568 1138.49H-387.131M-376.568 1216.59H-387.131M-376.568 1294.7H-387.131M-376.568 1372.8H-387.131M-376.568 1450.91H-387.131M-303.841 44.9857H-314.405M-303.841 123.067H-314.405M-303.841 201.189H-314.405M-303.841 279.298H-314.405M-303.841 357.406H-314.405M-303.841 435.528H-314.405M-303.841 513.61H-314.405M-303.841 591.718H-314.405M-303.841 669.84H-314.405M-303.841 747.949H-314.405M-303.841 826.044H-314.405M-303.841 904.153H-314.405M-303.841 982.261H-314.405M-303.841 1060.38H-314.405M-303.841 1138.49H-314.405M-303.841 1216.59H-314.405M-303.841 1294.7H-314.405M-303.841 1372.8H-314.405M-303.841 1450.91H-314.405M-231.127 44.9857H-241.691M-231.127 123.067H-241.691M-231.127 201.189H-241.691M-231.127 279.298H-241.691M-231.127 357.406H-241.691M-231.127 435.528H-241.691M-231.127 513.61H-241.691M-231.127 591.718H-241.691M-231.127 669.84H-241.691M-231.127 747.949H-241.691M-231.127 826.044H-241.691M-231.127 904.153H-241.691M-231.127 982.261H-241.691M-231.127 1060.38H-241.691M-231.127 1138.49H-241.691M-231.127 1216.59H-241.691M-231.127 1294.7H-241.691M-231.127 1372.8H-241.691M-231.127 1450.91H-241.691M-158.413 44.9857H-168.914M-158.35 123.067H-168.914M-158.35 201.189H-168.914M-158.35 279.298H-168.914M-158.35 357.406H-168.914M-158.35 435.528H-168.914M-158.35 513.61H-168.914M-158.35 591.718H-168.914M-158.35 669.84H-168.914M-158.35 747.949H-168.914M-158.35 826.044H-168.914M-158.35 904.153H-168.914M-158.35 982.261H-168.914M-158.35 1060.38H-168.914M-158.35 1138.49H-168.914M-158.35 1216.59H-168.914M-158.35 1294.7H-168.914M-158.35 1372.8H-168.914M-158.35 1450.91H-168.914M-85.6865 44.9857H-96.2503M-85.6865 123.067H-96.2503M-85.6865 201.189H-96.2503M-85.6865 279.298H-96.2503M-85.6865 357.406H-96.2503M-85.6865 435.528H-96.2503M-85.6865 513.61H-96.2503M-85.6865 591.718H-96.2503M-85.6865 669.84H-96.2503M-85.6865 747.949H-96.2503M-85.6865 826.044H-96.2503M-85.6865 904.153H-96.2503M-85.6865 982.261H-96.2503M-85.6865 1060.38H-96.2503M-85.6865 1138.49H-96.2503M-85.6865 1216.59H-96.2503M-85.6865 1294.7H-96.2503M-85.6865 1372.8H-96.2503M-85.6865 1450.91H-96.2503M-12.9725 44.9857H-23.5364M-12.9725 123.067H-23.5364M-12.9725 201.189H-23.5364M-12.9725 279.298H-23.5364M-12.9725 357.406H-23.5364M-12.9725 435.528H-23.5364M-12.9725 513.61H-23.5364M-12.9725 591.718H-23.5364M-12.9725 669.84H-23.5364M-12.9725 747.949H-23.5364M-12.9725 826.044H-23.5364M-12.9725 904.153H-23.5364M-12.9725 982.288H-23.5364M-12.9725 1060.38H-23.5364M-12.9725 1138.49H-23.5364M-12.9725 1216.59H-23.5364M-12.9725 1294.7H-23.5364M-12.9725 1372.76H-23.5364M-12.9725 1450.87H-23.5364M59.7415 44.9857H49.1777M59.7415 123.067H49.1777M59.7415 201.189H49.1777M59.7415 279.298H49.1777M59.7415 357.406H49.1777M59.7415 435.528H49.1777M59.7415 513.61H49.1777M59.7415 591.718H49.1777M59.7415 669.84H49.1777M59.7415 747.949H49.1777M59.7415 826.044H49.1777M59.7415 904.153H49.1777M59.7415 982.261H49.1777M59.7415 1060.38H49.1777M59.7415 1138.49H49.1777M59.7415 1216.59H49.1777M59.7415 1294.7H49.1777M59.7415 1372.8H49.1777M59.7415 1450.91H49.1777M126.884 39.2029V50.5523M126.884 117.311V128.674M126.884 195.42V206.756M126.884 273.542V284.973M126.884 351.745V363.081M126.884 429.827V441.19M126.884 507.949V519.298M126.884 586.057V597.393M126.884 664.179V675.502M126.884 742.261V753.624M126.884 820.383V831.732V820.369M126.884 898.491V909.841M126.884 976.6V987.936M126.884 1054.71V1066.06M126.884 1132.82V1144.18M126.884 1210.93V1222.29M126.884 1289.03V1300.37M126.884 1367.16V1378.49M126.884 1445.26V1456.53M199.561 39.2975V50.6469M199.561 117.406V128.769M199.561 195.515V206.85M199.561 273.637V284.973M199.561 351.745V363.081M199.561 429.827V441.19M199.561 507.949V519.298M199.561 586.057V597.393M199.561 664.179V675.502M199.561 742.261V753.624M199.561 820.383V831.732V820.369M199.561 898.518V909.868M199.561 976.627V987.963M199.561 1054.74V1066.06M199.561 1132.82V1144.18M199.561 1210.93V1222.29M199.561 1289.03V1300.37M199.561 1367.16V1378.49M199.561 1445.26V1456.53M272.275 39.2029V50.5523M272.275 117.311V128.674M272.275 195.42V206.756M272.275 273.542V284.973M272.275 351.745V363.081M272.275 429.827V441.19M272.275 507.949V519.298M272.275 586.057V597.393M272.275 664.179V675.502M272.275 742.261V753.624M272.275 820.383V831.732V820.369M272.275 898.491V909.841M272.275 976.6V987.936M272.275 1054.71V1066.06M272.275 1132.82V1144.18M272.275 1210.93V1222.29M272.275 1289.03V1300.37M272.275 1367.16V1378.49M272.275 1445.26V1456.53M344.989 39.2029V50.5523M344.989 117.311V128.674M344.989 195.42V206.756M344.989 273.542V284.973M344.989 351.745V363.081M344.989 429.827V441.19M344.989 507.949V519.298M344.989 586.057V597.393M344.989 664.179V675.502M344.989 742.261V753.624M344.989 820.383V831.732V820.369M344.989 898.491V909.841M344.989 976.6V987.936M344.989 1054.71V1066.06M344.989 1132.82V1144.18M344.989 1210.93V1222.29M344.989 1289.03V1300.37M344.989 1367.16V1378.49M344.989 1445.26V1456.53M417.715 39.2029V50.5523M417.715 117.311V128.674M417.715 195.42V206.756M417.715 273.542V284.973M417.715 351.745V363.081M417.715 429.827V441.19M417.715 507.949V519.298M417.715 586.057V597.393M417.715 664.179V675.502M417.715 742.261V753.624M417.715 820.383V831.732V820.369M417.715 898.491V909.841M417.715 976.6V987.936M417.715 1054.71V1066.06M417.715 1132.82V1144.18M417.715 1210.93V1222.29M417.715 1289.03V1300.37M417.715 1367.16V1378.49M417.715 1445.26V1456.53M490.429 39.2029V50.5523M490.429 117.311V128.674M490.429 195.42V206.756M490.429 273.542V284.973M490.429 351.745V363.081M490.429 429.827V441.19M490.429 507.949V519.298M490.429 586.057V597.393M490.429 664.179V675.502M490.429 742.261V753.624M490.429 820.383V831.732M490.429 898.491V909.841M490.429 976.6V987.936M490.429 1054.71V1066.06M490.429 1132.82V1144.18M490.429 1210.93V1222.29M490.429 1289.03V1300.37M490.429 1367.16V1378.49M490.429 1445.26V1456.53M563.143 39.2029V50.5523M563.143 117.311V128.674M563.143 195.42V206.756M563.143 273.542V284.973M563.143 351.745V363.081M563.143 429.827V441.19M563.143 507.949V519.298M563.143 586.057V597.393M563.143 664.179V675.502M563.143 742.261V753.624M563.143 820.383V831.732M563.143 898.491V909.841M563.143 976.6V987.936M563.143 1054.71V1066.06M563.143 1132.82V1144.18M563.143 1210.93V1222.29M563.143 1289.03V1300.37M563.143 1367.16V1378.49M563.143 1445.26V1456.53M635.945 39.2975V50.6469M635.945 117.406V128.769M635.945 195.515V206.85M635.945 273.637V284.973V273.623M635.945 351.745V363.081M635.945 429.827V441.19V429.84M635.945 507.949V519.298M635.945 586.057V597.393M635.945 664.179V675.502M635.945 742.261V753.624M635.945 820.383V831.732V820.369M635.945 898.518V909.868M635.945 976.627V987.963M635.945 1054.74V1066.06M635.945 1132.82V1144.18M635.945 1210.93V1222.29M635.945 1289.03V1300.37M635.945 1367.16V1378.49M635.945 1445.26V1456.53V1445.21M708.659 39.2029V50.5523M708.659 117.311V128.674M708.659 195.42V206.756M708.659 273.542V284.973M708.659 351.745V363.081M708.659 429.827V441.19M708.659 507.949V519.298M708.659 586.057V597.393M708.659 664.179V675.502M708.659 742.261V753.624M708.659 820.383V831.732M708.659 898.491V909.841M708.659 976.6V987.936M708.659 1054.71V1066.06V1054.61M708.659 1132.82V1144.18M708.659 1210.93V1222.29M708.659 1289.03V1300.37V1289.05M708.659 1367.16V1378.49M708.659 1445.26V1456.53M781.373 39.2029V50.5523M781.373 117.311V128.674M781.373 195.42V206.756M781.373 273.542V284.973M781.373 351.745V363.081M781.373 429.827V441.19M781.373 507.949V519.298M781.373 586.057V597.393M781.373 664.179V675.502M781.373 742.261V753.624M781.373 820.383V831.732M781.373 898.491V909.841M781.373 976.6V987.936M781.373 1054.71V1066.06V1054.61M781.373 1132.82V1144.18M781.373 1210.93V1222.29M781.373 1289.03V1300.37V1289.05M781.373 1367.16V1378.49M781.373 1445.26V1456.53M417.766 1445.25V1456.53M490.479 39.2029V50.5523M490.479 117.311V128.674M490.479 195.42V206.756M490.479 273.528V284.878M490.479 351.651V362.986M490.479 429.746V441.095M490.479 507.854V519.204M490.479 585.963V597.299M490.479 664.085V675.407M490.479 742.166V753.529M490.479 820.275V831.638M490.479 898.397V909.746M490.479 976.505V987.841M490.479 1054.61V1066.06M490.479 1132.82V1144.18M490.479 1210.93V1222.29M490.479 1289.05V1300.37M490.479 1367.16V1378.49M490.479 1445.26V1456.53M563.194 39.2029V50.5523M563.194 117.311V128.674M563.194 195.42V206.756M563.194 273.528V284.878M563.194 351.651V362.986M563.194 429.746V441.095M563.194 507.854V519.204M563.194 585.963V597.299M563.194 664.085V675.407M563.194 742.166V753.529M563.194 820.275V831.638M563.194 898.397V909.746M563.194 976.505V987.841M563.194 1054.61V1066.06M563.194 1132.82V1144.18M563.194 1210.93V1222.29M563.194 1289.05V1300.37M563.194 1367.16V1378.49M563.194 1445.26V1456.53M635.945 1288.99V1300.32M635.945 1367.1V1378.44M708.659 273.528V284.878M708.659 351.651V362.986M708.659 429.746V441.095M708.659 507.854V519.204M708.659 585.963V597.299M708.659 664.085V675.407M708.659 742.166V753.529M708.659 820.275V831.638M708.659 898.397V909.746M708.659 976.505V987.841M781.373 273.528V284.878M781.373 351.651V362.986M781.373 429.746V441.095M781.373 507.854V519.204M781.373 585.963V597.299M781.373 664.085V675.407M781.373 742.166V753.529M781.373 820.275V831.638M781.373 898.397V909.746M781.373 976.505V987.841M132.166 44.9857H121.59M132.141 123.067H121.59M132.141 201.189H121.59M132.166 279.298H121.59M132.141 357.406H121.59M132.141 435.528H121.59M132.141 513.61H121.59M132.141 591.718H121.59M132.141 669.84H121.59M132.141 747.949H121.59M132.141 826.044H121.59M132.141 904.153H121.59M132.166 982.288H121.59M132.141 1060.41H121.59M132.141 1138.52H121.59M132.141 1216.61H121.59M132.141 1294.72H121.59M132.166 1372.76H121.59M132.141 1450.87H121.59M204.88 44.9857H194.329M204.88 123.067H194.329M204.88 201.189H194.329M204.88 279.298H194.329M204.88 357.406H194.329M204.88 435.528H194.329M204.88 513.61H194.329M204.88 591.718H194.329M204.88 669.84H194.329M204.88 747.949H194.329M204.88 826.044H194.329M204.88 904.153H194.329M204.88 982.288H194.329M204.88 1060.41H194.329M204.88 1138.52H194.329M204.88 1216.61H194.329M204.88 1294.72H194.329M204.88 1372.76H194.329M204.88 1450.87H194.329M277.607 44.9857H267.043M277.607 123.067H267.043M277.607 201.189H267.043M277.607 279.298H267.043M277.607 357.406H267.043M277.607 435.528H267.043M277.607 513.61H267.043M277.607 591.718H267.043M277.607 669.84H267.043M277.607 747.949H267.043M277.607 826.044H267.043M277.607 904.153H267.043M277.607 982.261H267.043M277.607 1060.38H267.043M277.607 1138.49H267.043M277.607 1216.59H267.043M277.607 1294.7H267.043M277.607 1372.8H267.043M277.607 1450.91H267.043M350.321 44.9857H339.757M350.321 123.067H339.757M350.321 201.189H339.757M350.321 279.298H339.757M350.321 357.406H339.757M350.321 435.528H339.757M350.321 513.61H339.757M350.321 591.718H339.757M350.321 669.84H339.757M350.321 747.949H339.757M350.321 826.044H339.757M350.321 904.153H339.757M350.321 982.261H339.757M350.321 1060.38H339.757M350.321 1138.49H339.757M350.321 1216.59H339.757M350.321 1294.7H339.757M350.321 1372.8H339.757M350.321 1450.91H339.757M423.047 44.9857H412.484M423.047 123.067H412.484M423.047 201.189H412.484M423.047 279.298H412.484M423.047 357.406H412.484M423.047 435.528H412.484M423.047 513.61H412.484M423.047 591.718H412.484M423.047 669.84H412.484M423.047 747.949H412.484M423.047 826.044H412.484M423.047 904.153H412.484M423.047 982.261H412.484M423.047 1060.38H412.484M423.047 1138.49H412.484M423.047 1216.59H412.484M423.047 1294.7H412.484M423.047 1372.8H412.484M423.047 1450.91H412.484M495.761 44.9857H485.198M495.761 123.067H485.198M495.761 201.189H485.198M495.761 279.298H485.198M495.761 357.406H485.198M495.761 435.528H485.198M495.761 513.61H485.198M495.761 591.718H485.198M495.761 669.84H485.198M495.761 747.949H485.198M495.761 826.044H485.198M495.761 904.153H485.198M495.761 982.261H485.198M495.761 1060.38H485.198M495.761 1138.49H485.198M495.761 1216.59H485.198M495.761 1294.7H485.198M495.761 1372.8H485.198M495.761 1450.91H485.198M568.475 44.9857H557.974M568.538 123.067H557.974M568.538 201.189H557.974M568.538 279.298H557.974M568.538 357.406H557.974M568.538 435.528H557.974M568.538 513.61H557.974M568.538 591.718H557.974M568.538 669.84H557.974M568.538 747.949H557.974M568.538 826.044H557.974M568.538 904.153H557.974M568.538 982.261H557.974M568.538 1060.38H557.974M568.538 1138.49H557.974M568.538 1216.59H557.974M568.538 1294.7H557.974M568.538 1372.8H557.974M568.538 1450.91H557.974M641.202 44.9857H630.638M641.202 123.067H630.638M641.202 201.189H630.638M641.202 279.298H630.638M641.202 357.406H630.638M641.202 435.528H630.638M641.202 513.61H630.638M641.202 591.718H630.638M641.202 669.84H630.638M641.202 747.949H630.638M641.202 826.044H630.638M641.202 904.153H630.638M641.202 982.261H630.638M641.202 1060.38H630.638M641.202 1138.49H630.638M641.202 1216.59H630.638M641.202 1294.7H630.638M641.202 1372.8H630.638M641.202 1450.91H630.638M713.916 44.9857H703.352M713.916 123.067H703.352M713.916 201.189H703.352M713.916 279.298H703.352M713.916 357.406H703.352M713.916 435.528H703.352M713.916 513.61H703.352M713.916 591.718H703.352M713.916 669.84H703.352M713.916 747.949H703.352M713.916 826.044H703.352M713.916 904.153H703.352M713.916 982.288H703.352M713.916 1060.38H703.352M713.916 1138.49H703.352M713.916 1216.59H703.352M713.916 1294.7H703.352M713.916 1372.76H703.352M713.916 1450.87H703.352M786.63 44.9857H776.066M786.63 123.067H776.066M786.63 201.189H776.066M786.63 279.298H776.066M786.63 357.406H776.066M786.63 435.528H776.066M786.63 513.61H776.066M786.63 591.718H776.066M786.63 669.84H776.066M786.63 747.949H776.066M786.63 826.044H776.066M786.63 904.153H776.066M786.63 982.261H776.066M786.63 1060.38H776.066M786.63 1138.49H776.066M786.63 1216.59H776.066M786.63 1294.7H776.066M786.63 1372.8H776.066M786.63 1450.91H776.066" stroke="#939598" stroke-width="0.83"/>
</g>
<defs>
<clipPath id="clip0_60_283">
<rect width="960" height="727" fill="white" transform="translate(-602 0.223145)"/>
</clipPath>
</defs>
</svg>
