<svg width="108" height="292" viewBox="0 0 108 292" fill="none" xmlns="http://www.w3.org/2000/svg">
<g clip-path="url(#clip0_75_61)">
<path d="M-234.623 642.204V648.396M-234.623 684.868V691.031V684.876M-194.905 -83.1335V-76.9343M-194.905 -40.4696V-34.263M-194.905 2.19425V8.38609M-194.905 44.8655V51.109M-194.905 87.5811V93.7729M-194.905 130.23V136.437M-194.905 172.902V179.101M-194.905 215.565V221.757M-194.905 258.237V264.421M-194.905 300.886V307.092M-194.905 343.557V349.756V343.55M-194.905 386.221V392.42M-194.905 428.885V435.077M-194.905 471.549V477.748M-194.905 514.213V520.419M-194.905 556.877V563.083M-194.905 599.541V605.732M-194.905 642.212V648.404M-194.905 684.876V691.031M-155.209 -83.0819V-76.8827M-155.209 -40.418V-34.2114M-155.209 2.24592V8.43776M-155.209 44.9172V51.109M-155.209 87.5811V93.7729M-155.209 130.23V136.437M-155.209 172.902V179.101M-155.209 215.565V221.757M-155.209 258.237V264.421M-155.209 300.886V307.092M-155.209 343.557V349.756V343.55M-155.209 386.236V392.435M-155.209 428.9V435.092M-155.209 471.564V477.748M-155.209 514.213V520.419M-155.209 556.877V563.083M-155.209 599.541V605.732M-155.209 642.212V648.404M-155.209 684.876V691.031M-115.491 -83.1335V-76.9343M-115.491 -40.4696V-34.263M-115.491 2.19425V8.38609M-115.491 44.8655V51.109M-115.491 87.5811V93.7729M-115.491 130.23V136.437M-115.491 172.902V179.101M-115.491 215.565V221.757M-115.491 258.237V264.421M-115.491 300.886V307.092M-115.491 343.557V349.756V343.55M-115.491 386.221V392.42M-115.491 428.885V435.077M-115.491 471.549V477.748M-115.491 514.213V520.419M-115.491 556.877V563.083M-115.491 599.541V605.732M-115.491 642.212V648.404M-115.491 684.876V691.031M-75.7741 -83.1335V-76.9343M-75.7741 -40.4696V-34.263M-75.7741 2.19425V8.38609M-75.7741 44.8655V51.109M-75.7741 87.5811V93.7729M-75.7741 130.23V136.437M-75.7741 172.902V179.101M-75.7741 215.565V221.757M-75.7741 258.237V264.421M-75.7741 300.886V307.092M-75.7741 343.557V349.756V343.55M-75.7741 386.221V392.42M-75.7741 428.885V435.077M-75.7741 471.549V477.748M-75.7741 514.213V520.419M-75.7741 556.877V563.083M-75.7741 599.541V605.732M-75.7741 642.212V648.404M-75.7741 684.876V691.031M-36.0498 -83.1335V-76.9343M-36.0498 -40.4696V-34.263M-36.0498 2.19425V8.38609M-36.0498 44.8655V51.109M-36.0498 87.5811V93.7729M-36.0498 130.23V136.437M-36.0498 172.902V179.101M-36.0498 215.565V221.757M-36.0498 258.237V264.421M-36.0498 300.886V307.092M-36.0498 343.557V349.756V343.55M-36.0498 386.221V392.42M-36.0498 428.885V435.077M-36.0498 471.549V477.748M-36.0498 514.213V520.419M-36.0498 556.877V563.083M-36.0498 599.541V605.732M-36.0498 642.212V648.404M-36.0498 684.876V691.031M3.6675 -83.1335V-76.9343M3.6675 -40.4696V-34.263M3.6675 2.19425V8.38609M3.6675 44.8655V51.109M3.6675 87.5811V93.7729M3.6675 130.23V136.437M3.6675 172.902V179.101M3.6675 215.565V221.757M3.6675 258.237V264.421M3.6675 300.886V307.092M3.6675 343.557V349.756M3.6675 386.221V392.42M3.6675 428.885V435.077M3.6675 471.549V477.748M3.6675 514.213V520.419M3.6675 556.877V563.083M3.6675 599.541V605.732M3.6675 642.212V648.404M3.6675 684.876V691.031M43.3848 -83.1335V-76.9343M43.3848 -40.4696V-34.263M43.3848 2.19425V8.38609M43.3848 44.8655V51.109M43.3848 87.5811V93.7729M43.3848 130.23V136.437M43.3848 172.902V179.101M43.3848 215.565V221.757M43.3848 258.237V264.421M43.3848 300.886V307.092M43.3848 343.557V349.756M43.3848 386.221V392.42M43.3848 428.885V435.077M43.3848 471.549V477.748M43.3848 514.213V520.419M43.3848 556.877V563.083M43.3848 599.541V605.732M43.3848 642.212V648.404M43.3848 684.876V691.031M83.1502 -83.0819V-76.8827M83.1502 -40.418V-34.2114M83.1502 2.24592V8.43776M83.1502 44.9172V51.109V44.9098M83.1502 87.5811V93.7729M83.1502 130.23V136.437V130.238M83.1502 172.902V179.101M83.1502 215.565V221.757M83.1502 258.237V264.421M83.1502 300.886V307.092M83.1502 343.557V349.756V343.55M83.1502 386.236V392.435M83.1502 428.9V435.092M83.1502 471.564V477.748M83.1502 514.213V520.419M83.1502 556.877V563.083M83.1502 599.541V605.732M83.1502 642.212V648.404M83.1502 684.876V691.031V684.846M122.868 -83.1335V-76.9343M122.868 -40.4696V-34.263M122.868 2.19425V8.38609M122.868 44.8655V51.109M122.868 87.5811V93.7729M122.868 130.23V136.437M122.868 172.902V179.101M122.868 215.565V221.757M122.868 258.237V264.421M122.868 300.886V307.092M122.868 343.557V349.756M122.868 386.221V392.42M122.868 428.885V435.077M122.868 471.549V477.748V471.497M122.868 514.213V520.419M122.868 556.877V563.083M122.868 599.541V605.732V599.548M122.868 642.212V648.404M122.868 684.876V691.031M162.585 -83.1335V-76.9343M162.585 -40.4696V-34.263M162.585 2.19425V8.38609M162.585 44.8655V51.109M162.585 87.5811V93.7729M162.585 130.23V136.437M162.585 172.902V179.101M162.585 215.565V221.757M162.585 258.237V264.421M162.585 300.886V307.092M162.585 343.557V349.756M162.585 386.221V392.42M162.585 428.885V435.077M162.585 471.549V477.748V471.497M162.585 514.213V520.419M162.585 556.877V563.083M162.585 599.541V605.732V599.548M162.585 642.212V648.404M162.585 684.876V691.031M-234.623 -83.0819V-76.8827M-234.623 -40.418V-34.2114M-234.623 2.24592V8.43776M-234.623 44.9172V51.109M-234.623 87.5811V93.7729M-234.623 130.23V136.437M-234.623 172.902V179.101M-234.623 215.565V221.757M-234.623 258.237V264.421M-234.623 300.886V307.092M-234.623 343.55V349.756M-234.623 386.221V392.42M-234.623 428.885V435.077M-234.623 471.549V477.748M-234.623 514.213V520.419M-234.623 556.877V563.083M-234.623 599.541V605.732M-234.623 642.212V648.404M-36.0224 684.868V691.031M3.69494 -83.1335V-76.9343M3.69494 -40.4696V-34.263M3.69494 2.19425V8.38609M3.69494 44.8582V51.0574M3.69494 87.5294V93.7213M3.69494 130.186V136.385M3.69494 172.85V179.049M3.69494 215.514V221.706M3.69494 258.185V264.369M3.69494 300.834V307.041M3.69494 343.498V349.705M3.69494 386.169V392.369M3.69494 428.833V435.025M3.69494 471.497V477.748M3.69494 514.213V520.419M3.69494 556.877V563.083M3.69494 599.548V605.732M3.69494 642.212V648.404M3.69494 684.876V691.031M43.4123 -83.1335V-76.9343M43.4123 -40.4696V-34.263M43.4123 2.19425V8.38609M43.4123 44.8582V51.0574M43.4123 87.5294V93.7213M43.4123 130.186V136.385M43.4123 172.85V179.049M43.4123 215.514V221.706M43.4123 258.185V264.369M43.4123 300.834V307.041M43.4123 343.498V349.705M43.4123 386.169V392.369M43.4123 428.833V435.025M43.4123 471.497V477.748M43.4123 514.213V520.419M43.4123 556.877V563.083M43.4123 599.548V605.732M43.4123 642.212V648.404M43.4123 684.876V691.031M83.1502 599.518V605.703M83.1502 642.182V648.374M122.868 44.8582V51.0574M122.868 87.5294V93.7213M122.868 130.186V136.385M122.868 172.85V179.049M122.868 215.514V221.706M122.868 258.185V264.369M122.868 300.834V307.041M122.868 343.498V349.705M122.868 386.169V392.369M122.868 428.833V435.025M162.585 44.8582V51.0574M162.585 87.5294V93.7213M162.585 130.186V136.385M162.585 172.85V179.049M162.585 215.514V221.706M162.585 258.185V264.369M162.585 300.834V307.041M162.585 343.498V349.705M162.585 386.169V392.369M162.585 428.833V435.025M-231.738 -79.9749H-237.508M-231.738 -37.3258H-237.508M-231.738 5.34553H-237.508M-231.738 48.0094H-237.508M-231.738 90.6733H-237.508M-231.738 133.345H-237.508M-231.738 175.994H-237.508M-231.738 218.658H-237.508M-231.738 261.329H-237.508M-231.738 303.993H-237.508M-231.738 346.649H-237.508M-231.738 389.313H-237.508M-231.738 431.992H-237.508M-231.738 474.663H-237.508M-231.738 517.327H-237.508M-231.738 559.984H-237.508M-231.738 602.647H-237.508M-231.738 645.274H-237.508M-231.738 687.938H-237.508M-192.02 -79.9749H-197.797M-192.034 -37.3257H-197.797M-192.034 5.34555H-197.797M-192.02 48.0094H-197.797M-192.034 90.6734H-197.797M-192.034 133.345H-197.797M-192.034 175.994H-197.797M-192.034 218.658H-197.797M-192.034 261.329H-197.797M-192.034 303.993H-197.797M-192.034 346.649H-197.797M-192.034 389.313H-197.797M-192.02 431.992H-197.797M-192.034 474.663H-197.797M-192.034 517.327H-197.797M-192.034 559.984H-197.797M-192.034 602.647H-197.797M-192.02 645.274H-197.797M-192.034 687.938H-197.797M-152.303 -79.9749H-158.066M-152.303 -37.3257H-158.066M-152.303 5.34555H-158.066M-152.303 48.0094H-158.066M-152.303 90.6734H-158.066M-152.303 133.345H-158.066M-152.303 175.994H-158.066M-152.303 218.658H-158.066M-152.303 261.329H-158.066M-152.303 303.993H-158.066M-152.303 346.649H-158.066M-152.303 389.313H-158.066M-152.303 431.992H-158.066M-152.303 474.663H-158.066M-152.303 517.327H-158.066M-152.303 559.984H-158.066M-152.303 602.647H-158.066M-152.303 645.274H-158.066M-152.303 687.938H-158.066M-112.579 -79.9749H-118.349M-112.579 -37.3257H-118.349M-112.579 5.34555H-118.349M-112.579 48.0094H-118.349M-112.579 90.6734H-118.349M-112.579 133.345H-118.349M-112.579 175.994H-118.349M-112.579 218.658H-118.349M-112.579 261.329H-118.349M-112.579 303.993H-118.349M-112.579 346.649H-118.349M-112.579 389.313H-118.349M-112.579 431.977H-118.349M-112.579 474.648H-118.349M-112.579 517.312H-118.349M-112.579 559.969H-118.349M-112.579 602.633H-118.349M-112.579 645.297H-118.349M-112.579 687.961H-118.349M-72.8615 -79.9749H-78.6316M-72.8615 -37.3257H-78.6316M-72.8615 5.34555H-78.6316M-72.8615 48.0094H-78.6316M-72.8615 90.6734H-78.6316M-72.8615 133.345H-78.6316M-72.8615 175.994H-78.6316M-72.8615 218.658H-78.6316M-72.8615 261.329H-78.6316M-72.8615 303.993H-78.6316M-72.8615 346.649H-78.6316M-72.8615 389.313H-78.6316M-72.8615 431.977H-78.6316M-72.8615 474.648H-78.6316M-72.8615 517.312H-78.6316M-72.8615 559.969H-78.6316M-72.8615 602.633H-78.6316M-72.8615 645.297H-78.6316M-72.8615 687.961H-78.6316M-33.1374 -79.9749H-38.9074M-33.1374 -37.3257H-38.9074M-33.1374 5.34555H-38.9074M-33.1374 48.0094H-38.9074M-33.1374 90.6734H-38.9074M-33.1374 133.345H-38.9074M-33.1374 175.994H-38.9074M-33.1374 218.658H-38.9074M-33.1374 261.329H-38.9074M-33.1374 303.993H-38.9074M-33.1374 346.649H-38.9074M-33.1374 389.313H-38.9074M-33.1374 431.977H-38.9074M-33.1374 474.648H-38.9074M-33.1374 517.312H-38.9074M-33.1374 559.969H-38.9074M-33.1374 602.633H-38.9074M-33.1374 645.297H-38.9074M-33.1374 687.961H-38.9074M6.57998 -79.9749H0.809914M6.57998 -37.3257H0.809914M6.57998 5.34555H0.809914M6.57998 48.0094H0.809914M6.57998 90.6734H0.809914M6.57998 133.345H0.809914M6.57998 175.994H0.809914M6.57998 218.658H0.809914M6.57998 261.329H0.809914M6.57998 303.993H0.809914M6.57998 346.649H0.809914M6.57998 389.313H0.809914M6.57998 431.977H0.809914M6.57998 474.648H0.809914M6.57998 517.312H0.809914M6.57998 559.969H0.809914M6.57998 602.633H0.809914M6.57998 645.297H0.809914M6.57998 687.961H0.809914M46.2973 -79.9749H40.5616M46.3317 -37.3257H40.5616M46.3317 5.34555H40.5616M46.3317 48.0094H40.5616M46.3317 90.6734H40.5616M46.3317 133.345H40.5616M46.3317 175.994H40.5616M46.3317 218.658H40.5616M46.3317 261.329H40.5616M46.3317 303.993H40.5616M46.3317 346.649H40.5616M46.3317 389.313H40.5616M46.3317 431.977H40.5616M46.3317 474.648H40.5616M46.3317 517.312H40.5616M46.3317 559.969H40.5616M46.3317 602.633H40.5616M46.3317 645.297H40.5616M46.3317 687.961H40.5616M86.0215 -79.9749H80.2514M86.0215 -37.3257H80.2514M86.0215 5.34555H80.2514M86.0215 48.0094H80.2514M86.0215 90.6734H80.2514M86.0215 133.345H80.2514M86.0215 175.994H80.2514M86.0215 218.658H80.2514M86.0215 261.329H80.2514M86.0215 303.993H80.2514M86.0215 346.649H80.2514M86.0215 389.313H80.2514M86.0215 431.977H80.2514M86.0215 474.648H80.2514M86.0215 517.312H80.2514M86.0215 559.969H80.2514M86.0215 602.633H80.2514M86.0215 645.297H80.2514M86.0215 687.961H80.2514M125.739 -79.9749H119.969M125.739 -37.3257H119.969M125.739 5.34555H119.969M125.739 48.0094H119.969M125.739 90.6734H119.969M125.739 133.345H119.969M125.739 175.994H119.969M125.739 218.658H119.969M125.739 261.329H119.969M125.739 303.993H119.969M125.739 346.649H119.969M125.739 389.313H119.969M125.739 431.992H119.969M125.739 474.648H119.969M125.739 517.312H119.969M125.739 559.969H119.969M125.739 602.633H119.969M125.739 645.274H119.969M125.739 687.938H119.969M165.456 -79.9749H159.686M165.456 -37.3257H159.686M165.456 5.34555H159.686M165.456 48.0094H159.686M165.456 90.6734H159.686M165.456 133.345H159.686M165.456 175.994H159.686M165.456 218.658H159.686M165.456 261.329H159.686M165.456 303.993H159.686M165.456 346.649H159.686M165.456 389.313H159.686M165.456 431.977H159.686M165.456 474.648H159.686M165.456 517.312H159.686M165.456 559.969H159.686M165.456 602.633H159.686M165.456 645.297H159.686M165.456 687.961H159.686M202.131 -83.1335V-76.9343M202.131 -40.4696V-34.263M202.131 2.19425V8.38609M202.131 44.8655V51.109M202.131 87.5811V93.7729M202.131 130.23V136.437M202.131 172.902V179.101M202.131 215.565V221.757M202.131 258.237V264.421M202.131 300.886V307.092M202.131 343.557V349.756V343.55M202.131 386.221V392.42M202.131 428.885V435.077M202.131 471.549V477.748M202.131 514.213V520.419M202.131 556.877V563.083M202.131 599.541V605.732M202.131 642.212V648.404M202.131 684.876V691.031M241.827 -83.0819V-76.8827M241.827 -40.418V-34.2114M241.827 2.24592V8.43776M241.827 44.9172V51.109M241.827 87.5811V93.7729M241.827 130.23V136.437M241.827 172.902V179.101M241.827 215.565V221.757M241.827 258.237V264.421M241.827 300.886V307.092M241.827 343.557V349.756V343.55M241.827 386.236V392.435M241.827 428.9V435.092M241.827 471.564V477.748M241.827 514.213V520.419M241.827 556.877V563.083M241.827 599.541V605.732M241.827 642.212V648.404M241.827 684.876V691.031M281.545 -83.1335V-76.9343M281.545 -40.4696V-34.263M281.545 2.19425V8.38609M281.545 44.8655V51.109M281.545 87.5811V93.7729M281.545 130.23V136.437M281.545 172.902V179.101M281.545 215.565V221.757M281.545 258.237V264.421M281.545 300.886V307.092M281.545 343.557V349.756V343.55M281.545 386.221V392.42M281.545 428.885V435.077M281.545 471.549V477.748M281.545 514.213V520.419M281.545 556.877V563.083M281.545 599.541V605.732M281.545 642.212V648.404M281.545 684.876V691.031M321.262 -83.1335V-76.9343M321.262 -40.4696V-34.263M321.262 2.19425V8.38609M321.262 44.8655V51.109M321.262 87.5811V93.7729M321.262 130.23V136.437M321.262 172.902V179.101M321.262 215.565V221.757M321.262 258.237V264.421M321.262 300.886V307.092M321.262 343.557V349.756V343.55M321.262 386.221V392.42M321.262 428.885V435.077M321.262 471.549V477.748M321.262 514.213V520.419M321.262 556.877V563.083M321.262 599.541V605.732M321.262 642.212V648.404M321.262 684.876V691.031M360.986 -83.1335V-76.9343M360.986 -40.4696V-34.263M360.986 2.19425V8.38609M360.986 44.8655V51.109M360.986 87.5811V93.7729M360.986 130.23V136.437M360.986 172.902V179.101M360.986 215.565V221.757M360.986 258.237V264.421M360.986 300.886V307.092M360.986 343.557V349.756V343.55M360.986 386.221V392.42M360.986 428.885V435.077M360.986 471.549V477.748M360.986 514.213V520.419M360.986 556.877V563.083M360.986 599.541V605.732M360.986 642.212V648.404M360.986 684.876V691.031M400.703 -83.1335V-76.9343M400.703 -40.4696V-34.263M400.703 2.19425V8.38609M400.703 44.8655V51.109M400.703 87.5811V93.7729M400.703 130.23V136.437M400.703 172.902V179.101M400.703 215.565V221.757M400.703 258.237V264.421M400.703 300.886V307.092M400.703 343.557V349.756M400.703 386.221V392.42M400.703 428.885V435.077M400.703 471.549V477.748M400.703 514.213V520.419M400.703 556.877V563.083M400.703 599.541V605.732M400.703 642.212V648.404M400.703 684.876V691.031M440.421 -83.1335V-76.9343M440.421 -40.4696V-34.263M440.421 2.19425V8.38609M440.421 44.8655V51.109M440.421 87.5811V93.7729M440.421 130.23V136.437M440.421 172.902V179.101M440.421 215.565V221.757M440.421 258.237V264.421M440.421 300.886V307.092M440.421 343.557V349.756M440.421 386.221V392.42M440.421 428.885V435.077M440.421 471.549V477.748M440.421 514.213V520.419M440.421 556.877V563.083M440.421 599.541V605.732M440.421 642.212V648.404M440.421 684.876V691.031M480.186 -83.0819V-76.8827M480.186 -40.418V-34.2114M480.186 2.24592V8.43776M480.186 44.9172V51.109V44.9098M480.186 87.5811V93.7729M480.186 130.23V136.437V130.238M480.186 172.902V179.101M480.186 215.565V221.757M480.186 258.237V264.421M480.186 300.886V307.092M480.186 343.557V349.756V343.55M480.186 386.236V392.435M480.186 428.9V435.092M480.186 471.564V477.748M480.186 514.213V520.419M480.186 556.877V563.083M480.186 599.541V605.732M480.186 642.212V648.404M480.186 684.876V691.031V684.846M519.904 -83.1335V-76.9343M519.904 -40.4696V-34.263M519.904 2.19425V8.38609M519.904 44.8655V51.109M519.904 87.5811V93.7729M519.904 130.23V136.437M519.904 172.902V179.101M519.904 215.565V221.757M519.904 258.237V264.421M519.904 300.886V307.092M519.904 343.557V349.756M519.904 386.221V392.42M519.904 428.885V435.077M519.904 471.549V477.748V471.497M519.904 514.213V520.419M519.904 556.877V563.083M519.904 599.541V605.732V599.548M519.904 642.212V648.404M519.904 684.876V691.031M559.621 -83.1335V-76.9343M559.621 -40.4696V-34.263M559.621 2.19425V8.38609M559.621 44.8655V51.109M559.621 87.5811V93.7729M559.621 130.23V136.437M559.621 172.902V179.101M559.621 215.565V221.757M559.621 258.237V264.421M559.621 300.886V307.092M559.621 343.557V349.756M559.621 386.221V392.42M559.621 428.885V435.077M559.621 471.549V477.748V471.497M559.621 514.213V520.419M559.621 556.877V563.083M559.621 599.541V605.732V599.548M559.621 642.212V648.404M559.621 684.876V691.031M361.014 684.868V691.031M400.731 -83.1335V-76.9343M400.731 -40.4696V-34.263M400.731 2.19425V8.38609M400.731 44.8582V51.0574M400.731 87.5294V93.7213M400.731 130.186V136.385M400.731 172.85V179.049M400.731 215.514V221.706M400.731 258.185V264.369M400.731 300.834V307.041M400.731 343.498V349.705M400.731 386.169V392.369M400.731 428.833V435.025M400.731 471.497V477.748M400.731 514.213V520.419M400.731 556.877V563.083M400.731 599.548V605.732M400.731 642.212V648.404M400.731 684.876V691.031M440.448 -83.1335V-76.9343M440.448 -40.4696V-34.263M440.448 2.19425V8.38609M440.448 44.8582V51.0574M440.448 87.5294V93.7213M440.448 130.186V136.385M440.448 172.85V179.049M440.448 215.514V221.706M440.448 258.185V264.369M440.448 300.834V307.041M440.448 343.498V349.705M440.448 386.169V392.369M440.448 428.833V435.025M440.448 471.497V477.748M440.448 514.213V520.419M440.448 556.877V563.083M440.448 599.548V605.732M440.448 642.212V648.404M440.448 684.876V691.031M480.186 599.518V605.703M480.186 642.182V648.374M519.904 44.8582V51.0574M519.904 87.5294V93.7213M519.904 130.186V136.385M519.904 172.85V179.049M519.904 215.514V221.706M519.904 258.185V264.369M519.904 300.834V307.041M519.904 343.498V349.705M519.904 386.169V392.369M519.904 428.833V435.025M559.621 44.8582V51.0574M559.621 87.5294V93.7213M559.621 130.186V136.385M559.621 172.85V179.049M559.621 215.514V221.706M559.621 258.185V264.369M559.621 300.834V307.041M559.621 343.498V349.705M559.621 386.169V392.369M559.621 428.833V435.025M205.016 -79.9749H199.239M205.002 -37.3257H199.239M205.002 5.34555H199.239M205.016 48.0094H199.239M205.002 90.6734H199.239M205.002 133.345H199.239M205.002 175.994H199.239M205.002 218.658H199.239M205.002 261.329H199.239M205.002 303.993H199.239M205.002 346.649H199.239M205.002 389.313H199.239M205.016 431.992H199.239M205.002 474.663H199.239M205.002 517.327H199.239M205.002 559.984H199.239M205.002 602.647H199.239M205.016 645.274H199.239M205.002 687.938H199.239M244.733 -79.9749H238.97M244.733 -37.3257H238.97M244.733 5.34555H238.97M244.733 48.0094H238.97M244.733 90.6734H238.97M244.733 133.345H238.97M244.733 175.994H238.97M244.733 218.658H238.97M244.733 261.329H238.97M244.733 303.993H238.97M244.733 346.649H238.97M244.733 389.313H238.97M244.733 431.992H238.97M244.733 474.663H238.97M244.733 517.327H238.97M244.733 559.984H238.97M244.733 602.647H238.97M244.733 645.274H238.97M244.733 687.938H238.97M284.457 -79.9749H278.687M284.457 -37.3257H278.687M284.457 5.34555H278.687M284.457 48.0094H278.687M284.457 90.6734H278.687M284.457 133.345H278.687M284.457 175.994H278.687M284.457 218.658H278.687M284.457 261.329H278.687M284.457 303.993H278.687M284.457 346.649H278.687M284.457 389.313H278.687M284.457 431.977H278.687M284.457 474.648H278.687M284.457 517.312H278.687M284.457 559.969H278.687M284.457 602.633H278.687M284.457 645.297H278.687M284.457 687.961H278.687M324.174 -79.9749H318.404M324.174 -37.3257H318.404M324.174 5.34555H318.404M324.174 48.0094H318.404M324.174 90.6734H318.404M324.174 133.345H318.404M324.174 175.994H318.404M324.174 218.658H318.404M324.174 261.329H318.404M324.174 303.993H318.404M324.174 346.649H318.404M324.174 389.313H318.404M324.174 431.977H318.404M324.174 474.648H318.404M324.174 517.312H318.404M324.174 559.969H318.404M324.174 602.633H318.404M324.174 645.297H318.404M324.174 687.961H318.404M363.899 -79.9749H358.129M363.899 -37.3257H358.129M363.899 5.34555H358.129M363.899 48.0094H358.129M363.899 90.6734H358.129M363.899 133.345H358.129M363.899 175.994H358.129M363.899 218.658H358.129M363.899 261.329H358.129M363.899 303.993H358.129M363.899 346.649H358.129M363.899 389.313H358.129M363.899 431.977H358.129M363.899 474.648H358.129M363.899 517.312H358.129M363.899 559.969H358.129M363.899 602.633H358.129M363.899 645.297H358.129M363.899 687.961H358.129M403.616 -79.9749H397.846M403.616 -37.3257H397.846M403.616 5.34555H397.846M403.616 48.0094H397.846M403.616 90.6734H397.846M403.616 133.345H397.846M403.616 175.994H397.846M403.616 218.658H397.846M403.616 261.329H397.846M403.616 303.993H397.846M403.616 346.649H397.846M403.616 389.313H397.846M403.616 431.977H397.846M403.616 474.648H397.846M403.616 517.312H397.846M403.616 559.969H397.846M403.616 602.633H397.846M403.616 645.297H397.846M403.616 687.961H397.846M443.333 -79.9749H437.598M443.368 -37.3257H437.598M443.368 5.34555H437.598M443.368 48.0094H437.598M443.368 90.6734H437.598M443.368 133.345H437.598M443.368 175.994H437.598M443.368 218.658H437.598M443.368 261.329H437.598M443.368 303.993H437.598M443.368 346.649H437.598M443.368 389.313H437.598M443.368 431.977H437.598M443.368 474.648H437.598M443.368 517.312H437.598M443.368 559.969H437.598M443.368 602.633H437.598M443.368 645.297H437.598M443.368 687.961H437.598M483.057 -79.9749H477.287M483.057 -37.3257H477.287M483.057 5.34555H477.287M483.057 48.0094H477.287M483.057 90.6734H477.287M483.057 133.345H477.287M483.057 175.994H477.287M483.057 218.658H477.287M483.057 261.329H477.287M483.057 303.993H477.287M483.057 346.649H477.287M483.057 389.313H477.287M483.057 431.977H477.287M483.057 474.648H477.287M483.057 517.312H477.287M483.057 559.969H477.287M483.057 602.633H477.287M483.057 645.297H477.287M483.057 687.961H477.287M522.775 -79.9749H517.005M522.775 -37.3257H517.005M522.775 5.34555H517.005M522.775 48.0094H517.005M522.775 90.6734H517.005M522.775 133.345H517.005M522.775 175.994H517.005M522.775 218.658H517.005M522.775 261.329H517.005M522.775 303.993H517.005M522.775 346.649H517.005M522.775 389.313H517.005M522.775 431.992H517.005M522.775 474.648H517.005M522.775 517.312H517.005M522.775 559.969H517.005M522.775 602.633H517.005M522.775 645.274H517.005M522.775 687.938H517.005M562.492 -79.9749H556.722M562.492 -37.3257H556.722M562.492 5.34555H556.722M562.492 48.0094H556.722M562.492 90.6734H556.722M562.492 133.345H556.722M562.492 175.994H556.722M562.492 218.658H556.722M562.492 261.329H556.722M562.492 303.993H556.722M562.492 346.649H556.722M562.492 389.313H556.722M562.492 431.977H556.722M562.492 474.648H556.722M562.492 517.312H556.722M562.492 559.969H556.722M562.492 602.633H556.722M562.492 645.297H556.722M562.492 687.961H556.722" stroke="#939598" stroke-width="0.83"/>
</g>
<defs>
<clipPath id="clip0_75_61">
<rect width="108" height="291" fill="white" transform="translate(0 0.526611)"/>
</clipPath>
</defs>
</svg>
