<svg width="106" height="291" fill="none" xmlns="http://www.w3.org/2000/svg"><g clip-path="url(#a)"><path d="M-234.373 641.678v6.192m0 36.472v6.162-6.155m39.718-768.01v6.2m0 36.465v6.206m0 36.458v6.191m0 36.48v6.243m0 36.473v6.191m0 36.458v6.206m0 36.465v6.199m0 36.465v6.192m0 36.479v6.185m0 36.464v6.207m0 36.465v6.199-6.207m0 42.671v6.2m0 36.464v6.192m0 36.472v6.199m0 36.465v6.207m0 36.457v6.207m0 36.457v6.192m0 36.479v6.192m0 36.472v6.155m39.696-774.113v6.2m0 36.464v6.207m0 36.457v6.192m0 36.48v6.191m0 36.473v6.191m0 36.458v6.206m0 36.465v6.199m0 36.465v6.192m0 36.479v6.185m0 36.464v6.207m0 36.465v6.199-6.207m0 42.686v6.199m0 36.465v6.192m0 36.472v6.184m0 36.465v6.207m0 36.457v6.207m0 36.457v6.192m0 36.479v6.192m0 36.472v6.155m39.718-774.164v6.2m0 36.464v6.206m0 36.458v6.191m0 36.48v6.243m0 36.473v6.191m0 36.458v6.206m0 36.465v6.199m0 36.465v6.192m0 36.479v6.185m0 36.464v6.207m0 36.465v6.199-6.207m0 42.671v6.2m0 36.464v6.192m0 36.472v6.199m0 36.465v6.207m0 36.457v6.207m0 36.457v6.192m0 36.479v6.192m0 36.472v6.155M-75.524-83.66v6.2m0 36.464v6.206m0 36.458v6.191m0 36.48v6.243m0 36.473v6.191m0 36.458v6.206m0 36.465v6.199m0 36.465v6.192m0 36.479v6.185m0 36.464v6.207m0 36.465v6.199-6.207m0 42.671v6.2m0 36.464v6.192m0 36.472v6.199m0 36.465v6.207m0 36.457v6.207m0 36.457v6.192m0 36.479v6.192m0 36.472v6.155M-35.8-83.66v6.2m0 36.464v6.206m0 36.458v6.191m0 36.48v6.243m0 36.473v6.191m0 36.458v6.206m0 36.465v6.199m0 36.465v6.192m0 36.479v6.185m0 36.464v6.207m0 36.465v6.199-6.207m0 42.671v6.2m0 36.464v6.192m0 36.472v6.199m0 36.465v6.207m0 36.457v6.207m0 36.457v6.192m0 36.479v6.192m0 36.472v6.155M3.917-83.66v6.2m0 36.464v6.206m0 36.458v6.191m0 36.48v6.243m0 36.473v6.191m0 36.458v6.206m0 36.465v6.199m0 36.465v6.192m0 36.479v6.185m0 36.464v6.207m0 36.465v6.199m0 36.464v6.2m0 36.464v6.192m0 36.472v6.199m0 36.465v6.207m0 36.457v6.207m0 36.457v6.192m0 36.479v6.192m0 36.472v6.155M43.636-83.66v6.2m0 36.464v6.206m0 36.458v6.191m0 36.48v6.243m0 36.473v6.191m0 36.458v6.206m0 36.465v6.199m0 36.465v6.192m0 36.479v6.185m0 36.464v6.207m0 36.465v6.199m0 36.464v6.2m0 36.464v6.192m0 36.472v6.199m0 36.465v6.207m0 36.457v6.207m0 36.457v6.192m0 36.479v6.192m0 36.472v6.155M83.4-83.609v6.2m0 36.464v6.207m0 36.457v6.192m0 36.48v6.191-6.199m0 42.672v6.191m0 36.458v6.206-6.199m0 42.664v6.199m0 36.465v6.192m0 36.479v6.185m0 36.464v6.207m0 36.465v6.199-6.207m0 42.686v6.199m0 36.465v6.192m0 36.472v6.184m0 36.465v6.207m0 36.457v6.207m0 36.457v6.192m0 36.479v6.192m0 36.472v6.155-6.184m39.718-767.98v6.2m0 36.464v6.206m0 36.458v6.191m0 36.48v6.243m0 36.473v6.191m0 36.458v6.206m0 36.465v6.199m0 36.465v6.192m0 36.479v6.185m0 36.464v6.207m0 36.465v6.199m0 36.464v6.2m0 36.464v6.192m0 36.472v6.199-6.25m0 42.715v6.207m0 36.457v6.207m0 36.457v6.192-6.185m0 42.664v6.192m0 36.472v6.155M162.835-83.66v6.2m0 36.464v6.206m0 36.458v6.191m0 36.48v6.243m0 36.473v6.191m0 36.458v6.206m0 36.465v6.199m0 36.465v6.192m0 36.479v6.185m0 36.464v6.207m0 36.465v6.199m0 36.464v6.2m0 36.464v6.192m0 36.472v6.199-6.25m0 42.715v6.207m0 36.457v6.207m0 36.457v6.192-6.185m0 42.664v6.192m0 36.472v6.155M-234.373-83.609v6.2m0 36.464v6.207m0 36.457v6.192m0 36.48v6.191m0 36.473v6.191m0 36.458v6.206m0 36.465v6.199m0 36.465v6.192m0 36.479v6.185m0 36.464v6.207m0 36.457v6.207m0 36.464v6.2m0 36.464v6.192m0 36.472v6.199m0 36.465v6.207m0 36.457v6.207m0 36.457v6.192m0 36.479v6.192m198.6 36.465v6.162M3.946-83.66v6.2m0 36.464v6.206m0 36.458v6.191m0 36.472v6.2m0 36.472v6.192m0 36.464v6.2m0 36.464v6.199m0 36.465v6.192m0 36.479v6.185m0 36.465v6.206m0 36.457v6.207m0 36.465v6.199m0 36.465v6.191m0 36.473v6.25m0 36.465v6.207m0 36.457v6.207m0 36.464v6.185m0 36.479v6.192m0 36.472v6.155M43.662-83.66v6.2m0 36.464v6.206m0 36.458v6.191m0 36.472v6.2m0 36.472v6.192m0 36.464v6.2m0 36.464v6.199m0 36.465v6.192m0 36.479v6.185m0 36.465v6.206m0 36.457v6.207m0 36.465v6.199m0 36.465v6.191m0 36.473v6.25m0 36.465v6.207m0 36.457v6.207m0 36.464v6.185m0 36.479v6.192m0 36.472v6.155M83.4 598.992v6.184m0 36.48v6.192m39.718-603.516v6.199m0 36.472v6.192m0 36.464v6.2m0 36.464v6.199m0 36.465v6.192m0 36.479v6.185m0 36.465v6.206m0 36.457v6.207m0 36.465v6.199m0 36.465v6.191m39.717-390.166v6.199m0 36.472v6.192m0 36.464v6.2m0 36.464v6.199m0 36.465v6.192m0 36.479v6.185m0 36.465v6.206m0 36.457v6.207m0 36.465v6.199m0 36.465v6.191m-394.323-515h-5.77m5.77 42.65h-5.77m5.77 42.67h-5.77m5.77 42.665h-5.77m5.77 42.664h-5.77m5.77 42.671h-5.77m5.77 42.649h-5.77m5.77 42.664h-5.77m5.77 42.671h-5.77m5.77 42.664h-5.77m5.77 42.657h-5.77m5.77 42.664h-5.77m5.77 42.678h-5.77m5.77 42.672h-5.77m5.77 42.663h-5.77m5.77 42.657h-5.77m5.77 42.664h-5.77m5.77 42.627h-5.77m5.77 42.664h-5.77m45.488-767.913h-5.777m5.763 42.649h-5.763m5.763 42.67h-5.763m5.777 42.665h-5.777m5.763 42.664h-5.763m5.763 42.671h-5.763m5.763 42.649h-5.763m5.763 42.664h-5.763m5.763 42.671h-5.763m5.763 42.664h-5.763m5.763 42.657h-5.763m5.763 42.664h-5.763m5.777 42.678h-5.777m5.763 42.672h-5.763m5.763 42.663h-5.763m5.763 42.657h-5.763m5.763 42.664h-5.763m5.777 42.627h-5.777m5.763 42.664h-5.763m45.494-767.913h-5.763m5.763 42.649h-5.763m5.763 42.67h-5.763m5.763 42.665h-5.763m5.763 42.664h-5.763m5.763 42.671h-5.763m5.763 42.649h-5.763m5.763 42.664h-5.763m5.763 42.671h-5.763m5.763 42.664h-5.763m5.763 42.657h-5.763m5.763 42.664h-5.763m5.763 42.678h-5.763m5.763 42.672h-5.763m5.763 42.663h-5.763m5.763 42.657h-5.763m5.763 42.664h-5.763m5.763 42.627h-5.763m5.763 42.664h-5.763m45.487-767.913h-5.77m5.77 42.649h-5.77m5.77 42.67h-5.77m5.77 42.665h-5.77m5.77 42.664h-5.77m5.77 42.671h-5.77m5.77 42.649h-5.77m5.77 42.664h-5.77m5.77 42.671h-5.77m5.77 42.664h-5.77m5.77 42.657h-5.77m5.77 42.664h-5.77m5.77 42.664h-5.77m5.77 42.671h-5.77m5.77 42.664h-5.77m5.77 42.656h-5.77m5.77 42.664h-5.77m5.77 42.664h-5.77m5.77 42.664h-5.77m45.487-767.935h-5.77m5.77 42.649h-5.77m5.77 42.67h-5.77m5.77 42.665h-5.77m5.77 42.664h-5.77m5.77 42.671h-5.77m5.77 42.649h-5.77m5.77 42.664h-5.77m5.77 42.671h-5.77m5.77 42.664h-5.77m5.77 42.657h-5.77m5.77 42.664h-5.77m5.77 42.664h-5.77m5.77 42.671h-5.77m5.77 42.664h-5.77m5.77 42.656h-5.77m5.77 42.664h-5.77m5.77 42.664h-5.77m5.77 42.664h-5.77m45.495-767.935h-5.77m5.77 42.649h-5.77m5.77 42.67h-5.77m5.77 42.665h-5.77m5.77 42.664h-5.77m5.77 42.671h-5.77m5.77 42.649h-5.77m5.77 42.664h-5.77m5.77 42.671h-5.77m5.77 42.664h-5.77m5.77 42.657h-5.77m5.77 42.664h-5.77m5.77 42.664h-5.77m5.77 42.671h-5.77m5.77 42.664h-5.77m5.77 42.656h-5.77m5.77 42.664h-5.77m5.77 42.664h-5.77m5.77 42.664h-5.77M6.83-80.501H1.06m5.77 42.649H1.06m5.77 42.67H1.06m5.77 42.665H1.06m5.77 42.664H1.06m5.77 42.671H1.06m5.77 42.649H1.06m5.77 42.664H1.06m5.77 42.671H1.06m5.77 42.664H1.06m5.77 42.657H1.06m5.77 42.664H1.06m5.77 42.664H1.06m5.77 42.671H1.06m5.77 42.664H1.06m5.77 42.656H1.06m5.77 42.664H1.06m5.77 42.664H1.06m5.77 42.664H1.06M46.547-80.501h-5.735m5.77 42.649h-5.77m5.77 42.67h-5.77m5.77 42.665h-5.77m5.77 42.664h-5.77m5.77 42.671h-5.77m5.77 42.649h-5.77m5.77 42.664h-5.77m5.77 42.671h-5.77m5.77 42.664h-5.77m5.77 42.657h-5.77m5.77 42.664h-5.77m5.77 42.664h-5.77m5.77 42.671h-5.77m5.77 42.664h-5.77m5.77 42.656h-5.77m5.77 42.664h-5.77m5.77 42.664h-5.77m5.77 42.664h-5.77m45.46-767.935h-5.77m5.77 42.649h-5.77m5.77 42.67h-5.77m5.77 42.665h-5.77m5.77 42.664h-5.77m5.77 42.671h-5.77m5.77 42.649h-5.77m5.77 42.664h-5.77m5.77 42.671h-5.77m5.77 42.664h-5.77m5.77 42.657h-5.77m5.77 42.664h-5.77m5.77 42.664h-5.77m5.77 42.671h-5.77m5.77 42.664h-5.77m5.77 42.656h-5.77m5.77 42.664h-5.77m5.77 42.664h-5.77m5.77 42.664h-5.77m45.487-767.935h-5.77m5.77 42.649h-5.77m5.77 42.67h-5.77m5.77 42.665h-5.77m5.77 42.664h-5.77m5.77 42.671h-5.77m5.77 42.649h-5.77m5.77 42.664h-5.77m5.77 42.671h-5.77m5.77 42.664h-5.77m5.77 42.657h-5.77m5.77 42.664h-5.77m5.77 42.678h-5.77m5.77 42.657h-5.77m5.77 42.664h-5.77m5.77 42.656h-5.77m5.77 42.664h-5.77m5.77 42.642h-5.77m5.77 42.664h-5.77m45.487-767.913h-5.77m5.77 42.649h-5.77m5.77 42.67h-5.77m5.77 42.665h-5.77m5.77 42.664h-5.77m5.77 42.671h-5.77m5.77 42.649h-5.77m5.77 42.664h-5.77m5.77 42.671h-5.77m5.77 42.664h-5.77m5.77 42.657h-5.77m5.77 42.664h-5.77m5.77 42.664h-5.77m5.77 42.671h-5.77m5.77 42.664h-5.77m5.77 42.656h-5.77m5.77 42.664h-5.77m5.77 42.664h-5.77m5.77 42.664h-5.77M202.381-83.66v6.2m0 36.464v6.206m0 36.458v6.191m0 36.48v6.243m0 36.473v6.191m0 36.458v6.206m0 36.465v6.199m0 36.465v6.192m0 36.479v6.185m0 36.464v6.207m0 36.465v6.199-6.207m0 42.671v6.2m0 36.464v6.192m0 36.472v6.199m0 36.465v6.207m0 36.457v6.207m0 36.457v6.192m0 36.479v6.192m0 36.472v6.155m39.696-774.113v6.2m0 36.464v6.207m0 36.457v6.192m0 36.48v6.191m0 36.473v6.191m0 36.458v6.206m0 36.465v6.199m0 36.465v6.192m0 36.479v6.185m0 36.464v6.207m0 36.465v6.199-6.207m0 42.686v6.199m0 36.465v6.192m0 36.472v6.184m0 36.465v6.207m0 36.457v6.207m0 36.457v6.192m0 36.479v6.192m0 36.472v6.155M281.795-83.66v6.2m0 36.464v6.206m0 36.458v6.191m0 36.48v6.243m0 36.473v6.191m0 36.458v6.206m0 36.465v6.199m0 36.465v6.192m0 36.479v6.185m0 36.464v6.207m0 36.465v6.199-6.207m0 42.671v6.2m0 36.464v6.192m0 36.472v6.199m0 36.465v6.207m0 36.457v6.207m0 36.457v6.192m0 36.479v6.192m0 36.472v6.155M321.512-83.66v6.2m0 36.464v6.206m0 36.458v6.191m0 36.48v6.243m0 36.473v6.191m0 36.458v6.206m0 36.465v6.199m0 36.465v6.192m0 36.479v6.185m0 36.464v6.207m0 36.465v6.199-6.207m0 42.671v6.2m0 36.464v6.192m0 36.472v6.199m0 36.465v6.207m0 36.457v6.207m0 36.457v6.192m0 36.479v6.192m0 36.472v6.155M361.236-83.66v6.2m0 36.464v6.206m0 36.458v6.191m0 36.48v6.243m0 36.473v6.191m0 36.458v6.206m0 36.465v6.199m0 36.465v6.192m0 36.479v6.185m0 36.464v6.207m0 36.465v6.199-6.207m0 42.671v6.2m0 36.464v6.192m0 36.472v6.199m0 36.465v6.207m0 36.457v6.207m0 36.457v6.192m0 36.479v6.192m0 36.472v6.155M400.953-83.66v6.2m0 36.464v6.206m0 36.458v6.191m0 36.48v6.243m0 36.473v6.191m0 36.458v6.206m0 36.465v6.199m0 36.465v6.192m0 36.479v6.185m0 36.464v6.207m0 36.465v6.199m0 36.464v6.2m0 36.464v6.192m0 36.472v6.199m0 36.465v6.207m0 36.457v6.207m0 36.457v6.192m0 36.479v6.192m0 36.472v6.155M440.671-83.66v6.2m0 36.464v6.206m0 36.458v6.191m0 36.48v6.243m0 36.473v6.191m0 36.458v6.206m0 36.465v6.199m0 36.465v6.192m0 36.479v6.185m0 36.464v6.207m0 36.465v6.199m0 36.464v6.2m0 36.464v6.192m0 36.472v6.199m0 36.465v6.207m0 36.457v6.207m0 36.457v6.192m0 36.479v6.192m0 36.472v6.155m39.765-774.113v6.2m0 36.464v6.207m0 36.457v6.192m0 36.48v6.191-6.199m0 42.672v6.191m0 36.458v6.206-6.199m0 42.664v6.199m0 36.465v6.192m0 36.479v6.185m0 36.464v6.207m0 36.465v6.199-6.207m0 42.686v6.199m0 36.465v6.192m0 36.472v6.184m0 36.465v6.207m0 36.457v6.207m0 36.457v6.192m0 36.479v6.192m0 36.472v6.155-6.184m39.718-767.98v6.2m0 36.464v6.206m0 36.458v6.191m0 36.48v6.243m0 36.473v6.191m0 36.458v6.206m0 36.465v6.199m0 36.465v6.192m0 36.479v6.185m0 36.464v6.207m0 36.465v6.199m0 36.464v6.2m0 36.464v6.192m0 36.472v6.199-6.25m0 42.715v6.207m0 36.457v6.207m0 36.457v6.192-6.185m0 42.664v6.192m0 36.472v6.155M559.871-83.66v6.2m0 36.464v6.206m0 36.458v6.191m0 36.48v6.243m0 36.473v6.191m0 36.458v6.206m0 36.465v6.199m0 36.465v6.192m0 36.479v6.185m0 36.464v6.207m0 36.465v6.199m0 36.464v6.2m0 36.464v6.192m0 36.472v6.199-6.25m0 42.715v6.207m0 36.457v6.207m0 36.457v6.192-6.185m0 42.664v6.192m0 36.472v6.155m-198.607-6.162v6.162M400.981-83.66v6.2m0 36.464v6.206m0 36.458v6.191m0 36.472v6.2m0 36.472v6.192m0 36.464v6.2m0 36.464v6.199m0 36.465v6.192m0 36.479v6.185m0 36.465v6.206m0 36.457v6.207m0 36.465v6.199m0 36.465v6.191m0 36.473v6.25m0 36.465v6.207m0 36.457v6.207m0 36.464v6.185m0 36.479v6.192m0 36.472v6.155M440.698-83.66v6.2m0 36.464v6.206m0 36.458v6.191m0 36.472v6.2m0 36.472v6.192m0 36.464v6.2m0 36.464v6.199m0 36.465v6.192m0 36.479v6.185m0 36.465v6.206m0 36.457v6.207m0 36.465v6.199m0 36.465v6.191m0 36.473v6.25m0 36.465v6.207m0 36.457v6.207m0 36.464v6.185m0 36.479v6.192m0 36.472v6.155m39.738-91.512v6.184m0 36.48v6.192m39.718-603.516v6.199m0 36.472v6.192m0 36.464v6.2m0 36.464v6.199m0 36.465v6.192m0 36.479v6.185m0 36.465v6.206m0 36.457v6.207m0 36.465v6.199m0 36.465v6.191m39.717-390.166v6.199m0 36.472v6.192m0 36.464v6.2m0 36.464v6.199m0 36.465v6.192m0 36.479v6.185m0 36.465v6.206m0 36.457v6.207m0 36.465v6.199m0 36.465v6.191m-354.605-515h-5.777m5.763 42.65h-5.763m5.763 42.67h-5.763m5.777 42.665h-5.777m5.763 42.664h-5.763m5.763 42.671h-5.763m5.763 42.649h-5.763m5.763 42.664h-5.763m5.763 42.671h-5.763m5.763 42.664h-5.763m5.763 42.657h-5.763m5.763 42.664h-5.763m5.777 42.678h-5.777m5.763 42.672h-5.763m5.763 42.663h-5.763m5.763 42.657h-5.763m5.763 42.664h-5.763m5.777 42.627h-5.777m5.763 42.664h-5.763m45.494-767.913h-5.763m5.763 42.649h-5.763m5.763 42.67h-5.763m5.763 42.665h-5.763m5.763 42.664h-5.763m5.763 42.671h-5.763m5.763 42.649h-5.763m5.763 42.664h-5.763m5.763 42.671h-5.763m5.763 42.664h-5.763m5.763 42.657h-5.763m5.763 42.664h-5.763m5.763 42.678h-5.763m5.763 42.672h-5.763m5.763 42.663h-5.763m5.763 42.657h-5.763m5.763 42.664h-5.763m5.763 42.627h-5.763m5.763 42.664h-5.763m45.487-767.913h-5.77m5.77 42.649h-5.77m5.77 42.67h-5.77m5.77 42.665h-5.77m5.77 42.664h-5.77m5.77 42.671h-5.77m5.77 42.649h-5.77m5.77 42.664h-5.77m5.77 42.671h-5.77m5.77 42.664h-5.77m5.77 42.657h-5.77m5.77 42.664h-5.77m5.77 42.664h-5.77m5.77 42.671h-5.77m5.77 42.664h-5.77m5.77 42.656h-5.77m5.77 42.664h-5.77m5.77 42.664h-5.77m5.77 42.664h-5.77m45.487-767.935h-5.77m5.77 42.649h-5.77m5.77 42.67h-5.77m5.77 42.665h-5.77m5.77 42.664h-5.77m5.77 42.671h-5.77m5.77 42.649h-5.77m5.77 42.664h-5.77m5.77 42.671h-5.77m5.77 42.664h-5.77m5.77 42.657h-5.77m5.77 42.664h-5.77m5.77 42.664h-5.77m5.77 42.671h-5.77m5.77 42.664h-5.77m5.77 42.656h-5.77m5.77 42.664h-5.77m5.77 42.664h-5.77m5.77 42.664h-5.77m45.495-767.935h-5.77m5.77 42.649h-5.77m5.77 42.67h-5.77m5.77 42.665h-5.77m5.77 42.664h-5.77m5.77 42.671h-5.77m5.77 42.649h-5.77m5.77 42.664h-5.77m5.77 42.671h-5.77m5.77 42.664h-5.77m5.77 42.657h-5.77m5.77 42.664h-5.77m5.77 42.664h-5.77m5.77 42.671h-5.77m5.77 42.664h-5.77m5.77 42.656h-5.77m5.77 42.664h-5.77m5.77 42.664h-5.77m5.77 42.664h-5.77m45.487-767.935h-5.77m5.77 42.649h-5.77m5.77 42.67h-5.77m5.77 42.665h-5.77m5.77 42.664h-5.77m5.77 42.671h-5.77m5.77 42.649h-5.77m5.77 42.664h-5.77m5.77 42.671h-5.77m5.77 42.664h-5.77m5.77 42.657h-5.77m5.77 42.664h-5.77m5.77 42.664h-5.77m5.77 42.671h-5.77m5.77 42.664h-5.77m5.77 42.656h-5.77m5.77 42.664h-5.77m5.77 42.664h-5.77m5.77 42.664h-5.77m45.487-767.935h-5.735m5.77 42.649h-5.77m5.77 42.67h-5.77m5.77 42.665h-5.77m5.77 42.664h-5.77m5.77 42.671h-5.77m5.77 42.649h-5.77m5.77 42.664h-5.77m5.77 42.671h-5.77m5.77 42.664h-5.77m5.77 42.657h-5.77m5.77 42.664h-5.77m5.77 42.664h-5.77m5.77 42.671h-5.77m5.77 42.664h-5.77m5.77 42.656h-5.77m5.77 42.664h-5.77m5.77 42.664h-5.77m5.77 42.664h-5.77m45.459-767.935h-5.77m5.77 42.649h-5.77m5.77 42.67h-5.77m5.77 42.665h-5.77m5.77 42.664h-5.77m5.77 42.671h-5.77m5.77 42.649h-5.77m5.77 42.664h-5.77m5.77 42.671h-5.77m5.77 42.664h-5.77m5.77 42.657h-5.77m5.77 42.664h-5.77m5.77 42.664h-5.77m5.77 42.671h-5.77m5.77 42.664h-5.77m5.77 42.656h-5.77m5.77 42.664h-5.77m5.77 42.664h-5.77m5.77 42.664h-5.77m45.488-767.935h-5.77m5.77 42.649h-5.77m5.77 42.67h-5.77m5.77 42.665h-5.77m5.77 42.664h-5.77m5.77 42.671h-5.77m5.77 42.649h-5.77m5.77 42.664h-5.77m5.77 42.671h-5.77m5.77 42.664h-5.77m5.77 42.657h-5.77m5.77 42.664h-5.77m5.77 42.678h-5.77m5.77 42.657h-5.77m5.77 42.664h-5.77m5.77 42.656h-5.77m5.77 42.664h-5.77m5.77 42.642h-5.77m5.77 42.664h-5.77m45.487-767.913h-5.77m5.77 42.649h-5.77m5.77 42.67h-5.77m5.77 42.665h-5.77m5.77 42.664h-5.77m5.77 42.671h-5.77m5.77 42.649h-5.77m5.77 42.664h-5.77m5.77 42.671h-5.77m5.77 42.664h-5.77m5.77 42.657h-5.77m5.77 42.664h-5.77m5.77 42.664h-5.77m5.77 42.671h-5.77m5.77 42.664h-5.77m5.77 42.656h-5.77m5.77 42.664h-5.77m5.77 42.664h-5.77m5.77 42.664h-5.77" stroke="#939598" stroke-width=".83"/></g><defs><clipPath id="a"><path fill="#fff" transform="translate(.25)" d="M0 0h108v291H0z"/></clipPath></defs></svg>