<svg width="108" height="292" fill="none" xmlns="http://www.w3.org/2000/svg"><g clip-path="url(#a)"><path d="M-234.623 642.204v6.192m0 36.472v6.163-6.155m39.718-768.01v6.2m0 36.464v6.207m0 36.457v6.192m0 36.48v6.243m0 36.472v6.192m0 36.457v6.207m0 36.465v6.199m0 36.464v6.192m0 36.48v6.184m0 36.465v6.206m0 36.465v6.199-6.206m0 42.671v6.199m0 36.465v6.192m0 36.472v6.199m0 36.465v6.206m0 36.458v6.206m0 36.458v6.191m0 36.48v6.192m0 36.472v6.155m39.696-774.113v6.2m0 36.464v6.207m0 36.457v6.192m0 36.48v6.191m0 36.472v6.192m0 36.457v6.207m0 36.465v6.199m0 36.464v6.192m0 36.48v6.184m0 36.465v6.206m0 36.465v6.199-6.206m0 42.686v6.199m0 36.465v6.192m0 36.472v6.184m0 36.465v6.206m0 36.458v6.206m0 36.458v6.191m0 36.48v6.192m0 36.472v6.155m39.718-774.164v6.199m0 36.464v6.207m0 36.457v6.192m0 36.48v6.243m0 36.472v6.192m0 36.457v6.207m0 36.465v6.199m0 36.464v6.192m0 36.48v6.184m0 36.465v6.206m0 36.465v6.199-6.206m0 42.671v6.199m0 36.465v6.192m0 36.472v6.199m0 36.465v6.206m0 36.458v6.206m0 36.458v6.191m0 36.48v6.192m0 36.472v6.155m39.717-774.164v6.199m0 36.464v6.207m0 36.457v6.192m0 36.48v6.243m0 36.472v6.192m0 36.457v6.207m0 36.465v6.199m0 36.464v6.192m0 36.48v6.184m0 36.465v6.206m0 36.465v6.199-6.206m0 42.671v6.199m0 36.465v6.192m0 36.472v6.199m0 36.465v6.206m0 36.458v6.206m0 36.458v6.191m0 36.48v6.192m0 36.472v6.155M-36.05-83.133v6.199m0 36.464v6.207m0 36.457v6.192m0 36.48v6.243m0 36.472v6.192m0 36.457v6.207m0 36.465v6.199m0 36.464v6.192m0 36.48v6.184m0 36.465v6.206m0 36.465v6.199-6.206m0 42.671v6.199m0 36.465v6.192m0 36.472v6.199m0 36.465v6.206m0 36.458v6.206m0 36.458v6.191m0 36.48v6.192m0 36.472v6.155M3.667-83.133v6.199m0 36.464v6.207m0 36.457v6.192m0 36.48v6.243m0 36.472v6.192m0 36.457v6.207m0 36.465v6.199m0 36.464v6.192m0 36.48v6.184m0 36.465v6.206m0 36.465v6.199m0 36.465v6.199m0 36.465v6.192m0 36.472v6.199m0 36.465v6.206m0 36.458v6.206m0 36.458v6.191m0 36.48v6.192m0 36.472v6.155M43.386-83.133v6.199m0 36.464v6.207m0 36.457v6.192m0 36.48v6.243m0 36.472v6.192m0 36.457v6.207m0 36.465v6.199m0 36.464v6.192m0 36.48v6.184m0 36.465v6.206m0 36.465v6.199m0 36.465v6.199m0 36.465v6.192m0 36.472v6.199m0 36.465v6.206m0 36.458v6.206m0 36.458v6.191m0 36.48v6.192m0 36.472v6.155M83.15-83.082v6.2m0 36.464v6.207m0 36.457v6.192m0 36.48v6.191-6.2m0 42.672v6.192m0 36.457v6.207-6.199m0 42.664v6.199m0 36.464v6.192m0 36.48v6.184m0 36.465v6.206m0 36.465v6.199-6.206m0 42.686v6.199m0 36.465v6.192m0 36.472v6.184m0 36.465v6.206m0 36.458v6.206m0 36.458v6.191m0 36.48v6.192m0 36.472v6.155-6.185m39.718-767.98v6.2m0 36.464v6.207m0 36.457v6.192m0 36.48v6.243m0 36.472v6.192m0 36.457v6.207m0 36.465v6.199m0 36.464v6.192m0 36.48v6.184m0 36.465v6.206m0 36.465v6.199m0 36.465v6.199m0 36.465v6.192m0 36.472v6.199-6.251m0 42.716v6.206m0 36.458v6.206m0 36.458v6.191-6.184m0 42.664v6.192m0 36.472v6.155m39.717-774.164v6.199m0 36.464v6.207m0 36.457v6.192m0 36.48v6.243m0 36.472v6.192m0 36.457v6.207m0 36.465v6.199m0 36.464v6.192m0 36.48v6.184m0 36.465v6.206m0 36.465v6.199m0 36.465v6.199m0 36.465v6.192m0 36.472v6.199-6.251m0 42.716v6.206m0 36.458v6.206m0 36.458v6.191-6.184m0 42.664v6.192m0 36.472v6.155M-234.623-83.082v6.2m0 36.464v6.207m0 36.457v6.192m0 36.48v6.191m0 36.472v6.192m0 36.457v6.207m0 36.465v6.199m0 36.464v6.192m0 36.48v6.184m0 36.465v6.206m0 36.458v6.206m0 36.465v6.199m0 36.465v6.192m0 36.472v6.199m0 36.465v6.206m0 36.458v6.206m0 36.458v6.191m0 36.48v6.192m198.6 36.464v6.163M3.696-83.133v6.199m0 36.464v6.207m0 36.457v6.192m0 36.472v6.2m0 36.471v6.192m0 36.465v6.199m0 36.465v6.199m0 36.465v6.192m0 36.479v6.184m0 36.465v6.207m0 36.457v6.207m0 36.464v6.2m0 36.464v6.192m0 36.472v6.251m0 36.465v6.206m0 36.458v6.206m0 36.465v6.184m0 36.48v6.192m0 36.472v6.155M43.412-83.133v6.199m0 36.464v6.207m0 36.457v6.192m0 36.472v6.2m0 36.471v6.192m0 36.465v6.199m0 36.465v6.199m0 36.465v6.192m0 36.479v6.184m0 36.465v6.207m0 36.457v6.207m0 36.464v6.2m0 36.464v6.192m0 36.472v6.251m0 36.465v6.206m0 36.458v6.206m0 36.465v6.184m0 36.48v6.192m0 36.472v6.155m39.738-91.513v6.185m0 36.479v6.192m39.718-603.516v6.2m0 36.471v6.192m0 36.465v6.199m0 36.465v6.199m0 36.465v6.192m0 36.479v6.184m0 36.465v6.207m0 36.457v6.207m0 36.464v6.2m0 36.464v6.192m39.717-390.167v6.2m0 36.471v6.192m0 36.465v6.199m0 36.465v6.199m0 36.465v6.192m0 36.479v6.184m0 36.465v6.207m0 36.457v6.207m0 36.464v6.2m0 36.464v6.192m-394.323-515h-5.77m5.77 42.65h-5.77m5.77 42.67h-5.77m5.77 42.664h-5.77m5.77 42.664h-5.77m5.77 42.672h-5.77m5.77 42.649h-5.77m5.77 42.664h-5.77m5.77 42.671h-5.77m5.77 42.664h-5.77m5.77 42.656h-5.77m5.77 42.664h-5.77m5.77 42.679h-5.77m5.77 42.671h-5.77m5.77 42.664h-5.77m5.77 42.657h-5.77m5.77 42.663h-5.77m5.77 42.627h-5.77m5.77 42.664h-5.77m45.488-767.913h-5.777m5.763 42.65h-5.763m5.763 42.67h-5.763m5.777 42.664h-5.777m5.763 42.664h-5.763m5.763 42.672h-5.763m5.763 42.649h-5.763m5.763 42.664h-5.763m5.763 42.671h-5.763m5.763 42.664h-5.763m5.763 42.656h-5.763m5.763 42.664h-5.763m5.777 42.679h-5.777m5.763 42.671h-5.763m5.763 42.664h-5.763m5.763 42.657h-5.763m5.763 42.663h-5.763m5.777 42.627h-5.777m5.763 42.664h-5.763m45.494-767.913h-5.763m5.763 42.65h-5.763m5.763 42.67h-5.763m5.763 42.664h-5.763m5.763 42.664h-5.763m5.763 42.672h-5.763m5.763 42.649h-5.763m5.763 42.664h-5.763m5.763 42.671h-5.763m5.763 42.664h-5.763m5.763 42.656h-5.763m5.763 42.664h-5.763m5.763 42.679h-5.763m5.763 42.671h-5.763m5.763 42.664h-5.763m5.763 42.657h-5.763m5.763 42.663h-5.763m5.763 42.627h-5.763m5.763 42.664h-5.763m45.487-767.913h-5.77m5.77 42.65h-5.77m5.77 42.67h-5.77m5.77 42.664h-5.77m5.77 42.664h-5.77m5.77 42.672h-5.77m5.77 42.649h-5.77m5.77 42.664h-5.77m5.77 42.671h-5.77m5.77 42.664h-5.77m5.77 42.656h-5.77m5.77 42.664h-5.77m5.77 42.664h-5.77m5.77 42.671h-5.77m5.77 42.664h-5.77m5.77 42.657h-5.77m5.77 42.664h-5.77m5.77 42.664h-5.77m5.77 42.664h-5.77m45.487-767.936h-5.77m5.77 42.65h-5.77m5.77 42.67h-5.77m5.77 42.664h-5.77m5.77 42.664h-5.77m5.77 42.672h-5.77m5.77 42.649h-5.77m5.77 42.664h-5.77m5.77 42.671h-5.77m5.77 42.664h-5.77m5.77 42.656h-5.77m5.77 42.664h-5.77m5.77 42.664h-5.77m5.77 42.671h-5.77m5.77 42.664h-5.77m5.77 42.657h-5.77m5.77 42.664h-5.77m5.77 42.664h-5.77m5.77 42.664h-5.77m45.495-767.936h-5.77m5.77 42.65h-5.77m5.77 42.67h-5.77m5.77 42.664h-5.77m5.77 42.664h-5.77m5.77 42.672h-5.77m5.77 42.649h-5.77m5.77 42.664h-5.77m5.77 42.671h-5.77m5.77 42.664h-5.77m5.77 42.656h-5.77m5.77 42.664h-5.77m5.77 42.664h-5.77m5.77 42.671h-5.77m5.77 42.664h-5.77m5.77 42.657h-5.77m5.77 42.664h-5.77m5.77 42.664h-5.77m5.77 42.664h-5.77M6.58-79.975H.81m5.77 42.65H.81m5.77 42.67H.81M6.58 48.01H.81m5.77 42.664H.81m5.77 42.672H.81m5.77 42.649H.81m5.77 42.664H.81m5.77 42.671H.81m5.77 42.664H.81m5.77 42.656H.81m5.77 42.664H.81m5.77 42.664H.81m5.77 42.671H.81m5.77 42.664H.81m5.77 42.657H.81m5.77 42.664H.81m5.77 42.664H.81m5.77 42.664H.81M46.297-79.975h-5.735m5.77 42.65h-5.77m5.77 42.67h-5.77m5.77 42.664h-5.77m5.77 42.664h-5.77m5.77 42.672h-5.77m5.77 42.649h-5.77m5.77 42.664h-5.77m5.77 42.671h-5.77m5.77 42.664h-5.77m5.77 42.656h-5.77m5.77 42.664h-5.77m5.77 42.664h-5.77m5.77 42.671h-5.77m5.77 42.664h-5.77m5.77 42.657h-5.77m5.77 42.664h-5.77m5.77 42.664h-5.77m5.77 42.664h-5.77m45.46-767.936h-5.77m5.77 42.65h-5.77m5.77 42.67h-5.77m5.77 42.664h-5.77m5.77 42.664h-5.77m5.77 42.672h-5.77m5.77 42.649h-5.77m5.77 42.664h-5.77m5.77 42.671h-5.77m5.77 42.664h-5.77m5.77 42.656h-5.77m5.77 42.664h-5.77m5.77 42.664h-5.77m5.77 42.671h-5.77m5.77 42.664h-5.77m5.77 42.657h-5.77m5.77 42.664h-5.77m5.77 42.664h-5.77m5.77 42.664h-5.77m45.487-767.936h-5.77m5.77 42.65h-5.77m5.77 42.67h-5.77m5.77 42.664h-5.77m5.77 42.664h-5.77m5.77 42.672h-5.77m5.77 42.649h-5.77m5.77 42.664h-5.77m5.77 42.671h-5.77m5.77 42.664h-5.77m5.77 42.656h-5.77m5.77 42.664h-5.77m5.77 42.679h-5.77m5.77 42.656h-5.77m5.77 42.664h-5.77m5.77 42.657h-5.77m5.77 42.664h-5.77m5.77 42.641h-5.77m5.77 42.664h-5.77m45.487-767.913h-5.77m5.77 42.65h-5.77m5.77 42.67h-5.77m5.77 42.664h-5.77m5.77 42.664h-5.77m5.77 42.672h-5.77m5.77 42.649h-5.77m5.77 42.664h-5.77m5.77 42.671h-5.77m5.77 42.664h-5.77m5.77 42.656h-5.77m5.77 42.664h-5.77m5.77 42.664h-5.77m5.77 42.671h-5.77m5.77 42.664h-5.77m5.77 42.657h-5.77m5.77 42.664h-5.77m5.77 42.664h-5.77m5.77 42.664h-5.77m42.445-771.095v6.2m0 36.464v6.207m0 36.457v6.192m0 36.48v6.243m0 36.472v6.192m0 36.457v6.207m0 36.465v6.199m0 36.464v6.192m0 36.48v6.184m0 36.465v6.206m0 36.465v6.199-6.206m0 42.671v6.199m0 36.465v6.192m0 36.472v6.199m0 36.465v6.206m0 36.458v6.206m0 36.458v6.191m0 36.48v6.192m0 36.472v6.155m39.696-774.113v6.2m0 36.464v6.207m0 36.457v6.192m0 36.48v6.191m0 36.472v6.192m0 36.457v6.207m0 36.465v6.199m0 36.464v6.192m0 36.48v6.184m0 36.465v6.206m0 36.465v6.199-6.206m0 42.686v6.199m0 36.465v6.192m0 36.472v6.184m0 36.465v6.206m0 36.458v6.206m0 36.458v6.191m0 36.48v6.192m0 36.472v6.155m39.718-774.164v6.199m0 36.464v6.207m0 36.457v6.192m0 36.48v6.243m0 36.472v6.192m0 36.457v6.207m0 36.465v6.199m0 36.464v6.192m0 36.48v6.184m0 36.465v6.206m0 36.465v6.199-6.206m0 42.671v6.199m0 36.465v6.192m0 36.472v6.199m0 36.465v6.206m0 36.458v6.206m0 36.458v6.191m0 36.48v6.192m0 36.472v6.155m39.717-774.164v6.199m0 36.464v6.207m0 36.457v6.192m0 36.48v6.243m0 36.472v6.192m0 36.457v6.207m0 36.465v6.199m0 36.464v6.192m0 36.48v6.184m0 36.465v6.206m0 36.465v6.199-6.206m0 42.671v6.199m0 36.465v6.192m0 36.472v6.199m0 36.465v6.206m0 36.458v6.206m0 36.458v6.191m0 36.48v6.192m0 36.472v6.155m39.724-774.164v6.199m0 36.464v6.207m0 36.457v6.192m0 36.48v6.243m0 36.472v6.192m0 36.457v6.207m0 36.465v6.199m0 36.464v6.192m0 36.48v6.184m0 36.465v6.206m0 36.465v6.199-6.206m0 42.671v6.199m0 36.465v6.192m0 36.472v6.199m0 36.465v6.206m0 36.458v6.206m0 36.458v6.191m0 36.48v6.192m0 36.472v6.155m39.717-774.164v6.199m0 36.464v6.207m0 36.457v6.192m0 36.48v6.243m0 36.472v6.192m0 36.457v6.207m0 36.465v6.199m0 36.464v6.192m0 36.48v6.184m0 36.465v6.206m0 36.465v6.199m0 36.465v6.199m0 36.465v6.192m0 36.472v6.199m0 36.465v6.206m0 36.458v6.206m0 36.458v6.191m0 36.48v6.192m0 36.472v6.155m39.718-774.164v6.199m0 36.464v6.207m0 36.457v6.192m0 36.48v6.243m0 36.472v6.192m0 36.457v6.207m0 36.465v6.199m0 36.464v6.192m0 36.48v6.184m0 36.465v6.206m0 36.465v6.199m0 36.465v6.199m0 36.465v6.192m0 36.472v6.199m0 36.465v6.206m0 36.458v6.206m0 36.458v6.191m0 36.48v6.192m0 36.472v6.155m39.765-774.113v6.2m0 36.464v6.207m0 36.457v6.192m0 36.48v6.191-6.2m0 42.672v6.192m0 36.457v6.207-6.199m0 42.664v6.199m0 36.464v6.192m0 36.48v6.184m0 36.465v6.206m0 36.465v6.199-6.206m0 42.686v6.199m0 36.465v6.192m0 36.472v6.184m0 36.465v6.206m0 36.458v6.206m0 36.458v6.191m0 36.48v6.192m0 36.472v6.155-6.185m39.718-767.98v6.2m0 36.464v6.207m0 36.457v6.192m0 36.48v6.243m0 36.472v6.192m0 36.457v6.207m0 36.465v6.199m0 36.464v6.192m0 36.48v6.184m0 36.465v6.206m0 36.465v6.199m0 36.465v6.199m0 36.465v6.192m0 36.472v6.199-6.251m0 42.716v6.206m0 36.458v6.206m0 36.458v6.191-6.184m0 42.664v6.192m0 36.472v6.155m39.717-774.164v6.199m0 36.464v6.207m0 36.457v6.192m0 36.48v6.243m0 36.472v6.192m0 36.457v6.207m0 36.465v6.199m0 36.464v6.192m0 36.48v6.184m0 36.465v6.206m0 36.465v6.199m0 36.465v6.199m0 36.465v6.192m0 36.472v6.199-6.251m0 42.716v6.206m0 36.458v6.206m0 36.458v6.191-6.184m0 42.664v6.192m0 36.472v6.155m-198.607-6.163v6.163m39.717-774.164v6.199m0 36.464v6.207m0 36.457v6.192m0 36.472v6.2m0 36.471v6.192m0 36.465v6.199m0 36.465v6.199m0 36.465v6.192m0 36.479v6.184m0 36.465v6.207m0 36.457v6.207m0 36.464v6.2m0 36.464v6.192m0 36.472v6.251m0 36.465v6.206m0 36.458v6.206m0 36.465v6.184m0 36.48v6.192m0 36.472v6.155m39.717-774.164v6.199m0 36.464v6.207m0 36.457v6.192m0 36.472v6.2m0 36.471v6.192m0 36.465v6.199m0 36.465v6.199m0 36.465v6.192m0 36.479v6.184m0 36.465v6.207m0 36.457v6.207m0 36.464v6.2m0 36.464v6.192m0 36.472v6.251m0 36.465v6.206m0 36.458v6.206m0 36.465v6.184m0 36.48v6.192m0 36.472v6.155m39.738-91.513v6.185m0 36.479v6.192m39.718-603.516v6.2m0 36.471v6.192m0 36.465v6.199m0 36.465v6.199m0 36.465v6.192m0 36.479v6.184m0 36.465v6.207m0 36.457v6.207m0 36.464v6.2m0 36.464v6.192m39.717-390.167v6.2m0 36.471v6.192m0 36.465v6.199m0 36.465v6.199m0 36.465v6.192m0 36.479v6.184m0 36.465v6.207m0 36.457v6.207m0 36.464v6.2m0 36.464v6.192m-354.605-515h-5.777m5.763 42.65h-5.763m5.763 42.67h-5.763m5.777 42.664h-5.777m5.763 42.664h-5.763m5.763 42.672h-5.763m5.763 42.649h-5.763m5.763 42.664h-5.763m5.763 42.671h-5.763m5.763 42.664h-5.763m5.763 42.656h-5.763m5.763 42.664h-5.763m5.777 42.679h-5.777m5.763 42.671h-5.763m5.763 42.664h-5.763m5.763 42.657h-5.763m5.763 42.663h-5.763m5.777 42.627h-5.777m5.763 42.664h-5.763m45.494-767.913h-5.763m5.763 42.65h-5.763m5.763 42.67h-5.763m5.763 42.664h-5.763m5.763 42.664h-5.763m5.763 42.672h-5.763m5.763 42.649h-5.763m5.763 42.664h-5.763m5.763 42.671h-5.763m5.763 42.664h-5.763m5.763 42.656h-5.763m5.763 42.664h-5.763m5.763 42.679h-5.763m5.763 42.671h-5.763m5.763 42.664h-5.763m5.763 42.657h-5.763m5.763 42.663h-5.763m5.763 42.627h-5.763m5.763 42.664h-5.763m45.487-767.913h-5.77m5.77 42.65h-5.77m5.77 42.67h-5.77m5.77 42.664h-5.77m5.77 42.664h-5.77m5.77 42.672h-5.77m5.77 42.649h-5.77m5.77 42.664h-5.77m5.77 42.671h-5.77m5.77 42.664h-5.77m5.77 42.656h-5.77m5.77 42.664h-5.77m5.77 42.664h-5.77m5.77 42.671h-5.77m5.77 42.664h-5.77m5.77 42.657h-5.77m5.77 42.664h-5.77m5.77 42.664h-5.77m5.77 42.664h-5.77m45.487-767.936h-5.77m5.77 42.65h-5.77m5.77 42.67h-5.77m5.77 42.664h-5.77m5.77 42.664h-5.77m5.77 42.672h-5.77m5.77 42.649h-5.77m5.77 42.664h-5.77m5.77 42.671h-5.77m5.77 42.664h-5.77m5.77 42.656h-5.77m5.77 42.664h-5.77m5.77 42.664h-5.77m5.77 42.671h-5.77m5.77 42.664h-5.77m5.77 42.657h-5.77m5.77 42.664h-5.77m5.77 42.664h-5.77m5.77 42.664h-5.77m45.495-767.936h-5.77m5.77 42.65h-5.77m5.77 42.67h-5.77m5.77 42.664h-5.77m5.77 42.664h-5.77m5.77 42.672h-5.77m5.77 42.649h-5.77m5.77 42.664h-5.77m5.77 42.671h-5.77m5.77 42.664h-5.77m5.77 42.656h-5.77m5.77 42.664h-5.77m5.77 42.664h-5.77m5.77 42.671h-5.77m5.77 42.664h-5.77m5.77 42.657h-5.77m5.77 42.664h-5.77m5.77 42.664h-5.77m5.77 42.664h-5.77m45.487-767.936h-5.77m5.77 42.65h-5.77m5.77 42.67h-5.77m5.77 42.664h-5.77m5.77 42.664h-5.77m5.77 42.672h-5.77m5.77 42.649h-5.77m5.77 42.664h-5.77m5.77 42.671h-5.77m5.77 42.664h-5.77m5.77 42.656h-5.77m5.77 42.664h-5.77m5.77 42.664h-5.77m5.77 42.671h-5.77m5.77 42.664h-5.77m5.77 42.657h-5.77m5.77 42.664h-5.77m5.77 42.664h-5.77m5.77 42.664h-5.77m45.487-767.936h-5.735m5.77 42.65h-5.77m5.77 42.67h-5.77m5.77 42.664h-5.77m5.77 42.664h-5.77m5.77 42.672h-5.77m5.77 42.649h-5.77m5.77 42.664h-5.77m5.77 42.671h-5.77m5.77 42.664h-5.77m5.77 42.656h-5.77m5.77 42.664h-5.77m5.77 42.664h-5.77m5.77 42.671h-5.77m5.77 42.664h-5.77m5.77 42.657h-5.77m5.77 42.664h-5.77m5.77 42.664h-5.77m5.77 42.664h-5.77m45.459-767.936h-5.77m5.77 42.65h-5.77m5.77 42.67h-5.77m5.77 42.664h-5.77m5.77 42.664h-5.77m5.77 42.672h-5.77m5.77 42.649h-5.77m5.77 42.664h-5.77m5.77 42.671h-5.77m5.77 42.664h-5.77m5.77 42.656h-5.77m5.77 42.664h-5.77m5.77 42.664h-5.77m5.77 42.671h-5.77m5.77 42.664h-5.77m5.77 42.657h-5.77m5.77 42.664h-5.77m5.77 42.664h-5.77m5.77 42.664h-5.77m45.488-767.936h-5.77m5.77 42.65h-5.77m5.77 42.67h-5.77m5.77 42.664h-5.77m5.77 42.664h-5.77m5.77 42.672h-5.77m5.77 42.649h-5.77m5.77 42.664h-5.77m5.77 42.671h-5.77m5.77 42.664h-5.77m5.77 42.656h-5.77m5.77 42.664h-5.77m5.77 42.679h-5.77m5.77 42.656h-5.77m5.77 42.664h-5.77m5.77 42.657h-5.77m5.77 42.664h-5.77m5.77 42.641h-5.77m5.77 42.664h-5.77m45.487-767.913h-5.77m5.77 42.65h-5.77m5.77 42.67h-5.77m5.77 42.664h-5.77m5.77 42.664h-5.77m5.77 42.672h-5.77m5.77 42.649h-5.77m5.77 42.664h-5.77m5.77 42.671h-5.77m5.77 42.664h-5.77m5.77 42.656h-5.77m5.77 42.664h-5.77m5.77 42.664h-5.77m5.77 42.671h-5.77m5.77 42.664h-5.77m5.77 42.657h-5.77m5.77 42.664h-5.77m5.77 42.664h-5.77m5.77 42.664h-5.77" stroke="#939598" stroke-width=".83"/></g><defs><clipPath id="a"><path fill="#fff" transform="translate(0 .527)" d="M0 0h108v291H0z"/></clipPath></defs></svg>