<svg width="357" height="545" fill="none" xmlns="http://www.w3.org/2000/svg"><g clip-path="url(#a)"><path d="M-60.536 1366.92v11.34m0 66.77v11.28-11.27M12.178 38.98v11.35m0 66.758v11.363m0 66.746v11.336m0 66.786v11.43m0 66.773v11.336m0 66.745v11.363m0 66.76v11.349m0 66.759v11.336m0 66.786v11.323m0 66.759v11.363m0 66.759v11.349-11.363m0 78.122v11.35m0 66.759v11.336m0 66.777v11.34m0 66.76v11.37m0 66.74v11.37m0 66.74v11.34m0 66.78v11.34m0 66.77v11.27M84.853 39.074v11.35m0 66.759v11.363m0 66.745v11.336m0 66.786v11.336m0 66.773v11.336m0 66.745v11.363m0 66.76v11.349m0 66.759v11.336m0 66.786v11.323m0 66.759v11.363m0 66.759v11.349-11.363m0 78.149v11.35m0 66.759v11.336m0 66.77v11.32m0 66.76v11.37m0 66.74v11.37m0 66.74v11.34m0 66.78v11.34m0 66.77v11.27M157.568 38.98v11.35m0 66.758v11.363m0 66.746v11.336m0 66.786v11.43m0 66.773v11.336m0 66.745v11.363m0 66.76v11.349m0 66.759v11.336m0 66.786v11.323m0 66.759v11.363m0 66.759v11.349-11.363m0 78.122v11.35m0 66.759v11.336m0 66.777v11.34m0 66.76v11.37m0 66.74v11.37m0 66.74v11.34m0 66.78v11.34m0 66.77v11.27M230.282 38.98v11.35m0 66.758v11.363m0 66.746v11.336m0 66.786v11.43m0 66.773v11.336m0 66.745v11.363m0 66.76v11.349m0 66.759v11.336m0 66.786v11.323m0 66.759v11.363m0 66.759v11.349-11.363m0 78.122v11.35m0 66.759v11.336m0 66.777v11.34m0 66.76v11.37m0 66.74v11.37m0 66.74v11.34m0 66.78v11.34m0 66.77v11.27M303.008 38.98v11.35m0 66.758v11.363m0 66.746v11.336m0 66.786v11.43m0 66.773v11.336m0 66.745v11.363m0 66.76v11.349m0 66.759v11.336m0 66.786v11.323m0 66.759v11.363m0 66.759v11.349-11.363m0 78.122v11.35m0 66.759v11.336m0 66.777v11.34m0 66.76v11.37m0 66.74v11.37m0 66.74v11.34m0 66.78v11.34m0 66.77v11.27M375.722 38.98v11.35m0 66.758v11.363m0 66.746v11.336m0 66.786v11.43m0 66.773v11.336m0 66.745v11.363m0 66.76v11.349m0 66.759v11.336m0 66.786v11.323m0 66.759v11.363m0 66.759v11.349m0 66.759v11.35m0 66.759v11.336m0 66.777v11.34m0 66.76v11.37m0 66.74v11.37m0 66.74v11.34m0 66.78v11.34m0 66.77v11.27M448.436 38.98v11.35m0 66.758v11.363m0 66.746v11.336m0 66.786v11.43m0 66.773v11.336m0 66.745v11.363m0 66.76v11.349m0 66.759v11.336m0 66.786v11.323m0 66.759v11.363m0 66.759v11.349m0 66.759v11.35m0 66.759v11.336m0 66.777v11.34m0 66.76v11.37m0 66.74v11.37m0 66.74v11.34m0 66.78v11.34m0 66.77v11.27M521.238 39.074v11.35m0 66.759v11.363m0 66.745v11.336m0 66.786v11.336V273.4m0 78.122v11.336m0 66.745v11.363-11.349m0 78.109v11.349m0 66.759v11.336m0 66.786v11.323m0 66.759v11.363m0 66.759v11.349-11.363m0 78.149v11.35m0 66.759v11.336m0 66.77v11.32m0 66.76v11.37m0 66.74v11.37m0 66.74v11.34m0 66.78v11.34m0 66.77v11.27-11.32M593.952 38.98v11.35m0 66.758v11.363m0 66.746v11.336m0 66.786v11.43m0 66.773v11.336m0 66.745v11.363m0 66.76v11.349m0 66.759v11.336m0 66.786v11.323m0 66.759v11.363m0 66.759v11.349m0 66.759v11.35m0 66.759v11.336m0 66.777v11.34-11.44m0 78.2v11.37m0 66.74v11.37m0 66.74v11.34-11.33m0 78.11v11.34m0 66.77v11.27M666.666 38.98v11.35m0 66.758v11.363m0 66.746v11.336m0 66.786v11.43m0 66.773v11.336m0 66.745v11.363m0 66.76v11.349m0 66.759v11.336m0 66.786v11.323m0 66.759v11.363m0 66.759v11.349m0 66.759v11.35m0 66.759v11.336m0 66.777v11.34-11.44m0 78.2v11.37m0 66.74v11.37m0 66.74v11.34-11.33m0 78.11v11.34m0 66.77v11.27M-60.537 39.074v11.35m0 66.759v11.363m0 66.745v11.336m0 66.786v11.336m0 66.773v11.336m0 66.745v11.363m0 66.76v11.349m0 66.759v11.336m0 66.786v11.323m0 66.759v11.363m0 66.745v11.363m0 66.759v11.35m0 66.759v11.336m0 66.777v11.34m0 66.76v11.37m0 66.74v11.37m0 66.74v11.34m0 66.78v11.34m363.596 66.76v11.28M375.773 38.98v11.35m0 66.758v11.363m0 66.746v11.336m0 66.772v11.35m0 66.772v11.336m0 66.759v11.35m0 66.759v11.349m0 66.759v11.336m0 66.787v11.322m0 66.759v11.363m0 66.746v11.363m0 66.759v11.349m0 66.759v11.336m0 66.772v11.44m0 66.76v11.37m0 66.74v11.37m0 66.75v11.33m0 66.78v11.34m0 66.77v11.27M448.487 38.98v11.35m0 66.758v11.363m0 66.746v11.336m0 66.772v11.35m0 66.772v11.336m0 66.759v11.35m0 66.759v11.349m0 66.759v11.336m0 66.787v11.322m0 66.759v11.363m0 66.746v11.363m0 66.759v11.349m0 66.759v11.336m0 66.772v11.44m0 66.76v11.37m0 66.74v11.37m0 66.75v11.33m0 66.78v11.34m0 66.77v11.27m72.751-167.54v11.32m0 66.79v11.33m72.714-1104.905v11.35m0 66.772v11.336m0 66.759v11.35m0 66.759v11.349m0 66.759v11.336m0 66.787v11.322m0 66.759v11.363m0 66.746v11.363m0 66.759v11.349m0 66.759v11.336m72.714-714.313v11.35m0 66.772v11.336m0 66.759v11.35m0 66.759v11.349m0 66.759v11.336m0 66.787v11.322m0 66.759v11.363m0 66.746v11.363m0 66.759v11.349m0 66.759v11.336M-55.254 44.762h-10.564m10.563 78.082h-10.563m10.563 78.122h-10.563m10.563 78.109h-10.563m10.563 78.108h-10.563m10.563 78.122h-10.563m10.563 78.082h-10.563m10.563 78.108h-10.563m10.563 78.122h-10.563m10.563 78.109h-10.563m10.563 78.095h-10.563m10.563 78.108h-10.563m10.563 78.136h-10.563m10.563 78.125h-10.563m10.563 78.11h-10.563m10.563 78.09h-10.563m10.563 78.11h-10.563m10.563 78.04h-10.563m10.563 78.11h-10.563M17.459 44.763H6.883m10.551 78.081H6.884m10.55 78.122H6.884m10.575 78.109H6.883m10.551 78.108H6.884m10.55 78.122H6.884m10.55 78.082H6.884m10.55 78.108H6.884m10.55 78.122H6.884m10.55 78.109H6.884m10.55 78.095H6.884m10.55 78.108H6.884m10.575 78.136H6.883m10.551 78.125H6.884m10.55 78.11H6.884m10.55 78.09H6.884m10.55 78.11H6.884m10.575 78.04H6.883m10.551 78.11H6.884M90.173 44.763H79.621m10.551 78.081h-10.55m10.55 78.122h-10.55m10.55 78.109h-10.55m10.55 78.108h-10.55m10.55 78.122h-10.55m10.55 78.082h-10.55m10.55 78.108h-10.55m10.55 78.122h-10.55m10.55 78.109h-10.55m10.55 78.095h-10.55m10.55 78.108h-10.55m10.55 78.136h-10.55m10.55 78.125h-10.55m10.55 78.11h-10.55m10.55 78.09h-10.55m10.55 78.11h-10.55m10.55 78.04h-10.55m10.55 78.11h-10.55M162.9 44.763h-10.564m10.564 78.081h-10.564m10.564 78.122h-10.564m10.564 78.109h-10.564m10.564 78.108h-10.564m10.564 78.122h-10.564m10.564 78.082h-10.564m10.564 78.108h-10.564m10.564 78.122h-10.564m10.564 78.109h-10.564m10.564 78.095h-10.564m10.564 78.108h-10.564m10.564 78.109h-10.564m10.564 78.122h-10.564m10.564 78.11h-10.564m10.564 78.09h-10.564m10.564 78.11h-10.564m10.564 78.11h-10.564m10.564 78.11h-10.564M235.614 44.763H225.05m10.564 78.081H225.05m10.564 78.122H225.05m10.564 78.109H225.05m10.564 78.108H225.05m10.564 78.122H225.05m10.564 78.082H225.05m10.564 78.108H225.05m10.564 78.122H225.05m10.564 78.109H225.05m10.564 78.095H225.05m10.564 78.108H225.05m10.564 78.109H225.05m10.564 78.122H225.05m10.564 78.11H225.05m10.564 78.09H225.05m10.564 78.11H225.05m10.564 78.11H225.05m10.564 78.11H225.05M308.341 44.763h-10.564m10.564 78.081h-10.564m10.564 78.122h-10.564m10.564 78.109h-10.564m10.564 78.108h-10.564m10.564 78.122h-10.564m10.564 78.082h-10.564m10.564 78.108h-10.564m10.564 78.122h-10.564m10.564 78.109h-10.564m10.564 78.095h-10.564m10.564 78.108h-10.564m10.564 78.109h-10.564m10.564 78.122h-10.564m10.564 78.11h-10.564m10.564 78.09h-10.564m10.564 78.11h-10.564m10.564 78.11h-10.564m10.564 78.11h-10.564M381.055 44.763h-10.564m10.564 78.081h-10.564m10.564 78.122h-10.564m10.564 78.109h-10.564m10.564 78.108h-10.564m10.564 78.122h-10.564m10.564 78.082h-10.564m10.564 78.108h-10.564m10.564 78.122h-10.564m10.564 78.109h-10.564m10.564 78.095h-10.564m10.564 78.108h-10.564m10.564 78.109h-10.564m10.564 78.122h-10.564m10.564 78.11h-10.564m10.564 78.09h-10.564m10.564 78.11h-10.564m10.564 78.11h-10.564m10.564 78.11h-10.564M453.769 44.763h-10.501m10.563 78.081h-10.563m10.563 78.122h-10.563m10.563 78.109h-10.563m10.563 78.108h-10.563m10.563 78.122h-10.563m10.563 78.082h-10.563m10.563 78.108h-10.563m10.563 78.122h-10.563m10.563 78.109h-10.563m10.563 78.095h-10.563m10.563 78.108h-10.563m10.563 78.109h-10.563m10.563 78.122h-10.563m10.563 78.11h-10.563m10.563 78.09h-10.563m10.563 78.11h-10.563m10.563 78.11h-10.563m10.563 78.11h-10.563M526.495 44.763h-10.564m10.564 78.081h-10.564m10.564 78.122h-10.564m10.564 78.109h-10.564m10.564 78.108h-10.564m10.564 78.122h-10.564m10.564 78.082h-10.564m10.564 78.108h-10.564m10.564 78.122h-10.564m10.564 78.109h-10.564m10.564 78.095h-10.564m10.564 78.108h-10.564m10.564 78.109h-10.564m10.564 78.122h-10.564m10.564 78.11h-10.564m10.564 78.09h-10.564m10.564 78.11h-10.564m10.564 78.11h-10.564m10.564 78.11h-10.564M599.209 44.763h-10.564m10.564 78.081h-10.564m10.564 78.122h-10.564m10.564 78.109h-10.564m10.564 78.108h-10.564m10.564 78.122h-10.564m10.564 78.082h-10.564m10.564 78.108h-10.564m10.564 78.122h-10.564m10.564 78.109h-10.564m10.564 78.095h-10.564m10.564 78.108h-10.564m10.564 78.136h-10.564m10.564 78.095h-10.564m10.564 78.11h-10.564m10.564 78.09h-10.564m10.564 78.11h-10.564m10.564 78.07h-10.564m10.564 78.11h-10.564M671.923 44.763h-10.564m10.564 78.081h-10.564m10.564 78.122h-10.564m10.564 78.109h-10.564m10.564 78.108h-10.564m10.564 78.122h-10.564m10.564 78.082h-10.564m10.564 78.108h-10.564m10.564 78.122h-10.564m10.564 78.109h-10.564m10.564 78.095h-10.564m10.564 78.108h-10.564m10.564 78.109h-10.564m10.564 78.122h-10.564m10.564 78.11h-10.564m10.564 78.09h-10.564m10.564 78.11h-10.564m10.564 78.11h-10.564m10.564 78.11h-10.564M739.066 38.98v11.35m0 66.758v11.363m0 66.746v11.336m0 66.786v11.43m0 66.773v11.336m0 66.745v11.363m0 66.76v11.349m0 66.759v11.336m0 66.786v11.323m0 66.759v11.363m0 66.759v11.349-11.363m0 78.122v11.35m0 66.759v11.336m0 66.777v11.34m0 66.76v11.37m0 66.74v11.37m0 66.74v11.34m0 66.78v11.34m0 66.77v11.27M811.742 39.074v11.35m0 66.759v11.363m0 66.745v11.336m0 66.786v11.336m0 66.773v11.336m0 66.745v11.363m0 66.76v11.349m0 66.759v11.336m0 66.786v11.323m0 66.759v11.363m0 66.759v11.349-11.363m0 78.149v11.35m0 66.759v11.336m0 66.77v11.32m0 66.76v11.37m0 66.74v11.37m0 66.74v11.34m0 66.78v11.34m0 66.77v11.27M884.456 38.98v11.35m0 66.758v11.363m0 66.746v11.336m0 66.786v11.43m0 66.773v11.336m0 66.745v11.363m0 66.76v11.349m0 66.759v11.336m0 66.786v11.323m0 66.759v11.363m0 66.759v11.349-11.363m0 78.122v11.35m0 66.759v11.336m0 66.777v11.34m0 66.76v11.37m0 66.74v11.37m0 66.74v11.34m0 66.78v11.34m0 66.77v11.27M957.17 38.98v11.35m0 66.758v11.363m0 66.746v11.336m0 66.786v11.43m0 66.773v11.336m0 66.745v11.363m0 66.76v11.349m0 66.759v11.336m0 66.786v11.323m0 66.759v11.363m0 66.759v11.349-11.363m0 78.122v11.35m0 66.759v11.336m0 66.777v11.34m0 66.76v11.37m0 66.74v11.37m0 66.74v11.34m0 66.78v11.34m0 66.77v11.27M1029.9 38.98v11.35m0 66.758v11.363m0 66.746v11.336m0 66.786v11.43m0 66.773v11.336m0 66.745v11.363m0 66.76v11.349m0 66.759v11.336m0 66.786v11.323m0 66.759v11.363m0 66.759v11.349-11.363m0 78.122v11.35m0 66.759v11.336m0 66.777v11.34m0 66.76v11.37m0 66.74v11.37m0 66.74v11.34m0 66.78v11.34m0 66.77v11.27m72.71-1417.33v11.35m0 66.758v11.363m0 66.746v11.336m0 66.786v11.43m0 66.773v11.336m0 66.745v11.363m0 66.76v11.349m0 66.759v11.336m0 66.786v11.323m0 66.759v11.363m0 66.759v11.349m0 66.759v11.35m0 66.759v11.336m0 66.777v11.34m0 66.76v11.37m0 66.74v11.37m0 66.74v11.34m0 66.78v11.34m0 66.77v11.27m72.71-1417.33v11.35m0 66.758v11.363m0 66.746v11.336m0 66.786v11.43m0 66.773v11.336m0 66.745v11.363m0 66.76v11.349m0 66.759v11.336m0 66.786v11.323m0 66.759v11.363m0 66.759v11.349m0 66.759v11.35m0 66.759v11.336m0 66.777v11.34m0 66.76v11.37m0 66.74v11.37m0 66.74v11.34m0 66.78v11.34m0 66.77v11.27m72.81-1417.236v11.35m0 66.759v11.363m0 66.745v11.336m0 66.786v11.336V273.4m0 78.122v11.336m0 66.745v11.363-11.349m0 78.109v11.349m0 66.759v11.336m0 66.786v11.323m0 66.759v11.363m0 66.759v11.349-11.363m0 78.149v11.35m0 66.759v11.336m0 66.77v11.32m0 66.76v11.37m0 66.74v11.37m0 66.74v11.34m0 66.78v11.34m0 66.77v11.27-11.32m72.71-1406.01v11.35m0 66.758v11.363m0 66.746v11.336m0 66.786v11.43m0 66.773v11.336m0 66.745v11.363m0 66.76v11.349m0 66.759v11.336m0 66.786v11.323m0 66.759v11.363m0 66.759v11.349m0 66.759v11.35m0 66.759v11.336m0 66.777v11.34-11.44m0 78.2v11.37m0 66.74v11.37m0 66.74v11.34-11.33m0 78.11v11.34m0 66.77v11.27m72.71-1417.33v11.35m0 66.758v11.363m0 66.746v11.336m0 66.786v11.43m0 66.773v11.336m0 66.745v11.363m0 66.76v11.349m0 66.759v11.336m0 66.786v11.323m0 66.759v11.363m0 66.759v11.349m0 66.759v11.35m0 66.759v11.336m0 66.777v11.34-11.44m0 78.2v11.37m0 66.74v11.37m0 66.74v11.34-11.33m0 78.11v11.34m0 66.77v11.27m-363.6-11.28v11.28m72.71-1417.33v11.35m0 66.758v11.363m0 66.746v11.336m0 66.772v11.35m0 66.772v11.336m0 66.759v11.35m0 66.759v11.349m0 66.759v11.336m0 66.787v11.322m0 66.759v11.363m0 66.746v11.363m0 66.759v11.349m0 66.759v11.336m0 66.772v11.44m0 66.76v11.37m0 66.74v11.37m0 66.75v11.33m0 66.78v11.34m0 66.77v11.27m72.72-1417.33v11.35m0 66.758v11.363m0 66.746v11.336m0 66.772v11.35m0 66.772v11.336m0 66.759v11.35m0 66.759v11.349m0 66.759v11.336m0 66.787v11.322m0 66.759v11.363m0 66.746v11.363m0 66.759v11.349m0 66.759v11.336m0 66.772v11.44m0 66.76v11.37m0 66.74v11.37m0 66.75v11.33m0 66.78v11.34m0 66.77v11.27m72.75-167.54v11.32m0 66.79v11.33m72.71-1104.905v11.35m0 66.772v11.336m0 66.759v11.35m0 66.759v11.349m0 66.759v11.336m0 66.787v11.322m0 66.759v11.363m0 66.746v11.363m0 66.759v11.349m0 66.759v11.336m72.71-714.313v11.35m0 66.772v11.336m0 66.759v11.35m0 66.759v11.349m0 66.759v11.336m0 66.787v11.322m0 66.759v11.363m0 66.746v11.363m0 66.759v11.349m0 66.759v11.336M744.348 44.763h-10.576m10.551 78.081h-10.551m10.551 78.122h-10.551m10.576 78.109h-10.576m10.551 78.108h-10.551m10.551 78.122h-10.551m10.551 78.082h-10.551m10.551 78.108h-10.551m10.551 78.122h-10.551m10.551 78.109h-10.551m10.551 78.095h-10.551m10.551 78.108h-10.551m10.576 78.136h-10.576m10.551 78.125h-10.551m10.551 78.11h-10.551m10.551 78.09h-10.551m10.551 78.11h-10.551m10.576 78.04h-10.576m10.551 78.11h-10.551m83.29-1405.887h-10.551m10.551 78.081h-10.551m10.551 78.122h-10.551m10.551 78.109h-10.551m10.551 78.108h-10.551m10.551 78.122h-10.551m10.551 78.082h-10.551m10.551 78.108h-10.551m10.551 78.122h-10.551m10.551 78.109h-10.551m10.551 78.095h-10.551m10.551 78.108h-10.551m10.551 78.136h-10.551m10.551 78.125h-10.551m10.551 78.11h-10.551m10.551 78.09h-10.551m10.551 78.11h-10.551m10.551 78.04h-10.551m10.551 78.11h-10.551M889.788 44.763h-10.563m10.563 78.081h-10.563m10.563 78.122h-10.563m10.563 78.109h-10.563m10.563 78.108h-10.563m10.563 78.122h-10.563m10.563 78.082h-10.563m10.563 78.108h-10.563m10.563 78.122h-10.563m10.563 78.109h-10.563m10.563 78.095h-10.563m10.563 78.108h-10.563m10.563 78.109h-10.563m10.563 78.122h-10.563m10.563 78.11h-10.563m10.563 78.09h-10.563m10.563 78.11h-10.563m10.563 78.11h-10.563m10.563 78.11h-10.563M962.502 44.763h-10.563m10.563 78.081h-10.563m10.563 78.122h-10.563m10.563 78.109h-10.563m10.563 78.108h-10.563m10.563 78.122h-10.563m10.563 78.082h-10.563m10.563 78.108h-10.563m10.563 78.122h-10.563m10.563 78.109h-10.563m10.563 78.095h-10.563m10.563 78.108h-10.563m10.563 78.109h-10.563m10.563 78.122h-10.563m10.563 78.11h-10.563m10.563 78.09h-10.563m10.563 78.11h-10.563m10.563 78.11h-10.563m10.563 78.11h-10.563M1035.23 44.763h-10.56m10.56 78.081h-10.56m10.56 78.122h-10.56m10.56 78.109h-10.56m10.56 78.108h-10.56m10.56 78.122h-10.56m10.56 78.082h-10.56m10.56 78.108h-10.56m10.56 78.122h-10.56m10.56 78.109h-10.56m10.56 78.095h-10.56m10.56 78.108h-10.56m10.56 78.109h-10.56m10.56 78.122h-10.56m10.56 78.11h-10.56m10.56 78.09h-10.56m10.56 78.11h-10.56m10.56 78.11h-10.56m10.56 78.11h-10.56m83.27-1405.927h-10.56m10.56 78.081h-10.56m10.56 78.122h-10.56m10.56 78.109h-10.56m10.56 78.108h-10.56m10.56 78.122h-10.56m10.56 78.082h-10.56m10.56 78.108h-10.56m10.56 78.122h-10.56m10.56 78.109h-10.56m10.56 78.095h-10.56m10.56 78.108h-10.56m10.56 78.109h-10.56m10.56 78.122h-10.56m10.56 78.11h-10.56m10.56 78.09h-10.56m10.56 78.11h-10.56m10.56 78.11h-10.56m10.56 78.11h-10.56m83.28-1405.927h-10.5m10.56 78.081h-10.56m10.56 78.122h-10.56m10.56 78.109h-10.56m10.56 78.108h-10.56m10.56 78.122h-10.56m10.56 78.082h-10.56m10.56 78.108h-10.56m10.56 78.122h-10.56m10.56 78.109h-10.56m10.56 78.095h-10.56m10.56 78.108h-10.56m10.56 78.109h-10.56m10.56 78.122h-10.56m10.56 78.11h-10.56m10.56 78.09h-10.56m10.56 78.11h-10.56m10.56 78.11h-10.56m10.56 78.11h-10.56m83.22-1405.927h-10.56m10.56 78.081h-10.56m10.56 78.122h-10.56m10.56 78.109h-10.56m10.56 78.108h-10.56m10.56 78.122h-10.56m10.56 78.082h-10.56m10.56 78.108h-10.56m10.56 78.122h-10.56m10.56 78.109h-10.56m10.56 78.095h-10.56m10.56 78.108h-10.56m10.56 78.109h-10.56m10.56 78.122h-10.56m10.56 78.11h-10.56m10.56 78.09h-10.56m10.56 78.11h-10.56m10.56 78.11h-10.56m10.56 78.11h-10.56M1326.1 44.763h-10.57m10.57 78.081h-10.57m10.57 78.122h-10.57m10.57 78.109h-10.57m10.57 78.108h-10.57m10.57 78.122h-10.57m10.57 78.082h-10.57m10.57 78.108h-10.57m10.57 78.122h-10.57m10.57 78.109h-10.57m10.57 78.095h-10.57m10.57 78.108h-10.57m10.57 78.136h-10.57m10.57 78.095h-10.57m10.57 78.11h-10.57m10.57 78.09h-10.57m10.57 78.11h-10.57m10.57 78.07h-10.57m10.57 78.11h-10.57m83.28-1405.887h-10.56m10.56 78.081h-10.56m10.56 78.122h-10.56m10.56 78.109h-10.56m10.56 78.108h-10.56m10.56 78.122h-10.56m10.56 78.082h-10.56m10.56 78.108h-10.56m10.56 78.122h-10.56m10.56 78.109h-10.56m10.56 78.095h-10.56m10.56 78.108h-10.56m10.56 78.109h-10.56m10.56 78.122h-10.56m10.56 78.11h-10.56m10.56 78.09h-10.56m10.56 78.11h-10.56m10.56 78.11h-10.56m10.56 78.11h-10.56" stroke="#939598" stroke-width=".83"/></g><defs><clipPath id="a"><path fill="#fff" transform="translate(.182)" d="M0 0h960v545H0z"/></clipPath></defs></svg>