<svg width="755" height="756" fill="none" xmlns="http://www.w3.org/2000/svg"><g clip-path="url(#a)"><path d="M5.374 1328.21v11.33m0 66.78v11.28-11.27M78.088.269v11.35m0 66.759V89.74m0 66.746v11.336m0 66.786v11.431m0 66.772v11.336m0 66.746v11.363m0 66.759v11.349m0 66.759v11.336m0 66.786v11.323m0 66.759v11.363m0 66.759v11.349-11.362m0 78.121v11.35m0 66.759v11.336m0 66.768v11.35m0 66.76v11.37m0 66.74v11.36m0 66.75v11.34m0 66.78v11.34m0 66.77v11.27M150.764.364v11.35m0 66.758v11.363m0 66.746v11.336m0 66.786v11.336m0 66.772v11.336m0 66.746v11.363m0 66.759v11.349m0 66.759v11.336m0 66.786v11.323m0 66.759v11.363m0 66.759v11.349-11.362m0 78.149v11.349m0 66.759v11.336m0 66.771v11.32m0 66.76v11.37m0 66.74v11.36m0 66.75v11.34m0 66.78v11.34m0 66.77v11.27M223.478.269v11.35m0 66.759V89.74m0 66.746v11.336m0 66.786v11.431m0 66.772v11.336m0 66.746v11.363m0 66.759v11.349m0 66.759v11.336m0 66.786v11.323m0 66.759v11.363m0 66.759v11.349-11.362m0 78.121v11.35m0 66.759v11.336m0 66.768v11.35m0 66.76v11.37m0 66.74v11.36m0 66.75v11.34m0 66.78v11.34m0 66.77v11.27M296.192.269v11.35m0 66.759V89.74m0 66.746v11.336m0 66.786v11.431m0 66.772v11.336m0 66.746v11.363m0 66.759v11.349m0 66.759v11.336m0 66.786v11.323m0 66.759v11.363m0 66.759v11.349-11.362m0 78.121v11.35m0 66.759v11.336m0 66.768v11.35m0 66.76v11.37m0 66.74v11.36m0 66.75v11.34m0 66.78v11.34m0 66.77v11.27M368.919.269v11.35m0 66.759V89.74m0 66.746v11.336m0 66.786v11.431m0 66.772v11.336m0 66.746v11.363m0 66.759v11.349m0 66.759v11.336m0 66.786v11.323m0 66.759v11.363m0 66.759v11.349-11.362m0 78.121v11.35m0 66.759v11.336m0 66.768v11.35m0 66.76v11.37m0 66.74v11.36m0 66.75v11.34m0 66.78v11.34m0 66.77v11.27M441.633.269v11.35m0 66.759V89.74m0 66.746v11.336m0 66.786v11.431m0 66.772v11.336m0 66.746v11.363m0 66.759v11.349m0 66.759v11.336m0 66.786v11.323m0 66.759v11.363m0 66.759v11.349m0 66.759v11.35m0 66.759v11.336m0 66.768v11.35m0 66.76v11.37m0 66.74v11.36m0 66.75v11.34m0 66.78v11.34m0 66.77v11.27M514.346.269v11.35m0 66.759V89.74m0 66.746v11.336m0 66.786v11.431m0 66.772v11.336m0 66.746v11.363m0 66.759v11.349m0 66.759v11.336m0 66.786v11.323m0 66.759v11.363m0 66.759v11.349m0 66.759v11.35m0 66.759v11.336m0 66.768v11.35m0 66.76v11.37m0 66.74v11.36m0 66.75v11.34m0 66.78v11.34m0 66.77v11.27M587.149.364v11.35m0 66.758v11.363m0 66.746v11.336m0 66.786v11.336-11.35m0 78.122v11.336m0 66.746v11.363-11.35m0 78.109v11.349m0 66.759v11.336m0 66.786v11.323m0 66.759v11.363m0 66.759v11.349-11.362m0 78.149v11.349m0 66.759v11.336m0 66.771v11.32m0 66.76v11.37m0 66.74v11.36m0 66.75v11.34m0 66.78v11.34m0 66.77v11.27-11.32M659.863.269v11.35m0 66.759V89.74m0 66.746v11.336m0 66.786v11.431m0 66.772v11.336m0 66.746v11.363m0 66.759v11.349m0 66.759v11.336m0 66.786v11.323m0 66.759v11.363m0 66.759v11.349m0 66.759v11.35m0 66.759v11.336m0 66.768v11.35-11.44m0 78.2v11.37m0 66.74v11.36m0 66.75v11.34-11.33m0 78.11v11.34m0 66.77v11.27M732.577.269v11.35m0 66.759V89.74m0 66.746v11.336m0 66.786v11.431m0 66.772v11.336m0 66.746v11.363m0 66.759v11.349m0 66.759v11.336m0 66.786v11.323m0 66.759v11.363m0 66.759v11.349m0 66.759v11.35m0 66.759v11.336m0 66.768v11.35-11.44m0 78.2v11.37m0 66.74v11.36m0 66.75v11.34-11.33m0 78.11v11.34m0 66.77v11.27M5.374.364v11.35m0 66.758v11.363m0 66.746v11.336m0 66.786v11.336m0 66.772v11.336m0 66.746v11.363m0 66.759v11.349m0 66.759v11.336m0 66.786v11.323m0 66.759v11.363m0 66.746v11.362m0 66.759v11.35m0 66.759v11.336m0 66.768v11.35m0 66.76v11.37m0 66.74v11.36m0 66.75v11.34m0 66.78v11.34m363.595 66.76v11.28M441.683.269v11.35m0 66.759V89.74m0 66.746v11.336m0 66.773v11.349m0 66.773v11.336m0 66.759v11.349m0 66.759v11.35m0 66.759v11.336m0 66.786v11.322m0 66.759v11.363m0 66.746v11.363m0 66.759v11.349m0 66.759v11.336m0 66.773v11.44m0 66.76v11.37m0 66.74v11.36m0 66.76v11.33m0 66.78v11.34m0 66.77v11.27M514.397.269v11.35m0 66.759V89.74m0 66.746v11.336m0 66.773v11.349m0 66.773v11.336m0 66.759v11.349m0 66.759v11.35m0 66.759v11.336m0 66.786v11.322m0 66.759v11.363m0 66.746v11.363m0 66.759v11.349m0 66.759v11.336m0 66.773v11.44m0 66.76v11.37m0 66.74v11.36m0 66.76v11.33m0 66.78v11.34m0 66.77v11.27m72.752-167.54v11.32m0 66.79v11.33m72.714-1104.905v11.349m0 66.773v11.336m0 66.759v11.349m0 66.759v11.35m0 66.759v11.336m0 66.786v11.322m0 66.759v11.363m0 66.746v11.363m0 66.759v11.349m0 66.759v11.336m72.714-714.312v11.349m0 66.773v11.336m0 66.759v11.349m0 66.759v11.35m0 66.759v11.336m0 66.786v11.322m0 66.759v11.363m0 66.746v11.363m0 66.759v11.349m0 66.759v11.336M10.656 6.052H.092m10.564 78.081H.092m10.564 78.122H.092m10.564 78.109H.092m10.564 78.109H.092m10.564 78.122H.092m10.564 78.081H.092m10.564 78.109H.092m10.564 78.122H.092m10.564 78.108H.092m10.564 78.095H.092m10.564 78.109H.092m10.564 78.135H.092m10.564 78.126H.092m10.564 78.1H.092m10.564 78.1H.092m10.564 78.11H.092m10.564 78.04H.092m10.564 78.11H.092M83.37 6.052H72.793m10.551 78.081h-10.55m10.55 78.122h-10.55m10.576 78.109H72.793m10.551 78.109h-10.55m10.55 78.122h-10.55m10.55 78.081h-10.55m10.55 78.109h-10.55m10.55 78.122h-10.55m10.55 78.108h-10.55m10.55 78.095h-10.55m10.55 78.109h-10.55m10.576 78.135H72.793m10.551 78.126h-10.55m10.55 78.1h-10.55m10.55 78.1h-10.55m10.55 78.11h-10.55m10.576 78.04H72.793m10.551 78.11h-10.55M156.083 6.052h-10.552m10.552 78.081h-10.552m10.552 78.122h-10.552m10.552 78.109h-10.552m10.552 78.109h-10.552m10.552 78.122h-10.552m10.552 78.081h-10.552m10.552 78.109h-10.552m10.552 78.122h-10.552m10.552 78.108h-10.552m10.552 78.095h-10.552m10.552 78.109h-10.552m10.552 78.135h-10.552m10.552 78.126h-10.552m10.552 78.1h-10.552m10.552 78.1h-10.552m10.552 78.11h-10.552m10.552 78.04h-10.552m10.552 78.11h-10.552M228.81 6.052h-10.564m10.564 78.081h-10.564m10.564 78.122h-10.564m10.564 78.109h-10.564m10.564 78.109h-10.564m10.564 78.122h-10.564m10.564 78.081h-10.564m10.564 78.109h-10.564m10.564 78.122h-10.564m10.564 78.108h-10.564m10.564 78.095h-10.564m10.564 78.109h-10.564m10.564 78.108h-10.564m10.564 78.123h-10.564m10.564 78.11h-10.564m10.564 78.09h-10.564m10.564 78.11h-10.564m10.564 78.11h-10.564m10.564 78.11h-10.564M301.524 6.052H290.96m10.564 78.081H290.96m10.564 78.122H290.96m10.564 78.109H290.96m10.564 78.109H290.96m10.564 78.122H290.96m10.564 78.081H290.96m10.564 78.109H290.96m10.564 78.122H290.96m10.564 78.108H290.96m10.564 78.095H290.96m10.564 78.109H290.96m10.564 78.108H290.96m10.564 78.123H290.96m10.564 78.11H290.96m10.564 78.09H290.96m10.564 78.11H290.96m10.564 78.11H290.96m10.564 78.11H290.96M374.251 6.052h-10.564m10.564 78.081h-10.564m10.564 78.122h-10.564m10.564 78.109h-10.564m10.564 78.109h-10.564m10.564 78.122h-10.564m10.564 78.081h-10.564m10.564 78.109h-10.564m10.564 78.122h-10.564m10.564 78.108h-10.564m10.564 78.095h-10.564m10.564 78.109h-10.564m10.564 78.108h-10.564m10.564 78.123h-10.564m10.564 78.11h-10.564m10.564 78.09h-10.564m10.564 78.11h-10.564m10.564 78.11h-10.564m10.564 78.11h-10.564M446.965 6.052h-10.564m10.564 78.081h-10.564m10.564 78.122h-10.564m10.564 78.109h-10.564m10.564 78.109h-10.564m10.564 78.122h-10.564m10.564 78.081h-10.564m10.564 78.109h-10.564m10.564 78.122h-10.564m10.564 78.108h-10.564m10.564 78.095h-10.564m10.564 78.109h-10.564m10.564 78.108h-10.564m10.564 78.123h-10.564m10.564 78.11h-10.564m10.564 78.09h-10.564m10.564 78.11h-10.564m10.564 78.11h-10.564m10.564 78.11h-10.564M519.679 6.052h-10.501m10.564 78.081h-10.564m10.564 78.122h-10.564m10.564 78.109h-10.564m10.564 78.109h-10.564m10.564 78.122h-10.564m10.564 78.081h-10.564m10.564 78.109h-10.564m10.564 78.122h-10.564m10.564 78.108h-10.564m10.564 78.095h-10.564m10.564 78.109h-10.564m10.564 78.108h-10.564m10.564 78.123h-10.564m10.564 78.11h-10.564m10.564 78.09h-10.564m10.564 78.11h-10.564m10.564 78.11h-10.564m10.564 78.11h-10.564M592.405 6.052h-10.564m10.564 78.081h-10.564m10.564 78.122h-10.564m10.564 78.109h-10.564m10.564 78.109h-10.564m10.564 78.122h-10.564m10.564 78.081h-10.564m10.564 78.109h-10.564m10.564 78.122h-10.564m10.564 78.108h-10.564m10.564 78.095h-10.564m10.564 78.109h-10.564m10.564 78.108h-10.564m10.564 78.123h-10.564m10.564 78.11h-10.564m10.564 78.09h-10.564m10.564 78.11h-10.564m10.564 78.11h-10.564m10.564 78.11h-10.564M665.119 6.052h-10.564m10.564 78.081h-10.564m10.564 78.122h-10.564m10.564 78.109h-10.564m10.564 78.109h-10.564m10.564 78.122h-10.564m10.564 78.081h-10.564m10.564 78.109h-10.564m10.564 78.122h-10.564m10.564 78.108h-10.564m10.564 78.095h-10.564m10.564 78.109h-10.564m10.564 78.135h-10.564m10.564 78.096h-10.564m10.564 78.11h-10.564m10.564 78.09h-10.564m10.564 78.11h-10.564m10.564 78.07h-10.564m10.564 78.11h-10.564M737.833 6.052h-10.564m10.564 78.081h-10.564m10.564 78.122h-10.564m10.564 78.109h-10.564m10.564 78.109h-10.564m10.564 78.122h-10.564m10.564 78.081h-10.564m10.564 78.109h-10.564m10.564 78.122h-10.564m10.564 78.108h-10.564m10.564 78.095h-10.564m10.564 78.109h-10.564m10.564 78.108h-10.564m10.564 78.123h-10.564m10.564 78.11h-10.564m10.564 78.09h-10.564m10.564 78.11h-10.564m10.564 78.11h-10.564m10.564 78.11h-10.564M804.976.269v11.35m0 66.759V89.74m0 66.746v11.336m0 66.786v11.431m0 66.772v11.336m0 66.746v11.363m0 66.759v11.349m0 66.759v11.336m0 66.786v11.323m0 66.759v11.363m0 66.759v11.349-11.362m0 78.121v11.35m0 66.759v11.336m0 66.768v11.35m0 66.76v11.37m0 66.74v11.36m0 66.75v11.34m0 66.78v11.34m0 66.77v11.27M877.652.364v11.35m0 66.758v11.363m0 66.746v11.336m0 66.786v11.336m0 66.772v11.336m0 66.746v11.363m0 66.759v11.349m0 66.759v11.336m0 66.786v11.323m0 66.759v11.363m0 66.759v11.349-11.362m0 78.149v11.349m0 66.759v11.336m0 66.771v11.32m0 66.76v11.37m0 66.74v11.36m0 66.75v11.34m0 66.78v11.34m0 66.77v11.27M950.366.269v11.35m0 66.759V89.74m0 66.746v11.336m0 66.786v11.431m0 66.772v11.336m0 66.746v11.363m0 66.759v11.349m0 66.759v11.336m0 66.786v11.323m0 66.759v11.363m0 66.759v11.349-11.362m0 78.121v11.35m0 66.759v11.336m0 66.768v11.35m0 66.76v11.37m0 66.74v11.36m0 66.75v11.34m0 66.78v11.34m0 66.77v11.27M1023.08.269v11.35m0 66.759V89.74m0 66.746v11.336m0 66.786v11.431m0 66.772v11.336m0 66.746v11.363m0 66.759v11.349m0 66.759v11.336m0 66.786v11.323m0 66.759v11.363m0 66.759v11.349-11.362m0 78.121v11.35m0 66.759v11.336m0 66.768v11.35m0 66.76v11.37m0 66.74v11.36m0 66.75v11.34m0 66.78v11.34m0 66.77v11.27M1095.81.269v11.35m0 66.759V89.74m0 66.746v11.336m0 66.786v11.431m0 66.772v11.336m0 66.746v11.363m0 66.759v11.349m0 66.759v11.336m0 66.786v11.323m0 66.759v11.363m0 66.759v11.349-11.362m0 78.121v11.35m0 66.759v11.336m0 66.768v11.35m0 66.76v11.37m0 66.74v11.36m0 66.75v11.34m0 66.78v11.34m0 66.77v11.27M1168.52.269v11.35m0 66.759V89.74m0 66.746v11.336m0 66.786v11.431m0 66.772v11.336m0 66.746v11.363m0 66.759v11.349m0 66.759v11.336m0 66.786v11.323m0 66.759v11.363m0 66.759v11.349m0 66.759v11.35m0 66.759v11.336m0 66.768v11.35m0 66.76v11.37m0 66.74v11.36m0 66.75v11.34m0 66.78v11.34m0 66.77v11.27M1241.23.269v11.35m0 66.759V89.74m0 66.746v11.336m0 66.786v11.431m0 66.772v11.336m0 66.746v11.363m0 66.759v11.349m0 66.759v11.336m0 66.786v11.323m0 66.759v11.363m0 66.759v11.349m0 66.759v11.35m0 66.759v11.336m0 66.768v11.35m0 66.76v11.37m0 66.74v11.36m0 66.75v11.34m0 66.78v11.34m0 66.77v11.27M1314.04.364v11.35m0 66.758v11.363m0 66.746v11.336m0 66.786v11.336-11.35m0 78.122v11.336m0 66.746v11.363-11.35m0 78.109v11.349m0 66.759v11.336m0 66.786v11.323m0 66.759v11.363m0 66.759v11.349-11.362m0 78.149v11.349m0 66.759v11.336m0 66.771v11.32m0 66.76v11.37m0 66.74v11.36m0 66.75v11.34m0 66.78v11.34m0 66.77v11.27-11.32M1386.75.269v11.35m0 66.759V89.74m0 66.746v11.336m0 66.786v11.431m0 66.772v11.336m0 66.746v11.363m0 66.759v11.349m0 66.759v11.336m0 66.786v11.323m0 66.759v11.363m0 66.759v11.349m0 66.759v11.35m0 66.759v11.336m0 66.768v11.35-11.44m0 78.2v11.37m0 66.74v11.36m0 66.75v11.34-11.33m0 78.11v11.34m0 66.77v11.27M1459.47.269v11.35m0 66.759V89.74m0 66.746v11.336m0 66.786v11.431m0 66.772v11.336m0 66.746v11.363m0 66.759v11.349m0 66.759v11.336m0 66.786v11.323m0 66.759v11.363m0 66.759v11.349m0 66.759v11.35m0 66.759v11.336m0 66.768v11.35-11.44m0 78.2v11.37m0 66.74v11.36m0 66.75v11.34-11.33m0 78.11v11.34m0 66.77v11.27m-363.61-11.28v11.28M1168.57.269v11.35m0 66.759V89.74m0 66.746v11.336m0 66.773v11.349m0 66.773v11.336m0 66.759v11.349m0 66.759v11.35m0 66.759v11.336m0 66.786v11.322m0 66.759v11.363m0 66.746v11.363m0 66.759v11.349m0 66.759v11.336m0 66.773v11.44m0 66.76v11.37m0 66.74v11.36m0 66.76v11.33m0 66.78v11.34m0 66.77v11.27M1241.29.269v11.35m0 66.759V89.74m0 66.746v11.336m0 66.773v11.349m0 66.773v11.336m0 66.759v11.349m0 66.759v11.35m0 66.759v11.336m0 66.786v11.322m0 66.759v11.363m0 66.746v11.363m0 66.759v11.349m0 66.759v11.336m0 66.773v11.44m0 66.76v11.37m0 66.74v11.36m0 66.76v11.33m0 66.78v11.34m0 66.77v11.27m72.75-167.54v11.32m0 66.79v11.33m72.71-1104.905v11.349m0 66.773v11.336m0 66.759v11.349m0 66.759v11.35m0 66.759v11.336m0 66.786v11.322m0 66.759v11.363m0 66.746v11.363m0 66.759v11.349m0 66.759v11.336m72.72-714.312v11.349m0 66.773v11.336m0 66.759v11.349m0 66.759v11.35m0 66.759v11.336m0 66.786v11.322m0 66.759v11.363m0 66.746v11.363m0 66.759v11.349m0 66.759v11.336M810.258 6.052h-10.576m10.551 78.081h-10.551m10.551 78.122h-10.551m10.576 78.109h-10.576m10.551 78.109h-10.551m10.551 78.122h-10.551m10.551 78.081h-10.551m10.551 78.109h-10.551m10.551 78.122h-10.551m10.551 78.108h-10.551m10.551 78.095h-10.551m10.551 78.109h-10.551m10.576 78.135h-10.576m10.551 78.126h-10.551m10.551 78.1h-10.551m10.551 78.1h-10.551m10.551 78.11h-10.551m10.576 78.04h-10.576m10.551 78.11h-10.551M882.972 6.052h-10.551m10.551 78.081h-10.551m10.551 78.122h-10.551m10.551 78.109h-10.551m10.551 78.109h-10.551m10.551 78.122h-10.551m10.551 78.081h-10.551m10.551 78.109h-10.551m10.551 78.122h-10.551m10.551 78.108h-10.551m10.551 78.095h-10.551m10.551 78.109h-10.551m10.551 78.135h-10.551m10.551 78.126h-10.551m10.551 78.1h-10.551m10.551 78.1h-10.551m10.551 78.11h-10.551m10.551 78.04h-10.551m10.551 78.11h-10.551M955.699 6.052h-10.564m10.564 78.081h-10.564m10.564 78.122h-10.564m10.564 78.109h-10.564m10.564 78.109h-10.564m10.564 78.122h-10.564m10.564 78.081h-10.564m10.564 78.109h-10.564m10.564 78.122h-10.564m10.564 78.108h-10.564m10.564 78.095h-10.564m10.564 78.109h-10.564m10.564 78.108h-10.564m10.564 78.123h-10.564m10.564 78.11h-10.564m10.564 78.09h-10.564m10.564 78.11h-10.564m10.564 78.11h-10.564m10.564 78.11h-10.564M1028.41 6.052h-10.56m10.56 78.081h-10.56m10.56 78.122h-10.56m10.56 78.109h-10.56m10.56 78.109h-10.56m10.56 78.122h-10.56m10.56 78.081h-10.56m10.56 78.109h-10.56m10.56 78.122h-10.56m10.56 78.108h-10.56m10.56 78.095h-10.56m10.56 78.109h-10.56m10.56 78.108h-10.56m10.56 78.123h-10.56m10.56 78.11h-10.56m10.56 78.09h-10.56m10.56 78.11h-10.56m10.56 78.11h-10.56m10.56 78.11h-10.56M1101.14 6.052h-10.56m10.56 78.081h-10.56m10.56 78.122h-10.56m10.56 78.109h-10.56m10.56 78.109h-10.56m10.56 78.122h-10.56m10.56 78.081h-10.56m10.56 78.109h-10.56m10.56 78.122h-10.56m10.56 78.108h-10.56m10.56 78.095h-10.56m10.56 78.109h-10.56m10.56 78.108h-10.56m10.56 78.123h-10.56m10.56 78.11h-10.56m10.56 78.09h-10.56m10.56 78.11h-10.56m10.56 78.11h-10.56m10.56 78.11h-10.56M1173.85 6.052h-10.56m10.56 78.081h-10.56m10.56 78.122h-10.56m10.56 78.109h-10.56m10.56 78.109h-10.56m10.56 78.122h-10.56m10.56 78.081h-10.56m10.56 78.109h-10.56m10.56 78.122h-10.56m10.56 78.108h-10.56m10.56 78.095h-10.56m10.56 78.109h-10.56m10.56 78.108h-10.56m10.56 78.123h-10.56m10.56 78.11h-10.56m10.56 78.09h-10.56m10.56 78.11h-10.56m10.56 78.11h-10.56m10.56 78.11h-10.56M1246.57 6.052h-10.5m10.56 78.081h-10.56m10.56 78.122h-10.56m10.56 78.109h-10.56m10.56 78.109h-10.56m10.56 78.122h-10.56m10.56 78.081h-10.56m10.56 78.109h-10.56m10.56 78.122h-10.56m10.56 78.108h-10.56m10.56 78.095h-10.56m10.56 78.109h-10.56m10.56 78.108h-10.56m10.56 78.123h-10.56m10.56 78.11h-10.56m10.56 78.09h-10.56m10.56 78.11h-10.56m10.56 78.11h-10.56m10.56 78.11h-10.56M1319.29 6.052h-10.56m10.56 78.081h-10.56m10.56 78.122h-10.56m10.56 78.109h-10.56m10.56 78.109h-10.56m10.56 78.122h-10.56m10.56 78.081h-10.56m10.56 78.109h-10.56m10.56 78.122h-10.56m10.56 78.108h-10.56m10.56 78.095h-10.56m10.56 78.109h-10.56m10.56 78.108h-10.56m10.56 78.123h-10.56m10.56 78.11h-10.56m10.56 78.09h-10.56m10.56 78.11h-10.56m10.56 78.11h-10.56m10.56 78.11h-10.56M1392.01 6.052h-10.57m10.57 78.081h-10.57m10.57 78.122h-10.57m10.57 78.109h-10.57m10.57 78.109h-10.57m10.57 78.122h-10.57m10.57 78.081h-10.57m10.57 78.109h-10.57m10.57 78.122h-10.57m10.57 78.108h-10.57m10.57 78.095h-10.57m10.57 78.109h-10.57m10.57 78.135h-10.57m10.57 78.096h-10.57m10.57 78.11h-10.57m10.57 78.09h-10.57m10.57 78.11h-10.57m10.57 78.07h-10.57m10.57 78.11h-10.57M1464.72 6.052h-10.56m10.56 78.081h-10.56m10.56 78.122h-10.56m10.56 78.109h-10.56m10.56 78.109h-10.56m10.56 78.122h-10.56m10.56 78.081h-10.56m10.56 78.109h-10.56m10.56 78.122h-10.56m10.56 78.108h-10.56m10.56 78.095h-10.56m10.56 78.109h-10.56m10.56 78.108h-10.56m10.56 78.123h-10.56m10.56 78.11h-10.56m10.56 78.09h-10.56m10.56 78.11h-10.56m10.56 78.11h-10.56m10.56 78.11h-10.56" stroke="#939598" stroke-width=".83"/></g><defs><clipPath id="a"><path fill="#fff" transform="translate(0 .932)" d="M0 0h960v1286H0z"/></clipPath></defs></svg>