<svg width="358" height="728" fill="none" xmlns="http://www.w3.org/2000/svg"><g clip-path="url(#a)"><path d="M-672.718 1367.14v11.34m0 66.77v11.28-11.27m72.714-1406.057v11.35m0 66.758v11.363m0 66.746v11.336m0 66.786v11.431m0 66.772v11.336m0 66.746v11.363m0 66.759v11.349m0 66.759v11.336m0 66.786v11.323m0 66.759v11.363m0 66.759v11.349-11.363m0 78.122v11.35m0 66.759v11.336m0 66.774v11.35m0 66.76v11.36m0 66.75v11.36m0 66.74v11.34m0 66.79v11.33m0 66.77v11.27m72.676-1417.233v11.35m0 66.759v11.363m0 66.746v11.335m0 66.787v11.336m0 66.772v11.336m0 66.746v11.363m0 66.759v11.349m0 66.759v11.336m0 66.786v11.323m0 66.759v11.363m0 66.759v11.349-11.363m0 78.149v11.35m0 66.759v11.336m0 66.777v11.32m0 66.76v11.36m0 66.75v11.36m0 66.74v11.34m0 66.79v11.33m0 66.77v11.27m72.714-1417.327v11.35m0 66.758v11.363m0 66.746v11.336m0 66.786v11.431m0 66.772v11.336m0 66.746v11.363m0 66.759v11.349m0 66.759v11.336m0 66.786v11.323m0 66.759v11.363m0 66.759v11.349-11.363m0 78.122v11.35m0 66.759v11.336m0 66.774v11.35m0 66.76v11.36m0 66.75v11.36m0 66.74v11.34m0 66.79v11.33m0 66.77v11.27M-381.9 39.203v11.35m0 66.758v11.363m0 66.746v11.336m0 66.786v11.431m0 66.772v11.336m0 66.746v11.363m0 66.759v11.349m0 66.759v11.336m0 66.786v11.323m0 66.759v11.363m0 66.759v11.349-11.363m0 78.122v11.35m0 66.759v11.336m0 66.774v11.35m0 66.76v11.36m0 66.75v11.36m0 66.74v11.34m0 66.79v11.33m0 66.77v11.27m72.727-1417.327v11.35m0 66.758v11.363m0 66.746v11.336m0 66.786v11.431m0 66.772v11.336m0 66.746v11.363m0 66.759v11.349m0 66.759v11.336m0 66.786v11.323m0 66.759v11.363m0 66.759v11.349-11.363m0 78.122v11.35m0 66.759v11.336m0 66.774v11.35m0 66.76v11.36m0 66.75v11.36m0 66.74v11.34m0 66.79v11.33m0 66.77v11.27m72.714-1417.327v11.35m0 66.758v11.363m0 66.746v11.336m0 66.786v11.431m0 66.772v11.336m0 66.746v11.363m0 66.759v11.349m0 66.759v11.336m0 66.786v11.323m0 66.759v11.363m0 66.759v11.349m0 66.759v11.35m0 66.759v11.336m0 66.774v11.35m0 66.76v11.36m0 66.75v11.36m0 66.74v11.34m0 66.79v11.33m0 66.77v11.27m72.714-1417.327v11.35m0 66.758v11.363m0 66.746v11.336m0 66.786v11.431m0 66.772v11.336m0 66.746v11.363m0 66.759v11.349m0 66.759v11.336m0 66.786v11.323m0 66.759v11.363m0 66.759v11.349m0 66.759v11.35m0 66.759v11.336m0 66.774v11.35m0 66.76v11.36m0 66.75v11.36m0 66.74v11.34m0 66.79v11.33m0 66.77v11.27M-90.943 39.297v11.35m0 66.759v11.363m0 66.746v11.335m0 66.787v11.336-11.35m0 78.122v11.336m0 66.746v11.363-11.35m0 78.109v11.349m0 66.759v11.336m0 66.786v11.323m0 66.759v11.363m0 66.759v11.349-11.363m0 78.149v11.35m0 66.759v11.336m0 66.777v11.32m0 66.76v11.36m0 66.75v11.36m0 66.74v11.34m0 66.79v11.33m0 66.77v11.27-11.32M-18.23 39.203v11.35m0 66.758v11.363m0 66.746v11.336m0 66.786v11.431m0 66.772v11.336m0 66.746v11.363m0 66.759v11.349m0 66.759v11.336m0 66.786v11.323m0 66.759v11.363m0 66.759v11.349m0 66.759v11.35m0 66.759v11.336m0 66.774v11.35-11.45m0 78.21v11.36m0 66.75v11.36m0 66.74v11.34-11.32m0 78.11v11.33m0 66.77v11.27M54.485 39.203v11.35m0 66.758v11.363m0 66.746v11.336m0 66.786v11.431m0 66.772v11.336m0 66.746v11.363m0 66.759v11.349m0 66.759v11.336m0 66.786v11.323m0 66.759v11.363m0 66.759v11.349m0 66.759v11.35m0 66.759v11.336m0 66.774v11.35-11.45m0 78.21v11.36m0 66.75v11.36m0 66.74v11.34-11.32m0 78.11v11.33m0 66.77v11.27M-672.718 39.297v11.35m0 66.759v11.363m0 66.746v11.335m0 66.787v11.336m0 66.772v11.336m0 66.746v11.363m0 66.759v11.349m0 66.759v11.336m0 66.786v11.323m0 66.759v11.363m0 66.745v11.363m0 66.759v11.35m0 66.759v11.336m0 66.774v11.35m0 66.76v11.36m0 66.75v11.36m0 66.74v11.34m0 66.79v11.33m363.595 66.76v11.28m72.714-1417.327v11.35m0 66.758v11.363m0 66.746v11.336m0 66.772v11.35m0 66.773v11.335m0 66.76v11.349m0 66.759v11.35m0 66.759v11.336m0 66.786v11.322m0 66.759v11.363m0 66.746v11.363m0 66.759v11.349m0 66.759v11.336m0 66.769v11.45m0 66.76v11.36m0 66.75v11.36m0 66.76v11.32m0 66.79v11.33m0 66.77v11.27m72.714-1417.327v11.35m0 66.758v11.363m0 66.746v11.336m0 66.772v11.35m0 66.773v11.335m0 66.76v11.349m0 66.759v11.35m0 66.759v11.336m0 66.786v11.322m0 66.759v11.363m0 66.746v11.363m0 66.759v11.349m0 66.759v11.336m0 66.769v11.45m0 66.76v11.36m0 66.75v11.36m0 66.76v11.32m0 66.79v11.33m0 66.77v11.27m72.752-167.54v11.33m0 66.78v11.34M-18.23 273.528v11.35m0 66.773v11.335m0 66.76v11.349m0 66.759v11.35m0 66.759v11.336m0 66.786v11.322m0 66.759v11.363m0 66.746v11.363m0 66.759v11.349m0 66.759v11.336m72.714-714.313v11.35m0 66.773v11.335m0 66.76v11.349m0 66.759v11.35m0 66.759v11.336m0 66.786v11.322m0 66.759v11.363m0 66.746v11.363m0 66.759v11.349m0 66.759v11.336m-721.92-942.855H-678m10.564 78.081H-678m10.564 78.122H-678m10.564 78.109H-678m10.564 78.108H-678m10.564 78.122H-678m10.564 78.082H-678m10.564 78.108H-678m10.564 78.122H-678m10.564 78.109H-678m10.564 78.095H-678m10.564 78.109H-678m10.564 78.135H-678m10.564 78.122H-678m10.564 78.11H-678m10.564 78.09H-678m10.564 78.11H-678m10.564 78.04H-678m10.564 78.11H-678m83.278-1405.884h-10.577m10.552 78.081h-10.552m10.552 78.122h-10.552m10.577 78.109h-10.577m10.552 78.108h-10.552m10.552 78.122h-10.552m10.552 78.082h-10.552m10.552 78.108h-10.552m10.552 78.122h-10.552m10.552 78.109h-10.552m10.552 78.095h-10.552m10.552 78.109h-10.552m10.577 78.135h-10.577m10.552 78.122h-10.552m10.552 78.11h-10.552m10.552 78.09h-10.552m10.552 78.11h-10.552m10.577 78.04h-10.577m10.552 78.11h-10.552m83.291-1405.884h-10.551m10.551 78.081h-10.551m10.551 78.122h-10.551m10.551 78.109h-10.551m10.551 78.108h-10.551m10.551 78.122h-10.551m10.551 78.082h-10.551m10.551 78.108h-10.551m10.551 78.122h-10.551m10.551 78.109h-10.551m10.551 78.095h-10.551m10.551 78.109h-10.551m10.551 78.135h-10.551m10.551 78.122h-10.551m10.551 78.11h-10.551m10.551 78.09h-10.551m10.551 78.11h-10.551m10.551 78.04h-10.551m10.551 78.11h-10.551m83.277-1405.884h-10.563m10.563 78.081h-10.563m10.563 78.122h-10.563m10.563 78.109h-10.563m10.563 78.108h-10.563m10.563 78.122h-10.563m10.563 78.082h-10.563m10.563 78.108h-10.563m10.563 78.122h-10.563m10.563 78.109h-10.563m10.563 78.095h-10.563m10.563 78.109h-10.563m10.563 78.108h-10.563m10.563 78.119h-10.563m10.563 78.11h-10.563m10.563 78.1h-10.563m10.563 78.11h-10.563m10.563 78.1h-10.563m10.563 78.11h-10.563m83.277-1405.924h-10.563m10.563 78.081h-10.563m10.563 78.122h-10.563m10.563 78.109h-10.563m10.563 78.108h-10.563m10.563 78.122h-10.563m10.563 78.082h-10.563m10.563 78.108h-10.563m10.563 78.122h-10.563m10.563 78.109h-10.563m10.563 78.095h-10.563m10.563 78.109h-10.563m10.563 78.108h-10.563m10.563 78.119h-10.563m10.563 78.11h-10.563m10.563 78.1h-10.563m10.563 78.11h-10.563m10.563 78.1h-10.563m10.563 78.11h-10.563m83.29-1405.924h-10.564m10.564 78.081h-10.564m10.564 78.122h-10.564m10.564 78.109h-10.564m10.564 78.108h-10.564m10.564 78.122h-10.564m10.564 78.082h-10.564m10.564 78.108h-10.564m10.564 78.122h-10.564m10.564 78.109h-10.564m10.564 78.095h-10.564m10.564 78.109h-10.564m10.564 78.108h-10.564m10.564 78.119h-10.564m10.564 78.11h-10.564m10.564 78.1h-10.564m10.564 78.11h-10.564m10.564 78.1h-10.564m10.564 78.11h-10.564m83.278-1405.924h-10.564m10.564 78.081h-10.564m10.564 78.122h-10.564m10.564 78.109h-10.564m10.564 78.108h-10.564m10.564 78.122h-10.564m10.564 78.082h-10.564m10.564 78.108h-10.564m10.564 78.122h-10.564m10.564 78.109h-10.564m10.564 78.095h-10.564m10.564 78.109h-10.564m10.564 78.108h-10.564m10.564 78.119h-10.564m10.564 78.11h-10.564m10.564 78.1h-10.564m10.564 78.11h-10.564m10.564 78.1h-10.564m10.564 78.11h-10.564m83.278-1405.924h-10.501m10.564 78.081h-10.564m10.564 78.122h-10.564m10.564 78.109h-10.564m10.564 78.108h-10.564m10.564 78.122h-10.564m10.564 78.082h-10.564m10.564 78.108h-10.564m10.564 78.122h-10.564m10.564 78.109h-10.564m10.564 78.095h-10.564m10.564 78.109h-10.564m10.564 78.108h-10.564m10.564 78.119h-10.564m10.564 78.11h-10.564m10.564 78.1h-10.564m10.564 78.11h-10.564m10.564 78.1h-10.564m10.564 78.11h-10.564M-85.687 44.986H-96.25m10.564 78.081H-96.25m10.564 78.122H-96.25m10.564 78.109H-96.25m10.564 78.108H-96.25m10.564 78.122H-96.25m10.564 78.082H-96.25m10.564 78.108H-96.25m10.564 78.122H-96.25m10.564 78.109H-96.25m10.564 78.095H-96.25m10.564 78.109H-96.25m10.564 78.108H-96.25m10.564 78.119H-96.25m10.564 78.11H-96.25m10.564 78.1H-96.25m10.564 78.11H-96.25m10.564 78.1H-96.25m10.564 78.11H-96.25M-12.972 44.986h-10.564m10.564 78.081h-10.564m10.564 78.122h-10.564m10.564 78.109h-10.564m10.564 78.108h-10.564m10.564 78.122h-10.564m10.564 78.082h-10.564m10.564 78.108h-10.564m10.564 78.122h-10.564m10.564 78.109h-10.564m10.564 78.095h-10.564m10.564 78.109h-10.564m10.564 78.135h-10.564m10.564 78.092h-10.564m10.564 78.11h-10.564m10.564 78.1h-10.564m10.564 78.11h-10.564m10.564 78.06h-10.564m10.564 78.11h-10.564M59.742 44.986H49.178m10.564 78.081H49.178m10.564 78.122H49.178m10.564 78.109H49.178m10.564 78.108H49.178m10.564 78.122H49.178m10.564 78.082H49.178m10.564 78.108H49.178m10.564 78.122H49.178m10.564 78.109H49.178m10.564 78.095H49.178m10.564 78.109H49.178m10.564 78.108H49.178m10.564 78.119H49.178m10.564 78.11H49.178m10.564 78.1H49.178m10.564 78.11H49.178m10.564 78.1H49.178m10.564 78.11H49.178M126.884 39.203v11.35m0 66.758v11.363m0 66.746v11.336m0 66.786v11.431m0 66.772v11.336m0 66.746v11.363m0 66.759v11.349m0 66.759v11.336m0 66.786v11.323m0 66.759v11.363m0 66.759v11.349-11.363m0 78.122v11.35m0 66.759v11.336m0 66.774v11.35m0 66.76v11.36m0 66.75v11.36m0 66.74v11.34m0 66.79v11.33m0 66.77v11.27M199.561 39.297v11.35m0 66.759v11.363m0 66.746v11.335m0 66.787v11.336m0 66.772v11.336m0 66.746v11.363m0 66.759v11.349m0 66.759v11.336m0 66.786v11.323m0 66.759v11.363m0 66.759v11.349-11.363m0 78.149v11.35m0 66.759v11.336m0 66.777v11.32m0 66.76v11.36m0 66.75v11.36m0 66.74v11.34m0 66.79v11.33m0 66.77v11.27M272.275 39.203v11.35m0 66.758v11.363m0 66.746v11.336m0 66.786v11.431m0 66.772v11.336m0 66.746v11.363m0 66.759v11.349m0 66.759v11.336m0 66.786v11.323m0 66.759v11.363m0 66.759v11.349-11.363m0 78.122v11.35m0 66.759v11.336m0 66.774v11.35m0 66.76v11.36m0 66.75v11.36m0 66.74v11.34m0 66.79v11.33m0 66.77v11.27M344.989 39.203v11.35m0 66.758v11.363m0 66.746v11.336m0 66.786v11.431m0 66.772v11.336m0 66.746v11.363m0 66.759v11.349m0 66.759v11.336m0 66.786v11.323m0 66.759v11.363m0 66.759v11.349-11.363m0 78.122v11.35m0 66.759v11.336m0 66.774v11.35m0 66.76v11.36m0 66.75v11.36m0 66.74v11.34m0 66.79v11.33m0 66.77v11.27M417.715 39.203v11.35m0 66.758v11.363m0 66.746v11.336m0 66.786v11.431m0 66.772v11.336m0 66.746v11.363m0 66.759v11.349m0 66.759v11.336m0 66.786v11.323m0 66.759v11.363m0 66.759v11.349-11.363m0 78.122v11.35m0 66.759v11.336m0 66.774v11.35m0 66.76v11.36m0 66.75v11.36m0 66.74v11.34m0 66.79v11.33m0 66.77v11.27M490.429 39.203v11.35m0 66.758v11.363m0 66.746v11.336m0 66.786v11.431m0 66.772v11.336m0 66.746v11.363m0 66.759v11.349m0 66.759v11.336m0 66.786v11.323m0 66.759v11.363m0 66.759v11.349m0 66.759v11.35m0 66.759v11.336m0 66.774v11.35m0 66.76v11.36m0 66.75v11.36m0 66.74v11.34m0 66.79v11.33m0 66.77v11.27M563.143 39.203v11.35m0 66.758v11.363m0 66.746v11.336m0 66.786v11.431m0 66.772v11.336m0 66.746v11.363m0 66.759v11.349m0 66.759v11.336m0 66.786v11.323m0 66.759v11.363m0 66.759v11.349m0 66.759v11.35m0 66.759v11.336m0 66.774v11.35m0 66.76v11.36m0 66.75v11.36m0 66.74v11.34m0 66.79v11.33m0 66.77v11.27M635.945 39.297v11.35m0 66.759v11.363m0 66.746v11.335m0 66.787v11.336-11.35m0 78.122v11.336m0 66.746v11.363-11.35m0 78.109v11.349m0 66.759v11.336m0 66.786v11.323m0 66.759v11.363m0 66.759v11.349-11.363m0 78.149v11.35m0 66.759v11.336m0 66.777v11.32m0 66.76v11.36m0 66.75v11.36m0 66.74v11.34m0 66.79v11.33m0 66.77v11.27-11.32M708.659 39.203v11.35m0 66.758v11.363m0 66.746v11.336m0 66.786v11.431m0 66.772v11.336m0 66.746v11.363m0 66.759v11.349m0 66.759v11.336m0 66.786v11.323m0 66.759v11.363m0 66.759v11.349m0 66.759v11.35m0 66.759v11.336m0 66.774v11.35-11.45m0 78.21v11.36m0 66.75v11.36m0 66.74v11.34-11.32m0 78.11v11.33m0 66.77v11.27M781.373 39.203v11.35m0 66.758v11.363m0 66.746v11.336m0 66.786v11.431m0 66.772v11.336m0 66.746v11.363m0 66.759v11.349m0 66.759v11.336m0 66.786v11.323m0 66.759v11.363m0 66.759v11.349m0 66.759v11.35m0 66.759v11.336m0 66.774v11.35-11.45m0 78.21v11.36m0 66.75v11.36m0 66.74v11.34-11.32m0 78.11v11.33m0 66.77v11.27m-363.607-11.28v11.28M490.479 39.203v11.35m0 66.758v11.363m0 66.746v11.336m0 66.772v11.35m0 66.773v11.335m0 66.76v11.349m0 66.759v11.35m0 66.759v11.336m0 66.786v11.322m0 66.759v11.363m0 66.746v11.363m0 66.759v11.349m0 66.759v11.336m0 66.769v11.45m0 66.76v11.36m0 66.75v11.36m0 66.76v11.32m0 66.79v11.33m0 66.77v11.27M563.194 39.203v11.35m0 66.758v11.363m0 66.746v11.336m0 66.772v11.35m0 66.773v11.335m0 66.76v11.349m0 66.759v11.35m0 66.759v11.336m0 66.786v11.322m0 66.759v11.363m0 66.746v11.363m0 66.759v11.349m0 66.759v11.336m0 66.769v11.45m0 66.76v11.36m0 66.75v11.36m0 66.76v11.32m0 66.79v11.33m0 66.77v11.27m72.751-167.54v11.33m0 66.78v11.34m72.714-1104.912v11.35m0 66.773v11.335m0 66.76v11.349m0 66.759v11.35m0 66.759v11.336m0 66.786v11.322m0 66.759v11.363m0 66.746v11.363m0 66.759v11.349m0 66.759v11.336m72.714-714.313v11.35m0 66.773v11.335m0 66.76v11.349m0 66.759v11.35m0 66.759v11.336m0 66.786v11.322m0 66.759v11.363m0 66.746v11.363m0 66.759v11.349m0 66.759v11.336M132.166 44.986H121.59m10.551 78.081H121.59m10.551 78.122H121.59m10.576 78.109H121.59m10.551 78.108H121.59m10.551 78.122H121.59m10.551 78.082H121.59m10.551 78.108H121.59m10.551 78.122H121.59m10.551 78.109H121.59m10.551 78.095H121.59m10.551 78.109H121.59m10.576 78.135H121.59m10.551 78.122H121.59m10.551 78.11H121.59m10.551 78.09H121.59m10.551 78.11H121.59m10.576 78.04H121.59m10.551 78.11H121.59M204.88 44.986h-10.551m10.551 78.081h-10.551m10.551 78.122h-10.551m10.551 78.109h-10.551m10.551 78.108h-10.551m10.551 78.122h-10.551m10.551 78.082h-10.551m10.551 78.108h-10.551m10.551 78.122h-10.551m10.551 78.109h-10.551m10.551 78.095h-10.551m10.551 78.109h-10.551m10.551 78.135h-10.551m10.551 78.122h-10.551m10.551 78.11h-10.551m10.551 78.09h-10.551m10.551 78.11h-10.551m10.551 78.04h-10.551m10.551 78.11h-10.551M277.607 44.986h-10.564m10.564 78.081h-10.564m10.564 78.122h-10.564m10.564 78.109h-10.564m10.564 78.108h-10.564m10.564 78.122h-10.564m10.564 78.082h-10.564m10.564 78.108h-10.564m10.564 78.122h-10.564m10.564 78.109h-10.564m10.564 78.095h-10.564m10.564 78.109h-10.564m10.564 78.108h-10.564m10.564 78.119h-10.564m10.564 78.11h-10.564m10.564 78.1h-10.564m10.564 78.11h-10.564m10.564 78.1h-10.564m10.564 78.11h-10.564M350.321 44.986h-10.564m10.564 78.081h-10.564m10.564 78.122h-10.564m10.564 78.109h-10.564m10.564 78.108h-10.564m10.564 78.122h-10.564m10.564 78.082h-10.564m10.564 78.108h-10.564m10.564 78.122h-10.564m10.564 78.109h-10.564m10.564 78.095h-10.564m10.564 78.109h-10.564m10.564 78.108h-10.564m10.564 78.119h-10.564m10.564 78.11h-10.564m10.564 78.1h-10.564m10.564 78.11h-10.564m10.564 78.1h-10.564m10.564 78.11h-10.564m83.29-1405.924h-10.563m10.563 78.081h-10.563m10.563 78.122h-10.563m10.563 78.109h-10.563m10.563 78.108h-10.563m10.563 78.122h-10.563m10.563 78.082h-10.563m10.563 78.108h-10.563m10.563 78.122h-10.563m10.563 78.109h-10.563m10.563 78.095h-10.563m10.563 78.109h-10.563m10.563 78.108h-10.563m10.563 78.119h-10.563m10.563 78.11h-10.563m10.563 78.1h-10.563m10.563 78.11h-10.563m10.563 78.1h-10.563m10.563 78.11h-10.563M495.761 44.986h-10.563m10.563 78.081h-10.563m10.563 78.122h-10.563m10.563 78.109h-10.563m10.563 78.108h-10.563m10.563 78.122h-10.563m10.563 78.082h-10.563m10.563 78.108h-10.563m10.563 78.122h-10.563m10.563 78.109h-10.563m10.563 78.095h-10.563m10.563 78.109h-10.563m10.563 78.108h-10.563m10.563 78.119h-10.563m10.563 78.11h-10.563m10.563 78.1h-10.563m10.563 78.11h-10.563m10.563 78.1h-10.563m10.563 78.11h-10.563M568.475 44.986h-10.501m10.564 78.081h-10.564m10.564 78.122h-10.564m10.564 78.109h-10.564m10.564 78.108h-10.564m10.564 78.122h-10.564m10.564 78.082h-10.564m10.564 78.108h-10.564m10.564 78.122h-10.564m10.564 78.109h-10.564m10.564 78.095h-10.564m10.564 78.109h-10.564m10.564 78.108h-10.564m10.564 78.119h-10.564m10.564 78.11h-10.564m10.564 78.1h-10.564m10.564 78.11h-10.564m10.564 78.1h-10.564m10.564 78.11h-10.564M641.202 44.986h-10.564m10.564 78.081h-10.564m10.564 78.122h-10.564m10.564 78.109h-10.564m10.564 78.108h-10.564m10.564 78.122h-10.564m10.564 78.082h-10.564m10.564 78.108h-10.564m10.564 78.122h-10.564m10.564 78.109h-10.564m10.564 78.095h-10.564m10.564 78.109h-10.564m10.564 78.108h-10.564m10.564 78.119h-10.564m10.564 78.11h-10.564m10.564 78.1h-10.564m10.564 78.11h-10.564m10.564 78.1h-10.564m10.564 78.11h-10.564M713.916 44.986h-10.564m10.564 78.081h-10.564m10.564 78.122h-10.564m10.564 78.109h-10.564m10.564 78.108h-10.564m10.564 78.122h-10.564m10.564 78.082h-10.564m10.564 78.108h-10.564m10.564 78.122h-10.564m10.564 78.109h-10.564m10.564 78.095h-10.564m10.564 78.109h-10.564m10.564 78.135h-10.564m10.564 78.092h-10.564m10.564 78.11h-10.564m10.564 78.1h-10.564m10.564 78.11h-10.564m10.564 78.06h-10.564m10.564 78.11h-10.564M786.63 44.986h-10.564m10.564 78.081h-10.564m10.564 78.122h-10.564m10.564 78.109h-10.564m10.564 78.108h-10.564m10.564 78.122h-10.564m10.564 78.082h-10.564m10.564 78.108h-10.564m10.564 78.122h-10.564m10.564 78.109h-10.564m10.564 78.095h-10.564m10.564 78.109h-10.564m10.564 78.108h-10.564m10.564 78.119h-10.564m10.564 78.11h-10.564m10.564 78.1h-10.564m10.564 78.11h-10.564m10.564 78.1h-10.564m10.564 78.11h-10.564" stroke="#939598" stroke-width=".83"/></g><defs><clipPath id="a"><path fill="#fff" transform="translate(-602 .223)" d="M0 0h960v727H0z"/></clipPath></defs></svg>