<svg width="320" height="570" viewBox="0 0 320 570" fill="none" xmlns="http://www.w3.org/2000/svg">
<g clip-path="url(#clip0_60_319)">
<path d="M-710.718 1367.91V1379.25M-710.718 1446.02V1457.3V1446.03M-638.004 39.9703V51.3198M-638.004 118.079V129.442M-638.004 196.187V207.523M-638.004 274.309V285.74M-638.004 352.513V363.849M-638.004 430.594V441.957M-638.004 508.716V520.066M-638.004 586.825V598.161M-638.004 664.947V676.269M-638.004 743.028V754.391M-638.004 821.15V832.5V821.137M-638.004 899.259V910.608M-638.004 977.367V988.703M-638.004 1055.48V1066.83M-638.004 1133.58V1144.95M-638.004 1211.69V1223.06M-638.004 1289.8V1301.14M-638.004 1367.92V1379.26M-638.004 1446.03V1457.3M-565.328 40.0649V51.4144M-565.328 118.173V129.536M-565.328 196.282V207.618M-565.328 274.404V285.74M-565.328 352.513V363.849M-565.328 430.594V441.957M-565.328 508.716V520.066M-565.328 586.825V598.161M-565.328 664.947V676.269M-565.328 743.028V754.391M-565.328 821.15V832.5V821.137M-565.328 899.286V910.635M-565.328 977.394V988.73M-565.328 1055.5V1066.83M-565.328 1133.58V1144.95M-565.328 1211.69V1223.06M-565.328 1289.8V1301.14M-565.328 1367.92V1379.26M-565.328 1446.03V1457.3M-492.614 39.9703V51.3198M-492.614 118.079V129.442M-492.614 196.187V207.523M-492.614 274.309V285.74M-492.614 352.513V363.849M-492.614 430.594V441.957M-492.614 508.716V520.066M-492.614 586.825V598.161M-492.614 664.947V676.269M-492.614 743.028V754.391M-492.614 821.15V832.5V821.137M-492.614 899.259V910.608M-492.614 977.367V988.703M-492.614 1055.48V1066.83M-492.614 1133.58V1144.95M-492.614 1211.69V1223.06M-492.614 1289.8V1301.14M-492.614 1367.92V1379.26M-492.614 1446.03V1457.3M-419.9 39.9703V51.3198M-419.9 118.079V129.442M-419.9 196.187V207.523M-419.9 274.309V285.74M-419.9 352.513V363.849M-419.9 430.594V441.957M-419.9 508.716V520.066M-419.9 586.825V598.161M-419.9 664.947V676.269M-419.9 743.028V754.391M-419.9 821.15V832.5V821.137M-419.9 899.259V910.608M-419.9 977.367V988.703M-419.9 1055.48V1066.83M-419.9 1133.58V1144.95M-419.9 1211.69V1223.06M-419.9 1289.8V1301.14M-419.9 1367.92V1379.26M-419.9 1446.03V1457.3M-347.173 39.9703V51.3198M-347.173 118.079V129.442M-347.173 196.187V207.523M-347.173 274.309V285.74M-347.173 352.513V363.849M-347.173 430.594V441.957M-347.173 508.716V520.066M-347.173 586.825V598.161M-347.173 664.947V676.269M-347.173 743.028V754.391M-347.173 821.15V832.5V821.137M-347.173 899.259V910.608M-347.173 977.367V988.703M-347.173 1055.48V1066.83M-347.173 1133.58V1144.95M-347.173 1211.69V1223.06M-347.173 1289.8V1301.14M-347.173 1367.92V1379.26M-347.173 1446.03V1457.3M-274.459 39.9703V51.3198M-274.459 118.079V129.442M-274.459 196.187V207.523M-274.459 274.309V285.74M-274.459 352.513V363.849M-274.459 430.594V441.957M-274.459 508.716V520.066M-274.459 586.825V598.161M-274.459 664.947V676.269M-274.459 743.028V754.391M-274.459 821.15V832.5M-274.459 899.259V910.608M-274.459 977.367V988.703M-274.459 1055.48V1066.83M-274.459 1133.58V1144.95M-274.459 1211.69V1223.06M-274.459 1289.8V1301.14M-274.459 1367.92V1379.26M-274.459 1446.03V1457.3M-201.745 39.9703V51.3198M-201.745 118.079V129.442M-201.745 196.187V207.523M-201.745 274.309V285.74M-201.745 352.513V363.849M-201.745 430.594V441.957M-201.745 508.716V520.066M-201.745 586.825V598.161M-201.745 664.947V676.269M-201.745 743.028V754.391M-201.745 821.15V832.5M-201.745 899.259V910.608M-201.745 977.367V988.703M-201.745 1055.48V1066.83M-201.745 1133.58V1144.95M-201.745 1211.69V1223.06M-201.745 1289.8V1301.14M-201.745 1367.92V1379.26M-201.745 1446.03V1457.3M-128.943 40.0649V51.4144M-128.943 118.173V129.536M-128.943 196.282V207.618M-128.943 274.404V285.74V274.391M-128.943 352.513V363.849M-128.943 430.594V441.957V430.608M-128.943 508.716V520.066M-128.943 586.825V598.161M-128.943 664.947V676.269M-128.943 743.028V754.391M-128.943 821.15V832.5V821.137M-128.943 899.286V910.635M-128.943 977.394V988.73M-128.943 1055.5V1066.83M-128.943 1133.58V1144.95M-128.943 1211.69V1223.06M-128.943 1289.8V1301.14M-128.943 1367.92V1379.26M-128.943 1446.03V1457.3V1445.98M-56.2293 39.9703V51.3198M-56.2293 118.079V129.442M-56.2293 196.187V207.523M-56.2293 274.309V285.74M-56.2293 352.513V363.849M-56.2293 430.594V441.957M-56.2293 508.716V520.066M-56.2293 586.825V598.161M-56.2293 664.947V676.269M-56.2293 743.028V754.391M-56.2293 821.15V832.5M-56.2293 899.259V910.608M-56.2293 977.367V988.703M-56.2293 1055.48V1066.83V1055.38M-56.2293 1133.58V1144.95M-56.2293 1211.69V1223.06M-56.2293 1289.8V1301.14V1289.81M-56.2293 1367.92V1379.26M-56.2293 1446.03V1457.3M16.4847 39.9703V51.3198M16.4847 118.079V129.442M16.4847 196.187V207.523M16.4847 274.309V285.74M16.4847 352.513V363.849M16.4847 430.594V441.957M16.4847 508.716V520.066M16.4847 586.825V598.161M16.4847 664.947V676.269M16.4847 743.028V754.391M16.4847 821.15V832.5M16.4847 899.259V910.608M16.4847 977.367V988.703M16.4847 1055.48V1066.83V1055.38M16.4847 1133.58V1144.95M16.4847 1211.69V1223.06M16.4847 1289.8V1301.14V1289.81M16.4847 1367.92V1379.26M16.4847 1446.03V1457.3M-710.718 40.0649V51.4144M-710.718 118.173V129.536M-710.718 196.282V207.618M-710.718 274.404V285.74M-710.718 352.513V363.849M-710.718 430.594V441.957M-710.718 508.716V520.066M-710.718 586.825V598.161M-710.718 664.947V676.269M-710.718 743.028V754.391M-710.718 821.137V832.5M-710.718 899.259V910.608M-710.718 977.367V988.703M-710.718 1055.48V1066.83M-710.718 1133.58V1144.95M-710.718 1211.69V1223.06M-710.718 1289.8V1301.14M-710.718 1367.92V1379.26M-347.123 1446.02V1457.3M-274.409 39.9703V51.3198M-274.409 118.079V129.442M-274.409 196.187V207.523M-274.409 274.296V285.645M-274.409 352.418V363.754M-274.409 430.513V441.863M-274.409 508.622V519.971M-274.409 586.73V598.066M-274.409 664.852V676.175M-274.409 742.934V754.297M-274.409 821.042V832.405M-274.409 899.164V910.514M-274.409 977.273V988.609M-274.409 1055.38V1066.83M-274.409 1133.58V1144.95M-274.409 1211.69V1223.06M-274.409 1289.81V1301.14M-274.409 1367.92V1379.26M-274.409 1446.03V1457.3M-201.695 39.9703V51.3198M-201.695 118.079V129.442M-201.695 196.187V207.523M-201.695 274.296V285.645M-201.695 352.418V363.754M-201.695 430.513V441.863M-201.695 508.622V519.971M-201.695 586.73V598.066M-201.695 664.852V676.175M-201.695 742.934V754.297M-201.695 821.042V832.405M-201.695 899.164V910.514M-201.695 977.273V988.609M-201.695 1055.38V1066.83M-201.695 1133.58V1144.95M-201.695 1211.69V1223.06M-201.695 1289.81V1301.14M-201.695 1367.92V1379.26M-201.695 1446.03V1457.3M-128.943 1289.76V1301.08M-128.943 1367.87V1379.21M-56.2293 274.296V285.645M-56.2293 352.418V363.754M-56.2293 430.513V441.863M-56.2293 508.622V519.971M-56.2293 586.73V598.066M-56.2293 664.852V676.175M-56.2293 742.934V754.297M-56.2293 821.042V832.405M-56.2293 899.164V910.514M-56.2293 977.273V988.609M16.4847 274.296V285.645M16.4847 352.418V363.754M16.4847 430.513V441.863M16.4847 508.622V519.971M16.4847 586.73V598.066M16.4847 664.852V676.175M16.4847 742.934V754.297M16.4847 821.042V832.405M16.4847 899.164V910.514M16.4847 977.273V988.609M-705.436 45.7532H-716M-705.436 123.835H-716M-705.436 201.957H-716M-705.436 280.065H-716M-705.436 358.174H-716M-705.436 436.296H-716M-705.436 514.377H-716M-705.436 592.486H-716M-705.436 670.608H-716M-705.436 748.717H-716M-705.436 826.812H-716M-705.436 904.92H-716M-705.436 983.056H-716M-705.436 1061.18H-716M-705.436 1139.29H-716M-705.436 1217.38H-716M-705.436 1295.49H-716M-705.436 1373.53H-716M-705.436 1451.64H-716M-632.722 45.7532H-643.299M-632.747 123.835H-643.299M-632.747 201.957H-643.299M-632.722 280.065H-643.299M-632.747 358.174H-643.299M-632.747 436.296H-643.299M-632.747 514.377H-643.299M-632.747 592.486H-643.299M-632.747 670.608H-643.299M-632.747 748.717H-643.299M-632.747 826.812H-643.299M-632.747 904.92H-643.299M-632.722 983.056H-643.299M-632.747 1061.18H-643.299M-632.747 1139.29H-643.299M-632.747 1217.38H-643.299M-632.747 1295.49H-643.299M-632.722 1373.53H-643.299M-632.747 1451.64H-643.299M-560.008 45.7532H-570.559M-560.008 123.835H-570.559M-560.008 201.957H-570.559M-560.008 280.065H-570.559M-560.008 358.174H-570.559M-560.008 436.296H-570.559M-560.008 514.377H-570.559M-560.008 592.486H-570.559M-560.008 670.608H-570.559M-560.008 748.717H-570.559M-560.008 826.812H-570.559M-560.008 904.92H-570.559M-560.008 983.056H-570.559M-560.008 1061.18H-570.559M-560.008 1139.29H-570.559M-560.008 1217.38H-570.559M-560.008 1295.49H-570.559M-560.008 1373.53H-570.559M-560.008 1451.64H-570.559M-487.282 45.7532H-497.845M-487.282 123.835H-497.845M-487.282 201.957H-497.845M-487.282 280.065H-497.845M-487.282 358.174H-497.845M-487.282 436.296H-497.845M-487.282 514.377H-497.845M-487.282 592.486H-497.845M-487.282 670.608H-497.845M-487.282 748.717H-497.845M-487.282 826.812H-497.845M-487.282 904.92H-497.845M-487.282 983.029H-497.845M-487.282 1061.15H-497.845M-487.282 1139.26H-497.845M-487.282 1217.35H-497.845M-487.282 1295.46H-497.845M-487.282 1373.57H-497.845M-487.282 1451.68H-497.845M-414.568 45.7532H-425.131M-414.568 123.835H-425.131M-414.568 201.957H-425.131M-414.568 280.065H-425.131M-414.568 358.174H-425.131M-414.568 436.296H-425.131M-414.568 514.377H-425.131M-414.568 592.486H-425.131M-414.568 670.608H-425.131M-414.568 748.717H-425.131M-414.568 826.812H-425.131M-414.568 904.92H-425.131M-414.568 983.029H-425.131M-414.568 1061.15H-425.131M-414.568 1139.26H-425.131M-414.568 1217.35H-425.131M-414.568 1295.46H-425.131M-414.568 1373.57H-425.131M-414.568 1451.68H-425.131M-341.841 45.7532H-352.405M-341.841 123.835H-352.405M-341.841 201.957H-352.405M-341.841 280.065H-352.405M-341.841 358.174H-352.405M-341.841 436.296H-352.405M-341.841 514.377H-352.405M-341.841 592.486H-352.405M-341.841 670.608H-352.405M-341.841 748.717H-352.405M-341.841 826.812H-352.405M-341.841 904.92H-352.405M-341.841 983.029H-352.405M-341.841 1061.15H-352.405M-341.841 1139.26H-352.405M-341.841 1217.35H-352.405M-341.841 1295.46H-352.405M-341.841 1373.57H-352.405M-341.841 1451.68H-352.405M-269.127 45.7532H-279.691M-269.127 123.835H-279.691M-269.127 201.957H-279.691M-269.127 280.065H-279.691M-269.127 358.174H-279.691M-269.127 436.296H-279.691M-269.127 514.377H-279.691M-269.127 592.486H-279.691M-269.127 670.608H-279.691M-269.127 748.717H-279.691M-269.127 826.812H-279.691M-269.127 904.92H-279.691M-269.127 983.029H-279.691M-269.127 1061.15H-279.691M-269.127 1139.26H-279.691M-269.127 1217.35H-279.691M-269.127 1295.46H-279.691M-269.127 1373.57H-279.691M-269.127 1451.68H-279.691M-196.413 45.7532H-206.914M-196.35 123.835H-206.914M-196.35 201.957H-206.914M-196.35 280.065H-206.914M-196.35 358.174H-206.914M-196.35 436.296H-206.914M-196.35 514.377H-206.914M-196.35 592.486H-206.914M-196.35 670.608H-206.914M-196.35 748.717H-206.914M-196.35 826.812H-206.914M-196.35 904.92H-206.914M-196.35 983.029H-206.914M-196.35 1061.15H-206.914M-196.35 1139.26H-206.914M-196.35 1217.35H-206.914M-196.35 1295.46H-206.914M-196.35 1373.57H-206.914M-196.35 1451.68H-206.914M-123.687 45.7532H-134.25M-123.687 123.835H-134.25M-123.687 201.957H-134.25M-123.687 280.065H-134.25M-123.687 358.174H-134.25M-123.687 436.296H-134.25M-123.687 514.377H-134.25M-123.687 592.486H-134.25M-123.687 670.608H-134.25M-123.687 748.717H-134.25M-123.687 826.812H-134.25M-123.687 904.92H-134.25M-123.687 983.029H-134.25M-123.687 1061.15H-134.25M-123.687 1139.26H-134.25M-123.687 1217.35H-134.25M-123.687 1295.46H-134.25M-123.687 1373.57H-134.25M-123.687 1451.68H-134.25M-50.9725 45.7532H-61.5364M-50.9725 123.835H-61.5364M-50.9725 201.957H-61.5364M-50.9725 280.065H-61.5364M-50.9725 358.174H-61.5364M-50.9725 436.296H-61.5364M-50.9725 514.377H-61.5364M-50.9725 592.486H-61.5364M-50.9725 670.608H-61.5364M-50.9725 748.717H-61.5364M-50.9725 826.812H-61.5364M-50.9725 904.92H-61.5364M-50.9725 983.056H-61.5364M-50.9725 1061.15H-61.5364M-50.9725 1139.26H-61.5364M-50.9725 1217.35H-61.5364M-50.9725 1295.46H-61.5364M-50.9725 1373.53H-61.5364M-50.9725 1451.64H-61.5364M21.7415 45.7532H11.1777M21.7415 123.835H11.1777M21.7415 201.957H11.1777M21.7415 280.065H11.1777M21.7415 358.174H11.1777M21.7415 436.296H11.1777M21.7415 514.377H11.1777M21.7415 592.486H11.1777M21.7415 670.608H11.1777M21.7415 748.717H11.1777M21.7415 826.812H11.1777M21.7415 904.92H11.1777M21.7415 983.029H11.1777M21.7415 1061.15H11.1777M21.7415 1139.26H11.1777M21.7415 1217.35H11.1777M21.7415 1295.46H11.1777M21.7415 1373.57H11.1777M21.7415 1451.68H11.1777M88.8844 39.9703V51.3198M88.8844 118.079V129.442M88.8844 196.187V207.523M88.8844 274.309V285.74M88.8844 352.513V363.849M88.8844 430.594V441.957M88.8844 508.716V520.066M88.8844 586.825V598.161M88.8844 664.947V676.269M88.8844 743.028V754.391M88.8844 821.15V832.5V821.137M88.8844 899.259V910.608M88.8844 977.367V988.703M88.8844 1055.48V1066.83M88.8844 1133.58V1144.95M88.8844 1211.69V1223.06M88.8844 1289.8V1301.14M88.8844 1367.92V1379.26M88.8844 1446.03V1457.3M161.561 40.0649V51.4144M161.561 118.173V129.536M161.561 196.282V207.618M161.561 274.404V285.74M161.561 352.513V363.849M161.561 430.594V441.957M161.561 508.716V520.066M161.561 586.825V598.161M161.561 664.947V676.269M161.561 743.028V754.391M161.561 821.15V832.5V821.137M161.561 899.286V910.635M161.561 977.394V988.73M161.561 1055.5V1066.83M161.561 1133.58V1144.95M161.561 1211.69V1223.06M161.561 1289.8V1301.14M161.561 1367.92V1379.26M161.561 1446.03V1457.3M234.275 39.9703V51.3198M234.275 118.079V129.442M234.275 196.187V207.523M234.275 274.309V285.74M234.275 352.513V363.849M234.275 430.594V441.957M234.275 508.716V520.066M234.275 586.825V598.161M234.275 664.947V676.269M234.275 743.028V754.391M234.275 821.15V832.5V821.137M234.275 899.259V910.608M234.275 977.367V988.703M234.275 1055.48V1066.83M234.275 1133.58V1144.95M234.275 1211.69V1223.06M234.275 1289.8V1301.14M234.275 1367.92V1379.26M234.275 1446.03V1457.3M306.989 39.9703V51.3198M306.989 118.079V129.442M306.989 196.187V207.523M306.989 274.309V285.74M306.989 352.513V363.849M306.989 430.594V441.957M306.989 508.716V520.066M306.989 586.825V598.161M306.989 664.947V676.269M306.989 743.028V754.391M306.989 821.15V832.5V821.137M306.989 899.259V910.608M306.989 977.367V988.703M306.989 1055.48V1066.83M306.989 1133.58V1144.95M306.989 1211.69V1223.06M306.989 1289.8V1301.14M306.989 1367.92V1379.26M306.989 1446.03V1457.3M379.715 39.9703V51.3198M379.715 118.079V129.442M379.715 196.187V207.523M379.715 274.309V285.74M379.715 352.513V363.849M379.715 430.594V441.957M379.715 508.716V520.066M379.715 586.825V598.161M379.715 664.947V676.269M379.715 743.028V754.391M379.715 821.15V832.5V821.137M379.715 899.259V910.608M379.715 977.367V988.703M379.715 1055.48V1066.83M379.715 1133.58V1144.95M379.715 1211.69V1223.06M379.715 1289.8V1301.14M379.715 1367.92V1379.26M379.715 1446.03V1457.3M452.429 39.9703V51.3198M452.429 118.079V129.442M452.429 196.187V207.523M452.429 274.309V285.74M452.429 352.513V363.849M452.429 430.594V441.957M452.429 508.716V520.066M452.429 586.825V598.161M452.429 664.947V676.269M452.429 743.028V754.391M452.429 821.15V832.5M452.429 899.259V910.608M452.429 977.367V988.703M452.429 1055.48V1066.83M452.429 1133.58V1144.95M452.429 1211.69V1223.06M452.429 1289.8V1301.14M452.429 1367.92V1379.26M452.429 1446.03V1457.3M525.143 39.9703V51.3198M525.143 118.079V129.442M525.143 196.187V207.523M525.143 274.309V285.74M525.143 352.513V363.849M525.143 430.594V441.957M525.143 508.716V520.066M525.143 586.825V598.161M525.143 664.947V676.269M525.143 743.028V754.391M525.143 821.15V832.5M525.143 899.259V910.608M525.143 977.367V988.703M525.143 1055.48V1066.83M525.143 1133.58V1144.95M525.143 1211.69V1223.06M525.143 1289.8V1301.14M525.143 1367.92V1379.26M525.143 1446.03V1457.3M597.945 40.0649V51.4144M597.945 118.173V129.536M597.945 196.282V207.618M597.945 274.404V285.74V274.391M597.945 352.513V363.849M597.945 430.594V441.957V430.608M597.945 508.716V520.066M597.945 586.825V598.161M597.945 664.947V676.269M597.945 743.028V754.391M597.945 821.15V832.5V821.137M597.945 899.286V910.635M597.945 977.394V988.73M597.945 1055.5V1066.83M597.945 1133.58V1144.95M597.945 1211.69V1223.06M597.945 1289.8V1301.14M597.945 1367.92V1379.26M597.945 1446.03V1457.3V1445.98M670.659 39.9703V51.3198M670.659 118.079V129.442M670.659 196.187V207.523M670.659 274.309V285.74M670.659 352.513V363.849M670.659 430.594V441.957M670.659 508.716V520.066M670.659 586.825V598.161M670.659 664.947V676.269M670.659 743.028V754.391M670.659 821.15V832.5M670.659 899.259V910.608M670.659 977.367V988.703M670.659 1055.48V1066.83V1055.38M670.659 1133.58V1144.95M670.659 1211.69V1223.06M670.659 1289.8V1301.14V1289.81M670.659 1367.92V1379.26M670.659 1446.03V1457.3M743.373 39.9703V51.3198M743.373 118.079V129.442M743.373 196.187V207.523M743.373 274.309V285.74M743.373 352.513V363.849M743.373 430.594V441.957M743.373 508.716V520.066M743.373 586.825V598.161M743.373 664.947V676.269M743.373 743.028V754.391M743.373 821.15V832.5M743.373 899.259V910.608M743.373 977.367V988.703M743.373 1055.48V1066.83V1055.38M743.373 1133.58V1144.95M743.373 1211.69V1223.06M743.373 1289.8V1301.14V1289.81M743.373 1367.92V1379.26M743.373 1446.03V1457.3M379.766 1446.02V1457.3M452.479 39.9703V51.3198M452.479 118.079V129.442M452.479 196.187V207.523M452.479 274.296V285.645M452.479 352.418V363.754M452.479 430.513V441.863M452.479 508.622V519.971M452.479 586.73V598.066M452.479 664.852V676.175M452.479 742.934V754.297M452.479 821.042V832.405M452.479 899.164V910.514M452.479 977.273V988.609M452.479 1055.38V1066.83M452.479 1133.58V1144.95M452.479 1211.69V1223.06M452.479 1289.81V1301.14M452.479 1367.92V1379.26M452.479 1446.03V1457.3M525.194 39.9703V51.3198M525.194 118.079V129.442M525.194 196.187V207.523M525.194 274.296V285.645M525.194 352.418V363.754M525.194 430.513V441.863M525.194 508.622V519.971M525.194 586.73V598.066M525.194 664.852V676.175M525.194 742.934V754.297M525.194 821.042V832.405M525.194 899.164V910.514M525.194 977.273V988.609M525.194 1055.38V1066.83M525.194 1133.58V1144.95M525.194 1211.69V1223.06M525.194 1289.81V1301.14M525.194 1367.92V1379.26M525.194 1446.03V1457.3M597.945 1289.76V1301.08M597.945 1367.87V1379.21M670.659 274.296V285.645M670.659 352.418V363.754M670.659 430.513V441.863M670.659 508.622V519.971M670.659 586.73V598.066M670.659 664.852V676.175M670.659 742.934V754.297M670.659 821.042V832.405M670.659 899.164V910.514M670.659 977.273V988.609M743.373 274.296V285.645M743.373 352.418V363.754M743.373 430.513V441.863M743.373 508.622V519.971M743.373 586.73V598.066M743.373 664.852V676.175M743.373 742.934V754.297M743.373 821.042V832.405M743.373 899.164V910.514M743.373 977.273V988.609M94.1663 45.7532H83.5899M94.1411 123.835H83.5899M94.1411 201.957H83.5899M94.1663 280.065H83.5899M94.1411 358.174H83.5899M94.1411 436.296H83.5899M94.1411 514.377H83.5899M94.1411 592.486H83.5899M94.1411 670.608H83.5899M94.1411 748.717H83.5899M94.1411 826.812H83.5899M94.1411 904.92H83.5899M94.1663 983.056H83.5899M94.1411 1061.18H83.5899M94.1411 1139.29H83.5899M94.1411 1217.38H83.5899M94.1411 1295.49H83.5899M94.1663 1373.53H83.5899M94.1411 1451.64H83.5899M166.88 45.7532H156.329M166.88 123.835H156.329M166.88 201.957H156.329M166.88 280.065H156.329M166.88 358.174H156.329M166.88 436.296H156.329M166.88 514.377H156.329M166.88 592.486H156.329M166.88 670.608H156.329M166.88 748.717H156.329M166.88 826.812H156.329M166.88 904.92H156.329M166.88 983.056H156.329M166.88 1061.18H156.329M166.88 1139.29H156.329M166.88 1217.38H156.329M166.88 1295.49H156.329M166.88 1373.53H156.329M166.88 1451.64H156.329M239.607 45.7532H229.043M239.607 123.835H229.043M239.607 201.957H229.043M239.607 280.065H229.043M239.607 358.174H229.043M239.607 436.296H229.043M239.607 514.377H229.043M239.607 592.486H229.043M239.607 670.608H229.043M239.607 748.717H229.043M239.607 826.812H229.043M239.607 904.92H229.043M239.607 983.029H229.043M239.607 1061.15H229.043M239.607 1139.26H229.043M239.607 1217.35H229.043M239.607 1295.46H229.043M239.607 1373.57H229.043M239.607 1451.68H229.043M312.321 45.7532H301.757M312.321 123.835H301.757M312.321 201.957H301.757M312.321 280.065H301.757M312.321 358.174H301.757M312.321 436.296H301.757M312.321 514.377H301.757M312.321 592.486H301.757M312.321 670.608H301.757M312.321 748.717H301.757M312.321 826.812H301.757M312.321 904.92H301.757M312.321 983.029H301.757M312.321 1061.15H301.757M312.321 1139.26H301.757M312.321 1217.35H301.757M312.321 1295.46H301.757M312.321 1373.57H301.757M312.321 1451.68H301.757M385.047 45.7532H374.484M385.047 123.835H374.484M385.047 201.957H374.484M385.047 280.065H374.484M385.047 358.174H374.484M385.047 436.296H374.484M385.047 514.377H374.484M385.047 592.486H374.484M385.047 670.608H374.484M385.047 748.717H374.484M385.047 826.812H374.484M385.047 904.92H374.484M385.047 983.029H374.484M385.047 1061.15H374.484M385.047 1139.26H374.484M385.047 1217.35H374.484M385.047 1295.46H374.484M385.047 1373.57H374.484M385.047 1451.68H374.484M457.761 45.7532H447.198M457.761 123.835H447.198M457.761 201.957H447.198M457.761 280.065H447.198M457.761 358.174H447.198M457.761 436.296H447.198M457.761 514.377H447.198M457.761 592.486H447.198M457.761 670.608H447.198M457.761 748.717H447.198M457.761 826.812H447.198M457.761 904.92H447.198M457.761 983.029H447.198M457.761 1061.15H447.198M457.761 1139.26H447.198M457.761 1217.35H447.198M457.761 1295.46H447.198M457.761 1373.57H447.198M457.761 1451.68H447.198M530.475 45.7532H519.974M530.538 123.835H519.974M530.538 201.957H519.974M530.538 280.065H519.974M530.538 358.174H519.974M530.538 436.296H519.974M530.538 514.377H519.974M530.538 592.486H519.974M530.538 670.608H519.974M530.538 748.717H519.974M530.538 826.812H519.974M530.538 904.92H519.974M530.538 983.029H519.974M530.538 1061.15H519.974M530.538 1139.26H519.974M530.538 1217.35H519.974M530.538 1295.46H519.974M530.538 1373.57H519.974M530.538 1451.68H519.974M603.202 45.7532H592.638M603.202 123.835H592.638M603.202 201.957H592.638M603.202 280.065H592.638M603.202 358.174H592.638M603.202 436.296H592.638M603.202 514.377H592.638M603.202 592.486H592.638M603.202 670.608H592.638M603.202 748.717H592.638M603.202 826.812H592.638M603.202 904.92H592.638M603.202 983.029H592.638M603.202 1061.15H592.638M603.202 1139.26H592.638M603.202 1217.35H592.638M603.202 1295.46H592.638M603.202 1373.57H592.638M603.202 1451.68H592.638M675.916 45.7532H665.352M675.916 123.835H665.352M675.916 201.957H665.352M675.916 280.065H665.352M675.916 358.174H665.352M675.916 436.296H665.352M675.916 514.377H665.352M675.916 592.486H665.352M675.916 670.608H665.352M675.916 748.717H665.352M675.916 826.812H665.352M675.916 904.92H665.352M675.916 983.056H665.352M675.916 1061.15H665.352M675.916 1139.26H665.352M675.916 1217.35H665.352M675.916 1295.46H665.352M675.916 1373.53H665.352M675.916 1451.64H665.352M748.63 45.7532H738.066M748.63 123.835H738.066M748.63 201.957H738.066M748.63 280.065H738.066M748.63 358.174H738.066M748.63 436.296H738.066M748.63 514.377H738.066M748.63 592.486H738.066M748.63 670.608H738.066M748.63 748.717H738.066M748.63 826.812H738.066M748.63 904.92H738.066M748.63 983.029H738.066M748.63 1061.15H738.066M748.63 1139.26H738.066M748.63 1217.35H738.066M748.63 1295.46H738.066M748.63 1373.57H738.066M748.63 1451.68H738.066" stroke="#939598" stroke-width="0.83"/>
</g>
<defs>
<clipPath id="clip0_60_319">
<rect width="960" height="569" fill="white" transform="translate(-640 0.990601)"/>
</clipPath>
</defs>
</svg>
