<svg width="550" height="874" fill="none" xmlns="http://www.w3.org/2000/svg"><g clip-path="url(#a)"><path d="M-199.626 1276.31v11.34m0 66.77v11.28-11.27m72.714-1406.057v11.349m0 66.76v11.362m0 66.746v11.336m0 66.786v11.43m0 66.773v11.336m0 66.745v11.363m0 66.759v11.35m0 66.759v11.336m0 66.786v11.322m0 66.759v11.363m0 66.76v11.349-11.363m0 78.122v11.349m0 66.76v11.336m0 66.772v11.35m0 66.762v11.36m0 66.75v11.36m0 66.74v11.34m0 66.79v11.33m0 66.77v11.27M-54.236-51.533v11.35m0 66.759v11.363m0 66.745v11.336m0 66.786v11.336m0 66.773v11.336m0 66.745v11.363m0 66.759v11.35m0 66.759v11.336m0 66.786v11.322m0 66.759v11.363m0 66.76v11.349-11.363m0 78.149v11.35m0 66.759v11.336m0 66.772v11.323m0 66.762v11.36m0 66.75v11.36m0 66.74v11.34m0 66.79v11.33m0 66.77v11.27M18.478-51.627v11.349m0 66.76v11.362m0 66.746v11.336m0 66.786v11.43m0 66.773v11.336m0 66.745v11.363m0 66.759v11.35m0 66.759v11.336m0 66.786v11.322m0 66.759v11.363m0 66.76v11.349-11.363m0 78.122v11.349m0 66.76v11.336m0 66.772v11.35m0 66.762v11.36m0 66.75v11.36m0 66.74v11.34m0 66.79v11.33m0 66.77v11.27M91.192-51.627v11.349m0 66.76v11.362m0 66.746v11.336m0 66.786v11.43m0 66.773v11.336m0 66.745v11.363m0 66.759v11.35m0 66.759v11.336m0 66.786v11.322m0 66.759v11.363m0 66.76v11.349-11.363m0 78.122v11.349m0 66.76v11.336m0 66.772v11.35m0 66.762v11.36m0 66.75v11.36m0 66.74v11.34m0 66.79v11.33m0 66.77v11.27M163.919-51.627v11.349m0 66.76v11.362m0 66.746v11.336m0 66.786v11.43m0 66.773v11.336m0 66.745v11.363m0 66.759v11.35m0 66.759v11.336m0 66.786v11.322m0 66.759v11.363m0 66.76v11.349-11.363m0 78.122v11.349m0 66.76v11.336m0 66.772v11.35m0 66.762v11.36m0 66.75v11.36m0 66.74v11.34m0 66.79v11.33m0 66.77v11.27M236.633-51.627v11.349m0 66.76v11.362m0 66.746v11.336m0 66.786v11.43m0 66.773v11.336m0 66.745v11.363m0 66.759v11.35m0 66.759v11.336m0 66.786v11.322m0 66.759v11.363m0 66.76v11.349m0 66.759v11.349m0 66.76v11.336m0 66.772v11.35m0 66.762v11.36m0 66.75v11.36m0 66.74v11.34m0 66.79v11.33m0 66.77v11.27M309.346-51.627v11.349m0 66.76v11.362m0 66.746v11.336m0 66.786v11.43m0 66.773v11.336m0 66.745v11.363m0 66.759v11.35m0 66.759v11.336m0 66.786v11.322m0 66.759v11.363m0 66.76v11.349m0 66.759v11.349m0 66.76v11.336m0 66.772v11.35m0 66.762v11.36m0 66.75v11.36m0 66.74v11.34m0 66.79v11.33m0 66.77v11.27M382.149-51.533v11.35m0 66.759v11.363m0 66.745v11.336m0 66.786v11.336-11.349m0 78.122v11.336m0 66.745v11.363-11.349m0 78.108v11.35m0 66.759v11.336m0 66.786v11.322m0 66.759v11.363m0 66.76v11.349-11.363m0 78.149v11.35m0 66.759v11.336m0 66.772v11.323m0 66.762v11.36m0 66.75v11.36m0 66.74v11.34m0 66.79v11.33m0 66.77v11.27-11.32M454.863-51.627v11.349m0 66.76v11.362m0 66.746v11.336m0 66.786v11.43m0 66.773v11.336m0 66.745v11.363m0 66.759v11.35m0 66.759v11.336m0 66.786v11.322m0 66.759v11.363m0 66.76v11.349m0 66.759v11.349m0 66.76v11.336m0 66.772v11.35-11.444m0 78.206v11.36m0 66.75v11.36m0 66.74v11.34-11.32m0 78.11v11.33m0 66.77v11.27M527.577-51.627v11.349m0 66.76v11.362m0 66.746v11.336m0 66.786v11.43m0 66.773v11.336m0 66.745v11.363m0 66.759v11.35m0 66.759v11.336m0 66.786v11.322m0 66.759v11.363m0 66.76v11.349m0 66.759v11.349m0 66.76v11.336m0 66.772v11.35-11.444m0 78.206v11.36m0 66.75v11.36m0 66.74v11.34-11.32m0 78.11v11.33m0 66.77v11.27M-199.626-51.533v11.35m0 66.759v11.363m0 66.745v11.336m0 66.786v11.336m0 66.773v11.336m0 66.745v11.363m0 66.759v11.35m0 66.759v11.336m0 66.786v11.322m0 66.759v11.363m0 66.746v11.363m0 66.759v11.349m0 66.76v11.336m0 66.772v11.35m0 66.762v11.36m0 66.75v11.36m0 66.74v11.34m0 66.79v11.33m363.595 66.76v11.28M236.683-51.627v11.349m0 66.76v11.362m0 66.746v11.336m0 66.772v11.35m0 66.772v11.336m0 66.759v11.35m0 66.759v11.349m0 66.759v11.336m0 66.786v11.323m0 66.759v11.363m0 66.745v11.363m0 66.759v11.35m0 66.759v11.336m0 66.773v11.444m0 66.762v11.36m0 66.75v11.36m0 66.76v11.32m0 66.79v11.33m0 66.77v11.27M309.397-51.627v11.349m0 66.76v11.362m0 66.746v11.336m0 66.772v11.35m0 66.772v11.336m0 66.759v11.35m0 66.759v11.349m0 66.759v11.336m0 66.786v11.323m0 66.759v11.363m0 66.745v11.363m0 66.759v11.35m0 66.759v11.336m0 66.773v11.444m0 66.762v11.36m0 66.75v11.36m0 66.76v11.32m0 66.79v11.33m0 66.77v11.27m72.752-167.54v11.33m0 66.78v11.34m72.714-1104.912v11.35m0 66.772v11.336m0 66.759v11.35m0 66.759v11.349m0 66.759v11.336m0 66.786v11.323m0 66.759v11.363m0 66.745v11.363m0 66.759v11.35m0 66.759v11.336m72.714-714.313v11.35m0 66.772v11.336m0 66.759v11.35m0 66.759v11.349m0 66.759v11.336m0 66.786v11.323m0 66.759v11.363m0 66.745v11.363m0 66.759v11.35m0 66.759v11.336M-194.344-45.845h-10.564m10.564 78.082h-10.564m10.564 78.122h-10.564m10.564 78.108h-10.564m10.564 78.109h-10.564m10.564 78.122h-10.564m10.564 78.082h-10.564m10.564 78.108h-10.564m10.564 78.122h-10.564m10.564 78.109h-10.564m10.564 78.095h-10.564m10.564 78.108h-10.564m10.564 78.136h-10.564m10.564 78.122h-10.564m10.564 78.11h-10.564m10.564 78.09h-10.564m10.564 78.11h-10.564m10.564 78.04h-10.564m10.564 78.11h-10.564M-121.63-45.845h-10.577m10.551 78.082h-10.551m10.551 78.122h-10.551m10.577 78.109h-10.577m10.551 78.108h-10.551m10.551 78.122h-10.551m10.551 78.082h-10.551m10.551 78.108h-10.551m10.551 78.122h-10.551m10.551 78.109h-10.551m10.551 78.095h-10.551m10.551 78.108h-10.551m10.577 78.136h-10.577m10.551 78.122h-10.551m10.551 78.11h-10.551m10.551 78.09h-10.551m10.551 78.11h-10.551m10.577 78.04h-10.577m10.551 78.11h-10.551m83.29-1405.885h-10.55m10.55 78.082h-10.55m10.55 78.122h-10.55m10.55 78.109h-10.55m10.55 78.108h-10.55m10.55 78.122h-10.55m10.55 78.082h-10.55m10.55 78.108h-10.55m10.55 78.122h-10.55m10.55 78.109h-10.55m10.55 78.095h-10.55m10.55 78.108h-10.55m10.55 78.136h-10.55m10.55 78.122h-10.55m10.55 78.11h-10.55m10.55 78.09h-10.55m10.55 78.11h-10.55m10.55 78.04h-10.55m10.55 78.11h-10.55M23.81-45.845H13.246M23.81 32.237H13.246m10.564 78.122H13.246m10.564 78.109H13.246m10.564 78.108H13.246m10.564 78.122H13.246M23.81 422.78H13.246m10.564 78.108H13.246M23.81 579.01H13.246m10.564 78.109H13.246m10.564 78.095H13.246m10.564 78.108H13.246m10.564 78.109H13.246m10.564 78.122H13.246m10.564 78.107H13.246m10.564 78.1H13.246m10.564 78.1H13.246m10.564 78.11H13.246m10.564 78.11H13.246M96.524-45.845H85.96m10.564 78.082H85.96m10.564 78.122H85.96m10.564 78.109H85.96m10.564 78.108H85.96m10.564 78.122H85.96m10.564 78.082H85.96m10.564 78.108H85.96m10.564 78.122H85.96m10.564 78.109H85.96m10.564 78.095H85.96m10.564 78.108H85.96m10.564 78.109H85.96m10.564 78.122H85.96m10.564 78.107H85.96m10.564 78.1H85.96m10.564 78.1H85.96m10.564 78.11H85.96m10.564 78.11H85.96M169.251-45.845h-10.564m10.564 78.082h-10.564m10.564 78.122h-10.564m10.564 78.109h-10.564m10.564 78.108h-10.564m10.564 78.122h-10.564m10.564 78.082h-10.564m10.564 78.108h-10.564m10.564 78.122h-10.564m10.564 78.109h-10.564m10.564 78.095h-10.564m10.564 78.108h-10.564m10.564 78.109h-10.564m10.564 78.122h-10.564m10.564 78.107h-10.564m10.564 78.1h-10.564m10.564 78.1h-10.564m10.564 78.11h-10.564m10.564 78.11h-10.564M241.965-45.845h-10.564m10.564 78.082h-10.564m10.564 78.122h-10.564m10.564 78.109h-10.564m10.564 78.108h-10.564m10.564 78.122h-10.564m10.564 78.082h-10.564m10.564 78.108h-10.564m10.564 78.122h-10.564m10.564 78.109h-10.564m10.564 78.095h-10.564m10.564 78.108h-10.564m10.564 78.109h-10.564m10.564 78.122h-10.564m10.564 78.107h-10.564m10.564 78.1h-10.564m10.564 78.1h-10.564m10.564 78.11h-10.564m10.564 78.11h-10.564M314.679-45.845h-10.501m10.564 78.082h-10.564m10.564 78.122h-10.564m10.564 78.109h-10.564m10.564 78.108h-10.564m10.564 78.122h-10.564m10.564 78.082h-10.564m10.564 78.108h-10.564m10.564 78.122h-10.564m10.564 78.109h-10.564m10.564 78.095h-10.564m10.564 78.108h-10.564m10.564 78.109h-10.564m10.564 78.122h-10.564m10.564 78.107h-10.564m10.564 78.1h-10.564m10.564 78.1h-10.564m10.564 78.11h-10.564m10.564 78.11h-10.564M387.405-45.845h-10.564m10.564 78.082h-10.564m10.564 78.122h-10.564m10.564 78.109h-10.564m10.564 78.108h-10.564m10.564 78.122h-10.564m10.564 78.082h-10.564m10.564 78.108h-10.564m10.564 78.122h-10.564m10.564 78.109h-10.564m10.564 78.095h-10.564m10.564 78.108h-10.564m10.564 78.109h-10.564m10.564 78.122h-10.564m10.564 78.107h-10.564m10.564 78.1h-10.564m10.564 78.1h-10.564m10.564 78.11h-10.564m10.564 78.11h-10.564M460.119-45.845h-10.564m10.564 78.082h-10.564m10.564 78.122h-10.564m10.564 78.109h-10.564m10.564 78.108h-10.564m10.564 78.122h-10.564m10.564 78.082h-10.564m10.564 78.108h-10.564m10.564 78.122h-10.564m10.564 78.109h-10.564m10.564 78.095h-10.564m10.564 78.108h-10.564m10.564 78.136h-10.564m10.564 78.095h-10.564m10.564 78.107h-10.564m10.564 78.1h-10.564m10.564 78.1h-10.564m10.564 78.07h-10.564m10.564 78.11h-10.564M532.833-45.845h-10.564m10.564 78.082h-10.564m10.564 78.122h-10.564m10.564 78.109h-10.564m10.564 78.108h-10.564m10.564 78.122h-10.564m10.564 78.082h-10.564m10.564 78.108h-10.564m10.564 78.122h-10.564m10.564 78.109h-10.564m10.564 78.095h-10.564m10.564 78.108h-10.564m10.564 78.109h-10.564m10.564 78.122h-10.564m10.564 78.107h-10.564m10.564 78.1h-10.564m10.564 78.1h-10.564m10.564 78.11h-10.564m10.564 78.11h-10.564M599.976-51.627v11.349m0 66.76v11.362m0 66.746v11.336m0 66.786v11.43m0 66.773v11.336m0 66.745v11.363m0 66.759v11.35m0 66.759v11.336m0 66.786v11.322m0 66.759v11.363m0 66.76v11.349-11.363m0 78.122v11.349m0 66.76v11.336m0 66.772v11.35m0 66.762v11.36m0 66.75v11.36m0 66.74v11.34m0 66.79v11.33m0 66.77v11.27M672.652-51.533v11.35m0 66.759v11.363m0 66.745v11.336m0 66.786v11.336m0 66.773v11.336m0 66.745v11.363m0 66.759v11.35m0 66.759v11.336m0 66.786v11.322m0 66.759v11.363m0 66.76v11.349-11.363m0 78.149v11.35m0 66.759v11.336m0 66.772v11.323m0 66.762v11.36m0 66.75v11.36m0 66.74v11.34m0 66.79v11.33m0 66.77v11.27M745.366-51.627v11.349m0 66.76v11.362m0 66.746v11.336m0 66.786v11.43m0 66.773v11.336m0 66.745v11.363m0 66.759v11.35m0 66.759v11.336m0 66.786v11.322m0 66.759v11.363m0 66.76v11.349-11.363m0 78.122v11.349m0 66.76v11.336m0 66.772v11.35m0 66.762v11.36m0 66.75v11.36m0 66.74v11.34m0 66.79v11.33m0 66.77v11.27M818.08-51.627v11.349m0 66.76v11.362m0 66.746v11.336m0 66.786v11.43m0 66.773v11.336m0 66.745v11.363m0 66.759v11.35m0 66.759v11.336m0 66.786v11.322m0 66.759v11.363m0 66.76v11.349-11.363m0 78.122v11.349m0 66.76v11.336m0 66.772v11.35m0 66.762v11.36m0 66.75v11.36m0 66.74v11.34m0 66.79v11.33m0 66.77v11.27M890.807-51.627v11.349m0 66.76v11.362m0 66.746v11.336m0 66.786v11.43m0 66.773v11.336m0 66.745v11.363m0 66.759v11.35m0 66.759v11.336m0 66.786v11.322m0 66.759v11.363m0 66.76v11.349-11.363m0 78.122v11.349m0 66.76v11.336m0 66.772v11.35m0 66.762v11.36m0 66.75v11.36m0 66.74v11.34m0 66.79v11.33m0 66.77v11.27M963.521-51.627v11.349m0 66.76v11.362m0 66.746v11.336m0 66.786v11.43m0 66.773v11.336m0 66.745v11.363m0 66.759v11.35m0 66.759v11.336m0 66.786v11.322m0 66.759v11.363m0 66.76v11.349m0 66.759v11.349m0 66.76v11.336m0 66.772v11.35m0 66.762v11.36m0 66.75v11.36m0 66.74v11.34m0 66.79v11.33m0 66.77v11.27M1036.23-51.627v11.349m0 66.76v11.362m0 66.746v11.336m0 66.786v11.43m0 66.773v11.336m0 66.745v11.363m0 66.759v11.35m0 66.759v11.336m0 66.786v11.322m0 66.759v11.363m0 66.76v11.349m0 66.759v11.349m0 66.76v11.336m0 66.772v11.35m0 66.762v11.36m0 66.75v11.36m0 66.74v11.34m0 66.79v11.33m0 66.77v11.27m72.81-1417.233v11.35m0 66.759v11.363m0 66.745v11.336m0 66.786v11.336-11.349m0 78.122v11.336m0 66.745v11.363-11.349m0 78.108v11.35m0 66.759v11.336m0 66.786v11.322m0 66.759v11.363m0 66.76v11.349-11.363m0 78.149v11.35m0 66.759v11.336m0 66.772v11.323m0 66.762v11.36m0 66.75v11.36m0 66.74v11.34m0 66.79v11.33m0 66.77v11.27-11.32m72.71-1406.007v11.349m0 66.76v11.362m0 66.746v11.336m0 66.786v11.43m0 66.773v11.336m0 66.745v11.363m0 66.759v11.35m0 66.759v11.336m0 66.786v11.322m0 66.759v11.363m0 66.76v11.349m0 66.759v11.349m0 66.76v11.336m0 66.772v11.35-11.444m0 78.206v11.36m0 66.75v11.36m0 66.74v11.34-11.32m0 78.11v11.33m0 66.77v11.27m72.72-1417.327v11.349m0 66.76v11.362m0 66.746v11.336m0 66.786v11.43m0 66.773v11.336m0 66.745v11.363m0 66.759v11.35m0 66.759v11.336m0 66.786v11.322m0 66.759v11.363m0 66.76v11.349m0 66.759v11.349m0 66.76v11.336m0 66.772v11.35-11.444m0 78.206v11.36m0 66.75v11.36m0 66.74v11.34-11.32m0 78.11v11.33m0 66.77v11.27m-363.613-11.28v11.28M963.571-51.627v11.349m0 66.76v11.362m0 66.746v11.336m0 66.772v11.35m0 66.772v11.336m0 66.759v11.35m0 66.759v11.349m0 66.759v11.336m0 66.786v11.323m0 66.759v11.363m0 66.745v11.363m0 66.759v11.35m0 66.759v11.336m0 66.773v11.444m0 66.762v11.36m0 66.75v11.36m0 66.76v11.32m0 66.79v11.33m0 66.77v11.27M1036.29-51.627v11.349m0 66.76v11.362m0 66.746v11.336m0 66.772v11.35m0 66.772v11.336m0 66.759v11.35m0 66.759v11.349m0 66.759v11.336m0 66.786v11.323m0 66.759v11.363m0 66.745v11.363m0 66.759v11.35m0 66.759v11.336m0 66.773v11.444m0 66.762v11.36m0 66.75v11.36m0 66.76v11.32m0 66.79v11.33m0 66.77v11.27m72.75-167.54v11.33m0 66.78v11.34m72.71-1104.912v11.35m0 66.772v11.336m0 66.759v11.35m0 66.759v11.349m0 66.759v11.336m0 66.786v11.323m0 66.759v11.363m0 66.745v11.363m0 66.759v11.35m0 66.759v11.336m72.72-714.313v11.35m0 66.772v11.336m0 66.759v11.35m0 66.759v11.349m0 66.759v11.336m0 66.786v11.323m0 66.759v11.363m0 66.745v11.363m0 66.759v11.35m0 66.759v11.336M605.258-45.845h-10.576m10.551 78.082h-10.551m10.551 78.122h-10.551m10.576 78.109h-10.576m10.551 78.108h-10.551m10.551 78.122h-10.551m10.551 78.082h-10.551m10.551 78.108h-10.551m10.551 78.122h-10.551m10.551 78.109h-10.551m10.551 78.095h-10.551m10.551 78.108h-10.551m10.576 78.136h-10.576m10.551 78.122h-10.551m10.551 78.11h-10.551m10.551 78.09h-10.551m10.551 78.11h-10.551m10.576 78.04h-10.576m10.551 78.11h-10.551m83.29-1405.885h-10.551m10.551 78.082h-10.551m10.551 78.122h-10.551m10.551 78.109h-10.551m10.551 78.108h-10.551m10.551 78.122h-10.551m10.551 78.082h-10.551m10.551 78.108h-10.551m10.551 78.122h-10.551m10.551 78.109h-10.551m10.551 78.095h-10.551m10.551 78.108h-10.551m10.551 78.136h-10.551m10.551 78.122h-10.551m10.551 78.11h-10.551m10.551 78.09h-10.551m10.551 78.11h-10.551m10.551 78.04h-10.551m10.551 78.11h-10.551M750.699-45.845h-10.564m10.564 78.082h-10.564m10.564 78.122h-10.564m10.564 78.109h-10.564m10.564 78.108h-10.564m10.564 78.122h-10.564m10.564 78.082h-10.564m10.564 78.108h-10.564m10.564 78.122h-10.564m10.564 78.109h-10.564m10.564 78.095h-10.564m10.564 78.108h-10.564m10.564 78.109h-10.564m10.564 78.122h-10.564m10.564 78.107h-10.564m10.564 78.1h-10.564m10.564 78.1h-10.564m10.564 78.11h-10.564m10.564 78.11h-10.564M823.413-45.845h-10.564m10.564 78.082h-10.564m10.564 78.122h-10.564m10.564 78.109h-10.564m10.564 78.108h-10.564m10.564 78.122h-10.564m10.564 78.082h-10.564m10.564 78.108h-10.564m10.564 78.122h-10.564m10.564 78.109h-10.564m10.564 78.095h-10.564m10.564 78.108h-10.564m10.564 78.109h-10.564m10.564 78.122h-10.564m10.564 78.107h-10.564m10.564 78.1h-10.564m10.564 78.1h-10.564m10.564 78.11h-10.564m10.564 78.11h-10.564m83.29-1405.925h-10.564m10.564 78.082h-10.564m10.564 78.122h-10.564m10.564 78.109h-10.564m10.564 78.108h-10.564m10.564 78.122h-10.564m10.564 78.082h-10.564m10.564 78.108h-10.564m10.564 78.122h-10.564m10.564 78.109h-10.564m10.564 78.095h-10.564m10.564 78.108h-10.564m10.564 78.109h-10.564m10.564 78.122h-10.564m10.564 78.107h-10.564m10.564 78.1h-10.564m10.564 78.1h-10.564m10.564 78.11h-10.564m10.564 78.11h-10.564M968.853-45.845h-10.564m10.564 78.082h-10.564m10.564 78.122h-10.564m10.564 78.109h-10.564m10.564 78.108h-10.564m10.564 78.122h-10.564m10.564 78.082h-10.564m10.564 78.108h-10.564m10.564 78.122h-10.564m10.564 78.109h-10.564m10.564 78.095h-10.564m10.564 78.108h-10.564m10.564 78.109h-10.564m10.564 78.122h-10.564m10.564 78.107h-10.564m10.564 78.1h-10.564m10.564 78.1h-10.564m10.564 78.11h-10.564m10.564 78.11h-10.564M1041.57-45.845h-10.5m10.56 78.082h-10.56m10.56 78.122h-10.56m10.56 78.109h-10.56m10.56 78.108h-10.56m10.56 78.122h-10.56m10.56 78.082h-10.56m10.56 78.108h-10.56m10.56 78.122h-10.56m10.56 78.109h-10.56m10.56 78.095h-10.56m10.56 78.108h-10.56m10.56 78.109h-10.56m10.56 78.122h-10.56m10.56 78.107h-10.56m10.56 78.1h-10.56m10.56 78.1h-10.56m10.56 78.11h-10.56m10.56 78.11h-10.56m83.22-1405.925h-10.56m10.56 78.082h-10.56m10.56 78.122h-10.56m10.56 78.109h-10.56m10.56 78.108h-10.56m10.56 78.122h-10.56m10.56 78.082h-10.56m10.56 78.108h-10.56m10.56 78.122h-10.56m10.56 78.109h-10.56m10.56 78.095h-10.56m10.56 78.108h-10.56m10.56 78.109h-10.56m10.56 78.122h-10.56m10.56 78.107h-10.56m10.56 78.1h-10.56m10.56 78.1h-10.56m10.56 78.11h-10.56m10.56 78.11h-10.56m83.28-1405.925h-10.57m10.57 78.082h-10.57m10.57 78.122h-10.57m10.57 78.109h-10.57m10.57 78.108h-10.57m10.57 78.122h-10.57m10.57 78.082h-10.57m10.57 78.108h-10.57m10.57 78.122h-10.57m10.57 78.109h-10.57m10.57 78.095h-10.57m10.57 78.108h-10.57m10.57 78.136h-10.57m10.57 78.095h-10.57m10.57 78.107h-10.57m10.57 78.1h-10.57m10.57 78.1h-10.57m10.57 78.07h-10.57m10.57 78.11h-10.57m83.28-1405.885h-10.56m10.56 78.082h-10.56m10.56 78.122h-10.56m10.56 78.109h-10.56m10.56 78.108h-10.56m10.56 78.122h-10.56m10.56 78.082h-10.56m10.56 78.108h-10.56m10.56 78.122h-10.56m10.56 78.109h-10.56m10.56 78.095h-10.56m10.56 78.108h-10.56m10.56 78.109h-10.56m10.56 78.122h-10.56m10.56 78.107h-10.56m10.56 78.1h-10.56m10.56 78.1h-10.56m10.56 78.11h-10.56m10.56 78.11h-10.56" stroke="#939598" stroke-width=".83"/></g><defs><clipPath id="a"><path fill="#fff" d="M0 0h755v874H0z"/></clipPath></defs></svg>