<svg width="357" height="569" fill="none" xmlns="http://www.w3.org/2000/svg"><g clip-path="url(#a)"><path d="M-673.367 1366.44v11.34m0 66.77v11.29-11.27m72.714-1406.065v11.35m0 66.759v11.363m0 66.745v11.336m0 66.786v11.431m0 66.772v11.336m0 66.746v11.363m0 66.759V518.6m0 66.759v11.336m0 66.786v11.323m0 66.759v11.363m0 66.759v11.349-11.362m0 78.121v11.35m0 66.759v11.336m0 66.772v11.35m0 66.76v11.36m0 66.75v11.36m0 66.75v11.33m0 66.79v11.33m0 66.78v11.27M-527.976 38.6v11.349m0 66.759v11.363m0 66.746v11.336m0 66.786v11.336m0 66.772v11.336m0 66.746v11.363m0 66.759V518.6m0 66.759v11.336m0 66.786v11.323m0 66.759v11.363m0 66.759v11.349-11.362m0 78.149v11.349m0 66.759v11.336m0 66.775v11.32m0 66.76v11.36m0 66.75v11.36m0 66.75v11.33m0 66.79v11.33m0 66.78v11.27m72.714-1417.335v11.35m0 66.759v11.363m0 66.745v11.336m0 66.786v11.431m0 66.772v11.336m0 66.746v11.363m0 66.759V518.6m0 66.759v11.336m0 66.786v11.323m0 66.759v11.363m0 66.759v11.349-11.362m0 78.121v11.35m0 66.759v11.336m0 66.772v11.35m0 66.76v11.36m0 66.75v11.36m0 66.75v11.33m0 66.79v11.33m0 66.78v11.27m72.714-1417.335v11.35m0 66.759v11.363m0 66.745v11.336m0 66.786v11.431m0 66.772v11.336m0 66.746v11.363m0 66.759V518.6m0 66.759v11.336m0 66.786v11.323m0 66.759v11.363m0 66.759v11.349-11.362m0 78.121v11.35m0 66.759v11.336m0 66.772v11.35m0 66.76v11.36m0 66.75v11.36m0 66.75v11.33m0 66.79v11.33m0 66.78v11.27m72.726-1417.335v11.35m0 66.759v11.363m0 66.745v11.336m0 66.786v11.431m0 66.772v11.336m0 66.746v11.363m0 66.759V518.6m0 66.759v11.336m0 66.786v11.323m0 66.759v11.363m0 66.759v11.349-11.362m0 78.121v11.35m0 66.759v11.336m0 66.772v11.35m0 66.76v11.36m0 66.75v11.36m0 66.75v11.33m0 66.79v11.33m0 66.78v11.27m72.714-1417.335v11.35m0 66.759v11.363m0 66.745v11.336m0 66.786v11.431m0 66.772v11.336m0 66.746v11.363m0 66.759V518.6m0 66.759v11.336m0 66.786v11.323m0 66.759v11.363m0 66.759v11.349m0 66.759v11.35m0 66.759v11.336m0 66.772v11.35m0 66.76v11.36m0 66.75v11.36m0 66.75v11.33m0 66.79v11.33m0 66.78v11.27m72.714-1417.335v11.35m0 66.759v11.363m0 66.745v11.336m0 66.786v11.431m0 66.772v11.336m0 66.746v11.363m0 66.759V518.6m0 66.759v11.336m0 66.786v11.323m0 66.759v11.363m0 66.759v11.349m0 66.759v11.35m0 66.759v11.336m0 66.772v11.35m0 66.76v11.36m0 66.75v11.36m0 66.75v11.33m0 66.79v11.33m0 66.78v11.27M-91.592 38.6v11.349m0 66.759v11.363m0 66.746v11.336m0 66.786v11.336-11.35m0 78.122v11.336m0 66.746v11.363-11.35m0 78.109V518.6m0 66.759v11.336m0 66.786v11.323m0 66.759v11.363m0 66.759v11.349-11.362m0 78.149v11.349m0 66.759v11.336m0 66.775v11.32m0 66.76v11.36m0 66.75v11.36m0 66.75v11.33m0 66.79v11.33m0 66.78v11.27-11.33M-18.878 38.505v11.35m0 66.759v11.363m0 66.745v11.336m0 66.786v11.431m0 66.772v11.336m0 66.746v11.363m0 66.759V518.6m0 66.759v11.336m0 66.786v11.323m0 66.759v11.363m0 66.759v11.349m0 66.759v11.35m0 66.759v11.336m0 66.772v11.35-11.44m0 78.2v11.36m0 66.75v11.36m0 66.75v11.33-11.32m0 78.11v11.33m0 66.78v11.27M53.836 38.505v11.35m0 66.759v11.363m0 66.745v11.336m0 66.786v11.431m0 66.772v11.336m0 66.746v11.363m0 66.759V518.6m0 66.759v11.336m0 66.786v11.323m0 66.759v11.363m0 66.759v11.349m0 66.759v11.35m0 66.759v11.336m0 66.772v11.35-11.44m0 78.2v11.36m0 66.75v11.36m0 66.75v11.33-11.32m0 78.11v11.33m0 66.78v11.27M-673.367 38.6v11.349m0 66.759v11.363m0 66.746v11.336m0 66.786v11.336m0 66.772v11.336m0 66.746v11.363m0 66.759V518.6m0 66.759v11.336m0 66.786v11.323m0 66.759v11.363m0 66.746v11.362m0 66.759v11.35m0 66.759v11.336m0 66.772v11.35m0 66.76v11.36m0 66.75v11.36m0 66.75v11.33m0 66.79v11.33m363.596 66.76v11.29m72.714-1417.335v11.35m0 66.759v11.363m0 66.745v11.336m0 66.773v11.349m0 66.773v11.336m0 66.759v11.349m0 66.759v11.35m0 66.759v11.336m0 66.786v11.322m0 66.759v11.363m0 66.746v11.363m0 66.759v11.349m0 66.759v11.336m0 66.777v11.44m0 66.76v11.36m0 66.75v11.36m0 66.76v11.32m0 66.79v11.33m0 66.78v11.27m72.714-1417.335v11.35m0 66.759v11.363m0 66.745v11.336m0 66.773v11.349m0 66.773v11.336m0 66.759v11.349m0 66.759v11.35m0 66.759v11.336m0 66.786v11.322m0 66.759v11.363m0 66.746v11.363m0 66.759v11.349m0 66.759v11.336m0 66.777v11.44m0 66.76v11.36m0 66.75v11.36m0 66.76v11.32m0 66.79v11.33m0 66.78v11.27m72.751-167.54v11.32m0 66.78v11.34m72.714-1104.909v11.349m0 66.773v11.336m0 66.759v11.349m0 66.759v11.35m0 66.759v11.336m0 66.786v11.322m0 66.759v11.363m0 66.746v11.363m0 66.759v11.349m0 66.759v11.336m72.714-714.312v11.349m0 66.773v11.336m0 66.759v11.349m0 66.759v11.35m0 66.759v11.336m0 66.786v11.322m0 66.759v11.363m0 66.746v11.363m0 66.759v11.349m0 66.759v11.336M-668.085 44.288h-10.563m10.563 78.081h-10.563m10.563 78.122h-10.563m10.563 78.109h-10.563m10.563 78.108h-10.563m10.563 78.123h-10.563m10.563 78.081h-10.563m10.563 78.109h-10.563m10.563 78.122h-10.563m10.563 78.108h-10.563m10.563 78.095h-10.563m10.563 78.109h-10.563m10.563 78.135h-10.563m10.563 78.12h-10.563m10.563 78.11h-10.563m10.563 78.1h-10.563m10.563 78.1h-10.563m10.563 78.05h-10.563m10.563 78.1h-10.563m83.277-1405.882h-10.576m10.551 78.081h-10.551m10.551 78.122h-10.551m10.576 78.109h-10.576m10.551 78.109h-10.551m10.551 78.122h-10.551m10.551 78.081h-10.551m10.551 78.109h-10.551m10.551 78.122h-10.551m10.551 78.108h-10.551m10.551 78.095h-10.551m10.551 78.109h-10.551m10.576 78.135h-10.576m10.551 78.12h-10.551m10.551 78.11h-10.551m10.551 78.1h-10.551m10.551 78.1h-10.551m10.576 78.05h-10.576m10.551 78.1h-10.551m83.29-1405.882h-10.551m10.551 78.081h-10.551m10.551 78.122h-10.551m10.551 78.109h-10.551m10.551 78.109h-10.551m10.551 78.122h-10.551m10.551 78.081h-10.551m10.551 78.109h-10.551m10.551 78.122h-10.551m10.551 78.108h-10.551m10.551 78.095h-10.551m10.551 78.109h-10.551m10.551 78.135h-10.551m10.551 78.12h-10.551m10.551 78.11h-10.551m10.551 78.1h-10.551m10.551 78.1h-10.551m10.551 78.05h-10.551m10.551 78.1h-10.551M-449.93 44.288h-10.564m10.564 78.081h-10.564m10.564 78.122h-10.564m10.564 78.109h-10.564m10.564 78.109h-10.564m10.564 78.122h-10.564m10.564 78.081h-10.564m10.564 78.109h-10.564m10.564 78.122h-10.564m10.564 78.108h-10.564m10.564 78.095h-10.564m10.564 78.109h-10.564m10.564 78.108h-10.564m10.564 78.127h-10.564m10.564 78.1h-10.564m10.564 78.1h-10.564m10.564 78.11h-10.564m10.564 78.11h-10.564m10.564 78.1h-10.564m83.278-1405.922h-10.564m10.564 78.081h-10.564m10.564 78.122h-10.564m10.564 78.109h-10.564m10.564 78.109h-10.564m10.564 78.122h-10.564m10.564 78.081h-10.564m10.564 78.109h-10.564m10.564 78.122h-10.564m10.564 78.108h-10.564m10.564 78.095h-10.564m10.564 78.109h-10.564m10.564 78.108h-10.564m10.564 78.127h-10.564m10.564 78.1h-10.564m10.564 78.1h-10.564m10.564 78.11h-10.564m10.564 78.11h-10.564m10.564 78.1h-10.564m83.29-1405.922h-10.563m10.563 78.081h-10.563m10.563 78.122h-10.563m10.563 78.109h-10.563m10.563 78.109h-10.563m10.563 78.122h-10.563m10.563 78.081h-10.563m10.563 78.109h-10.563m10.563 78.122h-10.563m10.563 78.108h-10.563m10.563 78.095h-10.563m10.563 78.109h-10.563m10.563 78.108h-10.563m10.563 78.127h-10.563m10.563 78.1h-10.563m10.563 78.1h-10.563m10.563 78.11h-10.563m10.563 78.11h-10.563m10.563 78.1h-10.563m83.277-1405.922h-10.563m10.563 78.081h-10.563m10.563 78.122h-10.563m10.563 78.109h-10.563m10.563 78.109h-10.563m10.563 78.122h-10.563m10.563 78.081h-10.563m10.563 78.109h-10.563m10.563 78.122h-10.563m10.563 78.108h-10.563m10.563 78.095h-10.563m10.563 78.109h-10.563m10.563 78.108h-10.563m10.563 78.127h-10.563m10.563 78.1h-10.563m10.563 78.1h-10.563m10.563 78.11h-10.563m10.563 78.11h-10.563m10.563 78.1h-10.563m83.277-1405.922h-10.5m10.563 78.081h-10.563m10.563 78.122h-10.563m10.563 78.109h-10.563m10.563 78.109h-10.563m10.563 78.122h-10.563m10.563 78.081h-10.563m10.563 78.109h-10.563m10.563 78.122h-10.563m10.563 78.108h-10.563m10.563 78.095h-10.563m10.563 78.109h-10.563m10.563 78.108h-10.563m10.563 78.127h-10.563m10.563 78.1h-10.563m10.563 78.1h-10.563m10.563 78.11h-10.563m10.563 78.11h-10.563m10.563 78.1h-10.563M-86.335 44.288h-10.564m10.564 78.081h-10.564m10.564 78.122h-10.564m10.564 78.109h-10.564m10.564 78.109h-10.564m10.564 78.122h-10.564m10.564 78.081h-10.564m10.564 78.109h-10.564m10.564 78.122h-10.564m10.564 78.108h-10.564m10.564 78.095h-10.564m10.564 78.109h-10.564m10.564 78.108h-10.564m10.564 78.127h-10.564m10.564 78.1h-10.564m10.564 78.1h-10.564m10.564 78.11h-10.564m10.564 78.11h-10.564m10.564 78.1h-10.564M-13.62 44.288h-10.564m10.564 78.081h-10.564m10.564 78.122h-10.564M-13.62 278.6h-10.564m10.564 78.109h-10.564m10.564 78.122h-10.564m10.564 78.081h-10.564m10.564 78.109h-10.564m10.564 78.122h-10.564m10.564 78.108h-10.564m10.564 78.095h-10.564m10.564 78.109h-10.564m10.564 78.135h-10.564m10.564 78.1h-10.564m10.564 78.1h-10.564m10.564 78.1h-10.564M-13.62 1294h-10.564m10.564 78.07h-10.564m10.564 78.1h-10.564M59.093 44.288H48.529m10.564 78.081H48.529m10.564 78.122H48.529M59.093 278.6H48.529m10.564 78.109H48.529m10.564 78.122H48.529m10.564 78.081H48.529m10.564 78.109H48.529m10.564 78.122H48.529m10.564 78.108H48.529m10.564 78.095H48.529m10.564 78.109H48.529m10.564 78.108H48.529m10.564 78.127H48.529m10.564 78.1H48.529m10.564 78.1H48.529M59.093 1294H48.529m10.564 78.11H48.529m10.564 78.1H48.529M126.236 38.505v11.35m0 66.759v11.363m0 66.745v11.336m0 66.786v11.431m0 66.772v11.336m0 66.746v11.363m0 66.759V518.6m0 66.759v11.336m0 66.786v11.323m0 66.759v11.363m0 66.759v11.349-11.362m0 78.121v11.35m0 66.759v11.336m0 66.772v11.35m0 66.76v11.36m0 66.75v11.36m0 66.75v11.33m0 66.79v11.33m0 66.78v11.27M198.912 38.6v11.349m0 66.759v11.363m0 66.746v11.336m0 66.786v11.336m0 66.772v11.336m0 66.746v11.363m0 66.759V518.6m0 66.759v11.336m0 66.786v11.323m0 66.759v11.363m0 66.759v11.349-11.362m0 78.149v11.349m0 66.759v11.336m0 66.775v11.32m0 66.76v11.36m0 66.75v11.36m0 66.75v11.33m0 66.79v11.33m0 66.78v11.27M271.626 38.505v11.35m0 66.759v11.363m0 66.745v11.336m0 66.786v11.431m0 66.772v11.336m0 66.746v11.363m0 66.759V518.6m0 66.759v11.336m0 66.786v11.323m0 66.759v11.363m0 66.759v11.349-11.362m0 78.121v11.35m0 66.759v11.336m0 66.772v11.35m0 66.76v11.36m0 66.75v11.36m0 66.75v11.33m0 66.79v11.33m0 66.78v11.27M344.34 38.505v11.35m0 66.759v11.363m0 66.745v11.336m0 66.786v11.431m0 66.772v11.336m0 66.746v11.363m0 66.759V518.6m0 66.759v11.336m0 66.786v11.323m0 66.759v11.363m0 66.759v11.349-11.362m0 78.121v11.35m0 66.759v11.336m0 66.772v11.35m0 66.76v11.36m0 66.75v11.36m0 66.75v11.33m0 66.79v11.33m0 66.78v11.27M417.067 38.505v11.35m0 66.759v11.363m0 66.745v11.336m0 66.786v11.431m0 66.772v11.336m0 66.746v11.363m0 66.759V518.6m0 66.759v11.336m0 66.786v11.323m0 66.759v11.363m0 66.759v11.349-11.362m0 78.121v11.35m0 66.759v11.336m0 66.772v11.35m0 66.76v11.36m0 66.75v11.36m0 66.75v11.33m0 66.79v11.33m0 66.78v11.27M489.781 38.505v11.35m0 66.759v11.363m0 66.745v11.336m0 66.786v11.431m0 66.772v11.336m0 66.746v11.363m0 66.759V518.6m0 66.759v11.336m0 66.786v11.323m0 66.759v11.363m0 66.759v11.349m0 66.759v11.35m0 66.759v11.336m0 66.772v11.35m0 66.76v11.36m0 66.75v11.36m0 66.75v11.33m0 66.79v11.33m0 66.78v11.27M562.495 38.505v11.35m0 66.759v11.363m0 66.745v11.336m0 66.786v11.431m0 66.772v11.336m0 66.746v11.363m0 66.759V518.6m0 66.759v11.336m0 66.786v11.323m0 66.759v11.363m0 66.759v11.349m0 66.759v11.35m0 66.759v11.336m0 66.772v11.35m0 66.76v11.36m0 66.75v11.36m0 66.75v11.33m0 66.79v11.33m0 66.78v11.27M635.297 38.6v11.349m0 66.759v11.363m0 66.746v11.336m0 66.786v11.336-11.35m0 78.122v11.336m0 66.746v11.363-11.35m0 78.109V518.6m0 66.759v11.336m0 66.786v11.323m0 66.759v11.363m0 66.759v11.349-11.362m0 78.149v11.349m0 66.759v11.336m0 66.775v11.32m0 66.76v11.36m0 66.75v11.36m0 66.75v11.33m0 66.79v11.33m0 66.78v11.27-11.33M708.011 38.505v11.35m0 66.759v11.363m0 66.745v11.336m0 66.786v11.431m0 66.772v11.336m0 66.746v11.363m0 66.759V518.6m0 66.759v11.336m0 66.786v11.323m0 66.759v11.363m0 66.759v11.349m0 66.759v11.35m0 66.759v11.336m0 66.772v11.35-11.44m0 78.2v11.36m0 66.75v11.36m0 66.75v11.33-11.32m0 78.11v11.33m0 66.78v11.27M780.725 38.505v11.35m0 66.759v11.363m0 66.745v11.336m0 66.786v11.431m0 66.772v11.336m0 66.746v11.363m0 66.759V518.6m0 66.759v11.336m0 66.786v11.323m0 66.759v11.363m0 66.759v11.349m0 66.759v11.35m0 66.759v11.336m0 66.772v11.35-11.44m0 78.2v11.36m0 66.75v11.36m0 66.75v11.33-11.32m0 78.11v11.33m0 66.78v11.27m-363.608-11.29v11.29M489.831 38.505v11.35m0 66.759v11.363m0 66.745v11.336m0 66.773v11.349m0 66.773v11.336m0 66.759v11.349m0 66.759v11.35m0 66.759v11.336m0 66.786v11.322m0 66.759v11.363m0 66.746v11.363m0 66.759v11.349m0 66.759v11.336m0 66.777v11.44m0 66.76v11.36m0 66.75v11.36m0 66.76v11.32m0 66.79v11.33m0 66.78v11.27M562.545 38.505v11.35m0 66.759v11.363m0 66.745v11.336m0 66.773v11.349m0 66.773v11.336m0 66.759v11.349m0 66.759v11.35m0 66.759v11.336m0 66.786v11.322m0 66.759v11.363m0 66.746v11.363m0 66.759v11.349m0 66.759v11.336m0 66.777v11.44m0 66.76v11.36m0 66.75v11.36m0 66.76v11.32m0 66.79v11.33m0 66.78v11.27m72.752-167.54v11.32m0 66.78v11.34m72.714-1104.909v11.349m0 66.773v11.336m0 66.759v11.349m0 66.759v11.35m0 66.759v11.336m0 66.786v11.322m0 66.759v11.363m0 66.746v11.363m0 66.759v11.349m0 66.759v11.336m72.714-714.312v11.349m0 66.773v11.336m0 66.759v11.349m0 66.759v11.35m0 66.759v11.336m0 66.786v11.322m0 66.759v11.363m0 66.746v11.363m0 66.759v11.349m0 66.759v11.336M131.518 44.288h-10.577m10.552 78.081h-10.552m10.552 78.122h-10.552m10.577 78.109h-10.577m10.552 78.109h-10.552m10.552 78.122h-10.552m10.552 78.081h-10.552m10.552 78.109h-10.552m10.552 78.122h-10.552m10.552 78.108h-10.552m10.552 78.095h-10.552m10.552 78.109h-10.552m10.577 78.135h-10.577m10.552 78.12h-10.552m10.552 78.11h-10.552m10.552 78.1h-10.552m10.552 78.1h-10.552m10.577 78.05h-10.577m10.552 78.1h-10.552M204.232 44.288h-10.551m10.551 78.081h-10.551m10.551 78.122h-10.551m10.551 78.109h-10.551m10.551 78.109h-10.551m10.551 78.122h-10.551m10.551 78.081h-10.551m10.551 78.109h-10.551m10.551 78.122h-10.551m10.551 78.108h-10.551m10.551 78.095h-10.551m10.551 78.109h-10.551m10.551 78.135h-10.551m10.551 78.12h-10.551m10.551 78.11h-10.551m10.551 78.1h-10.551m10.551 78.1h-10.551m10.551 78.05h-10.551m10.551 78.1h-10.551M276.958 44.288h-10.563m10.563 78.081h-10.563m10.563 78.122h-10.563m10.563 78.109h-10.563m10.563 78.109h-10.563m10.563 78.122h-10.563m10.563 78.081h-10.563m10.563 78.109h-10.563m10.563 78.122h-10.563m10.563 78.108h-10.563m10.563 78.095h-10.563m10.563 78.109h-10.563m10.563 78.108h-10.563m10.563 78.127h-10.563m10.563 78.1h-10.563m10.563 78.1h-10.563m10.563 78.11h-10.563m10.563 78.11h-10.563m10.563 78.1h-10.563M349.672 44.288h-10.563m10.563 78.081h-10.563m10.563 78.122h-10.563m10.563 78.109h-10.563m10.563 78.109h-10.563m10.563 78.122h-10.563m10.563 78.081h-10.563m10.563 78.109h-10.563m10.563 78.122h-10.563m10.563 78.108h-10.563m10.563 78.095h-10.563m10.563 78.109h-10.563m10.563 78.108h-10.563m10.563 78.127h-10.563m10.563 78.1h-10.563m10.563 78.1h-10.563m10.563 78.11h-10.563m10.563 78.11h-10.563m10.563 78.1h-10.563m83.29-1405.922h-10.564m10.564 78.081h-10.564m10.564 78.122h-10.564m10.564 78.109h-10.564m10.564 78.109h-10.564m10.564 78.122h-10.564m10.564 78.081h-10.564m10.564 78.109h-10.564m10.564 78.122h-10.564m10.564 78.108h-10.564m10.564 78.095h-10.564m10.564 78.109h-10.564m10.564 78.108h-10.564m10.564 78.127h-10.564m10.564 78.1h-10.564m10.564 78.1h-10.564m10.564 78.11h-10.564m10.564 78.11h-10.564m10.564 78.1h-10.564M495.113 44.288h-10.564m10.564 78.081h-10.564m10.564 78.122h-10.564m10.564 78.109h-10.564m10.564 78.109h-10.564m10.564 78.122h-10.564m10.564 78.081h-10.564m10.564 78.109h-10.564m10.564 78.122h-10.564m10.564 78.108h-10.564m10.564 78.095h-10.564m10.564 78.109h-10.564m10.564 78.108h-10.564m10.564 78.127h-10.564m10.564 78.1h-10.564m10.564 78.1h-10.564m10.564 78.11h-10.564m10.564 78.11h-10.564m10.564 78.1h-10.564M567.827 44.288h-10.501m10.564 78.081h-10.564m10.564 78.122h-10.564M567.89 278.6h-10.564m10.564 78.109h-10.564m10.564 78.122h-10.564m10.564 78.081h-10.564m10.564 78.109h-10.564m10.564 78.122h-10.564m10.564 78.108h-10.564m10.564 78.095h-10.564m10.564 78.109h-10.564m10.564 78.108h-10.564m10.564 78.127h-10.564m10.564 78.1h-10.564m10.564 78.1h-10.564M567.89 1294h-10.564m10.564 78.11h-10.564m10.564 78.1h-10.564M640.553 44.288H629.99m10.563 78.081H629.99m10.563 78.122H629.99m10.563 78.109H629.99m10.563 78.109H629.99m10.563 78.122H629.99m10.563 78.081H629.99m10.563 78.109H629.99m10.563 78.122H629.99m10.563 78.108H629.99m10.563 78.095H629.99m10.563 78.109H629.99m10.563 78.108H629.99m10.563 78.127H629.99m10.563 78.1H629.99m10.563 78.1H629.99m10.563 78.11H629.99m10.563 78.11H629.99m10.563 78.1H629.99M713.268 44.288h-10.564m10.564 78.081h-10.564m10.564 78.122h-10.564m10.564 78.109h-10.564m10.564 78.109h-10.564m10.564 78.122h-10.564m10.564 78.081h-10.564m10.564 78.109h-10.564m10.564 78.122h-10.564m10.564 78.108h-10.564m10.564 78.095h-10.564m10.564 78.109h-10.564m10.564 78.135h-10.564m10.564 78.1h-10.564m10.564 78.1h-10.564m10.564 78.1h-10.564m10.564 78.11h-10.564m10.564 78.07h-10.564m10.564 78.1h-10.564M785.982 44.288h-10.564m10.564 78.081h-10.564m10.564 78.122h-10.564m10.564 78.109h-10.564m10.564 78.109h-10.564m10.564 78.122h-10.564m10.564 78.081h-10.564m10.564 78.109h-10.564m10.564 78.122h-10.564m10.564 78.108h-10.564m10.564 78.095h-10.564m10.564 78.109h-10.564m10.564 78.108h-10.564m10.564 78.127h-10.564m10.564 78.1h-10.564m10.564 78.1h-10.564m10.564 78.11h-10.564m10.564 78.11h-10.564m10.564 78.1h-10.564" stroke="#939598" stroke-width=".83"/></g><defs><clipPath id="a"><path fill="#fff" transform="translate(-1)" d="M0 0h358v569H0z"/></clipPath></defs></svg>