<svg width="108" height="292" viewBox="0 0 108 292" fill="none" xmlns="http://www.w3.org/2000/svg">
<g clip-path="url(#clip0_73_169)">
<path d="M-234.623 641.772V647.964M-234.623 684.436V690.598V684.443M-194.905 -83.5662V-77.3669M-194.905 -40.9023V-34.6957M-194.905 1.76164V7.95348M-194.905 44.4329V50.6764M-194.905 87.1485V93.3403M-194.905 129.798V136.004M-194.905 172.469V178.668M-194.905 215.133V221.325M-194.905 257.804V263.989M-194.905 300.453V306.66M-194.905 343.125V349.324V343.117M-194.905 385.788V391.988M-194.905 428.452V434.644M-194.905 471.116V477.315M-194.905 513.78V519.987M-194.905 556.444V562.651M-194.905 599.108V605.3M-194.905 641.779V647.971M-194.905 684.443V690.598M-155.209 -83.5145V-77.3153M-155.209 -40.8506V-34.644M-155.209 1.8133V8.00514M-155.209 44.4846V50.6764M-155.209 87.1485V93.3403M-155.209 129.798V136.004M-155.209 172.469V178.668M-155.209 215.133V221.325M-155.209 257.804V263.989M-155.209 300.453V306.66M-155.209 343.125V349.324V343.117M-155.209 385.803V392.002M-155.209 428.467V434.659M-155.209 471.131V477.315M-155.209 513.78V519.987M-155.209 556.444V562.651M-155.209 599.108V605.3M-155.209 641.779V647.971M-155.209 684.443V690.598M-115.491 -83.5662V-77.3669M-115.491 -40.9023V-34.6957M-115.491 1.76164V7.95348M-115.491 44.4329V50.6764M-115.491 87.1485V93.3403M-115.491 129.798V136.004M-115.491 172.469V178.668M-115.491 215.133V221.325M-115.491 257.804V263.989M-115.491 300.453V306.66M-115.491 343.125V349.324V343.117M-115.491 385.788V391.988M-115.491 428.452V434.644M-115.491 471.116V477.315M-115.491 513.78V519.987M-115.491 556.444V562.651M-115.491 599.108V605.3M-115.491 641.779V647.971M-115.491 684.443V690.598M-75.7741 -83.5662V-77.3669M-75.7741 -40.9023V-34.6957M-75.7741 1.76164V7.95348M-75.7741 44.4329V50.6764M-75.7741 87.1485V93.3403M-75.7741 129.798V136.004M-75.7741 172.469V178.668M-75.7741 215.133V221.325M-75.7741 257.804V263.989M-75.7741 300.453V306.66M-75.7741 343.125V349.324V343.117M-75.7741 385.788V391.988M-75.7741 428.452V434.644M-75.7741 471.116V477.315M-75.7741 513.78V519.987M-75.7741 556.444V562.651M-75.7741 599.108V605.3M-75.7741 641.779V647.971M-75.7741 684.443V690.598M-36.0498 -83.5662V-77.3669M-36.0498 -40.9023V-34.6957M-36.0498 1.76164V7.95348M-36.0498 44.4329V50.6764M-36.0498 87.1485V93.3403M-36.0498 129.798V136.004M-36.0498 172.469V178.668M-36.0498 215.133V221.325M-36.0498 257.804V263.989M-36.0498 300.453V306.66M-36.0498 343.125V349.324V343.117M-36.0498 385.788V391.988M-36.0498 428.452V434.644M-36.0498 471.116V477.315M-36.0498 513.78V519.987M-36.0498 556.444V562.651M-36.0498 599.108V605.3M-36.0498 641.779V647.971M-36.0498 684.443V690.598M3.6675 -83.5662V-77.3669M3.6675 -40.9023V-34.6957M3.6675 1.76164V7.95348M3.6675 44.4329V50.6764M3.6675 87.1485V93.3403M3.6675 129.798V136.004M3.6675 172.469V178.668M3.6675 215.133V221.325M3.6675 257.804V263.989M3.6675 300.453V306.66M3.6675 343.125V349.324M3.6675 385.788V391.988M3.6675 428.452V434.644M3.6675 471.116V477.315M3.6675 513.78V519.987M3.6675 556.444V562.651M3.6675 599.108V605.3M3.6675 641.779V647.971M3.6675 684.443V690.598M43.3848 -83.5662V-77.3669M43.3848 -40.9023V-34.6957M43.3848 1.76164V7.95348M43.3848 44.4329V50.6764M43.3848 87.1485V93.3403M43.3848 129.798V136.004M43.3848 172.469V178.668M43.3848 215.133V221.325M43.3848 257.804V263.989M43.3848 300.453V306.66M43.3848 343.125V349.324M43.3848 385.788V391.988M43.3848 428.452V434.644M43.3848 471.116V477.315M43.3848 513.78V519.987M43.3848 556.444V562.651M43.3848 599.108V605.3M43.3848 641.779V647.971M43.3848 684.443V690.598M83.1502 -83.5145V-77.3153M83.1502 -40.8506V-34.644M83.1502 1.8133V8.00514M83.1502 44.4846V50.6764V44.4772M83.1502 87.1485V93.3403M83.1502 129.798V136.004V129.805M83.1502 172.469V178.668M83.1502 215.133V221.325M83.1502 257.804V263.989M83.1502 300.453V306.66M83.1502 343.125V349.324V343.117M83.1502 385.803V392.002M83.1502 428.467V434.659M83.1502 471.131V477.315M83.1502 513.78V519.987M83.1502 556.444V562.651M83.1502 599.108V605.3M83.1502 641.779V647.971M83.1502 684.443V690.598V684.414M122.868 -83.5662V-77.3669M122.868 -40.9023V-34.6957M122.868 1.76164V7.95348M122.868 44.4329V50.6764M122.868 87.1485V93.3403M122.868 129.798V136.004M122.868 172.469V178.668M122.868 215.133V221.325M122.868 257.804V263.989M122.868 300.453V306.66M122.868 343.125V349.324M122.868 385.788V391.988M122.868 428.452V434.644M122.868 471.116V477.315V471.065M122.868 513.78V519.987M122.868 556.444V562.651M122.868 599.108V605.3V599.115M122.868 641.779V647.971M122.868 684.443V690.598M162.585 -83.5662V-77.3669M162.585 -40.9023V-34.6957M162.585 1.76164V7.95348M162.585 44.4329V50.6764M162.585 87.1485V93.3403M162.585 129.798V136.004M162.585 172.469V178.668M162.585 215.133V221.325M162.585 257.804V263.989M162.585 300.453V306.66M162.585 343.125V349.324M162.585 385.788V391.988M162.585 428.452V434.644M162.585 471.116V477.315V471.065M162.585 513.78V519.987M162.585 556.444V562.651M162.585 599.108V605.3V599.115M162.585 641.779V647.971M162.585 684.443V690.598M-234.623 -83.5145V-77.3153M-234.623 -40.8506V-34.644M-234.623 1.8133V8.00514M-234.623 44.4846V50.6764M-234.623 87.1485V93.3403M-234.623 129.798V136.004M-234.623 172.469V178.668M-234.623 215.133V221.325M-234.623 257.804V263.989M-234.623 300.453V306.66M-234.623 343.117V349.324M-234.623 385.788V391.988M-234.623 428.452V434.644M-234.623 471.116V477.315M-234.623 513.78V519.987M-234.623 556.444V562.651M-234.623 599.108V605.3M-234.623 641.779V647.971M-36.0224 684.436V690.598M3.69494 -83.5662V-77.3669M3.69494 -40.9023V-34.6957M3.69494 1.76164V7.95348M3.69494 44.4255V50.6248M3.69494 87.0968V93.2887M3.69494 129.753V135.953M3.69494 172.417V178.616M3.69494 215.081V221.273M3.69494 257.752V263.937M3.69494 300.402V306.608M3.69494 343.065V349.272M3.69494 385.737V391.936M3.69494 428.401V434.592M3.69494 471.065V477.315M3.69494 513.78V519.987M3.69494 556.444V562.651M3.69494 599.115V605.3M3.69494 641.779V647.971M3.69494 684.443V690.598M43.4123 -83.5662V-77.3669M43.4123 -40.9023V-34.6957M43.4123 1.76164V7.95348M43.4123 44.4255V50.6248M43.4123 87.0968V93.2887M43.4123 129.753V135.953M43.4123 172.417V178.616M43.4123 215.081V221.273M43.4123 257.752V263.937M43.4123 300.402V306.608M43.4123 343.065V349.272M43.4123 385.737V391.936M43.4123 428.401V434.592M43.4123 471.065V477.315M43.4123 513.78V519.987M43.4123 556.444V562.651M43.4123 599.115V605.3M43.4123 641.779V647.971M43.4123 684.443V690.598M83.1502 599.086V605.27M83.1502 641.75V647.942M122.868 44.4255V50.6248M122.868 87.0968V93.2887M122.868 129.753V135.953M122.868 172.417V178.616M122.868 215.081V221.273M122.868 257.752V263.937M122.868 300.402V306.608M122.868 343.065V349.272M122.868 385.737V391.936M122.868 428.401V434.592M162.585 44.4255V50.6248M162.585 87.0968V93.2887M162.585 129.753V135.953M162.585 172.417V178.616M162.585 215.081V221.273M162.585 257.752V263.937M162.585 300.402V306.608M162.585 343.065V349.272M162.585 385.737V391.936M162.585 428.401V434.592M-231.738 -80.4075H-237.508M-231.738 -37.7584H-237.508M-231.738 4.91291H-237.508M-231.738 47.5768H-237.508M-231.738 90.2407H-237.508M-231.738 132.912H-237.508M-231.738 175.561H-237.508M-231.738 218.225H-237.508M-231.738 260.896H-237.508M-231.738 303.56H-237.508M-231.738 346.217H-237.508M-231.738 388.881H-237.508M-231.738 431.559H-237.508M-231.738 474.231H-237.508M-231.738 516.894H-237.508M-231.738 559.551H-237.508M-231.738 602.215H-237.508M-231.738 644.842H-237.508M-231.738 687.506H-237.508M-192.02 -80.4075H-197.797M-192.034 -37.7583H-197.797M-192.034 4.91293H-197.797M-192.02 47.5768H-197.797M-192.034 90.2407H-197.797M-192.034 132.912H-197.797M-192.034 175.561H-197.797M-192.034 218.225H-197.797M-192.034 260.896H-197.797M-192.034 303.56H-197.797M-192.034 346.217H-197.797M-192.034 388.881H-197.797M-192.02 431.559H-197.797M-192.034 474.231H-197.797M-192.034 516.894H-197.797M-192.034 559.551H-197.797M-192.034 602.215H-197.797M-192.02 644.842H-197.797M-192.034 687.506H-197.797M-152.303 -80.4075H-158.066M-152.303 -37.7583H-158.066M-152.303 4.91293H-158.066M-152.303 47.5768H-158.066M-152.303 90.2407H-158.066M-152.303 132.912H-158.066M-152.303 175.561H-158.066M-152.303 218.225H-158.066M-152.303 260.896H-158.066M-152.303 303.56H-158.066M-152.303 346.217H-158.066M-152.303 388.881H-158.066M-152.303 431.559H-158.066M-152.303 474.231H-158.066M-152.303 516.894H-158.066M-152.303 559.551H-158.066M-152.303 602.215H-158.066M-152.303 644.842H-158.066M-152.303 687.506H-158.066M-112.579 -80.4075H-118.349M-112.579 -37.7583H-118.349M-112.579 4.91293H-118.349M-112.579 47.5768H-118.349M-112.579 90.2407H-118.349M-112.579 132.912H-118.349M-112.579 175.561H-118.349M-112.579 218.225H-118.349M-112.579 260.896H-118.349M-112.579 303.56H-118.349M-112.579 346.217H-118.349M-112.579 388.881H-118.349M-112.579 431.545H-118.349M-112.579 474.216H-118.349M-112.579 516.88H-118.349M-112.579 559.536H-118.349M-112.579 602.2H-118.349M-112.579 644.864H-118.349M-112.579 687.528H-118.349M-72.8615 -80.4075H-78.6316M-72.8615 -37.7583H-78.6316M-72.8615 4.91293H-78.6316M-72.8615 47.5768H-78.6316M-72.8615 90.2407H-78.6316M-72.8615 132.912H-78.6316M-72.8615 175.561H-78.6316M-72.8615 218.225H-78.6316M-72.8615 260.896H-78.6316M-72.8615 303.56H-78.6316M-72.8615 346.217H-78.6316M-72.8615 388.881H-78.6316M-72.8615 431.545H-78.6316M-72.8615 474.216H-78.6316M-72.8615 516.88H-78.6316M-72.8615 559.536H-78.6316M-72.8615 602.2H-78.6316M-72.8615 644.864H-78.6316M-72.8615 687.528H-78.6316M-33.1374 -80.4075H-38.9074M-33.1374 -37.7583H-38.9074M-33.1374 4.91293H-38.9074M-33.1374 47.5768H-38.9074M-33.1374 90.2407H-38.9074M-33.1374 132.912H-38.9074M-33.1374 175.561H-38.9074M-33.1374 218.225H-38.9074M-33.1374 260.896H-38.9074M-33.1374 303.56H-38.9074M-33.1374 346.217H-38.9074M-33.1374 388.881H-38.9074M-33.1374 431.545H-38.9074M-33.1374 474.216H-38.9074M-33.1374 516.88H-38.9074M-33.1374 559.536H-38.9074M-33.1374 602.2H-38.9074M-33.1374 644.864H-38.9074M-33.1374 687.528H-38.9074M6.57998 -80.4075H0.809914M6.57998 -37.7583H0.809914M6.57998 4.91293H0.809914M6.57998 47.5768H0.809914M6.57998 90.2407H0.809914M6.57998 132.912H0.809914M6.57998 175.561H0.809914M6.57998 218.225H0.809914M6.57998 260.896H0.809914M6.57998 303.56H0.809914M6.57998 346.217H0.809914M6.57998 388.881H0.809914M6.57998 431.545H0.809914M6.57998 474.216H0.809914M6.57998 516.88H0.809914M6.57998 559.536H0.809914M6.57998 602.2H0.809914M6.57998 644.864H0.809914M6.57998 687.528H0.809914M46.2973 -80.4075H40.5616M46.3317 -37.7583H40.5616M46.3317 4.91293H40.5616M46.3317 47.5768H40.5616M46.3317 90.2407H40.5616M46.3317 132.912H40.5616M46.3317 175.561H40.5616M46.3317 218.225H40.5616M46.3317 260.896H40.5616M46.3317 303.56H40.5616M46.3317 346.217H40.5616M46.3317 388.881H40.5616M46.3317 431.545H40.5616M46.3317 474.216H40.5616M46.3317 516.88H40.5616M46.3317 559.536H40.5616M46.3317 602.2H40.5616M46.3317 644.864H40.5616M46.3317 687.528H40.5616M86.0215 -80.4075H80.2514M86.0215 -37.7583H80.2514M86.0215 4.91293H80.2514M86.0215 47.5768H80.2514M86.0215 90.2407H80.2514M86.0215 132.912H80.2514M86.0215 175.561H80.2514M86.0215 218.225H80.2514M86.0215 260.896H80.2514M86.0215 303.56H80.2514M86.0215 346.217H80.2514M86.0215 388.881H80.2514M86.0215 431.545H80.2514M86.0215 474.216H80.2514M86.0215 516.88H80.2514M86.0215 559.536H80.2514M86.0215 602.2H80.2514M86.0215 644.864H80.2514M86.0215 687.528H80.2514M125.739 -80.4075H119.969M125.739 -37.7583H119.969M125.739 4.91293H119.969M125.739 47.5768H119.969M125.739 90.2407H119.969M125.739 132.912H119.969M125.739 175.561H119.969M125.739 218.225H119.969M125.739 260.896H119.969M125.739 303.56H119.969M125.739 346.217H119.969M125.739 388.881H119.969M125.739 431.559H119.969M125.739 474.216H119.969M125.739 516.88H119.969M125.739 559.536H119.969M125.739 602.2H119.969M125.739 644.842H119.969M125.739 687.506H119.969M165.456 -80.4075H159.686M165.456 -37.7583H159.686M165.456 4.91293H159.686M165.456 47.5768H159.686M165.456 90.2407H159.686M165.456 132.912H159.686M165.456 175.561H159.686M165.456 218.225H159.686M165.456 260.896H159.686M165.456 303.56H159.686M165.456 346.217H159.686M165.456 388.881H159.686M165.456 431.545H159.686M165.456 474.216H159.686M165.456 516.88H159.686M165.456 559.536H159.686M165.456 602.2H159.686M165.456 644.864H159.686M165.456 687.528H159.686M202.131 -83.5662V-77.3669M202.131 -40.9023V-34.6957M202.131 1.76164V7.95348M202.131 44.4329V50.6764M202.131 87.1485V93.3403M202.131 129.798V136.004M202.131 172.469V178.668M202.131 215.133V221.325M202.131 257.804V263.989M202.131 300.453V306.66M202.131 343.125V349.324V343.117M202.131 385.788V391.988M202.131 428.452V434.644M202.131 471.116V477.315M202.131 513.78V519.987M202.131 556.444V562.651M202.131 599.108V605.3M202.131 641.779V647.971M202.131 684.443V690.598M241.827 -83.5145V-77.3153M241.827 -40.8506V-34.644M241.827 1.8133V8.00514M241.827 44.4846V50.6764M241.827 87.1485V93.3403M241.827 129.798V136.004M241.827 172.469V178.668M241.827 215.133V221.325M241.827 257.804V263.989M241.827 300.453V306.66M241.827 343.125V349.324V343.117M241.827 385.803V392.002M241.827 428.467V434.659M241.827 471.131V477.315M241.827 513.78V519.987M241.827 556.444V562.651M241.827 599.108V605.3M241.827 641.779V647.971M241.827 684.443V690.598M281.545 -83.5662V-77.3669M281.545 -40.9023V-34.6957M281.545 1.76164V7.95348M281.545 44.4329V50.6764M281.545 87.1485V93.3403M281.545 129.798V136.004M281.545 172.469V178.668M281.545 215.133V221.325M281.545 257.804V263.989M281.545 300.453V306.66M281.545 343.125V349.324V343.117M281.545 385.788V391.988M281.545 428.452V434.644M281.545 471.116V477.315M281.545 513.78V519.987M281.545 556.444V562.651M281.545 599.108V605.3M281.545 641.779V647.971M281.545 684.443V690.598M321.262 -83.5662V-77.3669M321.262 -40.9023V-34.6957M321.262 1.76164V7.95348M321.262 44.4329V50.6764M321.262 87.1485V93.3403M321.262 129.798V136.004M321.262 172.469V178.668M321.262 215.133V221.325M321.262 257.804V263.989M321.262 300.453V306.66M321.262 343.125V349.324V343.117M321.262 385.788V391.988M321.262 428.452V434.644M321.262 471.116V477.315M321.262 513.78V519.987M321.262 556.444V562.651M321.262 599.108V605.3M321.262 641.779V647.971M321.262 684.443V690.598M360.986 -83.5662V-77.3669M360.986 -40.9023V-34.6957M360.986 1.76164V7.95348M360.986 44.4329V50.6764M360.986 87.1485V93.3403M360.986 129.798V136.004M360.986 172.469V178.668M360.986 215.133V221.325M360.986 257.804V263.989M360.986 300.453V306.66M360.986 343.125V349.324V343.117M360.986 385.788V391.988M360.986 428.452V434.644M360.986 471.116V477.315M360.986 513.78V519.987M360.986 556.444V562.651M360.986 599.108V605.3M360.986 641.779V647.971M360.986 684.443V690.598M400.703 -83.5662V-77.3669M400.703 -40.9023V-34.6957M400.703 1.76164V7.95348M400.703 44.4329V50.6764M400.703 87.1485V93.3403M400.703 129.798V136.004M400.703 172.469V178.668M400.703 215.133V221.325M400.703 257.804V263.989M400.703 300.453V306.66M400.703 343.125V349.324M400.703 385.788V391.988M400.703 428.452V434.644M400.703 471.116V477.315M400.703 513.78V519.987M400.703 556.444V562.651M400.703 599.108V605.3M400.703 641.779V647.971M400.703 684.443V690.598M440.421 -83.5662V-77.3669M440.421 -40.9023V-34.6957M440.421 1.76164V7.95348M440.421 44.4329V50.6764M440.421 87.1485V93.3403M440.421 129.798V136.004M440.421 172.469V178.668M440.421 215.133V221.325M440.421 257.804V263.989M440.421 300.453V306.66M440.421 343.125V349.324M440.421 385.788V391.988M440.421 428.452V434.644M440.421 471.116V477.315M440.421 513.78V519.987M440.421 556.444V562.651M440.421 599.108V605.3M440.421 641.779V647.971M440.421 684.443V690.598M480.186 -83.5145V-77.3153M480.186 -40.8506V-34.644M480.186 1.8133V8.00514M480.186 44.4846V50.6764V44.4772M480.186 87.1485V93.3403M480.186 129.798V136.004V129.805M480.186 172.469V178.668M480.186 215.133V221.325M480.186 257.804V263.989M480.186 300.453V306.66M480.186 343.125V349.324V343.117M480.186 385.803V392.002M480.186 428.467V434.659M480.186 471.131V477.315M480.186 513.78V519.987M480.186 556.444V562.651M480.186 599.108V605.3M480.186 641.779V647.971M480.186 684.443V690.598V684.414M519.904 -83.5662V-77.3669M519.904 -40.9023V-34.6957M519.904 1.76164V7.95348M519.904 44.4329V50.6764M519.904 87.1485V93.3403M519.904 129.798V136.004M519.904 172.469V178.668M519.904 215.133V221.325M519.904 257.804V263.989M519.904 300.453V306.66M519.904 343.125V349.324M519.904 385.788V391.988M519.904 428.452V434.644M519.904 471.116V477.315V471.065M519.904 513.78V519.987M519.904 556.444V562.651M519.904 599.108V605.3V599.115M519.904 641.779V647.971M519.904 684.443V690.598M559.621 -83.5662V-77.3669M559.621 -40.9023V-34.6957M559.621 1.76164V7.95348M559.621 44.4329V50.6764M559.621 87.1485V93.3403M559.621 129.798V136.004M559.621 172.469V178.668M559.621 215.133V221.325M559.621 257.804V263.989M559.621 300.453V306.66M559.621 343.125V349.324M559.621 385.788V391.988M559.621 428.452V434.644M559.621 471.116V477.315V471.065M559.621 513.78V519.987M559.621 556.444V562.651M559.621 599.108V605.3V599.115M559.621 641.779V647.971M559.621 684.443V690.598M361.014 684.436V690.598M400.731 -83.5662V-77.3669M400.731 -40.9023V-34.6957M400.731 1.76164V7.95348M400.731 44.4255V50.6248M400.731 87.0968V93.2887M400.731 129.753V135.953M400.731 172.417V178.616M400.731 215.081V221.273M400.731 257.752V263.937M400.731 300.402V306.608M400.731 343.065V349.272M400.731 385.737V391.936M400.731 428.401V434.592M400.731 471.065V477.315M400.731 513.78V519.987M400.731 556.444V562.651M400.731 599.115V605.3M400.731 641.779V647.971M400.731 684.443V690.598M440.448 -83.5662V-77.3669M440.448 -40.9023V-34.6957M440.448 1.76164V7.95348M440.448 44.4255V50.6248M440.448 87.0968V93.2887M440.448 129.753V135.953M440.448 172.417V178.616M440.448 215.081V221.273M440.448 257.752V263.937M440.448 300.402V306.608M440.448 343.065V349.272M440.448 385.737V391.936M440.448 428.401V434.592M440.448 471.065V477.315M440.448 513.78V519.987M440.448 556.444V562.651M440.448 599.115V605.3M440.448 641.779V647.971M440.448 684.443V690.598M480.186 599.086V605.27M480.186 641.75V647.942M519.904 44.4255V50.6248M519.904 87.0968V93.2887M519.904 129.753V135.953M519.904 172.417V178.616M519.904 215.081V221.273M519.904 257.752V263.937M519.904 300.402V306.608M519.904 343.065V349.272M519.904 385.737V391.936M519.904 428.401V434.592M559.621 44.4255V50.6248M559.621 87.0968V93.2887M559.621 129.753V135.953M559.621 172.417V178.616M559.621 215.081V221.273M559.621 257.752V263.937M559.621 300.402V306.608M559.621 343.065V349.272M559.621 385.737V391.936M559.621 428.401V434.592M205.016 -80.4075H199.239M205.002 -37.7583H199.239M205.002 4.91293H199.239M205.016 47.5768H199.239M205.002 90.2407H199.239M205.002 132.912H199.239M205.002 175.561H199.239M205.002 218.225H199.239M205.002 260.896H199.239M205.002 303.56H199.239M205.002 346.217H199.239M205.002 388.881H199.239M205.016 431.559H199.239M205.002 474.231H199.239M205.002 516.894H199.239M205.002 559.551H199.239M205.002 602.215H199.239M205.016 644.842H199.239M205.002 687.506H199.239M244.733 -80.4075H238.97M244.733 -37.7583H238.97M244.733 4.91293H238.97M244.733 47.5768H238.97M244.733 90.2407H238.97M244.733 132.912H238.97M244.733 175.561H238.97M244.733 218.225H238.97M244.733 260.896H238.97M244.733 303.56H238.97M244.733 346.217H238.97M244.733 388.881H238.97M244.733 431.559H238.97M244.733 474.231H238.97M244.733 516.894H238.97M244.733 559.551H238.97M244.733 602.215H238.97M244.733 644.842H238.97M244.733 687.506H238.97M284.457 -80.4075H278.687M284.457 -37.7583H278.687M284.457 4.91293H278.687M284.457 47.5768H278.687M284.457 90.2407H278.687M284.457 132.912H278.687M284.457 175.561H278.687M284.457 218.225H278.687M284.457 260.896H278.687M284.457 303.56H278.687M284.457 346.217H278.687M284.457 388.881H278.687M284.457 431.545H278.687M284.457 474.216H278.687M284.457 516.88H278.687M284.457 559.536H278.687M284.457 602.2H278.687M284.457 644.864H278.687M284.457 687.528H278.687M324.174 -80.4075H318.404M324.174 -37.7583H318.404M324.174 4.91293H318.404M324.174 47.5768H318.404M324.174 90.2407H318.404M324.174 132.912H318.404M324.174 175.561H318.404M324.174 218.225H318.404M324.174 260.896H318.404M324.174 303.56H318.404M324.174 346.217H318.404M324.174 388.881H318.404M324.174 431.545H318.404M324.174 474.216H318.404M324.174 516.88H318.404M324.174 559.536H318.404M324.174 602.2H318.404M324.174 644.864H318.404M324.174 687.528H318.404M363.899 -80.4075H358.129M363.899 -37.7583H358.129M363.899 4.91293H358.129M363.899 47.5768H358.129M363.899 90.2407H358.129M363.899 132.912H358.129M363.899 175.561H358.129M363.899 218.225H358.129M363.899 260.896H358.129M363.899 303.56H358.129M363.899 346.217H358.129M363.899 388.881H358.129M363.899 431.545H358.129M363.899 474.216H358.129M363.899 516.88H358.129M363.899 559.536H358.129M363.899 602.2H358.129M363.899 644.864H358.129M363.899 687.528H358.129M403.616 -80.4075H397.846M403.616 -37.7583H397.846M403.616 4.91293H397.846M403.616 47.5768H397.846M403.616 90.2407H397.846M403.616 132.912H397.846M403.616 175.561H397.846M403.616 218.225H397.846M403.616 260.896H397.846M403.616 303.56H397.846M403.616 346.217H397.846M403.616 388.881H397.846M403.616 431.545H397.846M403.616 474.216H397.846M403.616 516.88H397.846M403.616 559.536H397.846M403.616 602.2H397.846M403.616 644.864H397.846M403.616 687.528H397.846M443.333 -80.4075H437.598M443.368 -37.7583H437.598M443.368 4.91293H437.598M443.368 47.5768H437.598M443.368 90.2407H437.598M443.368 132.912H437.598M443.368 175.561H437.598M443.368 218.225H437.598M443.368 260.896H437.598M443.368 303.56H437.598M443.368 346.217H437.598M443.368 388.881H437.598M443.368 431.545H437.598M443.368 474.216H437.598M443.368 516.88H437.598M443.368 559.536H437.598M443.368 602.2H437.598M443.368 644.864H437.598M443.368 687.528H437.598M483.057 -80.4075H477.287M483.057 -37.7583H477.287M483.057 4.91293H477.287M483.057 47.5768H477.287M483.057 90.2407H477.287M483.057 132.912H477.287M483.057 175.561H477.287M483.057 218.225H477.287M483.057 260.896H477.287M483.057 303.56H477.287M483.057 346.217H477.287M483.057 388.881H477.287M483.057 431.545H477.287M483.057 474.216H477.287M483.057 516.88H477.287M483.057 559.536H477.287M483.057 602.2H477.287M483.057 644.864H477.287M483.057 687.528H477.287M522.775 -80.4075H517.005M522.775 -37.7583H517.005M522.775 4.91293H517.005M522.775 47.5768H517.005M522.775 90.2407H517.005M522.775 132.912H517.005M522.775 175.561H517.005M522.775 218.225H517.005M522.775 260.896H517.005M522.775 303.56H517.005M522.775 346.217H517.005M522.775 388.881H517.005M522.775 431.559H517.005M522.775 474.216H517.005M522.775 516.88H517.005M522.775 559.536H517.005M522.775 602.2H517.005M522.775 644.842H517.005M522.775 687.506H517.005M562.492 -80.4075H556.722M562.492 -37.7583H556.722M562.492 4.91293H556.722M562.492 47.5768H556.722M562.492 90.2407H556.722M562.492 132.912H556.722M562.492 175.561H556.722M562.492 218.225H556.722M562.492 260.896H556.722M562.492 303.56H556.722M562.492 346.217H556.722M562.492 388.881H556.722M562.492 431.545H556.722M562.492 474.216H556.722M562.492 516.88H556.722M562.492 559.536H556.722M562.492 602.2H556.722M562.492 644.864H556.722M562.492 687.528H556.722" stroke="#939598" stroke-width="0.83"/>
</g>
<defs>
<clipPath id="clip0_73_169">
<rect width="108" height="291" fill="white" transform="translate(0 0.0939941)"/>
</clipPath>
</defs>
</svg>
