<svg width="755" height="756" viewBox="0 0 755 756" fill="none" xmlns="http://www.w3.org/2000/svg">
<g clip-path="url(#clip0_60_163)">
<path d="M5.37368 1328.21V1339.54M5.37368 1406.32V1417.6V1406.33M78.0877 0.269043V11.6185M78.0877 78.3776V89.7405M78.0877 156.486V167.822M78.0877 234.608V246.039M78.0877 312.811V324.147M78.0877 390.893V402.256M78.0877 469.015V480.364M78.0877 547.123V558.459M78.0877 625.245V636.568M78.0877 703.327V714.69M78.0877 781.449V792.798V781.436M78.0877 859.557V870.907M78.0877 937.666V949.002M78.0877 1015.77V1027.12M78.0877 1093.88V1105.25M78.0877 1171.99V1183.35M78.0877 1250.1V1261.44M78.0877 1328.22V1339.56M78.0877 1406.33V1417.6M150.764 0.363632V11.7131M150.764 78.4722V89.8351M150.764 156.581V167.917M150.764 234.703V246.039M150.764 312.811V324.147M150.764 390.893V402.256M150.764 469.015V480.364M150.764 547.123V558.459M150.764 625.245V636.568M150.764 703.327V714.69M150.764 781.449V792.798V781.436M150.764 859.585V870.934M150.764 937.693V949.029M150.764 1015.8V1027.12M150.764 1093.88V1105.25M150.764 1171.99V1183.35M150.764 1250.1V1261.44M150.764 1328.22V1339.56M150.764 1406.33V1417.6M223.478 0.269043V11.6185M223.478 78.3776V89.7405M223.478 156.486V167.822M223.478 234.608V246.039M223.478 312.811V324.147M223.478 390.893V402.256M223.478 469.015V480.364M223.478 547.123V558.459M223.478 625.245V636.568M223.478 703.327V714.69M223.478 781.449V792.798V781.436M223.478 859.557V870.907M223.478 937.666V949.002M223.478 1015.77V1027.12M223.478 1093.88V1105.25M223.478 1171.99V1183.35M223.478 1250.1V1261.44M223.478 1328.22V1339.56M223.478 1406.33V1417.6M296.192 0.269043V11.6185M296.192 78.3776V89.7405M296.192 156.486V167.822M296.192 234.608V246.039M296.192 312.811V324.147M296.192 390.893V402.256M296.192 469.015V480.364M296.192 547.123V558.459M296.192 625.245V636.568M296.192 703.327V714.69M296.192 781.449V792.798V781.436M296.192 859.557V870.907M296.192 937.666V949.002M296.192 1015.77V1027.12M296.192 1093.88V1105.25M296.192 1171.99V1183.35M296.192 1250.1V1261.44M296.192 1328.22V1339.56M296.192 1406.33V1417.6M368.919 0.269043V11.6185M368.919 78.3776V89.7405M368.919 156.486V167.822M368.919 234.608V246.039M368.919 312.811V324.147M368.919 390.893V402.256M368.919 469.015V480.364M368.919 547.123V558.459M368.919 625.245V636.568M368.919 703.327V714.69M368.919 781.449V792.798V781.436M368.919 859.557V870.907M368.919 937.666V949.002M368.919 1015.77V1027.12M368.919 1093.88V1105.25M368.919 1171.99V1183.35M368.919 1250.1V1261.44M368.919 1328.22V1339.56M368.919 1406.33V1417.6M441.633 0.269043V11.6185M441.633 78.3776V89.7405M441.633 156.486V167.822M441.633 234.608V246.039M441.633 312.811V324.147M441.633 390.893V402.256M441.633 469.015V480.364M441.633 547.123V558.459M441.633 625.245V636.568M441.633 703.327V714.69M441.633 781.449V792.798M441.633 859.557V870.907M441.633 937.666V949.002M441.633 1015.77V1027.12M441.633 1093.88V1105.25M441.633 1171.99V1183.35M441.633 1250.1V1261.44M441.633 1328.22V1339.56M441.633 1406.33V1417.6M514.346 0.269043V11.6185M514.346 78.3776V89.7405M514.346 156.486V167.822M514.346 234.608V246.039M514.346 312.811V324.147M514.346 390.893V402.256M514.346 469.015V480.364M514.346 547.123V558.459M514.346 625.245V636.568M514.346 703.327V714.69M514.346 781.449V792.798M514.346 859.557V870.907M514.346 937.666V949.002M514.346 1015.77V1027.12M514.346 1093.88V1105.25M514.346 1171.99V1183.35M514.346 1250.1V1261.44M514.346 1328.22V1339.56M514.346 1406.33V1417.6M587.149 0.363632V11.7131M587.149 78.4722V89.8351M587.149 156.581V167.917M587.149 234.703V246.039V234.689M587.149 312.811V324.147M587.149 390.893V402.256V390.906M587.149 469.015V480.364M587.149 547.123V558.459M587.149 625.245V636.568M587.149 703.327V714.69M587.149 781.449V792.798V781.436M587.149 859.585V870.934M587.149 937.693V949.029M587.149 1015.8V1027.12M587.149 1093.88V1105.25M587.149 1171.99V1183.35M587.149 1250.1V1261.44M587.149 1328.22V1339.56M587.149 1406.33V1417.6V1406.28M659.863 0.269043V11.6185M659.863 78.3776V89.7405M659.863 156.486V167.822M659.863 234.608V246.039M659.863 312.811V324.147M659.863 390.893V402.256M659.863 469.015V480.364M659.863 547.123V558.459M659.863 625.245V636.568M659.863 703.327V714.69M659.863 781.449V792.798M659.863 859.557V870.907M659.863 937.666V949.002M659.863 1015.77V1027.12V1015.68M659.863 1093.88V1105.25M659.863 1171.99V1183.35M659.863 1250.1V1261.44V1250.11M659.863 1328.22V1339.56M659.863 1406.33V1417.6M732.577 0.269043V11.6185M732.577 78.3776V89.7405M732.577 156.486V167.822M732.577 234.608V246.039M732.577 312.811V324.147M732.577 390.893V402.256M732.577 469.015V480.364M732.577 547.123V558.459M732.577 625.245V636.568M732.577 703.327V714.69M732.577 781.449V792.798M732.577 859.557V870.907M732.577 937.666V949.002M732.577 1015.77V1027.12V1015.68M732.577 1093.88V1105.25M732.577 1171.99V1183.35M732.577 1250.1V1261.44V1250.11M732.577 1328.22V1339.56M732.577 1406.33V1417.6M5.37368 0.363632V11.7131M5.37368 78.4722V89.8351M5.37368 156.581V167.917M5.37368 234.703V246.039M5.37368 312.811V324.147M5.37368 390.893V402.256M5.37368 469.015V480.364M5.37368 547.123V558.459M5.37368 625.245V636.568M5.37368 703.327V714.69M5.37368 781.436V792.798M5.37368 859.557V870.907M5.37368 937.666V949.002M5.37368 1015.77V1027.12M5.37368 1093.88V1105.25M5.37368 1171.99V1183.35M5.37368 1250.1V1261.44M5.37368 1328.22V1339.56M368.969 1406.32V1417.6M441.683 0.269043V11.6185M441.683 78.3776V89.7405M441.683 156.486V167.822M441.683 234.595V245.944M441.683 312.717V324.053M441.683 390.812V402.161M441.683 468.92V480.27M441.683 547.029V558.365M441.683 625.151V636.473M441.683 703.232V714.595M441.683 781.341V792.704M441.683 859.463V870.812M441.683 937.571V948.907M441.683 1015.68V1027.12M441.683 1093.88V1105.25M441.683 1171.99V1183.35M441.683 1250.11V1261.44M441.683 1328.22V1339.56M441.683 1406.33V1417.6M514.397 0.269043V11.6185M514.397 78.3776V89.7405M514.397 156.486V167.822M514.397 234.595V245.944M514.397 312.717V324.053M514.397 390.812V402.161M514.397 468.92V480.27M514.397 547.029V558.365M514.397 625.151V636.473M514.397 703.232V714.595M514.397 781.341V792.704M514.397 859.463V870.812M514.397 937.571V948.907M514.397 1015.68V1027.12M514.397 1093.88V1105.25M514.397 1171.99V1183.35M514.397 1250.11V1261.44M514.397 1328.22V1339.56M514.397 1406.33V1417.6M587.149 1250.06V1261.38M587.149 1328.17V1339.5M659.863 234.595V245.944M659.863 312.717V324.053M659.863 390.812V402.161M659.863 468.92V480.27M659.863 547.029V558.365M659.863 625.151V636.473M659.863 703.232V714.595M659.863 781.341V792.704M659.863 859.463V870.812M659.863 937.571V948.907M732.577 234.595V245.944M732.577 312.717V324.053M732.577 390.812V402.161M732.577 468.92V480.27M732.577 547.029V558.365M732.577 625.151V636.473M732.577 703.232V714.595M732.577 781.341V792.704M732.577 859.463V870.812M732.577 937.571V948.907M10.6556 6.05186H0.0917969M10.6556 84.1334H0.0917969M10.6556 162.255H0.0917969M10.6556 240.364H0.0917969M10.6556 318.473H0.0917969M10.6556 396.595H0.0917969M10.6556 474.676H0.0917969M10.6556 552.785H0.0917969M10.6556 630.907H0.0917969M10.6556 709.015H0.0917969M10.6556 787.11H0.0917969M10.6556 865.219H0.0917969M10.6556 943.354H0.0917969M10.6556 1021.48H0.0917969M10.6556 1099.58H0.0917969M10.6556 1177.68H0.0917969M10.6556 1255.79H0.0917969M10.6556 1333.83H0.0917969M10.6556 1411.94H0.0917969M83.3696 6.0519H72.7932M83.3444 84.1334H72.7932M83.3444 162.255H72.7932M83.3696 240.364H72.7932M83.3444 318.473H72.7932M83.3444 396.595H72.7932M83.3444 474.676H72.7932M83.3444 552.785H72.7932M83.3444 630.907H72.7932M83.3444 709.015H72.7932M83.3444 787.11H72.7932M83.3444 865.219H72.7932M83.3696 943.354H72.7932M83.3444 1021.48H72.7932M83.3444 1099.58H72.7932M83.3444 1177.68H72.7932M83.3444 1255.79H72.7932M83.3696 1333.83H72.7932M83.3444 1411.94H72.7932M156.084 6.0519H145.532M156.084 84.1334H145.532M156.084 162.255H145.532M156.084 240.364H145.532M156.084 318.473H145.532M156.084 396.595H145.532M156.084 474.676H145.532M156.084 552.785H145.532M156.084 630.907H145.532M156.084 709.015H145.532M156.084 787.11H145.532M156.084 865.219H145.532M156.084 943.354H145.532M156.084 1021.48H145.532M156.084 1099.58H145.532M156.084 1177.68H145.532M156.084 1255.79H145.532M156.084 1333.83H145.532M156.084 1411.94H145.532M228.81 6.0519H218.246M228.81 84.1334H218.246M228.81 162.255H218.246M228.81 240.364H218.246M228.81 318.473H218.246M228.81 396.595H218.246M228.81 474.676H218.246M228.81 552.785H218.246M228.81 630.907H218.246M228.81 709.015H218.246M228.81 787.11H218.246M228.81 865.219H218.246M228.81 943.327H218.246M228.81 1021.45H218.246M228.81 1099.56H218.246M228.81 1177.65H218.246M228.81 1255.76H218.246M228.81 1333.87H218.246M228.81 1411.98H218.246M301.524 6.0519H290.96M301.524 84.1334H290.96M301.524 162.255H290.96M301.524 240.364H290.96M301.524 318.473H290.96M301.524 396.595H290.96M301.524 474.676H290.96M301.524 552.785H290.96M301.524 630.907H290.96M301.524 709.015H290.96M301.524 787.11H290.96M301.524 865.219H290.96M301.524 943.327H290.96M301.524 1021.45H290.96M301.524 1099.56H290.96M301.524 1177.65H290.96M301.524 1255.76H290.96M301.524 1333.87H290.96M301.524 1411.98H290.96M374.251 6.0519H363.687M374.251 84.1334H363.687M374.251 162.255H363.687M374.251 240.364H363.687M374.251 318.473H363.687M374.251 396.595H363.687M374.251 474.676H363.687M374.251 552.785H363.687M374.251 630.907H363.687M374.251 709.015H363.687M374.251 787.11H363.687M374.251 865.219H363.687M374.251 943.327H363.687M374.251 1021.45H363.687M374.251 1099.56H363.687M374.251 1177.65H363.687M374.251 1255.76H363.687M374.251 1333.87H363.687M374.251 1411.98H363.687M446.965 6.0519H436.401M446.965 84.1334H436.401M446.965 162.255H436.401M446.965 240.364H436.401M446.965 318.473H436.401M446.965 396.595H436.401M446.965 474.676H436.401M446.965 552.785H436.401M446.965 630.907H436.401M446.965 709.015H436.401M446.965 787.11H436.401M446.965 865.219H436.401M446.965 943.327H436.401M446.965 1021.45H436.401M446.965 1099.56H436.401M446.965 1177.65H436.401M446.965 1255.76H436.401M446.965 1333.87H436.401M446.965 1411.98H436.401M519.679 6.0519H509.178M519.742 84.1334H509.178M519.742 162.255H509.178M519.742 240.364H509.178M519.742 318.473H509.178M519.742 396.595H509.178M519.742 474.676H509.178M519.742 552.785H509.178M519.742 630.907H509.178M519.742 709.015H509.178M519.742 787.11H509.178M519.742 865.219H509.178M519.742 943.327H509.178M519.742 1021.45H509.178M519.742 1099.56H509.178M519.742 1177.65H509.178M519.742 1255.76H509.178M519.742 1333.87H509.178M519.742 1411.98H509.178M592.405 6.0519H581.841M592.405 84.1334H581.841M592.405 162.255H581.841M592.405 240.364H581.841M592.405 318.473H581.841M592.405 396.595H581.841M592.405 474.676H581.841M592.405 552.785H581.841M592.405 630.907H581.841M592.405 709.015H581.841M592.405 787.11H581.841M592.405 865.219H581.841M592.405 943.327H581.841M592.405 1021.45H581.841M592.405 1099.56H581.841M592.405 1177.65H581.841M592.405 1255.76H581.841M592.405 1333.87H581.841M592.405 1411.98H581.841M665.119 6.0519H654.555M665.119 84.1334H654.555M665.119 162.255H654.555M665.119 240.364H654.555M665.119 318.473H654.555M665.119 396.595H654.555M665.119 474.676H654.555M665.119 552.785H654.555M665.119 630.907H654.555M665.119 709.015H654.555M665.119 787.11H654.555M665.119 865.219H654.555M665.119 943.354H654.555M665.119 1021.45H654.555M665.119 1099.56H654.555M665.119 1177.65H654.555M665.119 1255.76H654.555M665.119 1333.83H654.555M665.119 1411.94H654.555M737.833 6.0519H727.269M737.833 84.1334H727.269M737.833 162.255H727.269M737.833 240.364H727.269M737.833 318.473H727.269M737.833 396.595H727.269M737.833 474.676H727.269M737.833 552.785H727.269M737.833 630.907H727.269M737.833 709.015H727.269M737.833 787.11H727.269M737.833 865.219H727.269M737.833 943.327H727.269M737.833 1021.45H727.269M737.833 1099.56H727.269M737.833 1177.65H727.269M737.833 1255.76H727.269M737.833 1333.87H727.269M737.833 1411.98H727.269M804.976 0.269043V11.6185M804.976 78.3776V89.7405M804.976 156.486V167.822M804.976 234.608V246.039M804.976 312.811V324.147M804.976 390.893V402.256M804.976 469.015V480.364M804.976 547.123V558.459M804.976 625.245V636.568M804.976 703.327V714.69M804.976 781.449V792.798V781.436M804.976 859.557V870.907M804.976 937.666V949.002M804.976 1015.77V1027.12M804.976 1093.88V1105.25M804.976 1171.99V1183.35M804.976 1250.1V1261.44M804.976 1328.22V1339.56M804.976 1406.33V1417.6M877.652 0.363632V11.7131M877.652 78.4722V89.8351M877.652 156.581V167.917M877.652 234.703V246.039M877.652 312.811V324.147M877.652 390.893V402.256M877.652 469.015V480.364M877.652 547.123V558.459M877.652 625.245V636.568M877.652 703.327V714.69M877.652 781.449V792.798V781.436M877.652 859.585V870.934M877.652 937.693V949.029M877.652 1015.8V1027.12M877.652 1093.88V1105.25M877.652 1171.99V1183.35M877.652 1250.1V1261.44M877.652 1328.22V1339.56M877.652 1406.33V1417.6M950.366 0.269043V11.6185M950.366 78.3776V89.7405M950.366 156.486V167.822M950.366 234.608V246.039M950.366 312.811V324.147M950.366 390.893V402.256M950.366 469.015V480.364M950.366 547.123V558.459M950.366 625.245V636.568M950.366 703.327V714.69M950.366 781.449V792.798V781.436M950.366 859.557V870.907M950.366 937.666V949.002M950.366 1015.77V1027.12M950.366 1093.88V1105.25M950.366 1171.99V1183.35M950.366 1250.1V1261.44M950.366 1328.22V1339.56M950.366 1406.33V1417.6M1023.08 0.269043V11.6185M1023.08 78.3776V89.7405M1023.08 156.486V167.822M1023.08 234.608V246.039M1023.08 312.811V324.147M1023.08 390.893V402.256M1023.08 469.015V480.364M1023.08 547.123V558.459M1023.08 625.245V636.568M1023.08 703.327V714.69M1023.08 781.449V792.798V781.436M1023.08 859.557V870.907M1023.08 937.666V949.002M1023.08 1015.77V1027.12M1023.08 1093.88V1105.25M1023.08 1171.99V1183.35M1023.08 1250.1V1261.44M1023.08 1328.22V1339.56M1023.08 1406.33V1417.6M1095.81 0.269043V11.6185M1095.81 78.3776V89.7405M1095.81 156.486V167.822M1095.81 234.608V246.039M1095.81 312.811V324.147M1095.81 390.893V402.256M1095.81 469.015V480.364M1095.81 547.123V558.459M1095.81 625.245V636.568M1095.81 703.327V714.69M1095.81 781.449V792.798V781.436M1095.81 859.557V870.907M1095.81 937.666V949.002M1095.81 1015.77V1027.12M1095.81 1093.88V1105.25M1095.81 1171.99V1183.35M1095.81 1250.1V1261.44M1095.81 1328.22V1339.56M1095.81 1406.33V1417.6M1168.52 0.269043V11.6185M1168.52 78.3776V89.7405M1168.52 156.486V167.822M1168.52 234.608V246.039M1168.52 312.811V324.147M1168.52 390.893V402.256M1168.52 469.015V480.364M1168.52 547.123V558.459M1168.52 625.245V636.568M1168.52 703.327V714.69M1168.52 781.449V792.798M1168.52 859.557V870.907M1168.52 937.666V949.002M1168.52 1015.77V1027.12M1168.52 1093.88V1105.25M1168.52 1171.99V1183.35M1168.52 1250.1V1261.44M1168.52 1328.22V1339.56M1168.52 1406.33V1417.6M1241.23 0.269043V11.6185M1241.23 78.3776V89.7405M1241.23 156.486V167.822M1241.23 234.608V246.039M1241.23 312.811V324.147M1241.23 390.893V402.256M1241.23 469.015V480.364M1241.23 547.123V558.459M1241.23 625.245V636.568M1241.23 703.327V714.69M1241.23 781.449V792.798M1241.23 859.557V870.907M1241.23 937.666V949.002M1241.23 1015.77V1027.12M1241.23 1093.88V1105.25M1241.23 1171.99V1183.35M1241.23 1250.1V1261.44M1241.23 1328.22V1339.56M1241.23 1406.33V1417.6M1314.04 0.363632V11.7131M1314.04 78.4722V89.8351M1314.04 156.581V167.917M1314.04 234.703V246.039V234.689M1314.04 312.811V324.147M1314.04 390.893V402.256V390.906M1314.04 469.015V480.364M1314.04 547.123V558.459M1314.04 625.245V636.568M1314.04 703.327V714.69M1314.04 781.449V792.798V781.436M1314.04 859.585V870.934M1314.04 937.693V949.029M1314.04 1015.8V1027.12M1314.04 1093.88V1105.25M1314.04 1171.99V1183.35M1314.04 1250.1V1261.44M1314.04 1328.22V1339.56M1314.04 1406.33V1417.6V1406.28M1386.75 0.269043V11.6185M1386.75 78.3776V89.7405M1386.75 156.486V167.822M1386.75 234.608V246.039M1386.75 312.811V324.147M1386.75 390.893V402.256M1386.75 469.015V480.364M1386.75 547.123V558.459M1386.75 625.245V636.568M1386.75 703.327V714.69M1386.75 781.449V792.798M1386.75 859.557V870.907M1386.75 937.666V949.002M1386.75 1015.77V1027.12V1015.68M1386.75 1093.88V1105.25M1386.75 1171.99V1183.35M1386.75 1250.1V1261.44V1250.11M1386.75 1328.22V1339.56M1386.75 1406.33V1417.6M1459.47 0.269043V11.6185M1459.47 78.3776V89.7405M1459.47 156.486V167.822M1459.47 234.608V246.039M1459.47 312.811V324.147M1459.47 390.893V402.256M1459.47 469.015V480.364M1459.47 547.123V558.459M1459.47 625.245V636.568M1459.47 703.327V714.69M1459.47 781.449V792.798M1459.47 859.557V870.907M1459.47 937.666V949.002M1459.47 1015.77V1027.12V1015.68M1459.47 1093.88V1105.25M1459.47 1171.99V1183.35M1459.47 1250.1V1261.44V1250.11M1459.47 1328.22V1339.56M1459.47 1406.33V1417.6M1095.86 1406.32V1417.6M1168.57 0.269043V11.6185M1168.57 78.3776V89.7405M1168.57 156.486V167.822M1168.57 234.595V245.944M1168.57 312.717V324.053M1168.57 390.812V402.161M1168.57 468.92V480.27M1168.57 547.029V558.365M1168.57 625.151V636.473M1168.57 703.232V714.595M1168.57 781.341V792.704M1168.57 859.463V870.812M1168.57 937.571V948.907M1168.57 1015.68V1027.12M1168.57 1093.88V1105.25M1168.57 1171.99V1183.35M1168.57 1250.11V1261.44M1168.57 1328.22V1339.56M1168.57 1406.33V1417.6M1241.29 0.269043V11.6185M1241.29 78.3776V89.7405M1241.29 156.486V167.822M1241.29 234.595V245.944M1241.29 312.717V324.053M1241.29 390.812V402.161M1241.29 468.92V480.27M1241.29 547.029V558.365M1241.29 625.151V636.473M1241.29 703.232V714.595M1241.29 781.341V792.704M1241.29 859.463V870.812M1241.29 937.571V948.907M1241.29 1015.68V1027.12M1241.29 1093.88V1105.25M1241.29 1171.99V1183.35M1241.29 1250.11V1261.44M1241.29 1328.22V1339.56M1241.29 1406.33V1417.6M1314.04 1250.06V1261.38M1314.04 1328.17V1339.5M1386.75 234.595V245.944M1386.75 312.717V324.053M1386.75 390.812V402.161M1386.75 468.92V480.27M1386.75 547.029V558.365M1386.75 625.151V636.473M1386.75 703.232V714.595M1386.75 781.341V792.704M1386.75 859.463V870.812M1386.75 937.571V948.907M1459.47 234.595V245.944M1459.47 312.717V324.053M1459.47 390.812V402.161M1459.47 468.92V480.27M1459.47 547.029V558.365M1459.47 625.151V636.473M1459.47 703.232V714.595M1459.47 781.341V792.704M1459.47 859.463V870.812M1459.47 937.571V948.907M810.258 6.0519H799.682M810.233 84.1334H799.682M810.233 162.255H799.682M810.258 240.364H799.682M810.233 318.473H799.682M810.233 396.595H799.682M810.233 474.676H799.682M810.233 552.785H799.682M810.233 630.907H799.682M810.233 709.015H799.682M810.233 787.11H799.682M810.233 865.219H799.682M810.258 943.354H799.682M810.233 1021.48H799.682M810.233 1099.58H799.682M810.233 1177.68H799.682M810.233 1255.79H799.682M810.258 1333.83H799.682M810.233 1411.94H799.682M882.972 6.0519H872.421M882.972 84.1334H872.421M882.972 162.255H872.421M882.972 240.364H872.421M882.972 318.473H872.421M882.972 396.595H872.421M882.972 474.676H872.421M882.972 552.785H872.421M882.972 630.907H872.421M882.972 709.015H872.421M882.972 787.11H872.421M882.972 865.219H872.421M882.972 943.354H872.421M882.972 1021.48H872.421M882.972 1099.58H872.421M882.972 1177.68H872.421M882.972 1255.79H872.421M882.972 1333.83H872.421M882.972 1411.94H872.421M955.699 6.0519H945.135M955.699 84.1334H945.135M955.699 162.255H945.135M955.699 240.364H945.135M955.699 318.473H945.135M955.699 396.595H945.135M955.699 474.676H945.135M955.699 552.785H945.135M955.699 630.907H945.135M955.699 709.015H945.135M955.699 787.11H945.135M955.699 865.219H945.135M955.699 943.327H945.135M955.699 1021.45H945.135M955.699 1099.56H945.135M955.699 1177.65H945.135M955.699 1255.76H945.135M955.699 1333.87H945.135M955.699 1411.98H945.135M1028.41 6.0519H1017.85M1028.41 84.1334H1017.85M1028.41 162.255H1017.85M1028.41 240.364H1017.85M1028.41 318.473H1017.85M1028.41 396.595H1017.85M1028.41 474.676H1017.85M1028.41 552.785H1017.85M1028.41 630.907H1017.85M1028.41 709.015H1017.85M1028.41 787.11H1017.85M1028.41 865.219H1017.85M1028.41 943.327H1017.85M1028.41 1021.45H1017.85M1028.41 1099.56H1017.85M1028.41 1177.65H1017.85M1028.41 1255.76H1017.85M1028.41 1333.87H1017.85M1028.41 1411.98H1017.85M1101.14 6.0519H1090.58M1101.14 84.1334H1090.58M1101.14 162.255H1090.58M1101.14 240.364H1090.58M1101.14 318.473H1090.58M1101.14 396.595H1090.58M1101.14 474.676H1090.58M1101.14 552.785H1090.58M1101.14 630.907H1090.58M1101.14 709.015H1090.58M1101.14 787.11H1090.58M1101.14 865.219H1090.58M1101.14 943.327H1090.58M1101.14 1021.45H1090.58M1101.14 1099.56H1090.58M1101.14 1177.65H1090.58M1101.14 1255.76H1090.58M1101.14 1333.87H1090.58M1101.14 1411.98H1090.58M1173.85 6.0519H1163.29M1173.85 84.1334H1163.29M1173.85 162.255H1163.29M1173.85 240.364H1163.29M1173.85 318.473H1163.29M1173.85 396.595H1163.29M1173.85 474.676H1163.29M1173.85 552.785H1163.29M1173.85 630.907H1163.29M1173.85 709.015H1163.29M1173.85 787.11H1163.29M1173.85 865.219H1163.29M1173.85 943.327H1163.29M1173.85 1021.45H1163.29M1173.85 1099.56H1163.29M1173.85 1177.65H1163.29M1173.85 1255.76H1163.29M1173.85 1333.87H1163.29M1173.85 1411.98H1163.29M1246.57 6.0519H1236.07M1246.63 84.1334H1236.07M1246.63 162.255H1236.07M1246.63 240.364H1236.07M1246.63 318.473H1236.07M1246.63 396.595H1236.07M1246.63 474.676H1236.07M1246.63 552.785H1236.07M1246.63 630.907H1236.07M1246.63 709.015H1236.07M1246.63 787.11H1236.07M1246.63 865.219H1236.07M1246.63 943.327H1236.07M1246.63 1021.45H1236.07M1246.63 1099.56H1236.07M1246.63 1177.65H1236.07M1246.63 1255.76H1236.07M1246.63 1333.87H1236.07M1246.63 1411.98H1236.07M1319.29 6.0519H1308.73M1319.29 84.1334H1308.73M1319.29 162.255H1308.73M1319.29 240.364H1308.73M1319.29 318.473H1308.73M1319.29 396.595H1308.73M1319.29 474.676H1308.73M1319.29 552.785H1308.73M1319.29 630.907H1308.73M1319.29 709.015H1308.73M1319.29 787.11H1308.73M1319.29 865.219H1308.73M1319.29 943.327H1308.73M1319.29 1021.45H1308.73M1319.29 1099.56H1308.73M1319.29 1177.65H1308.73M1319.29 1255.76H1308.73M1319.29 1333.87H1308.73M1319.29 1411.98H1308.73M1392.01 6.0519H1381.44M1392.01 84.1334H1381.44M1392.01 162.255H1381.44M1392.01 240.364H1381.44M1392.01 318.473H1381.44M1392.01 396.595H1381.44M1392.01 474.676H1381.44M1392.01 552.785H1381.44M1392.01 630.907H1381.44M1392.01 709.015H1381.44M1392.01 787.11H1381.44M1392.01 865.219H1381.44M1392.01 943.354H1381.44M1392.01 1021.45H1381.44M1392.01 1099.56H1381.44M1392.01 1177.65H1381.44M1392.01 1255.76H1381.44M1392.01 1333.83H1381.44M1392.01 1411.94H1381.44M1464.72 6.0519H1454.16M1464.72 84.1334H1454.16M1464.72 162.255H1454.16M1464.72 240.364H1454.16M1464.72 318.473H1454.16M1464.72 396.595H1454.16M1464.72 474.676H1454.16M1464.72 552.785H1454.16M1464.72 630.907H1454.16M1464.72 709.015H1454.16M1464.72 787.11H1454.16M1464.72 865.219H1454.16M1464.72 943.327H1454.16M1464.72 1021.45H1454.16M1464.72 1099.56H1454.16M1464.72 1177.65H1454.16M1464.72 1255.76H1454.16M1464.72 1333.87H1454.16M1464.72 1411.98H1454.16" stroke="#939598" stroke-width="0.83"/>
</g>
<defs>
<clipPath id="clip0_60_163">
<rect width="960" height="1286" fill="white" transform="translate(0 0.931641)"/>
</clipPath>
</defs>
</svg>
