<svg width="90" height="292" viewBox="0 0 90 292" fill="none" xmlns="http://www.w3.org/2000/svg">
<g clip-path="url(#clip0_80_114)">
<path d="M-234.14 642.133V648.325M-234.14 684.797V690.959V684.804M-194.423 -83.2051V-77.0059M-194.423 -40.5412V-34.3346M-194.423 2.12272V8.31456M-194.423 44.794V51.0375M-194.423 87.5096V93.7014M-194.423 130.159V136.365M-194.423 172.83V179.029M-194.423 215.494V221.686M-194.423 258.165V264.35M-194.423 300.814V307.021M-194.423 343.486V349.685V343.478M-194.423 386.149V392.349M-194.423 428.813V435.005M-194.423 471.477V477.676M-194.423 514.141V520.348M-194.423 556.805V563.012M-194.423 599.469V605.661M-194.423 642.14V648.332M-194.423 684.804V690.959M-154.726 -83.1534V-76.9542M-154.726 -40.4895V-34.2829M-154.726 2.17438V8.36622M-154.726 44.8457V51.0375M-154.726 87.5096V93.7014M-154.726 130.159V136.365M-154.726 172.83V179.029M-154.726 215.494V221.686M-154.726 258.165V264.35M-154.726 300.814V307.021M-154.726 343.486V349.685V343.478M-154.726 386.164V392.363M-154.726 428.828V435.02M-154.726 471.492V477.676M-154.726 514.141V520.348M-154.726 556.805V563.012M-154.726 599.469V605.661M-154.726 642.14V648.332M-154.726 684.804V690.959M-115.009 -83.2051V-77.0059M-115.009 -40.5412V-34.3346M-115.009 2.12272V8.31456M-115.009 44.794V51.0375M-115.009 87.5096V93.7014M-115.009 130.159V136.365M-115.009 172.83V179.029M-115.009 215.494V221.686M-115.009 258.165V264.35M-115.009 300.814V307.021M-115.009 343.486V349.685V343.478M-115.009 386.149V392.349M-115.009 428.813V435.005M-115.009 471.477V477.676M-115.009 514.141V520.348M-115.009 556.805V563.012M-115.009 599.469V605.661M-115.009 642.14V648.332M-115.009 684.804V690.959M-75.2916 -83.2051V-77.0059M-75.2916 -40.5412V-34.3346M-75.2916 2.12272V8.31456M-75.2916 44.794V51.0375M-75.2916 87.5096V93.7014M-75.2916 130.159V136.365M-75.2916 172.83V179.029M-75.2916 215.494V221.686M-75.2916 258.165V264.35M-75.2916 300.814V307.021M-75.2916 343.486V349.685V343.478M-75.2916 386.149V392.349M-75.2916 428.813V435.005M-75.2916 471.477V477.676M-75.2916 514.141V520.348M-75.2916 556.805V563.012M-75.2916 599.469V605.661M-75.2916 642.14V648.332M-75.2916 684.804V690.959M-35.5674 -83.2051V-77.0059M-35.5674 -40.5412V-34.3346M-35.5674 2.12272V8.31456M-35.5674 44.794V51.0375M-35.5674 87.5096V93.7014M-35.5674 130.159V136.365M-35.5674 172.83V179.029M-35.5674 215.494V221.686M-35.5674 258.165V264.35M-35.5674 300.814V307.021M-35.5674 343.486V349.685V343.478M-35.5674 386.149V392.349M-35.5674 428.813V435.005M-35.5674 471.477V477.676M-35.5674 514.141V520.348M-35.5674 556.805V563.012M-35.5674 599.469V605.661M-35.5674 642.14V648.332M-35.5674 684.804V690.959M4.14992 -83.2051V-77.0059M4.14992 -40.5412V-34.3346M4.14992 2.12272V8.31456M4.14992 44.794V51.0375M4.14992 87.5096V93.7014M4.14992 130.159V136.365M4.14992 172.83V179.029M4.14992 215.494V221.686M4.14992 258.165V264.35M4.14992 300.814V307.021M4.14992 343.486V349.685M4.14992 386.149V392.349M4.14992 428.813V435.005M4.14992 471.477V477.676M4.14992 514.141V520.348M4.14992 556.805V563.012M4.14992 599.469V605.661M4.14992 642.14V648.332M4.14992 684.804V690.959M43.8672 -83.2051V-77.0059M43.8672 -40.5412V-34.3346M43.8672 2.12272V8.31456M43.8672 44.794V51.0375M43.8672 87.5096V93.7014M43.8672 130.159V136.365M43.8672 172.83V179.029M43.8672 215.494V221.686M43.8672 258.165V264.35M43.8672 300.814V307.021M43.8672 343.486V349.685M43.8672 386.149V392.349M43.8672 428.813V435.005M43.8672 471.477V477.676M43.8672 514.141V520.348M43.8672 556.805V563.012M43.8672 599.469V605.661M43.8672 642.14V648.332M43.8672 684.804V690.959M83.6326 -83.1534V-76.9542M83.6326 -40.4895V-34.2829M83.6326 2.17438V8.36622M83.6326 44.8457V51.0375V44.8383M83.6326 87.5096V93.7014M83.6326 130.159V136.365V130.166M83.6326 172.83V179.029M83.6326 215.494V221.686M83.6326 258.165V264.35M83.6326 300.814V307.021M83.6326 343.486V349.685V343.478M83.6326 386.164V392.363M83.6326 428.828V435.02M83.6326 471.492V477.676M83.6326 514.141V520.348M83.6326 556.805V563.012M83.6326 599.469V605.661M83.6326 642.14V648.332M83.6326 684.804V690.959V684.775M123.35 -83.2051V-77.0059M123.35 -40.5412V-34.3346M123.35 2.12272V8.31456M123.35 44.794V51.0375M123.35 87.5096V93.7014M123.35 130.159V136.365M123.35 172.83V179.029M123.35 215.494V221.686M123.35 258.165V264.35M123.35 300.814V307.021M123.35 343.486V349.685M123.35 386.149V392.349M123.35 428.813V435.005M123.35 471.477V477.676V471.426M123.35 514.141V520.348M123.35 556.805V563.012M123.35 599.469V605.661V599.476M123.35 642.14V648.332M123.35 684.804V690.959M163.067 -83.2051V-77.0059M163.067 -40.5412V-34.3346M163.067 2.12272V8.31456M163.067 44.794V51.0375M163.067 87.5096V93.7014M163.067 130.159V136.365M163.067 172.83V179.029M163.067 215.494V221.686M163.067 258.165V264.35M163.067 300.814V307.021M163.067 343.486V349.685M163.067 386.149V392.349M163.067 428.813V435.005M163.067 471.477V477.676V471.426M163.067 514.141V520.348M163.067 556.805V563.012M163.067 599.469V605.661V599.476M163.067 642.14V648.332M163.067 684.804V690.959M-234.14 -83.1534V-76.9542M-234.14 -40.4895V-34.2829M-234.14 2.17438V8.36622M-234.14 44.8457V51.0375M-234.14 87.5096V93.7014M-234.14 130.159V136.365M-234.14 172.83V179.029M-234.14 215.494V221.686M-234.14 258.165V264.35M-234.14 300.814V307.021M-234.14 343.478V349.685M-234.14 386.149V392.349M-234.14 428.813V435.005M-234.14 471.477V477.676M-234.14 514.141V520.348M-234.14 556.805V563.012M-234.14 599.469V605.661M-234.14 642.14V648.332M-35.54 684.797V690.959M4.17736 -83.2051V-77.0059M4.17736 -40.5412V-34.3346M4.17736 2.12272V8.31456M4.17736 44.7866V50.9858M4.17736 87.4579V93.6497M4.17736 130.114V136.314M4.17736 172.778V178.978M4.17736 215.442V221.634M4.17736 258.113V264.298M4.17736 300.763V306.969M4.17736 343.427V349.633M4.17736 386.098V392.297M4.17736 428.762V434.954M4.17736 471.426V477.676M4.17736 514.141V520.348M4.17736 556.805V563.012M4.17736 599.476V605.661M4.17736 642.14V648.332M4.17736 684.804V690.959M43.8947 -83.2051V-77.0059M43.8947 -40.5412V-34.3346M43.8947 2.12272V8.31456M43.8947 44.7866V50.9858M43.8947 87.4579V93.6497M43.8947 130.114V136.314M43.8947 172.778V178.978M43.8947 215.442V221.634M43.8947 258.113V264.298M43.8947 300.763V306.969M43.8947 343.427V349.633M43.8947 386.098V392.297M43.8947 428.762V434.954M43.8947 471.426V477.676M43.8947 514.141V520.348M43.8947 556.805V563.012M43.8947 599.476V605.661M43.8947 642.14V648.332M43.8947 684.804V690.959M83.6326 599.447V605.631M83.6326 642.111V648.303M123.35 44.7866V50.9858M123.35 87.4579V93.6497M123.35 130.114V136.314M123.35 172.778V178.978M123.35 215.442V221.634M123.35 258.113V264.298M123.35 300.763V306.969M123.35 343.427V349.633M123.35 386.098V392.297M123.35 428.762V434.954M163.067 44.7866V50.9858M163.067 87.4579V93.6497M163.067 130.114V136.314M163.067 172.778V178.978M163.067 215.442V221.634M163.067 258.113V264.298M163.067 300.763V306.969M163.067 343.427V349.633M163.067 386.098V392.297M163.067 428.762V434.954M-231.255 -80.0464H-237.025M-231.255 -37.3973H-237.025M-231.255 5.274H-237.025M-231.255 47.9379H-237.025M-231.255 90.6018H-237.025M-231.255 133.273H-237.025M-231.255 175.922H-237.025M-231.255 218.586H-237.025M-231.255 261.257H-237.025M-231.255 303.921H-237.025M-231.255 346.578H-237.025M-231.255 389.242H-237.025M-231.255 431.92H-237.025M-231.255 474.592H-237.025M-231.255 517.256H-237.025M-231.255 559.912H-237.025M-231.255 602.576H-237.025M-231.255 645.203H-237.025M-231.255 687.867H-237.025M-191.538 -80.0464H-197.315M-191.552 -37.3973H-197.315M-191.552 5.27402H-197.315M-191.538 47.9379H-197.315M-191.552 90.6018H-197.315M-191.552 133.273H-197.315M-191.552 175.922H-197.315M-191.552 218.586H-197.315M-191.552 261.257H-197.315M-191.552 303.921H-197.315M-191.552 346.578H-197.315M-191.552 389.242H-197.315M-191.538 431.92H-197.315M-191.552 474.592H-197.315M-191.552 517.256H-197.315M-191.552 559.912H-197.315M-191.552 602.576H-197.315M-191.538 645.203H-197.315M-191.552 687.867H-197.315M-151.821 -80.0464H-157.584M-151.821 -37.3973H-157.584M-151.821 5.27402H-157.584M-151.821 47.9379H-157.584M-151.821 90.6018H-157.584M-151.821 133.273H-157.584M-151.821 175.922H-157.584M-151.821 218.586H-157.584M-151.821 261.257H-157.584M-151.821 303.921H-157.584M-151.821 346.578H-157.584M-151.821 389.242H-157.584M-151.821 431.92H-157.584M-151.821 474.592H-157.584M-151.821 517.256H-157.584M-151.821 559.912H-157.584M-151.821 602.576H-157.584M-151.821 645.203H-157.584M-151.821 687.867H-157.584M-112.096 -80.0464H-117.867M-112.096 -37.3973H-117.867M-112.096 5.27402H-117.867M-112.096 47.9379H-117.867M-112.096 90.6018H-117.867M-112.096 133.273H-117.867M-112.096 175.922H-117.867M-112.096 218.586H-117.867M-112.096 261.257H-117.867M-112.096 303.921H-117.867M-112.096 346.578H-117.867M-112.096 389.242H-117.867M-112.096 431.906H-117.867M-112.096 474.577H-117.867M-112.096 517.241H-117.867M-112.096 559.897H-117.867M-112.096 602.561H-117.867M-112.096 645.225H-117.867M-112.096 687.889H-117.867M-72.3791 -80.0464H-78.1492M-72.3791 -37.3973H-78.1492M-72.3791 5.27402H-78.1492M-72.3791 47.9379H-78.1492M-72.3791 90.6018H-78.1492M-72.3791 133.273H-78.1492M-72.3791 175.922H-78.1492M-72.3791 218.586H-78.1492M-72.3791 261.257H-78.1492M-72.3791 303.921H-78.1492M-72.3791 346.578H-78.1492M-72.3791 389.242H-78.1492M-72.3791 431.906H-78.1492M-72.3791 474.577H-78.1492M-72.3791 517.241H-78.1492M-72.3791 559.897H-78.1492M-72.3791 602.561H-78.1492M-72.3791 645.225H-78.1492M-72.3791 687.889H-78.1492M-32.6549 -80.0464H-38.425M-32.6549 -37.3973H-38.425M-32.6549 5.27402H-38.425M-32.6549 47.9379H-38.425M-32.6549 90.6018H-38.425M-32.6549 133.273H-38.425M-32.6549 175.922H-38.425M-32.6549 218.586H-38.425M-32.6549 261.257H-38.425M-32.6549 303.921H-38.425M-32.6549 346.578H-38.425M-32.6549 389.242H-38.425M-32.6549 431.906H-38.425M-32.6549 474.577H-38.425M-32.6549 517.241H-38.425M-32.6549 559.897H-38.425M-32.6549 602.561H-38.425M-32.6549 645.225H-38.425M-32.6549 687.889H-38.425M7.0624 -80.0464H1.29234M7.0624 -37.3973H1.29234M7.0624 5.27402H1.29234M7.0624 47.9379H1.29234M7.0624 90.6018H1.29234M7.0624 133.273H1.29234M7.0624 175.922H1.29234M7.0624 218.586H1.29234M7.0624 261.257H1.29234M7.0624 303.921H1.29234M7.0624 346.578H1.29234M7.0624 389.242H1.29234M7.0624 431.906H1.29234M7.0624 474.577H1.29234M7.0624 517.241H1.29234M7.0624 559.897H1.29234M7.0624 602.561H1.29234M7.0624 645.225H1.29234M7.0624 687.889H1.29234M46.7797 -80.0464H41.044M46.8141 -37.3973H41.044M46.8141 5.27402H41.044M46.8141 47.9379H41.044M46.8141 90.6018H41.044M46.8141 133.273H41.044M46.8141 175.922H41.044M46.8141 218.586H41.044M46.8141 261.257H41.044M46.8141 303.921H41.044M46.8141 346.578H41.044M46.8141 389.242H41.044M46.8141 431.906H41.044M46.8141 474.577H41.044M46.8141 517.241H41.044M46.8141 559.897H41.044M46.8141 602.561H41.044M46.8141 645.225H41.044M46.8141 687.889H41.044M86.5039 -80.0464H80.7339M86.5039 -37.3973H80.7339M86.5039 5.27402H80.7339M86.5039 47.9379H80.7339M86.5039 90.6018H80.7339M86.5039 133.273H80.7339M86.5039 175.922H80.7339M86.5039 218.586H80.7339M86.5039 261.257H80.7339M86.5039 303.921H80.7339M86.5039 346.578H80.7339M86.5039 389.242H80.7339M86.5039 431.906H80.7339M86.5039 474.577H80.7339M86.5039 517.241H80.7339M86.5039 559.897H80.7339M86.5039 602.561H80.7339M86.5039 645.225H80.7339M86.5039 687.889H80.7339M126.221 -80.0464H120.451M126.221 -37.3973H120.451M126.221 5.27402H120.451M126.221 47.9379H120.451M126.221 90.6018H120.451M126.221 133.273H120.451M126.221 175.922H120.451M126.221 218.586H120.451M126.221 261.257H120.451M126.221 303.921H120.451M126.221 346.578H120.451M126.221 389.242H120.451M126.221 431.92H120.451M126.221 474.577H120.451M126.221 517.241H120.451M126.221 559.897H120.451M126.221 602.561H120.451M126.221 645.203H120.451M126.221 687.867H120.451M165.939 -80.0464H160.169M165.939 -37.3973H160.169M165.939 5.27402H160.169M165.939 47.9379H160.169M165.939 90.6018H160.169M165.939 133.273H160.169M165.939 175.922H160.169M165.939 218.586H160.169M165.939 261.257H160.169M165.939 303.921H160.169M165.939 346.578H160.169M165.939 389.242H160.169M165.939 431.906H160.169M165.939 474.577H160.169M165.939 517.241H160.169M165.939 559.897H160.169M165.939 602.561H160.169M165.939 645.225H160.169M165.939 687.889H160.169M202.613 -83.2051V-77.0059M202.613 -40.5412V-34.3346M202.613 2.12272V8.31456M202.613 44.794V51.0375M202.613 87.5096V93.7014M202.613 130.159V136.365M202.613 172.83V179.029M202.613 215.494V221.686M202.613 258.165V264.35M202.613 300.814V307.021M202.613 343.486V349.685V343.478M202.613 386.149V392.349M202.613 428.813V435.005M202.613 471.477V477.676M202.613 514.141V520.348M202.613 556.805V563.012M202.613 599.469V605.661M202.613 642.14V648.332M202.613 684.804V690.959M242.31 -83.1534V-76.9542M242.31 -40.4895V-34.2829M242.31 2.17438V8.36622M242.31 44.8457V51.0375M242.31 87.5096V93.7014M242.31 130.159V136.365M242.31 172.83V179.029M242.31 215.494V221.686M242.31 258.165V264.35M242.31 300.814V307.021M242.31 343.486V349.685V343.478M242.31 386.164V392.363M242.31 428.828V435.02M242.31 471.492V477.676M242.31 514.141V520.348M242.31 556.805V563.012M242.31 599.469V605.661M242.31 642.14V648.332M242.31 684.804V690.959M282.027 -83.2051V-77.0059M282.027 -40.5412V-34.3346M282.027 2.12272V8.31456M282.027 44.794V51.0375M282.027 87.5096V93.7014M282.027 130.159V136.365M282.027 172.83V179.029M282.027 215.494V221.686M282.027 258.165V264.35M282.027 300.814V307.021M282.027 343.486V349.685V343.478M282.027 386.149V392.349M282.027 428.813V435.005M282.027 471.477V477.676M282.027 514.141V520.348M282.027 556.805V563.012M282.027 599.469V605.661M282.027 642.14V648.332M282.027 684.804V690.959M321.744 -83.2051V-77.0059M321.744 -40.5412V-34.3346M321.744 2.12272V8.31456M321.744 44.794V51.0375M321.744 87.5096V93.7014M321.744 130.159V136.365M321.744 172.83V179.029M321.744 215.494V221.686M321.744 258.165V264.35M321.744 300.814V307.021M321.744 343.486V349.685V343.478M321.744 386.149V392.349M321.744 428.813V435.005M321.744 471.477V477.676M321.744 514.141V520.348M321.744 556.805V563.012M321.744 599.469V605.661M321.744 642.14V648.332M321.744 684.804V690.959M361.469 -83.2051V-77.0059M361.469 -40.5412V-34.3346M361.469 2.12272V8.31456M361.469 44.794V51.0375M361.469 87.5096V93.7014M361.469 130.159V136.365M361.469 172.83V179.029M361.469 215.494V221.686M361.469 258.165V264.35M361.469 300.814V307.021M361.469 343.486V349.685V343.478M361.469 386.149V392.349M361.469 428.813V435.005M361.469 471.477V477.676M361.469 514.141V520.348M361.469 556.805V563.012M361.469 599.469V605.661M361.469 642.14V648.332M361.469 684.804V690.959M401.186 -83.2051V-77.0059M401.186 -40.5412V-34.3346M401.186 2.12272V8.31456M401.186 44.794V51.0375M401.186 87.5096V93.7014M401.186 130.159V136.365M401.186 172.83V179.029M401.186 215.494V221.686M401.186 258.165V264.35M401.186 300.814V307.021M401.186 343.486V349.685M401.186 386.149V392.349M401.186 428.813V435.005M401.186 471.477V477.676M401.186 514.141V520.348M401.186 556.805V563.012M401.186 599.469V605.661M401.186 642.14V648.332M401.186 684.804V690.959M440.903 -83.2051V-77.0059M440.903 -40.5412V-34.3346M440.903 2.12272V8.31456M440.903 44.794V51.0375M440.903 87.5096V93.7014M440.903 130.159V136.365M440.903 172.83V179.029M440.903 215.494V221.686M440.903 258.165V264.35M440.903 300.814V307.021M440.903 343.486V349.685M440.903 386.149V392.349M440.903 428.813V435.005M440.903 471.477V477.676M440.903 514.141V520.348M440.903 556.805V563.012M440.903 599.469V605.661M440.903 642.14V648.332M440.903 684.804V690.959M480.669 -83.1534V-76.9542M480.669 -40.4895V-34.2829M480.669 2.17438V8.36622M480.669 44.8457V51.0375V44.8383M480.669 87.5096V93.7014M480.669 130.159V136.365V130.166M480.669 172.83V179.029M480.669 215.494V221.686M480.669 258.165V264.35M480.669 300.814V307.021M480.669 343.486V349.685V343.478M480.669 386.164V392.363M480.669 428.828V435.02M480.669 471.492V477.676M480.669 514.141V520.348M480.669 556.805V563.012M480.669 599.469V605.661M480.669 642.14V648.332M480.669 684.804V690.959V684.775M520.386 -83.2051V-77.0059M520.386 -40.5412V-34.3346M520.386 2.12272V8.31456M520.386 44.794V51.0375M520.386 87.5096V93.7014M520.386 130.159V136.365M520.386 172.83V179.029M520.386 215.494V221.686M520.386 258.165V264.35M520.386 300.814V307.021M520.386 343.486V349.685M520.386 386.149V392.349M520.386 428.813V435.005M520.386 471.477V477.676V471.426M520.386 514.141V520.348M520.386 556.805V563.012M520.386 599.469V605.661V599.476M520.386 642.14V648.332M520.386 684.804V690.959M560.103 -83.2051V-77.0059M560.103 -40.5412V-34.3346M560.103 2.12272V8.31456M560.103 44.794V51.0375M560.103 87.5096V93.7014M560.103 130.159V136.365M560.103 172.83V179.029M560.103 215.494V221.686M560.103 258.165V264.35M560.103 300.814V307.021M560.103 343.486V349.685M560.103 386.149V392.349M560.103 428.813V435.005M560.103 471.477V477.676V471.426M560.103 514.141V520.348M560.103 556.805V563.012M560.103 599.469V605.661V599.476M560.103 642.14V648.332M560.103 684.804V690.959M361.496 684.797V690.959M401.213 -83.2051V-77.0059M401.213 -40.5412V-34.3346M401.213 2.12272V8.31456M401.213 44.7866V50.9858M401.213 87.4579V93.6497M401.213 130.114V136.314M401.213 172.778V178.978M401.213 215.442V221.634M401.213 258.113V264.298M401.213 300.763V306.969M401.213 343.427V349.633M401.213 386.098V392.297M401.213 428.762V434.954M401.213 471.426V477.676M401.213 514.141V520.348M401.213 556.805V563.012M401.213 599.476V605.661M401.213 642.14V648.332M401.213 684.804V690.959M440.931 -83.2051V-77.0059M440.931 -40.5412V-34.3346M440.931 2.12272V8.31456M440.931 44.7866V50.9858M440.931 87.4579V93.6497M440.931 130.114V136.314M440.931 172.778V178.978M440.931 215.442V221.634M440.931 258.113V264.298M440.931 300.763V306.969M440.931 343.427V349.633M440.931 386.098V392.297M440.931 428.762V434.954M440.931 471.426V477.676M440.931 514.141V520.348M440.931 556.805V563.012M440.931 599.476V605.661M440.931 642.14V648.332M440.931 684.804V690.959M480.669 599.447V605.631M480.669 642.111V648.303M520.386 44.7866V50.9858M520.386 87.4579V93.6497M520.386 130.114V136.314M520.386 172.778V178.978M520.386 215.442V221.634M520.386 258.113V264.298M520.386 300.763V306.969M520.386 343.427V349.633M520.386 386.098V392.297M520.386 428.762V434.954M560.103 44.7866V50.9858M560.103 87.4579V93.6497M560.103 130.114V136.314M560.103 172.778V178.978M560.103 215.442V221.634M560.103 258.113V264.298M560.103 300.763V306.969M560.103 343.427V349.633M560.103 386.098V392.297M560.103 428.762V434.954M205.498 -80.0464H199.721M205.484 -37.3973H199.721M205.484 5.27402H199.721M205.498 47.9379H199.721M205.484 90.6018H199.721M205.484 133.273H199.721M205.484 175.922H199.721M205.484 218.586H199.721M205.484 261.257H199.721M205.484 303.921H199.721M205.484 346.578H199.721M205.484 389.242H199.721M205.498 431.92H199.721M205.484 474.592H199.721M205.484 517.256H199.721M205.484 559.912H199.721M205.484 602.576H199.721M205.498 645.203H199.721M205.484 687.867H199.721M245.215 -80.0464H239.452M245.215 -37.3973H239.452M245.215 5.27402H239.452M245.215 47.9379H239.452M245.215 90.6018H239.452M245.215 133.273H239.452M245.215 175.922H239.452M245.215 218.586H239.452M245.215 261.257H239.452M245.215 303.921H239.452M245.215 346.578H239.452M245.215 389.242H239.452M245.215 431.92H239.452M245.215 474.592H239.452M245.215 517.256H239.452M245.215 559.912H239.452M245.215 602.576H239.452M245.215 645.203H239.452M245.215 687.867H239.452M284.94 -80.0464H279.169M284.94 -37.3973H279.169M284.94 5.27402H279.169M284.94 47.9379H279.169M284.94 90.6018H279.169M284.94 133.273H279.169M284.94 175.922H279.169M284.94 218.586H279.169M284.94 261.257H279.169M284.94 303.921H279.169M284.94 346.578H279.169M284.94 389.242H279.169M284.94 431.906H279.169M284.94 474.577H279.169M284.94 517.241H279.169M284.94 559.897H279.169M284.94 602.561H279.169M284.94 645.225H279.169M284.94 687.889H279.169M324.657 -80.0464H318.887M324.657 -37.3973H318.887M324.657 5.27402H318.887M324.657 47.9379H318.887M324.657 90.6018H318.887M324.657 133.273H318.887M324.657 175.922H318.887M324.657 218.586H318.887M324.657 261.257H318.887M324.657 303.921H318.887M324.657 346.578H318.887M324.657 389.242H318.887M324.657 431.906H318.887M324.657 474.577H318.887M324.657 517.241H318.887M324.657 559.897H318.887M324.657 602.561H318.887M324.657 645.225H318.887M324.657 687.889H318.887M364.381 -80.0464H358.611M364.381 -37.3973H358.611M364.381 5.27402H358.611M364.381 47.9379H358.611M364.381 90.6018H358.611M364.381 133.273H358.611M364.381 175.922H358.611M364.381 218.586H358.611M364.381 261.257H358.611M364.381 303.921H358.611M364.381 346.578H358.611M364.381 389.242H358.611M364.381 431.906H358.611M364.381 474.577H358.611M364.381 517.241H358.611M364.381 559.897H358.611M364.381 602.561H358.611M364.381 645.225H358.611M364.381 687.889H358.611M404.098 -80.0464H398.328M404.098 -37.3973H398.328M404.098 5.27402H398.328M404.098 47.9379H398.328M404.098 90.6018H398.328M404.098 133.273H398.328M404.098 175.922H398.328M404.098 218.586H398.328M404.098 261.257H398.328M404.098 303.921H398.328M404.098 346.578H398.328M404.098 389.242H398.328M404.098 431.906H398.328M404.098 474.577H398.328M404.098 517.241H398.328M404.098 559.897H398.328M404.098 602.561H398.328M404.098 645.225H398.328M404.098 687.889H398.328M443.816 -80.0464H438.08M443.85 -37.3973H438.08M443.85 5.27402H438.08M443.85 47.9379H438.08M443.85 90.6018H438.08M443.85 133.273H438.08M443.85 175.922H438.08M443.85 218.586H438.08M443.85 261.257H438.08M443.85 303.921H438.08M443.85 346.578H438.08M443.85 389.242H438.08M443.85 431.906H438.08M443.85 474.577H438.08M443.85 517.241H438.08M443.85 559.897H438.08M443.85 602.561H438.08M443.85 645.225H438.08M443.85 687.889H438.08M483.54 -80.0464H477.77M483.54 -37.3973H477.77M483.54 5.27402H477.77M483.54 47.9379H477.77M483.54 90.6018H477.77M483.54 133.273H477.77M483.54 175.922H477.77M483.54 218.586H477.77M483.54 261.257H477.77M483.54 303.921H477.77M483.54 346.578H477.77M483.54 389.242H477.77M483.54 431.906H477.77M483.54 474.577H477.77M483.54 517.241H477.77M483.54 559.897H477.77M483.54 602.561H477.77M483.54 645.225H477.77M483.54 687.889H477.77M523.257 -80.0464H517.487M523.257 -37.3973H517.487M523.257 5.27402H517.487M523.257 47.9379H517.487M523.257 90.6018H517.487M523.257 133.273H517.487M523.257 175.922H517.487M523.257 218.586H517.487M523.257 261.257H517.487M523.257 303.921H517.487M523.257 346.578H517.487M523.257 389.242H517.487M523.257 431.92H517.487M523.257 474.577H517.487M523.257 517.241H517.487M523.257 559.897H517.487M523.257 602.561H517.487M523.257 645.203H517.487M523.257 687.867H517.487M562.975 -80.0464H557.204M562.975 -37.3973H557.204M562.975 5.27402H557.204M562.975 47.9379H557.204M562.975 90.6018H557.204M562.975 133.273H557.204M562.975 175.922H557.204M562.975 218.586H557.204M562.975 261.257H557.204M562.975 303.921H557.204M562.975 346.578H557.204M562.975 389.242H557.204M562.975 431.906H557.204M562.975 474.577H557.204M562.975 517.241H557.204M562.975 559.897H557.204M562.975 602.561H557.204M562.975 645.225H557.204M562.975 687.889H557.204" stroke="#939598" stroke-width="0.83"/>
</g>
<defs>
<clipPath id="clip0_80_114">
<rect width="108" height="291" fill="white" transform="translate(0.482422 0.455078)"/>
</clipPath>
</defs>
</svg>
