<svg width="90" height="292" fill="none" xmlns="http://www.w3.org/2000/svg"><g clip-path="url(#a)"><path d="M-234.14 642.133v6.192m0 36.472v6.162-6.155m39.717-768.01v6.2m0 36.465v6.206m0 36.458v6.192m0 36.479v6.244m0 36.472v6.19m0 36.458v6.206m0 36.465v6.199m0 36.465v6.192m0 36.479v6.185m0 36.464v6.207m0 36.465v6.199-6.207m0 42.671v6.2m0 36.464v6.192m0 36.472v6.199m0 36.465v6.207m0 36.457v6.207m0 36.457v6.192m0 36.479v6.192m0 36.472v6.155m39.697-774.112v6.199m0 36.464v6.207m0 36.457v6.192m0 36.48v6.192m0 36.472V93.7m0 36.458v6.206m0 36.465v6.199m0 36.465v6.192m0 36.479v6.185m0 36.464v6.207m0 36.465v6.199-6.207m0 42.686v6.199m0 36.465v6.192m0 36.472v6.184m0 36.465v6.207m0 36.457v6.207m0 36.457v6.192m0 36.479v6.192m0 36.472v6.155m39.717-774.164v6.2m0 36.464v6.206m0 36.458v6.192m0 36.479v6.244m0 36.472V93.7m0 36.458v6.206m0 36.465v6.199m0 36.465v6.192m0 36.479v6.185m0 36.464v6.207m0 36.465v6.199-6.207m0 42.671v6.2m0 36.464v6.192m0 36.472v6.199m0 36.465v6.207m0 36.457v6.207m0 36.457v6.192m0 36.479v6.192m0 36.472v6.155m39.717-774.164v6.2m0 36.464v6.206m0 36.458v6.192m0 36.479v6.244m0 36.472V93.7m0 36.458v6.206m0 36.465v6.199m0 36.465v6.192m0 36.479v6.185m0 36.464v6.207m0 36.465v6.199-6.207m0 42.671v6.2m0 36.464v6.192m0 36.472v6.199m0 36.465v6.207m0 36.457v6.207m0 36.457v6.192m0 36.479v6.192m0 36.472v6.155m39.725-774.164v6.2m0 36.464v6.206m0 36.458v6.192m0 36.479v6.244m0 36.472V93.7m0 36.458v6.206m0 36.465v6.199m0 36.465v6.192m0 36.479v6.185m0 36.464v6.207m0 36.465v6.199-6.207m0 42.671v6.2m0 36.464v6.192m0 36.472v6.199m0 36.465v6.207m0 36.457v6.207m0 36.457v6.192m0 36.479v6.192m0 36.472v6.155M4.15-83.205v6.2m0 36.464v6.206m0 36.458v6.192m0 36.479v6.244m0 36.472v6.19m0 36.458v6.206m0 36.465v6.199m0 36.465v6.192m0 36.479v6.185m0 36.464v6.207m0 36.465v6.199m0 36.464v6.2m0 36.464v6.192m0 36.472v6.199m0 36.465v6.207m0 36.457v6.207m0 36.457v6.192m0 36.479v6.192m0 36.472v6.155M43.867-83.205v6.2m0 36.464v6.206m0 36.458v6.192m0 36.479v6.244m0 36.472v6.19m0 36.458v6.206m0 36.465v6.199m0 36.465v6.192m0 36.479v6.185m0 36.464v6.207m0 36.465v6.199m0 36.464v6.2m0 36.464v6.192m0 36.472v6.199m0 36.465v6.207m0 36.457v6.207m0 36.457v6.192m0 36.479v6.192m0 36.472v6.155M83.633-83.153v6.199m0 36.464v6.207m0 36.457v6.192m0 36.48v6.192-6.2m0 42.672v6.19m0 36.458v6.206-6.199m0 42.664v6.199m0 36.465v6.192m0 36.479v6.185m0 36.464v6.207m0 36.465v6.199-6.207m0 42.686v6.199m0 36.465v6.192m0 36.472v6.184m0 36.465v6.207m0 36.457v6.207m0 36.457v6.192m0 36.479v6.192m0 36.472v6.155-6.184m39.717-767.98v6.2m0 36.464v6.206m0 36.458v6.192m0 36.479v6.244m0 36.472V93.7m0 36.458v6.206m0 36.465v6.199m0 36.465v6.192m0 36.479v6.185m0 36.464v6.207m0 36.465v6.199m0 36.464v6.2m0 36.464v6.192m0 36.472v6.199-6.25m0 42.715v6.207m0 36.457v6.207m0 36.457v6.192-6.185m0 42.664v6.192m0 36.472v6.155m39.717-774.164v6.2m0 36.464v6.206m0 36.458v6.192m0 36.479v6.244m0 36.472V93.7m0 36.458v6.206m0 36.465v6.199m0 36.465v6.192m0 36.479v6.185m0 36.464v6.207m0 36.465v6.199m0 36.464v6.2m0 36.464v6.192m0 36.472v6.199-6.25m0 42.715v6.207m0 36.457v6.207m0 36.457v6.192-6.185m0 42.664v6.192m0 36.472v6.155M-234.14-83.153v6.199m0 36.464v6.207m0 36.457v6.192m0 36.48v6.192m0 36.472v6.19m0 36.458v6.206m0 36.465v6.199m0 36.465v6.192m0 36.479v6.185m0 36.464v6.207m0 36.457v6.207m0 36.464v6.2m0 36.464v6.192m0 36.472v6.199m0 36.465v6.207m0 36.457v6.207m0 36.457v6.192m0 36.479v6.192m198.6 36.465v6.162M4.177-83.205v6.2m0 36.464v6.206m0 36.458v6.192m0 36.472v6.199m0 36.472v6.192m0 36.464v6.2m0 36.464v6.2m0 36.464v6.192m0 36.479v6.185m0 36.465v6.206m0 36.458v6.206m0 36.465v6.199m0 36.465v6.192m0 36.472v6.25m0 36.465v6.207m0 36.457v6.207m0 36.464v6.185m0 36.479v6.192m0 36.472v6.155M43.895-83.205v6.2m0 36.464v6.206m0 36.458v6.192m0 36.472v6.199m0 36.472v6.192m0 36.464v6.2m0 36.464v6.2m0 36.464v6.192m0 36.479v6.185m0 36.465v6.206m0 36.458v6.206m0 36.465v6.199m0 36.465v6.192m0 36.472v6.25m0 36.465v6.207m0 36.457v6.207m0 36.464v6.185m0 36.479v6.192m0 36.472v6.155m39.738-91.512v6.184m0 36.48v6.192M123.35 44.787v6.199m0 36.472v6.192m0 36.464v6.2m0 36.464v6.2m0 36.464v6.192m0 36.479v6.185m0 36.465v6.206m0 36.458v6.206m0 36.465v6.199m0 36.465v6.192m39.717-390.167v6.199m0 36.472v6.192m0 36.464v6.2m0 36.464v6.2m0 36.464v6.192m0 36.479v6.185m0 36.465v6.206m0 36.458v6.206m0 36.465v6.199m0 36.465v6.192m-394.322-515h-5.77m5.77 42.649h-5.77m5.77 42.671h-5.77m5.77 42.664h-5.77m5.77 42.664h-5.77m5.77 42.671h-5.77m5.77 42.649h-5.77m5.77 42.664h-5.77m5.77 42.671h-5.77m5.77 42.664h-5.77m5.77 42.657h-5.77m5.77 42.664h-5.77m5.77 42.678h-5.77m5.77 42.672h-5.77m5.77 42.664h-5.77m5.77 42.656h-5.77m5.77 42.664h-5.77m5.77 42.627h-5.77m5.77 42.664h-5.77m45.487-767.913h-5.777m5.763 42.649h-5.763m5.763 42.671h-5.763m5.777 42.664h-5.777m5.763 42.664h-5.763m5.763 42.671h-5.763m5.763 42.649h-5.763m5.763 42.664h-5.763m5.763 42.671h-5.763m5.763 42.664h-5.763m5.763 42.657h-5.763m5.763 42.664h-5.763m5.777 42.678h-5.777m5.763 42.672h-5.763m5.763 42.664h-5.763m5.763 42.656h-5.763m5.763 42.664h-5.763m5.777 42.627h-5.777m5.763 42.664h-5.763m45.494-767.913h-5.763m5.763 42.649h-5.763m5.763 42.671h-5.763m5.763 42.664h-5.763m5.763 42.664h-5.763m5.763 42.671h-5.763m5.763 42.649h-5.763m5.763 42.664h-5.763m5.763 42.671h-5.763m5.763 42.664h-5.763m5.763 42.657h-5.763m5.763 42.664h-5.763m5.763 42.678h-5.763m5.763 42.672h-5.763m5.763 42.664h-5.763m5.763 42.656h-5.763m5.763 42.664h-5.763m5.763 42.627h-5.763m5.763 42.664h-5.763m45.488-767.913h-5.771m5.771 42.649h-5.771m5.771 42.671h-5.771m5.771 42.664h-5.771m5.771 42.664h-5.771m5.771 42.671h-5.771m5.771 42.649h-5.771m5.771 42.664h-5.771m5.771 42.671h-5.771m5.771 42.664h-5.771m5.771 42.657h-5.771m5.771 42.664h-5.771m5.771 42.664h-5.771m5.771 42.671h-5.771m5.771 42.664h-5.771m5.771 42.656h-5.771m5.771 42.664h-5.771m5.771 42.664h-5.771m5.771 42.664h-5.771m45.488-767.935h-5.77m5.77 42.649h-5.77m5.77 42.671h-5.77m5.77 42.664h-5.77m5.77 42.664h-5.77m5.77 42.671h-5.77m5.77 42.649h-5.77m5.77 42.664h-5.77m5.77 42.671h-5.77m5.77 42.664h-5.77m5.77 42.657h-5.77m5.77 42.664h-5.77m5.77 42.664h-5.77m5.77 42.671h-5.77m5.77 42.664h-5.77m5.77 42.656h-5.77m5.77 42.664h-5.77m5.77 42.664h-5.77m5.77 42.664h-5.77m45.494-767.935h-5.77m5.77 42.649h-5.77m5.77 42.671h-5.77m5.77 42.664h-5.77m5.77 42.664h-5.77m5.77 42.671h-5.77m5.77 42.649h-5.77m5.77 42.664h-5.77m5.77 42.671h-5.77m5.77 42.664h-5.77m5.77 42.657h-5.77m5.77 42.664h-5.77m5.77 42.664h-5.77m5.77 42.671h-5.77m5.77 42.664h-5.77m5.77 42.656h-5.77m5.77 42.664h-5.77m5.77 42.664h-5.77m5.77 42.664h-5.77M7.062-80.046h-5.77m5.77 42.649h-5.77m5.77 42.671h-5.77m5.77 42.664h-5.77m5.77 42.664h-5.77m5.77 42.671h-5.77m5.77 42.649h-5.77m5.77 42.664h-5.77m5.77 42.671h-5.77m5.77 42.664h-5.77m5.77 42.657h-5.77m5.77 42.664h-5.77m5.77 42.664h-5.77m5.77 42.671h-5.77m5.77 42.664h-5.77m5.77 42.656h-5.77m5.77 42.664h-5.77m5.77 42.664h-5.77m5.77 42.664h-5.77M46.78-80.046h-5.736m5.77 42.649h-5.77m5.77 42.671h-5.77m5.77 42.664h-5.77m5.77 42.664h-5.77m5.77 42.671h-5.77m5.77 42.649h-5.77m5.77 42.664h-5.77m5.77 42.671h-5.77m5.77 42.664h-5.77m5.77 42.657h-5.77m5.77 42.664h-5.77m5.77 42.664h-5.77m5.77 42.671h-5.77m5.77 42.664h-5.77m5.77 42.656h-5.77m5.77 42.664h-5.77m5.77 42.664h-5.77m5.77 42.664h-5.77m45.46-767.935h-5.77m5.77 42.649h-5.77m5.77 42.671h-5.77m5.77 42.664h-5.77m5.77 42.664h-5.77m5.77 42.671h-5.77m5.77 42.649h-5.77m5.77 42.664h-5.77m5.77 42.671h-5.77m5.77 42.664h-5.77m5.77 42.657h-5.77m5.77 42.664h-5.77m5.77 42.664h-5.77m5.77 42.671h-5.77m5.77 42.664h-5.77m5.77 42.656h-5.77m5.77 42.664h-5.77m5.77 42.664h-5.77m5.77 42.664h-5.77M126.22-80.046h-5.77m5.77 42.649h-5.77m5.77 42.671h-5.77m5.77 42.664h-5.77m5.77 42.664h-5.77m5.77 42.671h-5.77m5.77 42.649h-5.77m5.77 42.664h-5.77m5.77 42.671h-5.77m5.77 42.664h-5.77m5.77 42.657h-5.77m5.77 42.664h-5.77m5.77 42.678h-5.77m5.77 42.657h-5.77m5.77 42.664h-5.77m5.77 42.656h-5.77m5.77 42.664h-5.77m5.77 42.642h-5.77m5.77 42.664h-5.77m45.488-767.913h-5.77m5.77 42.649h-5.77m5.77 42.671h-5.77m5.77 42.664h-5.77m5.77 42.664h-5.77m5.77 42.671h-5.77m5.77 42.649h-5.77m5.77 42.664h-5.77m5.77 42.671h-5.77m5.77 42.664h-5.77m5.77 42.657h-5.77m5.77 42.664h-5.77m5.77 42.664h-5.77m5.77 42.671h-5.77m5.77 42.664h-5.77m5.77 42.656h-5.77m5.77 42.664h-5.77m5.77 42.664h-5.77m5.77 42.664h-5.77m42.444-771.094v6.2m0 36.464v6.206m0 36.458v6.192m0 36.479v6.244m0 36.472v6.19m0 36.458v6.206m0 36.465v6.199m0 36.465v6.192m0 36.479v6.185m0 36.464v6.207m0 36.465v6.199-6.207m0 42.671v6.2m0 36.464v6.192m0 36.472v6.199m0 36.465v6.207m0 36.457v6.207m0 36.457v6.192m0 36.479v6.192m0 36.472v6.155M242.31-83.153v6.199m0 36.464v6.207m0 36.457v6.192m0 36.48v6.192m0 36.472v6.19m0 36.458v6.206m0 36.465v6.199m0 36.465v6.192m0 36.479v6.185m0 36.464v6.207m0 36.465v6.199-6.207m0 42.686v6.199m0 36.465v6.192m0 36.472v6.184m0 36.465v6.207m0 36.457v6.207m0 36.457v6.192m0 36.479v6.192m0 36.472v6.155m39.717-774.164v6.2m0 36.464v6.206m0 36.458v6.192m0 36.479v6.244m0 36.472V93.7m0 36.458v6.206m0 36.465v6.199m0 36.465v6.192m0 36.479v6.185m0 36.464v6.207m0 36.465v6.199-6.207m0 42.671v6.2m0 36.464v6.192m0 36.472v6.199m0 36.465v6.207m0 36.457v6.207m0 36.457v6.192m0 36.479v6.192m0 36.472v6.155m39.717-774.164v6.2m0 36.464v6.206m0 36.458v6.192m0 36.479v6.244m0 36.472V93.7m0 36.458v6.206m0 36.465v6.199m0 36.465v6.192m0 36.479v6.185m0 36.464v6.207m0 36.465v6.199-6.207m0 42.671v6.2m0 36.464v6.192m0 36.472v6.199m0 36.465v6.207m0 36.457v6.207m0 36.457v6.192m0 36.479v6.192m0 36.472v6.155m39.725-774.164v6.2m0 36.464v6.206m0 36.458v6.192m0 36.479v6.244m0 36.472V93.7m0 36.458v6.206m0 36.465v6.199m0 36.465v6.192m0 36.479v6.185m0 36.464v6.207m0 36.465v6.199-6.207m0 42.671v6.2m0 36.464v6.192m0 36.472v6.199m0 36.465v6.207m0 36.457v6.207m0 36.457v6.192m0 36.479v6.192m0 36.472v6.155m39.717-774.164v6.2m0 36.464v6.206m0 36.458v6.192m0 36.479v6.244m0 36.472V93.7m0 36.458v6.206m0 36.465v6.199m0 36.465v6.192m0 36.479v6.185m0 36.464v6.207m0 36.465v6.199m0 36.464v6.2m0 36.464v6.192m0 36.472v6.199m0 36.465v6.207m0 36.457v6.207m0 36.457v6.192m0 36.479v6.192m0 36.472v6.155m39.717-774.164v6.2m0 36.464v6.206m0 36.458v6.192m0 36.479v6.244m0 36.472V93.7m0 36.458v6.206m0 36.465v6.199m0 36.465v6.192m0 36.479v6.185m0 36.464v6.207m0 36.465v6.199m0 36.464v6.2m0 36.464v6.192m0 36.472v6.199m0 36.465v6.207m0 36.457v6.207m0 36.457v6.192m0 36.479v6.192m0 36.472v6.155m39.766-774.112v6.199m0 36.464v6.207m0 36.457v6.192m0 36.48v6.192-6.2m0 42.672V93.7m0 36.458v6.206-6.199m0 42.664v6.199m0 36.465v6.192m0 36.479v6.185m0 36.464v6.207m0 36.465v6.199-6.207m0 42.686v6.199m0 36.465v6.192m0 36.472v6.184m0 36.465v6.207m0 36.457v6.207m0 36.457v6.192m0 36.479v6.192m0 36.472v6.155-6.184m39.717-767.98v6.2m0 36.464v6.206m0 36.458v6.192m0 36.479v6.244m0 36.472V93.7m0 36.458v6.206m0 36.465v6.199m0 36.465v6.192m0 36.479v6.185m0 36.464v6.207m0 36.465v6.199m0 36.464v6.2m0 36.464v6.192m0 36.472v6.199-6.25m0 42.715v6.207m0 36.457v6.207m0 36.457v6.192-6.185m0 42.664v6.192m0 36.472v6.155m39.717-774.164v6.2m0 36.464v6.206m0 36.458v6.192m0 36.479v6.244m0 36.472V93.7m0 36.458v6.206m0 36.465v6.199m0 36.465v6.192m0 36.479v6.185m0 36.464v6.207m0 36.465v6.199m0 36.464v6.2m0 36.464v6.192m0 36.472v6.199-6.25m0 42.715v6.207m0 36.457v6.207m0 36.457v6.192-6.185m0 42.664v6.192m0 36.472v6.155m-198.607-6.162v6.162m39.717-774.164v6.2m0 36.464v6.206m0 36.458v6.192m0 36.472v6.199m0 36.472v6.192m0 36.464v6.2m0 36.464v6.2m0 36.464v6.192m0 36.479v6.185m0 36.465v6.206m0 36.458v6.206m0 36.465v6.199m0 36.465v6.192m0 36.472v6.25m0 36.465v6.207m0 36.457v6.207m0 36.464v6.185m0 36.479v6.192m0 36.472v6.155m39.718-774.164v6.2m0 36.464v6.206m0 36.458v6.192m0 36.472v6.199m0 36.472v6.192m0 36.464v6.2m0 36.464v6.2m0 36.464v6.192m0 36.479v6.185m0 36.465v6.206m0 36.458v6.206m0 36.465v6.199m0 36.465v6.192m0 36.472v6.25m0 36.465v6.207m0 36.457v6.207m0 36.464v6.185m0 36.479v6.192m0 36.472v6.155m39.738-91.512v6.184m0 36.48v6.192m39.717-603.516v6.199m0 36.472v6.192m0 36.464v6.2m0 36.464v6.2m0 36.464v6.192m0 36.479v6.185m0 36.465v6.206m0 36.458v6.206m0 36.465v6.199m0 36.465v6.192m39.717-390.167v6.199m0 36.472v6.192m0 36.464v6.2m0 36.464v6.2m0 36.464v6.192m0 36.479v6.185m0 36.465v6.206m0 36.458v6.206m0 36.465v6.199m0 36.465v6.192m-354.605-515h-5.777m5.763 42.649h-5.763m5.763 42.671h-5.763m5.777 42.664h-5.777m5.763 42.664h-5.763m5.763 42.671h-5.763m5.763 42.649h-5.763m5.763 42.664h-5.763m5.763 42.671h-5.763m5.763 42.664h-5.763m5.763 42.657h-5.763m5.763 42.664h-5.763m5.777 42.678h-5.777m5.763 42.672h-5.763m5.763 42.664h-5.763m5.763 42.656h-5.763m5.763 42.664h-5.763m5.777 42.627h-5.777m5.763 42.664h-5.763m45.494-767.913h-5.763m5.763 42.649h-5.763m5.763 42.671h-5.763m5.763 42.664h-5.763m5.763 42.664h-5.763m5.763 42.671h-5.763m5.763 42.649h-5.763m5.763 42.664h-5.763m5.763 42.671h-5.763m5.763 42.664h-5.763m5.763 42.657h-5.763m5.763 42.664h-5.763m5.763 42.678h-5.763m5.763 42.672h-5.763m5.763 42.664h-5.763m5.763 42.656h-5.763m5.763 42.664h-5.763m5.763 42.627h-5.763m5.763 42.664h-5.763M284.94-80.046h-5.771m5.771 42.649h-5.771m5.771 42.671h-5.771m5.771 42.664h-5.771m5.771 42.664h-5.771m5.771 42.671h-5.771m5.771 42.649h-5.771m5.771 42.664h-5.771m5.771 42.671h-5.771m5.771 42.664h-5.771m5.771 42.657h-5.771m5.771 42.664h-5.771m5.771 42.664h-5.771m5.771 42.671h-5.771m5.771 42.664h-5.771m5.771 42.656h-5.771m5.771 42.664h-5.771m5.771 42.664h-5.771m5.771 42.664h-5.771m45.488-767.935h-5.77m5.77 42.649h-5.77m5.77 42.671h-5.77m5.77 42.664h-5.77m5.77 42.664h-5.77m5.77 42.671h-5.77m5.77 42.649h-5.77m5.77 42.664h-5.77m5.77 42.671h-5.77m5.77 42.664h-5.77m5.77 42.657h-5.77m5.77 42.664h-5.77m5.77 42.664h-5.77m5.77 42.671h-5.77m5.77 42.664h-5.77m5.77 42.656h-5.77m5.77 42.664h-5.77m5.77 42.664h-5.77m5.77 42.664h-5.77m45.494-767.935h-5.77m5.77 42.649h-5.77m5.77 42.671h-5.77m5.77 42.664h-5.77m5.77 42.664h-5.77m5.77 42.671h-5.77m5.77 42.649h-5.77m5.77 42.664h-5.77m5.77 42.671h-5.77m5.77 42.664h-5.77m5.77 42.657h-5.77m5.77 42.664h-5.77m5.77 42.664h-5.77m5.77 42.671h-5.77m5.77 42.664h-5.77m5.77 42.656h-5.77m5.77 42.664h-5.77m5.77 42.664h-5.77m5.77 42.664h-5.77m45.487-767.935h-5.77m5.77 42.649h-5.77m5.77 42.671h-5.77m5.77 42.664h-5.77m5.77 42.664h-5.77m5.77 42.671h-5.77m5.77 42.649h-5.77m5.77 42.664h-5.77m5.77 42.671h-5.77m5.77 42.664h-5.77m5.77 42.657h-5.77m5.77 42.664h-5.77m5.77 42.664h-5.77m5.77 42.671h-5.77m5.77 42.664h-5.77m5.77 42.656h-5.77m5.77 42.664h-5.77m5.77 42.664h-5.77m5.77 42.664h-5.77m45.488-767.935h-5.736m5.77 42.649h-5.77m5.77 42.671h-5.77m5.77 42.664h-5.77m5.77 42.664h-5.77m5.77 42.671h-5.77m5.77 42.649h-5.77m5.77 42.664h-5.77m5.77 42.671h-5.77m5.77 42.664h-5.77m5.77 42.657h-5.77m5.77 42.664h-5.77m5.77 42.664h-5.77m5.77 42.671h-5.77m5.77 42.664h-5.77m5.77 42.656h-5.77m5.77 42.664h-5.77m5.77 42.664h-5.77m5.77 42.664h-5.77m45.46-767.935h-5.77m5.77 42.649h-5.77m5.77 42.671h-5.77m5.77 42.664h-5.77m5.77 42.664h-5.77m5.77 42.671h-5.77m5.77 42.649h-5.77m5.77 42.664h-5.77m5.77 42.671h-5.77m5.77 42.664h-5.77m5.77 42.657h-5.77m5.77 42.664h-5.77m5.77 42.664h-5.77m5.77 42.671h-5.77m5.77 42.664h-5.77m5.77 42.656h-5.77m5.77 42.664h-5.77m5.77 42.664h-5.77m5.77 42.664h-5.77m45.487-767.935h-5.77m5.77 42.649h-5.77m5.77 42.671h-5.77m5.77 42.664h-5.77m5.77 42.664h-5.77m5.77 42.671h-5.77m5.77 42.649h-5.77m5.77 42.664h-5.77m5.77 42.671h-5.77m5.77 42.664h-5.77m5.77 42.657h-5.77m5.77 42.664h-5.77m5.77 42.678h-5.77m5.77 42.657h-5.77m5.77 42.664h-5.77m5.77 42.656h-5.77m5.77 42.664h-5.77m5.77 42.642h-5.77m5.77 42.664h-5.77m45.488-767.913h-5.771m5.771 42.649h-5.771m5.771 42.671h-5.771m5.771 42.664h-5.771m5.771 42.664h-5.771m5.771 42.671h-5.771m5.771 42.649h-5.771m5.771 42.664h-5.771m5.771 42.671h-5.771m5.771 42.664h-5.771m5.771 42.657h-5.771m5.771 42.664h-5.771m5.771 42.664h-5.771m5.771 42.671h-5.771m5.771 42.664h-5.771m5.771 42.656h-5.771m5.771 42.664h-5.771m5.771 42.664h-5.771m5.771 42.664h-5.771" stroke="#939598" stroke-width=".83"/></g><defs><clipPath id="a"><path fill="#fff" transform="translate(.482 .455)" d="M0 0h108v291H0z"/></clipPath></defs></svg>