<svg width="109" height="292" fill="none" xmlns="http://www.w3.org/2000/svg"><g clip-path="url(#a)"><path d="M-234.531 642.676v6.191m0 36.473v6.162-6.155m39.717-768.01v6.2m0 36.464v6.207m0 36.457v6.192m0 36.48v6.243m0 36.472v6.192m0 36.457v6.207m0 36.465v6.199m0 36.465v6.191m0 36.48v6.184m0 36.465v6.207m0 36.464v6.2-6.207m0 42.671v6.199m0 36.465v6.192m0 36.472v6.199m0 36.465v6.207m0 36.457v6.206m0 36.458v6.192m0 36.479v6.192m0 36.472v6.155m39.697-774.113v6.2m0 36.464v6.207m0 36.457V8.91m0 36.48v6.191m0 36.472v6.192m0 36.457v6.207m0 36.465v6.199m0 36.465v6.191m0 36.48v6.184m0 36.465v6.207m0 36.464v6.2-6.207m0 42.686v6.199m0 36.465v6.192m0 36.472v6.184m0 36.465v6.207m0 36.457v6.206m0 36.458v6.192m0 36.479v6.192m0 36.472v6.155M-115.4-82.662v6.199m0 36.464v6.207m0 36.457v6.192m0 36.48v6.243m0 36.472v6.192m0 36.457v6.207m0 36.465v6.199m0 36.465v6.191m0 36.48v6.184m0 36.465v6.207m0 36.464v6.2-6.207m0 42.671v6.199m0 36.465v6.192m0 36.472v6.199m0 36.465v6.207m0 36.457v6.206m0 36.458v6.192m0 36.479v6.192m0 36.472v6.155m39.718-774.164v6.199m0 36.464v6.207m0 36.457v6.192m0 36.48v6.243m0 36.472v6.192m0 36.457v6.207m0 36.465v6.199m0 36.465v6.191m0 36.48v6.184m0 36.465v6.207m0 36.464v6.2-6.207m0 42.671v6.199m0 36.465v6.192m0 36.472v6.199m0 36.465v6.207m0 36.457v6.206m0 36.458v6.192m0 36.479v6.192m0 36.472v6.155m39.724-774.164v6.199m0 36.464v6.207m0 36.457v6.192m0 36.48v6.243m0 36.472v6.192m0 36.457v6.207m0 36.465v6.199m0 36.465v6.191m0 36.48v6.184m0 36.465v6.207m0 36.464v6.2-6.207m0 42.671v6.199m0 36.465v6.192m0 36.472v6.199m0 36.465v6.207m0 36.457v6.206m0 36.458v6.192m0 36.479v6.192m0 36.472v6.155M3.759-82.662v6.199M3.76-40v6.207m0 36.457v6.192m0 36.48v6.243m0 36.472v6.192m0 36.457v6.207m0 36.465v6.199m0 36.465v6.191m0 36.48v6.184m0 36.465v6.207m0 36.464v6.2m0 36.464v6.199m0 36.465v6.192m0 36.472v6.199m0 36.465v6.207m0 36.457v6.206m0 36.458v6.192m0 36.479v6.192m0 36.472v6.155M43.477-82.662v6.199m0 36.464v6.207m0 36.457v6.192m0 36.48v6.243m0 36.472v6.192m0 36.457v6.207m0 36.465v6.199m0 36.465v6.191m0 36.48v6.184m0 36.465v6.207m0 36.464v6.2m0 36.464v6.199m0 36.465v6.192m0 36.472v6.199m0 36.465v6.207m0 36.457v6.206m0 36.458v6.192m0 36.479v6.192m0 36.472v6.155M83.242-82.611v6.2m0 36.464v6.207m0 36.457V8.91m0 36.48v6.191-6.199m0 42.671v6.192m0 36.457v6.207-6.199m0 42.664v6.199m0 36.465v6.191m0 36.48v6.184m0 36.465v6.207m0 36.464v6.2-6.207m0 42.686v6.199m0 36.465v6.192m0 36.472v6.184m0 36.465v6.207m0 36.457v6.206m0 36.458v6.192m0 36.479v6.192m0 36.472v6.155-6.185m39.717-767.98v6.2m0 36.464v6.207m0 36.457v6.192m0 36.48v6.243m0 36.472v6.192m0 36.457v6.207m0 36.465v6.199m0 36.465v6.191m0 36.48v6.184m0 36.465v6.207m0 36.464v6.2m0 36.464v6.199m0 36.465v6.192m0 36.472v6.199-6.251m0 42.716v6.207m0 36.457v6.206m0 36.458v6.192-6.185m0 42.664v6.192m0 36.472v6.155m39.718-774.164v6.199m0 36.464v6.207m0 36.457v6.192m0 36.48v6.243m0 36.472v6.192m0 36.457v6.207m0 36.465v6.199m0 36.465v6.191m0 36.48v6.184m0 36.465v6.207m0 36.464v6.2m0 36.464v6.199m0 36.465v6.192m0 36.472v6.199-6.251m0 42.716v6.207m0 36.457v6.206m0 36.458v6.192-6.185m0 42.664v6.192m0 36.472v6.155M-234.531-82.611v6.2m0 36.464v6.207m0 36.457V8.91m0 36.48v6.191m0 36.472v6.192m0 36.457v6.207m0 36.465v6.199m0 36.465v6.191m0 36.48v6.184m0 36.465v6.207m0 36.457v6.207m0 36.464v6.199m0 36.465v6.192m0 36.472v6.199m0 36.465v6.207m0 36.457v6.206m0 36.458v6.192m0 36.479v6.192m198.6 36.465v6.162M3.787-82.662v6.199m0 36.464v6.207m0 36.457v6.192m0 36.472v6.2m0 36.472v6.191m0 36.465v6.199m0 36.465v6.199m0 36.465v6.192m0 36.479v6.185m0 36.464v6.207m0 36.457v6.207m0 36.465v6.199m0 36.464v6.192m0 36.472v6.251m0 36.465v6.207m0 36.457v6.206m0 36.465v6.185m0 36.479v6.192m0 36.472v6.155M43.504-82.662v6.199m0 36.464v6.207m0 36.457v6.192m0 36.472v6.2m0 36.472v6.191m0 36.465v6.199m0 36.465v6.199m0 36.465v6.192m0 36.479v6.185m0 36.464v6.207m0 36.457v6.207m0 36.465v6.199m0 36.464v6.192m0 36.472v6.251m0 36.465v6.207m0 36.457v6.206m0 36.465v6.185m0 36.479v6.192m0 36.472v6.155m39.738-91.512v6.184m0 36.479v6.192m39.717-603.516v6.2m0 36.472v6.191m0 36.465v6.199m0 36.465v6.199m0 36.465v6.192m0 36.479v6.185m0 36.464v6.207m0 36.457v6.207m0 36.465v6.199m0 36.464v6.192m39.718-390.167v6.2m0 36.472v6.191m0 36.465v6.199m0 36.465v6.199m0 36.465v6.192m0 36.479v6.185m0 36.464v6.207m0 36.457v6.207m0 36.465v6.199m0 36.464v6.192m-394.323-515h-5.77m5.77 42.65h-5.77m5.77 42.67h-5.77m5.77 42.665h-5.77m5.77 42.663h-5.77m5.77 42.672h-5.77m5.77 42.649h-5.77m5.77 42.664h-5.77m5.77 42.671h-5.77m5.77 42.664h-5.77m5.77 42.657h-5.77m5.77 42.663h-5.77m5.77 42.679h-5.77m5.77 42.671h-5.77m5.77 42.664h-5.77m5.77 42.657h-5.77m5.77 42.664h-5.77m5.77 42.627h-5.77m5.77 42.664h-5.77m45.487-767.914h-5.777m5.764 42.65h-5.764m5.764 42.67h-5.764m5.777 42.665h-5.777m5.764 42.663h-5.764m5.764 42.672h-5.764m5.764 42.649h-5.764m5.764 42.664h-5.764m5.764 42.671h-5.764m5.764 42.664h-5.764m5.764 42.657h-5.764m5.764 42.663h-5.764m5.777 42.679h-5.777m5.764 42.671h-5.764m5.764 42.664h-5.764m5.764 42.657h-5.764m5.764 42.664h-5.764m5.777 42.627h-5.777m5.764 42.664h-5.764m45.495-767.914h-5.763m5.763 42.65h-5.763m5.763 42.67h-5.763m5.763 42.665h-5.763m5.763 42.663h-5.763m5.763 42.672h-5.763m5.763 42.649h-5.763m5.763 42.664h-5.763m5.763 42.671h-5.763m5.763 42.664h-5.763m5.763 42.657h-5.763m5.763 42.663h-5.763m5.763 42.679h-5.763m5.763 42.671h-5.763m5.763 42.664h-5.763m5.763 42.657h-5.763m5.763 42.664h-5.763m5.763 42.627h-5.763m5.763 42.664h-5.763m45.487-767.914h-5.77m5.77 42.65h-5.77m5.77 42.67h-5.77m5.77 42.665h-5.77m5.77 42.663h-5.77m5.77 42.672h-5.77m5.77 42.649h-5.77m5.77 42.664h-5.77m5.77 42.671h-5.77m5.77 42.664h-5.77m5.77 42.657h-5.77m5.77 42.663h-5.77m5.77 42.664h-5.77m5.77 42.672h-5.77m5.77 42.664h-5.77m5.77 42.656h-5.77m5.77 42.664h-5.77m5.77 42.664h-5.77m5.77 42.664h-5.77M-72.77-79.504h-5.77m5.77 42.65h-5.77m5.77 42.67h-5.77m5.77 42.665h-5.77m5.77 42.663h-5.77m5.77 42.672h-5.77m5.77 42.649h-5.77m5.77 42.664h-5.77m5.77 42.671h-5.77m5.77 42.664h-5.77m5.77 42.657h-5.77m5.77 42.663h-5.77m5.77 42.664h-5.77m5.77 42.672h-5.77m5.77 42.664h-5.77m5.77 42.656h-5.77m5.77 42.664h-5.77m5.77 42.664h-5.77m5.77 42.664h-5.77m45.494-767.936h-5.77m5.77 42.65h-5.77m5.77 42.67h-5.77m5.77 42.665h-5.77m5.77 42.663h-5.77m5.77 42.672h-5.77m5.77 42.649h-5.77m5.77 42.664h-5.77m5.77 42.671h-5.77m5.77 42.664h-5.77m5.77 42.657h-5.77m5.77 42.663h-5.77m5.77 42.664h-5.77m5.77 42.672h-5.77m5.77 42.664h-5.77m5.77 42.656h-5.77m5.77 42.664h-5.77m5.77 42.664h-5.77m5.77 42.664h-5.77M6.672-79.504H.902m5.77 42.65H.902m5.77 42.67H.902m5.77 42.665H.902m5.77 42.663H.902m5.77 42.672H.902m5.77 42.649H.902m5.77 42.664H.902m5.77 42.671H.902m5.77 42.664H.902m5.77 42.657H.902m5.77 42.663H.902m5.77 42.664H.902m5.77 42.672H.902m5.77 42.664H.902m5.77 42.656H.902m5.77 42.664H.902m5.77 42.664H.902m5.77 42.664H.902M46.389-79.504h-5.736m5.77 42.65h-5.77m5.77 42.67h-5.77m5.77 42.665h-5.77m5.77 42.663h-5.77m5.77 42.672h-5.77m5.77 42.649h-5.77m5.77 42.664h-5.77m5.77 42.671h-5.77m5.77 42.664h-5.77m5.77 42.657h-5.77m5.77 42.663h-5.77m5.77 42.664h-5.77m5.77 42.672h-5.77m5.77 42.664h-5.77m5.77 42.656h-5.77m5.77 42.664h-5.77m5.77 42.664h-5.77m5.77 42.664h-5.77m45.46-767.936h-5.77m5.77 42.65h-5.77m5.77 42.67h-5.77m5.77 42.665h-5.77m5.77 42.663h-5.77m5.77 42.672h-5.77m5.77 42.649h-5.77m5.77 42.664h-5.77m5.77 42.671h-5.77m5.77 42.664h-5.77m5.77 42.657h-5.77m5.77 42.663h-5.77m5.77 42.664h-5.77m5.77 42.672h-5.77m5.77 42.664h-5.77m5.77 42.656h-5.77m5.77 42.664h-5.77m5.77 42.664h-5.77m5.77 42.664h-5.77m45.488-767.936h-5.77m5.77 42.65h-5.77m5.77 42.67h-5.77m5.77 42.665h-5.77m5.77 42.663h-5.77m5.77 42.672h-5.77m5.77 42.649h-5.77m5.77 42.664h-5.77m5.77 42.671h-5.77m5.77 42.664h-5.77m5.77 42.657h-5.77m5.77 42.663h-5.77m5.77 42.679h-5.77m5.77 42.657h-5.77m5.77 42.664h-5.77m5.77 42.656h-5.77m5.77 42.664h-5.77m5.77 42.642h-5.77m5.77 42.664h-5.77m45.487-767.914h-5.77m5.77 42.65h-5.77m5.77 42.67h-5.77m5.77 42.665h-5.77m5.77 42.663h-5.77m5.77 42.672h-5.77m5.77 42.649h-5.77m5.77 42.664h-5.77m5.77 42.671h-5.77m5.77 42.664h-5.77m5.77 42.657h-5.77m5.77 42.663h-5.77m5.77 42.664h-5.77m5.77 42.672h-5.77m5.77 42.664h-5.77m5.77 42.656h-5.77m5.77 42.664h-5.77m5.77 42.664h-5.77m5.77 42.664h-5.77m42.444-771.094v6.199m0 36.464v6.207m0 36.457v6.192m0 36.48v6.243m0 36.472v6.192m0 36.457v6.207m0 36.465v6.199m0 36.465v6.191m0 36.48v6.184m0 36.465v6.207m0 36.464v6.2-6.207m0 42.671v6.199m0 36.465v6.192m0 36.472v6.199m0 36.465v6.207m0 36.457v6.206m0 36.458v6.192m0 36.479v6.192m0 36.472v6.155m39.697-774.113v6.2m0 36.464v6.207m0 36.457V8.91m0 36.48v6.191m0 36.472v6.192m0 36.457v6.207m0 36.465v6.199m0 36.465v6.191m0 36.48v6.184m0 36.465v6.207m0 36.464v6.2-6.207m0 42.686v6.199m0 36.465v6.192m0 36.472v6.184m0 36.465v6.207m0 36.457v6.206m0 36.458v6.192m0 36.479v6.192m0 36.472v6.155m39.717-774.164v6.199m0 36.464v6.207m0 36.457v6.192m0 36.48v6.243m0 36.472v6.192m0 36.457v6.207m0 36.465v6.199m0 36.465v6.191m0 36.48v6.184m0 36.465v6.207m0 36.464v6.2-6.207m0 42.671v6.199m0 36.465v6.192m0 36.472v6.199m0 36.465v6.207m0 36.457v6.206m0 36.458v6.192m0 36.479v6.192m0 36.472v6.155m39.718-774.164v6.199m0 36.464v6.207m0 36.457v6.192m0 36.48v6.243m0 36.472v6.192m0 36.457v6.207m0 36.465v6.199m0 36.465v6.191m0 36.48v6.184m0 36.465v6.207m0 36.464v6.2-6.207m0 42.671v6.199m0 36.465v6.192m0 36.472v6.199m0 36.465v6.207m0 36.457v6.206m0 36.458v6.192m0 36.479v6.192m0 36.472v6.155m39.724-774.164v6.199m0 36.464v6.207m0 36.457v6.192m0 36.48v6.243m0 36.472v6.192m0 36.457v6.207m0 36.465v6.199m0 36.465v6.191m0 36.48v6.184m0 36.465v6.207m0 36.464v6.2-6.207m0 42.671v6.199m0 36.465v6.192m0 36.472v6.199m0 36.465v6.207m0 36.457v6.206m0 36.458v6.192m0 36.479v6.192m0 36.472v6.155m39.717-774.164v6.199m0 36.464v6.207m0 36.457v6.192m0 36.48v6.243m0 36.472v6.192m0 36.457v6.207m0 36.465v6.199m0 36.465v6.191m0 36.48v6.184m0 36.465v6.207m0 36.464v6.2m0 36.464v6.199m0 36.465v6.192m0 36.472v6.199m0 36.465v6.207m0 36.457v6.206m0 36.458v6.192m0 36.479v6.192m0 36.472v6.155m39.718-774.164v6.199m0 36.464v6.207m0 36.457v6.192m0 36.48v6.243m0 36.472v6.192m0 36.457v6.207m0 36.465v6.199m0 36.465v6.191m0 36.48v6.184m0 36.465v6.207m0 36.464v6.2m0 36.464v6.199m0 36.465v6.192m0 36.472v6.199m0 36.465v6.207m0 36.457v6.206m0 36.458v6.192m0 36.479v6.192m0 36.472v6.155M480.278-82.61v6.2m0 36.464v6.207m0 36.457V8.91m0 36.48v6.191-6.199m0 42.671v6.192m0 36.457v6.207-6.199m0 42.664v6.199m0 36.465v6.191m0 36.48v6.184m0 36.465v6.207m0 36.464v6.2-6.207m0 42.686v6.199m0 36.465v6.192m0 36.472v6.184m0 36.465v6.207m0 36.457v6.206m0 36.458v6.192m0 36.479v6.192m0 36.472v6.155-6.185m39.717-767.98v6.2m0 36.464v6.207m0 36.457v6.192m0 36.48v6.243m0 36.472v6.192m0 36.457v6.207m0 36.465v6.199m0 36.465v6.191m0 36.48v6.184m0 36.465v6.207m0 36.464v6.2m0 36.464v6.199m0 36.465v6.192m0 36.472v6.199-6.251m0 42.716v6.207m0 36.457v6.206m0 36.458v6.192-6.185m0 42.664v6.192m0 36.472v6.155m39.718-774.164v6.199m0 36.464v6.207m0 36.457v6.192m0 36.48v6.243m0 36.472v6.192m0 36.457v6.207m0 36.465v6.199m0 36.465v6.191m0 36.48v6.184m0 36.465v6.207m0 36.464v6.2m0 36.464v6.199m0 36.465v6.192m0 36.472v6.199-6.251m0 42.716v6.207m0 36.457v6.206m0 36.458v6.192-6.185m0 42.664v6.192m0 36.472v6.155m-198.608-6.162v6.162m39.718-774.164v6.199m0 36.464v6.207m0 36.457v6.192m0 36.472v6.2m0 36.472v6.191m0 36.465v6.199m0 36.465v6.199m0 36.465v6.192m0 36.479v6.185m0 36.464v6.207m0 36.457v6.207m0 36.465v6.199m0 36.464v6.192m0 36.472v6.251m0 36.465v6.207m0 36.457v6.206m0 36.465v6.185m0 36.479v6.192m0 36.472v6.155M440.54-82.662v6.199m0 36.464v6.207m0 36.457v6.192m0 36.472v6.2m0 36.472v6.191m0 36.465v6.199m0 36.465v6.199m0 36.465v6.192m0 36.479v6.185m0 36.464v6.207m0 36.457v6.207m0 36.465v6.199m0 36.464v6.192m0 36.472v6.251m0 36.465v6.207m0 36.457v6.206m0 36.465v6.185m0 36.479v6.192m0 36.472v6.155m39.738-91.512v6.184m0 36.479v6.192m39.717-603.516v6.2m0 36.472v6.191m0 36.465v6.199m0 36.465v6.199m0 36.465v6.192m0 36.479v6.185m0 36.464v6.207m0 36.457v6.207m0 36.465v6.199m0 36.464v6.192m39.718-390.167v6.2m0 36.472v6.191m0 36.465v6.199m0 36.465v6.199m0 36.465v6.192m0 36.479v6.185m0 36.464v6.207m0 36.457v6.207m0 36.465v6.199m0 36.464v6.192m-354.606-515h-5.777m5.764 42.65h-5.764m5.764 42.67h-5.764m5.777 42.665h-5.777m5.764 42.663h-5.764m5.764 42.672h-5.764m5.764 42.649h-5.764m5.764 42.664h-5.764m5.764 42.671h-5.764m5.764 42.664h-5.764m5.764 42.657h-5.764m5.764 42.663h-5.764m5.777 42.679h-5.777m5.764 42.671h-5.764m5.764 42.664h-5.764m5.764 42.657h-5.764m5.764 42.664h-5.764m5.777 42.627h-5.777m5.764 42.664h-5.764m45.495-767.914h-5.764m5.764 42.65h-5.764m5.764 42.67h-5.764m5.764 42.665h-5.764m5.764 42.663h-5.764m5.764 42.672h-5.764m5.764 42.649h-5.764m5.764 42.664h-5.764m5.764 42.671h-5.764m5.764 42.664h-5.764m5.764 42.657h-5.764m5.764 42.663h-5.764m5.764 42.679h-5.764m5.764 42.671h-5.764m5.764 42.664h-5.764m5.764 42.657h-5.764m5.764 42.664h-5.764m5.764 42.627h-5.764m5.764 42.664h-5.764m45.488-767.914h-5.77m5.77 42.65h-5.77m5.77 42.67h-5.77m5.77 42.665h-5.77m5.77 42.663h-5.77m5.77 42.672h-5.77m5.77 42.649h-5.77m5.77 42.664h-5.77m5.77 42.671h-5.77m5.77 42.664h-5.77m5.77 42.657h-5.77m5.77 42.663h-5.77m5.77 42.664h-5.77m5.77 42.672h-5.77m5.77 42.664h-5.77m5.77 42.656h-5.77m5.77 42.664h-5.77m5.77 42.664h-5.77m5.77 42.664h-5.77m45.487-767.936h-5.77m5.77 42.65h-5.77m5.77 42.67h-5.77m5.77 42.665h-5.77m5.77 42.663h-5.77m5.77 42.672h-5.77m5.77 42.649h-5.77m5.77 42.664h-5.77m5.77 42.671h-5.77m5.77 42.664h-5.77m5.77 42.657h-5.77m5.77 42.663h-5.77m5.77 42.664h-5.77m5.77 42.672h-5.77m5.77 42.664h-5.77m5.77 42.656h-5.77m5.77 42.664h-5.77m5.77 42.664h-5.77m5.77 42.664h-5.77M363.99-79.504h-5.77m5.77 42.65h-5.77m5.77 42.67h-5.77m5.77 42.665h-5.77m5.77 42.663h-5.77m5.77 42.672h-5.77m5.77 42.649h-5.77m5.77 42.664h-5.77m5.77 42.671h-5.77m5.77 42.664h-5.77m5.77 42.657h-5.77m5.77 42.663h-5.77m5.77 42.664h-5.77m5.77 42.672h-5.77m5.77 42.664h-5.77m5.77 42.656h-5.77m5.77 42.664h-5.77m5.77 42.664h-5.77m5.77 42.664h-5.77m45.488-767.936h-5.77m5.77 42.65h-5.77m5.77 42.67h-5.77m5.77 42.665h-5.77m5.77 42.663h-5.77m5.77 42.672h-5.77m5.77 42.649h-5.77m5.77 42.664h-5.77m5.77 42.671h-5.77m5.77 42.664h-5.77m5.77 42.657h-5.77m5.77 42.663h-5.77m5.77 42.664h-5.77m5.77 42.672h-5.77m5.77 42.664h-5.77m5.77 42.656h-5.77m5.77 42.664h-5.77m5.77 42.664h-5.77m5.77 42.664h-5.77m45.487-767.936h-5.736m5.77 42.65h-5.77m5.77 42.67h-5.77m5.77 42.665h-5.77m5.77 42.663h-5.77m5.77 42.672h-5.77m5.77 42.649h-5.77m5.77 42.664h-5.77m5.77 42.671h-5.77m5.77 42.664h-5.77m5.77 42.657h-5.77m5.77 42.663h-5.77m5.77 42.664h-5.77m5.77 42.672h-5.77m5.77 42.664h-5.77m5.77 42.656h-5.77m5.77 42.664h-5.77m5.77 42.664h-5.77m5.77 42.664h-5.77m45.46-767.936h-5.77m5.77 42.65h-5.77m5.77 42.67h-5.77m5.77 42.665h-5.77m5.77 42.663h-5.77m5.77 42.672h-5.77m5.77 42.649h-5.77m5.77 42.664h-5.77m5.77 42.671h-5.77m5.77 42.664h-5.77m5.77 42.657h-5.77m5.77 42.663h-5.77m5.77 42.664h-5.77m5.77 42.672h-5.77m5.77 42.664h-5.77m5.77 42.656h-5.77m5.77 42.664h-5.77m5.77 42.664h-5.77m5.77 42.664h-5.77m45.488-767.936h-5.77m5.77 42.65h-5.77m5.77 42.67h-5.77m5.77 42.665h-5.77m5.77 42.663h-5.77m5.77 42.672h-5.77m5.77 42.649h-5.77m5.77 42.664h-5.77m5.77 42.671h-5.77m5.77 42.664h-5.77m5.77 42.657h-5.77m5.77 42.663h-5.77m5.77 42.679h-5.77m5.77 42.657h-5.77m5.77 42.664h-5.77m5.77 42.656h-5.77m5.77 42.664h-5.77m5.77 42.642h-5.77m5.77 42.664h-5.77m45.487-767.914h-5.77m5.77 42.65h-5.77m5.77 42.67h-5.77m5.77 42.665h-5.77m5.77 42.663h-5.77m5.77 42.672h-5.77m5.77 42.649h-5.77m5.77 42.664h-5.77m5.77 42.671h-5.77m5.77 42.664h-5.77m5.77 42.657h-5.77m5.77 42.663h-5.77m5.77 42.664h-5.77m5.77 42.672h-5.77m5.77 42.664h-5.77m5.77 42.656h-5.77m5.77 42.664h-5.77m5.77 42.664h-5.77m5.77 42.664h-5.77" stroke="#939598" stroke-width=".83"/></g><defs><clipPath id="a"><path fill="#fff" transform="translate(.092 .998)" d="M0 0h108v291H0z"/></clipPath></defs></svg>