<svg width="146" height="287" viewBox="0 0 146 287" fill="none" xmlns="http://www.w3.org/2000/svg">
<g clip-path="url(#clip0_73_89)">
<path d="M-235.023 642.436V648.628M-235.023 685.1V691.262V685.107M-195.306 -82.9019V-76.7026M-195.306 -40.238V-34.0314M-195.306 2.42594V8.61778M-195.306 45.0972V51.3407M-195.306 87.8128V94.0046M-195.306 130.462V136.669M-195.306 173.133V179.332M-195.306 215.797V221.989M-195.306 258.468V264.653M-195.306 301.118V307.324M-195.306 343.789V349.988V343.781M-195.306 386.453V392.652M-195.306 429.117V435.308M-195.306 471.78V477.98M-195.306 514.444V520.651M-195.306 557.108V563.315M-195.306 599.772V605.964M-195.306 642.443V648.635M-195.306 685.107V691.262M-155.609 -82.8502V-76.651M-155.609 -40.1863V-33.9797M-155.609 2.47761V8.66945M-155.609 45.1489V51.3407M-155.609 87.8128V94.0046M-155.609 130.462V136.669M-155.609 173.133V179.332M-155.609 215.797V221.989M-155.609 258.468V264.653M-155.609 301.118V307.324M-155.609 343.789V349.988V343.781M-155.609 386.467V392.667M-155.609 429.131V435.323M-155.609 471.795V477.98M-155.609 514.444V520.651M-155.609 557.108V563.315M-155.609 599.772V605.964M-155.609 642.443V648.635M-155.609 685.107V691.262M-115.892 -82.9019V-76.7026M-115.892 -40.238V-34.0314M-115.892 2.42594V8.61778M-115.892 45.0972V51.3407M-115.892 87.8128V94.0046M-115.892 130.462V136.669M-115.892 173.133V179.332M-115.892 215.797V221.989M-115.892 258.468V264.653M-115.892 301.118V307.324M-115.892 343.789V349.988V343.781M-115.892 386.453V392.652M-115.892 429.117V435.308M-115.892 471.78V477.98M-115.892 514.444V520.651M-115.892 557.108V563.315M-115.892 599.772V605.964M-115.892 642.443V648.635M-115.892 685.107V691.262M-76.1744 -82.9019V-76.7026M-76.1744 -40.238V-34.0314M-76.1744 2.42594V8.61778M-76.1744 45.0972V51.3407M-76.1744 87.8128V94.0046M-76.1744 130.462V136.669M-76.1744 173.133V179.332M-76.1744 215.797V221.989M-76.1744 258.468V264.653M-76.1744 301.118V307.324M-76.1744 343.789V349.988V343.781M-76.1744 386.453V392.652M-76.1744 429.117V435.308M-76.1744 471.78V477.98M-76.1744 514.444V520.651M-76.1744 557.108V563.315M-76.1744 599.772V605.964M-76.1744 642.443V648.635M-76.1744 685.107V691.262M-36.4502 -82.9019V-76.7026M-36.4502 -40.238V-34.0314M-36.4502 2.42594V8.61778M-36.4502 45.0972V51.3407M-36.4502 87.8128V94.0046M-36.4502 130.462V136.669M-36.4502 173.133V179.332M-36.4502 215.797V221.989M-36.4502 258.468V264.653M-36.4502 301.118V307.324M-36.4502 343.789V349.988V343.781M-36.4502 386.453V392.652M-36.4502 429.117V435.308M-36.4502 471.78V477.98M-36.4502 514.444V520.651M-36.4502 557.108V563.315M-36.4502 599.772V605.964M-36.4502 642.443V648.635M-36.4502 685.107V691.262M3.26711 -82.9019V-76.7026M3.26711 -40.238V-34.0314M3.26711 2.42594V8.61778M3.26711 45.0972V51.3407M3.26711 87.8128V94.0046M3.26711 130.462V136.669M3.26711 173.133V179.332M3.26711 215.797V221.989M3.26711 258.468V264.653M3.26711 301.118V307.324M3.26711 343.789V349.988M3.26711 386.453V392.652M3.26711 429.117V435.308M3.26711 471.78V477.98M3.26711 514.444V520.651M3.26711 557.108V563.315M3.26711 599.772V605.964M3.26711 642.443V648.635M3.26711 685.107V691.262M42.9844 -82.9019V-76.7026M42.9844 -40.238V-34.0314M42.9844 2.42594V8.61778M42.9844 45.0972V51.3407M42.9844 87.8128V94.0046M42.9844 130.462V136.669M42.9844 173.133V179.332M42.9844 215.797V221.989M42.9844 258.468V264.653M42.9844 301.118V307.324M42.9844 343.789V349.988M42.9844 386.453V392.652M42.9844 429.117V435.308M42.9844 471.78V477.98M42.9844 514.444V520.651M42.9844 557.108V563.315M42.9844 599.772V605.964M42.9844 642.443V648.635M42.9844 685.107V691.262M82.7498 -82.8502V-76.651M82.7498 -40.1863V-33.9797M82.7498 2.47761V8.66945M82.7498 45.1489V51.3407V45.1415M82.7498 87.8128V94.0046M82.7498 130.462V136.669V130.469M82.7498 173.133V179.332M82.7498 215.797V221.989M82.7498 258.468V264.653M82.7498 301.118V307.324M82.7498 343.789V349.988V343.781M82.7498 386.467V392.667M82.7498 429.131V435.323M82.7498 471.795V477.98M82.7498 514.444V520.651M82.7498 557.108V563.315M82.7498 599.772V605.964M82.7498 642.443V648.635M82.7498 685.107V691.262V685.078M122.467 -82.9019V-76.7026M122.467 -40.238V-34.0314M122.467 2.42594V8.61778M122.467 45.0972V51.3407M122.467 87.8128V94.0046M122.467 130.462V136.669M122.467 173.133V179.332M122.467 215.797V221.989M122.467 258.468V264.653M122.467 301.118V307.324M122.467 343.789V349.988M122.467 386.453V392.652M122.467 429.117V435.308M122.467 471.78V477.98V471.729M122.467 514.444V520.651M122.467 557.108V563.315M122.467 599.772V605.964V599.78M122.467 642.443V648.635M122.467 685.107V691.262M162.184 -82.9019V-76.7026M162.184 -40.238V-34.0314M162.184 2.42594V8.61778M162.184 45.0972V51.3407M162.184 87.8128V94.0046M162.184 130.462V136.669M162.184 173.133V179.332M162.184 215.797V221.989M162.184 258.468V264.653M162.184 301.118V307.324M162.184 343.789V349.988M162.184 386.453V392.652M162.184 429.117V435.308M162.184 471.78V477.98V471.729M162.184 514.444V520.651M162.184 557.108V563.315M162.184 599.772V605.964V599.78M162.184 642.443V648.635M162.184 685.107V691.262M-235.023 -82.8502V-76.651M-235.023 -40.1863V-33.9797M-235.023 2.47761V8.66945M-235.023 45.1489V51.3407M-235.023 87.8128V94.0046M-235.023 130.462V136.669M-235.023 173.133V179.332M-235.023 215.797V221.989M-235.023 258.468V264.653M-235.023 301.118V307.324M-235.023 343.781V349.988M-235.023 386.453V392.652M-235.023 429.117V435.308M-235.023 471.78V477.98M-235.023 514.444V520.651M-235.023 557.108V563.315M-235.023 599.772V605.964M-235.023 642.443V648.635M-36.4228 685.1V691.262M3.29455 -82.9019V-76.7026M3.29455 -40.238V-34.0314M3.29455 2.42594V8.61778M3.29455 45.0898V51.2891M3.29455 87.7611V93.953M3.29455 130.418V136.617M3.29455 173.082V179.281M3.29455 215.745V221.937M3.29455 258.417V264.601M3.29455 301.066V307.272M3.29455 343.73V349.936M3.29455 386.401V392.6M3.29455 429.065V435.257M3.29455 471.729V477.98M3.29455 514.444V520.651M3.29455 557.108V563.315M3.29455 599.78V605.964M3.29455 642.443V648.635M3.29455 685.107V691.262M43.0119 -82.9019V-76.7026M43.0119 -40.238V-34.0314M43.0119 2.42594V8.61778M43.0119 45.0898V51.2891M43.0119 87.7611V93.953M43.0119 130.418V136.617M43.0119 173.082V179.281M43.0119 215.745V221.937M43.0119 258.417V264.601M43.0119 301.066V307.272M43.0119 343.73V349.936M43.0119 386.401V392.6M43.0119 429.065V435.257M43.0119 471.729V477.98M43.0119 514.444V520.651M43.0119 557.108V563.315M43.0119 599.78V605.964M43.0119 642.443V648.635M43.0119 685.107V691.262M82.7498 599.75V605.935M82.7498 642.414V648.606M122.467 45.0898V51.2891M122.467 87.7611V93.953M122.467 130.418V136.617M122.467 173.082V179.281M122.467 215.745V221.937M122.467 258.417V264.601M122.467 301.066V307.272M122.467 343.73V349.936M122.467 386.401V392.6M122.467 429.065V435.257M162.184 45.0898V51.2891M162.184 87.7611V93.953M162.184 130.418V136.617M162.184 173.082V179.281M162.184 215.745V221.937M162.184 258.417V264.601M162.184 301.066V307.272M162.184 343.73V349.936M162.184 386.401V392.6M162.184 429.065V435.257M-232.138 -79.7432H-237.908M-232.138 -37.0941H-237.908M-232.138 5.57722H-237.908M-232.138 48.2411H-237.908M-232.138 90.905H-237.908M-232.138 133.576H-237.908M-232.138 176.225H-237.908M-232.138 218.889H-237.908M-232.138 261.561H-237.908M-232.138 304.225H-237.908M-232.138 346.881H-237.908M-232.138 389.545H-237.908M-232.138 432.224H-237.908M-232.138 474.895H-237.908M-232.138 517.559H-237.908M-232.138 560.215H-237.908M-232.138 602.879H-237.908M-232.138 645.506H-237.908M-232.138 688.17H-237.908M-192.421 -79.7432H-198.198M-192.435 -37.094H-198.198M-192.435 5.57724H-198.198M-192.421 48.2411H-198.198M-192.435 90.905H-198.198M-192.435 133.576H-198.198M-192.435 176.225H-198.198M-192.435 218.889H-198.198M-192.435 261.561H-198.198M-192.435 304.225H-198.198M-192.435 346.881H-198.198M-192.435 389.545H-198.198M-192.421 432.224H-198.198M-192.435 474.895H-198.198M-192.435 517.559H-198.198M-192.435 560.215H-198.198M-192.435 602.879H-198.198M-192.421 645.506H-198.198M-192.435 688.17H-198.198M-152.703 -79.7432H-158.467M-152.703 -37.094H-158.467M-152.703 5.57724H-158.467M-152.703 48.2411H-158.467M-152.703 90.905H-158.467M-152.703 133.576H-158.467M-152.703 176.225H-158.467M-152.703 218.889H-158.467M-152.703 261.561H-158.467M-152.703 304.225H-158.467M-152.703 346.881H-158.467M-152.703 389.545H-158.467M-152.703 432.224H-158.467M-152.703 474.895H-158.467M-152.703 517.559H-158.467M-152.703 560.215H-158.467M-152.703 602.879H-158.467M-152.703 645.506H-158.467M-152.703 688.17H-158.467M-112.979 -79.7432H-118.749M-112.979 -37.094H-118.749M-112.979 5.57724H-118.749M-112.979 48.2411H-118.749M-112.979 90.905H-118.749M-112.979 133.576H-118.749M-112.979 176.225H-118.749M-112.979 218.889H-118.749M-112.979 261.561H-118.749M-112.979 304.225H-118.749M-112.979 346.881H-118.749M-112.979 389.545H-118.749M-112.979 432.209H-118.749M-112.979 474.88H-118.749M-112.979 517.544H-118.749M-112.979 560.201H-118.749M-112.979 602.864H-118.749M-112.979 645.528H-118.749M-112.979 688.192H-118.749M-73.2619 -79.7432H-79.032M-73.2619 -37.094H-79.032M-73.2619 5.57724H-79.032M-73.2619 48.2411H-79.032M-73.2619 90.905H-79.032M-73.2619 133.576H-79.032M-73.2619 176.225H-79.032M-73.2619 218.889H-79.032M-73.2619 261.561H-79.032M-73.2619 304.225H-79.032M-73.2619 346.881H-79.032M-73.2619 389.545H-79.032M-73.2619 432.209H-79.032M-73.2619 474.88H-79.032M-73.2619 517.544H-79.032M-73.2619 560.201H-79.032M-73.2619 602.864H-79.032M-73.2619 645.528H-79.032M-73.2619 688.192H-79.032M-33.5377 -79.7432H-39.3078M-33.5377 -37.094H-39.3078M-33.5377 5.57724H-39.3078M-33.5377 48.2411H-39.3078M-33.5377 90.905H-39.3078M-33.5377 133.576H-39.3078M-33.5377 176.225H-39.3078M-33.5377 218.889H-39.3078M-33.5377 261.561H-39.3078M-33.5377 304.225H-39.3078M-33.5377 346.881H-39.3078M-33.5377 389.545H-39.3078M-33.5377 432.209H-39.3078M-33.5377 474.88H-39.3078M-33.5377 517.544H-39.3078M-33.5377 560.201H-39.3078M-33.5377 602.864H-39.3078M-33.5377 645.528H-39.3078M-33.5377 688.192H-39.3078M6.17959 -79.7432H0.409524M6.17959 -37.094H0.409524M6.17959 5.57724H0.409524M6.17959 48.2411H0.409524M6.17959 90.905H0.409524M6.17959 133.576H0.409524M6.17959 176.225H0.409524M6.17959 218.889H0.409524M6.17959 261.561H0.409524M6.17959 304.225H0.409524M6.17959 346.881H0.409524M6.17959 389.545H0.409524M6.17959 432.209H0.409524M6.17959 474.88H0.409524M6.17959 517.544H0.409524M6.17959 560.201H0.409524M6.17959 602.864H0.409524M6.17959 645.528H0.409524M6.17959 688.192H0.409524M45.8969 -79.7432H40.1612M45.9313 -37.094H40.1612M45.9313 5.57724H40.1612M45.9313 48.2411H40.1612M45.9313 90.905H40.1612M45.9313 133.576H40.1612M45.9313 176.225H40.1612M45.9313 218.889H40.1612M45.9313 261.561H40.1612M45.9313 304.225H40.1612M45.9313 346.881H40.1612M45.9313 389.545H40.1612M45.9313 432.209H40.1612M45.9313 474.88H40.1612M45.9313 517.544H40.1612M45.9313 560.201H40.1612M45.9313 602.864H40.1612M45.9313 645.528H40.1612M45.9313 688.192H40.1612M85.6211 -79.7432H79.8511M85.6211 -37.094H79.8511M85.6211 5.57724H79.8511M85.6211 48.2411H79.8511M85.6211 90.905H79.8511M85.6211 133.576H79.8511M85.6211 176.225H79.8511M85.6211 218.889H79.8511M85.6211 261.561H79.8511M85.6211 304.225H79.8511M85.6211 346.881H79.8511M85.6211 389.545H79.8511M85.6211 432.209H79.8511M85.6211 474.88H79.8511M85.6211 517.544H79.8511M85.6211 560.201H79.8511M85.6211 602.864H79.8511M85.6211 645.528H79.8511M85.6211 688.192H79.8511M125.338 -79.7432H119.568M125.338 -37.094H119.568M125.338 5.57724H119.568M125.338 48.2411H119.568M125.338 90.905H119.568M125.338 133.576H119.568M125.338 176.225H119.568M125.338 218.889H119.568M125.338 261.561H119.568M125.338 304.225H119.568M125.338 346.881H119.568M125.338 389.545H119.568M125.338 432.224H119.568M125.338 474.88H119.568M125.338 517.544H119.568M125.338 560.201H119.568M125.338 602.864H119.568M125.338 645.506H119.568M125.338 688.17H119.568M165.056 -79.7432H159.286M165.056 -37.094H159.286M165.056 5.57724H159.286M165.056 48.2411H159.286M165.056 90.905H159.286M165.056 133.576H159.286M165.056 176.225H159.286M165.056 218.889H159.286M165.056 261.561H159.286M165.056 304.225H159.286M165.056 346.881H159.286M165.056 389.545H159.286M165.056 432.209H159.286M165.056 474.88H159.286M165.056 517.544H159.286M165.056 560.201H159.286M165.056 602.864H159.286M165.056 645.528H159.286M165.056 688.192H159.286M201.73 -82.9019V-76.7026M201.73 -40.238V-34.0314M201.73 2.42594V8.61778M201.73 45.0972V51.3407M201.73 87.8128V94.0046M201.73 130.462V136.669M201.73 173.133V179.332M201.73 215.797V221.989M201.73 258.468V264.653M201.73 301.118V307.324M201.73 343.789V349.988V343.781M201.73 386.453V392.652M201.73 429.117V435.308M201.73 471.78V477.98M201.73 514.444V520.651M201.73 557.108V563.315M201.73 599.772V605.964M201.73 642.443V648.635M201.73 685.107V691.262M241.427 -82.8502V-76.651M241.427 -40.1863V-33.9797M241.427 2.47761V8.66945M241.427 45.1489V51.3407M241.427 87.8128V94.0046M241.427 130.462V136.669M241.427 173.133V179.332M241.427 215.797V221.989M241.427 258.468V264.653M241.427 301.118V307.324M241.427 343.789V349.988V343.781M241.427 386.467V392.667M241.427 429.131V435.323M241.427 471.795V477.98M241.427 514.444V520.651M241.427 557.108V563.315M241.427 599.772V605.964M241.427 642.443V648.635M241.427 685.107V691.262M281.144 -82.9019V-76.7026M281.144 -40.238V-34.0314M281.144 2.42594V8.61778M281.144 45.0972V51.3407M281.144 87.8128V94.0046M281.144 130.462V136.669M281.144 173.133V179.332M281.144 215.797V221.989M281.144 258.468V264.653M281.144 301.118V307.324M281.144 343.789V349.988V343.781M281.144 386.453V392.652M281.144 429.117V435.308M281.144 471.78V477.98M281.144 514.444V520.651M281.144 557.108V563.315M281.144 599.772V605.964M281.144 642.443V648.635M281.144 685.107V691.262M320.862 -82.9019V-76.7026M320.862 -40.238V-34.0314M320.862 2.42594V8.61778M320.862 45.0972V51.3407M320.862 87.8128V94.0046M320.862 130.462V136.669M320.862 173.133V179.332M320.862 215.797V221.989M320.862 258.468V264.653M320.862 301.118V307.324M320.862 343.789V349.988V343.781M320.862 386.453V392.652M320.862 429.117V435.308M320.862 471.78V477.98M320.862 514.444V520.651M320.862 557.108V563.315M320.862 599.772V605.964M320.862 642.443V648.635M320.862 685.107V691.262M360.586 -82.9019V-76.7026M360.586 -40.238V-34.0314M360.586 2.42594V8.61778M360.586 45.0972V51.3407M360.586 87.8128V94.0046M360.586 130.462V136.669M360.586 173.133V179.332M360.586 215.797V221.989M360.586 258.468V264.653M360.586 301.118V307.324M360.586 343.789V349.988V343.781M360.586 386.453V392.652M360.586 429.117V435.308M360.586 471.78V477.98M360.586 514.444V520.651M360.586 557.108V563.315M360.586 599.772V605.964M360.586 642.443V648.635M360.586 685.107V691.262M400.303 -82.9019V-76.7026M400.303 -40.238V-34.0314M400.303 2.42594V8.61778M400.303 45.0972V51.3407M400.303 87.8128V94.0046M400.303 130.462V136.669M400.303 173.133V179.332M400.303 215.797V221.989M400.303 258.468V264.653M400.303 301.118V307.324M400.303 343.789V349.988M400.303 386.453V392.652M400.303 429.117V435.308M400.303 471.78V477.98M400.303 514.444V520.651M400.303 557.108V563.315M400.303 599.772V605.964M400.303 642.443V648.635M400.303 685.107V691.262M440.02 -82.9019V-76.7026M440.02 -40.238V-34.0314M440.02 2.42594V8.61778M440.02 45.0972V51.3407M440.02 87.8128V94.0046M440.02 130.462V136.669M440.02 173.133V179.332M440.02 215.797V221.989M440.02 258.468V264.653M440.02 301.118V307.324M440.02 343.789V349.988M440.02 386.453V392.652M440.02 429.117V435.308M440.02 471.78V477.98M440.02 514.444V520.651M440.02 557.108V563.315M440.02 599.772V605.964M440.02 642.443V648.635M440.02 685.107V691.262M479.786 -82.8502V-76.651M479.786 -40.1863V-33.9797M479.786 2.47761V8.66945M479.786 45.1489V51.3407V45.1415M479.786 87.8128V94.0046M479.786 130.462V136.669V130.469M479.786 173.133V179.332M479.786 215.797V221.989M479.786 258.468V264.653M479.786 301.118V307.324M479.786 343.789V349.988V343.781M479.786 386.467V392.667M479.786 429.131V435.323M479.786 471.795V477.98M479.786 514.444V520.651M479.786 557.108V563.315M479.786 599.772V605.964M479.786 642.443V648.635M479.786 685.107V691.262V685.078M519.503 -82.9019V-76.7026M519.503 -40.238V-34.0314M519.503 2.42594V8.61778M519.503 45.0972V51.3407M519.503 87.8128V94.0046M519.503 130.462V136.669M519.503 173.133V179.332M519.503 215.797V221.989M519.503 258.468V264.653M519.503 301.118V307.324M519.503 343.789V349.988M519.503 386.453V392.652M519.503 429.117V435.308M519.503 471.78V477.98V471.729M519.503 514.444V520.651M519.503 557.108V563.315M519.503 599.772V605.964V599.78M519.503 642.443V648.635M519.503 685.107V691.262M559.22 -82.9019V-76.7026M559.22 -40.238V-34.0314M559.22 2.42594V8.61778M559.22 45.0972V51.3407M559.22 87.8128V94.0046M559.22 130.462V136.669M559.22 173.133V179.332M559.22 215.797V221.989M559.22 258.468V264.653M559.22 301.118V307.324M559.22 343.789V349.988M559.22 386.453V392.652M559.22 429.117V435.308M559.22 471.78V477.98V471.729M559.22 514.444V520.651M559.22 557.108V563.315M559.22 599.772V605.964V599.78M559.22 642.443V648.635M559.22 685.107V691.262M360.613 685.1V691.262M400.33 -82.9019V-76.7026M400.33 -40.238V-34.0314M400.33 2.42594V8.61778M400.33 45.0898V51.2891M400.33 87.7611V93.953M400.33 130.418V136.617M400.33 173.082V179.281M400.33 215.745V221.937M400.33 258.417V264.601M400.33 301.066V307.272M400.33 343.73V349.936M400.33 386.401V392.6M400.33 429.065V435.257M400.33 471.729V477.98M400.33 514.444V520.651M400.33 557.108V563.315M400.33 599.78V605.964M400.33 642.443V648.635M400.33 685.107V691.262M440.048 -82.9019V-76.7026M440.048 -40.238V-34.0314M440.048 2.42594V8.61778M440.048 45.0898V51.2891M440.048 87.7611V93.953M440.048 130.418V136.617M440.048 173.082V179.281M440.048 215.745V221.937M440.048 258.417V264.601M440.048 301.066V307.272M440.048 343.73V349.936M440.048 386.401V392.6M440.048 429.065V435.257M440.048 471.729V477.98M440.048 514.444V520.651M440.048 557.108V563.315M440.048 599.78V605.964M440.048 642.443V648.635M440.048 685.107V691.262M479.786 599.75V605.935M479.786 642.414V648.606M519.503 45.0898V51.2891M519.503 87.7611V93.953M519.503 130.418V136.617M519.503 173.082V179.281M519.503 215.745V221.937M519.503 258.417V264.601M519.503 301.066V307.272M519.503 343.73V349.936M519.503 386.401V392.6M519.503 429.065V435.257M559.22 45.0898V51.2891M559.22 87.7611V93.953M559.22 130.418V136.617M559.22 173.082V179.281M559.22 215.745V221.937M559.22 258.417V264.601M559.22 301.066V307.272M559.22 343.73V349.936M559.22 386.401V392.6M559.22 429.065V435.257M204.615 -79.7432H198.838M204.601 -37.094H198.838M204.601 5.57724H198.838M204.615 48.2411H198.838M204.601 90.905H198.838M204.601 133.576H198.838M204.601 176.225H198.838M204.601 218.889H198.838M204.601 261.561H198.838M204.601 304.225H198.838M204.601 346.881H198.838M204.601 389.545H198.838M204.615 432.224H198.838M204.601 474.895H198.838M204.601 517.559H198.838M204.601 560.215H198.838M204.601 602.879H198.838M204.615 645.506H198.838M204.601 688.17H198.838M244.332 -79.7432H238.569M244.332 -37.094H238.569M244.332 5.57724H238.569M244.332 48.2411H238.569M244.332 90.905H238.569M244.332 133.576H238.569M244.332 176.225H238.569M244.332 218.889H238.569M244.332 261.561H238.569M244.332 304.225H238.569M244.332 346.881H238.569M244.332 389.545H238.569M244.332 432.224H238.569M244.332 474.895H238.569M244.332 517.559H238.569M244.332 560.215H238.569M244.332 602.879H238.569M244.332 645.506H238.569M244.332 688.17H238.569M284.057 -79.7432H278.287M284.057 -37.094H278.287M284.057 5.57724H278.287M284.057 48.2411H278.287M284.057 90.905H278.287M284.057 133.576H278.287M284.057 176.225H278.287M284.057 218.889H278.287M284.057 261.561H278.287M284.057 304.225H278.287M284.057 346.881H278.287M284.057 389.545H278.287M284.057 432.209H278.287M284.057 474.88H278.287M284.057 517.544H278.287M284.057 560.201H278.287M284.057 602.864H278.287M284.057 645.528H278.287M284.057 688.192H278.287M323.774 -79.7432H318.004M323.774 -37.094H318.004M323.774 5.57724H318.004M323.774 48.2411H318.004M323.774 90.905H318.004M323.774 133.576H318.004M323.774 176.225H318.004M323.774 218.889H318.004M323.774 261.561H318.004M323.774 304.225H318.004M323.774 346.881H318.004M323.774 389.545H318.004M323.774 432.209H318.004M323.774 474.88H318.004M323.774 517.544H318.004M323.774 560.201H318.004M323.774 602.864H318.004M323.774 645.528H318.004M323.774 688.192H318.004M363.498 -79.7432H357.728M363.498 -37.094H357.728M363.498 5.57724H357.728M363.498 48.2411H357.728M363.498 90.905H357.728M363.498 133.576H357.728M363.498 176.225H357.728M363.498 218.889H357.728M363.498 261.561H357.728M363.498 304.225H357.728M363.498 346.881H357.728M363.498 389.545H357.728M363.498 432.209H357.728M363.498 474.88H357.728M363.498 517.544H357.728M363.498 560.201H357.728M363.498 602.864H357.728M363.498 645.528H357.728M363.498 688.192H357.728M403.216 -79.7432H397.445M403.216 -37.094H397.445M403.216 5.57724H397.445M403.216 48.2411H397.445M403.216 90.905H397.445M403.216 133.576H397.445M403.216 176.225H397.445M403.216 218.889H397.445M403.216 261.561H397.445M403.216 304.225H397.445M403.216 346.881H397.445M403.216 389.545H397.445M403.216 432.209H397.445M403.216 474.88H397.445M403.216 517.544H397.445M403.216 560.201H397.445M403.216 602.864H397.445M403.216 645.528H397.445M403.216 688.192H397.445M442.933 -79.7432H437.197M442.967 -37.094H437.197M442.967 5.57724H437.197M442.967 48.2411H437.197M442.967 90.905H437.197M442.967 133.576H437.197M442.967 176.225H437.197M442.967 218.889H437.197M442.967 261.561H437.197M442.967 304.225H437.197M442.967 346.881H437.197M442.967 389.545H437.197M442.967 432.209H437.197M442.967 474.88H437.197M442.967 517.544H437.197M442.967 560.201H437.197M442.967 602.864H437.197M442.967 645.528H437.197M442.967 688.192H437.197M482.657 -79.7432H476.887M482.657 -37.094H476.887M482.657 5.57724H476.887M482.657 48.2411H476.887M482.657 90.905H476.887M482.657 133.576H476.887M482.657 176.225H476.887M482.657 218.889H476.887M482.657 261.561H476.887M482.657 304.225H476.887M482.657 346.881H476.887M482.657 389.545H476.887M482.657 432.209H476.887M482.657 474.88H476.887M482.657 517.544H476.887M482.657 560.201H476.887M482.657 602.864H476.887M482.657 645.528H476.887M482.657 688.192H476.887M522.374 -79.7432H516.604M522.374 -37.094H516.604M522.374 5.57724H516.604M522.374 48.2411H516.604M522.374 90.905H516.604M522.374 133.576H516.604M522.374 176.225H516.604M522.374 218.889H516.604M522.374 261.561H516.604M522.374 304.225H516.604M522.374 346.881H516.604M522.374 389.545H516.604M522.374 432.224H516.604M522.374 474.88H516.604M522.374 517.544H516.604M522.374 560.201H516.604M522.374 602.864H516.604M522.374 645.506H516.604M522.374 688.17H516.604M562.092 -79.7432H556.322M562.092 -37.094H556.322M562.092 5.57724H556.322M562.092 48.2411H556.322M562.092 90.905H556.322M562.092 133.576H556.322M562.092 176.225H556.322M562.092 218.889H556.322M562.092 261.561H556.322M562.092 304.225H556.322M562.092 346.881H556.322M562.092 389.545H556.322M562.092 432.209H556.322M562.092 474.88H556.322M562.092 517.544H556.322M562.092 560.201H556.322M562.092 602.864H556.322M562.092 645.528H556.322M562.092 688.192H556.322" stroke="#939598" stroke-width="0.83"/>
</g>
<defs>
<clipPath id="clip0_73_89">
<rect width="170" height="286" fill="white" transform="translate(0 0.725586)"/>
</clipPath>
</defs>
</svg>
