<svg width="109" height="292" viewBox="0 0 109 292" fill="none" xmlns="http://www.w3.org/2000/svg">
<g clip-path="url(#clip0_77_103)">
<path d="M-234.531 642.676V648.867M-234.531 685.34V691.502V685.347M-194.814 -82.6624V-76.4631M-194.814 -39.9985V-33.7919M-194.814 2.66545V8.85729M-194.814 45.3367V51.5802M-194.814 88.0523V94.2441M-194.814 130.701V136.908M-194.814 173.373V179.572M-194.814 216.037V222.228M-194.814 258.708V264.892M-194.814 301.357V307.564M-194.814 344.028V350.228V344.021M-194.814 386.692V392.891M-194.814 429.356V435.548M-194.814 472.02V478.219M-194.814 514.684V520.891M-194.814 557.348V563.554M-194.814 600.012V606.204M-194.814 642.683V648.875M-194.814 685.347V691.502M-155.117 -82.6107V-76.4115M-155.117 -39.9468V-33.7402M-155.117 2.71711V8.90895M-155.117 45.3884V51.5802M-155.117 88.0523V94.2441M-155.117 130.701V136.908M-155.117 173.373V179.572M-155.117 216.037V222.228M-155.117 258.708V264.892M-155.117 301.357V307.564M-155.117 344.028V350.228V344.021M-155.117 386.707V392.906M-155.117 429.371V435.563M-155.117 472.035V478.219M-155.117 514.684V520.891M-155.117 557.348V563.554M-155.117 600.012V606.204M-155.117 642.683V648.875M-155.117 685.347V691.502M-115.4 -82.6624V-76.4631M-115.4 -39.9985V-33.7919M-115.4 2.66545V8.85729M-115.4 45.3367V51.5802M-115.4 88.0523V94.2441M-115.4 130.701V136.908M-115.4 173.373V179.572M-115.4 216.037V222.228M-115.4 258.708V264.892M-115.4 301.357V307.564M-115.4 344.028V350.228V344.021M-115.4 386.692V392.891M-115.4 429.356V435.548M-115.4 472.02V478.219M-115.4 514.684V520.891M-115.4 557.348V563.554M-115.4 600.012V606.204M-115.4 642.683V648.875M-115.4 685.347V691.502M-75.6823 -82.6624V-76.4631M-75.6823 -39.9985V-33.7919M-75.6823 2.66545V8.85729M-75.6823 45.3367V51.5802M-75.6823 88.0523V94.2441M-75.6823 130.701V136.908M-75.6823 173.373V179.572M-75.6823 216.037V222.228M-75.6823 258.708V264.892M-75.6823 301.357V307.564M-75.6823 344.028V350.228V344.021M-75.6823 386.692V392.891M-75.6823 429.356V435.548M-75.6823 472.02V478.219M-75.6823 514.684V520.891M-75.6823 557.348V563.554M-75.6823 600.012V606.204M-75.6823 642.683V648.875M-75.6823 685.347V691.502M-35.958 -82.6624V-76.4631M-35.958 -39.9985V-33.7919M-35.958 2.66545V8.85729M-35.958 45.3367V51.5802M-35.958 88.0523V94.2441M-35.958 130.701V136.908M-35.958 173.373V179.572M-35.958 216.037V222.228M-35.958 258.708V264.892M-35.958 301.357V307.564M-35.958 344.028V350.228V344.021M-35.958 386.692V392.891M-35.958 429.356V435.548M-35.958 472.02V478.219M-35.958 514.684V520.891M-35.958 557.348V563.554M-35.958 600.012V606.204M-35.958 642.683V648.875M-35.958 685.347V691.502M3.75929 -82.6624V-76.4631M3.75929 -39.9985V-33.7919M3.75929 2.66545V8.85729M3.75929 45.3367V51.5802M3.75929 88.0523V94.2441M3.75929 130.701V136.908M3.75929 173.373V179.572M3.75929 216.037V222.228M3.75929 258.708V264.892M3.75929 301.357V307.564M3.75929 344.028V350.228M3.75929 386.692V392.891M3.75929 429.356V435.548M3.75929 472.02V478.219M3.75929 514.684V520.891M3.75929 557.348V563.554M3.75929 600.012V606.204M3.75929 642.683V648.875M3.75929 685.347V691.502M43.4766 -82.6624V-76.4631M43.4766 -39.9985V-33.7919M43.4766 2.66545V8.85729M43.4766 45.3367V51.5802M43.4766 88.0523V94.2441M43.4766 130.701V136.908M43.4766 173.373V179.572M43.4766 216.037V222.228M43.4766 258.708V264.892M43.4766 301.357V307.564M43.4766 344.028V350.228M43.4766 386.692V392.891M43.4766 429.356V435.548M43.4766 472.02V478.219M43.4766 514.684V520.891M43.4766 557.348V563.554M43.4766 600.012V606.204M43.4766 642.683V648.875M43.4766 685.347V691.502M83.242 -82.6107V-76.4115M83.242 -39.9468V-33.7402M83.242 2.71711V8.90895M83.242 45.3884V51.5802V45.381M83.242 88.0523V94.2441M83.242 130.701V136.908V130.709M83.242 173.373V179.572M83.242 216.037V222.228M83.242 258.708V264.892M83.242 301.357V307.564M83.242 344.028V350.228V344.021M83.242 386.707V392.906M83.242 429.371V435.563M83.242 472.035V478.219M83.242 514.684V520.891M83.242 557.348V563.554M83.242 600.012V606.204M83.242 642.683V648.875M83.242 685.347V691.502V685.317M122.959 -82.6624V-76.4631M122.959 -39.9985V-33.7919M122.959 2.66545V8.85729M122.959 45.3367V51.5802M122.959 88.0523V94.2441M122.959 130.701V136.908M122.959 173.373V179.572M122.959 216.037V222.228M122.959 258.708V264.892M122.959 301.357V307.564M122.959 344.028V350.228M122.959 386.692V392.891M122.959 429.356V435.548M122.959 472.02V478.219V471.968M122.959 514.684V520.891M122.959 557.348V563.554M122.959 600.012V606.204V600.019M122.959 642.683V648.875M122.959 685.347V691.502M162.677 -82.6624V-76.4631M162.677 -39.9985V-33.7919M162.677 2.66545V8.85729M162.677 45.3367V51.5802M162.677 88.0523V94.2441M162.677 130.701V136.908M162.677 173.373V179.572M162.677 216.037V222.228M162.677 258.708V264.892M162.677 301.357V307.564M162.677 344.028V350.228M162.677 386.692V392.891M162.677 429.356V435.548M162.677 472.02V478.219V471.968M162.677 514.684V520.891M162.677 557.348V563.554M162.677 600.012V606.204V600.019M162.677 642.683V648.875M162.677 685.347V691.502M-234.531 -82.6107V-76.4115M-234.531 -39.9468V-33.7402M-234.531 2.71711V8.90895M-234.531 45.3884V51.5802M-234.531 88.0523V94.2441M-234.531 130.701V136.908M-234.531 173.373V179.572M-234.531 216.037V222.228M-234.531 258.708V264.892M-234.531 301.357V307.564M-234.531 344.021V350.228M-234.531 386.692V392.891M-234.531 429.356V435.548M-234.531 472.02V478.219M-234.531 514.684V520.891M-234.531 557.348V563.554M-234.531 600.012V606.204M-234.531 642.683V648.875M-35.9306 685.34V691.502M3.78673 -82.6624V-76.4631M3.78673 -39.9985V-33.7919M3.78673 2.66545V8.85729M3.78673 45.3293V51.5286M3.78673 88.0006V94.1925M3.78673 130.657V136.856M3.78673 173.321V179.52M3.78673 215.985V222.177M3.78673 258.656V264.841M3.78673 301.305V307.512M3.78673 343.969V350.176M3.78673 386.641V392.84M3.78673 429.304V435.496M3.78673 471.968V478.219M3.78673 514.684V520.891M3.78673 557.348V563.554M3.78673 600.019V606.204M3.78673 642.683V648.875M3.78673 685.347V691.502M43.5041 -82.6624V-76.4631M43.5041 -39.9985V-33.7919M43.5041 2.66545V8.85729M43.5041 45.3293V51.5286M43.5041 88.0006V94.1925M43.5041 130.657V136.856M43.5041 173.321V179.52M43.5041 215.985V222.177M43.5041 258.656V264.841M43.5041 301.305V307.512M43.5041 343.969V350.176M43.5041 386.641V392.84M43.5041 429.304V435.496M43.5041 471.968V478.219M43.5041 514.684V520.891M43.5041 557.348V563.554M43.5041 600.019V606.204M43.5041 642.683V648.875M43.5041 685.347V691.502M83.242 599.99V606.174M83.242 642.653V648.845M122.959 45.3293V51.5286M122.959 88.0006V94.1925M122.959 130.657V136.856M122.959 173.321V179.52M122.959 215.985V222.177M122.959 258.656V264.841M122.959 301.305V307.512M122.959 343.969V350.176M122.959 386.641V392.84M122.959 429.304V435.496M162.677 45.3293V51.5286M162.677 88.0006V94.1925M162.677 130.657V136.856M162.677 173.321V179.52M162.677 215.985V222.177M162.677 258.656V264.841M162.677 301.305V307.512M162.677 343.969V350.176M162.677 386.641V392.84M162.677 429.304V435.496M-231.646 -79.5037H-237.416M-231.646 -36.8546H-237.416M-231.646 5.81672H-237.416M-231.646 48.4806H-237.416M-231.646 91.1445H-237.416M-231.646 133.816H-237.416M-231.646 176.465H-237.416M-231.646 219.129H-237.416M-231.646 261.8H-237.416M-231.646 304.464H-237.416M-231.646 347.121H-237.416M-231.646 389.784H-237.416M-231.646 432.463H-237.416M-231.646 475.134H-237.416M-231.646 517.798H-237.416M-231.646 560.455H-237.416M-231.646 603.119H-237.416M-231.646 645.746H-237.416M-231.646 688.41H-237.416M-191.929 -79.5037H-197.706M-191.942 -36.8545H-197.706M-191.942 5.81674H-197.706M-191.929 48.4806H-197.706M-191.942 91.1445H-197.706M-191.942 133.816H-197.706M-191.942 176.465H-197.706M-191.942 219.129H-197.706M-191.942 261.8H-197.706M-191.942 304.464H-197.706M-191.942 347.121H-197.706M-191.942 389.784H-197.706M-191.929 432.463H-197.706M-191.942 475.134H-197.706M-191.942 517.798H-197.706M-191.942 560.455H-197.706M-191.942 603.119H-197.706M-191.929 645.746H-197.706M-191.942 688.41H-197.706M-152.211 -79.5037H-157.974M-152.211 -36.8545H-157.974M-152.211 5.81674H-157.974M-152.211 48.4806H-157.974M-152.211 91.1445H-157.974M-152.211 133.816H-157.974M-152.211 176.465H-157.974M-152.211 219.129H-157.974M-152.211 261.8H-157.974M-152.211 304.464H-157.974M-152.211 347.121H-157.974M-152.211 389.784H-157.974M-152.211 432.463H-157.974M-152.211 475.134H-157.974M-152.211 517.798H-157.974M-152.211 560.455H-157.974M-152.211 603.119H-157.974M-152.211 645.746H-157.974M-152.211 688.41H-157.974M-112.487 -79.5037H-118.257M-112.487 -36.8545H-118.257M-112.487 5.81674H-118.257M-112.487 48.4806H-118.257M-112.487 91.1445H-118.257M-112.487 133.816H-118.257M-112.487 176.465H-118.257M-112.487 219.129H-118.257M-112.487 261.8H-118.257M-112.487 304.464H-118.257M-112.487 347.121H-118.257M-112.487 389.784H-118.257M-112.487 432.448H-118.257M-112.487 475.12H-118.257M-112.487 517.784H-118.257M-112.487 560.44H-118.257M-112.487 603.104H-118.257M-112.487 645.768H-118.257M-112.487 688.432H-118.257M-72.7697 -79.5037H-78.5398M-72.7697 -36.8545H-78.5398M-72.7697 5.81674H-78.5398M-72.7697 48.4806H-78.5398M-72.7697 91.1445H-78.5398M-72.7697 133.816H-78.5398M-72.7697 176.465H-78.5398M-72.7697 219.129H-78.5398M-72.7697 261.8H-78.5398M-72.7697 304.464H-78.5398M-72.7697 347.121H-78.5398M-72.7697 389.784H-78.5398M-72.7697 432.448H-78.5398M-72.7697 475.12H-78.5398M-72.7697 517.784H-78.5398M-72.7697 560.44H-78.5398M-72.7697 603.104H-78.5398M-72.7697 645.768H-78.5398M-72.7697 688.432H-78.5398M-33.0456 -79.5037H-38.8156M-33.0456 -36.8545H-38.8156M-33.0456 5.81674H-38.8156M-33.0456 48.4806H-38.8156M-33.0456 91.1445H-38.8156M-33.0456 133.816H-38.8156M-33.0456 176.465H-38.8156M-33.0456 219.129H-38.8156M-33.0456 261.8H-38.8156M-33.0456 304.464H-38.8156M-33.0456 347.121H-38.8156M-33.0456 389.784H-38.8156M-33.0456 432.448H-38.8156M-33.0456 475.12H-38.8156M-33.0456 517.784H-38.8156M-33.0456 560.44H-38.8156M-33.0456 603.104H-38.8156M-33.0456 645.768H-38.8156M-33.0456 688.432H-38.8156M6.67178 -79.5037H0.901711M6.67178 -36.8545H0.901711M6.67178 5.81674H0.901711M6.67178 48.4806H0.901711M6.67178 91.1445H0.901711M6.67178 133.816H0.901711M6.67178 176.465H0.901711M6.67178 219.129H0.901711M6.67178 261.8H0.901711M6.67178 304.464H0.901711M6.67178 347.121H0.901711M6.67178 389.784H0.901711M6.67178 432.448H0.901711M6.67178 475.12H0.901711M6.67178 517.784H0.901711M6.67178 560.44H0.901711M6.67178 603.104H0.901711M6.67178 645.768H0.901711M6.67178 688.432H0.901711M46.3891 -79.5037H40.6534M46.4235 -36.8545H40.6534M46.4235 5.81674H40.6534M46.4235 48.4806H40.6534M46.4235 91.1445H40.6534M46.4235 133.816H40.6534M46.4235 176.465H40.6534M46.4235 219.129H40.6534M46.4235 261.8H40.6534M46.4235 304.464H40.6534M46.4235 347.121H40.6534M46.4235 389.784H40.6534M46.4235 432.448H40.6534M46.4235 475.12H40.6534M46.4235 517.784H40.6534M46.4235 560.44H40.6534M46.4235 603.104H40.6534M46.4235 645.768H40.6534M46.4235 688.432H40.6534M86.1133 -79.5037H80.3432M86.1133 -36.8545H80.3432M86.1133 5.81674H80.3432M86.1133 48.4806H80.3432M86.1133 91.1445H80.3432M86.1133 133.816H80.3432M86.1133 176.465H80.3432M86.1133 219.129H80.3432M86.1133 261.8H80.3432M86.1133 304.464H80.3432M86.1133 347.121H80.3432M86.1133 389.784H80.3432M86.1133 432.448H80.3432M86.1133 475.12H80.3432M86.1133 517.784H80.3432M86.1133 560.44H80.3432M86.1133 603.104H80.3432M86.1133 645.768H80.3432M86.1133 688.432H80.3432M125.831 -79.5037H120.061M125.831 -36.8545H120.061M125.831 5.81674H120.061M125.831 48.4806H120.061M125.831 91.1445H120.061M125.831 133.816H120.061M125.831 176.465H120.061M125.831 219.129H120.061M125.831 261.8H120.061M125.831 304.464H120.061M125.831 347.121H120.061M125.831 389.784H120.061M125.831 432.463H120.061M125.831 475.12H120.061M125.831 517.784H120.061M125.831 560.44H120.061M125.831 603.104H120.061M125.831 645.746H120.061M125.831 688.41H120.061M165.548 -79.5037H159.778M165.548 -36.8545H159.778M165.548 5.81674H159.778M165.548 48.4806H159.778M165.548 91.1445H159.778M165.548 133.816H159.778M165.548 176.465H159.778M165.548 219.129H159.778M165.548 261.8H159.778M165.548 304.464H159.778M165.548 347.121H159.778M165.548 389.784H159.778M165.548 432.448H159.778M165.548 475.12H159.778M165.548 517.784H159.778M165.548 560.44H159.778M165.548 603.104H159.778M165.548 645.768H159.778M165.548 688.432H159.778M202.222 -82.6624V-76.4631M202.222 -39.9985V-33.7919M202.222 2.66545V8.85729M202.222 45.3367V51.5802M202.222 88.0523V94.2441M202.222 130.701V136.908M202.222 173.373V179.572M202.222 216.037V222.228M202.222 258.708V264.892M202.222 301.357V307.564M202.222 344.028V350.228V344.021M202.222 386.692V392.891M202.222 429.356V435.548M202.222 472.02V478.219M202.222 514.684V520.891M202.222 557.348V563.554M202.222 600.012V606.204M202.222 642.683V648.875M202.222 685.347V691.502M241.919 -82.6107V-76.4115M241.919 -39.9468V-33.7402M241.919 2.71711V8.90895M241.919 45.3884V51.5802M241.919 88.0523V94.2441M241.919 130.701V136.908M241.919 173.373V179.572M241.919 216.037V222.228M241.919 258.708V264.892M241.919 301.357V307.564M241.919 344.028V350.228V344.021M241.919 386.707V392.906M241.919 429.371V435.563M241.919 472.035V478.219M241.919 514.684V520.891M241.919 557.348V563.554M241.919 600.012V606.204M241.919 642.683V648.875M241.919 685.347V691.502M281.636 -82.6624V-76.4631M281.636 -39.9985V-33.7919M281.636 2.66545V8.85729M281.636 45.3367V51.5802M281.636 88.0523V94.2441M281.636 130.701V136.908M281.636 173.373V179.572M281.636 216.037V222.228M281.636 258.708V264.892M281.636 301.357V307.564M281.636 344.028V350.228V344.021M281.636 386.692V392.891M281.636 429.356V435.548M281.636 472.02V478.219M281.636 514.684V520.891M281.636 557.348V563.554M281.636 600.012V606.204M281.636 642.683V648.875M281.636 685.347V691.502M321.354 -82.6624V-76.4631M321.354 -39.9985V-33.7919M321.354 2.66545V8.85729M321.354 45.3367V51.5802M321.354 88.0523V94.2441M321.354 130.701V136.908M321.354 173.373V179.572M321.354 216.037V222.228M321.354 258.708V264.892M321.354 301.357V307.564M321.354 344.028V350.228V344.021M321.354 386.692V392.891M321.354 429.356V435.548M321.354 472.02V478.219M321.354 514.684V520.891M321.354 557.348V563.554M321.354 600.012V606.204M321.354 642.683V648.875M321.354 685.347V691.502M361.078 -82.6624V-76.4631M361.078 -39.9985V-33.7919M361.078 2.66545V8.85729M361.078 45.3367V51.5802M361.078 88.0523V94.2441M361.078 130.701V136.908M361.078 173.373V179.572M361.078 216.037V222.228M361.078 258.708V264.892M361.078 301.357V307.564M361.078 344.028V350.228V344.021M361.078 386.692V392.891M361.078 429.356V435.548M361.078 472.02V478.219M361.078 514.684V520.891M361.078 557.348V563.554M361.078 600.012V606.204M361.078 642.683V648.875M361.078 685.347V691.502M400.795 -82.6624V-76.4631M400.795 -39.9985V-33.7919M400.795 2.66545V8.85729M400.795 45.3367V51.5802M400.795 88.0523V94.2441M400.795 130.701V136.908M400.795 173.373V179.572M400.795 216.037V222.228M400.795 258.708V264.892M400.795 301.357V307.564M400.795 344.028V350.228M400.795 386.692V392.891M400.795 429.356V435.548M400.795 472.02V478.219M400.795 514.684V520.891M400.795 557.348V563.554M400.795 600.012V606.204M400.795 642.683V648.875M400.795 685.347V691.502M440.513 -82.6624V-76.4631M440.513 -39.9985V-33.7919M440.513 2.66545V8.85729M440.513 45.3367V51.5802M440.513 88.0523V94.2441M440.513 130.701V136.908M440.513 173.373V179.572M440.513 216.037V222.228M440.513 258.708V264.892M440.513 301.357V307.564M440.513 344.028V350.228M440.513 386.692V392.891M440.513 429.356V435.548M440.513 472.02V478.219M440.513 514.684V520.891M440.513 557.348V563.554M440.513 600.012V606.204M440.513 642.683V648.875M440.513 685.347V691.502M480.278 -82.6107V-76.4115M480.278 -39.9468V-33.7402M480.278 2.71711V8.90895M480.278 45.3884V51.5802V45.381M480.278 88.0523V94.2441M480.278 130.701V136.908V130.709M480.278 173.373V179.572M480.278 216.037V222.228M480.278 258.708V264.892M480.278 301.357V307.564M480.278 344.028V350.228V344.021M480.278 386.707V392.906M480.278 429.371V435.563M480.278 472.035V478.219M480.278 514.684V520.891M480.278 557.348V563.554M480.278 600.012V606.204M480.278 642.683V648.875M480.278 685.347V691.502V685.317M519.995 -82.6624V-76.4631M519.995 -39.9985V-33.7919M519.995 2.66545V8.85729M519.995 45.3367V51.5802M519.995 88.0523V94.2441M519.995 130.701V136.908M519.995 173.373V179.572M519.995 216.037V222.228M519.995 258.708V264.892M519.995 301.357V307.564M519.995 344.028V350.228M519.995 386.692V392.891M519.995 429.356V435.548M519.995 472.02V478.219V471.968M519.995 514.684V520.891M519.995 557.348V563.554M519.995 600.012V606.204V600.019M519.995 642.683V648.875M519.995 685.347V691.502M559.713 -82.6624V-76.4631M559.713 -39.9985V-33.7919M559.713 2.66545V8.85729M559.713 45.3367V51.5802M559.713 88.0523V94.2441M559.713 130.701V136.908M559.713 173.373V179.572M559.713 216.037V222.228M559.713 258.708V264.892M559.713 301.357V307.564M559.713 344.028V350.228M559.713 386.692V392.891M559.713 429.356V435.548M559.713 472.02V478.219V471.968M559.713 514.684V520.891M559.713 557.348V563.554M559.713 600.012V606.204V600.019M559.713 642.683V648.875M559.713 685.347V691.502M361.105 685.34V691.502M400.823 -82.6624V-76.4631M400.823 -39.9985V-33.7919M400.823 2.66545V8.85729M400.823 45.3293V51.5286M400.823 88.0006V94.1925M400.823 130.657V136.856M400.823 173.321V179.52M400.823 215.985V222.177M400.823 258.656V264.841M400.823 301.305V307.512M400.823 343.969V350.176M400.823 386.641V392.84M400.823 429.304V435.496M400.823 471.968V478.219M400.823 514.684V520.891M400.823 557.348V563.554M400.823 600.019V606.204M400.823 642.683V648.875M400.823 685.347V691.502M440.54 -82.6624V-76.4631M440.54 -39.9985V-33.7919M440.54 2.66545V8.85729M440.54 45.3293V51.5286M440.54 88.0006V94.1925M440.54 130.657V136.856M440.54 173.321V179.52M440.54 215.985V222.177M440.54 258.656V264.841M440.54 301.305V307.512M440.54 343.969V350.176M440.54 386.641V392.84M440.54 429.304V435.496M440.54 471.968V478.219M440.54 514.684V520.891M440.54 557.348V563.554M440.54 600.019V606.204M440.54 642.683V648.875M440.54 685.347V691.502M480.278 599.99V606.174M480.278 642.653V648.845M519.995 45.3293V51.5286M519.995 88.0006V94.1925M519.995 130.657V136.856M519.995 173.321V179.52M519.995 215.985V222.177M519.995 258.656V264.841M519.995 301.305V307.512M519.995 343.969V350.176M519.995 386.641V392.84M519.995 429.304V435.496M559.713 45.3293V51.5286M559.713 88.0006V94.1925M559.713 130.657V136.856M559.713 173.321V179.52M559.713 215.985V222.177M559.713 258.656V264.841M559.713 301.305V307.512M559.713 343.969V350.176M559.713 386.641V392.84M559.713 429.304V435.496M205.107 -79.5037H199.33M205.094 -36.8545H199.33M205.094 5.81674H199.33M205.107 48.4806H199.33M205.094 91.1445H199.33M205.094 133.816H199.33M205.094 176.465H199.33M205.094 219.129H199.33M205.094 261.8H199.33M205.094 304.464H199.33M205.094 347.121H199.33M205.094 389.784H199.33M205.107 432.463H199.33M205.094 475.134H199.33M205.094 517.798H199.33M205.094 560.455H199.33M205.094 603.119H199.33M205.107 645.746H199.33M205.094 688.41H199.33M244.825 -79.5037H239.061M244.825 -36.8545H239.061M244.825 5.81674H239.061M244.825 48.4806H239.061M244.825 91.1445H239.061M244.825 133.816H239.061M244.825 176.465H239.061M244.825 219.129H239.061M244.825 261.8H239.061M244.825 304.464H239.061M244.825 347.121H239.061M244.825 389.784H239.061M244.825 432.463H239.061M244.825 475.134H239.061M244.825 517.798H239.061M244.825 560.455H239.061M244.825 603.119H239.061M244.825 645.746H239.061M244.825 688.41H239.061M284.549 -79.5037H278.779M284.549 -36.8545H278.779M284.549 5.81674H278.779M284.549 48.4806H278.779M284.549 91.1445H278.779M284.549 133.816H278.779M284.549 176.465H278.779M284.549 219.129H278.779M284.549 261.8H278.779M284.549 304.464H278.779M284.549 347.121H278.779M284.549 389.784H278.779M284.549 432.448H278.779M284.549 475.12H278.779M284.549 517.784H278.779M284.549 560.44H278.779M284.549 603.104H278.779M284.549 645.768H278.779M284.549 688.432H278.779M324.266 -79.5037H318.496M324.266 -36.8545H318.496M324.266 5.81674H318.496M324.266 48.4806H318.496M324.266 91.1445H318.496M324.266 133.816H318.496M324.266 176.465H318.496M324.266 219.129H318.496M324.266 261.8H318.496M324.266 304.464H318.496M324.266 347.121H318.496M324.266 389.784H318.496M324.266 432.448H318.496M324.266 475.12H318.496M324.266 517.784H318.496M324.266 560.44H318.496M324.266 603.104H318.496M324.266 645.768H318.496M324.266 688.432H318.496M363.99 -79.5037H358.22M363.99 -36.8545H358.22M363.99 5.81674H358.22M363.99 48.4806H358.22M363.99 91.1445H358.22M363.99 133.816H358.22M363.99 176.465H358.22M363.99 219.129H358.22M363.99 261.8H358.22M363.99 304.464H358.22M363.99 347.121H358.22M363.99 389.784H358.22M363.99 432.448H358.22M363.99 475.12H358.22M363.99 517.784H358.22M363.99 560.44H358.22M363.99 603.104H358.22M363.99 645.768H358.22M363.99 688.432H358.22M403.708 -79.5037H397.938M403.708 -36.8545H397.938M403.708 5.81674H397.938M403.708 48.4806H397.938M403.708 91.1445H397.938M403.708 133.816H397.938M403.708 176.465H397.938M403.708 219.129H397.938M403.708 261.8H397.938M403.708 304.464H397.938M403.708 347.121H397.938M403.708 389.784H397.938M403.708 432.448H397.938M403.708 475.12H397.938M403.708 517.784H397.938M403.708 560.44H397.938M403.708 603.104H397.938M403.708 645.768H397.938M403.708 688.432H397.938M443.425 -79.5037H437.689M443.459 -36.8545H437.689M443.459 5.81674H437.689M443.459 48.4806H437.689M443.459 91.1445H437.689M443.459 133.816H437.689M443.459 176.465H437.689M443.459 219.129H437.689M443.459 261.8H437.689M443.459 304.464H437.689M443.459 347.121H437.689M443.459 389.784H437.689M443.459 432.448H437.689M443.459 475.12H437.689M443.459 517.784H437.689M443.459 560.44H437.689M443.459 603.104H437.689M443.459 645.768H437.689M443.459 688.432H437.689M483.149 -79.5037H477.379M483.149 -36.8545H477.379M483.149 5.81674H477.379M483.149 48.4806H477.379M483.149 91.1445H477.379M483.149 133.816H477.379M483.149 176.465H477.379M483.149 219.129H477.379M483.149 261.8H477.379M483.149 304.464H477.379M483.149 347.121H477.379M483.149 389.784H477.379M483.149 432.448H477.379M483.149 475.12H477.379M483.149 517.784H477.379M483.149 560.44H477.379M483.149 603.104H477.379M483.149 645.768H477.379M483.149 688.432H477.379M522.867 -79.5037H517.097M522.867 -36.8545H517.097M522.867 5.81674H517.097M522.867 48.4806H517.097M522.867 91.1445H517.097M522.867 133.816H517.097M522.867 176.465H517.097M522.867 219.129H517.097M522.867 261.8H517.097M522.867 304.464H517.097M522.867 347.121H517.097M522.867 389.784H517.097M522.867 432.463H517.097M522.867 475.12H517.097M522.867 517.784H517.097M522.867 560.44H517.097M522.867 603.104H517.097M522.867 645.746H517.097M522.867 688.41H517.097M562.584 -79.5037H556.814M562.584 -36.8545H556.814M562.584 5.81674H556.814M562.584 48.4806H556.814M562.584 91.1445H556.814M562.584 133.816H556.814M562.584 176.465H556.814M562.584 219.129H556.814M562.584 261.8H556.814M562.584 304.464H556.814M562.584 347.121H556.814M562.584 389.784H556.814M562.584 432.448H556.814M562.584 475.12H556.814M562.584 517.784H556.814M562.584 560.44H556.814M562.584 603.104H556.814M562.584 645.768H556.814M562.584 688.432H556.814" stroke="#939598" stroke-width="0.83"/>
</g>
<defs>
<clipPath id="clip0_77_103">
<rect width="108" height="291" fill="white" transform="translate(0.0917969 0.997803)"/>
</clipPath>
</defs>
</svg>
