<svg width="357" height="728" viewBox="0 0 357 728" fill="none" xmlns="http://www.w3.org/2000/svg">
<g clip-path="url(#clip0_60_281)">
<path d="M-60.7181 1367.46V1378.79M-60.7181 1445.57V1456.85V1445.58M11.9959 39.5173V50.8668M11.9959 117.626V128.989M11.9959 195.734V207.07M11.9959 273.856V285.287M11.9959 352.06V363.395M11.9959 430.141V441.504M11.9959 508.263V519.613M11.9959 586.372V597.708M11.9959 664.494V675.816M11.9959 742.575V753.938M11.9959 820.697V832.047V820.684M11.9959 898.806V910.155M11.9959 976.914V988.25M11.9959 1055.02V1066.37M11.9959 1133.13V1144.49M11.9959 1211.24V1222.6M11.9959 1289.35V1300.68M11.9959 1367.47V1378.81M11.9959 1445.58V1456.85M84.6721 39.6119V50.9614M84.6721 117.72V129.083M84.6721 195.829V207.165M84.6721 273.951V285.287M84.6721 352.06V363.395M84.6721 430.141V441.504M84.6721 508.263V519.613M84.6721 586.372V597.708M84.6721 664.494V675.816M84.6721 742.575V753.938M84.6721 820.697V832.047V820.684M84.6721 898.833V910.182M84.6721 976.941V988.277M84.6721 1055.05V1066.37M84.6721 1133.13V1144.49M84.6721 1211.24V1222.6M84.6721 1289.35V1300.68M84.6721 1367.47V1378.81M84.6721 1445.58V1456.85M157.386 39.5173V50.8668M157.386 117.626V128.989M157.386 195.734V207.07M157.386 273.856V285.287M157.386 352.06V363.395M157.386 430.141V441.504M157.386 508.263V519.613M157.386 586.372V597.708M157.386 664.494V675.816M157.386 742.575V753.938M157.386 820.697V832.047V820.684M157.386 898.806V910.155M157.386 976.914V988.25M157.386 1055.02V1066.37M157.386 1133.13V1144.49M157.386 1211.24V1222.6M157.386 1289.35V1300.68M157.386 1367.47V1378.81M157.386 1445.58V1456.85M230.1 39.5173V50.8668M230.1 117.626V128.989M230.1 195.734V207.07M230.1 273.856V285.287M230.1 352.06V363.395M230.1 430.141V441.504M230.1 508.263V519.613M230.1 586.372V597.708M230.1 664.494V675.816M230.1 742.575V753.938M230.1 820.697V832.047V820.684M230.1 898.806V910.155M230.1 976.914V988.25M230.1 1055.02V1066.37M230.1 1133.13V1144.49M230.1 1211.24V1222.6M230.1 1289.35V1300.68M230.1 1367.47V1378.81M230.1 1445.58V1456.85M302.827 39.5173V50.8668M302.827 117.626V128.989M302.827 195.734V207.07M302.827 273.856V285.287M302.827 352.06V363.395M302.827 430.141V441.504M302.827 508.263V519.613M302.827 586.372V597.708M302.827 664.494V675.816M302.827 742.575V753.938M302.827 820.697V832.047V820.684M302.827 898.806V910.155M302.827 976.914V988.25M302.827 1055.02V1066.37M302.827 1133.13V1144.49M302.827 1211.24V1222.6M302.827 1289.35V1300.68M302.827 1367.47V1378.81M302.827 1445.58V1456.85M375.541 39.5173V50.8668M375.541 117.626V128.989M375.541 195.734V207.07M375.541 273.856V285.287M375.541 352.06V363.395M375.541 430.141V441.504M375.541 508.263V519.613M375.541 586.372V597.708M375.541 664.494V675.816M375.541 742.575V753.938M375.541 820.697V832.047M375.541 898.806V910.155M375.541 976.914V988.25M375.541 1055.02V1066.37M375.541 1133.13V1144.49M375.541 1211.24V1222.6M375.541 1289.35V1300.68M375.541 1367.47V1378.81M375.541 1445.58V1456.85M448.255 39.5173V50.8668M448.255 117.626V128.989M448.255 195.734V207.07M448.255 273.856V285.287M448.255 352.06V363.395M448.255 430.141V441.504M448.255 508.263V519.613M448.255 586.372V597.708M448.255 664.494V675.816M448.255 742.575V753.938M448.255 820.697V832.047M448.255 898.806V910.155M448.255 976.914V988.25M448.255 1055.02V1066.37M448.255 1133.13V1144.49M448.255 1211.24V1222.6M448.255 1289.35V1300.68M448.255 1367.47V1378.81M448.255 1445.58V1456.85M521.057 39.6119V50.9614M521.057 117.72V129.083M521.057 195.829V207.165M521.057 273.951V285.287V273.938M521.057 352.06V363.395M521.057 430.141V441.504V430.155M521.057 508.263V519.613M521.057 586.372V597.708M521.057 664.494V675.816M521.057 742.575V753.938M521.057 820.697V832.047V820.684M521.057 898.833V910.182M521.057 976.941V988.277M521.057 1055.05V1066.37M521.057 1133.13V1144.49M521.057 1211.24V1222.6M521.057 1289.35V1300.68M521.057 1367.47V1378.81M521.057 1445.58V1456.85V1445.52M593.771 39.5173V50.8668M593.771 117.626V128.989M593.771 195.734V207.07M593.771 273.856V285.287M593.771 352.06V363.395M593.771 430.141V441.504M593.771 508.263V519.613M593.771 586.372V597.708M593.771 664.494V675.816M593.771 742.575V753.938M593.771 820.697V832.047M593.771 898.806V910.155M593.771 976.914V988.25M593.771 1055.02V1066.37V1054.93M593.771 1133.13V1144.49M593.771 1211.24V1222.6M593.771 1289.35V1300.68V1289.36M593.771 1367.47V1378.81M593.771 1445.58V1456.85M666.485 39.5173V50.8668M666.485 117.626V128.989M666.485 195.734V207.07M666.485 273.856V285.287M666.485 352.06V363.395M666.485 430.141V441.504M666.485 508.263V519.613M666.485 586.372V597.708M666.485 664.494V675.816M666.485 742.575V753.938M666.485 820.697V832.047M666.485 898.806V910.155M666.485 976.914V988.25M666.485 1055.02V1066.37V1054.93M666.485 1133.13V1144.49M666.485 1211.24V1222.6M666.485 1289.35V1300.68V1289.36M666.485 1367.47V1378.81M666.485 1445.58V1456.85M-60.7181 39.6119V50.9614M-60.7181 117.72V129.083M-60.7181 195.829V207.165M-60.7181 273.951V285.287M-60.7181 352.06V363.395M-60.7181 430.141V441.504M-60.7181 508.263V519.613M-60.7181 586.372V597.708M-60.7181 664.494V675.816M-60.7181 742.575V753.938M-60.7181 820.684V832.047M-60.7181 898.806V910.155M-60.7181 976.914V988.25M-60.7181 1055.02V1066.37M-60.7181 1133.13V1144.49M-60.7181 1211.24V1222.6M-60.7181 1289.35V1300.68M-60.7181 1367.47V1378.81M302.877 1445.57V1456.85M375.591 39.5173V50.8668M375.591 117.626V128.989M375.591 195.734V207.07M375.591 273.843V285.192M375.591 351.965V363.301M375.591 430.06V441.41M375.591 508.169V519.518M375.591 586.277V597.613M375.591 664.399V675.722M375.591 742.481V753.844M375.591 820.589V831.952M375.591 898.711V910.061M375.591 976.82V988.156M375.591 1054.93V1066.37M375.591 1133.13V1144.49M375.591 1211.24V1222.6M375.591 1289.36V1300.68M375.591 1367.47V1378.81M375.591 1445.58V1456.85M448.305 39.5173V50.8668M448.305 117.626V128.989M448.305 195.734V207.07M448.305 273.843V285.192M448.305 351.965V363.301M448.305 430.06V441.41M448.305 508.169V519.518M448.305 586.277V597.613M448.305 664.399V675.722M448.305 742.481V753.844M448.305 820.589V831.952M448.305 898.711V910.061M448.305 976.82V988.156M448.305 1054.93V1066.37M448.305 1133.13V1144.49M448.305 1211.24V1222.6M448.305 1289.36V1300.68M448.305 1367.47V1378.81M448.305 1445.58V1456.85M521.057 1289.31V1300.63M521.057 1367.42V1378.75M593.771 273.843V285.192M593.771 351.965V363.301M593.771 430.06V441.41M593.771 508.169V519.518M593.771 586.277V597.613M593.771 664.399V675.722M593.771 742.481V753.844M593.771 820.589V831.952M593.771 898.711V910.061M593.771 976.82V988.156M666.485 273.843V285.192M666.485 351.965V363.301M666.485 430.06V441.41M666.485 508.169V519.518M666.485 586.277V597.613M666.485 664.399V675.722M666.485 742.481V753.844M666.485 820.589V831.952M666.485 898.711V910.061M666.485 976.82V988.156M-55.4362 45.3001H-66M-55.4362 123.382H-66M-55.4362 201.504H-66M-55.4362 279.612H-66M-55.4362 357.721H-66M-55.4362 435.843H-66M-55.4362 513.924H-66M-55.4362 592.033H-66M-55.4362 670.155H-66M-55.4362 748.264H-66M-55.4362 826.359H-66M-55.4362 904.467H-66M-55.4362 982.603H-66M-55.4362 1060.72H-66M-55.4362 1138.83H-66M-55.4362 1216.93H-66M-55.4362 1295.04H-66M-55.4362 1373.08H-66M-55.4362 1451.19H-66M17.2778 45.3002H6.70142M17.2526 123.382H6.70142M17.2526 201.504H6.70142M17.2778 279.612H6.70142M17.2526 357.721H6.70142M17.2526 435.843H6.70142M17.2526 513.924H6.70142M17.2526 592.033H6.70142M17.2526 670.155H6.70142M17.2526 748.264H6.70142M17.2526 826.359H6.70142M17.2526 904.467H6.70142M17.2778 982.603H6.70142M17.2526 1060.72H6.70142M17.2526 1138.83H6.70142M17.2526 1216.93H6.70142M17.2526 1295.04H6.70142M17.2778 1373.08H6.70142M17.2526 1451.19H6.70142M89.9918 45.3002H79.4406M89.9918 123.382H79.4406M89.9918 201.504H79.4406M89.9918 279.612H79.4406M89.9918 357.721H79.4406M89.9918 435.843H79.4406M89.9918 513.924H79.4406M89.9918 592.033H79.4406M89.9918 670.155H79.4406M89.9918 748.264H79.4406M89.9918 826.359H79.4406M89.9918 904.467H79.4406M89.9918 982.603H79.4406M89.9918 1060.72H79.4406M89.9918 1138.83H79.4406M89.9918 1216.93H79.4406M89.9918 1295.04H79.4406M89.9918 1373.08H79.4406M89.9918 1451.19H79.4406M162.718 45.3002H152.155M162.718 123.382H152.155M162.718 201.504H152.155M162.718 279.612H152.155M162.718 357.721H152.155M162.718 435.843H152.155M162.718 513.924H152.155M162.718 592.033H152.155M162.718 670.155H152.155M162.718 748.264H152.155M162.718 826.359H152.155M162.718 904.467H152.155M162.718 982.576H152.155M162.718 1060.7H152.155M162.718 1138.81H152.155M162.718 1216.9H152.155M162.718 1295.01H152.155M162.718 1373.12H152.155M162.718 1451.23H152.155M235.432 45.3002H224.869M235.432 123.382H224.869M235.432 201.504H224.869M235.432 279.612H224.869M235.432 357.721H224.869M235.432 435.843H224.869M235.432 513.924H224.869M235.432 592.033H224.869M235.432 670.155H224.869M235.432 748.264H224.869M235.432 826.359H224.869M235.432 904.467H224.869M235.432 982.576H224.869M235.432 1060.7H224.869M235.432 1138.81H224.869M235.432 1216.9H224.869M235.432 1295.01H224.869M235.432 1373.12H224.869M235.432 1451.23H224.869M308.159 45.3002H297.595M308.159 123.382H297.595M308.159 201.504H297.595M308.159 279.612H297.595M308.159 357.721H297.595M308.159 435.843H297.595M308.159 513.924H297.595M308.159 592.033H297.595M308.159 670.155H297.595M308.159 748.264H297.595M308.159 826.359H297.595M308.159 904.467H297.595M308.159 982.576H297.595M308.159 1060.7H297.595M308.159 1138.81H297.595M308.159 1216.9H297.595M308.159 1295.01H297.595M308.159 1373.12H297.595M308.159 1451.23H297.595M380.873 45.3002H370.309M380.873 123.382H370.309M380.873 201.504H370.309M380.873 279.612H370.309M380.873 357.721H370.309M380.873 435.843H370.309M380.873 513.924H370.309M380.873 592.033H370.309M380.873 670.155H370.309M380.873 748.264H370.309M380.873 826.359H370.309M380.873 904.467H370.309M380.873 982.576H370.309M380.873 1060.7H370.309M380.873 1138.81H370.309M380.873 1216.9H370.309M380.873 1295.01H370.309M380.873 1373.12H370.309M380.873 1451.23H370.309M453.587 45.3002H443.086M453.65 123.382H443.086M453.65 201.504H443.086M453.65 279.612H443.086M453.65 357.721H443.086M453.65 435.843H443.086M453.65 513.924H443.086M453.65 592.033H443.086M453.65 670.155H443.086M453.65 748.264H443.086M453.65 826.359H443.086M453.65 904.467H443.086M453.65 982.576H443.086M453.65 1060.7H443.086M453.65 1138.81H443.086M453.65 1216.9H443.086M453.65 1295.01H443.086M453.65 1373.12H443.086M453.65 1451.23H443.086M526.313 45.3002H515.75M526.313 123.382H515.75M526.313 201.504H515.75M526.313 279.612H515.75M526.313 357.721H515.75M526.313 435.843H515.75M526.313 513.924H515.75M526.313 592.033H515.75M526.313 670.155H515.75M526.313 748.264H515.75M526.313 826.359H515.75M526.313 904.467H515.75M526.313 982.576H515.75M526.313 1060.7H515.75M526.313 1138.81H515.75M526.313 1216.9H515.75M526.313 1295.01H515.75M526.313 1373.12H515.75M526.313 1451.23H515.75M599.027 45.3002H588.464M599.027 123.382H588.464M599.027 201.504H588.464M599.027 279.612H588.464M599.027 357.721H588.464M599.027 435.843H588.464M599.027 513.924H588.464M599.027 592.033H588.464M599.027 670.155H588.464M599.027 748.264H588.464M599.027 826.359H588.464M599.027 904.467H588.464M599.027 982.603H588.464M599.027 1060.7H588.464M599.027 1138.81H588.464M599.027 1216.9H588.464M599.027 1295.01H588.464M599.027 1373.08H588.464M599.027 1451.19H588.464M671.741 45.3002H661.178M671.741 123.382H661.178M671.741 201.504H661.178M671.741 279.612H661.178M671.741 357.721H661.178M671.741 435.843H661.178M671.741 513.924H661.178M671.741 592.033H661.178M671.741 670.155H661.178M671.741 748.264H661.178M671.741 826.359H661.178M671.741 904.467H661.178M671.741 982.576H661.178M671.741 1060.7H661.178M671.741 1138.81H661.178M671.741 1216.9H661.178M671.741 1295.01H661.178M671.741 1373.12H661.178M671.741 1451.23H661.178M738.884 39.5173V50.8668M738.884 117.626V128.989M738.884 195.734V207.07M738.884 273.856V285.287M738.884 352.06V363.395M738.884 430.141V441.504M738.884 508.263V519.613M738.884 586.372V597.708M738.884 664.494V675.816M738.884 742.575V753.938M738.884 820.697V832.047V820.684M738.884 898.806V910.155M738.884 976.914V988.25M738.884 1055.02V1066.37M738.884 1133.13V1144.49M738.884 1211.24V1222.6M738.884 1289.35V1300.68M738.884 1367.47V1378.81M738.884 1445.58V1456.85M811.561 39.6119V50.9614M811.561 117.72V129.083M811.561 195.829V207.165M811.561 273.951V285.287M811.561 352.06V363.395M811.561 430.141V441.504M811.561 508.263V519.613M811.561 586.372V597.708M811.561 664.494V675.816M811.561 742.575V753.938M811.561 820.697V832.047V820.684M811.561 898.833V910.182M811.561 976.941V988.277M811.561 1055.05V1066.37M811.561 1133.13V1144.49M811.561 1211.24V1222.6M811.561 1289.35V1300.68M811.561 1367.47V1378.81M811.561 1445.58V1456.85M884.275 39.5173V50.8668M884.275 117.626V128.989M884.275 195.734V207.07M884.275 273.856V285.287M884.275 352.06V363.395M884.275 430.141V441.504M884.275 508.263V519.613M884.275 586.372V597.708M884.275 664.494V675.816M884.275 742.575V753.938M884.275 820.697V832.047V820.684M884.275 898.806V910.155M884.275 976.914V988.25M884.275 1055.02V1066.37M884.275 1133.13V1144.49M884.275 1211.24V1222.6M884.275 1289.35V1300.68M884.275 1367.47V1378.81M884.275 1445.58V1456.85M956.989 39.5173V50.8668M956.989 117.626V128.989M956.989 195.734V207.07M956.989 273.856V285.287M956.989 352.06V363.395M956.989 430.141V441.504M956.989 508.263V519.613M956.989 586.372V597.708M956.989 664.494V675.816M956.989 742.575V753.938M956.989 820.697V832.047V820.684M956.989 898.806V910.155M956.989 976.914V988.25M956.989 1055.02V1066.37M956.989 1133.13V1144.49M956.989 1211.24V1222.6M956.989 1289.35V1300.68M956.989 1367.47V1378.81M956.989 1445.58V1456.85M1029.72 39.5173V50.8668M1029.72 117.626V128.989M1029.72 195.734V207.07M1029.72 273.856V285.287M1029.72 352.06V363.395M1029.72 430.141V441.504M1029.72 508.263V519.613M1029.72 586.372V597.708M1029.72 664.494V675.816M1029.72 742.575V753.938M1029.72 820.697V832.047V820.684M1029.72 898.806V910.155M1029.72 976.914V988.25M1029.72 1055.02V1066.37M1029.72 1133.13V1144.49M1029.72 1211.24V1222.6M1029.72 1289.35V1300.68M1029.72 1367.47V1378.81M1029.72 1445.58V1456.85M1102.43 39.5173V50.8668M1102.43 117.626V128.989M1102.43 195.734V207.07M1102.43 273.856V285.287M1102.43 352.06V363.395M1102.43 430.141V441.504M1102.43 508.263V519.613M1102.43 586.372V597.708M1102.43 664.494V675.816M1102.43 742.575V753.938M1102.43 820.697V832.047M1102.43 898.806V910.155M1102.43 976.914V988.25M1102.43 1055.02V1066.37M1102.43 1133.13V1144.49M1102.43 1211.24V1222.6M1102.43 1289.35V1300.68M1102.43 1367.47V1378.81M1102.43 1445.58V1456.85M1175.14 39.5173V50.8668M1175.14 117.626V128.989M1175.14 195.734V207.07M1175.14 273.856V285.287M1175.14 352.06V363.395M1175.14 430.141V441.504M1175.14 508.263V519.613M1175.14 586.372V597.708M1175.14 664.494V675.816M1175.14 742.575V753.938M1175.14 820.697V832.047M1175.14 898.806V910.155M1175.14 976.914V988.25M1175.14 1055.02V1066.37M1175.14 1133.13V1144.49M1175.14 1211.24V1222.6M1175.14 1289.35V1300.68M1175.14 1367.47V1378.81M1175.14 1445.58V1456.85M1247.95 39.6119V50.9614M1247.95 117.72V129.083M1247.95 195.829V207.165M1247.95 273.951V285.287V273.938M1247.95 352.06V363.395M1247.95 430.141V441.504V430.155M1247.95 508.263V519.613M1247.95 586.372V597.708M1247.95 664.494V675.816M1247.95 742.575V753.938M1247.95 820.697V832.047V820.684M1247.95 898.833V910.182M1247.95 976.941V988.277M1247.95 1055.05V1066.37M1247.95 1133.13V1144.49M1247.95 1211.24V1222.6M1247.95 1289.35V1300.68M1247.95 1367.47V1378.81M1247.95 1445.58V1456.85V1445.52M1320.66 39.5173V50.8668M1320.66 117.626V128.989M1320.66 195.734V207.07M1320.66 273.856V285.287M1320.66 352.06V363.395M1320.66 430.141V441.504M1320.66 508.263V519.613M1320.66 586.372V597.708M1320.66 664.494V675.816M1320.66 742.575V753.938M1320.66 820.697V832.047M1320.66 898.806V910.155M1320.66 976.914V988.25M1320.66 1055.02V1066.37V1054.93M1320.66 1133.13V1144.49M1320.66 1211.24V1222.6M1320.66 1289.35V1300.68V1289.36M1320.66 1367.47V1378.81M1320.66 1445.58V1456.85M1393.37 39.5173V50.8668M1393.37 117.626V128.989M1393.37 195.734V207.07M1393.37 273.856V285.287M1393.37 352.06V363.395M1393.37 430.141V441.504M1393.37 508.263V519.613M1393.37 586.372V597.708M1393.37 664.494V675.816M1393.37 742.575V753.938M1393.37 820.697V832.047M1393.37 898.806V910.155M1393.37 976.914V988.25M1393.37 1055.02V1066.37V1054.93M1393.37 1133.13V1144.49M1393.37 1211.24V1222.6M1393.37 1289.35V1300.68V1289.36M1393.37 1367.47V1378.81M1393.37 1445.58V1456.85M1029.77 1445.57V1456.85M1102.48 39.5173V50.8668M1102.48 117.626V128.989M1102.48 195.734V207.07M1102.48 273.843V285.192M1102.48 351.965V363.301M1102.48 430.06V441.41M1102.48 508.169V519.518M1102.48 586.277V597.613M1102.48 664.399V675.722M1102.48 742.481V753.844M1102.48 820.589V831.952M1102.48 898.711V910.061M1102.48 976.82V988.156M1102.48 1054.93V1066.37M1102.48 1133.13V1144.49M1102.48 1211.24V1222.6M1102.48 1289.36V1300.68M1102.48 1367.47V1378.81M1102.48 1445.58V1456.85M1175.19 39.5173V50.8668M1175.19 117.626V128.989M1175.19 195.734V207.07M1175.19 273.843V285.192M1175.19 351.965V363.301M1175.19 430.06V441.41M1175.19 508.169V519.518M1175.19 586.277V597.613M1175.19 664.399V675.722M1175.19 742.481V753.844M1175.19 820.589V831.952M1175.19 898.711V910.061M1175.19 976.82V988.156M1175.19 1054.93V1066.37M1175.19 1133.13V1144.49M1175.19 1211.24V1222.6M1175.19 1289.36V1300.68M1175.19 1367.47V1378.81M1175.19 1445.58V1456.85M1247.95 1289.31V1300.63M1247.95 1367.42V1378.75M1320.66 273.843V285.192M1320.66 351.965V363.301M1320.66 430.06V441.41M1320.66 508.169V519.518M1320.66 586.277V597.613M1320.66 664.399V675.722M1320.66 742.481V753.844M1320.66 820.589V831.952M1320.66 898.711V910.061M1320.66 976.82V988.156M1393.37 273.843V285.192M1393.37 351.965V363.301M1393.37 430.06V441.41M1393.37 508.169V519.518M1393.37 586.277V597.613M1393.37 664.399V675.722M1393.37 742.481V753.844M1393.37 820.589V831.952M1393.37 898.711V910.061M1393.37 976.82V988.156M744.166 45.3002H733.59M744.141 123.382H733.59M744.141 201.504H733.59M744.166 279.612H733.59M744.141 357.721H733.59M744.141 435.843H733.59M744.141 513.924H733.59M744.141 592.033H733.59M744.141 670.155H733.59M744.141 748.264H733.59M744.141 826.359H733.59M744.141 904.467H733.59M744.166 982.603H733.59M744.141 1060.72H733.59M744.141 1138.83H733.59M744.141 1216.93H733.59M744.141 1295.04H733.59M744.166 1373.08H733.59M744.141 1451.19H733.59M816.88 45.3002H806.329M816.88 123.382H806.329M816.88 201.504H806.329M816.88 279.612H806.329M816.88 357.721H806.329M816.88 435.843H806.329M816.88 513.924H806.329M816.88 592.033H806.329M816.88 670.155H806.329M816.88 748.264H806.329M816.88 826.359H806.329M816.88 904.467H806.329M816.88 982.603H806.329M816.88 1060.72H806.329M816.88 1138.83H806.329M816.88 1216.93H806.329M816.88 1295.04H806.329M816.88 1373.08H806.329M816.88 1451.19H806.329M889.607 45.3002H879.043M889.607 123.382H879.043M889.607 201.504H879.043M889.607 279.612H879.043M889.607 357.721H879.043M889.607 435.843H879.043M889.607 513.924H879.043M889.607 592.033H879.043M889.607 670.155H879.043M889.607 748.264H879.043M889.607 826.359H879.043M889.607 904.467H879.043M889.607 982.576H879.043M889.607 1060.7H879.043M889.607 1138.81H879.043M889.607 1216.9H879.043M889.607 1295.01H879.043M889.607 1373.12H879.043M889.607 1451.23H879.043M962.321 45.3002H951.757M962.321 123.382H951.757M962.321 201.504H951.757M962.321 279.612H951.757M962.321 357.721H951.757M962.321 435.843H951.757M962.321 513.924H951.757M962.321 592.033H951.757M962.321 670.155H951.757M962.321 748.264H951.757M962.321 826.359H951.757M962.321 904.467H951.757M962.321 982.576H951.757M962.321 1060.7H951.757M962.321 1138.81H951.757M962.321 1216.9H951.757M962.321 1295.01H951.757M962.321 1373.12H951.757M962.321 1451.23H951.757M1035.05 45.3002H1024.48M1035.05 123.382H1024.48M1035.05 201.504H1024.48M1035.05 279.612H1024.48M1035.05 357.721H1024.48M1035.05 435.843H1024.48M1035.05 513.924H1024.48M1035.05 592.033H1024.48M1035.05 670.155H1024.48M1035.05 748.264H1024.48M1035.05 826.359H1024.48M1035.05 904.467H1024.48M1035.05 982.576H1024.48M1035.05 1060.7H1024.48M1035.05 1138.81H1024.48M1035.05 1216.9H1024.48M1035.05 1295.01H1024.48M1035.05 1373.12H1024.48M1035.05 1451.23H1024.48M1107.76 45.3002H1097.2M1107.76 123.382H1097.2M1107.76 201.504H1097.2M1107.76 279.612H1097.2M1107.76 357.721H1097.2M1107.76 435.843H1097.2M1107.76 513.924H1097.2M1107.76 592.033H1097.2M1107.76 670.155H1097.2M1107.76 748.264H1097.2M1107.76 826.359H1097.2M1107.76 904.467H1097.2M1107.76 982.576H1097.2M1107.76 1060.7H1097.2M1107.76 1138.81H1097.2M1107.76 1216.9H1097.2M1107.76 1295.01H1097.2M1107.76 1373.12H1097.2M1107.76 1451.23H1097.2M1180.48 45.3002H1169.97M1180.54 123.382H1169.97M1180.54 201.504H1169.97M1180.54 279.612H1169.97M1180.54 357.721H1169.97M1180.54 435.843H1169.97M1180.54 513.924H1169.97M1180.54 592.033H1169.97M1180.54 670.155H1169.97M1180.54 748.264H1169.97M1180.54 826.359H1169.97M1180.54 904.467H1169.97M1180.54 982.576H1169.97M1180.54 1060.7H1169.97M1180.54 1138.81H1169.97M1180.54 1216.9H1169.97M1180.54 1295.01H1169.97M1180.54 1373.12H1169.97M1180.54 1451.23H1169.97M1253.2 45.3002H1242.64M1253.2 123.382H1242.64M1253.2 201.504H1242.64M1253.2 279.612H1242.64M1253.2 357.721H1242.64M1253.2 435.843H1242.64M1253.2 513.924H1242.64M1253.2 592.033H1242.64M1253.2 670.155H1242.64M1253.2 748.264H1242.64M1253.2 826.359H1242.64M1253.2 904.467H1242.64M1253.2 982.576H1242.64M1253.2 1060.7H1242.64M1253.2 1138.81H1242.64M1253.2 1216.9H1242.64M1253.2 1295.01H1242.64M1253.2 1373.12H1242.64M1253.2 1451.23H1242.64M1325.92 45.3002H1315.35M1325.92 123.382H1315.35M1325.92 201.504H1315.35M1325.92 279.612H1315.35M1325.92 357.721H1315.35M1325.92 435.843H1315.35M1325.92 513.924H1315.35M1325.92 592.033H1315.35M1325.92 670.155H1315.35M1325.92 748.264H1315.35M1325.92 826.359H1315.35M1325.92 904.467H1315.35M1325.92 982.603H1315.35M1325.92 1060.7H1315.35M1325.92 1138.81H1315.35M1325.92 1216.9H1315.35M1325.92 1295.01H1315.35M1325.92 1373.08H1315.35M1325.92 1451.19H1315.35M1398.63 45.3002H1388.07M1398.63 123.382H1388.07M1398.63 201.504H1388.07M1398.63 279.612H1388.07M1398.63 357.721H1388.07M1398.63 435.843H1388.07M1398.63 513.924H1388.07M1398.63 592.033H1388.07M1398.63 670.155H1388.07M1398.63 748.264H1388.07M1398.63 826.359H1388.07M1398.63 904.467H1388.07M1398.63 982.576H1388.07M1398.63 1060.7H1388.07M1398.63 1138.81H1388.07M1398.63 1216.9H1388.07M1398.63 1295.01H1388.07M1398.63 1373.12H1388.07M1398.63 1451.23H1388.07" stroke="#939598" stroke-width="0.83"/>
</g>
<defs>
<clipPath id="clip0_60_281">
<rect width="960" height="727" fill="white" transform="translate(0 0.537598)"/>
</clipPath>
</defs>
</svg>
