<svg width="105" height="291" viewBox="0 0 105 291" fill="none" xmlns="http://www.w3.org/2000/svg">
<g clip-path="url(#clip0_73_151)">
<path d="M-300.023 641.711V647.902M-300.023 684.374V690.537V684.382M-260.306 -83.6274V-77.4282M-260.306 -40.9635V-34.7569M-260.306 1.70036V7.8922M-260.306 44.3716V50.6151M-260.306 87.0872V93.279M-260.306 129.736V135.943M-260.306 172.408V178.607M-260.306 215.072V221.263M-260.306 257.743V263.927M-260.306 300.392V306.599M-260.306 343.063V349.262V343.056M-260.306 385.727V391.926M-260.306 428.391V434.583M-260.306 471.055V477.254M-260.306 513.719V519.925M-260.306 556.383V562.589M-260.306 599.047V605.238M-260.306 641.718V647.91M-260.306 684.382V690.537M-220.609 -83.5758V-77.3766M-220.609 -40.9119V-34.7053M-220.609 1.75202V7.94386M-220.609 44.4233V50.6151M-220.609 87.0872V93.279M-220.609 129.736V135.943M-220.609 172.408V178.607M-220.609 215.072V221.263M-220.609 257.743V263.927M-220.609 300.392V306.599M-220.609 343.063V349.262V343.056M-220.609 385.742V391.941M-220.609 428.406V434.598M-220.609 471.07V477.254M-220.609 513.719V519.925M-220.609 556.383V562.589M-220.609 599.047V605.238M-220.609 641.718V647.91M-220.609 684.382V690.537M-180.892 -83.6274V-77.4282M-180.892 -40.9635V-34.7569M-180.892 1.70036V7.8922M-180.892 44.3716V50.6151M-180.892 87.0872V93.279M-180.892 129.736V135.943M-180.892 172.408V178.607M-180.892 215.072V221.263M-180.892 257.743V263.927M-180.892 300.392V306.599M-180.892 343.063V349.262V343.056M-180.892 385.727V391.926M-180.892 428.391V434.583M-180.892 471.055V477.254M-180.892 513.719V519.925M-180.892 556.383V562.589M-180.892 599.047V605.238M-180.892 641.718V647.91M-180.892 684.382V690.537M-141.174 -83.6274V-77.4282M-141.174 -40.9635V-34.7569M-141.174 1.70036V7.8922M-141.174 44.3716V50.6151M-141.174 87.0872V93.279M-141.174 129.736V135.943M-141.174 172.408V178.607M-141.174 215.072V221.263M-141.174 257.743V263.927M-141.174 300.392V306.599M-141.174 343.063V349.262V343.056M-141.174 385.727V391.926M-141.174 428.391V434.583M-141.174 471.055V477.254M-141.174 513.719V519.925M-141.174 556.383V562.589M-141.174 599.047V605.238M-141.174 641.718V647.91M-141.174 684.382V690.537M-101.45 -83.6274V-77.4282M-101.45 -40.9635V-34.7569M-101.45 1.70036V7.8922M-101.45 44.3716V50.6151M-101.45 87.0872V93.279M-101.45 129.736V135.943M-101.45 172.408V178.607M-101.45 215.072V221.263M-101.45 257.743V263.927M-101.45 300.392V306.599M-101.45 343.063V349.262V343.056M-101.45 385.727V391.926M-101.45 428.391V434.583M-101.45 471.055V477.254M-101.45 513.719V519.925M-101.45 556.383V562.589M-101.45 599.047V605.238M-101.45 641.718V647.91M-101.45 684.382V690.537M-61.7329 -83.6274V-77.4282M-61.7329 -40.9635V-34.7569M-61.7329 1.70036V7.8922M-61.7329 44.3716V50.6151M-61.7329 87.0872V93.279M-61.7329 129.736V135.943M-61.7329 172.408V178.607M-61.7329 215.072V221.263M-61.7329 257.743V263.927M-61.7329 300.392V306.599M-61.7329 343.063V349.262M-61.7329 385.727V391.926M-61.7329 428.391V434.583M-61.7329 471.055V477.254M-61.7329 513.719V519.925M-61.7329 556.383V562.589M-61.7329 599.047V605.238M-61.7329 641.718V647.91M-61.7329 684.382V690.537M-22.0156 -83.6274V-77.4282M-22.0156 -40.9635V-34.7569M-22.0156 1.70036V7.8922M-22.0156 44.3716V50.6151M-22.0156 87.0872V93.279M-22.0156 129.736V135.943M-22.0156 172.408V178.607M-22.0156 215.072V221.263M-22.0156 257.743V263.927M-22.0156 300.392V306.599M-22.0156 343.063V349.262M-22.0156 385.727V391.926M-22.0156 428.391V434.583M-22.0156 471.055V477.254M-22.0156 513.719V519.925M-22.0156 556.383V562.589M-22.0156 599.047V605.238M-22.0156 641.718V647.91M-22.0156 684.382V690.537M17.7498 -83.5758V-77.3766M17.7498 -40.9119V-34.7053M17.7498 1.75202V7.94386M17.7498 44.4233V50.6151V44.4159M17.7498 87.0872V93.279M17.7498 129.736V135.943V129.744M17.7498 172.408V178.607M17.7498 215.072V221.263M17.7498 257.743V263.927M17.7498 300.392V306.599M17.7498 343.063V349.262V343.056M17.7498 385.742V391.941M17.7498 428.406V434.598M17.7498 471.07V477.254M17.7498 513.719V519.925M17.7498 556.383V562.589M17.7498 599.047V605.238M17.7498 641.718V647.91M17.7498 684.382V690.537V684.352M57.4672 -83.6274V-77.4282M57.4672 -40.9635V-34.7569M57.4672 1.70036V7.8922M57.4672 44.3716V50.6151M57.4672 87.0872V93.279M57.4672 129.736V135.943M57.4672 172.408V178.607M57.4672 215.072V221.263M57.4672 257.743V263.927M57.4672 300.392V306.599M57.4672 343.063V349.262M57.4672 385.727V391.926M57.4672 428.391V434.583M57.4672 471.055V477.254V471.003M57.4672 513.719V519.925M57.4672 556.383V562.589M57.4672 599.047V605.238V599.054M57.4672 641.718V647.91M57.4672 684.382V690.537M97.1845 -83.6274V-77.4282M97.1845 -40.9635V-34.7569M97.1845 1.70036V7.8922M97.1845 44.3716V50.6151M97.1845 87.0872V93.279M97.1845 129.736V135.943M97.1845 172.408V178.607M97.1845 215.072V221.263M97.1845 257.743V263.927M97.1845 300.392V306.599M97.1845 343.063V349.262M97.1845 385.727V391.926M97.1845 428.391V434.583M97.1845 471.055V477.254V471.003M97.1845 513.719V519.925M97.1845 556.383V562.589M97.1845 599.047V605.238V599.054M97.1845 641.718V647.91M97.1845 684.382V690.537M-300.023 -83.5758V-77.3766M-300.023 -40.9119V-34.7053M-300.023 1.75202V7.94386M-300.023 44.4233V50.6151M-300.023 87.0872V93.279M-300.023 129.736V135.943M-300.023 172.408V178.607M-300.023 215.072V221.263M-300.023 257.743V263.927M-300.023 300.392V306.599M-300.023 343.056V349.262M-300.023 385.727V391.926M-300.023 428.391V434.583M-300.023 471.055V477.254M-300.023 513.719V519.925M-300.023 556.383V562.589M-300.023 599.047V605.238M-300.023 641.718V647.91M-101.423 684.374V690.537M-61.7055 -83.6274V-77.4282M-61.7055 -40.9635V-34.7569M-61.7055 1.70036V7.8922M-61.7055 44.3643V50.5635M-61.7055 87.0355V93.2274M-61.7055 129.692V135.891M-61.7055 172.356V178.555M-61.7055 215.02V221.212M-61.7055 257.691V263.876M-61.7055 300.34V306.547M-61.7055 343.004V349.211M-61.7055 385.675V391.875M-61.7055 428.339V434.531M-61.7055 471.003V477.254M-61.7055 513.719V519.925M-61.7055 556.383V562.589M-61.7055 599.054V605.238M-61.7055 641.718V647.91M-61.7055 684.382V690.537M-21.9881 -83.6274V-77.4282M-21.9881 -40.9635V-34.7569M-21.9881 1.70036V7.8922M-21.9881 44.3643V50.5635M-21.9881 87.0355V93.2274M-21.9881 129.692V135.891M-21.9881 172.356V178.555M-21.9881 215.02V221.212M-21.9881 257.691V263.876M-21.9881 300.34V306.547M-21.9881 343.004V349.211M-21.9881 385.675V391.875M-21.9881 428.339V434.531M-21.9881 471.003V477.254M-21.9881 513.719V519.925M-21.9881 556.383V562.589M-21.9881 599.054V605.238M-21.9881 641.718V647.91M-21.9881 684.382V690.537M17.7498 599.025V605.209M17.7498 641.688V647.88M57.4672 44.3643V50.5635M57.4672 87.0355V93.2274M57.4672 129.692V135.891M57.4672 172.356V178.555M57.4672 215.02V221.212M57.4672 257.691V263.876M57.4672 300.34V306.547M57.4672 343.004V349.211M57.4672 385.675V391.875M57.4672 428.339V434.531M97.1845 44.3643V50.5635M97.1845 87.0355V93.2274M97.1845 129.692V135.891M97.1845 172.356V178.555M97.1845 215.02V221.212M97.1845 257.691V263.876M97.1845 300.34V306.547M97.1845 343.004V349.211M97.1845 385.675V391.875M97.1845 428.339V434.531M-297.138 -80.4688H-302.908M-297.138 -37.8197H-302.908M-297.138 4.85163H-302.908M-297.138 47.5155H-302.908M-297.138 90.1794H-302.908M-297.138 132.851H-302.908M-297.138 175.5H-302.908M-297.138 218.164H-302.908M-297.138 260.835H-302.908M-297.138 303.499H-302.908M-297.138 346.155H-302.908M-297.138 388.819H-302.908M-297.138 431.498H-302.908M-297.138 474.169H-302.908M-297.138 516.833H-302.908M-297.138 559.49H-302.908M-297.138 602.154H-302.908M-297.138 644.781H-302.908M-297.138 687.445H-302.908M-257.421 -80.4688H-263.198M-257.435 -37.8196H-263.198M-257.435 4.85165H-263.198M-257.421 47.5156H-263.198M-257.435 90.1795H-263.198M-257.435 132.851H-263.198M-257.435 175.5H-263.198M-257.435 218.164H-263.198M-257.435 260.835H-263.198M-257.435 303.499H-263.198M-257.435 346.155H-263.198M-257.435 388.819H-263.198M-257.421 431.498H-263.198M-257.435 474.169H-263.198M-257.435 516.833H-263.198M-257.435 559.49H-263.198M-257.435 602.154H-263.198M-257.421 644.781H-263.198M-257.435 687.445H-263.198M-217.703 -80.4688H-223.467M-217.703 -37.8196H-223.467M-217.703 4.85165H-223.467M-217.703 47.5156H-223.467M-217.703 90.1795H-223.467M-217.703 132.851H-223.467M-217.703 175.5H-223.467M-217.703 218.164H-223.467M-217.703 260.835H-223.467M-217.703 303.499H-223.467M-217.703 346.155H-223.467M-217.703 388.819H-223.467M-217.703 431.498H-223.467M-217.703 474.169H-223.467M-217.703 516.833H-223.467M-217.703 559.49H-223.467M-217.703 602.154H-223.467M-217.703 644.781H-223.467M-217.703 687.445H-223.467M-177.979 -80.4688H-183.749M-177.979 -37.8196H-183.749M-177.979 4.85165H-183.749M-177.979 47.5156H-183.749M-177.979 90.1795H-183.749M-177.979 132.851H-183.749M-177.979 175.5H-183.749M-177.979 218.164H-183.749M-177.979 260.835H-183.749M-177.979 303.499H-183.749M-177.979 346.155H-183.749M-177.979 388.819H-183.749M-177.979 431.483H-183.749M-177.979 474.155H-183.749M-177.979 516.818H-183.749M-177.979 559.475H-183.749M-177.979 602.139H-183.749M-177.979 644.803H-183.749M-177.979 687.467H-183.749M-138.262 -80.4688H-144.032M-138.262 -37.8196H-144.032M-138.262 4.85165H-144.032M-138.262 47.5156H-144.032M-138.262 90.1795H-144.032M-138.262 132.851H-144.032M-138.262 175.5H-144.032M-138.262 218.164H-144.032M-138.262 260.835H-144.032M-138.262 303.499H-144.032M-138.262 346.155H-144.032M-138.262 388.819H-144.032M-138.262 431.483H-144.032M-138.262 474.155H-144.032M-138.262 516.818H-144.032M-138.262 559.475H-144.032M-138.262 602.139H-144.032M-138.262 644.803H-144.032M-138.262 687.467H-144.032M-98.5377 -80.4688H-104.308M-98.5377 -37.8196H-104.308M-98.5377 4.85165H-104.308M-98.5377 47.5156H-104.308M-98.5377 90.1795H-104.308M-98.5377 132.851H-104.308M-98.5377 175.5H-104.308M-98.5377 218.164H-104.308M-98.5377 260.835H-104.308M-98.5377 303.499H-104.308M-98.5377 346.155H-104.308M-98.5377 388.819H-104.308M-98.5377 431.483H-104.308M-98.5377 474.155H-104.308M-98.5377 516.818H-104.308M-98.5377 559.475H-104.308M-98.5377 602.139H-104.308M-98.5377 644.803H-104.308M-98.5377 687.467H-104.308M-58.8204 -80.4688H-64.5905M-58.8204 -37.8196H-64.5905M-58.8204 4.85165H-64.5905M-58.8204 47.5156H-64.5905M-58.8204 90.1795H-64.5905M-58.8204 132.851H-64.5905M-58.8204 175.5H-64.5905M-58.8204 218.164H-64.5905M-58.8204 260.835H-64.5905M-58.8204 303.499H-64.5905M-58.8204 346.155H-64.5905M-58.8204 388.819H-64.5905M-58.8204 431.483H-64.5905M-58.8204 474.155H-64.5905M-58.8204 516.818H-64.5905M-58.8204 559.475H-64.5905M-58.8204 602.139H-64.5905M-58.8204 644.803H-64.5905M-58.8204 687.467H-64.5905M-19.1031 -80.4688H-24.8388M-19.0687 -37.8196H-24.8388M-19.0687 4.85165H-24.8388M-19.0687 47.5156H-24.8388M-19.0687 90.1795H-24.8388M-19.0687 132.851H-24.8388M-19.0687 175.5H-24.8388M-19.0687 218.164H-24.8388M-19.0687 260.835H-24.8388M-19.0687 303.499H-24.8388M-19.0687 346.155H-24.8388M-19.0687 388.819H-24.8388M-19.0687 431.483H-24.8388M-19.0687 474.155H-24.8388M-19.0687 516.818H-24.8388M-19.0687 559.475H-24.8388M-19.0687 602.139H-24.8388M-19.0687 644.803H-24.8388M-19.0687 687.467H-24.8388M20.6211 -80.4688H14.8511M20.6211 -37.8196H14.8511M20.6211 4.85165H14.8511M20.6211 47.5156H14.8511M20.6211 90.1795H14.8511M20.6211 132.851H14.8511M20.6211 175.5H14.8511M20.6211 218.164H14.8511M20.6211 260.835H14.8511M20.6211 303.499H14.8511M20.6211 346.155H14.8511M20.6211 388.819H14.8511M20.6211 431.483H14.8511M20.6211 474.155H14.8511M20.6211 516.818H14.8511M20.6211 559.475H14.8511M20.6211 602.139H14.8511M20.6211 644.803H14.8511M20.6211 687.467H14.8511M60.3385 -80.4688H54.5684M60.3385 -37.8196H54.5684M60.3385 4.85165H54.5684M60.3385 47.5156H54.5684M60.3385 90.1795H54.5684M60.3385 132.851H54.5684M60.3385 175.5H54.5684M60.3385 218.164H54.5684M60.3385 260.835H54.5684M60.3385 303.499H54.5684M60.3385 346.155H54.5684M60.3385 388.819H54.5684M60.3385 431.498H54.5684M60.3385 474.155H54.5684M60.3385 516.818H54.5684M60.3385 559.475H54.5684M60.3385 602.139H54.5684M60.3385 644.781H54.5684M60.3385 687.445H54.5684M100.056 -80.4688H94.2857M100.056 -37.8196H94.2857M100.056 4.85165H94.2857M100.056 47.5156H94.2857M100.056 90.1795H94.2857M100.056 132.851H94.2857M100.056 175.5H94.2857M100.056 218.164H94.2857M100.056 260.835H94.2857M100.056 303.499H94.2857M100.056 346.155H94.2857M100.056 388.819H94.2857M100.056 431.483H94.2857M100.056 474.155H94.2857M100.056 516.818H94.2857M100.056 559.475H94.2857M100.056 602.139H94.2857M100.056 644.803H94.2857M100.056 687.467H94.2857M136.73 -83.6274V-77.4282M136.73 -40.9635V-34.7569M136.73 1.70036V7.8922M136.73 44.3716V50.6151M136.73 87.0872V93.279M136.73 129.736V135.943M136.73 172.408V178.607M136.73 215.072V221.263M136.73 257.743V263.927M136.73 300.392V306.599M136.73 343.063V349.262V343.056M136.73 385.727V391.926M136.73 428.391V434.583M136.73 471.055V477.254M136.73 513.719V519.925M136.73 556.383V562.589M136.73 599.047V605.238M136.73 641.718V647.91M136.73 684.382V690.537M176.427 -83.5758V-77.3766M176.427 -40.9119V-34.7053M176.427 1.75202V7.94386M176.427 44.4233V50.6151M176.427 87.0872V93.279M176.427 129.736V135.943M176.427 172.408V178.607M176.427 215.072V221.263M176.427 257.743V263.927M176.427 300.392V306.599M176.427 343.063V349.262V343.056M176.427 385.742V391.941M176.427 428.406V434.598M176.427 471.07V477.254M176.427 513.719V519.925M176.427 556.383V562.589M176.427 599.047V605.238M176.427 641.718V647.91M176.427 684.382V690.537M216.144 -83.6274V-77.4282M216.144 -40.9635V-34.7569M216.144 1.70036V7.8922M216.144 44.3716V50.6151M216.144 87.0872V93.279M216.144 129.736V135.943M216.144 172.408V178.607M216.144 215.072V221.263M216.144 257.743V263.927M216.144 300.392V306.599M216.144 343.063V349.262V343.056M216.144 385.727V391.926M216.144 428.391V434.583M216.144 471.055V477.254M216.144 513.719V519.925M216.144 556.383V562.589M216.144 599.047V605.238M216.144 641.718V647.91M216.144 684.382V690.537M255.862 -83.6274V-77.4282M255.862 -40.9635V-34.7569M255.862 1.70036V7.8922M255.862 44.3716V50.6151M255.862 87.0872V93.279M255.862 129.736V135.943M255.862 172.408V178.607M255.862 215.072V221.263M255.862 257.743V263.927M255.862 300.392V306.599M255.862 343.063V349.262V343.056M255.862 385.727V391.926M255.862 428.391V434.583M255.862 471.055V477.254M255.862 513.719V519.925M255.862 556.383V562.589M255.862 599.047V605.238M255.862 641.718V647.91M255.862 684.382V690.537M295.586 -83.6274V-77.4282M295.586 -40.9635V-34.7569M295.586 1.70036V7.8922M295.586 44.3716V50.6151M295.586 87.0872V93.279M295.586 129.736V135.943M295.586 172.408V178.607M295.586 215.072V221.263M295.586 257.743V263.927M295.586 300.392V306.599M295.586 343.063V349.262V343.056M295.586 385.727V391.926M295.586 428.391V434.583M295.586 471.055V477.254M295.586 513.719V519.925M295.586 556.383V562.589M295.586 599.047V605.238M295.586 641.718V647.91M295.586 684.382V690.537M335.303 -83.6274V-77.4282M335.303 -40.9635V-34.7569M335.303 1.70036V7.8922M335.303 44.3716V50.6151M335.303 87.0872V93.279M335.303 129.736V135.943M335.303 172.408V178.607M335.303 215.072V221.263M335.303 257.743V263.927M335.303 300.392V306.599M335.303 343.063V349.262M335.303 385.727V391.926M335.303 428.391V434.583M335.303 471.055V477.254M335.303 513.719V519.925M335.303 556.383V562.589M335.303 599.047V605.238M335.303 641.718V647.91M335.303 684.382V690.537M375.02 -83.6274V-77.4282M375.02 -40.9635V-34.7569M375.02 1.70036V7.8922M375.02 44.3716V50.6151M375.02 87.0872V93.279M375.02 129.736V135.943M375.02 172.408V178.607M375.02 215.072V221.263M375.02 257.743V263.927M375.02 300.392V306.599M375.02 343.063V349.262M375.02 385.727V391.926M375.02 428.391V434.583M375.02 471.055V477.254M375.02 513.719V519.925M375.02 556.383V562.589M375.02 599.047V605.238M375.02 641.718V647.91M375.02 684.382V690.537M414.786 -83.5758V-77.3766M414.786 -40.9119V-34.7053M414.786 1.75202V7.94386M414.786 44.4233V50.6151V44.4159M414.786 87.0872V93.279M414.786 129.736V135.943V129.744M414.786 172.408V178.607M414.786 215.072V221.263M414.786 257.743V263.927M414.786 300.392V306.599M414.786 343.063V349.262V343.056M414.786 385.742V391.941M414.786 428.406V434.598M414.786 471.07V477.254M414.786 513.719V519.925M414.786 556.383V562.589M414.786 599.047V605.238M414.786 641.718V647.91M414.786 684.382V690.537V684.352M454.503 -83.6274V-77.4282M454.503 -40.9635V-34.7569M454.503 1.70036V7.8922M454.503 44.3716V50.6151M454.503 87.0872V93.279M454.503 129.736V135.943M454.503 172.408V178.607M454.503 215.072V221.263M454.503 257.743V263.927M454.503 300.392V306.599M454.503 343.063V349.262M454.503 385.727V391.926M454.503 428.391V434.583M454.503 471.055V477.254V471.003M454.503 513.719V519.925M454.503 556.383V562.589M454.503 599.047V605.238V599.054M454.503 641.718V647.91M454.503 684.382V690.537M494.22 -83.6274V-77.4282M494.22 -40.9635V-34.7569M494.22 1.70036V7.8922M494.22 44.3716V50.6151M494.22 87.0872V93.279M494.22 129.736V135.943M494.22 172.408V178.607M494.22 215.072V221.263M494.22 257.743V263.927M494.22 300.392V306.599M494.22 343.063V349.262M494.22 385.727V391.926M494.22 428.391V434.583M494.22 471.055V477.254V471.003M494.22 513.719V519.925M494.22 556.383V562.589M494.22 599.047V605.238V599.054M494.22 641.718V647.91M494.22 684.382V690.537M295.613 684.374V690.537M335.33 -83.6274V-77.4282M335.33 -40.9635V-34.7569M335.33 1.70036V7.8922M335.33 44.3643V50.5635M335.33 87.0355V93.2274M335.33 129.692V135.891M335.33 172.356V178.555M335.33 215.02V221.212M335.33 257.691V263.876M335.33 300.34V306.547M335.33 343.004V349.211M335.33 385.675V391.875M335.33 428.339V434.531M335.33 471.003V477.254M335.33 513.719V519.925M335.33 556.383V562.589M335.33 599.054V605.238M335.33 641.718V647.91M335.33 684.382V690.537M375.048 -83.6274V-77.4282M375.048 -40.9635V-34.7569M375.048 1.70036V7.8922M375.048 44.3643V50.5635M375.048 87.0355V93.2274M375.048 129.692V135.891M375.048 172.356V178.555M375.048 215.02V221.212M375.048 257.691V263.876M375.048 300.34V306.547M375.048 343.004V349.211M375.048 385.675V391.875M375.048 428.339V434.531M375.048 471.003V477.254M375.048 513.719V519.925M375.048 556.383V562.589M375.048 599.054V605.238M375.048 641.718V647.91M375.048 684.382V690.537M414.786 599.025V605.209M414.786 641.688V647.88M454.503 44.3643V50.5635M454.503 87.0355V93.2274M454.503 129.692V135.891M454.503 172.356V178.555M454.503 215.02V221.212M454.503 257.691V263.876M454.503 300.34V306.547M454.503 343.004V349.211M454.503 385.675V391.875M454.503 428.339V434.531M494.22 44.3643V50.5635M494.22 87.0355V93.2274M494.22 129.692V135.891M494.22 172.356V178.555M494.22 215.02V221.212M494.22 257.691V263.876M494.22 300.34V306.547M494.22 343.004V349.211M494.22 385.675V391.875M494.22 428.339V434.531M139.615 -80.4688H133.838M139.601 -37.8196H133.838M139.601 4.85165H133.838M139.615 47.5156H133.838M139.601 90.1795H133.838M139.601 132.851H133.838M139.601 175.5H133.838M139.601 218.164H133.838M139.601 260.835H133.838M139.601 303.499H133.838M139.601 346.155H133.838M139.601 388.819H133.838M139.615 431.498H133.838M139.601 474.169H133.838M139.601 516.833H133.838M139.601 559.49H133.838M139.601 602.154H133.838M139.615 644.781H133.838M139.601 687.445H133.838M179.332 -80.4688H173.569M179.332 -37.8196H173.569M179.332 4.85165H173.569M179.332 47.5156H173.569M179.332 90.1795H173.569M179.332 132.851H173.569M179.332 175.5H173.569M179.332 218.164H173.569M179.332 260.835H173.569M179.332 303.499H173.569M179.332 346.155H173.569M179.332 388.819H173.569M179.332 431.498H173.569M179.332 474.169H173.569M179.332 516.833H173.569M179.332 559.49H173.569M179.332 602.154H173.569M179.332 644.781H173.569M179.332 687.445H173.569M219.057 -80.4688H213.287M219.057 -37.8196H213.287M219.057 4.85165H213.287M219.057 47.5156H213.287M219.057 90.1795H213.287M219.057 132.851H213.287M219.057 175.5H213.287M219.057 218.164H213.287M219.057 260.835H213.287M219.057 303.499H213.287M219.057 346.155H213.287M219.057 388.819H213.287M219.057 431.483H213.287M219.057 474.155H213.287M219.057 516.818H213.287M219.057 559.475H213.287M219.057 602.139H213.287M219.057 644.803H213.287M219.057 687.467H213.287M258.774 -80.4688H253.004M258.774 -37.8196H253.004M258.774 4.85165H253.004M258.774 47.5156H253.004M258.774 90.1795H253.004M258.774 132.851H253.004M258.774 175.5H253.004M258.774 218.164H253.004M258.774 260.835H253.004M258.774 303.499H253.004M258.774 346.155H253.004M258.774 388.819H253.004M258.774 431.483H253.004M258.774 474.155H253.004M258.774 516.818H253.004M258.774 559.475H253.004M258.774 602.139H253.004M258.774 644.803H253.004M258.774 687.467H253.004M298.498 -80.4688H292.728M298.498 -37.8196H292.728M298.498 4.85165H292.728M298.498 47.5156H292.728M298.498 90.1795H292.728M298.498 132.851H292.728M298.498 175.5H292.728M298.498 218.164H292.728M298.498 260.835H292.728M298.498 303.499H292.728M298.498 346.155H292.728M298.498 388.819H292.728M298.498 431.483H292.728M298.498 474.155H292.728M298.498 516.818H292.728M298.498 559.475H292.728M298.498 602.139H292.728M298.498 644.803H292.728M298.498 687.467H292.728M338.216 -80.4688H332.445M338.216 -37.8196H332.445M338.216 4.85165H332.445M338.216 47.5156H332.445M338.216 90.1795H332.445M338.216 132.851H332.445M338.216 175.5H332.445M338.216 218.164H332.445M338.216 260.835H332.445M338.216 303.499H332.445M338.216 346.155H332.445M338.216 388.819H332.445M338.216 431.483H332.445M338.216 474.155H332.445M338.216 516.818H332.445M338.216 559.475H332.445M338.216 602.139H332.445M338.216 644.803H332.445M338.216 687.467H332.445M377.933 -80.4688H372.197M377.967 -37.8196H372.197M377.967 4.85165H372.197M377.967 47.5156H372.197M377.967 90.1795H372.197M377.967 132.851H372.197M377.967 175.5H372.197M377.967 218.164H372.197M377.967 260.835H372.197M377.967 303.499H372.197M377.967 346.155H372.197M377.967 388.819H372.197M377.967 431.483H372.197M377.967 474.155H372.197M377.967 516.818H372.197M377.967 559.475H372.197M377.967 602.139H372.197M377.967 644.803H372.197M377.967 687.467H372.197M417.657 -80.4688H411.887M417.657 -37.8196H411.887M417.657 4.85165H411.887M417.657 47.5156H411.887M417.657 90.1795H411.887M417.657 132.851H411.887M417.657 175.5H411.887M417.657 218.164H411.887M417.657 260.835H411.887M417.657 303.499H411.887M417.657 346.155H411.887M417.657 388.819H411.887M417.657 431.483H411.887M417.657 474.155H411.887M417.657 516.818H411.887M417.657 559.475H411.887M417.657 602.139H411.887M417.657 644.803H411.887M417.657 687.467H411.887M457.374 -80.4688H451.604M457.374 -37.8196H451.604M457.374 4.85165H451.604M457.374 47.5156H451.604M457.374 90.1795H451.604M457.374 132.851H451.604M457.374 175.5H451.604M457.374 218.164H451.604M457.374 260.835H451.604M457.374 303.499H451.604M457.374 346.155H451.604M457.374 388.819H451.604M457.374 431.498H451.604M457.374 474.155H451.604M457.374 516.818H451.604M457.374 559.475H451.604M457.374 602.139H451.604M457.374 644.781H451.604M457.374 687.445H451.604M497.092 -80.4688H491.322M497.092 -37.8196H491.322M497.092 4.85165H491.322M497.092 47.5156H491.322M497.092 90.1795H491.322M497.092 132.851H491.322M497.092 175.5H491.322M497.092 218.164H491.322M497.092 260.835H491.322M497.092 303.499H491.322M497.092 346.155H491.322M497.092 388.819H491.322M497.092 431.483H491.322M497.092 474.155H491.322M497.092 516.818H491.322M497.092 559.475H491.322M497.092 602.139H491.322M497.092 644.803H491.322M497.092 687.467H491.322" stroke="#939598" stroke-width="0.83"/>
</g>
<defs>
<clipPath id="clip0_73_151">
<rect width="105" height="291" fill="white"/>
</clipPath>
</defs>
</svg>
