<svg width="405" height="925" fill="none" xmlns="http://www.w3.org/2000/svg"><g clip-path="url(#a)"><path d="M63.13 1327.31v11.34m0 66.77v11.28-11.27M135.844-.627v11.349m0 66.76v11.362m0 66.746v11.336m0 66.786v11.43m0 66.773v11.336m0 66.745v11.363m0 66.759v11.35m0 66.759v11.336m0 66.786v11.322m0 66.759v11.363m0 66.76v11.349-11.363m0 78.122v11.349m0 66.76v11.336m0 66.774v11.35m0 66.76v11.36m0 66.75v11.36m0 66.74v11.34m0 66.79v11.33m0 66.77v11.27M208.52-.533v11.35m0 66.759v11.363m0 66.745v11.336m0 66.786v11.336m0 66.773v11.336m0 66.745v11.363m0 66.759v11.35m0 66.759v11.336m0 66.786v11.322m0 66.759v11.363m0 66.76v11.349-11.363m0 78.149v11.35m0 66.759v11.336m0 66.777v11.32m0 66.76v11.36m0 66.75v11.36m0 66.74v11.34m0 66.79v11.33m0 66.77v11.27M281.234-.627v11.349m0 66.76v11.362m0 66.746v11.336m0 66.786v11.43m0 66.773v11.336m0 66.745v11.363m0 66.759v11.35m0 66.759v11.336m0 66.786v11.322m0 66.759v11.363m0 66.76v11.349-11.363m0 78.122v11.349m0 66.76v11.336m0 66.774v11.35m0 66.76v11.36m0 66.75v11.36m0 66.74v11.34m0 66.79v11.33m0 66.77v11.27M353.948-.627v11.349m0 66.76v11.362m0 66.746v11.336m0 66.786v11.43m0 66.773v11.336m0 66.745v11.363m0 66.759v11.35m0 66.759v11.336m0 66.786v11.322m0 66.759v11.363m0 66.76v11.349-11.363m0 78.122v11.349m0 66.76v11.336m0 66.774v11.35m0 66.76v11.36m0 66.75v11.36m0 66.74v11.34m0 66.79v11.33m0 66.77v11.27M426.674-.627v11.349m0 66.76v11.362m0 66.746v11.336m0 66.786v11.43m0 66.773v11.336m0 66.745v11.363m0 66.759v11.35m0 66.759v11.336m0 66.786v11.322m0 66.759v11.363m0 66.76v11.349-11.363m0 78.122v11.349m0 66.76v11.336m0 66.774v11.35m0 66.76v11.36m0 66.75v11.36m0 66.74v11.34m0 66.79v11.33m0 66.77v11.27M499.388-.627v11.349m0 66.76v11.362m0 66.746v11.336m0 66.786v11.43m0 66.773v11.336m0 66.745v11.363m0 66.759v11.35m0 66.759v11.336m0 66.786v11.322m0 66.759v11.363m0 66.76v11.349m0 66.759v11.349m0 66.76v11.336m0 66.774v11.35m0 66.76v11.36m0 66.75v11.36m0 66.74v11.34m0 66.79v11.33m0 66.77v11.27M572.102-.627v11.349m0 66.76v11.362m0 66.746v11.336m0 66.786v11.43m0 66.773v11.336m0 66.745v11.363m0 66.759v11.35m0 66.759v11.336m0 66.786v11.322m0 66.759v11.363m0 66.76v11.349m0 66.759v11.349m0 66.76v11.336m0 66.774v11.35m0 66.76v11.36m0 66.75v11.36m0 66.74v11.34m0 66.79v11.33m0 66.77v11.27M644.904-.533v11.35m0 66.759v11.363m0 66.745v11.336m0 66.786v11.336-11.349m0 78.122v11.336m0 66.745v11.363-11.349m0 78.108v11.35m0 66.759v11.336m0 66.786v11.322m0 66.759v11.363m0 66.76v11.349-11.363m0 78.149v11.35m0 66.759v11.336m0 66.777v11.32m0 66.76v11.36m0 66.75v11.36m0 66.74v11.34m0 66.79v11.33m0 66.77v11.27-11.32M717.618-.627v11.349m0 66.76v11.362m0 66.746v11.336m0 66.786v11.43m0 66.773v11.336m0 66.745v11.363m0 66.759v11.35m0 66.759v11.336m0 66.786v11.322m0 66.759v11.363m0 66.76v11.349m0 66.759v11.349m0 66.76v11.336m0 66.774v11.35-11.45m0 78.21v11.36m0 66.75v11.36m0 66.74v11.34-11.32m0 78.11v11.33m0 66.77v11.27M790.332-.627v11.349m0 66.76v11.362m0 66.746v11.336m0 66.786v11.43m0 66.773v11.336m0 66.745v11.363m0 66.759v11.35m0 66.759v11.336m0 66.786v11.322m0 66.759v11.363m0 66.76v11.349m0 66.759v11.349m0 66.76v11.336m0 66.774v11.35-11.45m0 78.21v11.36m0 66.75v11.36m0 66.74v11.34-11.32m0 78.11v11.33m0 66.77v11.27M63.13-.533v11.35m0 66.759v11.363m0 66.745v11.336m0 66.786v11.336m0 66.773v11.336m0 66.745v11.363m0 66.759v11.35m0 66.759v11.336m0 66.786v11.322m0 66.759v11.363m0 66.746v11.363m0 66.759v11.349m0 66.76v11.336m0 66.774v11.35m0 66.76v11.36m0 66.75v11.36m0 66.74v11.34m0 66.79v11.33m363.595 66.76v11.28M499.439-.627v11.349m0 66.76v11.362m0 66.746v11.336m0 66.772v11.35m0 66.772v11.336m0 66.759v11.35m0 66.759v11.349m0 66.759v11.336m0 66.786v11.323m0 66.759v11.363m0 66.745v11.363m0 66.759v11.35m0 66.759v11.336m0 66.769v11.45m0 66.76v11.36m0 66.75v11.36m0 66.76v11.32m0 66.79v11.33m0 66.77v11.27M572.153-.627v11.349m0 66.76v11.362m0 66.746v11.336m0 66.772v11.35m0 66.772v11.336m0 66.759v11.35m0 66.759v11.349m0 66.759v11.336m0 66.786v11.323m0 66.759v11.363m0 66.745v11.363m0 66.759v11.35m0 66.759v11.336m0 66.769v11.45m0 66.76v11.36m0 66.75v11.36m0 66.76v11.32m0 66.79v11.33m0 66.77v11.27m72.751-167.54v11.33m0 66.78v11.34m72.714-1104.912v11.35m0 66.772v11.336m0 66.759v11.35m0 66.759v11.349m0 66.759v11.336m0 66.786v11.323m0 66.759v11.363m0 66.745v11.363m0 66.759v11.35m0 66.759v11.336m72.714-714.313v11.35m0 66.772v11.336m0 66.759v11.35m0 66.759v11.349m0 66.759v11.336m0 66.786v11.323m0 66.759v11.363m0 66.745v11.363m0 66.759v11.35m0 66.759v11.336M68.412 5.155H57.847M68.41 83.237H57.848m10.563 78.122H57.848m10.563 78.108H57.848m10.563 78.109H57.848m10.563 78.122H57.848M68.41 473.78H57.848m10.563 78.108H57.848M68.41 630.01H57.848m10.563 78.109H57.848m10.563 78.095H57.848m10.563 78.108H57.848m10.563 78.136H57.848m10.563 78.122H57.848m10.563 78.11H57.848m10.563 78.09H57.848m10.563 78.11H57.848m10.563 78.04H57.848m10.563 78.11H57.848M141.125 5.155h-10.576M141.1 83.237h-10.551m10.551 78.122h-10.551m10.576 78.109h-10.576m10.551 78.108h-10.551m10.551 78.122h-10.551M141.1 473.78h-10.551m10.551 78.108h-10.551M141.1 630.01h-10.551m10.551 78.109h-10.551m10.551 78.095h-10.551m10.551 78.108h-10.551m10.576 78.136h-10.576m10.551 78.122h-10.551m10.551 78.11h-10.551m10.551 78.09h-10.551m10.551 78.11h-10.551m10.576 78.04h-10.576m10.551 78.11h-10.551M213.839 5.155h-10.551m10.551 78.082h-10.551m10.551 78.122h-10.551m10.551 78.109h-10.551m10.551 78.108h-10.551m10.551 78.122h-10.551m10.551 78.082h-10.551m10.551 78.108h-10.551m10.551 78.122h-10.551m10.551 78.109h-10.551m10.551 78.095h-10.551m10.551 78.108h-10.551m10.551 78.136h-10.551m10.551 78.122h-10.551m10.551 78.11h-10.551m10.551 78.09h-10.551m10.551 78.11h-10.551m10.551 78.04h-10.551m10.551 78.11h-10.551M286.566 5.155h-10.564m10.564 78.082h-10.564m10.564 78.122h-10.564m10.564 78.109h-10.564m10.564 78.108h-10.564m10.564 78.122h-10.564m10.564 78.082h-10.564m10.564 78.108h-10.564m10.564 78.122h-10.564m10.564 78.109h-10.564m10.564 78.095h-10.564m10.564 78.108h-10.564m10.564 78.109h-10.564m10.564 78.119h-10.564m10.564 78.11h-10.564m10.564 78.1h-10.564m10.564 78.1h-10.564m10.564 78.11h-10.564m10.564 78.11h-10.564M359.28 5.155h-10.564m10.564 78.082h-10.564m10.564 78.122h-10.564m10.564 78.109h-10.564m10.564 78.108h-10.564m10.564 78.122h-10.564m10.564 78.082h-10.564m10.564 78.108h-10.564m10.564 78.122h-10.564m10.564 78.109h-10.564m10.564 78.095h-10.564m10.564 78.108h-10.564m10.564 78.109h-10.564m10.564 78.119h-10.564m10.564 78.11h-10.564m10.564 78.1h-10.564m10.564 78.1h-10.564m10.564 78.11h-10.564m10.564 78.11h-10.564M432.007 5.155h-10.564m10.564 78.082h-10.564m10.564 78.122h-10.564m10.564 78.109h-10.564m10.564 78.108h-10.564m10.564 78.122h-10.564m10.564 78.082h-10.564m10.564 78.108h-10.564m10.564 78.122h-10.564m10.564 78.109h-10.564m10.564 78.095h-10.564m10.564 78.108h-10.564m10.564 78.109h-10.564m10.564 78.119h-10.564m10.564 78.11h-10.564m10.564 78.1h-10.564m10.564 78.1h-10.564m10.564 78.11h-10.564m10.564 78.11h-10.564M504.721 5.155h-10.564m10.564 78.082h-10.564m10.564 78.122h-10.564m10.564 78.109h-10.564m10.564 78.108h-10.564m10.564 78.122h-10.564m10.564 78.082h-10.564m10.564 78.108h-10.564m10.564 78.122h-10.564m10.564 78.109h-10.564m10.564 78.095h-10.564m10.564 78.108h-10.564m10.564 78.109h-10.564m10.564 78.119h-10.564m10.564 78.11h-10.564m10.564 78.1h-10.564m10.564 78.1h-10.564m10.564 78.11h-10.564m10.564 78.11h-10.564M577.435 5.155h-10.501m10.563 78.082h-10.563m10.563 78.122h-10.563m10.563 78.109h-10.563m10.563 78.108h-10.563m10.563 78.122h-10.563m10.563 78.082h-10.563m10.563 78.108h-10.563m10.563 78.122h-10.563m10.563 78.109h-10.563m10.563 78.095h-10.563m10.563 78.108h-10.563m10.563 78.109h-10.563m10.563 78.119h-10.563m10.563 78.11h-10.563m10.563 78.1h-10.563m10.563 78.1h-10.563m10.563 78.11h-10.563m10.563 78.11h-10.563M650.161 5.155h-10.564m10.564 78.082h-10.564m10.564 78.122h-10.564m10.564 78.109h-10.564m10.564 78.108h-10.564m10.564 78.122h-10.564m10.564 78.082h-10.564m10.564 78.108h-10.564m10.564 78.122h-10.564m10.564 78.109h-10.564m10.564 78.095h-10.564m10.564 78.108h-10.564m10.564 78.109h-10.564m10.564 78.119h-10.564m10.564 78.11h-10.564m10.564 78.1h-10.564m10.564 78.1h-10.564m10.564 78.11h-10.564m10.564 78.11h-10.564M722.875 5.155h-10.564m10.564 78.082h-10.564m10.564 78.122h-10.564m10.564 78.109h-10.564m10.564 78.108h-10.564m10.564 78.122h-10.564m10.564 78.082h-10.564m10.564 78.108h-10.564m10.564 78.122h-10.564m10.564 78.109h-10.564m10.564 78.095h-10.564m10.564 78.108h-10.564m10.564 78.136h-10.564m10.564 78.092h-10.564m10.564 78.11h-10.564m10.564 78.1h-10.564m10.564 78.1h-10.564m10.564 78.07h-10.564m10.564 78.11h-10.564M795.589 5.155h-10.564m10.564 78.082h-10.564m10.564 78.122h-10.564m10.564 78.109h-10.564m10.564 78.108h-10.564m10.564 78.122h-10.564m10.564 78.082h-10.564m10.564 78.108h-10.564m10.564 78.122h-10.564m10.564 78.109h-10.564m10.564 78.095h-10.564m10.564 78.108h-10.564m10.564 78.109h-10.564m10.564 78.119h-10.564m10.564 78.11h-10.564m10.564 78.1h-10.564m10.564 78.1h-10.564m10.564 78.11h-10.564m10.564 78.11h-10.564M862.732-.627v11.349m0 66.76v11.362m0 66.746v11.336m0 66.786v11.43m0 66.773v11.336m0 66.745v11.363m0 66.759v11.35m0 66.759v11.336m0 66.786v11.322m0 66.759v11.363m0 66.76v11.349-11.363m0 78.122v11.349m0 66.76v11.336m0 66.774v11.35m0 66.76v11.36m0 66.75v11.36m0 66.74v11.34m0 66.79v11.33m0 66.77v11.27M935.408-.533v11.35m0 66.759v11.363m0 66.745v11.336m0 66.786v11.336m0 66.773v11.336m0 66.745v11.363m0 66.759v11.35m0 66.759v11.336m0 66.786v11.322m0 66.759v11.363m0 66.76v11.349-11.363m0 78.149v11.35m0 66.759v11.336m0 66.777v11.32m0 66.76v11.36m0 66.75v11.36m0 66.74v11.34m0 66.79v11.33m0 66.77v11.27M1008.12-.627v11.349m0 66.76v11.362m0 66.746v11.336m0 66.786v11.43m0 66.773v11.336m0 66.745v11.363m0 66.759v11.35m0 66.759v11.336m0 66.786v11.322m0 66.759v11.363m0 66.76v11.349-11.363m0 78.122v11.349m0 66.76v11.336m0 66.774v11.35m0 66.76v11.36m0 66.75v11.36m0 66.74v11.34m0 66.79v11.33m0 66.77v11.27M1080.84-.627v11.349m0 66.76v11.362m0 66.746v11.336m0 66.786v11.43m0 66.773v11.336m0 66.745v11.363m0 66.759v11.35m0 66.759v11.336m0 66.786v11.322m0 66.759v11.363m0 66.76v11.349-11.363m0 78.122v11.349m0 66.76v11.336m0 66.774v11.35m0 66.76v11.36m0 66.75v11.36m0 66.74v11.34m0 66.79v11.33m0 66.77v11.27M1153.56-.627v11.349m0 66.76v11.362m0 66.746v11.336m0 66.786v11.43m0 66.773v11.336m0 66.745v11.363m0 66.759v11.35m0 66.759v11.336m0 66.786v11.322m0 66.759v11.363m0 66.76v11.349-11.363m0 78.122v11.349m0 66.76v11.336m0 66.774v11.35m0 66.76v11.36m0 66.75v11.36m0 66.74v11.34m0 66.79v11.33m0 66.77v11.27M1226.28-.627v11.349m0 66.76v11.362m0 66.746v11.336m0 66.786v11.43m0 66.773v11.336m0 66.745v11.363m0 66.759v11.35m0 66.759v11.336m0 66.786v11.322m0 66.759v11.363m0 66.76v11.349m0 66.759v11.349m0 66.76v11.336m0 66.774v11.35m0 66.76v11.36m0 66.75v11.36m0 66.74v11.34m0 66.79v11.33m0 66.77v11.27M1298.99-.627v11.349m0 66.76v11.362m0 66.746v11.336m0 66.786v11.43m0 66.773v11.336m0 66.745v11.363m0 66.759v11.35m0 66.759v11.336m0 66.786v11.322m0 66.759v11.363m0 66.76v11.349m0 66.759v11.349m0 66.76v11.336m0 66.774v11.35m0 66.76v11.36m0 66.75v11.36m0 66.74v11.34m0 66.79v11.33m0 66.77v11.27M1371.79-.533v11.35m0 66.759v11.363m0 66.745v11.336m0 66.786v11.336-11.349m0 78.122v11.336m0 66.745v11.363-11.349m0 78.108v11.35m0 66.759v11.336m0 66.786v11.322m0 66.759v11.363m0 66.76v11.349-11.363m0 78.149v11.35m0 66.759v11.336m0 66.777v11.32m0 66.76v11.36m0 66.75v11.36m0 66.74v11.34m0 66.79v11.33m0 66.77v11.27-11.32M1444.51-.627v11.349m0 66.76v11.362m0 66.746v11.336m0 66.786v11.43m0 66.773v11.336m0 66.745v11.363m0 66.759v11.35m0 66.759v11.336m0 66.786v11.322m0 66.759v11.363m0 66.76v11.349m0 66.759v11.349m0 66.76v11.336m0 66.774v11.35-11.45m0 78.21v11.36m0 66.75v11.36m0 66.74v11.34-11.32m0 78.11v11.33m0 66.77v11.27M1517.22-.627v11.349m0 66.76v11.362m0 66.746v11.336m0 66.786v11.43m0 66.773v11.336m0 66.745v11.363m0 66.759v11.35m0 66.759v11.336m0 66.786v11.322m0 66.759v11.363m0 66.76v11.349m0 66.759v11.349m0 66.76v11.336m0 66.774v11.35-11.45m0 78.21v11.36m0 66.75v11.36m0 66.74v11.34-11.32m0 78.11v11.33m0 66.77v11.27m-363.61-11.28v11.28M1226.33-.627v11.349m0 66.76v11.362m0 66.746v11.336m0 66.772v11.35m0 66.772v11.336m0 66.759v11.35m0 66.759v11.349m0 66.759v11.336m0 66.786v11.323m0 66.759v11.363m0 66.745v11.363m0 66.759v11.35m0 66.759v11.336m0 66.769v11.45m0 66.76v11.36m0 66.75v11.36m0 66.76v11.32m0 66.79v11.33m0 66.77v11.27M1299.04-.627v11.349m0 66.76v11.362m0 66.746v11.336m0 66.772v11.35m0 66.772v11.336m0 66.759v11.35m0 66.759v11.349m0 66.759v11.336m0 66.786v11.323m0 66.759v11.363m0 66.745v11.363m0 66.759v11.35m0 66.759v11.336m0 66.769v11.45m0 66.76v11.36m0 66.75v11.36m0 66.76v11.32m0 66.79v11.33m0 66.77v11.27m72.75-167.54v11.33m0 66.78v11.34m72.72-1104.912v11.35m0 66.772v11.336m0 66.759v11.35m0 66.759v11.349m0 66.759v11.336m0 66.786v11.323m0 66.759v11.363m0 66.745v11.363m0 66.759v11.35m0 66.759v11.336m72.71-714.313v11.35m0 66.772v11.336m0 66.759v11.35m0 66.759v11.349m0 66.759v11.336m0 66.786v11.323m0 66.759v11.363m0 66.745v11.363m0 66.759v11.35m0 66.759v11.336M868.014 5.155h-10.576m10.551 78.082h-10.551m10.551 78.122h-10.551m10.576 78.109h-10.576m10.551 78.108h-10.551m10.551 78.122h-10.551m10.551 78.082h-10.551m10.551 78.108h-10.551m10.551 78.122h-10.551m10.551 78.109h-10.551m10.551 78.095h-10.551m10.551 78.108h-10.551m10.576 78.136h-10.576m10.551 78.122h-10.551m10.551 78.11h-10.551m10.551 78.09h-10.551m10.551 78.11h-10.551m10.576 78.04h-10.576m10.551 78.11h-10.551M940.728 5.155h-10.551m10.551 78.082h-10.551m10.551 78.122h-10.551m10.551 78.109h-10.551m10.551 78.108h-10.551m10.551 78.122h-10.551m10.551 78.082h-10.551m10.551 78.108h-10.551m10.551 78.122h-10.551m10.551 78.109h-10.551m10.551 78.095h-10.551m10.551 78.108h-10.551m10.551 78.136h-10.551m10.551 78.122h-10.551m10.551 78.11h-10.551m10.551 78.09h-10.551m10.551 78.11h-10.551m10.551 78.04h-10.551m10.551 78.11h-10.551M1013.45 5.155h-10.56m10.56 78.082h-10.56m10.56 78.122h-10.56m10.56 78.109h-10.56m10.56 78.108h-10.56m10.56 78.122h-10.56m10.56 78.082h-10.56m10.56 78.108h-10.56m10.56 78.122h-10.56m10.56 78.109h-10.56m10.56 78.095h-10.56m10.56 78.108h-10.56m10.56 78.109h-10.56m10.56 78.119h-10.56m10.56 78.11h-10.56m10.56 78.1h-10.56m10.56 78.1h-10.56m10.56 78.11h-10.56m10.56 78.11h-10.56M1086.17 5.155h-10.57m10.57 78.082h-10.57m10.57 78.122h-10.57m10.57 78.109h-10.57m10.57 78.108h-10.57m10.57 78.122h-10.57m10.57 78.082h-10.57m10.57 78.108h-10.57m10.57 78.122h-10.57m10.57 78.109h-10.57m10.57 78.095h-10.57m10.57 78.108h-10.57m10.57 78.109h-10.57m10.57 78.119h-10.57m10.57 78.11h-10.57m10.57 78.1h-10.57m10.57 78.1h-10.57m10.57 78.11h-10.57m10.57 78.11h-10.57M1158.9 5.155h-10.57m10.57 78.082h-10.57m10.57 78.122h-10.57m10.57 78.109h-10.57m10.57 78.108h-10.57m10.57 78.122h-10.57m10.57 78.082h-10.57m10.57 78.108h-10.57m10.57 78.122h-10.57m10.57 78.109h-10.57m10.57 78.095h-10.57m10.57 78.108h-10.57m10.57 78.109h-10.57m10.57 78.119h-10.57m10.57 78.11h-10.57m10.57 78.1h-10.57m10.57 78.1h-10.57m10.57 78.11h-10.57m10.57 78.11h-10.57M1231.61 5.155h-10.56m10.56 78.082h-10.56m10.56 78.122h-10.56m10.56 78.109h-10.56m10.56 78.108h-10.56m10.56 78.122h-10.56m10.56 78.082h-10.56m10.56 78.108h-10.56m10.56 78.122h-10.56m10.56 78.109h-10.56m10.56 78.095h-10.56m10.56 78.108h-10.56m10.56 78.109h-10.56m10.56 78.119h-10.56m10.56 78.11h-10.56m10.56 78.1h-10.56m10.56 78.1h-10.56m10.56 78.11h-10.56m10.56 78.11h-10.56M1304.32 5.155h-10.5m10.57 78.082h-10.57m10.57 78.122h-10.57m10.57 78.109h-10.57m10.57 78.108h-10.57m10.57 78.122h-10.57m10.57 78.082h-10.57m10.57 78.108h-10.57m10.57 78.122h-10.57m10.57 78.109h-10.57m10.57 78.095h-10.57m10.57 78.108h-10.57m10.57 78.109h-10.57m10.57 78.119h-10.57m10.57 78.11h-10.57m10.57 78.1h-10.57m10.57 78.1h-10.57m10.57 78.11h-10.57m10.57 78.11h-10.57M1377.05 5.155h-10.56m10.56 78.082h-10.56m10.56 78.122h-10.56m10.56 78.109h-10.56m10.56 78.108h-10.56m10.56 78.122h-10.56m10.56 78.082h-10.56m10.56 78.108h-10.56m10.56 78.122h-10.56m10.56 78.109h-10.56m10.56 78.095h-10.56m10.56 78.108h-10.56m10.56 78.109h-10.56m10.56 78.119h-10.56m10.56 78.11h-10.56m10.56 78.1h-10.56m10.56 78.1h-10.56m10.56 78.11h-10.56m10.56 78.11h-10.56M1449.76 5.155h-10.56m10.56 78.082h-10.56m10.56 78.122h-10.56m10.56 78.109h-10.56m10.56 78.108h-10.56m10.56 78.122h-10.56m10.56 78.082h-10.56m10.56 78.108h-10.56m10.56 78.122h-10.56m10.56 78.109h-10.56m10.56 78.095h-10.56m10.56 78.108h-10.56m10.56 78.136h-10.56m10.56 78.092h-10.56m10.56 78.11h-10.56m10.56 78.1h-10.56m10.56 78.1h-10.56m10.56 78.07h-10.56m10.56 78.11h-10.56M1522.48 5.155h-10.57m10.57 78.082h-10.57m10.57 78.122h-10.57m10.57 78.109h-10.57m10.57 78.108h-10.57m10.57 78.122h-10.57m10.57 78.082h-10.57m10.57 78.108h-10.57m10.57 78.122h-10.57m10.57 78.109h-10.57m10.57 78.095h-10.57m10.57 78.108h-10.57m10.57 78.109h-10.57m10.57 78.119h-10.57m10.57 78.11h-10.57m10.57 78.1h-10.57m10.57 78.1h-10.57m10.57 78.11h-10.57m10.57 78.11h-10.57" stroke="#939598" stroke-width=".83"/></g><defs><clipPath id="a"><path fill="#fff" d="M0 0h405v925H0z"/></clipPath></defs></svg>