<svg width="105" height="291" fill="none" xmlns="http://www.w3.org/2000/svg"><g clip-path="url(#a)"><path d="M-300.023 641.711v6.191m0 36.472v6.163-6.155m39.717-768.01v6.2m0 36.464v6.207m0 36.457v6.192m0 36.48v6.243m0 36.472v6.192m0 36.457v6.207m0 36.465v6.199m0 36.465v6.191m0 36.48v6.184m0 36.465v6.207m0 36.464v6.199-6.206m0 42.671v6.199m0 36.465v6.192m0 36.472v6.199m0 36.465v6.206m0 36.458v6.206m0 36.458v6.191m0 36.48v6.192m0 36.472v6.155m39.697-774.113v6.2m0 36.464v6.207m0 36.457v6.192m0 36.48v6.191m0 36.472v6.192m0 36.457v6.207m0 36.465v6.199m0 36.465v6.191m0 36.48v6.184m0 36.465v6.207m0 36.464v6.199-6.206m0 42.686v6.199m0 36.465v6.192m0 36.472v6.184m0 36.465v6.206m0 36.458v6.206m0 36.458v6.191m0 36.48v6.192m0 36.472v6.155m39.717-774.164v6.199m0 36.464v6.207m0 36.457v6.192m0 36.48v6.243m0 36.472v6.192m0 36.457v6.207m0 36.465v6.199m0 36.465v6.191m0 36.48v6.184m0 36.465v6.207m0 36.464v6.199-6.206m0 42.671v6.199m0 36.465v6.192m0 36.472v6.199m0 36.465v6.206m0 36.458v6.206m0 36.458v6.191m0 36.48v6.192m0 36.472v6.155m39.718-774.164v6.199m0 36.464v6.207m0 36.457v6.192m0 36.48v6.243m0 36.472v6.192m0 36.457v6.207m0 36.465v6.199m0 36.465v6.191m0 36.48v6.184m0 36.465v6.207m0 36.464v6.199-6.206m0 42.671v6.199m0 36.465v6.192m0 36.472v6.199m0 36.465v6.206m0 36.458v6.206m0 36.458v6.191m0 36.48v6.192m0 36.472v6.155m39.724-774.164v6.199m0 36.464v6.207m0 36.457v6.192m0 36.48v6.243m0 36.472v6.192m0 36.457v6.207m0 36.465v6.199m0 36.465v6.191m0 36.48v6.184m0 36.465v6.207m0 36.464v6.199-6.206m0 42.671v6.199m0 36.465v6.192m0 36.472v6.199m0 36.465v6.206m0 36.458v6.206m0 36.458v6.191m0 36.48v6.192m0 36.472v6.155m39.717-774.164v6.199m0 36.464v6.207m0 36.457v6.192m0 36.48v6.243m0 36.472v6.192m0 36.457v6.207m0 36.465v6.199m0 36.465v6.191m0 36.48v6.184m0 36.465v6.207m0 36.464v6.199m0 36.465v6.199m0 36.465v6.192m0 36.472v6.199m0 36.465v6.206m0 36.458v6.206m0 36.458v6.191m0 36.48v6.192m0 36.472v6.155m39.717-774.164v6.199m0 36.464v6.207m0 36.457v6.192m0 36.48v6.243m0 36.472v6.192m0 36.457v6.207m0 36.465v6.199m0 36.465v6.191m0 36.48v6.184m0 36.465v6.207m0 36.464v6.199m0 36.465v6.199m0 36.465v6.192m0 36.472v6.199m0 36.465v6.206m0 36.458v6.206m0 36.458v6.191m0 36.48v6.192m0 36.472v6.155M17.75-83.576v6.2m0 36.464v6.207m0 36.457v6.192m0 36.48v6.191-6.2m0 42.672v6.192m0 36.457v6.207-6.199m0 42.664v6.199m0 36.465v6.191m0 36.48v6.184m0 36.465v6.207m0 36.464v6.199-6.206m0 42.686v6.199m0 36.465v6.192m0 36.472v6.184m0 36.465v6.206m0 36.458v6.206m0 36.458v6.191m0 36.48v6.192m0 36.472v6.155-6.185m39.717-767.98v6.2m0 36.464v6.207m0 36.457v6.192m0 36.48v6.243m0 36.472v6.192m0 36.457v6.207m0 36.465v6.199m0 36.465v6.191m0 36.48v6.184m0 36.465v6.207m0 36.464v6.199m0 36.465v6.199m0 36.465v6.192m0 36.472v6.199-6.251m0 42.716v6.206m0 36.458v6.206m0 36.458v6.191-6.184m0 42.664v6.192m0 36.472v6.155M97.185-83.627v6.199m0 36.464v6.207m0 36.457v6.192m0 36.48v6.243m0 36.472v6.192m0 36.457v6.207m0 36.465v6.199m0 36.465v6.191m0 36.48v6.184m0 36.465v6.207m0 36.464v6.199m0 36.465v6.199m0 36.465v6.192m0 36.472v6.199-6.251m0 42.716v6.206m0 36.458v6.206m0 36.458v6.191-6.184m0 42.664v6.192m0 36.472v6.155M-300.024-83.576v6.2m0 36.464v6.207m0 36.457v6.192m0 36.48v6.191m0 36.472v6.192m0 36.457v6.207m0 36.465v6.199m0 36.465v6.191m0 36.48v6.184m0 36.465v6.207m0 36.457v6.206m0 36.465v6.199m0 36.465v6.192m0 36.472v6.199m0 36.465v6.206m0 36.458v6.206m0 36.458v6.191m0 36.48v6.192m198.6 36.464v6.163m39.718-774.164v6.199m0 36.464v6.207m0 36.457v6.192m0 36.472v6.2m0 36.471v6.192m0 36.465v6.199m0 36.465v6.199m0 36.465v6.192m0 36.479v6.185m0 36.464v6.207m0 36.457v6.207m0 36.464v6.2m0 36.464v6.192m0 36.472v6.251m0 36.465v6.206m0 36.458v6.206m0 36.465v6.184m0 36.48v6.192m0 36.472v6.155m39.717-774.164v6.199m0 36.464v6.207m0 36.457v6.192m0 36.472v6.2m0 36.471v6.192m0 36.465v6.199m0 36.465v6.199m0 36.465v6.192m0 36.479v6.185m0 36.464v6.207m0 36.457v6.207m0 36.464v6.2m0 36.464v6.192m0 36.472v6.251m0 36.465v6.206m0 36.458v6.206m0 36.465v6.184m0 36.48v6.192m0 36.472v6.155m39.738-91.512v6.184m0 36.479v6.192M57.467 44.364v6.2m0 36.471v6.192m0 36.465v6.199m0 36.465v6.199m0 36.465v6.192m0 36.479v6.185m0 36.464v6.207m0 36.457v6.207m0 36.464v6.2m0 36.464v6.192M97.185 44.364v6.2m0 36.471v6.192m0 36.465v6.199m0 36.465v6.199m0 36.465v6.192m0 36.479v6.185m0 36.464v6.207m0 36.457v6.207m0 36.464v6.2m0 36.464v6.192m-394.323-515h-5.77m5.77 42.65h-5.77m5.77 42.67h-5.77m5.77 42.665h-5.77m5.77 42.663h-5.77m5.77 42.672h-5.77m5.77 42.649h-5.77m5.77 42.664h-5.77m5.77 42.671h-5.77m5.77 42.664h-5.77m5.77 42.656h-5.77m5.77 42.664h-5.77m5.77 42.679h-5.77m5.77 42.671h-5.77m5.77 42.664h-5.77m5.77 42.657h-5.77m5.77 42.664h-5.77m5.77 42.627h-5.77m5.77 42.664h-5.77m45.487-767.914h-5.777m5.763 42.65h-5.763m5.763 42.67h-5.763m5.777 42.665h-5.777m5.763 42.664h-5.763m5.763 42.671h-5.763m5.763 42.649h-5.763m5.763 42.664h-5.763m5.763 42.671h-5.763m5.763 42.664h-5.763m5.763 42.656h-5.763m5.763 42.664h-5.763m5.777 42.679h-5.777m5.763 42.671h-5.763m5.763 42.664h-5.763m5.763 42.657h-5.763m5.763 42.664h-5.763m5.777 42.627h-5.777m5.763 42.664h-5.763m45.495-767.914h-5.764m5.764 42.65h-5.764m5.764 42.67h-5.764m5.764 42.665h-5.764m5.764 42.664h-5.764m5.764 42.671h-5.764m5.764 42.649h-5.764m5.764 42.664h-5.764m5.764 42.671h-5.764m5.764 42.664h-5.764m5.764 42.656h-5.764m5.764 42.664h-5.764m5.764 42.679h-5.764m5.764 42.671h-5.764m5.764 42.664h-5.764m5.764 42.657h-5.764m5.764 42.664h-5.764m5.764 42.627h-5.764m5.764 42.664h-5.764m45.488-767.914h-5.77m5.77 42.65h-5.77m5.77 42.67h-5.77m5.77 42.665h-5.77m5.77 42.664h-5.77m5.77 42.671h-5.77m5.77 42.649h-5.77m5.77 42.664h-5.77m5.77 42.671h-5.77m5.77 42.664h-5.77m5.77 42.656h-5.77m5.77 42.664h-5.77m5.77 42.664h-5.77m5.77 42.672h-5.77m5.77 42.663h-5.77m5.77 42.657h-5.77m5.77 42.664h-5.77m5.77 42.664h-5.77m5.77 42.664h-5.77m45.487-767.936h-5.77m5.77 42.65h-5.77m5.77 42.67h-5.77m5.77 42.665h-5.77m5.77 42.664h-5.77m5.77 42.671h-5.77m5.77 42.649h-5.77m5.77 42.664h-5.77m5.77 42.671h-5.77m5.77 42.664h-5.77m5.77 42.656h-5.77m5.77 42.664h-5.77m5.77 42.664h-5.77m5.77 42.672h-5.77m5.77 42.663h-5.77m5.77 42.657h-5.77m5.77 42.664h-5.77m5.77 42.664h-5.77m5.77 42.664h-5.77m45.494-767.936h-5.77m5.77 42.65h-5.77m5.77 42.67h-5.77m5.77 42.665h-5.77m5.77 42.664h-5.77m5.77 42.671h-5.77m5.77 42.649h-5.77m5.77 42.664h-5.77m5.77 42.671h-5.77m5.77 42.664h-5.77m5.77 42.656h-5.77m5.77 42.664h-5.77m5.77 42.664h-5.77m5.77 42.672h-5.77m5.77 42.663h-5.77m5.77 42.657h-5.77m5.77 42.664h-5.77m5.77 42.664h-5.77m5.77 42.664h-5.77M-58.82-80.469h-5.77m5.77 42.65h-5.77m5.77 42.67h-5.77m5.77 42.665h-5.77m5.77 42.664h-5.77m5.77 42.671h-5.77m5.77 42.649h-5.77m5.77 42.664h-5.77m5.77 42.671h-5.77m5.77 42.664h-5.77m5.77 42.656h-5.77m5.77 42.664h-5.77m5.77 42.664h-5.77m5.77 42.672h-5.77m5.77 42.663h-5.77m5.77 42.657h-5.77m5.77 42.664h-5.77m5.77 42.664h-5.77m5.77 42.664h-5.77m45.487-767.936h-5.736m5.77 42.65h-5.77m5.77 42.67h-5.77m5.77 42.665h-5.77m5.77 42.664h-5.77m5.77 42.671h-5.77m5.77 42.649h-5.77m5.77 42.664h-5.77m5.77 42.671h-5.77m5.77 42.664h-5.77m5.77 42.656h-5.77m5.77 42.664h-5.77m5.77 42.664h-5.77m5.77 42.672h-5.77m5.77 42.663h-5.77m5.77 42.657h-5.77m5.77 42.664h-5.77m5.77 42.664h-5.77m5.77 42.664h-5.77m45.46-767.936h-5.77m5.77 42.65h-5.77m5.77 42.67h-5.77m5.77 42.665h-5.77m5.77 42.664h-5.77m5.77 42.671h-5.77m5.77 42.649h-5.77m5.77 42.664h-5.77m5.77 42.671h-5.77m5.77 42.664h-5.77m5.77 42.656h-5.77m5.77 42.664h-5.77m5.77 42.664h-5.77m5.77 42.672h-5.77m5.77 42.663h-5.77m5.77 42.657h-5.77m5.77 42.664h-5.77m5.77 42.664h-5.77m5.77 42.664h-5.77M60.338-80.469h-5.77m5.77 42.65h-5.77m5.77 42.67h-5.77m5.77 42.665h-5.77m5.77 42.664h-5.77m5.77 42.671h-5.77m5.77 42.649h-5.77m5.77 42.664h-5.77m5.77 42.671h-5.77m5.77 42.664h-5.77m5.77 42.656h-5.77m5.77 42.664h-5.77m5.77 42.679h-5.77m5.77 42.657h-5.77m5.77 42.663h-5.77m5.77 42.657h-5.77m5.77 42.664h-5.77m5.77 42.642h-5.77m5.77 42.664h-5.77m45.488-767.914h-5.77m5.77 42.65h-5.77m5.77 42.67h-5.77m5.77 42.665h-5.77m5.77 42.664h-5.77m5.77 42.671h-5.77m5.77 42.649h-5.77m5.77 42.664h-5.77m5.77 42.671h-5.77m5.77 42.664h-5.77m5.77 42.656h-5.77m5.77 42.664h-5.77m5.77 42.664h-5.77m5.77 42.672h-5.77m5.77 42.663h-5.77m5.77 42.657h-5.77m5.77 42.664h-5.77m5.77 42.664h-5.77m5.77 42.664h-5.77M136.73-83.627v6.199m0 36.464v6.207m0 36.457v6.192m0 36.48v6.243m0 36.472v6.192m0 36.457v6.207m0 36.465v6.199m0 36.465v6.191m0 36.48v6.184m0 36.465v6.207m0 36.464v6.199-6.206m0 42.671v6.199m0 36.465v6.192m0 36.472v6.199m0 36.465v6.206m0 36.458v6.206m0 36.458v6.191m0 36.48v6.192m0 36.472v6.155m39.697-774.113v6.2m0 36.464v6.207m0 36.457v6.192m0 36.48v6.191m0 36.472v6.192m0 36.457v6.207m0 36.465v6.199m0 36.465v6.191m0 36.48v6.184m0 36.465v6.207m0 36.464v6.199-6.206m0 42.686v6.199m0 36.465v6.192m0 36.472v6.184m0 36.465v6.206m0 36.458v6.206m0 36.458v6.191m0 36.48v6.192m0 36.472v6.155m39.717-774.164v6.199m0 36.464v6.207m0 36.457v6.192m0 36.48v6.243m0 36.472v6.192m0 36.457v6.207m0 36.465v6.199m0 36.465v6.191m0 36.48v6.184m0 36.465v6.207m0 36.464v6.199-6.206m0 42.671v6.199m0 36.465v6.192m0 36.472v6.199m0 36.465v6.206m0 36.458v6.206m0 36.458v6.191m0 36.48v6.192m0 36.472v6.155m39.718-774.164v6.199m0 36.464v6.207m0 36.457v6.192m0 36.48v6.243m0 36.472v6.192m0 36.457v6.207m0 36.465v6.199m0 36.465v6.191m0 36.48v6.184m0 36.465v6.207m0 36.464v6.199-6.206m0 42.671v6.199m0 36.465v6.192m0 36.472v6.199m0 36.465v6.206m0 36.458v6.206m0 36.458v6.191m0 36.48v6.192m0 36.472v6.155m39.724-774.164v6.199m0 36.464v6.207m0 36.457v6.192m0 36.48v6.243m0 36.472v6.192m0 36.457v6.207m0 36.465v6.199m0 36.465v6.191m0 36.48v6.184m0 36.465v6.207m0 36.464v6.199-6.206m0 42.671v6.199m0 36.465v6.192m0 36.472v6.199m0 36.465v6.206m0 36.458v6.206m0 36.458v6.191m0 36.48v6.192m0 36.472v6.155m39.717-774.164v6.199m0 36.464v6.207m0 36.457v6.192m0 36.48v6.243m0 36.472v6.192m0 36.457v6.207m0 36.465v6.199m0 36.465v6.191m0 36.48v6.184m0 36.465v6.207m0 36.464v6.199m0 36.465v6.199m0 36.465v6.192m0 36.472v6.199m0 36.465v6.206m0 36.458v6.206m0 36.458v6.191m0 36.48v6.192m0 36.472v6.155M375.02-83.627v6.199m0 36.464v6.207m0 36.457v6.192m0 36.48v6.243m0 36.472v6.192m0 36.457v6.207m0 36.465v6.199m0 36.465v6.191m0 36.48v6.184m0 36.465v6.207m0 36.464v6.199m0 36.465v6.199m0 36.465v6.192m0 36.472v6.199m0 36.465v6.206m0 36.458v6.206m0 36.458v6.191m0 36.48v6.192m0 36.472v6.155m39.766-774.113v6.2m0 36.464v6.207m0 36.457v6.192m0 36.48v6.191-6.2m0 42.672v6.192m0 36.457v6.207-6.199m0 42.664v6.199m0 36.465v6.191m0 36.48v6.184m0 36.465v6.207m0 36.464v6.199-6.206m0 42.686v6.199m0 36.465v6.192m0 36.472v6.184m0 36.465v6.206m0 36.458v6.206m0 36.458v6.191m0 36.48v6.192m0 36.472v6.155-6.185m39.717-767.98v6.2m0 36.464v6.207m0 36.457v6.192m0 36.48v6.243m0 36.472v6.192m0 36.457v6.207m0 36.465v6.199m0 36.465v6.191m0 36.48v6.184m0 36.465v6.207m0 36.464v6.199m0 36.465v6.199m0 36.465v6.192m0 36.472v6.199-6.251m0 42.716v6.206m0 36.458v6.206m0 36.458v6.191-6.184m0 42.664v6.192m0 36.472v6.155M494.22-83.627v6.199m0 36.464v6.207m0 36.457v6.192m0 36.48v6.243m0 36.472v6.192m0 36.457v6.207m0 36.465v6.199m0 36.465v6.191m0 36.48v6.184m0 36.465v6.207m0 36.464v6.199m0 36.465v6.199m0 36.465v6.192m0 36.472v6.199-6.251m0 42.716v6.206m0 36.458v6.206m0 36.458v6.191-6.184m0 42.664v6.192m0 36.472v6.155m-198.607-6.163v6.163M335.33-83.627v6.199m0 36.464v6.207m0 36.457v6.192m0 36.472v6.2m0 36.471v6.192m0 36.465v6.199m0 36.465v6.199m0 36.465v6.192m0 36.479v6.185m0 36.464v6.207m0 36.457v6.207m0 36.464v6.2m0 36.464v6.192m0 36.472v6.251m0 36.465v6.206m0 36.458v6.206m0 36.465v6.184m0 36.48v6.192m0 36.472v6.155m39.718-774.164v6.199m0 36.464v6.207m0 36.457v6.192m0 36.472v6.2m0 36.471v6.192m0 36.465v6.199m0 36.465v6.199m0 36.465v6.192m0 36.479v6.185m0 36.464v6.207m0 36.457v6.207m0 36.464v6.2m0 36.464v6.192m0 36.472v6.251m0 36.465v6.206m0 36.458v6.206m0 36.465v6.184m0 36.48v6.192m0 36.472v6.155m39.738-91.512v6.184m0 36.479v6.192m39.717-603.516v6.2m0 36.471v6.192m0 36.465v6.199m0 36.465v6.199m0 36.465v6.192m0 36.479v6.185m0 36.464v6.207m0 36.457v6.207m0 36.464v6.2m0 36.464v6.192M494.22 44.364v6.2m0 36.471v6.192m0 36.465v6.199m0 36.465v6.199m0 36.465v6.192m0 36.479v6.185m0 36.464v6.207m0 36.457v6.207m0 36.464v6.2m0 36.464v6.192m-354.605-515h-5.777m5.763 42.65h-5.763m5.763 42.67h-5.763m5.777 42.665h-5.777m5.763 42.664h-5.763m5.763 42.671h-5.763m5.763 42.649h-5.763m5.763 42.664h-5.763m5.763 42.671h-5.763m5.763 42.664h-5.763m5.763 42.656h-5.763m5.763 42.664h-5.763m5.777 42.679h-5.777m5.763 42.671h-5.763m5.763 42.664h-5.763m5.763 42.657h-5.763m5.763 42.664h-5.763m5.777 42.627h-5.777m5.763 42.664h-5.763m45.494-767.914h-5.763m5.763 42.65h-5.763m5.763 42.67h-5.763m5.763 42.665h-5.763m5.763 42.664h-5.763m5.763 42.671h-5.763m5.763 42.649h-5.763m5.763 42.664h-5.763m5.763 42.671h-5.763m5.763 42.664h-5.763m5.763 42.656h-5.763m5.763 42.664h-5.763m5.763 42.679h-5.763m5.763 42.671h-5.763m5.763 42.664h-5.763m5.763 42.657h-5.763m5.763 42.664h-5.763m5.763 42.627h-5.763m5.763 42.664h-5.763m45.488-767.914h-5.77m5.77 42.65h-5.77m5.77 42.67h-5.77m5.77 42.665h-5.77m5.77 42.664h-5.77m5.77 42.671h-5.77m5.77 42.649h-5.77m5.77 42.664h-5.77m5.77 42.671h-5.77m5.77 42.664h-5.77m5.77 42.656h-5.77m5.77 42.664h-5.77m5.77 42.664h-5.77m5.77 42.672h-5.77m5.77 42.663h-5.77m5.77 42.657h-5.77m5.77 42.664h-5.77m5.77 42.664h-5.77m5.77 42.664h-5.77m45.487-767.936h-5.77m5.77 42.65h-5.77m5.77 42.67h-5.77m5.77 42.665h-5.77m5.77 42.664h-5.77m5.77 42.671h-5.77m5.77 42.649h-5.77m5.77 42.664h-5.77m5.77 42.671h-5.77m5.77 42.664h-5.77m5.77 42.656h-5.77m5.77 42.664h-5.77m5.77 42.664h-5.77m5.77 42.672h-5.77m5.77 42.663h-5.77m5.77 42.657h-5.77m5.77 42.664h-5.77m5.77 42.664h-5.77m5.77 42.664h-5.77m45.494-767.936h-5.77m5.77 42.65h-5.77m5.77 42.67h-5.77m5.77 42.665h-5.77m5.77 42.664h-5.77m5.77 42.671h-5.77m5.77 42.649h-5.77m5.77 42.664h-5.77m5.77 42.671h-5.77m5.77 42.664h-5.77m5.77 42.656h-5.77m5.77 42.664h-5.77m5.77 42.664h-5.77m5.77 42.672h-5.77m5.77 42.663h-5.77m5.77 42.657h-5.77m5.77 42.664h-5.77m5.77 42.664h-5.77m5.77 42.664h-5.77m45.488-767.936h-5.771m5.771 42.65h-5.771m5.771 42.67h-5.771m5.771 42.665h-5.771m5.771 42.664h-5.771m5.771 42.671h-5.771m5.771 42.649h-5.771m5.771 42.664h-5.771m5.771 42.671h-5.771m5.771 42.664h-5.771m5.771 42.656h-5.771m5.771 42.664h-5.771m5.771 42.664h-5.771m5.771 42.672h-5.771m5.771 42.663h-5.771m5.771 42.657h-5.771m5.771 42.664h-5.771m5.771 42.664h-5.771m5.771 42.664h-5.771m45.488-767.936h-5.736m5.77 42.65h-5.77m5.77 42.67h-5.77m5.77 42.665h-5.77m5.77 42.664h-5.77m5.77 42.671h-5.77m5.77 42.649h-5.77m5.77 42.664h-5.77m5.77 42.671h-5.77m5.77 42.664h-5.77m5.77 42.656h-5.77m5.77 42.664h-5.77m5.77 42.664h-5.77m5.77 42.672h-5.77m5.77 42.663h-5.77m5.77 42.657h-5.77m5.77 42.664h-5.77m5.77 42.664h-5.77m5.77 42.664h-5.77m45.46-767.936h-5.77m5.77 42.65h-5.77m5.77 42.67h-5.77m5.77 42.665h-5.77m5.77 42.664h-5.77m5.77 42.671h-5.77m5.77 42.649h-5.77m5.77 42.664h-5.77m5.77 42.671h-5.77m5.77 42.664h-5.77m5.77 42.656h-5.77m5.77 42.664h-5.77m5.77 42.664h-5.77m5.77 42.672h-5.77m5.77 42.663h-5.77m5.77 42.657h-5.77m5.77 42.664h-5.77m5.77 42.664h-5.77m5.77 42.664h-5.77m45.487-767.936h-5.77m5.77 42.65h-5.77m5.77 42.67h-5.77m5.77 42.665h-5.77m5.77 42.664h-5.77m5.77 42.671h-5.77m5.77 42.649h-5.77m5.77 42.664h-5.77m5.77 42.671h-5.77m5.77 42.664h-5.77m5.77 42.656h-5.77m5.77 42.664h-5.77m5.77 42.679h-5.77m5.77 42.657h-5.77m5.77 42.663h-5.77m5.77 42.657h-5.77m5.77 42.664h-5.77m5.77 42.642h-5.77m5.77 42.664h-5.77m45.488-767.914h-5.77m5.77 42.65h-5.77m5.77 42.67h-5.77m5.77 42.665h-5.77m5.77 42.664h-5.77m5.77 42.671h-5.77m5.77 42.649h-5.77m5.77 42.664h-5.77m5.77 42.671h-5.77m5.77 42.664h-5.77m5.77 42.656h-5.77m5.77 42.664h-5.77m5.77 42.664h-5.77m5.77 42.672h-5.77m5.77 42.663h-5.77m5.77 42.657h-5.77m5.77 42.664h-5.77m5.77 42.664h-5.77m5.77 42.664h-5.77" stroke="#939598" stroke-width=".83"/></g><defs><clipPath id="a"><path fill="#fff" d="M0 0h105v291H0z"/></clipPath></defs></svg>