<svg width="290" height="298" fill="none" xmlns="http://www.w3.org/2000/svg"><path d="M173.349 243.041a82.392 82.392 0 0 0-15.705-12.983 69.213 69.213 0 0 0-9.104-4.869 72.922 72.922 0 0 0-9.718-3.483c-6.656-1.889-13.184-3.081-19.345-4.502a79.67 79.67 0 0 1-8.93-2.548c-3.007-1.091-6.033-2.284-9.086-3.503-6.097-2.448-12.304-5.034-18.832-7.207-6.527-2.172-12.835-4.015-19.253-5.84-12.955-3.667-25.955-6.857-38.855-10.148l-4.813-1.248a53.588 53.588 0 0 1-4.3-1.32 13.014 13.014 0 0 1-5.703-3.511 7.56 7.56 0 0 1-1.449-5.896c.043-.291.104-.578.184-.861l.128-.432.22-.54.422-1.11c.156-.366.376-.687.54-1.045.363-.677.77-1.33 1.22-1.952.23-.312.505-.578.743-.871.228-.309.49-.592.78-.844 3.245-3.209 8.067-5.235 13.247-6.308a69.452 69.452 0 0 1 16.182-1.275c5.653.184 11.283.797 16.842 1.834 2.843.532 5.703 1.165 8.564 1.926 1.43.376 2.86.798 4.254 1.256.715.22 1.402.467 2.09.715.688.247.917.385 2.87 1.082 2.829.98 5.88 1.132 8.792.44.715-.184 1.375-.505 2.072-.752.34-.129.688-.247 1.018-.403l.917-.541c.311-.193.632-.367.916-.587l.853-.697a10.733 10.733 0 0 0 1.531-1.568 15.098 15.098 0 0 0 3.282-8.159c.065-.761.065-1.532.101-2.302.022-.397.022-.795 0-1.192l-.11-1.1a26.299 26.299 0 0 0-.605-3.282 28.757 28.757 0 0 0-2.255-6.023l-.385-.734-.294-.531-.577-1.037-1.156-2.063-2.328-4.116-4.731-8.178c-6.363-10.864-12.936-21.564-19.547-32.199-5.446-8.765-11.002-17.42-16.439-26.14-5.436-8.718-10.846-17.418-16.282-26.082-2.384-3.878-4.42-7.417-5.501-10.855a21.283 21.283 0 0 1-.981-5.163 13.33 13.33 0 0 1 .458-4.584 8.793 8.793 0 0 1 4.997-5.94l.99-.358 1.064-.266c.385-.046.76-.101 1.145-.174a9.422 9.422 0 0 1 1.036 0c1.475.01 2.933.321 4.282.917a15.348 15.348 0 0 1 4.144 2.75 33.84 33.84 0 0 1 3.97 4.4c2.53 3.32 4.832 7.198 7.39 11.25l15.118 23.526 14.67 23.525c5.427 8.692 10.735 17.64 16.722 25.901 1.678 2.31 3.668 5.235 5.932 6.335 1.4.741 2.864 1.354 4.373 1.834 1.119.302 2.412.477 3.063-.385.834-1.119.192-3.401-.413-5.125a73.196 73.196 0 0 0-5.794-11.754c-5.969-10.36-11.873-20.775-18.071-31.007-3.071-5.088-6.262-10.085-9.425-15.127l-14.54-22.536c-2.33-3.53-4.585-7.481-7.418-11.46a59.428 59.428 0 0 0-4.694-5.914 39.362 39.362 0 0 0-2.851-2.806 28.078 28.078 0 0 0-3.42-2.613 25.442 25.442 0 0 0-7.986-3.447A22.922 22.922 0 0 0 35.083.64c-.761 0-1.522 0-2.292.056-.77.055-1.44.183-2.164.283a21.922 21.922 0 0 0-8.37 3.21 20.702 20.702 0 0 0-6.336 6.5 23.72 23.72 0 0 0-3.245 9.462 28.473 28.473 0 0 0-.165 4.83c.091 1.54.288 3.072.586 4.585a39.306 39.306 0 0 0 2.75 8.463 74.732 74.732 0 0 0 3.888 7.334l8.05 13.212a828.922 828.922 0 0 0 8.114 13.128c14.11 22.472 28.486 44.659 41.853 67.378l2.274 3.888 2.21 3.832a16.849 16.849 0 0 1 1.384 3.319c.162.566.29 1.142.385 1.723.048.23.082.463.1.698a5.23 5.23 0 0 1-.458 2.85 3.298 3.298 0 0 1-1.962 1.421 4.186 4.186 0 0 1-2.154 0l-.532-.156-.99-.339-2.137-.66a130.718 130.718 0 0 0-21.187-4.199 103.195 103.195 0 0 0-21.482-.504 63.212 63.212 0 0 0-10.947 2.035 40.16 40.16 0 0 0-10.341 4.474 25.504 25.504 0 0 0-8.178 7.931 23.692 23.692 0 0 0-2.485 5.134 28.456 28.456 0 0 0-.807 2.75c-.19.955-.297 1.925-.32 2.898a15.761 15.761 0 0 0 3.74 10.672c2.585 2.943 6.097 4.584 9.526 5.794 3.429 1.21 6.913 1.925 10.332 2.833l10.278 2.622c13.688 3.475 27.505 6.345 41.028 10.306 3.438 1.008 6.83 2.026 10.186 3.217 3.355 1.192 6.693 2.466 10.02 3.759 3.329 1.293 6.675 2.613 10.086 3.842 1.678.623 3.374 1.219 5.107 1.769a65.586 65.586 0 0 0 5.235 1.412c6.986 1.669 14.064 2.521 20.958 4.126a62.615 62.615 0 0 1 19.584 7.912 78.37 78.37 0 0 1 16.356 13.624 152.052 152.052 0 0 1 13.285 16.806 229.84 229.84 0 0 1 5.657 8.554l1.503 2.42c.38.764.825 1.494 1.33 2.182a1.497 1.497 0 0 0 1.219.266c.963-.119 1.192-1.504.486-2.751-6.354-11.277-13.331-22.709-22.692-32.5Z" fill="#F5B400"/><path d="M288.824 238.053a5.59 5.59 0 0 0-.376-.917l-.55-.917-1.1-1.898c-.358-.624-.816-1.247-1.22-1.834l-.843-1.246-1.467-2.192a82.952 82.952 0 0 1-5.134-8.746 32.912 32.912 0 0 1-3.063-8.94 6.775 6.775 0 0 1-.155-1.109l-.101-1.109c-.055-.734 0-1.458 0-2.191 0-.734.146-1.439.247-2.154l.248-1.064.11-.532c.046-.174.073-.34.146-.587a153.843 153.843 0 0 0 4.97-22.004c.49-3.481.744-6.991.761-10.507a44.325 44.325 0 0 0-1.467-10.9 65.849 65.849 0 0 0-4.108-11.525 92.047 92.047 0 0 0-5.675-10.452c-2.118-3.401-4.382-6.656-6.601-9.911-2.219-3.255-4.419-6.527-6.555-9.846-4.227-6.564-7.876-13.441-11.717-20.235-3.842-6.793-8.252-13.183-12.405-19.794-4.153-6.61-8.251-13.45-12.377-20.17a54.258 54.258 0 0 0-7.124-9.517 22.707 22.707 0 0 0-4.694-3.667 16.128 16.128 0 0 0-5.611-1.99c-3.908-.52-7.877.3-11.259 2.329a25.187 25.187 0 0 0-8.086 8.013c-1.027 1.531-1.971 3.108-2.906 4.713l-.294.504-5.372-8.114-1.926-2.861a33.37 33.37 0 0 0-2.301-2.75 54.371 54.371 0 0 0-5.73-6.345 24.362 24.362 0 0 0-3.667-2.585l-1-.532c-.357-.174-.706-.357-1.072-.495a16.16 16.16 0 0 0-2.146-.752 34.832 34.832 0 0 0-8.462-1.549 11.434 11.434 0 0 0-4.291.917c-1.32.495-2.576 1.081-3.851 1.668-.666.297-1.314.63-1.943 1-.605.375-1.183.752-1.761 1.164-1.173.81-2.25 1.75-3.208 2.805a13.962 13.962 0 0 0-3.439 7.555 26.92 26.92 0 0 0-.229 5.501c-1.659-1.889-3.016-3.988-4.886-5.96a26 26 0 0 0-6.812-5.088 33.879 33.879 0 0 0-7.537-3.236 11.68 11.68 0 0 0-4.107-.22 24.386 24.386 0 0 0-4.007.78 20.366 20.366 0 0 0-12.615 9.259 19.201 19.201 0 0 0-2.797 7.17c-.082.614-.155 1.228-.238 1.834l-.064.504c0 .128-.193.284-.064.45.246.198.522.358.816.475.806.386 1.687.533 1.77.322a36.804 36.804 0 0 1 2.475-5.657 12.578 12.578 0 0 1 3.924-4.355c.825-.54 1.714-.917 2.484-1.43a20.017 20.017 0 0 1 2.448-1.275 13.367 13.367 0 0 1 10.085 0 9.854 9.854 0 0 1 2.127 1.238c.69.606 1.306 1.293 1.834 2.045a48.519 48.519 0 0 1 2.833 4.006 77.644 77.644 0 0 1 3.273 5.63c2.228 4.253 4.767 8.315 7.335 12.385 1.98 3.145 4.144 6.18 6.372 9.169a686.476 686.476 0 0 0 6.096 8.077 482.338 482.338 0 0 0 6.272 8.004l3.172 3.942c1.173 1.458 2.154 3.063 3.915 4.136a2.39 2.39 0 0 0 2.393.329c.916-.266 1.787-.532 2.75-.917a11.366 11.366 0 0 0 2.521-1.302 3.472 3.472 0 0 0 1.495-1.897 3.11 3.11 0 0 0-.367-2.54 53.992 53.992 0 0 0-3.145-5.666c-.605-.916-1.311-1.714-2.008-2.549l-3.071-3.768-3.071-3.813-2.98-3.797c-2.31-2.924-4.263-6.078-6.354-9.168l-8.141-11.964-.303-.45c.055 0 .092-.073.083-.11a24.971 24.971 0 0 1 0-6.133c.129-1.071.35-2.13.66-3.163a7.342 7.342 0 0 1 1.274-2.393 21.5 21.5 0 0 1 1.834-1.742 13.48 13.48 0 0 1 2.118-1.66c.403-.266.834-.522 1.283-.77l.67-.357.44-.175a25.95 25.95 0 0 1 2.934-.916 20.398 20.398 0 0 1 3.025-.56 3.01 3.01 0 0 1 .486 0 .713.713 0 0 0 .174 0h.376c.486 0 .972.092 1.44.175a9.89 9.89 0 0 1 2.576.743 5.74 5.74 0 0 1 1.944 1.475c.116.129.235.248.357.358.122.11.26.247.413.412.284.275.55.578.834.871.55.596 1.1 1.257 1.65 1.963a32.826 32.826 0 0 1 3.273 5.18 133.82 133.82 0 0 0 1.742 3.282c.615 1.118 1.229 2.2 1.834 3.291a416.448 416.448 0 0 0 3.887 6.491c2.036 3.347 4.254 6.583 6.537 9.783 2.066 2.879 4.147 5.749 6.244 8.61a456.007 456.007 0 0 0 6.418 8.543l3.245 4.209c1.201 1.558 2.201 3.264 3.998 4.447a2.458 2.458 0 0 0 2.429.43c.917-.238 1.834-.485 2.806-.843.901-.3 1.758-.72 2.549-1.247a3.467 3.467 0 0 0 1.494-1.916 3.381 3.381 0 0 0-.394-2.65 60.094 60.094 0 0 0-3.227-6.004c-.624-.917-1.357-1.834-2.063-2.751l-3.145-4.034-3.145-4.07-3.053-4.054c-2.365-3.126-4.373-6.472-6.518-9.727l-1.257-1.916a68.98 68.98 0 0 1 5.703-7.574 25.478 25.478 0 0 1 3.301-3.107 16.2 16.2 0 0 1 3.621-2.154 14.218 14.218 0 0 1 3.943-1.055 11.227 11.227 0 0 1 3.85.257 12.971 12.971 0 0 1 6.629 4.446 59.12 59.12 0 0 1 5.4 8.16l5.455 9.389 10.956 18.932a1647.66 1647.66 0 0 1 10.874 19.162l5.354 9.709c1.724 3.19 4.162 7.949 6.537 12.23 3.557 6.418 6.94 11.983 9.709 17.42 2.769 5.437 5.034 11.001 5.758 17.016.724 6.014 0 12.56-1.293 19.207-.66 3.338-1.476 6.702-2.402 10.086a209.69 209.69 0 0 1-1.467 5.079c-.257.917-.495 1.567-.816 2.906l-.431 1.779a17.47 17.47 0 0 0-.284 1.834 31.507 31.507 0 0 0 .431 11.084 45.556 45.556 0 0 0 3.346 9.654 70.966 70.966 0 0 0 4.584 8.252 138.987 138.987 0 0 0 2.476 3.722l1.247 1.833.302.441c.074.101.074.091.074.091l.082.065c.11.101.349.229.349.43a1.412 1.412 0 0 1-.376.624c-1.412 1.201-2.971 2.383-4.584 3.585l-10.168 7.334a1719.318 1719.318 0 0 1-25.204 17.502 1263.98 1263.98 0 0 1-12.652 8.509c-4.694 3.108-9.617 6.005-13.972 9.626-1.22 1.018-2.751 2.174-3.09 3.952a20.095 20.095 0 0 0-.376 3.502 4.058 4.058 0 0 0 .825 2.75c.917.972 2.311.863 3.347.679a22.003 22.003 0 0 0 6.766-2.75c5.794-3.209 11.607-6.418 17.218-9.939 2.75-1.751 5.501-3.667 8.251-5.501l12.185-8.443 12.148-8.61a807.312 807.312 0 0 0 11.919-8.645l2.567-1.935 1.302-1.017 1.338-1.092c2.632-2.237 5.4-4.501 6.17-7.471a6.967 6.967 0 0 0-.146-3.961Z" fill="#F5B400"/></svg>