<svg width="418" height="20" fill="none" xmlns="http://www.w3.org/2000/svg"><path d="M416.582 4.873c-16.732 0-33.472.555-50.195-.42-4.275-.26-8.523-.581-12.806-.67l-12.896-.251-25.791-.483c-8.656-.188-17.322-.385-25.978-.67l-13.075-.484c-4.274-.179-10.57-.599-16.338-.787-17.268-.554-31.04-.196-48.291-.563-17.25-.367-34.492-.277-51.751-.152-13.414.09-26.766.456-40.144.894l-36.218 1.35c-12.12.483-24.232 1.02-36.335 1.61l-18.037.895c-6.654.321-13.414.366-20.014 1.52-1.842.322-4.132.581-5.491 2.226a23.252 23.252 0 0 0-2.415 3.345 4.748 4.748 0 0 0-.76 3.318c.367 1.502 1.86 2.209 3.023 2.629a26.829 26.829 0 0 0 8.487 1.118c7.762.125 15.524.34 23.25.16 3.855-.089 7.71-.321 11.564-.536l17.34-.894 17.43-.894 17.24-.76c13.316-.582 26.641-.68 39.966-.948l51.608-1.02 11.751-.26c4.007-.089 7.986-.428 11.983-.652 9.095-.51 18.208-.653 27.303-1.127 9.282-.492 18.556-1.19 27.847-1.475 9.292-.286 18.369.179 27.562.429 9.193.25 18.359-.33 27.543-.474 9.185-.143 18.592-.098 27.893-.179 9.3-.08 18.493-.223 27.722-.545 9.229-.322 18.485-.519 27.723-1.35l6.626-.564 1.843-.134a5.07 5.07 0 0 0 1.654-.108 1.79 1.79 0 0 0 .546-1.09 1.624 1.624 0 0 0-.726-1.78 1.62 1.62 0 0 0-.643-.224Z" fill="#F5B400"/></svg>