<svg width="360" height="464" viewBox="0 0 360 464" fill="none" xmlns="http://www.w3.org/2000/svg">
<path d="M131.478 436.668C129.747 436.974 128.03 437.411 126.294 437.734C124.54 438.001 122.76 438.055 120.993 437.895C120.101 437.701 119.197 437.57 118.286 437.502L115.569 437.433C113.778 437.319 111.999 437.171 110.221 437.015C108.444 436.858 106.633 436.463 104.861 436.116C104.006 435.93 103.092 435.643 102.214 435.385C101.336 435.128 100.112 434.634 98.9624 434.282C97.3807 433.781 95.7716 433.373 94.1421 433.061C92.5977 432.658 91.053 432.255 89.3732 431.673C87.6933 431.09 86.0615 430.414 84.3743 429.884L79.3944 428.092C78.1078 427.624 76.8478 427.1 75.5398 426.671L73.5619 426.05L71.6234 425.332C70.4557 424.892 69.2476 424.522 68.093 424.04L64.5997 422.605C63.3962 422.163 62.286 421.568 61.1143 421.054C59.9426 420.54 58.7555 420.049 57.6317 419.44L54.193 417.712C52.9306 417.051 51.8776 416.072 50.1888 415.925C49.7222 415.87 49.2124 415.719 48.0975 416.565C47.3822 417.098 46.6532 417.645 45.8769 418.315C45.1616 418.9 44.5084 419.558 43.9276 420.277C43.4061 420.867 43.0896 421.611 43.0251 422.396C43.0057 422.78 43.0783 423.164 43.2362 423.515C43.3942 423.866 43.6335 424.175 43.9342 424.416C45.7309 426.536 47.98 428.225 50.5167 429.359C51.7376 430.007 53.0117 430.545 54.2561 431.118C55.5004 431.691 56.7533 432.267 58.0243 432.785L61.7838 434.304C63.2079 434.915 64.6645 435.455 66.0668 436.078C67.4691 436.701 68.8686 437.359 70.3266 437.863C74.0289 439.272 77.8116 440.46 81.6548 441.42L84.2836 442.036C85.1952 442.206 86.1208 442.286 87.048 442.274C89.1708 442.347 91.1798 442.841 93.2731 442.804L99.644 442.669C101.711 442.688 103.679 443.397 105.723 443.665C107.774 443.873 109.842 443.836 111.884 443.554C112.922 443.506 113.958 443.493 114.994 443.48C116.029 443.468 117.057 443.362 118.084 443.291C119.11 443.221 120.136 443.095 121.153 442.968C122.17 442.84 123.18 442.563 124.181 442.312C125.183 442.06 126.154 441.844 127.165 441.532C128.162 441.196 129.128 440.776 130.053 440.275C130.505 440.024 130.948 439.78 131.401 439.557L131.77 439.371C131.866 439.328 132.051 439.405 132.109 439.222C132.129 438.913 132.116 438.603 132.071 438.297C131.965 437.442 131.687 436.643 131.478 436.668Z" fill="#F5B400"/>
<path d="M53.1031 59.5933C54.1054 60.8212 54.3976 62.3924 54.9054 63.8576C55.4132 65.3228 56.7154 66.3798 57.6054 67.6454C58.4954 68.911 59.2469 70.2975 60.0963 71.6051C60.9464 72.9316 61.9107 74.1816 62.9777 75.3407C64.0204 76.6345 65.2683 77.748 66.672 78.6373C67.0506 78.8566 67.446 79.0816 67.7751 79.3128L68.0622 79.5032C68.1453 79.5293 68.0799 79.7372 68.3133 79.6918C68.6769 79.5533 69.032 79.3933 69.3767 79.2129C70.3986 78.7212 71.3133 78.1045 71.2282 77.9682C69.7895 75.5715 67.7883 73.4547 67.3023 70.5537C67.2375 69.8106 67.0877 69.0771 66.8563 68.3681C66.5828 67.6978 66.307 67.0361 66.0227 66.3715C65.4539 65.0424 64.8823 63.7217 64.3547 62.3781C63.827 61.0345 63.3097 59.6577 62.9053 58.2706C62.6891 57.5635 62.4948 56.845 62.3222 56.1151C62.1554 55.3961 62.0552 54.2599 61.7769 53.3143C60.9587 50.4824 59.5435 48.6224 58.5808 45.873C57.5582 43.168 56.3156 40.5519 54.8652 38.0501C53.7489 36.0863 52.4772 34.2149 51.0618 32.4544C49.7992 30.8344 48.5008 29.2399 47.1835 27.6483C45.8663 26.0568 44.5244 24.4846 43.0865 22.9283L40.9801 20.6234C40.1966 19.7747 39.6829 18.764 38.1297 18.331C37.6975 18.1953 37.3167 18.0117 35.6134 18.609C34.5735 19.0129 33.4561 19.4017 32.2388 19.9051C31.1362 20.3544 30.0605 20.8673 29.0172 21.441C28.1436 21.8802 27.3606 22.4799 26.709 23.2088C25.9724 24.1006 26.078 24.6085 26.2291 25.0578C26.5641 26.3253 27.058 27.5452 27.6999 28.6883C28.097 29.2355 28.5511 29.739 29.0543 30.1907C29.7418 30.9088 30.4215 31.6521 31.1039 32.3868C31.7862 33.1216 32.4685 33.8565 33.143 34.6162L35.0998 36.8468C36.4937 38.6129 37.7613 40.4754 38.8922 42.4204C40.4718 44.834 42.0458 47.2638 43.6773 49.6572C44.0533 50.2044 44.4216 50.7495 44.8085 51.2911C45.2699 51.8266 45.783 52.3149 46.3409 52.7491C47.5284 53.8525 48.3335 55.128 49.5267 56.2423C50.7796 57.2928 51.9732 58.4114 53.1031 59.5933Z" fill="#F5B400"/>
<path d="M199.278 261.125C195.742 265.493 191.99 269.794 187.96 273.906C183.929 278.018 179.683 281.972 175.31 285.867C170.937 289.762 166.433 293.58 161.887 297.412C152.848 305.028 143.642 312.683 134.875 321.061C132.467 323.409 130.041 325.724 127.673 328.204C125.306 330.684 123.061 333.211 120.885 335.806C116.581 340.926 112.629 346.332 109.056 351.987C107.082 355.102 104.592 358.903 104.414 362.116C104.24 364.113 104.251 366.122 104.447 368.117C104.646 369.576 105.077 371.172 106.407 371.471C108.109 371.869 110.514 370.022 112.206 368.417C116.203 364.787 119.745 360.284 123.139 356.108C127.709 350.406 132.571 344.945 137.708 339.747C142.759 334.713 148.307 329.78 153.937 324.937C159.567 320.095 165.372 315.188 171.084 310.317C179.799 302.918 188.685 295.382 197.075 287.014C201.347 282.8 205.401 278.371 209.221 273.744C213.237 269.036 216.839 263.99 219.985 258.661C223.427 252.91 225.68 246.526 226.611 239.887C227.506 232.743 226.198 225.495 222.862 219.115C221.847 217.206 220.633 215.411 219.239 213.759C217.768 212.068 216.092 210.567 214.251 209.289C213.325 208.642 212.36 208.053 211.363 207.523C210.376 207.026 209.362 206.586 208.325 206.204C206.372 205.504 204.356 204.99 202.306 204.67C200.941 204.451 199.628 204.331 198.312 204.247C198.249 203.981 198.192 203.725 198.121 203.457C196.981 199.05 195 194.905 192.285 191.251C191.55 190.363 190.881 189.413 190.062 188.59C189.243 187.766 188.449 186.923 187.559 186.179C185.836 184.71 183.975 183.41 182.003 182.297C178.198 180.223 174.152 178.624 169.957 177.537C165.813 176.399 161.555 175.729 157.262 175.541C154.792 175.442 152.318 175.542 149.864 175.838C147.411 176.162 144.984 176.66 142.602 177.329C140.259 178.031 137.966 178.891 135.74 179.903C133.543 180.924 131.416 182.086 129.37 183.382C127.352 184.692 125.413 186.12 123.562 187.657C121.728 189.208 119.988 190.866 118.351 192.622L118.019 193.011C117.461 192.635 116.893 192.265 116.314 191.928C112.18 189.501 107.609 187.914 102.861 187.256C98.1246 186.589 93.2999 186.941 88.7112 188.291C86.4221 188.967 84.2236 189.916 82.1624 191.12C80.1253 192.319 78.2151 193.723 76.4629 195.31C73.007 198.544 70.0945 202.312 67.8361 206.471C65.585 210.555 63.7487 214.854 62.3544 219.304C60.9725 223.727 59.8632 228.23 59.0329 232.789C56.5819 246.417 56.8467 260.395 59.8122 273.921C60.8245 278.389 62.1139 282.788 63.6735 287.095C65.279 291.37 67.117 295.553 69.1795 299.626C73.218 307.788 77.6579 315.748 80.8222 324.339C82.4344 328.646 83.5753 333.116 84.2241 337.669C84.5441 339.97 84.7027 342.29 84.7 344.613C84.7149 346.946 84.5748 349.278 84.2797 351.593C83.7398 356.076 82.6035 360.467 80.9011 364.649C80.4478 365.831 79.8975 366.972 79.3555 368.117C78.7533 369.085 78.207 370.088 77.7191 371.118C77.6695 371.399 77.6801 371.687 77.751 371.963C77.8218 372.238 77.9514 372.496 78.1301 372.717C78.785 373.772 80.5774 373.093 81.6318 371.306C87.443 361.308 90.0388 349.764 89.0666 338.241C88.8598 335.969 88.5226 333.711 88.058 331.478C87.1262 327.14 85.8278 322.89 84.177 318.772C81.0022 310.68 77.0635 303.308 73.767 295.981C72.1263 292.404 70.6762 288.742 69.423 285.011C68.231 281.31 67.2816 277.534 66.5807 273.709C65.8467 269.817 65.3589 265.882 65.1209 261.929C64.8546 257.985 64.789 254.03 64.9248 250.079C65.0446 246.109 65.3952 242.149 65.9743 238.219C66.5798 234.301 67.4052 230.421 68.4465 226.596C70.5614 218.96 73.5311 211.683 77.8898 206.003C78.9371 204.611 80.1077 203.316 81.3874 202.134C82.5952 200.98 83.9231 199.959 85.3485 199.087C88.0929 197.398 91.1744 196.33 94.3756 195.959C100.699 195.319 107.046 196.908 112.321 200.453C111.537 201.641 110.784 202.847 110.081 204.069C107.731 208.206 105.756 212.546 104.183 217.036C103.384 219.259 102.712 221.514 102.068 223.768C101.424 226.062 100.906 228.39 100.518 230.741C99.802 235.492 99.8101 240.846 102.529 245.535C103.903 247.81 105.854 249.683 108.184 250.963C110.533 252.309 113.295 252.745 115.945 252.186C116.367 252.063 116.789 251.967 117.203 251.814C119.522 250.817 121.558 249.26 123.127 247.283C123.88 246.396 124.544 245.445 125.25 244.534C125.956 243.624 126.517 242.594 127.086 241.595C129.366 237.568 130.941 233.18 131.744 228.622C132.575 224.053 132.596 219.374 131.803 214.799C131.021 210.359 129.395 206.11 127.014 202.283C128.951 200.182 131.081 198.268 133.375 196.564C135.916 194.699 138.668 193.139 141.573 191.917C144.445 190.7 147.478 189.906 150.577 189.558C153.794 189.212 157.046 189.361 160.217 190.001C163.702 190.691 167.106 191.736 170.378 193.119C173.236 194.223 175.865 195.848 178.132 197.91C180.097 199.855 181.602 202.215 182.537 204.817C182.624 205.036 182.686 205.275 182.762 205.5C181.774 205.737 180.778 206 179.775 206.287C172.44 208.468 165.74 212.387 160.245 217.713C154.766 223.17 150.823 229.976 148.816 237.444C148.167 239.85 147.74 242.311 147.539 244.795C147.395 246.038 147.412 247.294 147.376 248.543C147.34 249.791 147.434 251.062 147.607 252.313C147.684 252.94 147.734 253.567 147.833 254.21L148.222 256.341C148.55 258.014 149.086 259.639 149.817 261.179C150.539 262.69 151.545 264.047 152.78 265.178C154.027 266.289 155.493 267.129 157.083 267.643C158.69 268.168 160.366 268.446 162.056 268.465C162.93 268.521 163.806 268.519 164.679 268.458C165.371 268.438 166.046 268.321 166.726 268.251C169.385 267.867 171.976 267.107 174.42 265.993C179.105 263.861 183.247 260.698 186.539 256.741C189.619 253.009 192.108 248.827 193.92 244.34C194.817 242.184 195.581 240.013 196.254 237.841C196.927 235.669 197.49 233.5 198.002 231.259C198.821 227.541 199.344 223.764 199.568 219.963C200.705 220.115 201.824 220.374 202.912 220.739C203.308 220.879 203.697 221.04 204.075 221.223C204.401 221.435 204.767 221.577 205.088 221.806C205.427 222.023 205.751 222.262 206.059 222.522L206.537 222.918L206.978 223.377C209.404 225.8 210.979 230.029 211.229 234.29C211.48 238.55 210.3 243.065 208.109 247.6C205.678 252.423 202.716 256.96 199.278 261.125ZM122.643 217.829C123.504 224.614 121.991 231.489 118.359 237.285C117.996 237.801 117.64 238.355 117.234 238.921C116.828 239.488 116.333 240.017 115.845 240.613C115.58 240.904 115.333 241.165 115.089 241.389C114.97 241.507 114.854 241.616 114.742 241.709C114.696 241.755 114.643 241.794 114.587 241.825C114.424 241.933 114.242 242.009 114.051 242.049C113.838 242.07 113.624 242.04 113.426 241.959C113.229 241.877 113.055 241.749 112.919 241.584C112.74 241.419 112.572 241.242 112.419 241.053C112.236 240.828 112.077 240.585 111.944 240.328C111.827 240.114 111.733 239.889 111.662 239.655C111.548 239.276 111.462 238.889 111.404 238.497C111.066 236.464 111.471 233.46 112.402 230.145L115.926 220.03C117.276 216.788 118.871 213.653 120.697 210.653C121.672 212.944 122.327 215.359 122.643 217.829ZM180.598 235.417C179.502 238.623 177.994 241.673 176.114 244.492C175.276 245.719 174.32 246.863 173.261 247.906C172.269 248.881 171.171 249.743 169.989 250.476C168.351 251.512 166.521 252.208 164.608 252.52L163.969 252.603L163.87 252.572C163.861 252.574 163.852 252.573 163.843 252.571C163.834 252.568 163.826 252.563 163.82 252.556C163.796 252.556 163.773 252.549 163.754 252.535L163.64 251.997C163.533 251.434 163.507 250.85 163.42 250.284C163.21 247.918 163.344 245.533 163.817 243.205C164.788 238.37 167.006 233.873 170.251 230.16C173.666 226.4 177.952 223.535 182.732 221.816C183.115 221.672 183.502 221.547 183.897 221.424C183.761 222.523 183.615 223.628 183.416 224.725C183.12 226.513 182.696 228.297 182.226 230.058C181.755 231.818 181.205 233.718 180.598 235.417Z" fill="#F5B400"/>
<path d="M358.619 122.702C358.215 121.662 357.827 120.545 357.323 119.327C356.877 118.223 356.364 117.148 355.788 116.106C355.348 115.232 354.748 114.449 354.019 113.797C353.119 113.058 352.619 113.166 352.17 113.317C350.903 113.652 349.683 114.146 348.54 114.788C347.993 115.185 347.489 115.639 347.037 116.143C346.319 116.83 345.576 117.51 344.841 118.192C344.107 118.875 343.372 119.557 342.612 120.231L340.382 122.188C338.616 123.582 336.753 124.849 334.808 125.98C332.395 127.56 329.964 129.134 327.571 130.766C327.024 131.142 326.479 131.51 325.937 131.896C325.402 132.358 324.914 132.872 324.479 133.429C323.376 134.617 322.1 135.421 320.986 136.615C319.928 137.875 318.801 139.075 317.61 140.211C316.383 141.213 314.812 141.506 313.388 142.026C311.964 142.547 310.866 143.836 309.6 144.726C308.334 145.616 306.948 146.368 305.64 147.217C304.313 148.067 303.064 149.032 301.905 150.099C300.612 151.144 299.496 152.39 298.599 153.79C298.388 154.171 298.164 154.567 297.933 154.896C297.899 155.004 297.806 155.094 297.742 155.183C297.677 155.272 297.509 155.201 297.554 155.434C297.693 155.798 297.852 156.153 298.033 156.498C298.524 157.52 299.141 158.435 299.277 158.35C301.674 156.911 303.79 154.909 306.691 154.423C307.434 154.358 308.168 154.209 308.877 153.977L310.874 153.144C312.203 152.575 313.524 152.003 314.867 151.476C316.211 150.948 317.588 150.431 318.975 150.026C319.654 149.801 320.373 149.607 321.13 149.443C321.849 149.276 322.985 149.177 323.931 148.898C326.755 148.077 328.614 146.662 331.372 145.702C334.077 144.679 336.694 143.436 339.195 141.986C341.158 140.867 343.029 139.595 344.791 138.182C346.411 136.92 348.006 135.622 349.597 134.305C351.189 132.987 352.76 131.646 354.317 130.208L356.614 128.098C357.471 127.317 358.481 126.804 358.906 125.248C359.016 124.78 359.229 124.363 358.619 122.702Z" fill="#F5B400"/>
<path d="M163.813 252.608L163.855 252.622C163.855 252.622 163.777 252.606 163.813 252.608Z" fill="#F5B400"/>
<path d="M60.9084 403.887L63.4725 405.405C65.1918 406.356 66.927 407.256 68.6615 408.13C70.396 409.003 72.1411 409.871 73.8568 410.775C74.7162 411.237 75.5726 411.679 76.4216 412.174C77.2706 412.669 78.4175 413.495 79.5517 414.07C82.9454 415.766 85.8685 416.227 89.1426 417.693C92.5555 419.145 96.0768 420.327 99.6741 421.229C102.602 421.988 105.592 422.48 108.608 422.701C111.421 422.938 114.246 423.021 117.068 422.948C119.992 422.902 122.906 422.595 125.775 422.029L127.935 421.548C128.659 421.365 129.388 421.137 130.092 420.929C130.903 420.732 131.698 420.476 132.471 420.16C133.315 419.841 134.057 419.302 134.622 418.599C134.962 418.158 135.437 417.75 135.208 415.979C135.061 414.847 134.89 413.707 134.6 412.419C134.351 411.257 134.017 410.115 133.601 409.001C133.285 408.073 132.835 407.196 132.264 406.399C131.573 405.488 131.169 405.462 130.784 405.496C130.231 405.514 129.649 405.478 129.101 405.506C128.516 405.486 127.93 405.528 127.354 405.633C126.74 405.793 126.134 405.984 125.54 406.205C124.561 406.512 123.566 406.767 122.561 406.968C121.505 407.13 120.452 407.374 119.343 407.446C118.234 407.518 117.145 407.668 116.029 407.674C113.392 407.66 110.765 407.362 108.192 406.784C104.782 406.215 101.303 405.46 97.8129 404.739L95.3966 404.235C94.5271 404.139 93.6512 404.108 92.7771 404.143C90.7785 404.082 88.9062 403.676 86.9403 403.598C84.93 403.64 82.9188 403.57 80.9165 403.386C78.98 403.098 77.3303 402.014 75.6343 401.134C73.9382 400.254 71.942 400.185 70.1135 399.61C68.285 399.036 66.5262 398.21 64.7552 397.453C63.8723 397.066 63.0032 396.665 62.0907 396.315C61.1781 395.964 60.3108 395.555 59.3764 395.216L56.6228 394.04C55.6539 393.62 54.6562 393.271 53.6372 392.993C53.1219 392.832 52.615 392.672 52.108 392.513L51.6843 392.38C51.5763 392.346 51.5366 392.124 51.302 392.26C50.9722 392.487 50.6648 392.745 50.3841 393.031C49.549 393.8 48.9452 394.707 49.077 394.839C52.1445 397.574 55.7546 399.219 58.5773 401.977C59.2974 402.68 60.0774 403.319 60.9084 403.887Z" fill="#F5B400"/>
<path d="M276.773 262.488L277.534 259.22C278.011 257.032 278.591 254.868 278.982 252.662C279.681 248.225 280.51 243.783 280.812 239.303L281.137 235.944C281.185 235.384 281.25 234.829 281.281 234.264L281.342 232.585L281.558 225.85C281.623 223.606 281.469 221.367 281.435 219.119C281.401 216.871 281.337 214.632 281.097 212.402L280.517 205.701C280.231 203.474 279.883 201.265 279.577 199.013L279.093 195.666L278.418 192.349C277.964 190.134 277.556 187.915 277.052 185.711C275.885 181.345 274.89 176.924 273.397 172.693C272.141 168.436 270.216 163.285 268.029 157.804L264.327 149.529L260.075 141.409C255.798 133.831 250.841 126.657 245.266 119.976C242.633 116.729 239.722 113.669 236.806 110.745C233.889 107.82 230.801 105.033 227.543 102.44C221.032 97.1014 213.962 92.4839 206.457 88.6683C204.56 87.6435 202.537 86.8165 200.551 85.9006C198.565 84.9847 196.502 84.2547 194.408 83.4234C190.152 81.8792 185.817 80.5608 181.422 79.4734C163.487 75.0009 144.999 74.6187 127.046 77.007C117.995 78.2163 109.072 80.246 100.388 83.0713C91.6504 85.9311 83.229 89.6776 75.2547 94.2528C62.8889 101.323 51.7062 110.286 42.1132 120.816C32.6276 131.264 24.6449 142.983 18.3956 155.635C15.5712 161.283 13.0922 167.097 10.9735 173.046C8.84132 178.962 7.03971 184.993 5.57551 191.109C4.13701 197.211 3.01244 203.383 2.20644 209.601C1.40507 215.823 0.96252 222.086 0.881003 228.359C0.779174 234.684 1.10857 241.008 1.86723 247.287C2.59697 253.605 3.80741 259.858 5.48883 265.992C7.19289 272.159 9.40968 278.172 12.1154 283.97L14.2709 288.299C15.023 289.713 15.8713 291.084 16.6644 292.484C17.4576 293.883 18.3653 295.21 19.2594 296.549C20.1535 297.889 21.0386 299.227 21.9469 300.434C29.1037 310.297 36.6837 319.16 41.2036 329.017C43.7394 334.437 45.2266 340.289 45.5858 346.262C45.7241 347.712 45.7827 349.355 45.8412 350.972L45.9839 355.81L46.1974 365.483C46.2796 369.088 46.1206 373.549 47.5592 376.411C48.3994 378.226 49.3768 379.973 50.4829 381.639C51.3605 382.828 52.4539 384.084 53.8108 383.689C55.5218 383.213 56.6972 380.313 57.4202 378.011C59.1062 372.642 59.7716 366.568 60.092 360.78C60.3256 356.799 60.4635 352.794 60.5052 348.765C60.5299 347.814 60.473 346.627 60.4397 345.512C60.4065 344.397 60.4032 343.273 60.2484 342.138L59.8758 338.761C59.7184 337.634 59.4916 336.522 59.2874 335.399C58.405 330.967 57.0517 326.642 55.2494 322.498C53.5059 318.549 51.4669 314.738 49.1507 311.096C44.6777 304.085 39.7713 298.106 35.408 292.171C33.6848 289.895 32.3649 287.845 30.9138 285.691L28.9624 282.339C28.2842 281.213 27.7652 280.046 27.1447 278.911C24.7803 274.246 22.8336 269.382 21.3278 264.374C18.2466 254.054 16.5971 243.361 16.4251 232.592C16.3449 227.193 16.5412 221.794 17.0132 216.415C17.5305 211.016 18.329 205.624 19.3431 200.272C24.2507 175.544 35.5571 151.958 52.3337 133.193C57.7116 127.114 63.671 121.576 70.1272 116.657C76.5597 111.704 83.4815 107.422 90.7854 103.878C98.1013 100.323 105.744 97.4852 113.608 95.4041C115.594 94.8955 117.559 94.4533 119.534 93.9779C121.509 93.5026 123.556 93.1503 125.584 92.8283C127.612 92.5063 129.63 92.154 131.673 91.9282L134.725 91.544L137.793 91.2568C145.238 90.5731 152.725 90.4819 160.185 90.984C167.769 91.4565 175.299 92.5748 182.693 94.3268C186.883 95.367 190.998 96.6896 195.009 98.2856C199.009 99.9242 202.902 101.812 206.666 103.937C210.424 106.123 214.06 108.511 217.558 111.092C221.034 113.717 224.403 116.51 227.626 119.477C230.849 122.443 234.034 125.735 237.027 129.085C240.019 132.436 242.799 136.002 245.452 139.648C248.107 143.329 250.565 147.149 252.816 151.091L254.539 154.033C255.143 155.017 255.58 156.041 256.113 157.048C257.119 159.08 258.184 161.095 259.146 163.15C262.818 171.375 265.734 179.915 267.859 188.668C269.83 197.433 271.121 206.338 271.722 215.301C272.236 224.243 272.127 233.209 271.395 242.135C271.214 244.37 270.83 246.578 270.569 248.806L270.126 252.136L268.786 258.728C268.593 259.834 268.343 260.929 268.038 262.009L266.207 268.483C265.923 269.59 265.526 270.652 265.112 271.709L263.933 274.909L262.746 278.106L261.323 281.212C260.351 283.262 259.479 285.371 258.42 287.376C257.361 289.381 256.247 291.387 255.066 293.317C250.341 301.107 244.629 308.254 238.071 314.579C234.804 317.726 231.367 320.691 227.775 323.462C224.178 326.195 220.441 328.82 216.554 331.197C212.666 333.573 208.703 335.844 204.658 337.907C200.614 339.969 196.47 342.028 192.529 344.342C184.559 348.809 177.16 354.228 170.496 360.479C167.225 363.612 164.248 367.039 161.603 370.716C159.034 374.443 156.679 378.313 154.548 382.306C152.482 386.122 150.527 389.992 148.625 393.896L147.046 397.153C146.486 398.085 146.015 399.069 145.64 400.09C145.618 400.362 145.657 400.637 145.753 400.893C145.849 401.149 146.001 401.38 146.197 401.571C146.982 402.502 148.612 401.763 149.454 400.155C153.249 392.928 157.172 385.842 161.535 379.132L163.186 376.637L164.831 374.305C165.978 372.775 167.153 371.272 168.434 369.838C170.996 366.938 173.767 364.229 176.723 361.731C182.809 356.676 189.423 352.294 196.451 348.661C198.215 347.726 200.009 346.838 201.86 345.976L207.47 343.346C211.349 341.551 215.135 339.553 218.918 337.509C226.701 333.28 234.005 328.227 240.708 322.437C247.484 316.467 253.516 309.7 258.67 302.283L260.588 299.489L262.403 296.617C263.637 294.722 264.652 292.712 265.772 290.744C266.892 288.777 267.726 286.701 268.708 284.681L270.156 281.639C270.598 280.609 270.977 279.55 271.394 278.512L273.814 272.232L275.826 265.824C276.102 264.624 276.439 263.551 276.773 262.488Z" fill="#F5B400"/>
<path d="M205.832 7.27076C205.816 8.27944 205.784 9.28282 205.743 10.2837C205.703 11.2845 205.666 12.3049 205.609 13.3005C205.552 14.2961 205.473 15.2754 205.408 16.2684C205.144 18.4981 204.724 20.7064 204.153 22.8778C203.555 25.7124 202.96 28.539 202.395 31.384C202.274 32.0308 202.153 32.6777 202.041 33.3271C201.993 34.036 202.011 34.7474 202.095 35.4529C202.156 37.0609 201.84 38.5599 201.874 40.1683C202.022 41.8087 202.075 43.4565 202.032 45.103C201.894 46.6759 200.969 47.9927 200.294 49.3876C199.618 50.7825 199.796 52.4545 199.519 53.9747C199.243 55.4949 198.804 57.0096 198.486 58.5443C198.152 60.0827 197.947 61.6467 197.876 63.2195C197.699 64.8687 197.793 66.5357 198.152 68.1548C198.265 68.5827 198.372 68.9996 198.459 69.4196C198.487 69.5319 198.509 69.6455 198.525 69.76C198.543 69.8479 198.379 69.9333 198.575 70.0676C198.933 70.2379 199.302 70.3844 199.679 70.5059C200.759 70.8452 201.83 71.0992 201.861 70.9444C202.543 68.2186 202.625 65.3131 204.335 62.9193C204.811 62.3452 205.224 61.7219 205.567 61.06L206.387 59.0622C206.928 57.7164 207.458 56.3764 208.041 55.0162C208.623 53.6559 209.223 52.356 209.928 51.0433C210.271 50.3843 210.64 49.7328 211.04 49.1004C211.439 48.468 212.151 47.6237 212.632 46.7336C214.053 44.1575 214.373 41.8017 215.633 39.2118C216.825 36.5751 217.795 33.8439 218.535 31.0467C219.136 28.8738 219.561 26.6563 219.806 24.4151C220.054 22.3746 220.268 20.3236 220.477 18.2342C220.686 16.1449 220.818 14.0955 220.916 11.9805C220.958 10.9438 221.004 9.89883 221.054 8.86474C221.105 7.83064 221.453 6.63411 220.654 5.22362C220.438 4.83616 220.296 4.3897 218.688 3.63808C217.657 3.1684 216.604 2.68259 215.383 2.18043C214.288 1.70957 213.163 1.30746 212.017 0.977048C211.09 0.672601 210.114 0.545956 209.14 0.603266C207.982 0.714419 207.7 1.14611 207.492 1.57404C206.832 2.70483 206.318 3.91482 205.96 5.17465C205.847 5.8673 205.804 6.56947 205.832 7.27076Z" fill="#F5B400"/>
<path d="M119.7 456.873C116.675 457.202 113.632 457.991 110.567 457.284C109.8 457.077 109.021 456.917 108.234 456.807L105.894 456.638C104.343 456.489 102.782 456.373 101.235 456.152C99.6739 455.958 98.1231 455.684 96.5894 455.332C95.8205 455.164 95.0482 454.976 94.2836 454.736C93.519 454.495 92.4452 454.049 91.4457 453.772C88.4411 452.901 85.9574 452.842 82.9876 451.919C80.0179 450.995 77.0337 450.351 74.0481 449.623C71.7373 449.043 69.3797 448.613 67.0054 448.178C64.8466 447.783 62.6828 447.405 60.6884 446.952C58.6985 446.523 56.733 445.988 54.8 445.35C53.8868 445.046 52.9943 444.683 52.1279 444.264C51.2008 443.638 50.1598 443.199 49.0637 442.973C48.6663 442.931 48.3001 442.788 47.0857 443.457L44.6293 444.822C43.8128 445.261 43.0395 445.777 42.3198 446.361C41.6774 446.831 41.2241 447.513 41.0399 448.287C40.9579 448.69 40.9757 449.106 41.0926 449.499C41.2096 449.893 41.4216 450.251 41.71 450.543C42.8918 452.098 44.3166 453.452 45.9294 454.553C46.72 455.03 47.5532 455.433 48.4188 455.755C49.6783 456.251 50.9207 456.686 52.1368 457.059C53.3528 457.432 54.5812 457.736 55.7625 458.015C56.9439 458.295 58.0912 458.537 59.2357 458.759C61.8309 459.218 64.3217 460.009 66.8804 460.584C70.1471 461.318 73.4345 461.958 76.7515 462.415L79.0134 462.715C79.8045 462.749 80.5965 462.723 81.3837 462.637C83.1736 462.578 84.9261 462.727 86.7014 462.627C88.4768 462.527 90.3554 462.158 92.1395 462.088C93.9034 462.179 95.6527 462.456 97.3585 462.915C99.086 463.229 100.866 462.82 102.617 462.74C104.368 462.66 106.144 462.706 107.91 462.576C109.668 462.488 111.417 462.265 113.142 461.909C114.916 461.619 116.641 461.085 118.269 460.323C118.662 460.118 119.064 459.915 119.46 459.729L119.791 459.578C119.873 459.549 120.032 459.653 120.095 459.454C120.133 459.153 120.14 458.849 120.115 458.547C120.064 457.691 119.862 456.851 119.7 456.873Z" fill="#F5B400"/>
</svg>
