<svg width="360" height="464" fill="none" xmlns="http://www.w3.org/2000/svg"><path d="M131.478 436.668c-1.731.306-3.448.743-5.184 1.066a22.027 22.027 0 0 1-5.301.161 19.597 19.597 0 0 0-2.707-.393l-2.717-.069c-1.791-.114-3.57-.262-5.348-.418-1.777-.157-3.588-.552-5.36-.899-.855-.186-1.769-.473-2.647-.731-.878-.257-2.102-.751-3.252-1.103a42.314 42.314 0 0 0-4.82-1.221c-1.544-.403-3.089-.806-4.769-1.388-1.68-.583-3.312-1.259-4.999-1.789l-4.98-1.792c-1.286-.468-2.546-.992-3.854-1.421l-1.978-.621-1.939-.718c-1.167-.44-2.375-.81-3.53-1.292l-3.493-1.435c-1.204-.442-2.314-1.037-3.486-1.551-1.171-.514-2.358-1.005-3.482-1.614l-3.439-1.728c-1.262-.661-2.315-1.64-4.004-1.787-.467-.055-.977-.206-2.092.64a38.115 38.115 0 0 0-2.22 1.75 13.465 13.465 0 0 0-1.95 1.962 3.652 3.652 0 0 0-.902 2.119 2.43 2.43 0 0 0 .91 2.02 18.553 18.553 0 0 0 6.582 4.943c1.22.648 2.495 1.186 3.74 1.759 1.244.573 2.496 1.149 3.767 1.667l3.76 1.519c1.424.611 2.88 1.151 4.283 1.774 1.402.623 2.802 1.281 4.26 1.785a99.95 99.95 0 0 0 11.328 3.557l2.629.616c.911.17 1.837.25 2.764.238 2.123.073 4.132.567 6.225.53l6.371-.135c2.067.019 4.035.728 6.079.996 2.051.208 4.119.171 6.161-.111a92.326 92.326 0 0 1 3.11-.074c1.035-.012 2.063-.118 3.09-.189 1.026-.07 2.052-.196 3.069-.323 1.017-.128 2.027-.405 3.028-.656 1.002-.252 1.973-.468 2.984-.78a18.403 18.403 0 0 0 2.888-1.257c.453-.251.895-.495 1.348-.718l.369-.186c.096-.043.281.034.339-.149.02-.309.007-.619-.038-.925-.106-.855-.384-1.655-.593-1.629ZM53.103 59.593c1.002 1.228 1.295 2.8 1.802 4.265.508 1.465 1.81 2.522 2.7 3.787.89 1.266 1.642 2.653 2.491 3.96a27.13 27.13 0 0 0 2.882 3.736 15.174 15.174 0 0 0 3.694 3.296c.379.22.774.445 1.103.676l.287.19c.083.026.018.234.251.189a9.872 9.872 0 0 0 1.064-.48c1.022-.49 1.936-1.108 1.851-1.244-1.438-2.397-3.44-4.513-3.926-7.414a9.785 9.785 0 0 0-.446-2.186c-.273-.67-.549-1.332-.833-1.996-.57-1.33-1.14-2.65-1.668-3.994-.528-1.343-1.045-2.72-1.45-4.107a34.605 34.605 0 0 1-.583-2.156c-.167-.719-.267-1.855-.545-2.8-.818-2.833-2.233-4.693-3.196-7.442a52.878 52.878 0 0 0-3.716-7.823 42.261 42.261 0 0 0-3.803-5.596 210.264 210.264 0 0 0-3.878-4.806 114.014 114.014 0 0 0-4.097-4.72l-2.107-2.305c-.783-.848-1.297-1.859-2.85-2.292-.433-.136-.813-.32-2.517.278-1.04.404-2.157.793-3.374 1.296-1.103.45-2.178.962-3.222 1.536a7.788 7.788 0 0 0-2.308 1.768c-.737.892-.631 1.4-.48 1.849a15.507 15.507 0 0 0 1.47 3.63 9.667 9.667 0 0 0 1.355 1.503c.688.718 1.368 1.461 2.05 2.196.682.735 1.364 1.47 2.039 2.23l1.957 2.23a47.687 47.687 0 0 1 3.792 5.573c1.58 2.414 3.154 4.844 4.785 7.237.376.547.745 1.093 1.132 1.634.46.536.974 1.024 1.532 1.458 1.187 1.103 1.992 2.379 3.186 3.493a44.518 44.518 0 0 1 3.576 3.351Zm146.175 201.532c-3.536 4.368-7.288 8.669-11.318 12.781-4.031 4.112-8.277 8.066-12.65 11.961-4.373 3.895-8.877 7.713-13.423 11.545-9.039 7.616-18.245 15.271-27.012 23.649-2.408 2.348-4.834 4.663-7.202 7.143a158.087 158.087 0 0 0-6.788 7.602 148.003 148.003 0 0 0-11.829 16.181c-1.974 3.115-4.464 6.916-4.642 10.129a32.513 32.513 0 0 0 .033 6.001c.199 1.459.63 3.055 1.96 3.354 1.702.398 4.107-1.449 5.799-3.054 3.997-3.63 7.539-8.133 10.933-12.309a211.024 211.024 0 0 1 14.569-16.361c5.051-5.034 10.599-9.967 16.229-14.81 5.63-4.842 11.435-9.749 17.147-14.62 8.715-7.399 17.601-14.935 25.991-23.303a176.3 176.3 0 0 0 12.146-13.27 107.277 107.277 0 0 0 10.764-15.083 50.106 50.106 0 0 0 6.626-18.774 35.348 35.348 0 0 0-3.749-20.772 30.523 30.523 0 0 0-3.623-5.356 27.072 27.072 0 0 0-4.988-4.47 27.936 27.936 0 0 0-2.888-1.766 29.182 29.182 0 0 0-3.038-1.319 32.865 32.865 0 0 0-6.019-1.534 41.672 41.672 0 0 0-3.994-.423c-.063-.266-.12-.522-.191-.79a35.278 35.278 0 0 0-5.836-12.206c-.735-.888-1.404-1.838-2.223-2.661-.819-.824-1.613-1.667-2.503-2.411a35.33 35.33 0 0 0-5.556-3.882 52.892 52.892 0 0 0-12.046-4.76 57.427 57.427 0 0 0-12.695-1.996 46.297 46.297 0 0 0-7.398.297c-2.453.324-4.88.822-7.262 1.491a54.097 54.097 0 0 0-6.862 2.574 56.031 56.031 0 0 0-6.37 3.479 61.57 61.57 0 0 0-5.808 4.275 60.792 60.792 0 0 0-5.211 4.965l-.332.389a30.79 30.79 0 0 0-1.705-1.083 36.454 36.454 0 0 0-13.453-4.672 33.556 33.556 0 0 0-14.15 1.035 29.605 29.605 0 0 0-6.549 2.829 34.742 34.742 0 0 0-5.7 4.19 44.12 44.12 0 0 0-8.626 11.161 69.845 69.845 0 0 0-5.482 12.833 113.274 113.274 0 0 0-3.321 13.485 105.151 105.151 0 0 0 .78 41.132 110.225 110.225 0 0 0 3.86 13.174 125.075 125.075 0 0 0 5.507 12.531c4.038 8.162 8.478 16.122 11.642 24.713a63.64 63.64 0 0 1 3.402 13.33 49.94 49.94 0 0 1 .476 6.944 52.547 52.547 0 0 1-.42 6.98 50.71 50.71 0 0 1-3.379 13.056c-.453 1.182-1.004 2.323-1.545 3.468a29.975 29.975 0 0 0-1.637 3.001 1.999 1.999 0 0 0 .411 1.599c.655 1.055 2.447.376 3.502-1.411a56.37 56.37 0 0 0 7.435-33.065 59.846 59.846 0 0 0-1.009-6.763 78.389 78.389 0 0 0-3.881-12.706c-3.175-8.092-7.114-15.464-10.41-22.791a111.364 111.364 0 0 1-4.344-10.97 89.473 89.473 0 0 1-2.842-11.302 94.076 94.076 0 0 1-1.46-11.78 116.468 116.468 0 0 1-.196-11.85c.12-3.97.47-7.93 1.05-11.86a105.71 105.71 0 0 1 2.472-11.623c2.114-7.636 5.084-14.913 9.443-20.593a29.007 29.007 0 0 1 3.497-3.869 23.438 23.438 0 0 1 3.962-3.047 22.072 22.072 0 0 1 9.027-3.128 27.25 27.25 0 0 1 17.945 4.494 69.527 69.527 0 0 0-2.24 3.616 79.42 79.42 0 0 0-5.898 12.967c-.799 2.223-1.471 4.478-2.115 6.732a64.9 64.9 0 0 0-1.55 6.973c-.716 4.751-.708 10.105 2.011 14.794a15.102 15.102 0 0 0 5.655 5.428 11.03 11.03 0 0 0 7.761 1.223c.422-.123.845-.219 1.258-.372a15.256 15.256 0 0 0 5.924-4.531c.753-.887 1.417-1.838 2.123-2.749.706-.91 1.267-1.94 1.836-2.939a40.645 40.645 0 0 0 4.658-12.973c.831-4.569.852-9.248.059-13.823a35.277 35.277 0 0 0-4.789-12.516 45.782 45.782 0 0 1 6.361-5.719 40.2 40.2 0 0 1 8.198-4.647 32.322 32.322 0 0 1 9.004-2.359 31.634 31.634 0 0 1 9.64.443 52.076 52.076 0 0 1 10.161 3.118 24.813 24.813 0 0 1 7.754 4.791 18.54 18.54 0 0 1 4.405 6.907c.087.219.149.458.225.683-.988.237-1.984.5-2.987.787a47.52 47.52 0 0 0-19.53 11.426 43.947 43.947 0 0 0-11.429 19.731 40.891 40.891 0 0 0-1.277 7.351c-.144 1.243-.127 2.499-.163 3.748-.036 1.248.058 2.519.231 3.77.077.627.127 1.254.226 1.897l.389 2.131a20.462 20.462 0 0 0 1.595 4.838 13.054 13.054 0 0 0 2.963 3.999 12.035 12.035 0 0 0 4.303 2.465c1.607.525 3.283.803 4.973.822.874.056 1.75.054 2.623-.007.692-.02 1.367-.137 2.047-.207a28.306 28.306 0 0 0 7.694-2.258 34.182 34.182 0 0 0 12.119-9.252 47.318 47.318 0 0 0 7.381-12.401 73.548 73.548 0 0 0 2.334-6.499 89.23 89.23 0 0 0 1.748-6.582 72.272 72.272 0 0 0 1.566-11.296c1.137.152 2.256.411 3.344.776.396.14.785.301 1.163.484.326.212.692.354 1.013.583.339.217.663.456.971.716l.478.396.441.459c2.426 2.423 4.001 6.652 4.251 10.913.251 4.26-.929 8.775-3.12 13.31a72.525 72.525 0 0 1-8.831 13.525Zm-76.635-43.296a29.62 29.62 0 0 1-4.284 19.456c-.363.516-.719 1.07-1.125 1.636-.406.567-.901 1.096-1.389 1.692a12.32 12.32 0 0 1-.756.776 5.444 5.444 0 0 1-.347.32.697.697 0 0 1-.155.116 1.543 1.543 0 0 1-.536.224 1.308 1.308 0 0 1-.625-.09 1.306 1.306 0 0 1-.507-.375 5.018 5.018 0 0 1-.5-.531 4.23 4.23 0 0 1-.475-.725 3.548 3.548 0 0 1-.282-.673 8.172 8.172 0 0 1-.258-1.158c-.338-2.033.067-5.037.998-8.352l3.524-10.115a69.197 69.197 0 0 1 4.771-9.377 27.113 27.113 0 0 1 1.946 7.176Zm57.955 17.588a39.228 39.228 0 0 1-4.484 9.075 22.999 22.999 0 0 1-2.853 3.414 18.812 18.812 0 0 1-3.272 2.57 14.406 14.406 0 0 1-5.381 2.044l-.639.083-.099-.031a.062.062 0 0 1-.027-.001.051.051 0 0 1-.023-.015.11.11 0 0 1-.066-.021l-.114-.538c-.107-.563-.133-1.147-.22-1.713a24.624 24.624 0 0 1 .397-7.079 28.287 28.287 0 0 1 6.434-13.045 31.06 31.06 0 0 1 12.481-8.344c.383-.144.77-.269 1.165-.392a59.238 59.238 0 0 1-.481 3.301c-.296 1.788-.72 3.572-1.19 5.333-.471 1.76-1.021 3.66-1.628 5.359Zm178.021-112.715c-.404-1.04-.792-2.157-1.296-3.375a29.491 29.491 0 0 0-1.535-3.221 7.807 7.807 0 0 0-1.769-2.309c-.9-.739-1.4-.631-1.849-.48a15.506 15.506 0 0 0-3.63 1.471 9.567 9.567 0 0 0-1.503 1.355c-.718.687-1.461 1.367-2.196 2.049-.734.683-1.469 1.365-2.229 2.039l-2.23 1.957a47.68 47.68 0 0 1-5.574 3.792c-2.413 1.58-4.844 3.154-7.237 4.786-.547.376-1.092.744-1.634 1.13-.535.462-1.023.976-1.458 1.533-1.103 1.188-2.379 1.992-3.493 3.186a44.632 44.632 0 0 1-3.376 3.596c-1.227 1.002-2.798 1.295-4.222 1.815-1.424.521-2.522 1.81-3.788 2.7-1.266.89-2.652 1.642-3.96 2.491a27.084 27.084 0 0 0-3.735 2.882 15.489 15.489 0 0 0-3.306 3.691c-.211.381-.435.777-.666 1.106-.034.108-.127.198-.191.287-.065.089-.233.018-.188.251.139.364.298.719.479 1.064.491 1.022 1.108 1.937 1.244 1.852 2.397-1.439 4.513-3.441 7.414-3.927a9.767 9.767 0 0 0 2.186-.446l1.997-.833c1.329-.569 2.65-1.141 3.993-1.668 1.344-.528 2.721-1.045 4.108-1.45a20.969 20.969 0 0 1 2.155-.583c.719-.167 1.855-.266 2.801-.545 2.824-.821 4.683-2.236 7.441-3.196a52.923 52.923 0 0 0 7.823-3.716 42.92 42.92 0 0 0 5.596-3.804c1.62-1.262 3.215-2.56 4.806-3.877a114.676 114.676 0 0 0 4.72-4.097l2.297-2.11c.857-.781 1.867-1.294 2.292-2.85.11-.468.323-.885-.287-2.546Z" fill="#F5B400"/><path d="m163.813 252.608.042.014s-.078-.016-.042-.014ZM60.908 403.887l2.564 1.518c1.72.951 3.455 1.851 5.19 2.725 1.734.873 3.48 1.741 5.195 2.645.86.462 1.716.904 2.565 1.399s1.996 1.321 3.13 1.896c3.393 1.696 6.316 2.157 9.59 3.623a71.026 71.026 0 0 0 10.532 3.536 50.229 50.229 0 0 0 8.934 1.472 77.05 77.05 0 0 0 8.46.247 48.964 48.964 0 0 0 8.707-.919l2.16-.481c.724-.183 1.453-.411 2.157-.619a16.704 16.704 0 0 0 2.379-.769 5.05 5.05 0 0 0 2.151-1.561c.34-.441.815-.849.586-2.62a37.876 37.876 0 0 0-.608-3.56 24.359 24.359 0 0 0-.999-3.418 9.989 9.989 0 0 0-1.337-2.602c-.691-.911-1.095-.937-1.48-.903-.553.018-1.135-.018-1.683.01a8.184 8.184 0 0 0-1.747.127c-.614.16-1.22.351-1.814.572-.979.307-1.974.562-2.979.763-1.056.162-2.109.406-3.218.478-1.109.072-2.198.222-3.314.228a36.64 36.64 0 0 1-7.837-.89c-3.41-.569-6.889-1.324-10.38-2.045l-2.415-.504a17.495 17.495 0 0 0-2.62-.092c-1.999-.061-3.87-.467-5.837-.545a53.595 53.595 0 0 1-6.023-.212c-1.937-.288-3.587-1.372-5.283-2.252-1.696-.88-3.692-.949-5.52-1.524-1.829-.574-3.588-1.4-5.359-2.157-.883-.387-1.752-.788-2.664-1.138-.913-.351-1.78-.76-2.715-1.099l-2.753-1.176a22.182 22.182 0 0 0-2.986-1.047l-1.529-.48-.424-.133c-.108-.034-.147-.256-.382-.12a6.25 6.25 0 0 0-.918.771c-.835.769-1.439 1.676-1.307 1.808 3.068 2.735 6.678 4.38 9.5 7.138.72.703 1.5 1.342 2.331 1.91Z" fill="#F5B400"/><path d="m276.773 262.488.761-3.268c.477-2.188 1.057-4.352 1.448-6.558.699-4.437 1.528-8.879 1.83-13.359l.325-3.359c.048-.56.113-1.115.144-1.68l.061-1.679.216-6.735c.065-2.244-.089-4.483-.123-6.731s-.098-4.487-.338-6.717l-.58-6.701c-.286-2.227-.634-4.436-.94-6.688l-.484-3.347-.675-3.317c-.454-2.215-.862-4.434-1.366-6.638-1.167-4.366-2.162-8.787-3.655-13.018-1.256-4.257-3.181-9.408-5.368-14.889l-3.702-8.275-4.252-8.12a143.678 143.678 0 0 0-14.809-21.433c-2.633-3.247-5.544-6.307-8.46-9.231a108.742 108.742 0 0 0-9.263-8.305 116.594 116.594 0 0 0-21.086-13.772c-1.897-1.025-3.92-1.852-5.906-2.767-1.986-.916-4.049-1.646-6.143-2.478a128.708 128.708 0 0 0-12.986-3.95c-17.935-4.472-36.423-4.854-54.376-2.466a150.654 150.654 0 0 0-26.658 6.064 134.695 134.695 0 0 0-25.133 11.182 136.453 136.453 0 0 0-33.142 26.563 151.833 151.833 0 0 0-23.717 34.819 155.786 155.786 0 0 0-7.423 17.411 170.034 170.034 0 0 0-5.397 18.063 183.261 183.261 0 0 0-3.37 18.492 163.473 163.473 0 0 0-1.325 18.758c-.102 6.325.228 12.649.986 18.928.73 6.318 1.94 12.571 3.622 18.705a114.84 114.84 0 0 0 6.626 17.978l2.156 4.329c.752 1.414 1.6 2.785 2.393 4.185.794 1.399 1.701 2.726 2.595 4.065.895 1.34 1.78 2.678 2.688 3.885 7.157 9.863 14.737 18.726 19.257 28.583a47.413 47.413 0 0 1 4.382 17.245c.138 1.45.197 3.093.255 4.71l.143 4.838.213 9.673c.083 3.605-.076 8.066 1.362 10.928a39.296 39.296 0 0 0 2.924 5.228c.878 1.189 1.97 2.445 3.328 2.05 1.71-.476 2.886-3.376 3.61-5.678 1.685-5.369 2.35-11.443 2.671-17.231.234-3.981.372-7.986.413-12.015.025-.951-.032-2.138-.065-3.253-.033-1.115-.037-2.239-.192-3.374l-.372-3.377c-.158-1.127-.384-2.239-.589-3.362a63.374 63.374 0 0 0-4.038-12.901 85.892 85.892 0 0 0-6.098-11.402c-4.473-7.011-9.38-12.99-13.743-18.925-1.723-2.276-3.043-4.326-4.494-6.48l-1.952-3.352c-.678-1.126-1.197-2.293-1.817-3.428a88.56 88.56 0 0 1-5.817-14.537 117.651 117.651 0 0 1-4.903-31.782 158.18 158.18 0 0 1 .588-16.177c.517-5.399 1.316-10.791 2.33-16.143 4.908-24.728 16.214-48.314 32.99-67.079a124.483 124.483 0 0 1 17.794-16.536 119.034 119.034 0 0 1 20.658-12.779 125.928 125.928 0 0 1 22.823-8.474c1.986-.508 3.951-.95 5.926-1.426 1.975-.475 4.022-.828 6.05-1.15 2.028-.322 4.046-.674 6.089-.9l3.052-.384 3.068-.287a141.178 141.178 0 0 1 22.392-.273c7.584.473 15.114 1.59 22.508 3.343a95.647 95.647 0 0 1 12.316 3.959c4 1.638 7.893 3.526 11.657 5.651a119.8 119.8 0 0 1 10.892 7.155 134.818 134.818 0 0 1 10.068 8.385c3.223 2.966 6.408 6.258 9.401 9.608 2.992 3.351 5.772 6.917 8.425 10.563a128.42 128.42 0 0 1 7.364 11.443l1.723 2.942c.604.984 1.041 2.008 1.574 3.015 1.006 2.032 2.071 4.047 3.033 6.102a148.574 148.574 0 0 1 8.713 25.518 174.662 174.662 0 0 1 3.863 26.633 192.88 192.88 0 0 1-.327 26.834c-.181 2.235-.565 4.443-.826 6.671l-.443 3.33-1.34 6.592a32.853 32.853 0 0 1-.748 3.281l-1.831 6.474c-.284 1.107-.681 2.169-1.095 3.226l-1.179 3.2-1.187 3.197-1.423 3.106c-.972 2.05-1.844 4.159-2.903 6.164a108.44 108.44 0 0 1-3.354 5.941 105.689 105.689 0 0 1-16.995 21.262 124.116 124.116 0 0 1-10.296 8.883c-3.597 2.733-7.334 5.358-11.221 7.735-3.888 2.376-7.851 4.647-11.896 6.71-4.044 2.062-8.188 4.121-12.129 6.435a112.863 112.863 0 0 0-22.033 16.137 74.062 74.062 0 0 0-8.893 10.237 119.85 119.85 0 0 0-7.055 11.59c-2.066 3.816-4.021 7.686-5.923 11.59l-1.579 3.257a17.254 17.254 0 0 0-1.406 2.937 1.863 1.863 0 0 0 .557 1.481c.785.931 2.415.192 3.257-1.416 3.795-7.227 7.718-14.313 12.081-21.023l1.651-2.495 1.645-2.332c1.147-1.53 2.322-3.033 3.603-4.467a79.714 79.714 0 0 1 8.289-8.107 109.76 109.76 0 0 1 19.728-13.07 116.817 116.817 0 0 1 5.409-2.685l5.61-2.63c3.879-1.795 7.665-3.793 11.448-5.837a123.626 123.626 0 0 0 21.79-15.072 112.174 112.174 0 0 0 17.962-20.154l1.918-2.794 1.815-2.872c1.234-1.895 2.249-3.905 3.369-5.873 1.12-1.967 1.954-4.043 2.936-6.063l1.448-3.042c.442-1.03.821-2.089 1.238-3.127l2.42-6.28 2.012-6.408c.276-1.2.613-2.273.947-3.336ZM205.832 7.27a120.093 120.093 0 0 1-.089 3.014c-.04 1-.077 2.02-.134 3.016-.057.996-.136 1.975-.201 2.968a48.337 48.337 0 0 1-1.255 6.61 730.606 730.606 0 0 0-1.758 8.506c-.121.647-.242 1.294-.354 1.943-.048.709-.03 1.42.054 2.126.061 1.608-.255 3.107-.221 4.715.148 1.64.201 3.288.158 4.935-.138 1.573-1.063 2.89-1.738 4.285-.676 1.395-.498 3.067-.775 4.587-.276 1.52-.715 3.035-1.033 4.57a27.986 27.986 0 0 0-.61 4.674 15.272 15.272 0 0 0 .276 4.936c.113.428.22.845.307 1.265.028.112.05.225.066.34.018.088-.146.173.05.308.358.17.727.316 1.104.438 1.08.34 2.151.593 2.182.438.682-2.725.764-5.63 2.474-8.025.476-.574.889-1.197 1.232-1.859l.82-1.998c.541-1.346 1.071-2.686 1.654-4.046a49.05 49.05 0 0 1 1.887-3.973 26.66 26.66 0 0 1 1.112-1.943c.399-.632 1.111-1.476 1.592-2.366 1.421-2.577 1.741-4.932 3.001-7.522a52.274 52.274 0 0 0 2.902-8.165 41.994 41.994 0 0 0 1.271-6.632 292.5 292.5 0 0 0 .671-6.18c.209-2.09.341-4.14.439-6.255.042-1.036.088-2.081.138-3.115.051-1.034.399-2.23-.4-3.641-.216-.388-.358-.834-1.966-1.586-1.031-.47-2.084-.955-3.305-1.458a28.534 28.534 0 0 0-3.366-1.203 7.76 7.76 0 0 0-2.877-.374c-1.158.111-1.44.543-1.648.971a15.602 15.602 0 0 0-1.532 3.6 10.433 10.433 0 0 0-.128 2.097ZM119.7 456.873c-3.025.329-6.068 1.118-9.133.411a19.103 19.103 0 0 0-2.333-.477l-2.34-.169c-1.551-.149-3.112-.265-4.659-.486a46.29 46.29 0 0 1-4.646-.82 26.722 26.722 0 0 1-2.305-.596c-.765-.241-1.839-.687-2.838-.964-3.005-.871-5.489-.93-8.458-1.853-2.97-.923-5.954-1.568-8.94-2.296-2.31-.58-4.668-1.01-7.043-1.445-2.158-.395-4.322-.773-6.317-1.226a57.348 57.348 0 0 1-5.888-1.602 22.36 22.36 0 0 1-2.672-1.086 8.568 8.568 0 0 0-3.064-1.291c-.398-.042-.764-.185-1.978.484l-2.457 1.365c-.816.439-1.59.955-2.31 1.539a3.348 3.348 0 0 0-1.28 1.926 2.5 2.5 0 0 0 .671 2.256 18.162 18.162 0 0 0 4.22 4.01c.79.477 1.623.879 2.489 1.202 1.26.496 2.502.931 3.718 1.304 1.216.373 2.444.677 3.626.956 1.18.28 2.328.522 3.473.744 2.595.459 5.086 1.25 7.644 1.825 3.267.734 6.555 1.374 9.871 1.831l2.262.3c.791.034 1.584.008 2.37-.078 1.79-.059 3.543.09 5.318-.01 1.776-.1 3.654-.469 5.439-.539 1.763.091 3.513.368 5.219.827 1.727.314 3.507-.095 5.258-.175 1.751-.08 3.527-.034 5.293-.164a34.392 34.392 0 0 0 5.232-.667 19.524 19.524 0 0 0 5.127-1.586c.393-.205.795-.408 1.191-.594l.331-.151c.082-.029.241.075.304-.124.038-.301.045-.605.02-.907-.051-.856-.253-1.696-.415-1.674Z" fill="#F5B400"/></svg>