<svg width="179" height="38" fill="none" xmlns="http://www.w3.org/2000/svg"><path d="M43.153 31.962h-4.376V6.037h4.376v25.925Zm5.561-13.632 8.384-12.293h-5.075l-8.54 12.3 9.69 13.625h5.487L48.714 18.33Zm117.251 2.384h8.658v7.308h-8.658v-7.308Zm-1.325 11.248H179v-22.9c0-.803-.322-1.573-.894-2.14a3.065 3.065 0 0 0-2.158-.887h-13.816v3.942h12.489v6.798h-9.981a3.068 3.068 0 0 0-2.159.885 3.021 3.021 0 0 0-.893 2.14v9.138c0 .802.322 1.57.894 2.138a3.066 3.066 0 0 0 2.156.886m-9.585-25.925c.809 0 1.585.319 2.157.886a3.01 3.01 0 0 1 .893 2.139v8.526c0 .802-.322 1.57-.894 2.138a3.065 3.065 0 0 1-2.156.886h-1.768l6.349 11.358h-4.795l-8.485-15.195h7.368V9.977h-8.825v21.985h-4.377V6.037h14.533ZM121.055 9.06c0-.802.322-1.571.894-2.138a3.065 3.065 0 0 1 2.156-.887h12.711v3.942H125.44v6.798h10.991v3.939H125.44v7.308h11.376v3.94h-12.711a3.064 3.064 0 0 1-2.157-.885 3.011 3.011 0 0 1-.893-2.139V9.06Zm-18.858 0c.001-.802.322-1.57.893-2.137a3.066 3.066 0 0 1 2.154-.888h12.534v3.942h-11.211v18.045h11.205v3.94h-12.534a3.065 3.065 0 0 1-2.151-.889 3.011 3.011 0 0 1-.89-2.135V9.06ZM84.672 28.022h9.333V9.977h-9.333v18.045ZM80.3 9.06c0-.803.321-1.572.893-2.139a3.064 3.064 0 0 1 2.157-.886h11.983c.81 0 1.586.319 2.158.887.572.567.894 1.337.894 2.14v19.882a3.003 3.003 0 0 1-.894 2.139 3.053 3.053 0 0 1-2.158.885H83.349a3.064 3.064 0 0 1-2.157-.886 3.011 3.011 0 0 1-.893-2.138V9.06Zm-20.882 8.975V6.037h4.375v11.088h8.325V6.037h4.373v22.901a3 3 0 0 1-.893 2.14 3.055 3.055 0 0 1-2.158.886H60.47v-3.94h11.648V21.06h-9.642a3.065 3.065 0 0 1-2.157-.886 3.012 3.012 0 0 1-.893-2.139" fill="#1D1D1B"/><path d="M30.931 0H19.17l-7.407 7.332H0v23.323h11.762l7.397 7.334h11.763V26.327l-7.386-7.328 7.395-7.337V0Zm-7.397 19.001v11.662H11.762L0 19 11.762 7.339v23.328l11.763-11.662L11.762 7.343h11.763v11.662l.01-.004Z" fill="#DC0C23"/></svg>