<svg width="151" height="152" fill="none" xmlns="http://www.w3.org/2000/svg"><ellipse opacity=".95" cx="75.5" cy="76.007" rx="75" ry="75.013" fill="#fff"/><path opacity=".99" d="M60.155 114.792c.51-.2.665-.312.937-.442l3.02-1.525 6.092-3.073c1.991-1 4.943-2.467 7.604-3.902a159.507 159.507 0 0 0 5.685-3.202 127.59 127.59 0 0 0 5.259-3.297 149.306 149.306 0 0 0 5.096-3.53 117.913 117.913 0 0 1 5.275-3.563c1.873-1.194 3.78-2.36 5.699-3.576 1.919-1.217 3.84-2.504 5.689-3.913a58.946 58.946 0 0 0 5.282-4.543l.629-.6.6-.619.6-.62c.2-.2.4-.4.617-.64.482-.508.912-1.064 1.284-1.658a5.81 5.81 0 0 0 .546-1.152c.163-.471.251-.965.261-1.463a4.18 4.18 0 0 0-.036-.613 4.222 4.222 0 0 0-.12-.6 4.703 4.703 0 0 0-.439-1.057 7.287 7.287 0 0 0-1.092-1.435 10.663 10.663 0 0 0-.509-.51l-.514-.49c-.338-.335-.692-.627-1.042-.93a53.15 53.15 0 0 0-4.316-3.284l-.551-.384-.554-.37-1.111-.739c-.748-.472-1.488-.962-2.243-1.42l-1.128-.695-1.135-.68c-.754-.457-1.517-.893-2.277-1.337a311.797 311.797 0 0 0-8.308-4.603l-2.103-1.117-2.103-1.073-4.202-2.14-16.907-8.551-4.202-2.116-2.1-1.056-.526-.265-.261-.132-.123-.062-.054-.03c-.016 0 .044.024.028.016l-.022-.014-.04-.026-.082-.05-.166-.102a2.805 2.805 0 0 0-.35-.17c-.12-.052-.236-.11-.358-.152l-.376-.112a2.56 2.56 0 0 0-.423-.092c-.144-.018-.286-.05-.43-.056l-.432-.012a5.223 5.223 0 0 0-1.27.192 5.064 5.064 0 0 0-1.53.768c-.113.086-.22.184-.328.276-.052.049-.108.095-.158.145l-.144.16a4.44 4.44 0 0 0-.894 1.453l-.136.4c-.04.136-.06.274-.088.412a6.752 6.752 0 0 0-.098.713c-.048.438-.092.874-.128 1.31a46.126 46.126 0 0 0-.158 2.62c-.032.973-.073 2.192.268 2.933.184.455.431.883.734 1.27.222.268.518.43.762.288a.6.6 0 0 0 .2-.2c.064-.101.116-.21.154-.324.09-.277.162-.56.217-.846.272-1.31.448-2.812.63-4.24l.2-1.474.108-.739.056-.368a2.21 2.21 0 0 1 .054-.304c.015-.056.027-.113.036-.17a.983.983 0 0 0 .062-.155l.012-.038.022-.036.04-.07.036-.072.05-.062c.125-.18.289-.33.48-.436a1.556 1.556 0 0 1 1.553-.024l.07.048.036.022.063.034.02.014.08.05c.054.034.104.07.16.1l.098.05.168.088 1.345.703c1.784.922 3.581 1.815 5.378 2.715l8.078 4.06 8.118 4.086 4.002 2.028 2.001 1.014 1 .507.99.516a235.402 235.402 0 0 1 9.072 5.015c2.981 1.736 5.919 3.547 8.748 5.472l1.355.949 1.325.978 1.286 1.011c.413.348.825.699 1.229 1.053l.578.548c.2.18.4.368.563.553.293.28.536.609.716.972.051.123.08.255.084.389.006.145-.013.291-.058.43-.135.39-.338.753-.6 1.073-.321.406-.667.793-1.035 1.158l-1.151 1.187c-.786.769-1.57 1.543-2.401 2.272a58.685 58.685 0 0 1-5.138 4.13c-1.633 1.177-3.326 2.286-5.039 3.39a176.76 176.76 0 0 0-5.203 3.51c-.49.34-.98.68-1.464 1.03s-.975.688-1.453 1.047l-2.867 2.113a154.246 154.246 0 0 1-5.803 4.039c-4.002 2.668-8.158 5.144-12.389 7.493-4.202 2.318-8.484 4.427-12.76 6.595-.22.106-.456.174-.698.2a2.007 2.007 0 0 1-.715-.082 1.876 1.876 0 0 1-.632-.351 1.807 1.807 0 0 1-.652-1.252l-.01-.091v-.334l-.016-.448-.065-1.801c-.09-2.392-.19-4.784-.264-7.173-.152-4.846-.264-9.69-.39-14.536s-.26-9.637-.418-14.454c-.158-4.817-.282-9.627-.536-14.432l-.174-3.448-.042-.959a5.989 5.989 0 0 0-.038-.862.442.442 0 0 0-.248-.277c-.235-.12-.459.256-.453.74.112 8.723.383 17.447.34 26.17-.012 2.228-.036 4.446 0 6.677l.098 6.72.225 13.446.054 3.384.014.845v.895c.024.469.134.931.326 1.361.199.429.474.819.812 1.15.339.324.733.585 1.163.771.436.183.902.284 1.374.298.487.022.973-.047 1.433-.204Z" fill="#282828" stroke="#000" stroke-width="3"/></svg>