<svg width="228" height="124" fill="none" xmlns="http://www.w3.org/2000/svg"><path d="M227.092 53.126a46.7 46.7 0 0 0-.613-6.222c-.14-1.03-.395-2.04-.598-3.056l-.387-1.509-.196-.738-.225-.738-.458-1.476-.516-1.45-.262-.739c-.093-.24-.192-.472-.288-.712l-.583-1.417a57.83 57.83 0 0 0-2.746-5.47c-.989-1.779-2.107-3.472-3.263-5.14a53.844 53.844 0 0 0-3.742-4.776 69.989 69.989 0 0 0-20.741-16.608C190.301 1.95 187.566.614 185.647.47c-.609-.048-1.214-.103-1.801-.122a13.386 13.386 0 0 0-1.661.048c-.793.078-1.598.262-1.476.845.085.37.528.823 1.107 1.266.288.225.609.443.938.657.328.214.653.44.963.635 2.889 1.82 6.089 3.646 9.012 5.572 8.056 5.293 15.105 12.087 20.298 20.014a61.158 61.158 0 0 1 3.476 6.104 49.374 49.374 0 0 1 2.584 6.474c.125.417.262.83.369 1.247l.328 1.262.166.631.137.635.269 1.273c.318 1.708.528 3.433.628 5.167a38.229 38.229 0 0 1-.775 10.334c-1.447 6.827-4.779 13.263-9.378 18.759-4.532 5.458-10.16 10.078-16.271 13.975-7.108 4.51-14.91 8.005-22.93 10.873-4.022 1.413-8.119 2.653-12.238 3.786-2.074.528-4.137 1.108-6.229 1.561-2.093.454-4.174.96-6.274 1.384a207.981 207.981 0 0 1-16.382 2.661c-5.496.687-11.02 1.144-16.556 1.429a223.114 223.114 0 0 1-33.215-.794 182.97 182.97 0 0 1-14.984-2.096c-1.27-.222-2.528-.48-3.79-.712a93.11 93.11 0 0 1-3.772-.787c-2.513-.535-5-1.151-7.48-1.845a109.206 109.206 0 0 1-16.456-5.93 72.784 72.784 0 0 1-14.873-8.98 46.993 46.993 0 0 1-6.374-6.096 36.275 36.275 0 0 1-4.882-7.3 30.117 30.117 0 0 1-2.768-8.345l-.188-1.088-.122-1.107c-.1-.738-.122-1.477-.159-2.215l-.026-.553v-2.805c0-.37.034-.738.048-1.107.106-2.96.458-5.907 1.052-8.81a52.068 52.068 0 0 1 2.465-8.488 51.066 51.066 0 0 1 9.19-15.006 65.492 65.492 0 0 1 13.385-11.47 78.2 78.2 0 0 1 7.699-4.428c1.314-.683 2.668-1.292 4.015-1.912a63.389 63.389 0 0 1 4.115-1.698 108.348 108.348 0 0 1 8.547-2.912c2.894-.845 5.802-1.623 8.747-2.273a67.857 67.857 0 0 1 2.214-.483l2.215-.454c1.476-.273 2.952-.565 4.45-.797 2.975-.51 5.964-.92 8.961-1.277a226.71 226.71 0 0 1 17.958-1.4c6.001-.25 12.013-.287 18.021-.158 6.008.13 12.016.44 18.006.893 5.99.454 11.969 1.026 17.94 1.702 1.428.162 2.86.32 4.285.509 1.424.188 2.852.37 4.277.565.793.11 1.587.221 2.377.343.705.145 1.417.253 2.133.325a1.06 1.06 0 0 0 .764-.325c.369-.37-.465-.949-1.668-1.159a352.714 352.714 0 0 0-32.573-4.111c-10.917-.864-21.87-1.277-32.846-1.13-5.606.078-11.193.296-16.803.846-5.61.55-11.245 1.332-16.821 2.424-2.79.535-5.562 1.17-8.326 1.845a105.838 105.838 0 0 0-8.22 2.377c-2.712.9-5.413 1.846-8.06 2.971-2.645 1.126-5.27 2.3-7.816 3.657a73.516 73.516 0 0 0-14.467 9.869 60.155 60.155 0 0 0-6.17 6.359A53.148 53.148 0 0 0 8.81 38.84a55.358 55.358 0 0 0-6.458 16.693A64.625 64.625 0 0 0 .969 65.837c-.048.96-.067 1.937-.1 2.926v.764l.019.783c0 .52 0 1.044.066 1.568l.133 1.576.221 1.565c.067.524.181 1.037.288 1.55.107.513.196 1.03.347 1.528a35.843 35.843 0 0 0 3.355 8.418 41.26 41.26 0 0 0 4.941 7.049 56.721 56.721 0 0 0 12.356 10.51 89.86 89.86 0 0 0 14.105 7.315 132.043 132.043 0 0 0 7.625 2.882c2.613.882 5.296 1.713 8.068 2.488 11.071 3.063 22.43 4.838 33.801 5.742 11.373.88 22.795.907 34.171.081 17.652-1.277 35.156-4.602 51.966-10.403 3.787-1.329 7.54-2.775 11.212-4.429a117.044 117.044 0 0 0 10.81-5.48c7.012-4.06 13.633-8.983 19.191-15.08l.527-.568.502-.59 1.008-1.185c.664-.794 1.281-1.635 1.919-2.45.638-.817 1.21-1.691 1.771-2.584.561-.893 1.133-1.75 1.624-2.672l.768-1.366.697-1.406c.488-.922.871-1.9 1.296-2.856a45.797 45.797 0 0 0 1.978-5.964 44.6 44.6 0 0 0 1.458-12.423Z" fill="#DC0C23"/></svg>