<svg width="405" height="396" fill="none" xmlns="http://www.w3.org/2000/svg"><path d="M22.076 134.365a1.567 1.567 0 0 0 2.3-.88c5.35-17.19 12.95-34 24.08-48.27l4.35-5.37c1.5-1.74 3-3.47 4.47-5.25l4.6-5.19 4.79-5a174.993 174.993 0 0 1 21-18.05 165.055 165.055 0 0 1 23.759-14.44l6.33-3 6.45-2.69c2.15-.77 4.791-1.76 7.661-2.69 2.87-.93 5.929-1.89 8.889-2.68a212.636 212.636 0 0 1 25-5.63 154.374 154.374 0 0 1 25.521-2 188.698 188.698 0 0 1 54 8 185.71 185.71 0 0 1 19.939 7.3c1.62.73 3.281 1.36 4.861 2.16l4.809 2.29c3.14 1.65 6.321 3.23 9.381 5 2.81 1.54 5.499 3.29 8.239 5 1.35.86 2.66 1.79 4 2.68l2 1.36 2 1.42 3.891 2.86 3.779 3c1.27 1 2.49 2 3.71 3.1 1.22 1.1 2.471 2.07 3.641 3.18 4.81 4.34 9.349 9 13.729 13.79a194.791 194.791 0 0 1 12.2 15.24 173.534 173.534 0 0 1 10.46 16.4c3.53 6.29 6.541 12.94 9.941 19.34 1 1.77 2 4.06 3.92 5a23.917 23.917 0 0 0 3.8 1.621 3.918 3.918 0 0 0 3.23-.081c1.22-.79 1.31-2.62 1.26-4a22.128 22.128 0 0 0-.74-4.88c-.44-1.6-1-3.19-1.54-4.73a158.224 158.224 0 0 0-11.291-24.53c-2.23-3.89-4.779-7.59-7.349-11.24-2-2.7-3.94-5.43-6.07-8-2.13-2.57-4.25-5.17-6.43-7.7a194.77 194.77 0 0 0-14.09-14.36c-2.39-2.28-5-4.39-7.45-6.55-1.25-1.07-2.581-2.07-3.861-3.1-1.28-1.03-2.569-2.07-3.919-3a222.13 222.13 0 0 0-19-12.78 178.964 178.964 0 0 0-20.281-10.55 185.695 185.695 0 0 0-56.71-15c-2.23-.19-4.45-.42-6.67-.56l-6.679-.3c-2.28 0-4.551 0-6.821.09-2.27.09-4.53.31-6.79.43-10.28.64-20.49 2.122-30.529 4.43a203.226 203.226 0 0 0-29.66 9.92 248.843 248.843 0 0 0-27.931 13.08c-9 5.06-17.08 11.51-24.81 18.23a189.56 189.56 0 0 0-21.83 22.16 159.353 159.353 0 0 0-17.349 25.52 141.299 141.299 0 0 0-12 28.21c-.67 2.34-1.37 4.67-1.93 7l-.5 2a7.059 7.059 0 0 0-.46 1.76c-.07.37.27.66.7.93Z" fill="#F5B400"/><path d="M403.766 159.556c-.11-1.11-.231-2.24-.351-3.36-.12-1.12-.25-1.85-.37-2.72-.24-1.66-.46-3.32-.59-5-.09-3.294.071-6.59.481-9.86.26-3.28-.25-6.57-.34-9.86-.09-3.29-.001-6.66-.061-10s-.129-6.63-.379-9.95a72.227 72.227 0 0 0-1.121-10c-.166-.8-.326-1.6-.479-2.4l-.11-.66c0-.16.1-.45-.09-.6a3.097 3.097 0 0 0-1-.23c-1-.13-1.931.08-1.931.42-.12 6 .331 12-.659 18a44.475 44.475 0 0 0-.681 4.58l-.29 4.62-.55 9.26c-.2 3.11-.42 6.22-.71 9.33-.14 1.56-.299 3.13-.479 4.69-.18 1.56-.59 3.8-.78 5.87 0 .66-.101 1.32-.151 2l-.059 1v.45c-.035.07-.062.144-.08.22 0 .13-.001.3-.111.32l-.2-.18a1.41 1.41 0 0 1-.199-.28.273.273 0 0 1 0-.07h-.12l-8.8-2.76c-4.56-1.41-9.18-2.61-13.83-3.76l-12.591-3.06c-4.22-1-8.449-2-12.689-3l-6.311-1.44c-2.34-.54-4.62-1.34-7.18-1.17a2.81 2.81 0 0 0-2.53 1.27c-.62.82-1.249 1.64-1.859 2.63a10.702 10.702 0 0 0-1.29 2.81 3.581 3.581 0 0 0 .189 2.69 4.42 4.42 0 0 0 2.511 2.06 76.63 76.63 0 0 0 7.809 3.06c1.33.41 2.701.67 4.071 1l12.29 2.73 6.069 1.38c4.69 1.07 9.251 2.54 13.861 3.83l8.95 2.48 9.75 2.64 6.16 1.68c2.07.56 4 .8 5.76 1.15.65.12 1.33.28 2 .38-.43-4.41-.57-8.36-.93-12.19Zm-20.801 102.359a1.584 1.584 0 0 0-1.364-.12 1.596 1.596 0 0 0-.946.99c-5.35 17.19-13 34-24.08 48.28l-4.349 5.36c-1.5 1.75-3.001 3.48-4.471 5.26l-4.6 5.19-4.79 5a173.232 173.232 0 0 1-21 18 164.18 164.18 0 0 1-23.759 14.45l-6.331 3-6.45 2.68c-2.15.77-4.78 1.77-7.65 2.7-2.87.93-5.93 1.89-8.9 2.68a212.414 212.414 0 0 1-25 5.62 152.1 152.1 0 0 1-25.509 2 188.336 188.336 0 0 1-54-8 183.726 183.726 0 0 1-19.941-7.31c-1.62-.72-3.28-1.36-4.86-2.15l-4.8-2.29c-3.14-1.65-6.33-3.24-9.38-5-2.82-1.55-5.51-3.3-8.24-5-1.36-.86-2.67-1.79-4-2.69l-2-1.35-1.949-1.42-3.881-2.87-3.78-3c-1.28-1-2.49-2-3.71-3.1-1.22-1.1-2.47-2.08-3.65-3.18-4.81-4.35-9.35-9-13.72-13.79-4.37-4.79-8.43-9.92-12.21-15.24a172.57 172.57 0 0 1-10.46-16.41c-3.53-6.28-6.54-12.94-9.94-19.33-1-1.77-2-4.06-3.92-5a24.469 24.469 0 0 0-3.8-1.61 3.924 3.924 0 0 0-3.22.07c-1.22.8-1.32 2.63-1.27 4 .064 1.653.312 3.293.74 4.89.44 1.6 1 3.18 1.54 4.72a157.41 157.41 0 0 0 11.3 24.54c2.22 3.89 4.77 7.59 7.34 11.24 2 2.7 4 5.42 6.07 8 2.07 2.58 4.25 5.17 6.43 7.7a194.613 194.613 0 0 0 14.09 14.35c2.39 2.29 5 4.4 7.45 6.56 1.25 1.07 2.58 2.06 3.86 3.1 1.28 1.04 2.58 2.06 3.92 3a219.526 219.526 0 0 0 19 12.77 177.225 177.225 0 0 0 20.281 10.55 185.51 185.51 0 0 0 56.71 15c2.23.18 4.45.42 6.67.55l6.689.31c2.27 0 4.551 0 6.811-.1s4.529-.3 6.799-.42a189.65 189.65 0 0 0 30.52-4.43 204.424 204.424 0 0 0 29.66-9.92 253.325 253.325 0 0 0 27.941-13.08c9-5.06 17.079-11.51 24.809-18.23a190.457 190.457 0 0 0 21.83-22.17 159.557 159.557 0 0 0 17.351-25.51 142.348 142.348 0 0 0 12-28.21c.67-2.35 1.369-4.68 1.929-7.05l.5-2a6.818 6.818 0 0 0 .46-1.76c-.01-.26-.37-.58-.77-.82Z" fill="#F5B400"/><path d="M47.985 250.786c4.22 1.02 8.45 2.02 12.69 3l6.32 1.44c2.33.54 4.61 1.34 7.17 1.16a2.78 2.78 0 0 0 1.437-.286 2.781 2.781 0 0 0 1.093-.974c.62-.82 1.25-1.65 1.86-2.63a10.306 10.306 0 0 0 1.3-2.82 3.56 3.56 0 0 0-.2-2.69 4.443 4.443 0 0 0-2.51-2 79.198 79.198 0 0 0-7.81-3.07c-1.33-.4-2.7-.67-4.07-1l-6.13-1.35-6.16-1.37-6.07-1.39c-4.69-1.06-9.25-2.53-13.86-3.82l-8.94-2.48-9.76-2.64-6.15-1.68c-2.07-.56-4-.81-5.76-1.15-.66-.12-1.34-.28-2-.38.3 4.32.44 8.27.8 12.09.12 1.12.23 2.24.35 3.37.12 1.13.25 1.84.37 2.72.24 1.66.46 3.32.59 5 .09 3.294-.07 6.59-.48 9.86-.26 3.28.25 6.57.34 9.86.09 3.29 0 6.66.06 10s.13 6.63.38 10a72.358 72.358 0 0 0 1.12 10c.17.8.34 1.59.48 2.39l.11.67c0 .16-.1.45.1.6.318.134.656.212 1 .23 1 .13 1.93-.08 1.94-.42.12-6-.34-12 .66-18 .25-1.53.57-3 .67-4.58l.29-4.63.55-9.26c.2-3.1.42-6.21.71-9.32.14-1.57.31-3.13.49-4.7.18-1.57.58-3.79.77-5.86 0-.67.1-1.32.15-2l.06-1v-.45a.633.633 0 0 0 .08-.23c0-.13 0-.29.11-.31.072.054.139.114.2.18.08.083.148.177.2.28v.06h.12l8.8 2.76c4.56 1.41 9.18 2.61 13.83 3.75l12.7 3.07Z" fill="#F5B400"/></svg>