<svg width="100" height="101" fill="none" xmlns="http://www.w3.org/2000/svg"><circle cx="50" cy="50.486" r="50" fill="#00AEEF"/><path d="m73.16 66.625.342-.52c.047-.056.09-.116.13-.178l.34-.537a.915.915 0 0 1 .082-.13l.423-.715.39-.699V63.7c.114-.195.211-.407.309-.602v-.13c.26-.503.487-1.024.698-1.527.114-.244.212-.504.31-.764v-.081a26.963 26.963 0 0 0 1.008-3.283c.194-.862.373-1.74.503-2.617H86v-8.094h-8.11a33.84 33.84 0 0 0-.504-2.617c-.211-.845-.455-1.625-.731-2.519-.082-.26-.18-.504-.277-.764-.097-.26-.195-.52-.308-.764a18.448 18.448 0 0 0-.7-1.528v-.13a7 7 0 0 0-.308-.6v-.147l-.39-.7c-.147-.243-.276-.487-.423-.714l-.081-.13-.341-.537-.13-.195-.342-.503-.114-.163-.47-.65 5.59-5.591-5.85-5.802-5.608 5.574-.65-.47-.147-.13c-.178-.115-.34-.245-.52-.342l-.178-.13-.537-.342h-.13l-.715-.422-.699-.39h-.146l-.601-.309h-.13a31.505 31.505 0 0 0-1.528-.683l-.764-.292h-.081l-.764-.276a21.407 21.407 0 0 0-2.52-.732 28.569 28.569 0 0 0-2.616-.504v-8.58h-8.094v8.305c-.894.13-1.755.292-2.617.504a23.4 23.4 0 0 0-2.519.731l-.764.276-.78.293a25.64 25.64 0 0 0-1.528.683h-.13l-.601.308h-.146l-.7.39-.714.423h-.13l-.537.341-.195.114-.633.634-.163.098c-.211.162-.423.325-.65.47l-5.591-5.541-5.656 5.656 5.575 5.59c-.147.228-.31.44-.472.65l-.097.163c-.114.163-.244.342-.341.504l-.13.195-.342.537a.577.577 0 0 0 0 .13c-.146.227-.292.47-.423.715l-.422.698v.147l-.309.601v.13a25.637 25.637 0 0 0-.682 1.528l-.504.731c0 .26-.18.504-.277.764-.276.83-.536 1.626-.731 2.52a27.577 27.577 0 0 0-.504 2.616H14v8.029h8.305c.13.878.293 1.755.504 2.617.192.854.436 1.695.731 2.519.098.244.195.504.277.764v.081l.292.764c.211.52.44 1.04.683 1.544v.13c.114.195.211.406.309.601v.147l.39.698c.13.244.276.472.422.716v.13l.342.536a.716.716 0 0 0 .13.179c.097.178.227.341.341.52l.098.146.47.65-5.265 5.835 5.656 5.672 5.59-5.672.651.471.163.114.503.341.195.13.537.342.13.08.715.423.699.39h.146l.601.31h.13c.504.26 1.008.487 1.528.698l.764.31.764.275c.829.277 1.625.52 2.52.732.86.195 1.722.374 2.616.504v8.305h8.029V78.41c.877-.13 1.755-.31 2.616-.504a30.193 30.193 0 0 0 2.52-.732l.764-.276h.08l.765-.309c.52-.211 1.04-.438 1.544-.699h.13l.601-.308h.146l.7-.39.714-.423.13-.081.537-.342.178-.13.52-.34.147-.115c.227-.146.439-.309.65-.471l5.802 5.396 5.656-5.656-5.656-5.607c.163-.212.325-.423.471-.65l.18-.147Zm-8.89-1.836a19.813 19.813 0 0 1-10.71 5.575h-.488l-.992.13c-.65 0-1.316.097-1.983.097-.666 0-1.332 0-1.999-.097l-.975-.13h-.487a19.796 19.796 0 0 1-10.727-5.575 20.235 20.235 0 0 1-4.356-6.501l-.146-.39c0-.114-.081-.244-.13-.374l-.098-.244v-.211c-.081-.277-.178-.537-.244-.813a.394.394 0 0 1 0-.13 13.349 13.349 0 0 1-.227-.861v-.082c0-.292-.13-.585-.179-.877v-.082c.008-.13.008-.26 0-.39v-.308c0-.472-.114-.96-.146-1.447v-.504a1.785 1.785 0 0 1 0-.292.796.796 0 0 0 0-.195v-.976a.796.796 0 0 0 0-.195 1.873 1.873 0 0 1 0-.308v-.488c0-.471.081-.959.146-1.43v-.488c0-.292.114-.601.179-.894 0-.308.146-.634.244-.942.13-.455.276-.894.438-1.35v-.097c0-.114.082-.227.13-.357v-.114l.13-.341a.587.587 0 0 0 0-.147l.13-.292v-.147l.147-.292c.13-.293.276-.585.422-.878a20.171 20.171 0 0 1 3.511-4.746l.358-.325.113-.114.228-.21.195-.31.211-.195.163-.13.195-.178.179-.13.195-.163.178-.13.195-.162.18-.13.21-.147.18-.13.194-.146.195-.114.39-.26.195-.114.212-.13.585-.341h.13l.26-.13.146-.081.26-.13h.146l.277-.114.146-.081.276-.114h.147l.276-.114h.146l.293-.114h.114l.325-.113h.097l.341-.13a19.486 19.486 0 0 1 2.552-.65h6.761c.864.16 1.716.378 2.552.65l.341.13h.098l.309.113h.13l.292.114h.13l.293.114h.146l.276.114.147.08.26.115h.162l.26.13.147.081.26.13h.13l.585.341h.08l.212.13a.667.667 0 0 1 .179.114l.211.13.195.13.18.114.21.146.18.13.21.147.163.13.211.162.18.13.194.163.163.13.21.178.163.13.212.196.146.13.227.21.114.114.342.326c.67.672 1.295 1.389 1.869 2.145.162.227.325.439.471.666.522.752.989 1.539 1.398 2.357.338.67.636 1.36.894 2.064.162.423.308.862.438 1.3.13.44.114.407.163.618.13.504.244 1.04.325 1.625.081.585.098.618.146.91.05.293 0 .374 0 .553.065.66.098 1.327.098 2 .002.83-.052 1.662-.163 2.486 0 .325-.048.65-.146.975 0 .487-.179.959-.292 1.43a11.42 11.42 0 0 1-.26.943c-.098.309-.196.617-.31.926a20.025 20.025 0 0 1-3.965 7.363Z" fill="#fff"/><path d="M54.16 46.602h-8.028v8.029h8.029V46.6Z" fill="#fff"/></svg>