<svg width="100" height="101" fill="none" xmlns="http://www.w3.org/2000/svg"><circle cx="50" cy="50.486" r="50" fill="#00AEEF"/><path d="M63.266 34.224H50.613v6.326h12.653v-6.326Zm-19.28 0H37.66v6.326h6.326v-6.326Zm19.28 12.652H50.613v6.326h12.653v-6.326Zm-19.28.302H37.66v6.326h6.326v-6.326ZM49.71 77l13.556-13.555-4.52-4.519-9.036 9.037-4.519-4.518-4.519 4.217 9.038 9.339Z" fill="#fff"/><path d="M69.592 79.11H31.334V27.898h38.258V79.11Zm-6.326-57.538v-6.627H37.66v6.627H25.008v51.212L37.66 85.436h38.258V21.572H63.266Z" fill="#fff"/></svg>