<svg width="100" height="101" fill="none" xmlns="http://www.w3.org/2000/svg"><circle cx="50" cy="50.486" r="50" fill="#00AEEF"/><path d="M40.58 31.867c0-5.002 4.155-9.449 9.42-9.449 5.263 0 9.42 4.169 9.42 9.449 0 5.002-4.157 9.448-9.42 9.448-5.265 0-9.42-4.446-9.42-9.448Zm24.934 0c0-8.615-6.926-15.562-15.515-15.562-8.588 0-15.515 6.947-15.515 15.562 0 7.503 5.264 13.895 12.468 15.284v37.517l6.095-6.114h6.095V72.44h-6.095v-6.114h6.095v-6.113h-6.095V47.429c7.203-1.945 12.467-8.059 12.467-15.562Z" fill="#fff"/></svg>