<svg width="101" height="101" fill="none" xmlns="http://www.w3.org/2000/svg"><circle cx="50.676" cy="50.486" r="50" fill="#00AEEF"/><path d="M20.332 64.045v20.502H27.1V70.88h40.387l6.767-6.834v20.502h6.768V64.045h-60.69Zm30.345-6.835c9.278 0 16.81-7.605 16.81-16.975h-6.768c0 5.622-4.475 10.141-10.042 10.141s-10.042-4.52-10.042-10.14c0-5.622 4.475-10.142 10.042-10.142V23.26c-9.278 0-16.81 7.606-16.81 16.975 0 9.37 7.532 16.975 16.81 16.975Zm20.739-26.344 9.606-9.59-4.803-4.85-9.605 9.59-4.694-4.85-4.803 4.85 9.497 9.59 4.802-4.74Z" fill="#fff"/></svg>