<svg width="393" height="480" fill="none" xmlns="http://www.w3.org/2000/svg"><path d="M371.076 194.46c-9.621 20.572-20.167 40.754-30.756 60.925-5.263 10.025-10.536 20.051-15.917 30.012-8.06 14.963-16.487 29.732-25.085 44.391-8.599 14.66-17.66 29.234-27.184 43.169-1.183 1.721-2.345 3.475-3.551 5.175l-3.659 5.024c-2.4 3.356-4.983 6.723-7.533 10.069a1397.749 1397.749 0 0 1-15.647 19.9c-7.824 9.745-15.809 19.337-24.052 28.616-4.122 4.623-8.319 9.182-12.624 13.48-2.152 2.166-4.304 4.234-6.521 6.085-.549.466-1.076.91-1.624 1.332l-.797.595-.334.239a2.666 2.666 0 0 1-1.453.606 2.685 2.685 0 0 1-.871-.249l-.42-.184-.581-.315c-1.292-.714-2.669-1.623-4.036-2.543-2.733-1.874-5.467-3.974-8.157-6.118-5.381-4.331-10.675-8.922-15.862-13.631a500.822 500.822 0 0 1-26.84-26.365 354.117 354.117 0 0 1-12.515-13.945 173.572 173.572 0 0 1-11.322-14.638 673.478 673.478 0 0 1-39.397-64.509l-4.025-7.579c-1.345-2.544-2.712-5.067-3.928-7.676l-7.534-15.504a8571.07 8571.07 0 0 0-7.295-16.003c-1.26-2.653-2.379-5.349-3.52-8.055l-3.4-8.11c-5.101-12.343-9.578-24.902-13.7-37.667-1.076-3.151-1.947-6.388-2.926-9.582l-2.842-9.615-2.518-9.744c-.828-3.248-1.754-6.497-2.432-9.745l-2.27-9.972-.56-2.501-.484-2.512-.958-5.023c-1.388-6.681-2.304-13.437-3.326-20.182-.452-3.378-.763-6.778-1.15-10.167-.162-1.7-.42-3.389-.496-5.089l-.58-8.921v-.531a2.169 2.169 0 0 1 0-.26l.246-.054 1.002-.228 2.011-.454 4.305-1.018 5.004-1.191a541.95 541.95 0 0 0 77.483-24.556c3.153-1.256 6.263-2.62 9.373-3.973 1.561-.639 3.09-1.45 4.639-2.165a72.97 72.97 0 0 0 4.595-2.318l4.444-2.598 2.218-1.31 2.152-1.43 4.305-2.847c1.388-1.007 2.743-2.035 4.11-3.053 10.955-8.196 20.802-17.638 30.401-27.21 4.864-4.85 9.685-9.744 14.442-14.68 2.389-2.448 4.822-4.851 7.243-7.276l3.701-3.541a47.604 47.604 0 0 1 1.873-1.732l1.711-1.548c1.076-1.029 2.293-1.96 3.466-2.924l.882-.715a3.76 3.76 0 0 1 .431-.335l.387.412 1.56 1.634c1.076 1.083 2.034 2.285 3.056 3.422l.754.866 2.453 2.955 13.021 15.938a283.991 283.991 0 0 0 28.067 29.915c10.212 9.084 21.523 17.108 33.91 22.738a293.612 293.612 0 0 0 77.945 22.531c6.393.909 12.817 1.602 19.242 2.165 1.786.163 3.572.282 5.38.412a36 36 0 0 0 4.822.303 2.305 2.305 0 0 0 1.635-.975c.754-.996-1.237-2.165-3.916-2.403a335.302 335.302 0 0 1-35.922-5.121 317 317 0 0 1-35.116-9.16c-2.863-.985-5.747-1.938-8.609-2.967-2.863-1.028-5.693-2.079-8.491-3.248-2.798-1.17-5.639-2.23-8.393-3.486l-4.144-1.84-2.066-.932-1.958-1.007a124.277 124.277 0 0 1-28.906-20.442c-8.986-8.293-17.025-17.605-24.967-27.198-4.003-4.807-7.899-9.744-11.838-14.725l-2.991-3.735-3.067-3.746-.388-.465-.214-.26-.313-.357-5.037-5.674-1.355-1.44-2.701-2.88-.678-.726-.334-.357c-.065 0-.118-.162-.172-.13l-.194.152-1.539 1.234-3.067 2.469c-2.056 1.678-4.068 3.248-6.069 5.078l-2.153 1.916-1.775 1.668a207.699 207.699 0 0 0-3.53 3.345c-4.627 4.493-9.094 9.02-13.56 13.502-8.921 8.954-17.863 17.658-27.334 25.573a147.456 147.456 0 0 1-30.401 20.29c-1.367.65-2.669 1.321-4.078 1.949l-4.305 1.851c-2.873 1.256-5.8 2.394-8.706 3.595-5.833 2.317-11.698 4.548-17.617 6.616-11.913 4.222-24.01 7.893-36.213 11.097a454.839 454.839 0 0 1-21.457 5.003l-7.459 1.526-8.932 1.776-1.495.303-.754.151H.266c-.064 0-.15.001-.118.098v.379c.161 4.092.312 8.207.463 12.289 0 1.451.097 2.891.15 4.331 0 1.082 0 2.165.15 3.313a396.137 396.137 0 0 0 11.838 71.903 581.575 581.575 0 0 0 22.513 68.925 607.464 607.464 0 0 0 33.092 70.106l4.757 8.435 2.39 4.223 1.183 2.1 1.259 2.068 10.126 16.522c.829 1.386 1.722 2.728 2.615 4.071l2.68 4.038 5.38 8.067 2.681 4.028c.452.682.86 1.331 1.355 2.024l1.485 2.09a194.875 194.875 0 0 0 6.102 7.958c5.725 7.092 11.709 13.739 17.843 20.225 6.134 6.485 12.451 12.765 18.908 18.893 6.457 6.129 13.086 12.084 20.038 17.833 3.487 2.88 7.027 5.695 10.848 8.423.968.672 1.904 1.354 2.937 2.025l1.518.996 1.624.996c.528.325 1.076.65 1.754.986.902.524 1.851.966 2.832 1.32a12.78 12.78 0 0 0 2.937.964l1.495.303 1.518.206a15.512 15.512 0 0 0 3.078-.412 16.323 16.323 0 0 0 2.927-1.082c.473-.228.936-.487 1.388-.758.452-.271.926-.552 1.367-.855.442-.304.904-.596 1.303-.899l.828-.628c2.152-1.635 3.928-3.248 5.693-4.894 6.887-6.496 12.914-13.22 18.897-20.019 5.984-6.8 11.73-13.675 17.412-20.626a1243.21 1243.21 0 0 0 16.799-21.005l8.232-10.632c2.723-3.573 5.381-7.341 8.093-10.99 10.482-14.887 19.984-30.175 29.25-45.615a1219.574 1219.574 0 0 0 26.71-46.849c8.556-15.797 16.842-31.452 24.752-47.444 8.813-17.681 17.702-35.73 24.751-54.136.947-2.577 2.055-5.413 2.927-8.239.431-1.386.818-2.74 1.076-4.039a19.73 19.73 0 0 0 .388-3.627c.07-2.659-.06-5.319-.388-7.958-.29-1.819-.84-3.681-2.228-3.367-1.797.411-4.089 4.168-5.736 7.124-1.883 3.465-3.82 7.135-5.627 10.892-1.808 3.757-3.681 7.568-5.435 11.282Z" fill="#F5B400"/><path d="M147.634 358.816c-3.874-6.193-7.618-12.451-11.546-18.59l-6.048-9.041c-3.067-4.504-5.972-9.105-8.9-13.696-1.495-2.306-2.884-4.655-4.304-6.994-1.421-2.339-2.895-4.656-4.305-7.027-2.722-4.688-5.489-9.366-8.093-14.076-3.099-5.467-5.909-11.097-8.728-16.717-2.82-5.619-5.444-11.347-8.016-17.096a676.129 676.129 0 0 1-18.672-45.051c-1.313-3.476-2.604-6.951-3.82-10.448-1.216-3.498-2.798-7.049-4.122-10.579a153.74 153.74 0 0 1-6.973-24.459 82.217 82.217 0 0 1-1.56-12.764l-.066-2.729.098-2.696.269-2.793c0-.174.15-.098.236-.119h7.221c.251.016.503.016.754 0 2.206 0 4.4-.054 6.607-.054 2.206 0 4.39-.12 6.597-.239l3.304-.195a30.5 30.5 0 0 0 3.292-.281c2.153-.282 4.334-.606 6.543-.974a29.89 29.89 0 0 0 3.229-.683l3.228-.79c4.305-.964 8.437-2.534 12.645-3.757l6.274-2.295c1.076-.39 2.099-.726 3.121-1.17l3.057-1.321 3.066-1.31c1.022-.443 2.045-.877 3.025-1.396l5.94-3.032c.99-.477 1.926-1.083 2.873-1.635l2.842-1.7 2.84-1.721c.926-.596 1.808-1.256 2.723-1.884 1.797-1.278 3.627-2.512 5.381-3.855l5.09-4.212 1.27-1.082 3.583-3.411 2.367-2.285c.797-.747 1.486-1.613 2.228-2.414 1.442-1.657 2.928-3.248 4.305-4.97 1.378-1.721 2.572-3.54 3.799-5.338l.882-1.277.796-1.353 1.582-2.675.893-1.483c.216-.357.764-.899.808-1.31.043-.412-.248-.639-.625-1.083a1.681 1.681 0 0 0-1.198-.602 1.676 1.676 0 0 0-1.255.472l-3.293 4.624a23.108 23.108 0 0 1-1.732 2.251l-1.809 2.166a108.936 108.936 0 0 1-7.694 8.424c-1.345 1.353-2.83 2.555-4.24 3.832l-2.152 1.884c-.711.639-1.518 1.17-2.271 1.754a450.034 450.034 0 0 1-4.628 3.367c-1.549 1.116-3.228 2.003-4.896 2.978l-2.529 1.462c-.839.498-1.732.877-2.604 1.331a138.094 138.094 0 0 0-5.155 2.697c-1.7.941-3.529 1.689-5.294 2.544l-2.648 1.256c-.883.4-1.808.736-2.712 1.082l-5.381 2.166c-1.84.649-3.702 1.245-5.553 1.862l-2.776.931c-.937.282-1.884.509-2.82.769l-5.66 1.483c-1.916.423-3.853.769-5.78 1.159l-2.883.563c-.969.173-1.948.26-2.916.39l-5.823.736c-1.947.162-3.906.238-5.854.357l-2.938.152c-.979.054-1.97 0-2.948 0l-5.876-.108h-.968l-11.15-.607-3.616-.184-.925-.054c-.086.27-.13.606-.194.91l-.344 1.862a191.72 191.72 0 0 0-1.324 7.579l-.236 1.396c-.076.466-.086.899-.14 1.343-.075.888-.151 1.765-.237 2.642l-.118 1.32-.054.661v5.327c0 1.083 0 2.166.128 3.183.245 4.06.749 8.099 1.507 12.094a236.446 236.446 0 0 0 5.909 23.344 494.114 494.114 0 0 0 16.637 47.13c4.897 11.975 10.31 23.711 16.142 35.232l4.014 7.752a327.45 327.45 0 0 0 4.111 7.709l4.197 7.644 4.305 7.579c1.431 2.545 2.927 5.046 4.444 7.579 1.518 2.534 2.982 5.002 4.52 7.481 3.121 4.927 6.177 9.875 9.427 14.704 3.25 4.829 6.457 9.604 9.686 14.357a347.6 347.6 0 0 0 5.52 7.882 66.205 66.205 0 0 0 6.112 7.427c1.249 1.288 2.68 2.967 4.757 3.108 1.346.13 2.701.13 4.047 0a4.915 4.915 0 0 0 3.153-1.278 4.153 4.153 0 0 0 .602-3.865 23.638 23.638 0 0 0-3.584-7.179Z" fill="#F5B400"/></svg>